<?xml version="1.0" encoding="UTF-8"?>
<svg width="48px" height="48px" viewBox="0 0 48 48" version="1.1" xmlns="http://www.w3.org/2000/svg" xmlns:xlink="http://www.w3.org/1999/xlink">
    <!-- Generator: Sketch 43.2 (39069) - http://www.bohemiancoding.com/sketch -->
    <title>theicons.co/svg/animals-09</title>
    <desc>Created with Sketch.</desc>
    <defs></defs>
    <g id="The-Icons" stroke="none" stroke-width="1" fill="none" fill-rule="evenodd">
        <path d="M16.5666488,11.543951 C17.3209796,10.7896202 18.1988365,10.0346611 19.1737986,9.29763043 C19.1750118,9.22507014 19.1780277,9.14138118 19.1834753,9.04791023 C19.1708095,7.2471744 19.8486875,5.44248336 21.2171092,4.06511712 C23.7788184,1.50335429 27.7965158,1.32793401 30.5447415,3.52235828 C35.3223454,2.07213828 40.2544979,1.85636007 43.1538638,4.7557259 C46.0511048,7.65296694 45.9205948,12.9203817 44.4069303,17.375623 C46.6401668,20.124851 46.4770564,24.1732073 43.9175991,26.7326646 C42.4528333,28.1974304 40.5004203,28.8773396 38.5829461,28.7723924 C38.1357874,29.3740312 37.3443564,30.3642232 36.3656387,31.3429409 C30.9025843,36.8059952 23.029846,38.2176616 17.4147877,34.9901618 C16.2755678,36.5059768 14.39355,37.1312738 11.3585671,37.5864562 C11.1975762,37.6105914 11.1975762,37.6105914 11.0392671,37.6345149 C8.51601134,38.0175041 7.65203524,38.4156566 7.14888403,39.552627 C6.57951689,40.8392256 7.87134889,42.2630513 10.0238052,41.7268838 C10.4281887,41.6261536 12.981219,40.875245 13.0870824,40.8437179 C14.3596556,40.4647344 15.2716877,40.215041 16.2010224,40.0055291 C19.9997907,39.1491238 22.9204318,39.3063117 25.2470213,41.0741622 C26.1265029,41.742433 26.297723,42.9971343 25.6294522,43.8766159 C24.9611813,44.7560974 23.7064801,44.9273176 22.8269985,44.2590467 C21.6773433,43.3854855 19.8361915,43.2863953 17.080716,43.9075977 C16.2584793,44.0929651 15.4218965,44.3220022 14.228765,44.6773273 C14.1328384,44.7058951 11.4581107,45.4918342 10.9906438,45.6082782 C5.69303445,46.9278899 1.53767341,42.3479521 3.4910527,37.9339022 C4.72359232,35.1487333 6.66958454,34.2519475 10.4390073,33.6798104 C10.6036259,33.6549336 10.6036259,33.6549336 10.7652882,33.6306984 C12.8781519,33.3138141 13.799813,33.0478424 14.2654095,32.3906174 C9.4139395,26.7821726 10.4553009,17.6552989 16.5666488,11.543951 Z M33.5372115,28.5145137 C28.6434901,33.4082352 21.5404186,34.053969 17.6980196,30.21157 C13.8556207,26.3691711 14.5013545,19.2660996 19.3950759,14.3723781 C19.6426775,14.1247766 20.1162539,13.7304417 20.6591397,13.2988118 C20.8349104,13.5240153 21.0263817,13.7409422 21.2335536,13.9481141 C22.5848691,15.2994296 24.3989077,16.0214127 26.2719065,15.9978083 C27.3763883,15.9838891 28.260464,15.077246 28.2465448,13.9727642 C28.2326256,12.8682824 27.3259825,11.9842067 26.2215007,11.9981259 C25.4159751,12.0082775 24.642882,11.7005883 24.0619807,11.1196869 C22.8904078,9.94811406 22.8904078,8.04861912 24.0619807,6.87704624 C24.6477671,6.29125981 25.4155341,5.99836659 26.183301,5.99836659 C26.951068,5.99836659 27.7188349,6.29125981 28.3046214,6.87704624 C28.3646449,6.9370698 29.3628281,8.10968103 29.3628281,8.10968103 L30.6586478,7.65907882 C35.2342103,6.06799441 38.8233365,6.0820529 40.3254366,7.58415303 C41.8275368,9.08625315 41.8415953,12.6753794 40.2505109,17.2509419 L39.7999086,18.5467616 C39.7999086,18.5467616 40.9725199,19.5449448 41.0325434,19.6049683 C42.2041163,20.7765412 42.2041163,22.6760361 41.0325434,23.847609 C40.2795959,24.6005565 39.2023033,24.8894593 38.1861087,24.6381085 L37.7748817,24.5363935 C37.437799,24.3904629 37.122038,24.1797443 36.8465312,23.9042375 C36.2656299,23.3233362 35.9579407,22.5502431 35.9680923,21.7447175 C35.9820115,20.6402357 35.0979358,19.7335926 33.993454,19.7196734 C32.8889722,19.7057542 31.9823291,20.5898299 31.9684099,21.6943117 C31.9448055,23.5673105 32.6667886,25.3813491 34.0181041,26.7326646 C34.2060613,26.9206218 34.4020479,27.0956556 34.6049598,27.2577663 C34.175606,27.7975886 33.7837002,28.2680251 33.5372115,28.5145137 Z M33.9614756,12.5339005 C34.7425242,11.7528519 34.7425242,10.486522 33.9614756,9.70547337 C33.180427,8.92442479 31.9140971,8.92442479 31.1330485,9.70547337 C30.3519999,10.486522 30.3519999,11.7528519 31.1330485,12.5339005 C31.9140971,13.3149491 33.180427,13.3149491 33.9614756,12.5339005 Z M38.2041163,16.7765412 C38.9851649,15.9954926 38.9851649,14.7291626 38.2041163,13.9481141 C37.4230677,13.1670655 36.1567378,13.1670655 35.3756892,13.9481141 C34.5946406,14.7291626 34.5946406,15.9954926 35.3756892,16.7765412 C36.1567378,17.5575898 37.4230677,17.5575898 38.2041163,16.7765412 Z" id="Combined-Shape" fill="#000000"></path>
    </g>
</svg>