<?xml version="1.0" encoding="UTF-8"?>
<svg width="48px" height="48px" viewBox="0 0 48 48" version="1.1" xmlns="http://www.w3.org/2000/svg" xmlns:xlink="http://www.w3.org/1999/xlink">
    <!-- Generator: Sketch 43.2 (39069) - http://www.bohemiancoding.com/sketch -->
    <title>theicons.co/svg/animals-16</title>
    <desc>Created with Sketch.</desc>
    <defs></defs>
    <g id="The-Icons" stroke="none" stroke-width="1" fill="none" fill-rule="evenodd">
        <path d="M15.4553685,5.93071287 C14.3893415,5.64147207 13.7596318,4.54281046 14.0488726,3.47678347 C14.3381134,2.41075648 15.436775,1.78104685 16.502802,2.07028765 C20.2606234,3.08988214 22.5834885,4.17956282 23.9895426,5.94629369 C25.3955968,4.17956282 27.7184618,3.08988214 31.4762832,2.07028765 C32.5423102,1.78104685 33.6409718,2.41075648 33.9302126,3.47678347 C34.2194534,4.54281046 33.5897438,5.64147207 32.5237168,5.93071287 C27.072095,7.40987939 26.0947395,8.2485757 25.9940924,13.7233683 C26.8380463,12.9146223 27.8503916,12.1659809 29.06152,11.5077024 C34.90987,8.32898622 42.10508,11.3596992 42.10508,11.3596992 C43.15712,11.6943489 44,12.8918096 44,13.9912954 L44,22.0005003 C44,25.1502801 42.47345,28.0688605 40.36633,29.7177863 C40.21667,29.8349019 38.61664,31.206922 36.70032,31.6312981 C37.97959,33.1602301 37.91272,35.4451451 37.97959,35.4253513 C37.99312,35.6153113 38,35.8071044 38,36.0005003 C38,40.409788 34.41828,44.0005003 30,44.0005003 C27.61381,44.0005003 25.46736,42.9515257 24,41.2886656 C22.53264,42.9515257 20.38619,44.0005003 18,44.0005003 C13.58172,44.0005003 10,40.409788 10,36.0005003 C10,35.8071044 10.00688,35.6153113 10.02041,35.4253513 C10.08728,35.4451451 10.02041,33.1602301 11.29968,31.6312981 C9.38336,31.206922 7.78333,29.8349019 7.63367,29.7177863 C5.52655,28.0688605 4,25.1502801 4,22.0005003 L4,13.9912954 C4,12.8918096 4.84288,11.6943489 5.89492,11.3596992 C5.89492,11.3596992 13.09013,8.32898622 18.93848,11.5077024 C20.1394396,12.1604539 21.1449401,12.9020573 21.9846142,13.7030101 C22,8.23853737 20.9002258,7.40804401 15.4553685,5.93071287 Z M14.6472305,33.8207985 C14.2260938,34.4646786 14,35.2112083 14,36.0005003 C14,38.2044485 15.7946587,40.0005003 18,40.0005003 C20.2039482,40.0005003 22,38.2058416 22,36.0005003 L22,23.9580198 C22,19.9732037 20.5943801,16.9603822 17.0283002,15.0221336 C16.4596984,14.713085 15.8416672,14.4808889 15.1742099,14.3211688 C13.2665017,13.8646611 11.0673367,14.0179064 8.92774761,14.5774598 C8.1906943,14.7702168 8,14.8460813 8,14.8460813 L8,22.0005003 C8,24.7086407 9.8106704,27.0609188 12.3776646,27.779292 L15.7079889,28.7112831 C16.7729226,29.0093047 17.1426508,30.0055249 16.5402042,30.9266116 L14.6472305,33.8207985 Z M33.3527695,33.8207985 L31.4597958,30.9266116 C30.8573492,30.0055249 31.2270774,29.0093047 32.2920111,28.7112831 L35.6223354,27.779292 C38.1893296,27.0609188 40,24.7086407 40,22.0005003 L40,14.8460813 C40,14.8460813 39.8093057,14.7702168 39.0722524,14.5774598 C36.9326633,14.0179064 34.7334983,13.8646611 32.8257901,14.3211688 C32.1583328,14.4808889 31.5403016,14.713085 30.9716998,15.0221336 C27.4056199,16.9603822 26,19.9732037 26,23.9580198 L26,36.0005003 C26,38.2058416 27.7960518,40.0005003 30,40.0005003 C32.2053413,40.0005003 34,38.2044485 34,36.0005003 C34,35.2112083 33.7739062,34.4646786 33.3527695,33.8207985 Z M15,24.0005003 C13.3431458,24.0005003 12,22.6573545 12,21.0005003 C12,19.343646 13.3431458,18.0005003 15,18.0005003 C16.6568542,18.0005003 18,19.343646 18,21.0005003 C18,22.6573545 16.6568542,24.0005003 15,24.0005003 Z M33,24.0005003 C31.3431458,24.0005003 30,22.6573545 30,21.0005003 C30,19.343646 31.3431458,18.0005003 33,18.0005003 C34.6568542,18.0005003 36,19.343646 36,21.0005003 C36,22.6573545 34.6568542,24.0005003 33,24.0005003 Z" id="Combined-Shape" fill="#000000"></path>
    </g>
</svg>