<?xml version="1.0" encoding="UTF-8"?>
<svg width="48px" height="48px" viewBox="0 0 48 48" version="1.1" xmlns="http://www.w3.org/2000/svg" xmlns:xlink="http://www.w3.org/1999/xlink">
    <!-- Generator: Sketch 43.2 (39069) - http://www.bohemiancoding.com/sketch -->
    <title>theicons.co/svg/animals-06</title>
    <desc>Created with Sketch.</desc>
    <defs></defs>
    <g id="The-Icons" stroke="none" stroke-width="1" fill="none" fill-rule="evenodd">
        <path d="M13.5295776,23.4472331 C19.2380685,21.1548716 19.9870581,18.4766113 18.1147171,15.1104031 C17.574174,14.1385819 17.9165131,12.908481 18.879353,12.3628958 C19.8421928,11.8173106 21.0609255,12.162843 21.6014686,13.1346642 C24.6020041,18.5292089 23.0850184,23.9536936 15.0077781,27.197275 C8.8755805,29.6597847 7.27093705,32.9025841 8.27666948,36.9544615 C9.04492998,40.0496162 13.3450797,42.1172278 17.3789455,40.261833 C20.0181709,39.0479093 22.5195313,38.182373 24.0000001,38.1814097 C25.480469,38.1804463 27.2996765,38.7341502 30.6210545,40.261833 C34.6549203,42.1172278 38.95507,40.0496162 39.7233305,36.9544615 C40.7290629,32.9025841 39.1244195,29.6597847 32.9922219,27.197275 C24.9149816,23.9536936 23.5061487,18.421563 26.3985314,13.1323922 C26.9333806,12.1543375 28.1578072,11.8173106 29.120647,12.3628958 C30.0834869,12.908481 30.425826,14.1385819 29.8852829,15.1104031 C28.0129419,18.4766113 28.7619315,21.1548716 34.4704224,23.4472331 C35.1732359,23.7294623 35.8344785,24.0275417 36.4550289,24.3405678 C36.5405891,24.2067234 36.6144329,24.0850447 36.667595,23.9870485 C37.4917633,22.4678182 37.9861079,20.7869651 37.9953115,18.9935684 C37.98732,17.4572597 37.2735953,16.06145 36.031133,14.8256141 C35.5682524,14.3652022 34.8764072,13.7695362 33.9735189,13.2645517 L33.7603871,13.1559922 C32.7781887,12.6557057 32.4626854,11.5041714 33.0681211,10.5646795 L33.1982897,10.3626888 C34.1135431,8.94378213 34.2583305,7.67910089 33.6672222,7.25423549 C33.1544606,6.88568263 32.3743696,6.95846649 31.6016043,7.98855874 C31.2002236,8.52359708 30.6827094,9.23824845 30.6827094,9.23824845 C30.3583327,9.68371432 29.6395858,10.0448358 29.0947045,10 L18.9053221,10 C18.3604408,10.0448358 17.6416939,9.68371432 17.3173172,9.23824845 C17.3173172,9.23824845 16.799803,8.52359708 16.3984223,7.98855874 C15.625657,6.95846649 14.845566,6.88568263 14.3328044,7.25423549 C13.7416961,7.67910089 13.8864835,8.94378213 14.8017369,10.3626888 L14.9319055,10.5646795 C15.5373412,11.5041714 15.2218379,12.6557057 14.2396395,13.1559922 L14.0265077,13.2645517 C13.1236194,13.7695362 12.4317742,14.3652022 11.9688936,14.8256141 C10.7264313,16.06145 10.0127066,17.4572597 10.0047151,18.9935684 C10.0139187,20.7869651 10.5082633,22.4678182 11.3324316,23.9870485 C11.3855924,24.0850422 11.4594338,24.2067172 11.5449912,24.3405577 C12.1655358,24.0275353 12.8267717,23.7294593 13.5295776,23.4472331 Z M7.82513445,25.9253863 C6.70156991,23.8542642 6.01905158,21.5335893 6.00612365,18.9935684 C6.02029386,16.232383 7.22349441,13.8793203 9.16218538,11.9509689 C9.63197326,11.4836865 10.1010669,11.0801529 10.5470752,10.7385058 C10.2855307,10.1782874 9.99752998,8.98478194 10.0047151,7.98855858 C10.0171447,6.26520254 10.6070412,4.58666875 12.3351292,3.62677553 C14.6505068,2.34066324 17.2109359,3.13069441 19.2048865,5.11367071 C19.5143525,5.42143353 19.7870513,5.7274549 20.0013548,6.00889158 L27.9986718,6.00889158 C28.2129753,5.7274549 28.4856741,5.42143353 28.7951402,5.11367071 C30.7890907,3.13069441 33.3495198,2.34066324 35.6648974,3.62677553 C37.3929854,4.58666875 37.9828819,6.26520254 37.9953115,7.98855858 C38.0024966,8.98478194 37.7144959,10.1782874 37.4529514,10.7385058 C37.8989597,11.0801529 38.3680533,11.4836865 38.8378412,11.9509689 C40.7765322,13.8793203 41.9797327,16.232383 41.9939029,18.9935684 C41.980975,21.5335893 41.2984567,23.8542642 40.1748922,25.9253863 C40.0643739,26.12911 39.9535347,26.3238167 39.8432231,26.5093504 C43.5986955,29.59318 44.6847761,33.5734155 43.6021026,37.9352718 C42.2246649,43.4846688 35.2628164,46.8320869 28.9629113,43.9344171 C26.9925389,43.0281354 25.3757324,42 23.9999999,42 C22.6242673,42 21.0074611,43.0281354 19.0370887,43.9344171 C12.7371836,46.8320869 5.77533506,43.4846688 4.39789741,37.9352718 C3.3152222,33.5734086 4.40130794,29.5931673 8.15679144,26.5093384 C8.04648605,26.3238064 7.93564974,26.1291046 7.82513445,25.9253863 Z M15,20 C13.8954305,20 13,19.1045695 13,18 C13,16.8954305 13.8954305,16 15,16 C16.1045695,16 17,16.8954305 17,18 C17,19.1045695 16.1045695,20 15,20 Z M33,20 C31.8954305,20 31,19.1045695 31,18 C31,16.8954305 31.8954305,16 33,16 C34.1045695,16 35,16.8954305 35,18 C35,19.1045695 34.1045695,20 33,20 Z M17.3121492,37.3079988 C16.1643321,38.4558158 13.9816171,38.1340799 12.4369187,36.5893815 C10.8922203,35.0446832 10.5704844,32.8619681 11.7183015,31.7141511 C12.8661185,30.5663341 15.0488335,30.88807 16.5935319,32.4327683 C18.1382303,33.9774667 18.4599662,36.1601817 17.3121492,37.3079988 Z M30.7183015,37.3079988 C29.5704844,36.1601817 29.8922203,33.9774667 31.4369187,32.4327683 C32.9816171,30.88807 35.1643321,30.5663341 36.3121492,31.7141511 C37.4599662,32.8619681 37.1382303,35.0446832 35.5935319,36.5893815 C34.0488335,38.1340799 31.8661185,38.4558158 30.7183015,37.3079988 Z" id="Combined-Shape" fill="#000000"></path>
    </g>
</svg>