<?xml version="1.0" encoding="UTF-8"?>
<svg width="48px" height="48px" viewBox="0 0 48 48" version="1.1" xmlns="http://www.w3.org/2000/svg" xmlns:xlink="http://www.w3.org/1999/xlink">
    <!-- Generator: Sketch 43.2 (39069) - http://www.bohemiancoding.com/sketch -->
    <title>theicons.co/svg/animals-12</title>
    <desc>Created with Sketch.</desc>
    <defs></defs>
    <g id="The-Icons" stroke="none" stroke-width="1" fill="none" fill-rule="evenodd">
        <path d="M26,28 L26,42.0049107 C26,43.1067681 25.1122704,44 24,44 C22.8954305,44 22,43.1073772 22,42.0049107 L22,28 L21.0232395,28 C21.0256445,28.1318906 21.0570641,29.8763221 21.0610267,30.4449104 C21.090392,34.6585054 20.7695128,37.4342245 19.681403,39.9042553 C18.2194551,43.2229062 15.4682767,45.3142303 11.3158426,45.9783214 C10.2251336,46.1527564 9.19953166,45.4099696 9.0250966,44.3192606 C8.85066154,43.2285516 9.59344835,42.2029496 10.6841574,42.0285146 C15.7471691,41.2187965 17.1143851,38.1151892 17.0611238,30.4727864 C17.0573071,29.9251242 17.0253565,28.1535932 17.0225789,28 L16,28 L16,31.9999998 C16,35.3137085 13.3137085,38 10,38 C6.6862915,38 4,35.3137085 4,32 C4,30.444594 4.59701646,28.9777461 5.64609941,27.8716038 C6.40620345,27.0701578 7.67208985,27.0366436 8.4735358,27.7967476 C9.27498176,28.5568517 9.308496,29.8227381 8.54839195,30.624184 C8.19728851,30.9943839 8,31.4791146 8,32 C8,33.1045695 8.8954305,34 10,34 C11.1045695,34 12,33.1045695 12,32 L12,16 C12,9.372583 17.3711258,4 24,4 C30.627417,4 36,9.37112582 36,16 L36,32 C36,33.1045695 36.8954305,34 38,34 C39.1045695,34 40,33.1045695 40,32 C40,31.4791146 39.8027115,30.9943839 39.451608,30.624184 C38.691504,29.8227381 38.7250182,28.5568517 39.5264642,27.7967476 C40.3279102,27.0366436 41.5937965,27.0701578 42.3539006,27.8716038 C43.4029835,28.9777461 44,30.444594 44,32 C44,35.3137085 41.3137085,38 38,38 C34.6862915,38 32,35.3137085 32,32 L32,28 L31.040403,28 C31.0376254,28.1535932 31.0056749,29.9251242 31.0018581,30.4727864 C30.9485969,38.1151892 32.3158128,41.2187965 37.3788246,42.0285146 C38.4695336,42.2029496 39.2123204,43.2285516 39.0378854,44.3192606 C38.8634503,45.4099696 37.8378484,46.1527564 36.7471393,45.9783214 C32.5947053,45.3142303 29.8435269,43.2229062 28.3815789,39.9042553 C27.2934692,37.4342245 26.97259,34.6585054 27.0019552,30.4449104 C27.0059178,29.8763221 27.0373374,28.1318906 27.0397424,28 L26,28 Z M32,24.0246582 L32,16 C32,11.5808432 28.4188564,8 24,8 C19.5808432,8 16,11.5811436 16,16 L16,24 L32,24.0246582 Z M20,22 C18.8954305,22 18,21.1045695 18,20 C18,18.8954305 18.8954305,18 20,18 C21.1045695,18 22,18.8954305 22,20 C22,21.1045695 21.1045695,22 20,22 Z M28,22 C26.8954305,22 26,21.1045695 26,20 C26,18.8954305 26.8954305,18 28,18 C29.1045695,18 30,18.8954305 30,20 C30,21.1045695 29.1045695,22 28,22 Z" id="Combined-Shape" fill="#000000"></path>
    </g>
</svg>