<?xml version="1.0" encoding="UTF-8"?>
<svg width="48px" height="48px" viewBox="0 0 48 48" version="1.1" xmlns="http://www.w3.org/2000/svg" xmlns:xlink="http://www.w3.org/1999/xlink">
    <!-- Generator: Sketch 43.2 (39069) - http://www.bohemiancoding.com/sketch -->
    <title>theicons.co/svg/animals-13</title>
    <desc>Created with Sketch.</desc>
    <defs></defs>
    <g id="The-Icons" stroke="none" stroke-width="1" fill="none" fill-rule="evenodd">
        <path d="M27.6175869,35.7256333 C27.6175869,37.206198 26.8131896,38.4988857 25.6175869,39.1905045 L25.6175869,41.7348381 C25.6175869,42.8343239 24.7298573,43.7256333 23.6175869,43.7256333 C22.5130174,43.7256333 21.6175869,42.8274209 21.6175869,41.7348381 L21.6175869,39.1905045 C20.4219842,38.4988857 19.6175869,37.206198 19.6175869,35.7256333 C19.6175869,34.2450686 20.4219842,32.9523809 21.6175869,32.2607621 C21.6175869,32.2607621 21.6180285,25.6674865 21.6189044,25.6431785 C20.9381832,25.7464166 20.1530951,25.9261424 19.4508389,26.0998306 C19.4613126,26.2130721 19.4721603,26.3420585 19.4828642,26.4857637 C19.6417733,28.6192075 19.5635819,30.9669111 19.0662258,33.2297038 C17.9446521,38.3324639 14.9941125,41.6138169 9.7293093,41.6138169 C8.6247398,41.6138169 7.7293093,40.7183864 7.7293093,39.6138169 C7.7293093,38.5092474 8.6247398,37.6138169 9.7293093,37.6138169 C11.7532134,37.6138169 13.1677337,36.8330526 14.1163414,35.3235658 C13.2203263,34.8046746 12.6175869,33.8355426 12.6175869,32.7256333 C12.6175869,31.0731134 13.9537144,29.7326628 15.6045903,29.7256608 C15.6579919,28.87515 15.6566789,28.0265279 15.6129669,27.2130128 C10.0077399,28.9750848 5,30.5626473 5,23.6175869 C5,13.3353776 13.3353776,5 23.6175869,5 C33.8997962,5 42.2351738,13.3353776 42.2351738,23.6175869 C42.2351738,30.5072914 37.2035058,28.9577537 31.6526821,27.2130128 C31.6111035,28.0148435 31.6107991,28.8501249 31.6635092,29.6871901 C33.2509759,29.7650242 34.6175869,31.1188622 34.6175869,32.7256333 C34.6175869,33.794164 34.0589514,34.7322183 33.2178068,35.26367 C34.1664993,36.8123943 35.5914964,37.6138169 37.642001,37.6138169 C38.7465705,37.6138169 39.642001,38.5092474 39.642001,39.6138169 C39.642001,40.7183864 38.7465705,41.6138169 37.642001,41.6138169 C32.3771978,41.6138169 29.2129155,38.3324639 28.0913418,33.2297038 C27.5939857,30.9669111 27.5157943,28.6192075 27.6747034,26.4857637 C27.6843744,26.3559252 27.6941628,26.2381021 27.7036868,26.133051 C26.9562416,25.9448128 26.3399516,25.7529309 25.6162419,25.6431743 C25.617136,25.6674891 25.6175869,32.2607621 25.6175869,32.2607621 C26.8131896,32.9523809 27.6175869,34.2450686 27.6175869,35.7256333 Z M30.440573,22.6675705 C31.0381889,22.8416108 31.6165572,23.0188705 32.4677233,23.2859013 C36.3081112,24.4907212 38.1154984,24.9213731 38.1154984,24.9213731 C38.1154984,24.9213731 38.2351738,24.1866175 38.2351738,23.6175869 C38.2351738,15.5445166 31.6906572,9 23.6175869,9 C15.5445166,9 9,15.5445166 9,23.6175869 C9,24.1866175 9.11967544,24.9213731 9.11967544,24.9213731 C9.11967544,24.9213731 10.9270626,24.4907212 14.7674505,23.2859013 C15.6186166,23.0188705 16.1969849,22.8416108 16.7946008,22.6675705 C19.4855521,21.8839002 21.5726843,21.4793456 23.6175869,21.4793456 C25.6624895,21.4793456 27.7496217,21.8839002 30.440573,22.6675705 Z" id="Combined-Shape" fill="#000000"></path>
    </g>
</svg>