<?xml version="1.0" encoding="UTF-8"?>
<svg width="48px" height="48px" viewBox="0 0 48 48" version="1.1" xmlns="http://www.w3.org/2000/svg" xmlns:xlink="http://www.w3.org/1999/xlink">
    <!-- Generator: Sketch 43.2 (39069) - http://www.bohemiancoding.com/sketch -->
    <title>theicons.co/svg/animals-15</title>
    <desc>Created with Sketch.</desc>
    <defs></defs>
    <g id="The-Icons" stroke="none" stroke-width="1" fill="none" fill-rule="evenodd">
        <path d="M26.1763089,8.01780198 C27.6275488,5.53228031 30.2512423,4.03442383 34.0174561,4.03442384 C35.1220256,4.03442385 36.0174561,4.92985435 36.0174561,6.03442385 C36.0174561,7.13899335 35.1220256,8.03442385 34.0174561,8.03442384 C31.6696714,8.03442383 30.3629373,8.78043324 29.6306063,10.0346881 C29.3707206,10.4797914 29.1984563,10.9715164 29.1023719,11.4652044 C29.0828536,11.5654906 29.0681194,11.6554136 29.0572173,11.732738 C30.8441186,13.1820204 31.9819435,15.502996 31.981944,18.5145382 C32.5099286,18.881089 33.0093115,19.2814842 33.4775697,19.7120696 L36.0013425,17.1882968 C36.7816497,16.4079896 38.0419332,16.4031454 38.8284271,17.1896393 C39.6094757,17.9706879 39.6156446,19.2308489 38.8297697,20.0167239 L36.0163598,22.8301338 C36.957318,24.4022631 37.5917273,26.1628271 37.8581387,28.0228335 C37.9043563,28.0196728 37.9510273,28.0180664 37.9981014,28.0180664 L42.0018986,28.0180664 C43.1054196,28.0180664 44,28.9057961 44,30.0180664 C44,31.1226359 43.1132936,32.0180664 42.0018986,32.0180664 L37.9981014,32.0180664 C37.9513075,32.0180664 37.9048894,32.0164702 37.8588992,32.0133283 C37.5911338,33.8898864 36.9512467,35.646489 36.0163673,37.2060066 L38.8297697,40.019409 C39.6156446,40.8052839 39.6094757,42.065445 38.8284271,42.8464935 C38.0419332,43.6329875 36.7816497,43.6281432 36.0013425,42.8478361 L33.4766657,40.3231592 C30.983329,42.6172445 27.6552542,44.0180664 24,44.0180664 C20.3447458,44.0180664 17.016671,42.6172445 14.5233343,40.3231592 L11.9986575,42.8478361 C11.2183503,43.6281432 9.95806679,43.6329875 9.17157288,42.8464935 C8.39052429,42.065445 8.38435539,40.8052839 9.17023033,40.019409 L11.9836327,37.2060066 C11.048757,35.6464953 10.4088713,33.8899006 10.141104,32.013351 C10.0951339,32.0164775 10.0487156,32.0180664 10.0018986,32.0180664 L5.99810135,32.0180664 C4.89458045,32.0180664 4,31.1303368 4,30.0180664 C4,28.9134969 4.88670635,28.0180664 5.99810135,28.0180664 L10.0018986,28.0180664 C10.0489493,28.0180664 10.0956201,28.0196802 10.141858,28.0228564 C10.4082675,26.1628416 11.0426782,24.4022696 11.9836402,22.8301338 L9.17023033,20.0167239 C8.38435539,19.2308489 8.39052429,17.9706879 9.17157288,17.1896393 C9.95806679,16.4031454 11.2183503,16.4079896 11.9986575,17.1882968 L14.5224303,19.7120696 C14.994411,19.2780612 15.4980133,18.8747249 16.0306534,18.5058027 C16.0306534,15.491554 17.1882422,13.1524126 19.0039001,11.7000689 C18.9934147,11.6290737 18.979877,11.548586 18.9626442,11.4601115 C18.8657227,10.9625087 18.6919487,10.4668589 18.4297016,10.0180598 C17.6903873,8.752827 16.3706877,8 14.0025635,8 C12.897994,8 12.0025635,7.1045695 12.0025635,6 C12.0025635,4.8954305 12.897994,4 14.0025635,4 C17.7883852,3.99999999 20.4247937,5.50394781 21.8833172,8.00000639 C22.2811262,8.68080079 22.5642648,9.39064301 22.7536619,10.1057975 C23.1595289,10.0476457 23.5757669,10.0180664 24,10.0180664 C24.4465091,10.0180664 24.8842901,10.0504091 25.3105467,10.1140584 C25.49894,9.40217642 25.7805805,8.69556153 26.1763089,8.01780198 Z M29.5728303,21.8624259 C28.4733492,22.3487852 27.2787445,22.7046444 26,22.886921 L26,26.5531952 C27.1956027,27.244814 28,28.5375017 28,30.0180664 C28,31.4986311 27.1956027,32.7913188 26,33.4829376 L26,39.8180302 C27.4192115,39.5299455 28.7292813,38.9413033 29.8608778,38.1214352 C29.3284555,37.5800197 29,36.8374005 29,36.0180664 C29,34.3612122 30.3431458,33.0180664 32,33.0180664 C32.5146359,33.0180664 32.9990056,33.1476514 33.4222596,33.3759719 C33.7963211,32.3264393 34,31.1960387 34,30.0180664 C34,29.961247 33.3501013,30.0180664 33,30.0180664 C31.3431458,30.0180664 30,28.6749207 30,27.0180664 C30,25.6737595 30.8842018,24.535969 32.1027578,24.1545424 C31.447223,23.2492134 30.6388856,22.4523022 29.7049278,21.8032034 C29.661431,21.8229668 29.6173978,21.8427113 29.5728303,21.8624259 Z M28,18.0180664 C28,15.8089274 26.209139,14.0180664 24,14.0180664 C21.790861,14.0180664 20,15.8089274 20,18.0180664 C20,18.0443439 19.9950426,18.0857218 19.9858888,18.1397271 C20.0324302,18.1611559 20.0801638,18.1827109 20.1290742,18.2043466 C21.2871821,18.7166397 22.600607,19.0247803 24.0418701,19.0247803 C25.4831332,19.0247803 26.7965581,18.7166397 27.954666,18.2043466 C27.9768046,18.1945535 27.998702,18.184777 28.0203569,18.1750212 C28.0072327,18.1035773 28,18.0498064 28,18.0180664 Z M15.8972422,24.1545424 C17.1157982,24.535969 18,25.6737595 18,27.0180664 C18,28.6749207 16.6568542,30.0180664 15,30.0180664 C14.6498987,30.0180664 14,29.961247 14,30.0180664 C14,31.1960387 14.2036789,32.3264393 14.5777404,33.3759719 C15.0009944,33.1476514 15.4853641,33.0180664 16,33.0180664 C17.6568542,33.0180664 19,34.3612122 19,36.0180664 C19,36.8374005 18.6715445,37.5800197 18.1391222,38.1214352 C19.2707187,38.9413033 20.5807885,39.5299455 22,39.8180302 L22,33.4829376 C20.8043973,32.7913188 20,31.4986311 20,30.0180664 C20,28.5375017 20.8043973,27.244814 22,26.5531952 L22,22.8747188 C20.7528125,22.6890237 19.5863561,22.3381533 18.5109099,21.8624259 C18.4490299,21.8350531 18.3881799,21.8076225 18.3283655,21.780164 C17.3803154,22.433409 16.560554,23.2384729 15.8972422,24.1545424 Z" id="Combined-Shape" fill="#4D4D4D"></path>
        <path d="M26.1763089,8.01780198 C27.6275488,5.53228031 30.2512423,4.03442383 34.0174561,4.03442384 C35.1220256,4.03442385 36.0174561,4.92985435 36.0174561,6.03442385 C36.0174561,7.13899335 35.1220256,8.03442385 34.0174561,8.03442384 C31.6696714,8.03442383 30.3629373,8.78043324 29.6306063,10.0346881 C29.3707206,10.4797914 29.1984563,10.9715164 29.1023719,11.4652044 C29.0828536,11.5654906 29.0681194,11.6554136 29.0572173,11.732738 C30.8441186,13.1820204 31.9819435,15.502996 31.981944,18.5145382 C32.5099286,18.881089 33.0093115,19.2814842 33.4775697,19.7120696 L36.0013425,17.1882968 C36.7816497,16.4079896 38.0419332,16.4031454 38.8284271,17.1896393 C39.6094757,17.9706879 39.6156446,19.2308489 38.8297697,20.0167239 L36.0163598,22.8301338 C36.957318,24.4022631 37.5917273,26.1628271 37.8581387,28.0228335 C37.9043563,28.0196728 37.9510273,28.0180664 37.9981014,28.0180664 L42.0018986,28.0180664 C43.1054196,28.0180664 44,28.9057961 44,30.0180664 C44,31.1226359 43.1132936,32.0180664 42.0018986,32.0180664 L37.9981014,32.0180664 C37.9513075,32.0180664 37.9048894,32.0164702 37.8588992,32.0133283 C37.5911338,33.8898864 36.9512467,35.646489 36.0163673,37.2060066 L38.8297697,40.019409 C39.6156446,40.8052839 39.6094757,42.065445 38.8284271,42.8464935 C38.0419332,43.6329875 36.7816497,43.6281432 36.0013425,42.8478361 L33.4766657,40.3231592 C30.983329,42.6172445 27.6552542,44.0180664 24,44.0180664 C20.3447458,44.0180664 17.016671,42.6172445 14.5233343,40.3231592 L11.9986575,42.8478361 C11.2183503,43.6281432 9.95806679,43.6329875 9.17157288,42.8464935 C8.39052429,42.065445 8.38435539,40.8052839 9.17023033,40.019409 L11.9836327,37.2060066 C11.048757,35.6464953 10.4088713,33.8899006 10.141104,32.013351 C10.0951339,32.0164775 10.0487156,32.0180664 10.0018986,32.0180664 L5.99810135,32.0180664 C4.89458045,32.0180664 4,31.1303368 4,30.0180664 C4,28.9134969 4.88670635,28.0180664 5.99810135,28.0180664 L10.0018986,28.0180664 C10.0489493,28.0180664 10.0956201,28.0196802 10.141858,28.0228564 C10.4082675,26.1628416 11.0426782,24.4022696 11.9836402,22.8301338 L9.17023033,20.0167239 C8.38435539,19.2308489 8.39052429,17.9706879 9.17157288,17.1896393 C9.95806679,16.4031454 11.2183503,16.4079896 11.9986575,17.1882968 L14.5224303,19.7120696 C14.994411,19.2780612 15.4980133,18.8747249 16.0306534,18.5058027 C16.0306534,15.491554 17.1882422,13.1524126 19.0039001,11.7000689 C18.9934147,11.6290737 18.979877,11.548586 18.9626442,11.4601115 C18.8657227,10.9625087 18.6919487,10.4668589 18.4297016,10.0180598 C17.6903873,8.752827 16.3706877,8 14.0025635,8 C12.897994,8 12.0025635,7.1045695 12.0025635,6 C12.0025635,4.8954305 12.897994,4 14.0025635,4 C17.7883852,3.99999999 20.4247937,5.50394781 21.8833172,8.00000639 C22.2811262,8.68080079 22.5642648,9.39064301 22.7536619,10.1057975 C23.1595289,10.0476457 23.5757669,10.0180664 24,10.0180664 C24.4465091,10.0180664 24.8842901,10.0504091 25.3105467,10.1140584 C25.49894,9.40217642 25.7805805,8.69556153 26.1763089,8.01780198 Z M29.5728303,21.8624259 C28.4733492,22.3487852 27.2787445,22.7046444 26,22.886921 L26,26.5531952 C27.1956027,27.244814 28,28.5375017 28,30.0180664 C28,31.4986311 27.1956027,32.7913188 26,33.4829376 L26,39.8180302 C27.4192115,39.5299455 28.7292813,38.9413033 29.8608778,38.1214352 C29.3284555,37.5800197 29,36.8374005 29,36.0180664 C29,34.3612122 30.3431458,33.0180664 32,33.0180664 C32.5146359,33.0180664 32.9990056,33.1476514 33.4222596,33.3759719 C33.7963211,32.3264393 34,31.1960387 34,30.0180664 C34,29.961247 33.3501013,30.0180664 33,30.0180664 C31.3431458,30.0180664 30,28.6749207 30,27.0180664 C30,25.6737595 30.8842018,24.535969 32.1027578,24.1545424 C31.447223,23.2492134 30.6388856,22.4523022 29.7049278,21.8032034 C29.661431,21.8229668 29.6173978,21.8427113 29.5728303,21.8624259 Z M24,14.0180664 C21.790861,14.0180664 20,15.8226013 20,18.1349487 C21.0044556,18.6552124 22.600607,19.0247803 24.0418701,19.0247803 C25.4831332,19.0247803 27.0021057,18.7017517 28,18.1349487 C28,15.732544 26.209139,14.0180664 24,14.0180664 Z M15.8972422,24.1545424 C17.1157982,24.535969 18,25.6737595 18,27.0180664 C18,28.6749207 16.6568542,30.0180664 15,30.0180664 C14.6498987,30.0180664 14,29.961247 14,30.0180664 C14,31.1960387 14.2036789,32.3264393 14.5777404,33.3759719 C15.0009944,33.1476514 15.4853641,33.0180664 16,33.0180664 C17.6568542,33.0180664 19,34.3612122 19,36.0180664 C19,36.8374005 18.6715445,37.5800197 18.1391222,38.1214352 C19.2707187,38.9413033 20.5807885,39.5299455 22,39.8180302 L22,33.4829376 C20.8043973,32.7913188 20,31.4986311 20,30.0180664 C20,28.5375017 20.8043973,27.244814 22,26.5531952 L22,22.8747188 C20.7528125,22.6890237 19.5863561,22.3381533 18.5109099,21.8624259 C18.4490299,21.8350531 18.3881799,21.8076225 18.3283655,21.780164 C17.3803154,22.433409 16.560554,23.2384729 15.8972422,24.1545424 Z" id="Combined-Shape" fill="#000000"></path>
    </g>
</svg>