<?xml version="1.0" encoding="UTF-8"?>
<svg width="48px" height="48px" viewBox="0 0 48 48" version="1.1" xmlns="http://www.w3.org/2000/svg" xmlns:xlink="http://www.w3.org/1999/xlink">
    <!-- Generator: Sketch 43.2 (39069) - http://www.bohemiancoding.com/sketch -->
    <title>theicons.co/svg/animals-05</title>
    <desc>Created with Sketch.</desc>
    <defs></defs>
    <g id="The-Icons" stroke="none" stroke-width="1" fill="none" fill-rule="evenodd">
        <path d="M21.9180216,5.94347027 C15.7624224,3.93804938 11.3745201,5.2324863 8.20832073,8.62093705 C7.45733698,9.4246361 6.60234785,10.5516262 6.20693255,11.4146997 C6.47844648,11.7463284 6.4036563,11.8068807 7.30859144,12.5363783 C7.94278893,13.0476256 8.71570141,13.491961 9.64815532,13.8454137 C11.1600257,14.418498 11.4022958,16.4555944 10.0670087,17.3672886 C8.72909523,18.2807759 7.67620601,19.3893154 6.86963206,20.657118 C6.05234264,21.9417635 5.52431725,23.3278835 5.23254545,24.7175959 C5.17885624,24.9733182 5.10114127,25.4532152 5.10114127,25.4532152 C5.10114127,25.4532152 4.85470535,25.5004983 5.44054622,25.4188299 C6.34525481,25.2927101 7.26597956,25.0520447 8.15419663,24.6729647 C9.60790236,24.0525413 11.1729315,25.2840654 10.9117714,26.842905 C10.0299453,32.1064415 10.8821897,35.3363872 12.7032284,37.1510653 C13.4232414,37.8685633 14.4421048,38.2703797 14.4421048,38.2703797 L16.2455556,36.407888 C16.4886561,36.1581759 16.9931829,35.7602021 17.3044962,35.6650901 C18.2474015,35.3472097 19.0663316,35.7569093 19.6530069,36.5974021 C19.8224405,36.8401389 20.9995845,38.796822 21.4385358,39.4008705 C22.4823016,40.8372142 23.4728114,41.6502586 23.9429239,41.6502586 C24.4287427,41.6471095 25.4339201,40.8338032 26.4957974,39.4061219 C26.942118,38.8060491 27.3626481,38.1537751 27.7405279,37.5007624 C27.9658794,37.1113333 28.1488656,36.8435332 28.4542765,36.407888 C29.2336344,35.2961936 30.6748149,35.3327078 31.4453156,36.1241638 L33.4845128,38.2703797 C33.4845128,38.2703797 34.5033762,37.8685633 35.2233891,37.1510653 C37.0444278,35.3363872 37.8966722,32.1064415 37.0148461,26.842905 C36.753686,25.2840654 38.3187152,24.0525413 39.7724209,24.6729647 C40.660638,25.0520447 41.5813627,25.2927101 42.4860713,25.4188299 C43.0719122,25.5004983 42.8254763,25.4532152 42.8254763,25.4532152 C42.8254763,25.4532152 42.7477613,24.9733182 42.6940721,24.7175959 C42.4023003,23.3278835 41.8742749,21.9417635 41.0569855,20.657118 C40.2504115,19.3893154 39.1975223,18.2807759 37.8596088,17.3672886 C36.5243218,16.4555944 36.7665918,14.418498 38.2784622,13.8454137 C39.2109161,13.491961 39.9838286,13.0476256 40.6180261,12.5363783 C41.5229612,11.8068807 41.448171,11.7463284 41.719685,11.4146997 C41.3242697,10.5516262 40.4692805,9.4246361 39.7182968,8.62093705 C36.53659,5.21589028 32.1211835,3.92541977 25.9180216,5.97317447 L25.9180216,9.53240623 C25.9180216,10.6359271 25.030292,11.5305076 23.9180216,11.5305076 C22.8134521,11.5305076 21.9180216,10.6438012 21.9180216,9.53240623 L21.9180216,5.94347027 Z M17.0802637,41.2432068 C16.1275513,42.22183 14.5182594,42.6017919 13.2402662,42.0691512 C13.2402662,42.0691512 12.8232627,41.959905 12.2950653,41.7064732 C11.4631059,41.307295 10.6407013,40.7427258 9.8797539,39.9844363 C7.55068064,37.6634982 6.33014834,34.1309891 6.61020509,29.2819735 L5.99282068,29.3805205 C5.17274509,29.4948421 3.97091583,29.5100735 3.97091583,29.5100735 C2.25169545,29.5328525 0.866801112,28.1014697 1.01022095,26.3699117 C1.01022095,26.3699117 1.08059952,25.0259417 1.31789305,23.8957099 C1.70302536,22.0613203 2.40088881,20.2293583 3.49473352,18.510013 C4.04258987,17.6488722 4.67576345,16.8406958 5.39795881,16.0940942 C5.02950716,15.8357449 4.7981837,15.6505159 4.7981837,15.6505159 C3.9254912,14.9470101 3.24353264,14.1820458 2.7309685,13.4040472 C2.40143746,12.9038666 2.19362362,12.4820239 2.08282148,12.1809234 C1.9158446,11.7271704 1.91889639,11.2282899 2.09141205,10.7766136 C2.22656102,10.4227699 2.48154193,9.86950842 2.87097701,9.18158205 C3.50664485,8.05869227 4.305464,6.93899408 5.28566852,5.8899841 C9.63333237,1.23713596 15.8929278,-0.470250832 23.9633088,2.41630776 C32.0336897,-0.470250832 38.2932852,1.23713596 42.640949,5.8899841 C43.6211535,6.93899408 44.4199727,8.05869227 45.0556405,9.18158205 C45.4450756,9.86950842 45.7000565,10.4227699 45.8352055,10.7766136 C46.0077211,11.2282899 46.0107729,11.7271704 45.843796,12.1809234 C45.7329939,12.4820239 45.5251801,12.9038666 45.195649,13.4040472 C44.6830849,14.1820458 44.0011263,14.9470101 43.1284338,15.6505159 C43.1284338,15.6505159 42.8971104,15.8357449 42.5286587,16.0940942 C43.2508541,16.8406958 43.8840277,17.6488722 44.431884,18.510013 C45.5257287,20.2293583 46.2235922,22.0613203 46.6087245,23.8957099 C46.846018,25.0259417 46.9163966,26.3699117 46.9163966,26.3699117 C47.0598164,28.1014697 45.6749221,29.5328525 43.9557017,29.5100735 C43.9557017,29.5100735 42.7538724,29.4948421 41.9337968,29.3805205 L41.3164124,29.2819735 C41.5964692,34.1309891 40.3759369,37.6634982 38.0468636,39.9844363 C37.2859163,40.7427258 36.4635116,41.307295 35.6315522,41.7064732 C35.1033549,41.959905 34.6863513,42.0691512 34.6863513,42.0691512 C33.4083582,42.6017919 31.7990662,42.22183 30.8463538,41.2432068 L30.4068661,40.7917664 C30.1823194,41.1315739 29.9482834,41.4667109 29.7053581,41.793321 C27.9420411,44.1640797 26.1226307,45.636196 23.9705103,45.650169 C21.7688104,45.6502586 19.9508943,44.1580508 18.2026831,41.7523078 C17.9713358,41.4339468 17.748412,41.1075806 17.5344068,40.7767124 L17.0802637,41.2432068 Z M25.9180216,25.7582258 C27.3184225,26.0459619 28.5650798,26.6339485 29.6478925,27.4425345 C30.6001205,28.153607 31.2430324,28.8809835 31.6055022,29.4333228 C32.2115281,30.356798 31.9541845,31.5967036 31.0307093,32.2027294 C30.1072341,32.8087553 28.8673286,32.5514117 28.2613027,31.6279365 C28.1363152,31.4374779 27.7944134,31.0506577 27.2545722,30.6475334 C26.3400929,29.9646496 25.2440202,29.5594382 23.9255289,29.5594382 C22.6070376,29.5594382 21.5109649,29.9646496 20.5964856,30.6475334 C20.0566444,31.0506577 19.7147426,31.4374779 19.5897551,31.6279365 C18.9837293,32.5514117 17.7438237,32.8087553 16.8203485,32.2027294 C15.8968733,31.5967036 15.6395298,30.356798 16.2455556,29.4333228 C16.6080254,28.8809835 17.2509373,28.153607 18.2031654,27.4425345 C19.2821066,26.6368394 20.5237231,26.0501691 21.9180216,25.7613235 L21.9180216,24.0926659 C20.5254414,23.4127963 20.02198,22.1805544 20.02198,22.1805544 C19.4122806,21.2692587 19.8054549,20.5305076 20.9176366,20.5305076 L26.9184066,20.5305076 C28.0227635,20.5305076 28.4547287,21.3017478 27.8047297,22.1921175 C27.8047297,22.1921175 27.3065784,23.4172732 25.9180216,24.0939733 L25.9180216,25.7582258 Z M29.9180216,18.5305076 C28.8134521,18.5305076 27.9180216,17.6350771 27.9180216,16.5305076 C27.9180216,15.4259381 28.8134521,14.5305076 29.9180216,14.5305076 C31.0225911,14.5305076 31.9180216,15.4259381 31.9180216,16.5305076 C31.9180216,17.6350771 31.0225911,18.5305076 29.9180216,18.5305076 Z M17.9180216,18.5305076 C16.8134521,18.5305076 15.9180216,17.6350771 15.9180216,16.5305076 C15.9180216,15.4259381 16.8134521,14.5305076 17.9180216,14.5305076 C19.0225911,14.5305076 19.9180216,15.4259381 19.9180216,16.5305076 C19.9180216,17.6350771 19.0225911,18.5305076 17.9180216,18.5305076 Z" id="Combined-Shape" fill="#000000"></path>
    </g>
</svg>