<?xml version="1.0" encoding="UTF-8"?>
<svg width="48px" height="48px" viewBox="0 0 48 48" version="1.1" xmlns="http://www.w3.org/2000/svg" xmlns:xlink="http://www.w3.org/1999/xlink">
    <!-- Generator: Sketch 43.2 (39069) - http://www.bohemiancoding.com/sketch -->
    <title>theicons.co/svg/animals-14</title>
    <desc>Created with Sketch.</desc>
    <defs></defs>
    <g id="The-Icons" stroke="none" stroke-width="1" fill="none" fill-rule="evenodd">
        <path d="M19.9933381,20 C26.6244344,20 32,25.3679253 32,32.003991 L32,36.1005859 C32,37.1202848 32.5998693,38.5348684 33.3350018,39.8855721 C34.5487181,36.1949489 35.348614,33.898146 35.348614,33.898146 C35.7083645,32.8498289 36.9019504,32 38.0085302,32 L45.9914698,32 C47.1007504,32 47.9635019,32.9019504 47.8665182,33.9950265 C47.8665182,33.9950265 48,44 40.2983398,44 L6.00532266,44 C2.68867454,44 0,41.3167544 0,38.0056959 L0,32 C0,25.372583 5.37411847,20 12.0066619,20 L13.4216146,20 C13.1667953,19.3509352 12.8411774,18.7129104 12.4373248,18.1082656 C10.7710948,15.6136002 8.09597204,14.0950549 3.95385844,13.9994677 C2.84958294,13.9739844 1.97504905,13.0581339 2.00053233,11.9538584 C2.02601561,10.8495829 2.94186606,9.97504905 4.04614156,10.0005323 C8.32462973,10.0992667 11.626324,11.4671482 14,13.7648724 L14,5.99079514 C14,4.89130934 14.8877296,4 16,4 C17.1045695,4 18,4.89821238 18,5.99079514 L18,13.7648724 C20.373676,11.4671482 23.6753703,10.0992667 27.9538584,10.0005323 C29.0581339,9.97504905 29.9739844,10.8495829 29.9994677,11.9538584 C30.0249509,13.0581339 29.1504171,13.9739844 28.0461416,13.9994677 C23.904028,14.0950549 21.3220213,15.6630379 19.5626752,18.1082656 C19.1577875,18.670999 18.838685,19.3543853 18.596838,20 L19.9933381,20 Z M12.0066619,24 C7.58333497,24 4,27.581645 4,32 L4,38.0056959 C4,39.1057468 4.89594815,40 6.00532266,40 L28.9610596,40 C28.9610596,40 28,38.5145264 28,36.1005859 L28,32.003991 C28,27.5798216 24.4180536,24 19.9933381,24 L16.0205095,24 C16.0052556,24.0001732 12.0066619,24 12.0066619,24 Z M37.5125717,39.9906515 L40.2983398,40 C41.7909268,40 42.5915304,39.2985364 43.2209992,37.6043669 C43.4027952,37.1150761 43.651451,36.0310435 43.651451,36.0310435 L38.8804381,36 L37.5125717,39.9906515 Z M11,36 C9.34314575,36 8,34.6568542 8,33 C8,31.3431458 9.34314575,30 11,30 C12.6568542,30 14,31.3431458 14,33 C14,34.6568542 12.6568542,36 11,36 Z" id="Combined-Shape" fill="#000000" transform="translate(23.936982, 24.000000) scale(-1, 1) translate(-23.936982, -24.000000) "></path>
    </g>
</svg>