<?xml version="1.0" encoding="UTF-8"?>
<svg width="48px" height="48px" viewBox="0 0 48 48" version="1.1" xmlns="http://www.w3.org/2000/svg" xmlns:xlink="http://www.w3.org/1999/xlink">
    <!-- Generator: Sketch 43.2 (39069) - http://www.bohemiancoding.com/sketch -->
    <title>theicons.co/svg/animals-08</title>
    <desc>Created with Sketch.</desc>
    <defs></defs>
    <g id="The-Icons" stroke="none" stroke-width="1" fill="none" fill-rule="evenodd">
        <path d="M22.0061445,42.0018986 C22.0061445,43.1054196 21.1181421,44 20.0055301,44 C18.9006212,44 18.0049156,43.1132936 18.0049156,42.0018986 L18.0049156,39.6255478 C9.05768977,37.9179011 2.18123086,30.4877851 2.02095998,19.7725313 C2.00704702,19.516787 2,19.2592162 2,19 C2,11.836456 9.85827223,8.68419832 26.0073734,16.8409551 L26.0073734,12.0022064 C26.0073734,7.58270986 29.5991889,4 34.0098312,4 C38.4294666,4 42.012289,7.59071231 42.012289,12 L47.2341707,15.1049811 C48.2683608,15.7658081 48.2421077,16.1953735 47.2341707,16.8972983 L42.012289,20 C42.012289,28.2012761 37.0743916,35.2495988 30.0086023,38.3358253 L30.0086023,42.0018986 C30.0086023,43.1054196 29.1205999,44 28.0079879,44 C26.903079,44 26.0073734,43.1132936 26.0073734,42.0018986 L26.0073734,39.5999275 C24.7145366,39.862279 23.3764287,40 22.0061445,40 L22.0061445,42.0018986 Z M11.4671015,27.707379 L15.7115903,23.4641938 C16.4927284,22.6832956 17.7538785,22.6779722 18.540614,23.4644661 C19.3219026,24.2455147 19.3275592,25.5061898 18.5408864,26.292621 L15.8340944,28.9985816 C15.8907168,28.9995259 15.9474536,29 16.0043012,29 C21.5288454,29 25.9116409,24.1918334 25.7509368,21.2154665 C18.5885357,17.3924739 12.9268038,15.7388576 9.2624823,16.0404586 C6.81904114,16.2415721 6.0012289,17.096704 6.0012289,19 C6.0012289,20.513289 6.33747167,21.9480684 6.93934357,23.2337463 L10.7100542,19.4641938 C11.4911923,18.6832956 12.7523424,18.6779722 13.5390779,19.4644661 C14.3203665,20.2455147 14.3260231,21.5061898 13.5393502,22.292621 L9.35747287,26.473214 C9.95762154,27.0070544 10.6225047,27.4697363 11.3388767,27.8480181 C11.3789842,27.7996826 11.4217247,27.7527418 11.4671015,27.707379 Z M22.0061445,36 C30.8454153,36 38.0110601,28.836556 38.0110601,20 L38.0110601,12 C38.0110601,9.7960518 36.2158501,8 34.0098312,8 C31.8054527,8 30.0086023,9.79540031 30.0086023,12.0022064 L30.0086023,19.236084 C29.8805719,26.8591735 23.6597903,33 16.0043012,33 C14.5630202,33 13.172592,32.7823402 11.8641132,32.3781076 C14.6250636,34.6415731 18.1569165,36 22.0061445,36 Z M34.0098312,16 C32.9049224,16 32.0092168,15.1045695 32.0092168,14 C32.0092168,12.8954305 32.9049224,12 34.0098312,12 C35.1147401,12 36.0104457,12.8954305 36.0104457,14 C36.0104457,15.1045695 35.1147401,16 34.0098312,16 Z" id="Shape" fill="#000000"></path>
    </g>
</svg>