<?xml version="1.0" encoding="UTF-8"?>
<svg width="48px" height="48px" viewBox="0 0 48 48" version="1.1" xmlns="http://www.w3.org/2000/svg" xmlns:xlink="http://www.w3.org/1999/xlink">
    <!-- Generator: Sketch 43.2 (39069) - http://www.bohemiancoding.com/sketch -->
    <title>theicons.co/svg/animals-18</title>
    <desc>Created with Sketch.</desc>
    <defs></defs>
    <g id="The-Icons" stroke="none" stroke-width="1" fill="none" fill-rule="evenodd">
        <path d="M42.00089,23.5008844 C42.00089,28.0320403 40.0007111,32.1512918 36.7564116,35.1406219 C36.9167293,34.4532622 37.00089,33.7382969 37.00089,33.0008844 C37.00089,26.8272501 31.1019987,22.0008844 24.00089,22.0008844 C16.8997813,22.0008844 11.00089,26.8272501 11.00089,33.0008844 C11.00089,33.7382969 11.0850508,34.4532622 11.2453684,35.1406219 C8.00106895,32.1512918 6.00089001,28.0320403 6.00089001,23.5008844 C6.00089001,21.893306 6.25265491,20.3375744 6.72242142,18.8657543 L7.27168084,19.4150505 C8.19173337,20.3351648 9.73153217,20.14561 10.4009582,19.0298252 C10.4268487,18.9866714 12.0916071,16.0927165 14.0923235,14.0918659 C16.0930399,12.0910152 18.9867824,10.4261583 19.0299323,10.4002666 C20.0592512,9.78263383 20.3002476,8.42426989 19.6088845,7.49518311 C21.0136298,7.17240646 22.4847454,7.00088442 24.00089,7.00088442 C25.5170346,7.00088442 26.9881502,7.17240646 28.3928955,7.49518311 C27.7015324,8.42426989 27.9425288,9.78263383 28.9718477,10.4002666 C29.0149976,10.4261583 31.8823593,12.0646326 33.9094565,14.0918659 C35.9365537,16.1190991 37.5749314,18.9866714 37.6008219,19.0298252 C38.2702478,20.14561 39.8100466,20.3351648 40.7300992,19.4150505 L41.2793586,18.8657543 C41.7491251,20.3375744 42.00089,21.893306 42.00089,23.5008844 Z M24.00089,3.00088442 C21.3321521,3.00088442 18.7717785,3.4443491 16.4014938,4.25728568 L16.0864289,3.94219968 C13.1334428,0.989015385 7.66274119,1.55687385 4.61026708,4.60955278 C1.66905313,7.55096408 1.0355042,12.7286518 3.62740698,15.7457018 C2.57914749,18.1357448 2.00089001,20.7534756 2.00089001,23.5008844 C2.00089001,34.8590544 11.8839495,44.0008844 24.00089,44.0008844 C36.1178305,44.0008844 46.00089,34.8590544 46.00089,23.5008844 C46.00089,20.7534756 45.4226325,18.1357448 44.3743755,15.7457075 C46.9662758,12.7286518 46.3327269,7.55096408 43.3915129,4.60955278 C40.3390388,1.55687385 34.8683372,0.989015385 31.9153511,3.94219968 L31.6002862,4.25728568 C29.2300015,3.4443491 26.6696279,3.00088442 24.00089,3.00088442 Z M30.00089,21.0008844 C31.1054595,21.0008844 32.00089,20.1054539 32.00089,19.0008844 C32.00089,17.8963149 31.1054595,17.0008844 30.00089,17.0008844 C28.8963205,17.0008844 28.00089,17.8963149 28.00089,19.0008844 C28.00089,20.1054539 28.8963205,21.0008844 30.00089,21.0008844 Z M18.00089,21.0008844 C19.1054595,21.0008844 20.00089,20.1054539 20.00089,19.0008844 C20.00089,17.8963149 19.1054595,17.0008844 18.00089,17.0008844 C16.8963205,17.0008844 16.00089,17.8963149 16.00089,19.0008844 C16.00089,20.1054539 16.8963205,21.0008844 18.00089,21.0008844 Z M24.00089,40.0008844 C18.9517342,40.0008844 15.00089,36.7683756 15.00089,33.0008844 C15.00089,29.2333933 18.9517342,26.0008844 24.00089,26.0008844 C29.0500458,26.0008844 33.00089,29.2333933 33.00089,33.0008844 C33.00089,36.7683756 29.0500458,40.0008844 24.00089,40.0008844 Z M28.00089,36.0008844 C29.6577443,36.0008844 31.00089,34.6577387 31.00089,33.0008844 C31.00089,31.3440302 29.6577443,30.0008844 28.00089,30.0008844 C26.3440358,30.0008844 25.00089,31.3440302 25.00089,33.0008844 C25.00089,34.6577387 26.3440358,36.0008844 28.00089,36.0008844 Z M20.00089,36.0008844 C21.6577443,36.0008844 23.00089,34.6577387 23.00089,33.0008844 C23.00089,31.3440302 21.6577443,30.0008844 20.00089,30.0008844 C18.3440358,30.0008844 17.00089,31.3440302 17.00089,33.0008844 C17.00089,34.6577387 18.3440358,36.0008844 20.00089,36.0008844 Z M11.2638015,11.2635336 C10.6667898,11.8605854 8.70703665,14.3487029 8.36024291,14.8466417 L6.77148076,13.2577729 C5.52480593,12.0110144 5.83139239,9.04538957 7.43878909,7.43788501 C9.04383974,5.83272666 12.0120819,5.52462332 13.2579069,6.77053191 L14.8468923,8.35962389 C14.3489122,8.70648835 11.860814,10.666481 11.2638015,11.2635336 Z M34.7438731,6.77053191 C35.9896981,5.52462332 38.9579403,5.83272666 40.5629909,7.43788501 C42.1703876,9.04538957 42.4769741,12.0110144 41.2302992,13.2577729 L39.6415371,14.8466416 C39.2947433,14.3487029 37.3349902,11.8605854 36.7379785,11.2635336 C36.7379785,11.2635336 33.6528678,8.70648837 33.1548877,8.35962389 L34.7438731,6.77053191 Z" id="Combined-Shape" fill="#000000"></path>
    </g>
</svg>