<?xml version="1.0" encoding="UTF-8"?>
<svg width="48px" height="48px" viewBox="0 0 48 48" version="1.1" xmlns="http://www.w3.org/2000/svg" xmlns:xlink="http://www.w3.org/1999/xlink">
    <!-- Generator: Sketch 43.2 (39069) - http://www.bohemiancoding.com/sketch -->
    <title>theicons.co/svg/animals-03</title>
    <desc>Created with Sketch.</desc>
    <defs></defs>
    <g id="The-Icons" stroke="none" stroke-width="1" fill="none" fill-rule="evenodd">
        <path d="M40.0060552,8.78335133 C43.203134,8.78335133 46.0220464,11.3925521 46.0220464,14.7721209 C46.0220464,18.0883522 43.1329575,20.7833513 40.0172857,20.7833513 C38.6081314,20.8066575 38.2481843,21.1270953 38.0825988,22.338973 C37.8929685,23.7268282 38.0898022,25.5055836 38.8362245,29.6685265 C40.7687026,31.2283429 42.0047607,33.6147456 42.0047607,36.2833513 C42.0047607,40.9777717 38.2032075,44.7833513 33.496066,44.7833513 L14.5134555,44.7833513 C9.81423314,44.7833513 6.00476074,40.9682195 6.00476074,36.2833513 C6.00476074,33.6004812 7.2464028,31.2079193 9.18912392,29.6501063 C9.93282447,25.5003329 10.128798,23.7247795 9.93944762,22.338973 C9.77386212,21.1270953 9.41391499,20.8066575 8.00476074,20.7833513 C4.88908891,20.7833513 2,18.0883522 2,14.7721209 C2,11.3925521 4.81891239,8.78335133 8.01599121,8.78335133 L10.183583,8.78335133 C11.1842539,0.815637175 18.1191178,1.01547262 18.1191178,1.01547262 C19.2144637,0.887275573 19.6777042,1.56888992 19.2211149,2.57069068 C19.2211149,2.57069068 17.1006845,5.80948097 18.4963872,8.78335134 L29.6698726,8.78335133 C31.0655753,5.80948096 28.9451449,2.57069068 28.9451449,2.57069068 C28.4885556,1.56888992 28.9517961,0.887275573 30.047142,1.01547262 C30.047142,1.01547262 36.9820059,0.815637175 37.9826767,8.78335133 L40.0060552,8.78335133 Z M26.0047607,39.7850168 C26.0047607,38.1272427 27.3512779,36.7833513 29.0047607,36.7833513 C30.661615,36.7833513 32.0047607,38.1223715 32.0047607,39.7850168 L32.0047607,40.7833513 L33.496066,40.7833513 C35.991673,40.7833513 38.0047607,38.771027 38.0047607,36.2833513 C38.0047607,33.8045438 35.9830701,31.7833513 33.496066,31.7833513 L14.5134555,31.7833513 C12.0178485,31.7833513 10.0047607,33.7956757 10.0047607,36.2833513 C10.0047607,38.7621589 12.0264514,40.7833513 14.5134555,40.7833513 L16.0047607,40.7833513 L16.0047607,39.7850168 C16.0047607,38.1272427 17.3512779,36.7833513 19.0047607,36.7833513 C20.661615,36.7833513 22.0047607,38.1223715 22.0047607,39.7850168 L22.0047607,40.7833513 L26.0047607,40.7833513 L26.0047607,39.7850168 Z M14.5134555,27.7833513 L33.496066,27.7833513 C33.8232687,27.7833513 34.1461578,27.8018479 34.4637475,27.8378468 C33.9968391,24.922487 33.905655,23.3619713 34.1194225,21.7974624 C34.5519913,18.6316027 36.5650264,16.8395265 39.9845912,16.7836186 C40.9835874,16.7833513 42.0220464,15.8146563 42.0220464,14.7721209 C42.0220464,13.6737238 41.0601112,12.7833513 40.0060552,12.7833513 L8.01599121,12.7833513 C6.96193519,12.7833513 6,13.6737238 6,14.7721209 C6,15.8146563 7.03845901,16.7833513 8.03745523,16.7836186 C11.4570199,16.8395265 13.4700551,18.6316027 13.9026239,21.7974624 C14.1163492,23.3616627 14.0252432,24.9218715 13.5585751,27.836122 C13.8719851,27.8012553 14.19059,27.7833513 14.5134555,27.7833513 Z M19.0047607,24.7833513 C17.9001912,24.7833513 17.0047607,23.8879208 17.0047607,22.7833513 C17.0047607,21.6787818 17.9001912,20.7833513 19.0047607,20.7833513 C20.1093302,20.7833513 21.0047607,21.6787818 21.0047607,22.7833513 C21.0047607,23.8879208 20.1093302,24.7833513 19.0047607,24.7833513 Z M29.0047607,24.7833513 C27.9001912,24.7833513 27.0047607,23.8879208 27.0047607,22.7833513 C27.0047607,21.6787818 27.9001912,20.7833513 29.0047607,20.7833513 C30.1093302,20.7833513 31.0047607,21.6787818 31.0047607,22.7833513 C31.0047607,23.8879208 30.1093302,24.7833513 29.0047607,24.7833513 Z" id="Combined-Shape" fill="#000000"></path>
    </g>
</svg>