<?xml version="1.0" encoding="UTF-8"?>
<svg width="48px" height="48px" viewBox="0 0 48 48" version="1.1" xmlns="http://www.w3.org/2000/svg" xmlns:xlink="http://www.w3.org/1999/xlink">
    <!-- Generator: Sketch 43.2 (39069) - http://www.bohemiancoding.com/sketch -->
    <title>theicons.co/svg/animals-19</title>
    <desc>Created with Sketch.</desc>
    <defs></defs>
    <g id="The-Icons" stroke="none" stroke-width="1" fill="none" fill-rule="evenodd">
        <path d="M30,36 C30,32.6862915 32.6862915,30 36,30 C37.0187876,30 37.9782696,30.253917 38.8186136,30.7019184 C38.6468145,29.9006381 37.3085016,23.8347246 36.7715069,21.0921265 C35.8819629,16.5489507 30.9638787,13 24,13 C17.0442146,13 12.0617484,16.5577961 11.2371971,21.0462547 C11.2037986,21.2280598 11.170037,21.4079202 11.1359003,21.5859708 C10.6134275,24.3110937 9.2462939,30.3716804 9.2106499,30.5483453 C9.2002084,30.6000972 9.19017548,30.651412 9.18054665,30.7023662 C10.0210911,30.2540862 10.9808731,30 12,30 C15.3137085,30 18,32.6862915 18,36 C18,37.6385337 17.3431968,39.1236628 16.2785064,40.2064711 C18.3998862,40.733784 20.9771553,41 24,41 C26.9921975,41 29.5630447,40.7188205 31.6885849,40.1727401 C30.6432854,39.0929216 30,37.6215845 30,36 Z M40.6969697,20.3235294 C41.8934659,26.4344052 43,29.2187668 43,32.6470588 C43,41.6810518 34.1754281,45 24,45 C13.8245719,45 5,41.897942 5,32.6470588 C5,29.0685129 6.16838305,26.5 7.3030303,20.3235294 C7.3739233,19.9376222 7.46525018,19.5557337 7.5764231,19.178868 C7.19066909,18.8250778 6.82524926,18.4643236 6.47986616,18.0968429 C2.55462596,13.9204664 1.53095836,9.41806035 2.18136669,5.53594286 C2.24610642,5.14952826 2.31614637,4.8557116 2.37400824,4.66429811 C2.58547997,3.96472618 3.14636231,3.43545368 3.84317456,3.27793011 C4.02223822,3.23745041 4.31023761,3.18540777 4.69303578,3.13604407 C7.31831412,2.79750156 10.2489147,3.04999562 13.071577,4.35761943 C15.40908,5.44048877 17.399102,7.15949235 18.921023,9.56613748 C20.4925047,9.19915947 22.1916118,9 24,9 C25.8150979,9 27.5130549,9.19933825 29.0792217,9.56575053 C30.6011113,7.15930809 32.5910453,5.44043073 34.928423,4.35761943 C37.7510853,3.04999562 40.6816859,2.79750156 43.3069642,3.13604407 C43.6897624,3.18540777 43.9777618,3.23745041 44.1568254,3.27793011 C44.8536377,3.43545368 45.41452,3.96472618 45.6259918,4.66429811 C45.6838536,4.8557116 45.7538936,5.14952826 45.8186333,5.53594286 C46.4690416,9.41806035 45.445374,13.9204664 41.5201338,18.0968429 C41.1718339,18.467427 40.8031574,18.8311706 40.4137993,19.18783 C40.5275392,19.5621734 40.6220894,19.9410924 40.6969697,20.3235294 Z M38.6627167,15.2664986 C39.6795301,14.1846298 40.5268224,13.1297002 40.9606372,11.9956088 C41.3692627,10.9273682 38.3434908,7.24761381 36.5616173,8.07308283 C35.1913346,8.70787864 33.9929401,9.64604003 32.994165,10.9459268 C35.3052256,12.0738957 37.1688649,13.6272513 38.5057112,15.4311813 C38.5586642,15.3764206 38.6109984,15.3215259 38.6627167,15.2664986 Z M15.0024262,10.9414928 C14.0043336,9.64390632 12.8071068,8.70715663 11.4383827,8.07308283 C9.65650916,7.24761381 6.6307373,10.9273682 7.0393628,11.9956088 C7.47317763,13.1297002 8.32046995,14.1846298 9.33728326,15.2664986 C9.38292976,15.3150656 9.42905604,15.3635293 9.47566405,15.4118888 C10.8155855,13.6083756 12.6901918,12.0629709 15.0024262,10.9414928 Z M16,29 C14.3431458,29 13,27.6568542 13,26 C13,24.3431458 14.3431458,23 16,23 C17.6568542,23 19,24.3431458 19,26 C19,27.6568542 17.6568542,29 16,29 Z M32,29 C30.3431458,29 29,27.6568542 29,26 C29,24.3431458 30.3431458,23 32,23 C33.6568542,23 35,24.3431458 35,26 C35,27.6568542 33.6568542,29 32,29 Z M24,32 C22.8954305,32 22,31.1045695 22,30 C22,28.8954305 22.8954305,28 24,28 C25.1045695,28 26,28.8954305 26,30 C26,31.1045695 25.1045695,32 24,32 Z M36,38 C37.1045695,38 38,37.1045695 38,36 C38,34.8954305 37.1045695,34 36,34 C34.8954305,34 34,34.8954305 34,36 C34,37.1045695 34.8954305,38 36,38 Z M12,38 C13.1045695,38 14,37.1045695 14,36 C14,34.8954305 13.1045695,34 12,34 C10.8954305,34 10,34.8954305 10,36 C10,37.1045695 10.8954305,38 12,38 Z M21,36 C21,34.8954305 21.8982606,34 22.9979131,34 L25.0020869,34 C26.1055038,34 27,34.8877296 27,36 C27,37.1045695 26.1017394,38 25.0020869,38 L22.9979131,38 C21.8944962,38 21,37.1122704 21,36 Z" id="Combined-Shape" fill="#000000"></path>
    </g>
</svg>