<?xml version="1.0" encoding="UTF-8"?>
<svg width="48px" height="48px" viewBox="0 0 48 48" version="1.1" xmlns="http://www.w3.org/2000/svg" xmlns:xlink="http://www.w3.org/1999/xlink">
    <!-- Generator: Sketch 43.2 (39069) - http://www.bohemiancoding.com/sketch -->
    <title>theicons.co/svg/animals-07</title>
    <desc>Created with Sketch.</desc>
    <defs></defs>
    <g id="The-Icons" stroke="none" stroke-width="1" fill="none" fill-rule="evenodd">
        <path d="M20.8051098,14 C20.2699175,15.2249247 19.9730225,16.5777906 19.9730225,18 C19.9730225,23.5228475 24.450175,28 29.9730225,28 C35.49587,28 39.9730225,23.5228475 39.9730225,18 C39.9730225,16.5777906 39.6761275,15.2249247 39.1409351,14 L35.9773099,14 C33.7693439,14 31.9730225,15.7943341 31.9730225,18.0018986 L31.9730225,20 C31.9730225,21.1045695 31.077592,22 29.9730225,22 C28.868453,22 27.9730225,21.1045695 27.9730225,20 L27.9730225,18.0018986 C27.9730225,15.7943341 26.176701,14 23.968735,14 L20.8051098,14 Z M23.9720467,10.0000007 C26.3603566,10.0009698 28.5062606,11.0502532 29.9730225,12.7126216 C31.4397844,11.0502532 33.5856883,10.0009698 35.9739983,10.0000007 C34.3025101,8.74417923 32.2246724,8 29.9730225,8 C27.7213725,8 25.6435349,8.74417923 23.9720467,10.0000007 Z M28.9379505,31.9623168 C28.7104943,35.0716568 27.3897582,37.8796479 25.3585733,40 L30.9771383,40 C35.9450456,40 39.9730225,35.9707823 39.9730225,31 L39.9730225,27.7979655 C37.4319884,30.3910656 33.8903988,32 29.9730225,32 C29.6248844,32 29.2797142,31.9872928 28.9379505,31.9623168 Z M24.9726694,31.0806073 C22.3144733,30.063842 20.0454857,28.2600998 18.450732,25.954406 C17.2814438,28.876376 15.457316,31.6573306 13.043666,34.5179277 C12.1368571,35.5926549 8.77912905,39.3408736 8.77912905,39.3408736 C8.77912905,39.3408736 10.9075146,39.7505389 11.5747197,39.8183143 L16.1911546,34.5077133 C16.9149985,33.6750263 18.1717679,33.582403 19.011209,34.3121181 C19.8448382,35.0367809 19.9330943,36.3001165 19.209993,37.1319494 L16.743497,39.9693285 C21.3218221,39.5909454 24.9316503,35.7609494 24.9726694,31.0806073 Z M15.9730225,18 C15.9730225,10.2680135 22.241036,4 29.9730225,4 C37.705009,4 43.9730225,10.2680135 43.9730225,18 L43.9730225,31 C43.9730225,38.1797017 38.1544043,44 30.9771383,44 C30.9771383,44 15.9895372,44.0000309 15.9730225,44 C13.0974417,43.9946163 4,43.9222412 4,40.0113525 C4,36.1004639 15.9730225,29.7315674 15.9730225,18 Z M35.9730225,20 C34.868453,20 33.9730225,19.1045695 33.9730225,18 C33.9730225,16.8954305 34.868453,16 35.9730225,16 C37.077592,16 37.9730225,16.8954305 37.9730225,18 C37.9730225,19.1045695 37.077592,20 35.9730225,20 Z M23.9730225,20 C22.868453,20 21.9730225,19.1045695 21.9730225,18 C21.9730225,16.8954305 22.868453,16 23.9730225,16 C25.077592,16 25.9730225,16.8954305 25.9730225,18 C25.9730225,19.1045695 25.077592,20 23.9730225,20 Z" id="Combined-Shape" fill="#000000"></path>
    </g>
</svg>