<?xml version="1.0" encoding="UTF-8"?>
<svg width="48px" height="48px" viewBox="0 0 48 48" version="1.1" xmlns="http://www.w3.org/2000/svg" xmlns:xlink="http://www.w3.org/1999/xlink">
    <!-- Generator: Sketch 43.2 (39069) - http://www.bohemiancoding.com/sketch -->
    <title>theicons.co/svg/animals-01</title>
    <desc>Created with Sketch.</desc>
    <defs></defs>
    <g id="The-Icons" stroke="none" stroke-width="1" fill="none" fill-rule="evenodd">
        <path d="M8.99689073,6.85319086 L16.0710449,11.5415367 C16.0710449,11.5415367 19.0024414,9.54153664 24.0695801,9.54153673 C29.1367188,9.54153681 32.0739746,11.5415367 32.0739746,11.5415367 L39.0113929,6.88790361 C41.7665245,5.03975621 44,6.2302382 44,9.54038168 L44,27.5426918 C44,30.8557624 41.6757316,34.8715544 38.7463605,36.4353748 C38.7463605,36.4353748 30.7122396,41.5415367 24.0683594,41.5415367 C17.3789062,41.5415367 9.25647227,36.4184179 9.25647227,36.4184179 C6.3534028,34.8295603 4,30.8528353 4,27.5426918 L4,9.54038168 C4,6.22731109 6.2421814,5.02752665 8.99689073,6.85319086 Z M8,27.5426918 C8,29.392763 9.55752111,32.0232876 11.1768766,32.9095652 C11.1768766,32.9095652 14.6429563,34.817436 15.7854968,35.3278824 C17.8814086,36.2642612 19.9130448,36.9549383 21.7378687,37.3001537 C22.5853004,37.4604685 23.3667586,37.5415367 24.0683594,37.5415367 C24.750915,37.5415367 25.5097714,37.4636515 26.3319019,37.3094938 C28.1470815,36.9691296 30.1707317,36.2790036 32.2584425,35.3402811 C33.3881385,34.8323224 36.8626112,32.9067081 36.8626112,32.9067081 C38.4522046,32.0581169 40,29.4215478 40,27.5426918 L40,11.032787 L33.7222941,15.2506443 C32.8027041,15.8684974 31.3131575,15.8627223 30.4097836,15.247608 C30.4097836,15.247608 29.7969781,14.834354 29.6658507,14.7650071 C29.3793143,14.6134719 29.0222473,14.4532587 28.5985497,14.2983651 C27.3144517,13.8289303 25.8001801,13.5415368 24.06958,13.5415367 C22.3393358,13.5415367 20.8266487,13.8287893 19.5448388,14.2978901 C19.1221273,14.4525888 18.7660728,14.612558 18.4805199,14.7638075 C18.3501023,14.832886 17.7531987,15.2361538 17.7531987,15.2361538 C16.8420673,15.8577902 15.3556213,15.8681323 14.434235,15.2599838 L8,11.0131546 L8,27.5426918 Z M20,32.5415367 C20,31.4369672 20.8867064,30.5415367 21.9981014,30.5415367 L26.0018986,30.5415367 C27.1054196,30.5415367 28,31.4292664 28,32.5415367 C28,33.6461062 27.1132936,34.5415367 26.0018986,34.5415367 L21.9981014,34.5415367 C20.8945804,34.5415367 20,33.6538071 20,32.5415367 Z M32,27.5415367 C30.3431458,27.5415367 29,26.198391 29,24.5415367 C29,22.8846825 30.3431458,21.5415367 32,21.5415367 C33.6568542,21.5415367 35,22.8846825 35,24.5415367 C35,26.198391 33.6568542,27.5415367 32,27.5415367 Z M17,27.5415367 C15.3431458,27.5415367 14,26.198391 14,24.5415367 C14,22.8846825 15.3431458,21.5415367 17,21.5415367 C18.6568542,21.5415367 20,22.8846825 20,24.5415367 C20,26.198391 18.6568542,27.5415367 17,27.5415367 Z" id="Combined-Shape" fill="#000000"></path>
    </g>
</svg>