<?xml version="1.0" encoding="UTF-8"?>
<svg width="48px" height="48px" viewBox="0 0 48 48" version="1.1" xmlns="http://www.w3.org/2000/svg" xmlns:xlink="http://www.w3.org/1999/xlink">
    <!-- Generator: Sketch 43.2 (39069) - http://www.bohemiancoding.com/sketch -->
    <title>theicons.co/svg/animals-10</title>
    <desc>Created with Sketch.</desc>
    <defs></defs>
    <g id="The-Icons" stroke="none" stroke-width="1" fill="none" fill-rule="evenodd">
        <path d="M8.01292013,30 C8.09095385,28.4937154 8.51952379,27.0802479 9.21858137,25.8397596 C7.42191315,24.5910467 6.39328594,22.7879483 6.09246847,20.6436557 C5.86810335,19.0443322 6.05790252,17.4050421 6.50465192,15.8106594 C4.96231875,14.3510772 4,12.2855039 4,10 C4,5.581722 7.58198419,2 12.000385,2 L13.0046024,2 C13.5543453,2 14.0735329,2.43436716 14.1665516,2.98383967 L14.8559093,7.05595525 C14.9478932,7.5993149 15.4641843,8.12500672 16.0058625,8.22950055 L19.0165985,8.81029438 C19.5597161,8.9150659 20,9.4463114 20,9.99754465 C20,14.4171787 16.4092877,18 12,18 C11.3620659,18 10.7415715,17.9251441 10.1467799,17.7837764 C9.99590781,18.5883228 9.95377258,19.3757932 10.0536789,20.0879474 C10.2236286,21.299386 10.7756252,22.1929256 11.9163844,22.8108695 C13.3577609,21.7621752 15.1054721,21.1095044 17.0000258,21.0125753 C17,19.3431458 18.3431458,18 20,18 C21.6568542,18 23,19.3431458 23,21 L25,21 C25,19.3431458 26.3431458,18 28,18 C29.6568542,18 31,19.3431458 31,21 C32.8961951,21.1095885 34.6454593,21.7633164 36.0876894,22.81373 C37.2320314,22.1956842 37.7854711,21.3012565 37.9556832,20.0879474 C38.055678,19.3751631 38.0133797,18.5869294 37.8621815,17.781641 C37.2646618,17.9243901 36.6411386,18 36,18 C31.5907123,18 28,14.4171787 28,9.99754465 C28,9.4463114 28.4402839,8.9150659 28.9834015,8.81029438 L31.9941375,8.22950055 C32.5358157,8.12500672 33.0521068,7.5993149 33.1440907,7.05595525 L33.8334484,2.98383967 C33.9264671,2.43436716 34.4456547,2 34.9953976,2 L35.999615,2 C40.4180158,2 44,5.581722 44,10 C44,12.2818482 43.0407573,14.3444687 41.5027447,15.8036508 C41.9509025,17.4002378 42.1415876,19.0419886 41.9168937,20.6436557 C41.6157063,22.7905851 40.5849181,24.5954807 38.7841493,25.8443637 C39.4815881,27.0836576 39.9091583,28.4954539 39.9870831,30 L42.0018986,30 C43.1054196,30 44,30.8877296 44,32 C44,33.1045695 43.1132936,34 42.0018986,34 L39.3350847,34 C38.9969235,34.8535963 38.5387282,35.6464819 37.9813297,36.3577964 C38.2556245,36.5550865 38.5344105,36.7745309 38.8134222,37.0174784 C40.7988409,38.7462675 42.014959,41.0856677 41.9999737,44.0102477 C41.9943141,45.1148027 41.0943073,46.0056334 39.9897523,45.9999737 C38.8851973,45.9943141 37.9943666,45.0943073 38.0000263,43.9897523 C38.0085932,42.3178052 37.3463856,41.0439417 36.186685,40.0341407 C35.76568,39.6675536 35.3085109,39.3647261 34.8536831,39.1266237 C34.7900633,39.0933187 34.7309384,39.0634644 34.6769053,39.0370116 C33.4183333,39.6537663 32.0032341,40 30.5072131,40 L17.4927869,40 C15.9968473,40 14.5817267,39.6538038 13.3230986,39.0370622 C13.2690934,39.0635025 13.2100034,39.09334 13.1464241,39.1266237 C12.6915963,39.3647261 12.2344273,39.6675536 11.8134222,40.0341407 C10.6537216,41.0439417 9.99151407,42.3178052 10.000081,43.9897523 C10.0057406,45.0943073 9.1149099,45.9943141 8.0103549,45.9999737 C6.9057999,46.0056334 6.00579311,45.1148027 6.00013348,44.0102477 C5.98514821,41.0856677 7.20126634,38.7462675 9.186685,37.0174784 C9.46563813,36.7745819 9.74436555,36.5551787 10.0186046,36.3579208 C9.4611903,35.6466002 9.00297928,34.8536801 8.66481724,34 L5.99810135,34 C4.89458045,34 4,33.1122704 4,32 C4,30.8954305 4.88670635,30 5.99810135,30 L8.01292013,30 Z M12,14 C14.2036736,14 15.3264775,12.7820431 15.3656158,12.179739 L15.2482009,12.1570887 C13.0706517,11.737023 11.2827876,9.91375784 10.9120225,7.72360544 C10.9120225,7.72360544 10.6690326,7.0114746 10.6690325,6.22687264 C9.11419529,6.77541138 8,8.25765215 8,10 C8,12.2039482 9.7946587,14 12,14 Z M36,14 C38.2053413,14 40,12.2039482 40,10 C40,8.25765215 38.8858047,6.77541138 37.3309675,6.22687264 C37.3309674,7.0114746 37.0879775,7.72360544 37.0879775,7.72360544 C36.7172124,9.91375784 34.9293483,11.737023 32.7517991,12.1570887 L32.6343842,12.179739 C32.6735225,12.7820431 33.7963264,14 36,14 Z M12,30.5 C12,33.5389261 14.4594116,36 17.4927869,36 L30.5072131,36 C33.5405351,36 36,33.5385386 36,30.5 C36,27.4610739 33.5405884,25 30.5072131,25 L17.4927869,25 C14.4594649,25 12,27.4614614 12,30.5 Z" id="Path" fill="#000000"></path>
    </g>
</svg>