<?xml version="1.0" encoding="UTF-8"?>
<svg width="48px" height="48px" viewBox="0 0 48 48" version="1.1" xmlns="http://www.w3.org/2000/svg" xmlns:xlink="http://www.w3.org/1999/xlink">
    <!-- Generator: Sketch 43.2 (39069) - http://www.bohemiancoding.com/sketch -->
    <title>theicons.co/svg/animals-02</title>
    <desc>Created with Sketch.</desc>
    <defs></defs>
    <g id="The-Icons" stroke="none" stroke-width="1" fill="none" fill-rule="evenodd">
        <path d="M25.999897,35.0636634 C26.6882434,37.7324096 29.2701037,39.3454205 31.8894229,38.788667 C34.5898903,38.214665 36.3145725,35.5586871 35.7407499,32.8590644 L35.0580386,29.6471602 C34.8283857,28.5667281 35.5180784,27.5046945 36.5985104,27.2750416 C37.6789425,27.0453887 38.7409761,27.7350814 38.970629,28.8155134 L39.6533404,32.0274176 C39.8572705,32.9868335 39.9000017,33.9431193 39.799837,34.8680754 C40.7758707,34.6852337 41.4442822,34.3328103 41.9951953,33.7242335 C43.2134084,32.3785109 43.9569369,29.6418763 44.0036621,25.0796721 C43.8958228,14.4566365 37.200305,9.01190508 24.0017229,8.99999923 C10.8031475,9.01190637 4.10763317,14.4563917 3.99979391,25.0390684 C4.04651912,29.6418763 4.79004766,32.3785109 6.00826076,33.7242335 C6.56160604,34.3354971 7.23348957,34.6883405 8.2165643,34.8704872 C8.1186096,33.9504914 8.16201656,32.9996854 8.36477432,32.0457852 L9.04748563,28.8338809 C9.27713855,27.7534489 10.3391722,27.0637562 11.4196042,27.2934091 C12.5000362,27.523062 13.1897289,28.5850957 12.960076,29.6655277 L12.2773647,32.8774319 C11.7035422,35.5770547 13.4282244,38.2330326 16.1286917,38.8070346 C18.7384262,39.3617508 21.3109754,37.7625529 21.999897,35.199106 L21.999897,33.0037062 C20.3430121,33.0035276 18.999897,31.6570794 18.999897,30.0037062 C18.999897,28.3468519 20.3485415,27.0037062 22.0002267,27.0037062 L25.9995672,27.0037062 C27.6566036,27.0037062 28.999897,28.3502233 28.999897,30.0037062 C28.999897,31.6604502 27.6514319,33.0035274 25.999897,33.0037062 L25.999897,35.0636634 Z M32.7210697,42.7012574 C29.3888856,43.409535 26.0937707,42.1705204 24.0169161,39.7500918 C21.9409933,42.1826151 18.6376475,43.429692 15.297045,42.719625 C12.9531321,42.2214109 11.0177565,40.8521953 9.75764509,39.022926 C3.29673837,38.8310482 0.103391128,35.2643717 0,25.0390684 C0.13135923,12.0991291 8.66485565,5.09642359 23.7416537,5.00098862 C23.828555,5.00006901 23.9152462,4.99993609 24.0017246,5.00002836 C24.0882052,4.99993608 24.1748987,5.000069 24.2618047,5.0004273 C39.3386004,5.09642879 47.8720968,12.0995885 48.003456,25.0796721 C47.9000756,35.2634703 44.7073813,38.8303075 38.2478265,39.022864 C36.9874312,40.8429602 35.0571575,42.2047067 32.7210697,42.7012574 Z M30.999897,25.0037062 C29.3430427,25.0037062 27.999897,23.6605604 27.999897,22.0037062 C27.999897,20.3468519 29.3430427,19.0037062 30.999897,19.0037062 C32.6567512,19.0037062 33.999897,20.3468519 33.999897,22.0037062 C33.999897,23.6605604 32.6567512,25.0037062 30.999897,25.0037062 Z M16.999897,25.0037062 C15.3430427,25.0037062 13.999897,23.6605604 13.999897,22.0037062 C13.999897,20.3468519 15.3430427,19.0037062 16.999897,19.0037062 C18.6567512,19.0037062 19.999897,20.3468519 19.999897,22.0037062 C19.999897,23.6605604 18.6567512,25.0037062 16.999897,25.0037062 Z" id="Path" fill="#000000"></path>
    </g>
</svg>