<?xml version="1.0" encoding="UTF-8"?>
<svg width="48px" height="48px" viewBox="0 0 48 48" version="1.1" xmlns="http://www.w3.org/2000/svg" xmlns:xlink="http://www.w3.org/1999/xlink">
    <!-- Generator: Sketch 43.2 (39069) - http://www.bohemiancoding.com/sketch -->
    <title>theicons.co/svg/animals-11</title>
    <desc>Created with Sketch.</desc>
    <defs></defs>
    <g id="The-Icons" stroke="none" stroke-width="1" fill="none" fill-rule="evenodd">
        <path d="M4.02084726,21.2495426 C3.31421474,20.1093928 2.77811917,18.8260933 2.48207198,17.4051732 C1.33740496,11.9111833 2.11140818,6.73974721 6.10262057,4.08112687 C6.71232885,3.67498892 7.3610768,3.38668165 8.03817659,3.21604695 C10.3125697,2.64288126 12.5420601,3.39000128 14.6455605,4.89110943 C15.0644111,5.19001118 15.4376182,5.48870305 15.759981,5.76988485 C18.8827303,3.9929741 22.4946624,2.97051742 26.3032847,3.00232554 C31.846416,2.92250925 36.0536157,4.90542671 38.8598973,7.69090632 C40.1350075,8.95656452 41.086367,10.6390271 41.1277926,12.5447402 C41.1869306,15.2652814 39.357218,17.617237 35.6815511,19.3583804 C34.2219602,20.0497808 32.8600482,20.7723906 31.6165559,21.5088433 C31.6693894,22.0619591 31.6687353,22.619436 31.5993308,23.1745004 C31.1958332,26.4014836 28.6434202,28.2359889 24.3303732,27.7748106 C23.8492879,28.5965599 23.6333309,29.3647343 23.7202436,30.0477318 C24.0836167,32.9032759 26.5203755,34.3326562 29.0311475,33.5011099 C29.9370386,33.2010865 30.5526153,32.6068926 30.9755299,31.7357845 C31.2131735,31.2462923 31.3720062,30.7008384 31.4607321,30.15163 C31.513194,29.8268931 31.5367582,29.3214121 31.5367582,29.3214121 C31.6294784,28.238036 32.0565413,27.3259908 33.3696425,27.0866373 C34.6356966,26.8558596 35.3507132,27.5096971 35.8486887,28.4452171 L38.4026526,33.2432132 L43.12459,34.5155754 C44.9754634,35.0169244 45.7803071,37.0846588 44.6602226,38.6886679 C44.6602226,38.6886679 43.8625402,39.9703909 42.8306167,40.82888 C40.8661082,42.4632156 38.2210664,43.2979813 34.9294821,42.9707963 C34.5504393,43.2146416 34.1101323,43.5367948 32.945042,43.9481372 C31.8247313,44.3436699 29.7657309,44.9830621 26.1902506,44.9830605 C22.6147704,44.9830589 17.6481341,43.8165905 13.486268,40.7185994 C8.2710193,36.836496 5.23360581,30.855909 5.23360581,23.0664712 C5.23360581,23.0057798 5.23391181,22.9451326 5.23452242,22.8845311 C4.85238177,22.460183 4.43345231,21.9152798 4.02084726,21.2495426 Z M12.3535512,8.16964881 C12.3430668,8.16210313 12.3325613,8.1545741 12.3220349,8.14706222 C11.0796598,7.26047366 9.91150223,6.86901476 9.01564841,7.09477726 C8.78143171,7.15380179 8.55187891,7.25581636 8.32015778,7.41017009 C6.09725585,8.89088615 5.55244207,12.5310127 6.39798145,16.5892976 C6.40029338,16.600394 6.40262753,16.6114781 6.40498384,16.6225498 C7.61085995,13.3750106 9.68779235,10.4609465 12.3535512,8.16964881 Z M19.7522415,30.5526672 C19.0741404,25.2238537 24.9953862,19.9942788 33.9691751,15.7434436 C36.3412553,14.6198021 37.1493741,13.5810272 37.1287373,12.63167 C37.113971,11.9523706 36.6518961,11.1351994 36.0420118,10.5298359 C33.950129,8.45345951 30.7366619,6.9389034 26.3154677,7.00204925 C17.0554802,6.92513149 9.23360581,14.528633 9.23360581,23.0664712 C9.23360581,29.5850963 11.6681938,34.3787358 15.8747023,37.5099576 C19.251357,40.0234567 22.9361205,40.9895597 26.0291469,40.9895597 C29.1221733,40.9895597 30.2561257,40.6816025 31.4924792,40.2212 C32.7082152,39.7684751 33.477571,39.0497251 33.9691748,38.8162046 C34.4607787,38.5826841 37.1287379,39.8975035 40.1475298,37.8546312 C39.600305,37.7538744 36.4121947,37.1526018 35.815454,36.6920591 C35.2187132,36.2315164 34.6206352,34.6510122 34.2937476,34.0369056 C33.6947874,35.2893492 32.2928121,36.6345432 30.2887365,37.2982759 C25.4443883,38.9026828 20.4413452,35.9679437 19.7522415,30.5526672 Z M28.2084593,13.0021182 C27.1038898,13.0021182 26.2084593,12.1066877 26.2084593,11.0021182 C26.2084593,9.89754874 27.1038898,9.00211824 28.2084593,9.00211824 C29.3130288,9.00211824 30.2084593,9.89754874 30.2084593,11.0021182 C30.2084593,12.1066877 29.3130288,13.0021182 28.2084593,13.0021182 Z M19.3016988,10.6519721 C19.4950791,9.56446217 20.5334459,8.83962697 21.6209558,9.03300736 C22.7084657,9.22638774 23.4333009,10.2647545 23.2399205,11.3522644 C23.2406451,11.3481896 23.2359801,11.3810832 23.2295214,11.4450645 C23.1690541,12.0440648 23.2231034,12.7476028 23.4611122,13.3579244 C23.7916103,14.2054145 24.4244929,14.7630409 25.6602879,15.024765 C26.7408889,15.2536212 27.4313645,16.315146 27.2025084,17.3957471 C26.9736522,18.4763481 25.9121273,19.1668238 24.8315263,18.9379676 C22.2489486,18.3910137 20.5450064,16.8896876 19.7344596,14.8112173 C19.2313464,13.5210933 19.1312062,12.2176103 19.2497476,11.0433181 C19.2666702,10.8756792 19.2853866,10.7437065 19.3016988,10.6519721 Z" id="Combined-Shape" fill="#000000"></path>
    </g>
</svg>