<?xml version="1.0" encoding="UTF-8"?>
<svg width="48px" height="48px" viewBox="0 0 48 48" version="1.1" xmlns="http://www.w3.org/2000/svg" xmlns:xlink="http://www.w3.org/1999/xlink">
    <!-- Generator: Sketch 43.2 (39069) - http://www.bohemiancoding.com/sketch -->
    <title>theicons.co/svg/animals-17</title>
    <desc>Created with Sketch.</desc>
    <defs></defs>
    <g id="The-Icons" stroke="none" stroke-width="1" fill="none" fill-rule="evenodd">
        <path d="M35,6 C41.0751322,6 46,10.9248678 46,17 C46,18.951293 45.4919247,20.7839187 44.6008494,22.3728017 C45.5052917,24.1233018 46,26.0196344 46,28 C46,36.836556 36.1502645,44 24,44 C11.8497355,44 2,36.836556 2,28 C2,26.0196344 2.49470835,24.1233018 3.39915061,22.3728017 C2.5080753,20.7839187 2,18.951293 2,17 C2,10.9248678 6.92486775,6 13,6 C16.5012407,6 19.6204227,7.63578808 21.6349952,10.184811 C22.1101535,10.7934233 22.490877,11.3905583 22.8122686,12.0229201 C23.2055272,12.0077046 24.7944728,12.0077046 25.1877314,12.0229201 C25.5091284,11.3905559 25.8898525,10.7934193 26.3225792,10.2388397 C28.3795786,7.63578742 31.49876,6 35,6 Z M21.4060731,16 C20.8550996,16 20.1953081,15.6029501 19.9357942,15.1195102 L19.2463903,13.8352423 C18.059533,11.5000125 15.6649244,10 13,10 C9.13400675,10 6,13.1340068 6,17 C6,18.2181808 6.3081487,19.3823549 6.88795634,20.4162143 L7.45182814,21.4216583 C7.72235772,21.9040416 7.73196087,22.7009623 7.48199056,23.1847666 L6.95283997,24.2089096 C6.31979294,25.4341385 6,26.7045457 6,28 C6,34.3025097 13.8340492,40 24,40 C34.1659508,40 42,34.3025097 42,28 C42,26.7045457 41.6802071,25.4341385 41.04716,24.2089096 L40.5180094,23.1847666 C40.2641381,22.6934121 40.2817993,21.8966292 40.5481719,21.4216583 L41.1120437,20.4162143 C41.6918513,19.3823549 42,18.2181808 42,17 C42,13.1340068 38.8659932,10 35,10 C32.3350759,10 29.9404691,11.5000119 28.7536118,13.8352383 L28.0592821,15.1195085 C27.7963779,15.6057905 27.1344358,16 26.5856261,16 L21.4060731,16 Z M14,20 C12.8954305,20 12,19.1045695 12,18 C12,16.8954305 12.8954305,16 14,16 C15.1045695,16 16,16.8954305 16,18 C16,19.1045695 15.1045695,20 14,20 Z M34,20 C32.8954305,20 32,19.1045695 32,18 C32,16.8954305 32.8954305,16 34,16 C35.1045695,16 36,16.8954305 36,18 C36,19.1045695 35.1045695,20 34,20 Z M16.7074695,31.5886273 C15.5120631,30.6743551 14.7231348,29.741623 14.2963835,29.0477075 C13.7177507,28.1068261 14.0114111,26.8750164 14.9522925,26.2963835 C15.8931739,25.7177507 17.1249836,26.0114111 17.7036165,26.9522925 C17.7299576,26.9951243 18.6853674,28.0655712 19.1375012,28.4113727 C20.4377592,29.4058377 22.0375442,30 24,30 C25.9624558,30 27.5622408,29.4058377 28.8624988,28.4113727 C29.3146326,28.0655712 30.2700424,26.9951243 30.2963835,26.9522925 C30.8750164,26.0114111 32.1068261,25.7177507 33.0477075,26.2963835 C33.9885889,26.8750164 34.2822493,28.1068261 33.7036165,29.0477075 C33.2768652,29.741623 32.4879369,30.6743551 31.2925305,31.5886273 C29.3240507,33.0941623 26.8850784,34 24,34 C21.1149216,34 18.6759493,33.0941623 16.7074695,31.5886273 Z" id="Combined-Shape" fill="#000000" fill-rule="nonzero"></path>
    </g>
</svg>