<?xml version="1.0" encoding="UTF-8"?>
<svg width="48px" height="48px" viewBox="0 0 48 48" version="1.1" xmlns="http://www.w3.org/2000/svg" xmlns:xlink="http://www.w3.org/1999/xlink">
    <!-- Generator: Sketch 43.2 (39069) - http://www.bohemiancoding.com/sketch -->
    <title>theicons.co/svg/animals-04</title>
    <desc>Created with Sketch.</desc>
    <defs></defs>
    <g id="The-Icons" stroke="none" stroke-width="1" fill="none" fill-rule="evenodd">
        <path d="M23.9175531,41.0003201 C26.0173996,40.9921102 27.7422367,40.4710159 29.1405593,39.4741307 C29.0948845,39.1113698 28.7134518,38.4867576 28.1122431,38.0859518 C27.1158939,37.421719 25.6216981,37.0003913 23.9670828,37.0003913 C22.3124676,37.0003913 20.8182718,37.421719 19.8219226,38.0859518 C19.1991419,38.5011389 18.8496827,39.163554 18.8296859,39.5127689 C20.2018625,40.484478 21.8838205,40.992217 23.9175531,41.0003201 Z M23.9670828,33.0003913 C27.4016824,33.0003913 30.386928,34.2830002 31.9039166,36.1689494 C32.5151989,34.9952577 32.9952724,33.6180625 33.3590847,32.0487969 C34.0605637,29.0230418 34.2104909,25.7772822 34.042309,22.9310653 C34.0211485,22.5729557 34.0006278,22.3258975 33.9883079,22.2076566 C33.8120815,20.5163226 35.6930586,19.3906524 37.1003079,20.3452809 C37.1657399,20.3896677 38.2561299,21.0314204 38.6593776,21.228651 C39.3087934,21.5462839 39.9320219,21.7887277 40.4828589,21.926541 C41.5636548,22.1969442 41.8272706,22.0373786 41.8925318,21.6877608 C42.4587577,18.6543726 39.401644,15.0003913 36.9211429,15.0003913 L11.0234791,15.0003913 C8.54297795,15.0003913 5.48586427,18.6543726 6.05209018,21.6877608 C6.1173514,22.0373786 6.38096715,22.1969442 7.46176307,21.926541 C8.01260013,21.7887277 8.63582861,21.5462839 9.28524438,21.228651 C9.68849205,21.0314204 10.7788821,20.3896677 10.8443141,20.3452809 C12.2515634,19.3906524 14.1325405,20.5163226 13.9563141,22.2076566 C13.9439942,22.3258975 13.9234735,22.5729557 13.902313,22.9310653 C13.7341311,25.7772822 13.8840583,29.0230418 14.5855373,32.0487969 C14.9488584,33.6159435 15.4272363,34.9915382 16.0340784,36.1641938 C17.5522576,34.2808444 20.5353709,33.0003913 23.9670828,33.0003913 Z M21.4732672,11.0003913 L26.4893114,11.0003913 C26.4364981,10.8550019 26.3876844,10.7032208 26.3428733,10.5448208 C26.003204,9.34414286 25.9248127,8.1369545 25.9853769,7.07005946 C25.9921132,6.95139326 25.9994909,6.85969129 26.005752,6.79810551 C26.1174713,5.69920034 27.0988764,4.89892811 28.1977816,5.01064745 C29.2966867,5.1223668 30.096959,6.10377187 29.9852396,7.20267704 C29.9413785,7.95857461 29.9929701,8.75306048 30.1918195,9.45596179 C30.4759702,10.4603904 30.9061516,11.0003913 31.7783644,11.0003913 C32.1470755,11.0003913 32.6204248,10.9017139 32.91441,10.7669963 C33.9565899,10.2894215 35.1992957,9.17461893 36.5011403,7.60211852 L32.7230344,4.58737102 C31.8596487,3.8984306 31.7182329,2.64002164 32.4071733,1.77663593 C33.0961137,0.913250227 34.3545227,0.771834385 35.2179084,1.46077481 L38.8513673,4.36010086 C39.0318495,4.08031092 40.1985429,2.11937691 40.2326911,2.05565878 C40.7544524,1.08208861 41.9666581,0.715825195 42.9402283,1.23758654 C43.9137985,1.75934789 44.2800619,2.9715536 43.7583005,3.94512377 C43.7087094,4.03765741 43.0544719,5.17851487 42.7914088,5.60783496 C42.0394636,6.83501296 41.2116158,8.06291389 40.3271311,9.21702299 C39.7671305,9.9477329 39.2075501,10.6205472 38.6468552,11.2290071 C42.941748,12.3575295 46.6320471,17.4759924 45.8357398,22.3594084 C45.329651,25.4630378 42.4945666,26.5531371 39.5120263,25.8069384 C38.6578372,25.5932297 38.6593776,25.5865119 38.1051404,25.35524 C38.0884256,27.8208834 37.8417597,30.4244332 37.2557367,32.9521812 C35.5471659,40.3219192 31.3235757,44.9584802 23.9670828,45.0000816 C16.6172619,44.9578656 12.3973429,40.3214307 10.6888853,32.9521812 C10.1028623,30.4244332 9.8561964,27.8208834 9.83948158,25.35524 C9.28524438,25.5865119 9.2867848,25.5932297 8.43259571,25.8069384 C5.45005543,26.5531371 2.61497103,25.4630378 2.10888216,22.3594084 C1.31168086,17.4705096 5.01116622,12.3460357 9.31223536,11.225221 C8.75270774,10.6177566 8.1942869,9.94621765 7.63544761,9.21702299 C6.7509629,8.06291389 5.92311508,6.83501296 5.17116981,5.60783496 C4.90810674,5.17851487 4.25386928,4.03765741 4.20427812,3.94512377 C3.68251677,2.9715536 4.04878019,1.75934789 5.02235035,1.23758654 C5.99592052,0.715825195 7.20812623,1.08208861 7.72988758,2.05565878 C7.76403576,2.11937691 8.93072915,4.08031092 9.11121131,4.36010086 L12.7446703,1.46077481 C13.608056,0.771834385 14.8664649,0.913250227 15.5554054,1.77663593 C16.2443458,2.64002164 16.10293,3.8984306 15.2395442,4.58737102 L11.4614383,7.60211852 C12.763283,9.17461893 14.0059888,10.2894215 15.0481686,10.7669963 C15.3421538,10.9017139 15.8009452,11.0003913 16.1842143,11.0003913 C17.0564271,11.0003913 17.4866084,10.4603904 17.7707592,9.45596179 C17.9696085,8.75306048 18.0212002,7.95857461 17.9836312,7.29676145 C17.8656197,6.10377187 18.6658919,5.1223668 19.7647971,5.01064745 C20.8637023,4.89892811 21.8451073,5.69920034 21.9568267,6.79810551 C21.9630877,6.85969129 21.9704655,6.95139326 21.9772018,7.07005946 C22.0377659,8.1369545 21.9593746,9.34414286 21.6197053,10.5448208 C21.5748943,10.7032208 21.5260805,10.8550019 21.4732672,11.0003913 Z M30.9670828,24.0003913 C30.9670828,25.1049608 30.0716523,26.0003913 28.9670828,26.0003913 C27.8625133,26.0003913 26.9670828,25.1049608 26.9670828,24.0003913 C26.9670828,22.8958218 27.8625133,22.0003913 28.9670828,22.0003913 C30.0716523,22.0003913 30.9670828,22.8958218 30.9670828,24.0003913 Z M20.9670828,24.0003913 C20.9670828,25.1049608 20.0716523,26.0003913 18.9670828,26.0003913 C17.8625133,26.0003913 16.9670828,25.1049608 16.9670828,24.0003913 C16.9670828,22.8958218 17.8625133,22.0003913 18.9670828,22.0003913 C20.0716523,22.0003913 20.9670828,22.8958218 20.9670828,24.0003913 Z" id="Combined-Shape" fill="#000000"></path>
    </g>
</svg>