<?xml version="1.0" encoding="UTF-8"?>
<svg width="48px" height="48px" viewBox="0 0 48 48" version="1.1" xmlns="http://www.w3.org/2000/svg" xmlns:xlink="http://www.w3.org/1999/xlink">
    <!-- Generator: Sketch 43.2 (39069) - http://www.bohemiancoding.com/sketch -->
    <title>theicons.co/svg/city-07</title>
    <desc>Created with Sketch.</desc>
    <defs></defs>
    <g id="The-Icons" stroke="none" stroke-width="1" fill="none" fill-rule="evenodd">
        <path d="M20,28 L20,39 L22,39 L22,33.999615 C22,32.8952581 22.8877296,32 24,32 C25.1045695,32 26,32.8874333 26,33.999615 L26,39 L28,39 L28,28 L20,28 Z M28,21.9910904 C28,21.4026565 27.4710052,20.1278595 27.0487231,19.7055773 L24.0156219,16.6412323 L20.9512769,19.7055773 C20.5274587,20.1293956 20,21.4003596 20,21.9910904 L20,24 L28,24 L28,21.9910904 Z M26,13 L29.8771502,16.8771502 C30.6744094,17.6744094 31.3690186,18.9894771 31.7319178,20.2680822 L34,18 L34,13.9981014 C34,12.8945804 34.8877296,12 36,12 C37.1045695,12 38,12.8867064 38,13.9981014 L38,18 L41.8771502,21.8771502 C43.0495678,23.0495678 44,25.3360431 44,27.0001221 L44,41.0025781 C44,42.1057238 43.1054862,43 42.0059397,43 L5.99406028,43 C4.8927712,43 4,42.1090746 4,41.0025781 L4,27.0001221 C4,25.3432004 4.94912052,23.0508795 6.12284982,21.8771502 L10,18 L10,13.9981014 C10,12.8945804 10.8877296,12 12,12 C13.1045695,12 14,12.8867064 14,13.9981014 L14,18 L16.2676729,20.2676729 C16.6302378,18.989166 17.3245994,17.6754006 18.1228498,16.8771502 L22,13 L22,11 L20.0085302,11 C18.8992496,11 18,10.1122704 18,9 C18,7.8954305 18.9019504,7 20.0085302,7 L22,7 L22,5.0085302 C22,3.8992496 22.8877296,3 24,3 C25.1045695,3 26,3.90195036 26,5.0085302 L26,7 L27.9914698,7 C29.1007504,7 30,7.88772964 30,9 C30,10.1045695 29.0980496,11 27.9914698,11 L26,11 L26,13 Z M16,39 L16,27.0001221 C16,26.4000759 15.4732374,25.1300916 15.0487231,24.7055773 L12,21.665036 L8.95127695,24.7055773 C8.52809286,25.1287614 8,26.4035013 8,27.0001221 L8.0045166,39 L10,39 L10,33.999615 C10,32.8952581 10.8877296,32 12,32 C13.1045695,32 14,32.8874333 14,33.999615 L14,39 L16,39 Z M40,39 L40,27.0001221 C40,26.4000759 39.4732374,25.1300916 39.0487231,24.7055773 L35.9971893,21.6596649 L32.9512769,24.7055773 C32.5280929,25.1287614 32,26.4035013 32,27.0001221 L32,39 L34,39 L34,33.999615 C34,32.8952581 34.8877296,32 36,32 C37.1045695,32 38,32.8874333 38,33.999615 L38,39 L40,39 Z" id="Combined-Shape" fill="#000000"></path>
    </g>
</svg>