<?xml version="1.0" encoding="UTF-8"?>
<svg width="48px" height="48px" viewBox="0 0 48 48" version="1.1" xmlns="http://www.w3.org/2000/svg" xmlns:xlink="http://www.w3.org/1999/xlink">
    <!-- Generator: Sketch 43.2 (39069) - http://www.bohemiancoding.com/sketch -->
    <title>theicons.co/svg/city-08</title>
    <desc>Created with Sketch.</desc>
    <defs></defs>
    <g id="The-Icons" stroke="none" stroke-width="1" fill="none" fill-rule="evenodd">
        <path d="M34,23 L34,14.0056458 C34,11.9509738 35.2340952,10.1878918 37,9.41610807 L37,6.99810135 C37,5.88670635 37.8954305,5 39,5 C40.1122704,5 41,5.89458045 41,6.99810135 L41,9.41756138 C42.7639252,10.1905359 44,11.9539393 44,14.0056458 L44,41.0002927 C44,42.1101074 43.1047419,43 42.000385,43 L5.99961498,43 C4.89525812,43 4,42.1101074 4,41.0002927 L4,14.0056458 C4,11.9539393 5.2360748,10.1905359 7,9.41756138 L7,6.99810135 C7,5.89458045 7.88772964,5 9,5 C10.1045695,5 11,5.88670635 11,6.99810135 L11,9.41610807 C12.7659048,10.1878918 14,11.9509738 14,14.0056458 L14,23 L16,23 C16,19.2723211 18.5495456,16.1401206 22,15.252035 L22,12.9979131 C22,11.8944962 22.8877296,11 24,11 C25.1045695,11 26,11.8982606 26,12.9979131 L26,15.252035 C29.4504544,16.1401206 32,19.2723211 32,23 L34,23 Z M24,19 C21.790861,19 20,20.790861 20,23 L28,23 C28,20.790861 26.209139,19 24,19 Z M21,33.997152 C21,32.3418707 22.3465171,31 24,31 C25.6568542,31 27,32.3416228 27,33.997152 L27,39 L34,39 L34,27 L14,27 L14,39 L21,39 L21,33.997152 Z M38,21 L38,39 L39.9689283,38.9809484 L39.991233,21 L38,21 Z M38,17 L39.9961948,17 L40,13.9324237 C40,13.4189676 39.5482907,13 39,13 C38.4474397,13 38,13.4151723 38,13.9324237 L38,17 Z M8.00876705,21 L8.0310717,38.9809484 L10,39 L10,21 L8.00876705,21 Z M10,17 L10,13.9324237 C10,13.4151723 9.55256032,13 9,13 C8.45170933,13 8,13.4189676 8,13.9324237 L8.00380521,17 L10,17 Z" id="Combined-Shape" fill="#000000"></path>
    </g>
</svg>