<?xml version="1.0" encoding="UTF-8"?>
<svg width="48px" height="48px" viewBox="0 0 48 48" version="1.1" xmlns="http://www.w3.org/2000/svg" xmlns:xlink="http://www.w3.org/1999/xlink">
    <!-- Generator: Sketch 43.2 (39069) - http://www.bohemiancoding.com/sketch -->
    <title>theicons.co/svg/city-03</title>
    <desc>Created with Sketch.</desc>
    <defs></defs>
    <g id="The-Icons" stroke="none" stroke-width="1" fill="none" fill-rule="evenodd">
        <path d="M17.4686969,23.000385 C17.4686969,24.1047419 16.5809673,25 15.4686969,25 C14.3641274,25 13.4686969,24.1125667 13.4686969,23.000385 L11.4686969,23 L11.4686969,39 L19.4687053,39 L19.4686969,38.9941413 L19.4686969,29.0058587 C19.4686969,27.8980535 20.3554033,27 21.4667983,27 L25.4705956,27 C26.5741165,27 27.4686969,27.8970601 27.4686969,29.0058587 L27.4686969,38.9941413 L27.4686887,39 L35.4686969,39 L35.4686969,23 L33.4686969,23 C33.4686969,24.1047419 32.5809673,25 31.4686969,25 C30.3641274,25 29.4686969,24.1125667 29.4686969,23.000385 L25.4686969,23 C25.4686969,24.1047419 24.5809673,25 23.4686969,25 C22.3641274,25 21.4686969,24.1125667 21.4686969,23.000385 L17.4686969,23 L17.4686969,23.000385 Z M17.4686969,19 L21.4686969,19 L21.4686969,16.999615 C21.4686969,15.8952581 22.3564266,15 23.4686969,15 C24.5732664,15 25.4686969,15.8874333 25.4686969,16.999615 L25.4686969,19 L29.4686969,19 L29.4686969,16.999615 C29.4686969,15.8952581 30.3564266,15 31.4686969,15 C32.5732664,15 33.4686969,15.8874333 33.4686969,16.999615 L33.4686969,19 L36.020477,19 C37.7263046,19 38.2853261,18.2313057 37.7608166,16.5976787 L35.9622272,11 L10.9175535,11 L9.17721377,16.5976787 C8.6532547,18.2295913 9.21396713,19 10.9175535,19 L13.4686969,19 L13.4686969,16.999615 C13.4686969,15.8952581 14.3564266,15 15.4686969,15 C16.5732664,15 17.4686969,15.8874333 17.4686969,16.999615 L17.4686969,19 L17.4686969,19 Z M39.4686969,22.1227227 L39.4686969,40.9950534 C39.4686969,42.1023548 38.5794352,43 37.4669536,43 L9.47044025,43 C8.36490794,43 7.46869693,42.1029738 7.46869693,40.9950534 L7.46869693,22.1212153 C5.34196631,20.8431534 4.42886718,18.3020705 5.36870248,15.3748779 L7.44815981,8.89824104 C7.7847604,7.84987146 8.9468538,7 10.0562481,7 L36.8817823,7 C37.9855891,7 39.1565957,7.86022949 39.4898706,8.89824104 L41.5693279,15.3748779 C42.5093384,18.3026161 41.5976077,20.8449676 39.4686969,22.1227227 L39.4686969,22.1227227 Z" id="Combined-Shape" fill="#000000"></path>
    </g>
</svg>