<?xml version="1.0" encoding="UTF-8"?>
<svg width="48px" height="48px" viewBox="0 0 48 48" version="1.1" xmlns="http://www.w3.org/2000/svg" xmlns:xlink="http://www.w3.org/1999/xlink">
    <!-- Generator: Sketch 43.2 (39069) - http://www.bohemiancoding.com/sketch -->
    <title>theicons.co/svg/city-19</title>
    <desc>Created with Sketch.</desc>
    <defs></defs>
    <g id="The-Icons" stroke="none" stroke-width="1" fill="none" fill-rule="evenodd">
        <path d="M45.4142136,30.5857864 C46.1952621,31.366835 46.1952621,32.633165 45.4142136,33.4142136 C45.0236893,33.8047379 44.5118446,34 44,34 L44,42 C44,43.1045695 43.1045695,44 42,44 L6,44 C4.8954305,44 4,43.1045695 4,42 L4,34 C3.48815536,34 2.97631073,33.8047379 2.58578644,33.4142136 C1.80473785,32.633165 1.80473785,31.366835 2.58578644,30.5857864 L12,21.1715729 L12,19 C11.4881554,19 10.9763107,18.8047379 10.5857864,18.4142136 C9.80473785,17.633165 9.80473785,16.366835 10.5857864,15.5857864 L22.5857864,3.58578644 C23.366835,2.80473785 24.633165,2.80473785 25.4142136,3.58578644 L37.4142136,15.5857864 C38.1952621,16.366835 38.1952621,17.633165 37.4142136,18.4142136 C37.0236893,18.8047379 36.5118446,19 36,19 L36,21.1715729 L45.4142136,30.5857864 Z M32,15.8284271 L24,7.82842712 L16,15.8284271 L16,21.0387503 L24,27.4387503 L32,21.0387503 L32,15.8284271 Z M33.8515681,24.6799952 L25.2493901,31.5617376 C24.5189528,32.1460875 23.4810472,32.1460875 22.7506099,31.5617376 L14.1484319,24.6799952 L8,30.8284271 L8,40 L40,40 L40,30.8284271 L33.8515681,24.6799952 Z M21,16.9979131 C21,15.8944962 21.8982606,15 22.9979131,15 L25.0020869,15 C26.1055038,15 27,15.8982606 27,16.9979131 L27,19.0020869 C27,20.1055038 26.1017394,21 25.0020869,21 L22.9979131,21 C21.8944962,21 21,20.1017394 21,19.0020869 L21,16.9979131 Z M30,31.9979131 C30,30.8944962 30.8982606,30 31.9979131,30 L34.0020869,30 C35.1055038,30 36,30.8982606 36,31.9979131 L36,34.0020869 C36,35.1055038 35.1017394,36 34.0020869,36 L31.9979131,36 C30.8944962,36 30,35.1017394 30,34.0020869 L30,31.9979131 Z M12,31.9979131 C12,30.8944962 12.8982606,30 13.9979131,30 L16.0020869,30 C17.1055038,30 18,30.8982606 18,31.9979131 L18,34.0020869 C18,35.1055038 17.1017394,36 16.0020869,36 L13.9979131,36 C12.8944962,36 12,35.1017394 12,34.0020869 L12,31.9979131 Z" id="Combined-Shape" fill="#000000"></path>
    </g>
</svg>