<?xml version="1.0" encoding="UTF-8"?>
<svg width="48px" height="48px" viewBox="0 0 48 48" version="1.1" xmlns="http://www.w3.org/2000/svg" xmlns:xlink="http://www.w3.org/1999/xlink">
    <!-- Generator: Sketch 43.2 (39069) - http://www.bohemiancoding.com/sketch -->
    <title>theicons.co/svg/city-17</title>
    <desc>Created with Sketch.</desc>
    <defs></defs>
    <g id="The-Icons" stroke="none" stroke-width="1" fill="none" fill-rule="evenodd">
        <path d="M16.1140377,39 C16.4580987,38.2055182 16.7922924,37.3983801 17.1167827,36.5791742 C17.967734,34.4308686 18.7411171,32.2319432 19.4412236,30 L28.5587764,30 C29.2588829,32.2319432 30.032266,34.4308686 30.8832173,36.5791742 C31.2077076,37.3983801 31.5419013,38.2055182 31.8859623,39 L30,39 C30,35.683924 27.3133722,33 24,33 C20.690006,33 18,35.6853678 18,38.9962027 L16.1140377,39 Z M26,39 C26,37.8939651 25.1051343,37 24,37 C22.8976013,37 22,37.8960536 22,38.9962027 L26,39 Z M30,8 C30,6.88772964 29.1007504,6 27.9914698,6 L26,6 L26,2.00591905 C26,0.886554837 25.1045695,0 24,0 C22.8877296,0 22,0.898080551 22,2.00591905 L22,6 L20.0085302,6 C18.9019504,6 18,6.8954305 18,8 C18,9.02731173 18.7671213,9.86307491 19.7583228,9.98475751 C19.7520309,10.0329375 19.745644,10.0815436 19.7391614,10.1305729 C19.4923369,11.9973744 19.160487,14.0807721 18.7319885,16.3258758 C18.4980172,17.5517607 18.2448284,18.7775422 17.971814,20.0001223 C16.8824739,20.0121026 16,20.9028893 16,22 C16,22.7725613 16.4307103,23.4367946 17.0628413,23.770469 C16.8693704,24.5163062 16.6681629,25.2597235 16.4590771,26 L15.9907951,26 C14.8982124,26 14,26.8954305 14,28 C14,28.8599696 14.532812,29.5857121 15.2827004,29.8707096 C14.7035588,31.6456105 14.0759783,33.3942405 13.3979002,35.1061119 C12.8691961,36.4408743 12.3143395,37.7398643 11.732828,39 L7.99970728,39 C6.88989258,39 6,39.8954305 6,41 C6,42.1122704 6.89529944,43 7.99970728,43 L40.0002927,43 C41.1101074,43 42,42.1045695 42,41 C42,39.8877296 41.1047006,39 40.0002927,39 L36.267172,39 C35.6856605,37.7398643 35.1308039,36.4408743 34.6020998,35.1061119 C33.9237959,33.3936707 33.2960234,31.6444464 32.7167213,29.8689371 C33.4641273,29.5815631 34,28.8531676 34,28 C34,26.8877296 33.1086907,26 32.0092049,26 L31.5409229,26 C31.3316806,25.2591693 31.1303283,24.5151931 30.9367242,23.7687939 C31.5686018,23.4332914 32,22.7670765 32,22 C32,20.8952285 31.1192263,20.0119803 30.0281856,20.0001208 C29.7551714,18.7775413 29.5019827,17.5517602 29.2680115,16.3258758 C28.839513,14.0807721 28.5076631,11.9973744 28.2608386,10.1305729 C28.2543476,10.0814802 28.2479526,10.0328118 28.2416528,9.98457054 C29.2308358,9.86170273 30,9.02002602 30,8 Z M23.7888843,10 C23.7626797,10.2098331 23.7346202,10.4282096 23.7046501,10.6548814 C23.4481726,12.5946912 23.1043992,14.7529462 22.6610659,17.0757761 C22.4749533,18.0509071 22.2770683,19.0260992 22.0670814,20 L25.9329186,20 C25.7229317,19.0260992 25.5250467,18.0509071 25.3389341,17.0757761 C24.8956008,14.7529462 24.5518274,12.5946912 24.2953499,10.6548814 C24.2653798,10.4282096 24.2373203,10.2098331 24.2111157,10 L23.7888843,10 Z M21.1330257,24 C20.9646467,24.668316 20.790281,25.3351311 20.60982,26 L27.39018,26 C27.209719,25.3351311 27.0353533,24.668316 26.8669743,24 L21.1330257,24 Z" id="Combined-Shape" fill="#000000"></path>
    </g>
</svg>