<?xml version="1.0" encoding="UTF-8"?>
<svg width="48px" height="48px" viewBox="0 0 48 48" version="1.1" xmlns="http://www.w3.org/2000/svg" xmlns:xlink="http://www.w3.org/1999/xlink">
    <!-- Generator: Sketch 43.2 (39069) - http://www.bohemiancoding.com/sketch -->
    <title>theicons.co/svg/city-10</title>
    <desc>Created with Sketch.</desc>
    <defs></defs>
    <g id="The-Icons" stroke="none" stroke-width="1" fill="none" fill-rule="evenodd">
        <path d="M22,13.4 L22,5.00585866 C22,3.89805351 22.8877296,3 24,3 C25.1045695,3 26,3.89706013 26,5.00585866 L26,13.4 L30,18.2 L30,8.99810135 C30,7.89458045 30.8877296,7 32,7 C33.1045695,7 34,7.88670635 34,8.99810135 L34,11 L36,11 L36,8.99810135 C36,7.89458045 36.8877296,7 38,7 C39.1045695,7 40,7.88670635 40,8.99810135 L40,11 L42,11 L42,8.99810135 C42,7.89458045 42.8877296,7 44,7 C45.1045695,7 46,7.88670635 46,8.99810135 L46,40.9982567 C46,42.103789 45.1011449,43 43.9950767,43 L4.00492334,43 C2.89763476,43 2,42.1107383 2,40.9982567 L2,8.99810135 C2,7.89458045 2.88772964,7 4,7 C5.1045695,7 6,7.88670635 6,8.99810135 L6,11 L8,11 L8,8.99810135 C8,7.89458045 8.88772964,7 10,7 C11.1045695,7 12,7.88670635 12,8.99810135 L12,11 L14,11 L14,8.99810135 C14,7.89458045 14.8877296,7 16,7 C17.1045695,7 18,7.88670635 18,8.99810135 L18,18.2 L22,13.4 Z M29.3965834,23 L28.7931669,23 L24.0277408,17.2814888 L19.2068331,23 L18.6034166,23 L29.3965834,23 Z M42,39 L42,15 L34,15 L34,25.9975267 C34,26.5511774 33.5446944,27 33.0081969,27 L14.9918031,27 C14.4440454,27 14,26.544239 14,25.9975267 L14,15 L6,15 L6,39 L16,39 L16,35 C16,31.6862915 18.6780403,29 22.0033309,29 L25.9966691,29 C29.3122172,29 32,31.6930342 32,35 L32,39 L42,39 Z M28,35 C28,33.8996467 27.1005521,33 25.9966691,33 L22.0033309,33 C20.8910516,33 20,33.8915566 20,35 L20,39 L28,39 L28,35 Z M36,28.9981014 C36,27.8945804 36.8877296,27 38,27 C39.1045695,27 40,27.8867064 40,28.9981014 L40,34.0029699 C40,34.5536144 39.5566468,35 38.9906311,35 L37.0093689,35 C36.4519098,35 36,34.5469637 36,34.0029699 L36,28.9981014 Z M8,28.9981014 C8,27.8945804 8.88772964,27 10,27 C11.1045695,27 12,27.8867064 12,28.9981014 L12,34.0029699 C12,34.5536144 11.5566468,35 10.9906311,35 L9.0093689,35 C8.45190985,35 8,34.5469637 8,34.0029699 L8,28.9981014 Z" id="Rectangle-815" fill="#000000"></path>
    </g>
</svg>