<?xml version="1.0" encoding="UTF-8"?>
<svg width="48px" height="48px" viewBox="0 0 48 48" version="1.1" xmlns="http://www.w3.org/2000/svg" xmlns:xlink="http://www.w3.org/1999/xlink">
    <!-- Generator: Sketch 43.2 (39069) - http://www.bohemiancoding.com/sketch -->
    <title>theicons.co/svg/city-02</title>
    <desc>Created with Sketch.</desc>
    <defs></defs>
    <g id="The-Icons" stroke="none" stroke-width="1" fill="none" fill-rule="evenodd">
        <path d="M38,31.396152 L26,31.396152 L26,39.3997533 C32.2734234,39.4014558 38,39.4035144 38,39.4053568 L38,31.396152 Z M38,27.396152 L38,23.3869471 C38,22.7249581 37.6019097,21.5320315 37.200231,20.99646 L33.599769,16.1958439 C33.0895271,15.5155214 31.9821338,14.517813 31.2519472,14.079701 L24.6900698,10.1425746 C24.3731196,9.95240448 23.6266447,9.95254591 23.3099302,10.1425746 L16.7480528,14.079701 C16.019357,14.5169185 14.9079122,15.5189357 14.400231,16.1958439 L10.799769,20.99646 C10.3936055,21.5380112 10,22.7177045 10,23.3869471 C10,23.3869471 10.000191,25.0954325 10.0004466,27.3961519 L38,27.396152 Z M10.0008897,31.396152 C10.0013312,35.3969184 10.0017667,39.396152 10.0017433,39.396152 C10.0017433,39.396152 15.7272591,39.3972012 22,39.3987275 L22,31.396152 L10.0008897,31.396152 Z M6,39.4053568 L6,23.3869471 C6,21.8518224 6.67455738,19.8300755 7.59976899,18.59646 L11.200231,13.7958439 C12.018536,12.7047706 13.5178858,11.3530397 14.6900698,10.6497293 L21.2519472,6.71260288 C22.8351414,5.76268635 25.1641231,5.76224509 26.7480528,6.71260288 L33.3099302,10.6497293 C34.4832255,11.3537065 35.9786358,12.7009997 36.799769,13.7958439 L40.400231,18.59646 C41.3209138,19.824037 42,21.8590023 42,23.3869471 L42,39.4053568 C42,41.6131877 40.2115295,43.396152 37.9982567,43.396152 L10.0017433,43.396152 C7.795415,43.396152 6,41.6062799 6,39.4053568 Z M19,19.3940651 C19,18.2906481 19.8874333,17.396152 20.999615,17.396152 L27.000385,17.396152 C28.1047419,17.396152 29,18.2944126 29,19.3940651 L29,21.3982388 C29,22.5016558 28.1125667,23.396152 27.000385,23.396152 L20.999615,23.396152 C19.8952581,23.396152 19,22.4978913 19,21.3982388 L19,19.3940651 Z" id="Combined-Shape" fill="#000000"></path>
    </g>
</svg>