<?xml version="1.0" encoding="UTF-8"?>
<svg width="48px" height="48px" viewBox="0 0 48 48" version="1.1" xmlns="http://www.w3.org/2000/svg" xmlns:xlink="http://www.w3.org/1999/xlink">
    <!-- Generator: Sketch 43.2 (39069) - http://www.bohemiancoding.com/sketch -->
    <title>theicons.co/svg/city-01</title>
    <desc>Created with Sketch.</desc>
    <defs></defs>
    <g id="The-Icons" stroke="none" stroke-width="1" fill="none" fill-rule="evenodd">
        <path d="M35.7211469,28.1045173 L35.7211469,35.1045173 L37.7232338,35.1045173 C38.8266508,35.1045173 39.7211469,36.002778 39.7211469,37.1024305 L39.7211469,39.1045173 L41.7126167,39.1045173 C42.8218973,39.1045173 43.7211469,39.992247 43.7211469,41.1045173 C43.7211469,42.2090868 42.8191966,43.1045173 41.7126167,43.1045173 L12.1101011,43.1045173 C9.76061976,43.1045173 7.72114693,41.400886 7.72114693,39.1137222 L7.72114693,26.6340233 L7.52164606,26.8678114 C6.80480037,27.7081721 5.54243521,27.8083007 4.70207455,27.091455 C3.86171389,26.3746093 3.76158523,25.1122442 4.47843092,24.2718835 L18.9058128,7.35881842 C20.4121383,5.55122788 23.0281208,5.5487861 24.5216461,7.34122328 L38.821096,24.1045173 L41.7291299,24.1045173 C42.8292905,24.1045173 43.7211469,24.992247 43.7211469,26.1045173 C43.7211469,27.2090868 42.8209708,28.1045173 41.7291299,28.1045173 L35.7211469,28.1045173 L35.7211469,28.1045173 Z M31.7267874,21.9531717 L21.7211469,10.2279082 L11.7155064,21.9531717 C11.7192444,22.0031311 11.7211469,22.053602 11.7211469,22.1045173 L11.7211469,39.1137222 L31.7211469,39.1137222 L31.7211469,22.1045173 C31.7211469,22.053602 31.7230495,22.0031311 31.7267874,21.9531717 L31.7267874,21.9531717 Z M17.7211469,26.1026187 C17.7211469,24.9990978 18.6078533,24.1045173 19.7192483,24.1045173 L23.7230456,24.1045173 C24.8265665,24.1045173 25.7211469,24.9912237 25.7211469,26.1026187 L25.7211469,30.106416 C25.7211469,31.2099369 24.8344406,32.1045173 23.7230456,32.1045173 L19.7192483,32.1045173 C18.6157274,32.1045173 17.7211469,31.217811 17.7211469,30.106416 L17.7211469,26.1026187 Z" id="Combined-Shape" fill="#000000"></path>
    </g>
</svg>