<?xml version="1.0" encoding="UTF-8"?>
<svg width="48px" height="48px" viewBox="0 0 48 48" version="1.1" xmlns="http://www.w3.org/2000/svg" xmlns:xlink="http://www.w3.org/1999/xlink">
    <!-- Generator: Sketch 43.2 (39069) - http://www.bohemiancoding.com/sketch -->
    <title>theicons.co/svg/city-13</title>
    <desc>Created with Sketch.</desc>
    <defs></defs>
    <g id="The-Icons" stroke="none" stroke-width="1" fill="none" fill-rule="evenodd">
        <path d="M22,8.96987794 L22,6.96949292 C22,5.86513606 22.8877296,4.96987794 24,4.96987794 C25.1045695,4.96987794 26,5.85731123 26,6.96949292 L26,24.9747886 C26,26.076646 25.1017876,26.9698779 24.0092049,26.9698779 L24,28.9698779 L30,28.9698779 L30,26.9649672 C30,25.8631098 30.8877296,24.9698779 32,24.9698779 C33.1045695,24.9698779 34,25.8625007 34,26.9649672 L34,28.9698779 L40,28.9698779 L40,26.9649672 C40,25.8631098 40.8877296,24.9698779 42,24.9698779 C43.1045695,24.9698779 44,25.8625007 44,26.9649672 L44,40.9747886 C44,41.525669 43.7781065,42.0244022 43.4171964,42.3854348 C43.0536451,42.7466833 42.5543777,42.9698779 42.0002927,42.9698779 L9.99970728,42.9698779 C9.44902666,42.9698779 8.95033511,42.7491683 8.58869864,42.3899634 C8.22381808,42.022985 8,41.5253259 8,40.9790828 L8,26.9698779 C6.89130934,26.9698779 6,26.0772551 6,24.9747886 L6,6.96949292 C6,5.86513606 6.88772964,4.96987794 8,4.96987794 C9.1045695,4.96987794 10,5.85731123 10,6.96949292 L10,8.96987794 L11.0909091,8.96987794 L15.0426477,1.72502389 C15.5713788,0.755683546 16.4315052,0.76097081 16.9573523,1.72502389 L20.9090909,8.96987794 L22,8.96987794 Z M12,38.9698779 L14,38.9698779 L14,26.9698779 L12,26.9698779 L12,38.9698779 Z M18,38.9698779 L20,38.9698779 L20,26.9698779 L18,26.9698779 L18,38.9698779 Z M30,32.9698779 L24,32.9698779 L24,38.9698779 L30,38.9698779 L30,32.9698779 Z M40,32.9698779 L34,32.9698779 L34,38.9698779 L40,38.9698779 L40,32.9698779 Z M10,12.9698779 L10,22.9698779 L22,22.9698779 L22,12.9698779 L10,12.9698779 Z M16,20.9698779 C14.3431458,20.9698779 13,19.6267322 13,17.9698779 C13,16.3130237 14.3431458,14.9698779 16,14.9698779 C17.6568542,14.9698779 19,16.3130237 19,17.9698779 C19,19.6267322 17.6568542,20.9698779 16,20.9698779 Z" id="Combined-Shape" fill="#000000"></path>
    </g>
</svg>