<?xml version="1.0" encoding="UTF-8"?>
<svg width="48px" height="48px" viewBox="0 0 48 48" version="1.1" xmlns="http://www.w3.org/2000/svg" xmlns:xlink="http://www.w3.org/1999/xlink">
    <!-- Generator: Sketch 43.2 (39069) - http://www.bohemiancoding.com/sketch -->
    <title>theicons.co/svg/city-12</title>
    <desc>Created with Sketch.</desc>
    <defs></defs>
    <g id="The-Icons" stroke="none" stroke-width="1" fill="none" fill-rule="evenodd">
        <path d="M22,39.3464111 L22,33.3549413 C22,32.2456607 22.8877296,31.3464111 24,31.3464111 C25.1045695,31.3464111 26,32.2483615 26,33.3549413 L26,39.3464111 L30,39.3464111 L30,25.3464111 L18,25.3464111 L18,39.3464111 L22,39.3464111 Z M6,24.8115975 C4.80439617,24.1199449 4,22.825802 4,21.3366481 L4,19.3125354 C1.54211148,19.0732227 1.2737586,17.6785964 3.77747487,15.9894724 L22.3464567,3.46196876 C23.2596834,2.84586328 24.739985,2.84610952 25.6522017,3.46211292 L44.206118,15.9912355 C46.7075394,17.6803999 46.5474119,19.0782969 44,19.315126 L44,21.3366481 C44,22.8198 43.1942195,24.1148767 42,24.8085368 L42,39.3464111 L45.9986107,39.3464111 C47.1039475,39.3464111 48,40.2341408 48,41.3464111 C48,42.4509806 47.1050616,43.3464111 45.9986107,43.3464111 L2.00138927,43.3464111 C0.896052496,43.3464111 0,42.4586815 0,41.3464111 C0,40.2418416 0.894938439,39.3464111 2.00138927,39.3464111 L6,39.3464111 L6,24.8115975 Z M22,13.3445125 C22,12.2409916 22.8877296,11.3464111 24,11.3464111 C25.1045695,11.3464111 26,12.2331175 26,13.3445125 L26,15.3464111 L35.9945126,15.3464111 L24,7.18256576 L12.0036716,15.3464111 L22,15.3464111 L22,13.3445125 Z M10,25.3464111 L10,39.3464111 L14,39.3464111 L14,25.3464111 L10,25.3464111 Z M34,25.3464111 L34,39.3464111 L38,39.3464111 L38,25.3464111 L34,25.3464111 Z M8,19.3464111 L8,21.3464111 L40,21.3464111 L40,19.3464111 L8,19.3464111 Z" id="Combined-Shape" fill="#000000"></path>
    </g>
</svg>