<?xml version="1.0" encoding="UTF-8"?>
<svg width="48px" height="48px" viewBox="0 0 48 48" version="1.1" xmlns="http://www.w3.org/2000/svg" xmlns:xlink="http://www.w3.org/1999/xlink">
    <!-- Generator: Sketch 43.2 (39069) - http://www.bohemiancoding.com/sketch -->
    <title>theicons.co/svg/city-06</title>
    <desc>Created with Sketch.</desc>
    <defs></defs>
    <g id="The-Icons" stroke="none" stroke-width="1" fill="none" fill-rule="evenodd">
        <path d="M41.9039552,43 L5.90387409,43 C4.79606894,43 3.94548126,42.0981492 4.00272819,41.0104577 L5.79330268,6.98954234 C5.85113393,5.89074844 6.78544872,5 7.89763042,5 L13.8984004,5 C15.0027573,5 15.9454813,5.90185079 16.0027282,6.98954234 L16.7521277,21.2281336 L30.0312983,15.7000189 C31.0622577,15.3134091 31.8980154,15.8970262 31.8980154,17.0049466 L31.8980154,19.5 L42.0312983,15.7000189 C43.0622577,15.3134091 43.8980154,15.8998975 43.8980154,16.9912443 L43.8980154,41.0087557 C43.8980154,42.1084896 43.0035017,43 41.9039552,43 Z M39.8980154,39.0395508 L39.9067472,20.7687275 L31.8980154,23.7720019 L31.8980154,39.0079102 L39.8980154,39.0395508 Z M17.6871404,38.9933752 L27.8980154,38.9555664 L27.9024329,20.9190339 L16.9752788,25.4680048 L17.6871404,38.9933752 Z M12.0571951,9 L9.69304139,8.99969709 L9.39027397,15 L12.3908377,15 L12.0571951,9 Z M9.18843922,19 L8.17926543,39 L13.725408,39 L12.6132661,19 L9.18843922,19 Z M33.8980154,28.9981014 C33.8980154,27.8945804 34.7857451,27 35.8980154,27 C37.0025849,27 37.8980154,27.8867064 37.8980154,28.9981014 L37.8980154,33.0018986 C37.8980154,34.1054196 37.0102858,35 35.8980154,35 C34.7934459,35 33.8980154,34.1132936 33.8980154,33.0018986 L33.8980154,28.9981014 Z M21.8980154,28.9981014 C21.8980154,27.8945804 22.7857451,27 23.8980154,27 C25.0025849,27 25.8980154,27.8867064 25.8980154,28.9981014 L25.8980154,33.0018986 C25.8980154,34.1054196 25.0102858,35 23.8980154,35 C22.7934459,35 21.8980154,34.1132936 21.8980154,33.0018986 L21.8980154,28.9981014 Z" id="Combined-Shape" fill="#000000"></path>
    </g>
</svg>