<?xml version="1.0" encoding="UTF-8"?>
<svg width="48px" height="48px" viewBox="0 0 48 48" version="1.1" xmlns="http://www.w3.org/2000/svg" xmlns:xlink="http://www.w3.org/1999/xlink">
    <!-- Generator: Sketch 43.2 (39069) - http://www.bohemiancoding.com/sketch -->
    <title>theicons.co/svg/city-05</title>
    <desc>Created with Sketch.</desc>
    <defs></defs>
    <g id="The-Icons" stroke="none" stroke-width="1" fill="none" fill-rule="evenodd">
        <path d="M22,15 L28,15 L28,9 L22,9 L22,15 Z M22,19 L22,25 L28,25 L28,19 L22,19 Z M38,15 L38,9 L32,9 L32,15 L38,15 Z M38,19 L32,19 L32,25 L38,25 L38,19 Z M12,15 L18,15 L18,9 L12,9 L12,15 Z M12,19 L12,25 L18,25 L18,19 L12,19 Z M38,29 L12,29 L12,39 L21,39 L21,34.9981014 C21,33.8945804 21.8867064,33 22.9981014,33 L27.0018986,33 C28.1054196,33 29,33.8867064 29,34.9981014 L29,39 L38,39 L38,29 Z M9.9999204,5 L40.0000796,5 C41.1046051,5 42,5.90185079 42,7.00285922 L42,40.9971408 C42,42.1032894 41.1080589,43 40.0000796,43 L9.9999204,43 C8.89539486,43 8,42.0981492 8,40.9971408 L8,7.00285922 C8,5.89671062 8.89194115,5 9.9999204,5 Z" id="Combined-Shape" fill="#000000"></path>
    </g>
</svg>