<?xml version="1.0" encoding="UTF-8"?>
<svg width="48px" height="48px" viewBox="0 0 48 48" version="1.1" xmlns="http://www.w3.org/2000/svg" xmlns:xlink="http://www.w3.org/1999/xlink">
    <!-- Generator: Sketch 43.2 (39069) - http://www.bohemiancoding.com/sketch -->
    <title>theicons.co/svg/city-15</title>
    <desc>Created with Sketch.</desc>
    <defs></defs>
    <g id="The-Icons" stroke="none" stroke-width="1" fill="none" fill-rule="evenodd">
        <path d="M32,20.9940603 L32,31 L35.0029953,31 C36.1059106,31 37,31.9019504 37,33.0085302 L37,39 L44,39 L44,36.9979131 C44,35.8944962 44.8877296,35 46,35 C47.1045695,35 48,35.8982606 48,36.9979131 L48,41 C48,42.1045695 47.1050616,43 45.9986107,43 L2.00138927,43 C0.896052496,43 0,42.1122704 0,41 L0,36.9979131 C0,35.8944962 0.887729645,35 2,35 C3.1045695,35 4,35.8982606 4,36.9979131 L4,39 L11,39 L11,33.0085302 C11,31.8992496 11.8949789,31 12.9970047,31 L16,31 L16,20.9940603 C16,19.8927712 16.8945138,19 17.9940603,19 C18,17.8944962 18.4608472,16.2319213 19.0314368,15.2809387 L22.7333264,9.11112274 C21.8112604,9.54101687 21.2183226,9.07654794 21.400524,8.01423208 L21.6223587,6.72083664 L20.6826519,5.8048489 C19.8885026,5.03074466 20.1252567,4.27525933 21.231894,4.11445552 L22.5305369,3.92575167 L23.1113076,2.74898162 C23.6021189,1.7544894 24.3937892,1.74619813 24.8886924,2.74898162 L25.4694631,3.92575167 L26.768106,4.11445552 C27.8655933,4.27392977 28.1181183,5.02429081 27.3173481,5.8048489 L26.3776413,6.72083664 L26.599476,8.01423208 C26.7802231,9.06806855 26.1958964,9.54465388 25.2666881,9.11114679 L28.9685632,15.2809387 C29.53821,16.23035 30,17.8982606 30,18.9979131 C31.1072288,19 32,19.8945138 32,20.9940603 Z M33,39 L33,35.0111084 L15,35.0011467 L15,39 L33,39 Z M24,14.74823 C24,14.74823 22,17.4956665 22,19 L26,19 C26,17.4851685 24,14.74823 24,14.74823 Z M20,23 L20,31 L28,31 L28,23 L20,23 Z M24,28.9482942 C22.8954305,28.9482942 22,28.0528637 22,26.9482942 C22,25.8437247 22.8954305,24.9482942 24,24.9482942 C25.1045695,24.9482942 26,25.8437247 26,26.9482942 C26,28.0528637 25.1045695,28.9482942 24,28.9482942 Z" id="Rectangle-656" fill="#000000"></path>
    </g>
</svg>