<?xml version="1.0" encoding="UTF-8"?>
<svg width="48px" height="48px" viewBox="0 0 48 48" version="1.1" xmlns="http://www.w3.org/2000/svg" xmlns:xlink="http://www.w3.org/1999/xlink">
    <!-- Generator: Sketch 43.2 (39069) - http://www.bohemiancoding.com/sketch -->
    <title>theicons.co/svg/city-16</title>
    <desc>Created with Sketch.</desc>
    <defs></defs>
    <g id="The-Icons" stroke="none" stroke-width="1" fill="none" fill-rule="evenodd">
        <path d="M12.1081424,26.4070442 C11.0703538,26.0283275 10.5325783,24.8882621 10.9127972,23.8436193 C11.2903849,22.8062057 12.4312773,22.268941 13.4762225,22.648275 L16.2123841,15.1307327 C15.1745956,14.752016 14.63682,13.6119507 15.0170389,12.5673079 C15.3948239,11.5293521 16.5367119,10.992068 17.5821026,11.3725592 L20.3995423,12.3980233 L23.1357035,4.88048237 C22.0964875,4.50223868 21.5599396,3.36224909 21.9403585,2.31705684 C22.3181435,1.27910104 23.4654038,0.743772397 24.5009693,1.12068742 L45.1798364,8.64717951 C46.2162377,9.02439873 46.7527855,10.1643883 46.3723667,11.2095806 C45.9945816,12.2475364 44.8473213,12.782865 43.8117558,12.40595 L41.07278,19.9224665 L43.8902197,20.9479307 C44.9290802,21.326045 45.4676217,22.4667602 45.0872028,23.5119524 C44.7096151,24.549366 43.5687227,25.0866308 42.5237775,24.7072967 L39.7876159,32.224839 C40.8254044,32.6035557 41.36318,33.7436211 40.9829611,34.7882639 C40.6053734,35.8256775 39.464481,36.3629422 38.4195358,35.9836082 L37.4389353,38.6777859 L42.0025078,38.6777859 C43.1056923,38.6777859 44,39.5655155 44,40.6777859 C44,41.7823554 43.1033397,42.6777859 42.0025078,42.6777859 L3.99749218,42.6777859 C2.89430771,42.6777859 2,41.7900562 2,40.6777859 C2,39.5732164 2.89666034,38.6777859 3.99749218,38.6777859 L7.64195767,38.6777859 L12.1081424,26.4070442 Z M26.037698,14.4501442 L26.037698,14.4501442 L27.406428,10.6895896 C27.7838544,9.65261912 28.9240119,9.11560989 29.9692041,9.49602876 C31.00716,9.87381378 31.545318,11.0133005 31.1651985,12.0576701 L29.7964685,15.8182248 L31.6758538,16.5022651 L33.0445837,12.7417104 C33.4220101,11.70474 34.5621676,11.1677308 35.6073599,11.5481496 C36.6453157,11.9259346 37.1834737,13.0654213 36.8033542,14.109791 L35.4346243,17.8703456 L37.3140095,18.5543859 L40.0470394,11.0454481 L26.9005535,6.25077572 L24.1603393,13.7668415 L26.037698,14.4501442 Z M30.3906899,28.8046369 L30.3906899,28.8046369 L31.7589022,25.0455047 C32.1366145,24.0077487 33.2770038,23.4701026 34.322196,23.8505215 C35.3601518,24.2283065 35.8980612,25.3684763 35.5176726,26.4135852 L34.1494604,30.1727175 L36.0288456,30.8567578 L38.7637543,23.3426581 L20.0079758,16.5122159 L17.2718147,24.0297568 L19.1143785,24.7003952 L20.4825907,20.9412629 C20.860303,19.9035069 22.0006923,19.3658609 23.0458846,19.7462798 C24.0838404,20.1240648 24.6217497,21.2642346 24.2413612,22.3093435 L22.8731489,26.0684758 L24.7525342,26.7525161 L26.1207464,22.9933838 C26.4984587,21.9556278 27.638848,21.4179818 28.6840403,21.7984006 C29.7219961,22.1761857 30.2599055,23.3163554 29.8795169,24.3614644 L28.5113047,28.1205967 L30.3906899,28.8046369 Z M11.9403681,38.6777859 L11.9403681,38.6777859 L14.0270243,38.6777859 L16.3778828,32.2188553 C16.7558526,31.1803919 17.8964506,30.6421724 18.9416428,31.0225912 C19.9795986,31.4003762 20.517508,32.540546 20.1371195,33.585655 L18.2837354,38.6777859 L20.4120909,38.6777859 L22.0186876,34.2636978 C22.3951943,33.2292541 23.5346063,32.6942932 24.5797986,33.0747121 C25.6177544,33.4524971 26.155591,34.5928669 25.7776316,35.6313016 L24.668802,38.6777859 L26.7971576,38.6777859 L27.6546586,36.3218212 C28.0323719,35.2840624 29.172762,34.7464141 30.2179543,35.1268329 C31.2559101,35.504618 31.790254,36.6545838 31.4154294,37.6844061 L31.0538687,38.6777859 L33.1822242,38.6777859 L34.6607651,34.6155283 L15.9037341,27.7885273 L11.9403681,38.6777859 Z" id="Combined-Shape" fill="#000000"></path>
    </g>
</svg>