<?xml version="1.0" encoding="UTF-8"?>
<svg width="48px" height="48px" viewBox="0 0 48 48" version="1.1" xmlns="http://www.w3.org/2000/svg" xmlns:xlink="http://www.w3.org/1999/xlink">
    <!-- Generator: Sketch 43.2 (39069) - http://www.bohemiancoding.com/sketch -->
    <title>theicons.co/svg/city-14</title>
    <desc>Created with Sketch.</desc>
    <defs></defs>
    <g id="The-Icons" stroke="none" stroke-width="1" fill="none" fill-rule="evenodd">
        <path d="M20.1246036,18.1437987 C20.646447,17.809826 21.2117455,17.5404105 21.8083011,17.3471911 C20.7192082,16.6325025 20,15.4005104 20,14.0005382 C20,13.6422195 20.0471145,13.294905 20.1354865,12.9644518 L18.5857864,11.4147517 C17.8047379,10.6337031 17.8047379,9.36737318 18.5857864,8.5863246 C19.366835,7.80527602 20.633165,7.80527602 21.4142136,8.5863246 L22,9.17211104 L22,7.99863952 C22,6.89511861 22.8877296,6.00053816 24,6.00053816 C25.1045695,6.00053816 26,6.88724452 26,7.99863952 L26,9.17211104 L26.5857864,8.5863246 C27.366835,7.80527602 28.633165,7.80527602 29.4142136,8.5863246 C30.1952621,9.36737318 30.1952621,10.6337031 29.4142136,11.4147517 L27.8645135,12.9644518 C27.9528855,13.294905 28,13.6422195 28,14.0005382 C28,15.4001439 27.2811683,16.6318574 26.1925542,17.3466297 C29.0267814,18.2632705 31.1498841,20.8975235 31.2692971,24.0022631 L31.4056441,27.5472853 C32.1955634,26.777877 33.435147,26.8234648 34.1709581,27.6406658 L35.5120121,29.1300572 C36.2503422,29.9500558 36.1899257,31.2081183 35.3639983,31.9517867 L31.7018709,35.2491811 L31.8461538,39.0005382 L37.9982567,39.0005382 C39.103789,39.0005382 40,39.8882678 40,41.0005382 C40,42.1051077 39.1107383,43.0005382 37.9982567,43.0005382 L10.0017433,43.0005382 C8.89621101,43.0005382 8,42.1128085 8,41.0005382 C8,39.8959687 8.88926172,39.0005382 10.0017433,39.0005382 L16.1538462,39.0005382 L16.71403,24.435758 C14.5405011,22.5618174 11.5571838,18.7929597 11.0618415,12.0005382 C9.89458045,12.0005382 9,11.1128085 9,10.0005382 C9,8.92874208 9.83486847,8.05385848 10.8997843,8.00288512 C10.3749055,7.53534062 10.0301514,6.88468342 10.0301514,6.01286727 C10.0301514,4.35295525 11.4203689,3.87197022 11.9239502,2.98393658 C12.5031321,1.962586 12.5342859,1.49028884 12.5342859,1.49028884 C12.6802192,0.96333545 13.0892535,0.840497775 13.4717549,1.22285608 C13.4717549,1.22285608 17.6895488,4.87258906 15.0670664,8.00157294 C16.1404247,8.03570951 17,8.91024664 17,10.0005382 C17,11.0703152 16.168274,11.943921 15.1062315,11.9978944 C15.4391014,13.7345506 16.5690683,16.2647197 20.1246036,18.1437987 Z M20.1568036,39.0005382 L27.8431964,39.0005382 L27.4660567,29.1949063 C26.6115117,29.7019712 25.6701308,30.1130903 24.7057317,30.4192418 C24.5406318,30.4716533 23.7641305,30.7010086 23.5487049,30.7692332 C23.1069976,30.9091205 22.7433501,31.0441255 22.4095901,31.1975138 C21.3333547,31.6921266 20.678506,32.3253758 20.3757488,33.3079647 L20.1568036,39.0005382 Z M20.7392376,27.5629681 C21.242314,27.331766 21.753857,27.1418544 22.3410335,26.9558974 C22.6064784,26.8718319 23.3812218,26.6429958 23.4954401,26.6067368 C25.2966804,26.0349275 27.0455753,24.7367372 27.2344001,23.777883 C26.9833069,22.2312406 25.5877581,21.0005382 24,21.0005382 C22.2886587,21.0005382 20.7937734,22.4393234 20.7277476,24.1559956 L20.5940935,27.6310017 C20.6421513,27.6080283 20.6905338,27.5853513 20.7392376,27.5629681 Z" id="Combined-Shape" fill="#000000"></path>
    </g>
</svg>