<?xml version="1.0" encoding="UTF-8"?>
<svg width="48px" height="48px" viewBox="0 0 48 48" version="1.1" xmlns="http://www.w3.org/2000/svg" xmlns:xlink="http://www.w3.org/1999/xlink">
    <!-- Generator: Sketch 43.2 (39069) - http://www.bohemiancoding.com/sketch -->
    <title>theicons.co/svg/city-18</title>
    <desc>Created with Sketch.</desc>
    <defs></defs>
    <g id="The-Icons" stroke="none" stroke-width="1" fill="none" fill-rule="evenodd">
        <path d="M14,34.9981014 C14,33.8945804 14.8867064,33 15.9981014,33 L20.0018986,33 C21.1054196,33 22,33.8867064 22,34.9981014 L22,39 L28,39 L28,31 L26.0049466,31 C24.8976452,31 24,30.1122704 24,29 C24,27.8954305 24.8970262,27 26.0049466,27 L28,27 L28,17.8284271 L18,7.82842712 L8.00007657,17.8283506 L8.00494659,39 L14,39 L14,34.9981014 Z M3.41421356,22.4142136 C2.63316498,23.1952621 1.36683502,23.1952621 0.585786438,22.4142136 C-0.195262146,21.633165 -0.195262146,20.366835 0.585786438,19.5857864 L16.5857864,3.58578644 C17.366835,2.80473785 18.633165,2.80473785 19.4142136,3.58578644 L35.4142136,19.5857864 C36.1952621,20.366835 36.1952621,21.633165 35.4142136,22.4142136 C34.633165,23.1952621 33.366835,23.1952621 32.5857864,22.4142136 L32,21.8284271 L32,27 L45.9950534,27 C47.1023548,27 48,27.8877296 48,29 C48,30.1029252 47.1056425,30.9973335 46,30.999994 L46,38.9972399 C46,41.206306 44.2135529,43 42.0049107,43 L8.00494659,43 C5.79295732,43 4,41.207425 4,38.9950534 L4,21.8284271 L3.41421356,22.4142136 Z M32,39 L42,38.9972399 L42,31 L32,31 L32,39 Z M14,18.9981014 C14,17.8945804 14.8867064,17 15.9981014,17 L20.0018986,17 C21.1054196,17 22,17.8867064 22,18.9981014 L22,23.0018986 C22,24.1054196 21.1132936,25 20.0018986,25 L15.9981014,25 C14.8945804,25 14,24.1132936 14,23.0018986 L14,18.9981014 Z" id="Combined-Shape" fill="#000000"></path>
    </g>
</svg>