<?xml version="1.0" encoding="UTF-8"?>
<svg width="48px" height="48px" viewBox="0 0 48 48" version="1.1" xmlns="http://www.w3.org/2000/svg" xmlns:xlink="http://www.w3.org/1999/xlink">
    <!-- Generator: Sketch 43.2 (39069) - http://www.bohemiancoding.com/sketch -->
    <title>theicons.co/svg/city-09</title>
    <desc>Created with Sketch.</desc>
    <defs></defs>
    <g id="The-Icons" stroke="none" stroke-width="1" fill="none" fill-rule="evenodd">
        <path d="M26,36.0016655 C26,34.3438914 27.3465171,33 29,33 C30.6568542,33 32,34.3390201 32,36.0016655 L32,39.0429281 L36,39.0515137 L36,31 L12,31 L12,39 L16,39.0085856 L16,36.0016655 C16,34.3438914 17.3465171,33 19,33 C20.6568542,33 22,34.3390201 22,36.0016655 L22,39.021464 L26,39.0300496 L26,36.0016655 Z M32.0154079,27 L32.0617676,21 L16,21 L16,27 L22,27 L22,24.9979131 C22,23.8944962 22.8877296,23 24,23 C25.1045695,23 26,23.8982606 26,24.9979131 L26,27 L32.0154079,27 Z M30.4819372,13.8955974 C31.465291,14.9063006 32.5216149,15.7503134 33.5742061,16.4307865 C33.712439,16.5201505 33.9285351,16.6474009 34.1455779,16.771858 C35.2339062,16.3203529 36,15.247626 36,13.9972382 C36,12.8926687 36.8954305,11.9972382 38,11.9972382 C39.1045695,11.9972382 40,12.8926687 40,13.9972382 C40,16.7891983 38.3646045,19.1998528 36,20.324506 L36,27 L36.9954787,27 C38.6538862,27 40,25.6547044 40,23.9972382 C40,22.8926687 40.8954305,21.9972382 42,21.9972382 C43.1045695,21.9972382 44,22.8926687 44,23.9972382 C44,26.7891983 42.3646045,29.1998528 40,30.324506 L40,41.0059397 C40,42.1072288 39.1107383,43 37.9982567,43 L10.0017433,43 C8.89621101,43 8,42.1054862 8,41.0059397 L8,30.3247198 C5.63496472,29.2000695 4,26.7889582 4,23.996187 C4,22.8916175 4.8954305,21.996187 6,21.996187 C7.1045695,21.996187 8,22.8916175 8,23.996187 C8,25.654912 9.34522456,27 11.0045213,27 L12,27 L12,20.3247198 C9.63496472,19.2000695 8,16.7889582 8,13.996187 C8,12.8916175 8.8954305,11.996187 10,11.996187 C11.1045695,11.996187 12,12.8916175 12,13.996187 C12,15.2313189 12.7458863,16.2925485 13.8119237,16.7540173 C14.0183511,16.6353365 14.22059,16.5158839 14.3522232,16.4307865 C15.4048144,15.7503134 16.4611383,14.9063006 17.4444921,13.8955974 C19.425751,11.859235 20.8342759,9.45365253 21.481779,6.63116196 C21.1770099,6.16161789 21,5.60148038 21,5 C21,3.34314575 22.3431458,2 24,2 C25.6568542,2 27,3.34314575 27,5 C27,5.63659886 26.8017167,6.22688617 26.4635408,6.7124711 C27.1192956,9.49988343 28.5197305,11.8788171 30.4819372,13.8955974 Z M27.966581,17 C27.83276,16.8924986 27.7143662,16.7871125 27.6149866,16.684969 C26.1263013,15.1548799 24.8898771,13.4421223 23.9632146,11.5456652 C23.0365522,13.4421223 21.8001279,15.1548799 20.3114427,16.684969 C20.2120631,16.7871125 20.0936693,16.8924986 19.9598483,17 L27.966581,17 Z" id="Combined-Shape" fill="#000000"></path>
    </g>
</svg>