<?xml version="1.0" encoding="UTF-8"?>
<svg width="48px" height="48px" viewBox="0 0 48 48" version="1.1" xmlns="http://www.w3.org/2000/svg" xmlns:xlink="http://www.w3.org/1999/xlink">
    <!-- Generator: Sketch 43.2 (39069) - http://www.bohemiancoding.com/sketch -->
    <title>theicons.co/svg/city-04</title>
    <desc>Created with Sketch.</desc>
    <defs></defs>
    <g id="The-Icons" stroke="none" stroke-width="1" fill="none" fill-rule="evenodd">
        <path d="M19.5992998,39 L15.0135133,43.4142136 C14.2324647,44.1952621 12.9661348,44.1952621 12.1850862,43.4142136 C11.4040376,42.633165 11.4040376,41.366835 12.1850862,40.5857864 L13.7708726,39 L9.60104307,39 C8.49551076,39 7.59929975,38.1122704 7.59929975,37 C7.59929975,35.8954305 8.48856148,35 9.60104307,35 L15.5992998,35 L15.5992998,33 C15.5992998,31.8954305 16.4938135,31 17.59336,31 L21.5992998,31 L21.5992998,24 L17.6005686,24 L17.0005331,23.2011553 C16.435581,22.4490183 15.5566298,22 14.5992998,22 C13.6419697,22 12.7630185,22.4490183 12.1980664,23.2011553 L11.5980309,24 L7.3236123,24 C4.77401285,24 3.28423057,21.6719583 4.34644586,19.346492 L4.26082919,19.5678136 C4.40045027,19.1315713 4.6838662,18.4560833 5.14540942,17.6203525 C5.89350856,16.2657459 6.88801384,14.9182331 8.16432141,13.6628665 C11.4028436,10.4774804 15.84877,8.44535724 21.5992998,8.06496218 L21.5992998,5.99810135 C21.5992998,4.89458045 22.4870294,4 23.5992998,4 C24.7038693,4 25.5992998,4.88670635 25.5992998,5.99810135 L25.5992998,8.0645036 C31.3531952,8.44372134 35.8013976,10.4761981 39.0412235,13.6628665 C40.317531,14.9182331 41.3120363,16.2657459 42.0601354,17.6203525 C42.5216787,18.4560833 42.8050946,19.1315713 42.9447157,19.5678136 L42.8328556,19.2912866 C43.9873451,21.6271226 42.4548491,24 39.8819326,24 L35.6005686,24 L35.0005331,23.2011553 C34.435581,22.4490183 33.5566298,22 32.5992998,22 C31.6419697,22 30.7630185,22.4490183 30.1980664,23.2011553 L29.5980309,24 L25.5992998,24 L25.5992998,31 L29.6052395,31 C30.7065286,31 31.5992998,31.8877296 31.5992998,33 L31.5992998,35 L37.5975564,35 C38.7030887,35 39.5992998,35.8877296 39.5992998,37 C39.5992998,38.1045695 38.710038,39 37.5975564,39 L33.4277269,39 L35.0135133,40.5857864 C35.7945619,41.366835 35.7945619,42.633165 35.0135133,43.4142136 C34.2324647,44.1952621 32.9661348,44.1952621 32.1850862,43.4142136 L27.5992998,39 L19.3319235,39 L19.5992998,39 Z M19.5175905,20.0186448 C19.7907667,20 27.3955641,20 27.7107997,20 C28.9988632,18.7318839 30.7395667,18 32.5992998,18 C34.4809943,18 36.2408314,18.7492715 37.5332418,20.0341563 C37.6685715,20.0172414 38.7941945,20.0043932 38.7941945,20.0043932 C38.7941945,20.0043932 38.8874816,20.1495826 38.5586231,19.5541083 C37.9893862,18.5233731 37.223437,17.4855442 36.2362879,16.5145917 C33.3744452,13.6997047 29.2782663,12 23.6027724,12 C17.9272786,12 13.8310996,13.6997047 10.969257,16.5145917 C9.98210789,17.4855442 9.21615867,18.5233731 8.64692172,19.5541083 C8.56023959,19.7110664 8.41667652,19.9906261 8.41667652,19.9906261 C8.41667652,19.9906261 9.37395796,20 9.76488813,20 C11.0365213,18.8295341 12.8106816,18 14.5992998,18 C16.4734094,18 18.2266421,18.7432432 19.5175905,20.0186448 Z" id="Combined-Shape" fill="#000000"></path>
    </g>
</svg>