<?xml version="1.0" encoding="UTF-8"?>
<svg width="48px" height="48px" viewBox="0 0 48 48" version="1.1" xmlns="http://www.w3.org/2000/svg" xmlns:xlink="http://www.w3.org/1999/xlink">
    <!-- Generator: Sketch 43.2 (39069) - http://www.bohemiancoding.com/sketch -->
    <title>theicons.co/svg/clothes-13</title>
    <desc>Created with Sketch.</desc>
    <defs></defs>
    <g id="The-Icons" stroke="none" stroke-width="1" fill="none" fill-rule="evenodd">
        <path d="M40,22 L40,30 L42.0027084,30 C43.1057821,30 44,30.9019504 44,32.0085302 L44,39.9914698 C44,41.1007504 43.1084602,42 42.0027084,42 L5.99729162,42 C4.89421792,42 4,41.0980496 4,39.9914698 L4,32.0085302 C4,30.8992496 4.89153983,30 5.99729162,30 L8,30 L8,22 C8,15.9234817 12.5178131,10.9018537 18.381137,10.1090027 C18.1347565,9.4528976 18,8.74218584 18,8 C18,4.6862915 20.6862915,2 24,2 C27.3137085,2 30,4.6862915 30,8 C30,8.74219062 29.8652417,9.45290676 29.6188582,10.1090153 C35.4811238,10.9018021 40,15.9222489 40,22 Z M17,38 L13,38 L13,34 L8.02355957,34 L8.03857422,38 L22,38.0077851 L22,34 L17,34 L17,38 Z M26,34 L26,38.0100156 L31,38.0128037 L31,34 L26,34 Z M35,34 L35,38.0150342 L40,38.0178223 L40.0222168,34 L35,34 Z M11.9715445,30.0016622 L36,30.0117187 L36,22 C36,17.5813404 32.4163708,14 27.9933381,14 L20.0066619,14 C15.583335,14 12,17.581645 12,22 L11.9715445,30.0016622 Z M26,8 C26,6.8954305 25.1045695,6 24,6 C22.8954305,6 22,6.8954305 22,8 C22,9.1045695 22.8954305,10 24,10 C25.1045695,10 26,9.1045695 26,8 Z" id="Shape" fill="#000000" fill-rule="nonzero"></path>
    </g>
</svg>