<?xml version="1.0" encoding="UTF-8"?>
<svg width="48px" height="48px" viewBox="0 0 48 48" version="1.1" xmlns="http://www.w3.org/2000/svg" xmlns:xlink="http://www.w3.org/1999/xlink">
    <!-- Generator: Sketch 43.2 (39069) - http://www.bohemiancoding.com/sketch -->
    <title>theicons.co/svg/clothes-01</title>
    <desc>Created with Sketch.</desc>
    <defs></defs>
    <g id="The-Icons" stroke="none" stroke-width="1" fill="none" fill-rule="evenodd">
        <path d="M32.6732039,24.2149483 C32.4965006,20.8575868 35.6326999,18.4498489 38.842109,19.542636 L39.6769253,19.8312016 L40.2435121,17.2857296 C40.2435121,17.2857296 33.3348798,9.9395838 32.6241638,10.0099418 C32.6241638,10.0099418 32.1673203,9.99999994 31.6845537,10.0003602 C30.2136854,12.968988 27.1528473,15.0099418 23.6153188,15.0099418 C20.0776473,15.0099418 17.0167046,12.9688229 15.5459055,10 C15.0615473,9.99999994 14.6064738,10.0099418 14.6064738,10.0099418 C13.9583364,10.0099418 7,17.3000118 7,17.3000118 L7.56714184,19.8115152 L8.39607849,19.534326 C11.5774498,18.4705032 14.7353576,20.834396 14.5574338,24.2149483 L14.2483253,30 L32.9771214,30 L32.6732039,24.2149483 Z M33.1872613,34 L14.0345962,34 L13.8203359,38.0099418 L33.3979235,38.0099418 L33.1872613,34 Z M10.579173,23.9947712 C10.6080886,23.4453742 10.2000242,23.1442916 9.68081156,23.3179118 L6.5299669,24.3715267 C5.48148882,24.7221286 4.43611947,24.1263828 4.19755919,23.0521044 L3.06549961,17.9542433 C2.82582448,16.8749445 3.26466057,15.3668688 4.04307572,14.5884537 L11.2199831,7.41154632 C11.9995586,6.63197081 13.5212033,6 14.6226844,6 L17.6405787,6 C18.1878657,6 18.7372603,6.42629719 18.9074574,6.96405029 C18.9074574,6.96405029 19.5971061,11 23.6315294,11 C27.6659527,11 28.3597409,6.95223077 28.3597409,6.95223077 C28.5098455,6.42632824 29.0758629,6 29.6224801,6 L32.6403744,6 C33.7400589,6 35.2646606,6.63313117 36.0430757,7.41154632 L43.2199831,14.5884537 C43.9995586,15.3680292 44.439761,16.8670779 44.1975592,17.9621895 L43.0654996,23.0807792 C42.8258245,24.1644666 41.7846016,24.7545942 40.7330919,24.3965607 L37.5690294,23.3192139 C37.0512624,23.1429169 36.6552623,23.4509254 36.6838858,23.9947712 L37.5264019,40.0025781 C37.5844622,41.1057238 36.7316319,42 35.6402851,42 L11.6227737,42 C10.5230398,42 9.67842021,41.1090746 9.73665687,40.0025781 L10.579173,23.9947712 Z" id="Combined-Shape" fill="#000000"></path>
    </g>
</svg>