<?xml version="1.0" encoding="UTF-8"?>
<svg width="48px" height="48px" viewBox="0 0 48 48" version="1.1" xmlns="http://www.w3.org/2000/svg" xmlns:xlink="http://www.w3.org/1999/xlink">
    <!-- Generator: Sketch 43.2 (39069) - http://www.bohemiancoding.com/sketch -->
    <title>theicons.co/svg/clothes-12</title>
    <desc>Created with Sketch.</desc>
    <defs></defs>
    <g id="The-Icons" stroke="none" stroke-width="1" fill="none" fill-rule="evenodd">
        <path d="M26.0213874,25.711731 C25.0212578,26.1780991 23.8353218,25.7516088 23.3652561,24.7435495 C22.8984448,23.7424696 23.3236484,22.5561956 24.3309143,22.0864998 L27.0178971,20.8335392 C26.6472479,20.088961 26.2270871,19.2483127 25.7884926,18.3727681 L23.0309002,19.6586546 C22.0307706,20.1250226 20.8448346,19.6985324 20.3747689,18.6904731 C19.9079576,17.6893932 20.3331612,16.5031192 21.3404271,16.0334234 L23.9929042,14.796553 C22.6754652,12.177452 21.5757474,9.99983726 21.5757474,9.99983726 L9.40777085,9.9953798 C9.40777085,9.9953798 8.98378683,12.7568513 8.803064,14.0502786 C8.69570438,14.8186478 8.59622677,15.5634499 8.50621702,16.276761 C8.18274625,18.8402086 8,20.8596528 8,22.0000001 C8,25.2225409 8.00724251,24.9436755 8.00724251,24.9436755 L19.0847329,27.6413053 C21.6659541,28.2698934 23.8676119,30.5594559 24.3923982,33.1608411 L25.3720703,38.0000001 L37.9998726,38.0000001 C39.1055378,38.0000001 40.0000003,37.106325 40.0000003,36.0053982 C40.0000003,35.9964068 40.0161705,32.6169542 40.0161705,32.6169542 C40.0161705,32.6169542 39.7778956,32.3967944 39.604582,32.2580958 C38.8693845,31.6697348 37.9350653,31.0910117 35.9526242,29.9617721 C34.7814382,29.2946401 34.5778722,29.1779075 34.0752435,28.8807609 C31.3906765,27.2936849 29.7798983,26.0810075 28.7935412,24.4190544 L26.0213874,25.711731 Z M16,31.0069994 L16,39.9938396 C16,41.1018114 15.0980496,42.0000001 13.9914698,42.0000001 L6.0085302,42.0000001 C4.8992496,42.0000001 4,41.1017877 4,40.0092049 L4,22.0000001 C4,18.0314941 5.68309405,7.96989861 5.68309405,7.96989861 C5.85811638,6.88195365 6.8934637,6 7.99696879,6 L22.0199883,6 C23.1228837,6 24.4310705,6.80264863 24.9307229,7.77338987 C24.9307229,7.77338987 30.5529785,18.6413574 32.0395515,22 C33.5261245,25.3586426 43.9999993,28.2539064 44,32.0000001 C44.0000007,35.7460937 44.0000003,36.0054046 44.0000003,36.0054046 C44.0000001,39.3161283 41.3140134,42.0000001 37.9998726,42.0000001 L24.0969657,42.0000001 C22.9912944,42.0000001 21.9159458,41.1125668 21.7012194,40.0481603 L20.471388,33.9518398 C20.2539252,32.8738684 19.2132331,31.7894974 18.1382981,31.5277254 L16,31.0069994 Z M8.00695252,29.0605041 L8.0291748,38.0000001 L12.0338135,38.0000001 L12.0074314,30.0347149 L8.00695252,29.0605041 Z" id="Rectangle-714" fill="#000000"></path>
    </g>
</svg>