<?xml version="1.0" encoding="UTF-8"?>
<svg width="48px" height="48px" viewBox="0 0 48 48" version="1.1" xmlns="http://www.w3.org/2000/svg" xmlns:xlink="http://www.w3.org/1999/xlink">
    <!-- Generator: Sketch 43.2 (39069) - http://www.bohemiancoding.com/sketch -->
    <title>theicons.co/svg/clothes-18</title>
    <desc>Created with Sketch.</desc>
    <defs></defs>
    <g id="The-Icons" stroke="none" stroke-width="1" fill="none" fill-rule="evenodd">
        <path d="M26,33.9941413 C26,35.1019465 25.1122704,36 24,36 C22.8954305,36 22,35.1029399 22,33.9941413 L22,31.9784665 C15.8971978,31.8437205 12.1904135,31.1037543 10.0960051,30.469191 L8.12433809,37.4047937 C7.64207763,39.1012094 8.31582924,40.0000238 10.0637144,40.0000238 L37.9359659,40.0000238 C39.6818443,40.0000238 40.3571946,39.0997735 39.8763268,37.4082568 L37.9037723,30.4695323 C35.815606,31.1033276 32.1117956,31.843817 26,31.9785058 L26,33.9941413 Z M22,26.0100098 L20.999615,26.0100098 C19.8952581,26.0100098 19,25.1200586 19,24.0050049 C19,22.8976713 19.8874333,22 20.999615,22 L27.000385,22 C28.1047419,22 29,22.8899511 29,24.0050049 C29,25.1123385 28.1125667,26.0100098 27.000385,26.0100098 L26,26.0100098 L26,27.9780194 C30.2370424,27.8820418 33.4967796,27.4787099 35.8903735,26.8781674 C36.7636309,26.6590708 36.8764539,26.6468504 37.9532788,26.2295483 C39.0301036,25.8122461 39.919538,24.6176358 40,24.0042925 L40,19.9959688 C39.919538,20.0029784 8,20.0001425 8,20.0001425 C8.08198258,20.0001425 8,24.0042925 8,24.0042925 C8.08014238,24.5867 8.48352912,25.2648901 9.27578447,25.812246 C9.69565369,26.1023265 11.8186758,26.8044658 12.1014359,26.8754514 C14.4996479,27.4775114 17.7623023,27.8817919 22,27.9779768 L22,26.0100098 Z M39.9195126,16.0001663 C42.1175782,16.0001663 43.8994624,17.7966768 43.8994624,19.9959688 L43.8994624,24.0042925 C43.8994624,25.7075541 42.9401919,27.6045089 41.5506623,28.7378228 L43.7031195,36.3093788 C44.9105825,40.5567916 42.3253537,44 37.9359659,44 L10.0637144,44 C5.67114046,44 3.08901334,40.557089 4.29754542,36.3059157 L6.45686579,28.7102173 C5.07890644,27.5656264 4.10021792,25.7031361 4.10021792,24.0042925 L4.10021792,19.9959688 C4.10021792,17.789148 5.88762663,16.0001663 8.08016778,16.0001663 L10.3191176,16.0001663 C10.3393679,15.8088618 10.3627298,15.6106687 10.3894944,15.4061525 C10.617823,13.6614234 11.0415094,11.9230741 11.7157856,10.2785914 C13.7964003,5.20420996 17.8230209,2.03474153 23.988774,2.00028033 C30.1779392,1.96568828 34.2741783,5.13478237 36.4640748,10.25015 C37.1992454,11.9674309 37.6659028,13.7842016 37.9246024,15.5970869 C37.9443071,15.7351713 37.9623638,15.8696023 37.9788741,16.0001663 L39.9195126,16.0001663 Z M32.8081838,11.8310528 C31.2087573,8.0949611 28.4689434,5.97527818 24.0109064,6.00019473 C19.5733581,6.02499676 16.9024609,8.12733649 15.3955142,11.8026073 C14.864831,13.0968829 14.5216236,14.505034 14.3354341,15.927765 C14.3322597,15.9520215 14.3291446,15.9761559 14.3260882,16.0001663 L33.9607785,16.0001663 C33.7443123,14.568132 33.3701288,13.1436972 32.8081838,11.8310528 Z" id="Shape" fill="#000000"></path>
    </g>
</svg>