<?xml version="1.0" encoding="UTF-8"?>
<svg width="48px" height="48px" viewBox="0 0 48 48" version="1.1" xmlns="http://www.w3.org/2000/svg" xmlns:xlink="http://www.w3.org/1999/xlink">
    <!-- Generator: Sketch 43.2 (39069) - http://www.bohemiancoding.com/sketch -->
    <title>theicons.co/svg/clothes-14</title>
    <desc>Created with Sketch.</desc>
    <defs></defs>
    <g id="The-Icons" stroke="none" stroke-width="1" fill="none" fill-rule="evenodd">
        <path d="M45.9986107,30 C47.1039475,30 48,30.9019504 48,32.0085302 L48,36 C48,39.3137085 45.3164587,42 41.9936134,42 L6.00638655,42 C2.68915086,42 0,39.3069658 0,36 L0,32.0085302 C0,30.8992496 0.894938439,30 2.00138927,30 L5.35770996,30 L8.43821239,14.468055 C8.60955247,13.4964403 9.0008489,12.0593224 9.68246541,10.5879106 C10.9671776,7.81459067 12.8473174,6 15.5406738,6 C17.4391793,6 18.7559697,6.29115213 20.6918099,6.97044721 C20.8913562,7.04068834 21.3427223,7.19921837 21.4503921,7.23595936 C22.4905005,7.59088346 23.1536085,7.72722804 24.0307768,7.71452253 C24.8699953,7.72743828 25.5446605,7.5883478 26.6139795,7.223732 C26.7175548,7.18841495 27.1510462,7.03668908 27.3420035,6.96972358 C29.2863046,6.28984855 30.5993778,6 32.5,6 C35.2007187,6 37.0766235,7.81991192 38.3453171,10.5976684 C39.0180971,12.0706948 39.3997799,13.5088978 39.5617876,14.468055 L42.64229,30 L45.9986107,30 Z M11.0420549,22 C10.9093134,22.6717537 10.7764045,23.3449845 10.6471774,24 L17.9914698,24 C19.1007504,24 20,24.8877296 20,26 C20,27.1045695 19.0980496,28 17.9914698,28 L10.0085302,28 C9.95858689,28 9.90906933,27.9982005 9.86004043,27.994662 C9.61996653,29.2143873 9.46557617,30 9.46557617,30 L38.5726318,30 C38.5726318,30 37.7725747,25.9752371 36.9785913,22 L11.0420549,22 Z M35.4235738,14.2987327 C35.2372666,13.5967161 34.9979564,12.8968282 34.7068558,12.2594745 C34.0181214,10.7515167 33.243483,10 32.5,10 C31.1302338,10 29.9832925,10.0378009 28.2908406,10.875922 C26.5983887,11.7140431 25.3448186,11.7352196 24.031152,11.7140431 C22.6800064,11.7350911 21.6214958,11.7628355 19.7550839,10.8814177 C17.8886719,10 16.907258,10 15.5406738,10 C14.7967286,10 14.0125511,10.7568379 13.3119499,12.2692323 C13.016237,12.9075904 12.7719154,13.6083288 12.5805541,14.3111432 C12.5456411,14.4393682 12.2408444,15.9560059 11.8344725,18 L36.1779116,18 C35.7661804,15.9494367 35.4576229,14.4270315 35.4235738,14.2987327 Z M22,26 C22,24.8954305 22.8877296,24 24,24 C25.1045695,24 26,24.8877296 26,26 C26,27.1045695 25.1122704,28 24,28 C22.8954305,28 22,27.1122704 22,26 Z M4,36 C4,37.0998977 4.90036151,38 6.00638655,38 L41.9936134,38 C43.105757,38 44,37.1061312 44,36 L44.0447998,34 L4.01525879,34 L4,36 Z" id="Rectangle-704" fill="#000000"></path>
    </g>
</svg>