<?xml version="1.0" encoding="UTF-8"?>
<svg width="48px" height="48px" viewBox="0 0 48 48" version="1.1" xmlns="http://www.w3.org/2000/svg" xmlns:xlink="http://www.w3.org/1999/xlink">
    <!-- Generator: Sketch 43.2 (39069) - http://www.bohemiancoding.com/sketch -->
    <title>theicons.co/svg/clothes-20</title>
    <desc>Created with Sketch.</desc>
    <defs></defs>
    <g id="The-Icons" stroke="none" stroke-width="1" fill="none" fill-rule="evenodd">
        <path d="M26,22 L28.0018986,22 C29.1054196,22 30,22.8877296 30,24 C30,25.1045695 29.1132936,26 28.0018986,26 L23.9981014,26 C23.4464045,26 22.9469307,25.7781187 22.5853553,25.4172262 C22.2236012,25.0558067 22,24.5561572 22,24.000385 L22,17.999615 C22,16.8952581 22.8877296,16 24,16 C25.1045695,16 26,16.8874333 26,17.999615 L26,22 Z M33.641505,34.1509699 L32.3302593,42.0184441 C32.1478621,43.1128272 31.1054862,44 30.0059397,44 L17.9940603,44 C16.8927712,44 15.8529352,43.1176113 15.6697407,42.0184441 L14.358495,34.1509699 C11.67381,31.6002093 10,27.9955743 10,24 C10,20.0044257 11.67381,16.3997907 14.358495,13.8490301 L15.6697407,5.98155594 C15.8529352,4.88238865 16.8927712,4 17.9940603,4 L30.0059397,4 C31.1054862,4 32.1478621,4.88717281 32.3302593,5.98155594 L33.641505,13.8490301 C35.3922654,15.5124546 36.713129,17.6240623 37.4202426,20 L38,20 C39.1045695,20 40,20.8867064 40,21.9981014 L40,26.0018986 C40,27.1054196 39.1122704,28 38,28 L37.4202426,28 C36.713129,30.3759377 35.3922654,32.4875454 33.641505,34.1509699 Z M24,10 C25.8013016,10 27.5231477,10.3401893 29.1047959,10.9598253 L28.6118007,8.00185403 L19.4106445,8 L18.9101402,10.9539838 C20.48769,10.3380516 22.2043669,10 24,10 Z M30.0009749,16 L29.9368633,15.95223 C28.2764907,14.7253294 26.2229502,14 24,14 C21.7771172,14 19.7236339,14.7252854 18.0632878,15.9521184 L17.9990251,16 C15.5706862,17.8244576 14,20.7288021 14,24 C14,27.2711979 15.5706862,30.1755424 17.9990251,32 L18.0632878,32.0478816 C19.7236339,33.2747146 21.7771172,34 24,34 C26.2229502,34 28.2764907,33.2746706 29.9368633,32.04777 L30.0009749,32 C32.4293138,30.1755424 34,27.2711979 34,24 C34,20.7288021 32.4293138,17.8244576 30.0009749,16 Z M19.4106445,40 L28.6118007,39.998146 L29.1047959,37.0401747 C27.5231477,37.6598107 25.8013016,38 24,38 C22.2043669,38 20.48769,37.6619484 18.9101402,37.0460162 L19.4106445,40 Z" id="Rectangle-722-Copy" fill="#000000"></path>
    </g>
</svg>