<?xml version="1.0" encoding="UTF-8"?>
<svg width="48px" height="48px" viewBox="0 0 48 48" version="1.1" xmlns="http://www.w3.org/2000/svg" xmlns:xlink="http://www.w3.org/1999/xlink">
    <!-- Generator: Sketch 43.2 (39069) - http://www.bohemiancoding.com/sketch -->
    <title>theicons.co/svg/clothes-24</title>
    <desc>Created with Sketch.</desc>
    <defs></defs>
    <g id="The-Icons" stroke="none" stroke-width="1" fill="none" fill-rule="evenodd">
        <path d="M29.0852927,21.0024465 C28.7323687,19.286954 28.2771032,17.2421489 27.9549102,16.2556641 C26.6024761,12.1148055 24.9469987,10 23.6732007,10 C22.3994026,10 20.7439253,12.1148055 19.3914912,16.2556641 C19.0692852,17.2421887 18.6139959,19.287119 18.2610659,21.0026541 C19.9577099,21.0026078 27.3867084,21.0024594 29.0852927,21.0024465 Z M21.6732007,25 L5.6454178,25 C4.90611082,25 3.82971525,25.116921 4.02278577,23.4000244 C4.02278577,23.4000244 5.75230515,7.32513843 21.6732007,6.07667844 C21.6732007,4.89449617 22.5609303,4 23.6732007,4 C24.7777702,4 25.6732007,4.89826062 25.6732007,5.99791312 C41.5940962,7.32513843 43.323616,23.4000244 43.3236156,23.4000244 C43.5384948,25.1148189 42.6292572,25 41.7141293,25 L25.6732007,25 L25.6732007,37.9110942 C25.6732007,41.2633639 22.9965764,44 19.6732007,44 C16.3520558,44 13.6732007,41.2591004 13.6732007,37.9041798 L13.6732007,36.5777477 C13.6732007,35.4731782 14.5686312,34.5777477 15.6732007,34.5777477 C16.7777702,34.5777477 17.6732007,35.4731782 17.6732007,36.5777477 L17.6732007,37.9041798 C17.6732007,39.0702004 18.5819529,40 19.6732007,40 C20.7673431,40 21.6732007,39.0738324 21.6732007,37.9110942 L21.6732007,25 Z M38.6475659,21.0029449 C38.6475659,21.0029449 37.4762266,18.313008 36.7306679,17.064025 C35.1216727,14.3685861 33.0000954,12.3595608 30.1947643,11.1866617 C31.8296861,14.3667226 32.7523387,18.3272384 33.230422,21.0024504 C36.4423365,21.0024897 38.6475659,21.0029449 38.6475659,21.0029449 Z M17.151637,11.1866617 C14.346306,12.3595608 12.2247286,14.3685861 10.6157334,17.064025 C9.64313855,18.6933462 8.80447013,21.0029453 8.80447013,21.0029453 C8.80447013,21.0029453 11.1210839,21.0028689 14.1159212,21.0027756 C14.5939879,18.3275594 15.516649,14.3668515 17.151637,11.1866617 Z" id="Rectangle-796" fill="#000000"></path>
    </g>
</svg>