<?xml version="1.0" encoding="UTF-8"?>
<svg width="48px" height="48px" viewBox="0 0 48 48" version="1.1" xmlns="http://www.w3.org/2000/svg" xmlns:xlink="http://www.w3.org/1999/xlink">
    <!-- Generator: Sketch 43.2 (39069) - http://www.bohemiancoding.com/sketch -->
    <title>theicons.co/svg/clothes-27</title>
    <desc>Created with Sketch.</desc>
    <defs></defs>
    <g id="The-Icons" stroke="none" stroke-width="1" fill="none" fill-rule="evenodd">
        <path d="M14.4814868,9.30158275 C13.8013626,8.50810446 13.8468085,7.32476437 14.5857864,6.58578644 L18.5857864,2.58578644 C18.9608592,2.21071368 19.469567,2 20,2 L28,2 C28.530433,2 29.0391408,2.21071368 29.4142136,2.58578644 L33.4142136,6.58578644 C34.1531915,7.32476437 34.1986374,8.50810446 33.5185132,9.30158275 L31.5149971,11.6390182 C37.703532,14.4862509 42,20.7413785 42,28 C42,37.9411255 33.9411255,46 24,46 C14.0588745,46 6,37.9411255 6,28 C6,20.7413785 10.296468,14.4862509 16.4850029,11.6390182 L14.4814868,9.30158275 Z M10,28 C10,35.7319865 16.2680135,42 24,42 C31.7319865,42 38,35.7319865 38,28 C38,21.9449342 34.1559814,16.7876871 28.7751694,14.8354838 L27.5185132,16.3015827 C27.4660456,16.362795 27.4102461,16.4204194 27.3514982,16.4742796 C32.3478966,17.9246529 36,22.5358292 36,28 C36,34.627417 30.627417,40 24,40 C17.372583,40 12,34.627417 12,28 C12,22.5358292 15.6521034,17.9246529 20.6485018,16.4742796 C20.5897539,16.4204194 20.5339544,16.362795 20.4814868,16.3015827 L19.2248306,14.8354838 C13.8440186,16.7876871 10,21.9449342 10,28 Z M16,28 C16,32.418278 19.581722,36 24,36 C28.418278,36 32,32.418278 32,28 C32,23.581722 28.418278,20 24,20 C19.581722,20 16,23.581722 16,28 Z M24.4814868,13.6984173 L29.293792,8 L27.1742965,6.00115054 L20.8163132,6.01000977 L18.7150512,8 L23.5185132,13.6984173 L24.4814868,13.6984173 Z" id="Combined-Shape" fill="#000000"></path>
    </g>
</svg>