<?xml version="1.0" encoding="UTF-8"?>
<svg width="48px" height="48px" viewBox="0 0 48 48" version="1.1" xmlns="http://www.w3.org/2000/svg" xmlns:xlink="http://www.w3.org/1999/xlink">
    <!-- Generator: Sketch 43.2 (39069) - http://www.bohemiancoding.com/sketch -->
    <title>theicons.co/svg/clothes-11</title>
    <desc>Created with Sketch.</desc>
    <defs></defs>
    <g id="The-Icons" stroke="none" stroke-width="1" fill="none" fill-rule="evenodd">
        <path d="M25.2796897,17.7876529 C25.2358556,17.6782471 24.4706188,15.6252793 24.3711048,15.1817661 C23.9831211,13.4526027 24.2597131,11.8470021 25.3591534,10.2401349 C26.9641626,7.89436225 28.6447668,7.45899258 31.8632127,7.61353701 C32.0261544,7.62135719 32.0955227,7.62460546 32.1830714,7.62839926 C34.3268215,7.72129562 34.9337869,7.42504498 35.7939182,5.26163017 C36.2020031,4.23520897 37.3649001,3.73394837 38.3913213,4.14203329 C39.4177425,4.55011821 39.9190031,5.71301518 39.5109182,6.73943638 C37.9394072,10.692124 35.7011112,11.7846023 32.0098996,11.6246489 C31.9140899,11.6204972 31.8375241,11.6169119 31.6713604,11.6089334 C29.7134726,11.5149189 29.2517809,11.6345227 28.6603779,12.4988772 C28.2039973,13.165892 28.1233221,13.6342069 28.2740643,14.3060335 C28.373092,14.7473799 28.4055305,14.8343285 28.9927568,16.2999928 C30.0894138,19.0371508 30.4375463,21.2398737 29.7180292,23.8567452 L32.0127227,25.0502486 L32.1468069,24.6818554 C32.5245192,23.6440995 33.6649085,23.1064534 34.7101007,23.4868723 C35.7480565,23.8646573 36.2859659,25.0048271 35.9055774,26.049936 L35.5918777,26.9118188 L42.1804626,30.3386372 C45.192627,31.6955893 46,35.0855116 46,36.1773524 L46,38.1853358 C47.1046982,38.1860793 48,39.0735311 48,40.1853354 C48,41.2899049 47.1050616,42.1853354 45.9986107,42.1853354 L2.20238337,42.1853354 L2,42.1945403 C0.895301779,42.1845915 0,41.2971397 0,40.1853354 C0,39.0812282 0.89418941,38.186085 2,38.1853359 L2,24.1845654 C2,21.9758516 3.79722667,20.1853354 6.00779351,20.1853354 L7.60351562,20.1853354 C8.35644531,20.1853354 10,20.5796388 10,22.1794767 C10,23.2882753 10.9650879,24.1853354 13,24.1853354 C15.0349121,24.1853354 16,23.2872819 16,22.1794767 C16,21.9809804 16.2272715,20.1853354 18.440918,20.1853354 L21.6595105,20.1853354 C22.2077518,20.1853354 23.0574293,20.3924708 23.548695,20.6479852 L26.0330824,21.940151 C26.2108747,20.616893 25.9284835,19.4069844 25.2796897,17.7876529 Z M8.4365109,29.8909986 C11.5108102,31.1739515 13.5226383,33.9260816 14.0259525,38.1853354 L42,38.1853354 L42,36.1773524 C42,35.6335374 41.3594521,34.3559279 40.5375158,33.9856532 L34.2135118,30.6988478 L33.8531931,31.6888153 C33.4754808,32.7265713 32.3350915,33.2642174 31.2898993,32.8837985 C30.2519435,32.5060135 29.7140341,31.3658437 30.0944226,30.3207348 L30.6339411,28.83842 L28.2497535,27.5992745 L27.8525764,28.6905098 C27.4752047,29.72733 26.3350915,30.2642174 25.2898993,29.8837985 C24.2519435,29.5060135 23.7201243,28.349111 24.0938059,27.3224293 L24.6701828,25.7388467 L21.6863023,24.1880199 C21.6863023,24.1880199 20.6595866,24.1853354 19.65979,24.1853354 C19.3220825,25.9095786 16.8920874,28.1853354 13,28.1853354 C9.86925634,28.1853354 7.24621229,26.7134557 6.33955632,24.1961625 C6.10894775,24.1845653 6.553989,24.1853354 6,24.1845654 L6,29.2256835 C6.80559885,29.3395176 7.62539247,29.5525063 8.4365109,29.8909986 Z M6,38.1853354 L9.99845829,38.1853354 C9.61273936,35.6511539 8.50846248,34.2553574 6.89600863,33.5824554 C6.65298748,33.4810389 6.33859425,33.4053552 6,33.3489361 L6,38.1853354 Z" id="Rectangle-371" fill="#000000"></path>
    </g>
</svg>