<?xml version="1.0" encoding="UTF-8"?>
<svg width="48px" height="48px" viewBox="0 0 48 48" version="1.1" xmlns="http://www.w3.org/2000/svg" xmlns:xlink="http://www.w3.org/1999/xlink">
    <!-- Generator: Sketch 43.2 (39069) - http://www.bohemiancoding.com/sketch -->
    <title>theicons.co/svg/clothes-15</title>
    <desc>Created with Sketch.</desc>
    <defs></defs>
    <g id="The-Icons" stroke="none" stroke-width="1" fill="none" fill-rule="evenodd">
        <path d="M20,24 L20,27.9941413 C20,29.1019465 19.1122704,30 18,30 C16.8954305,30 16,29.1029399 16,27.9941413 L16,24 L12.0008954,24 L12.002686,39.9981154 L36,39.9868164 L36,24 L32,24 L32,27.9941413 C32,29.1019465 31.1122704,30 30,30 C28.8954305,30 28,29.1029399 28,27.9941413 L28,24 L20,24 Z M28,18.0058587 C28,16.8980535 28.8877296,16 30,16 C31.1045695,16 32,16.8970601 32,18.0058587 L32,20 L36,20 L36,16.0007413 C36,13.7910553 34.2110235,12 32.0075946,12 L15.9924054,12 C13.7880132,12 12,13.7899803 12,16.0007413 L12.0004476,20 L16,20 L16,18.0058587 C16,16.8980535 16.8877296,16 18,16 C19.1045695,16 20,16.8970601 20,18.0058587 L20,20 L28,20 L28,18.0058587 Z M16,6 C16,2.68877618 18.6894664,0 21.9958262,0 L26.0041738,0 C29.3148431,0 32,2.69004815 32,6 L32,8 C36.4216782,8 40,11.5834312 40,16.0007413 L40,28.0000011 C42.9726373,28.002287 46.0004883,31.5831325 46.0004883,36 L46.0004883,42.0018986 C46.0004883,43.1132936 45.1058532,44 44.002265,44 L3.99822331,44 C2.89463505,44 2,43.1132936 2,42.0018986 L2,36 C2,31.5833744 5.02751941,28.0026791 8,28.0000015 L8,16.0007413 C8,11.5820539 11.5776607,8 15.9924054,8 L16,6 Z M28,8 L28,6 C28,4.89755916 27.1040728,4 26.0041738,4 L21.9958262,4 C20.8983756,4 20,4.89814503 20,6 L20,8 L28,8 Z M42.0004883,40.0168457 L42.0004883,36 C42.0004883,34.7807947 41.6018338,33.6263311 40.9598105,32.8031677 C40.5187304,32.2376414 40.1175756,32.0038298 40,32.0000467 L40,40.0084218 L42.0004883,40.0168457 Z M8,32.0000637 C7.88180568,32.0044756 7.48114936,32.2384217 7.0406778,32.8031677 C6.3986545,33.6263311 6,34.7807947 6,36 L6,40.0168457 L8,40.0084239 L8,32.0000637 Z" id="Rectangle-707" fill="#000000"></path>
    </g>
</svg>