<?xml version="1.0" encoding="UTF-8"?>
<svg width="48px" height="48px" viewBox="0 0 48 48" version="1.1" xmlns="http://www.w3.org/2000/svg" xmlns:xlink="http://www.w3.org/1999/xlink">
    <!-- Generator: Sketch 43.2 (39069) - http://www.bohemiancoding.com/sketch -->
    <title>theicons.co/svg/clothes-17</title>
    <desc>Created with Sketch.</desc>
    <defs></defs>
    <g id="The-Icons" stroke="none" stroke-width="1" fill="none" fill-rule="evenodd">
        <path d="M14,6.0085302 C14,4.8992496 14.8982124,4 15.9907951,4 L32.0092049,4 C33.1086907,4 34,4.90195036 34,6.0085302 L34,12 L42.0027084,12 C43.1057821,12 44,12.8982124 44,13.9907951 L44,30.0092049 C44,31.1067535 43.1060981,31.9968586 42,31.9999917 L42,42.0059397 C42,43.1072288 41.1101074,44 40.0002927,44 L7.99970728,44 C6.89529944,44 6,43.1054862 6,42.0059397 L6,32 C4.89524884,32 4,31.1017876 4,30.0092049 L4,13.9907951 C4,12.8913093 4.89153983,12 5.99729162,12 L14,12 L14,6.0085302 Z M18,12 L30,12 L30,8 L18,8 L18,12 Z M10,40 L38,40 L38,32 L30,32 L30,33.9914698 C30,35.1007504 29.0980496,36 27.9914698,36 L20.0085302,36 C18.8992496,36 18,35.0980496 18,33.9914698 L18,32 L10,32 L10,40 Z M30,28 L40,28 L40,16 L8,16 L8,28 L18,28 L18,26.0085302 C18,24.8992496 18.9019504,24 20.0085302,24 L27.9914698,24 C29.1007504,24 30,24.9019504 30,26.0085302 L30,28 Z M22,28 L22,32 L26,32 L26,28 L22,28 Z" id="Combined-Shape" fill="#000000"></path>
    </g>
</svg>