<?xml version="1.0" encoding="UTF-8"?>
<svg width="48px" height="48px" viewBox="0 0 48 48" version="1.1" xmlns="http://www.w3.org/2000/svg" xmlns:xlink="http://www.w3.org/1999/xlink">
    <!-- Generator: Sketch 43.2 (39069) - http://www.bohemiancoding.com/sketch -->
    <title>theicons.co/svg/clothes-02</title>
    <desc>Created with Sketch.</desc>
    <defs></defs>
    <g id="The-Icons" stroke="none" stroke-width="1" fill="none" fill-rule="evenodd">
        <path d="M33.1524857,10.0099418 C33.1524857,10.0099418 32.6874948,9.99999994 32.1961184,10.0003602 C30.9871642,12.3976184 28.7228903,14.1899349 26,14.7910615 L26,19 C27.1045695,19 28,19.8954305 28,21 C28,22.1045695 27.1045695,23 26,23 L26,29 C27.1045695,29 28,29.8954305 28,31 C28,32.1045695 27.1045695,33 26,33 L26,38.0099418 L33.9400448,38.0099418 L33.2082722,24.3247594 C32.8443028,19.6649595 33.1958072,15.7611576 34.0206504,12.6095293 C34.1851374,11.981044 34.3529426,11.4378933 34.5142938,10.9796988 C33.8308044,10.3788366 33.3208278,9.99356859 33.1524857,10.0099418 Z M37.092256,19.3402925 C37.8493785,19.2148065 38.6630126,19.2688877 39.4813227,19.542636 L40.3310272,19.8312016 L40.9077186,17.2857296 C40.9077186,17.2857296 39.4381486,15.7504739 37.77353,14.0903747 C37.4101029,15.6202961 37.1700859,17.3690893 37.092256,19.3402925 Z M14.0013412,12.6692858 C14.8054266,15.9978267 15.1305666,20.1428169 14.719618,25.1053627 L14.0133075,38.0099418 L22,38.0099418 L22,14.7985111 C19.2618054,14.2048258 16.9835954,12.4074244 15.7696511,10 C15.2766548,9.99999994 14.8134655,10.0099418 14.8134655,10.0099418 C14.6633671,10.0099418 14.1807749,10.387336 13.5247615,10.9703901 C13.6799588,11.4443217 13.8422069,12.0105438 14.0013412,12.6692858 Z M7.07133662,17.3000118 L7.64859296,19.8115152 L8.49231299,19.534326 C9.30284157,19.2680413 10.1118738,19.2165192 10.8665352,19.341947 C10.7877401,17.3892011 10.5641297,15.6474774 10.2294537,14.1144918 C8.5561869,15.7716297 7.07133662,17.3000118 7.07133662,17.3000118 Z M10.7143412,23.9947712 C10.7437725,23.4453742 10.3284305,23.1442916 9.79995819,23.3179118 L6.59292087,24.3715267 C5.52574407,24.7221286 4.46173145,24.1263828 4.21891664,23.0521044 L3.06666774,17.9542433 C2.82271821,16.8749445 3.26938057,15.3668688 4.06167809,14.5884537 L11.3665795,7.41154632 C12.1600581,6.63197081 13.7088401,6 14.8299651,6 L17.9016811,6 C18.4587284,6 19.0163994,6.42629719 19.187887,6.96405029 C19.187887,6.96405029 19.8739506,11 23.9994753,11 C28.125,11 28.8152404,6.95223077 28.8152404,6.95223077 C28.9662382,6.42632824 29.5409039,6 30.0972695,6 L33.1689854,6 C34.2882819,6 35.8400735,6.63313117 36.632371,7.41154632 L43.9372725,14.5884537 C44.7307511,15.3680292 45.1788041,16.8670779 44.9322828,17.9621895 L43.7800339,23.0807792 C43.5360844,24.1644666 42.4762922,24.7545942 41.4060297,24.3965607 L38.1855388,23.3192139 C37.6585379,23.1429169 37.2554755,23.4509254 37.2846094,23.9947712 L38.1421511,40.0025781 C38.2012469,41.1057238 37.333207,42 36.222397,42 L11.7765536,42 C10.6572069,42 9.79752419,41.1090746 9.85679945,40.0025781 L10.7143412,23.9947712 Z" id="Rectangle-688-Copy-2" fill="#000000"></path>
    </g>
</svg>