<?xml version="1.0" encoding="UTF-8"?>
<svg width="48px" height="48px" viewBox="0 0 48 48" version="1.1" xmlns="http://www.w3.org/2000/svg" xmlns:xlink="http://www.w3.org/1999/xlink">
    <!-- Generator: Sketch 43.2 (39069) - http://www.bohemiancoding.com/sketch -->
    <title>theicons.co/svg/clothes-30</title>
    <desc>Created with Sketch.</desc>
    <defs></defs>
    <g id="The-Icons" stroke="none" stroke-width="1" fill="none" fill-rule="evenodd">
        <path d="M22,16 L26,16 L26,14 C26,12.8954305 26.8954305,12 28,12 C31.0443246,12 33.2169709,11.2246431 34.7262579,9.96467375 C35.2271254,9.54654408 35.6134459,9.10605498 35.898668,8.67593798 C35.9372377,8.61777462 35.9709505,8.56472231 36,8.51740006 L36,5.99810135 C36,4.89458045 36.8877296,4 38,4 C39.1045695,4 40,4.88670635 40,5.99810135 L40,10.5 L40,16.9924559 C40,18.892617 39.2469114,20.6143954 38.0230841,21.8757574 C38.0796709,22.8420376 38.2442623,23.6157289 38.56022,24.6435503 C38.6120118,24.812031 38.8474061,25.5555276 38.9116387,25.7643855 C39.6588163,28.1938984 40,30.3908932 40,34 C40,35.1045695 39.1045695,36 38,36 C35.1303193,36 32.8397544,37.2217341 31.0059551,39.3171393 C30.3447017,40.0727257 29.7936626,40.8888216 29.3524899,41.702912 C29.0940804,42.1797519 28.9356384,42.5344368 28.8724704,42.7027478 C28.5796026,43.4830937 27.8334933,44 27,44 L21,44 C20.1636436,44 19.4156044,43.4795886 19.1247953,42.6954189 C19.0626496,42.5278424 18.9060085,42.1739108 18.6497906,41.6978535 C18.2122321,40.884862 17.6644585,40.0698376 17.0057493,39.3152374 C15.1779215,37.2213254 12.885402,36 10,36 C8.8954305,36 8,35.1045695 8,34 C8,30.3764013 8.34218169,28.1885331 9.09360862,25.7770992 C9.15795349,25.5706076 9.38763945,24.8543621 9.43632255,24.698362 C9.76178412,23.6554527 9.92878108,22.8767614 9.98443693,21.8834972 C8.75617472,20.6214432 8,18.8965064 8,16.9924559 L8,10.5 L8,5.99810135 C8,4.89458045 8.88772964,4 10,4 C11.1045695,4 12,4.88670635 12,5.99810135 L12,8.51740006 C12.0290495,8.56472231 12.0627623,8.61777462 12.101332,8.67593798 C12.3865541,9.10605498 12.7728746,9.54654408 13.2737421,9.96467375 C14.7830291,11.2246431 16.9556754,12 20,12 C21.1045695,12 22,12.8954305 22,14 L22,16 Z M21.3258258,20 C20.2014513,22.3644343 17.7895085,24 15,24 C14.5789905,24 14.166714,23.9628976 13.7662555,23.8917744 C13.6454992,24.5373833 13.4767604,25.1784264 13.2547087,25.889969 C13.1997227,26.0661662 12.9703788,26.7813448 12.9124949,26.9671024 C12.4122983,28.5723031 12.1328234,30.0250661 12.0375823,32.1501187 C15.2523778,32.6353276 17.9123219,34.2712315 20.019153,36.6847626 C20.8880623,37.6801624 21.6004663,38.740138 22.1720477,39.8021465 C22.2082967,39.8694977 22.2432676,39.9354715 22.276973,40 L25.7273712,40 C25.7621374,39.9338655 25.7982415,39.8662036 25.8356967,39.797088 C26.4106259,38.7361784 27.1256123,37.6772743 27.995876,36.6828607 C30.1054455,34.2723445 32.7604987,32.6375647 35.9622884,32.1511527 C35.8669168,30.0281763 35.587502,28.5632037 35.0883613,26.9402044 C35.0306267,26.7524752 34.7951318,26.0086607 34.7367956,25.8188911 C34.5258225,25.1325882 34.363775,24.5115413 34.246088,23.8895707 C33.8417596,23.962131 33.4253364,24 33,24 C30.2104915,24 27.7985487,22.3644343 26.6741742,20 L21.3258258,20 Z M30,15.9012412 L30,17.0016655 C30,18.6551646 31.3463278,20 33,20 C34.6590989,20 36,18.6584047 36,16.9924559 L36,13.9665025 C34.3603708,14.9851873 32.3644617,15.6600453 30,15.9012412 Z M12,16.9924559 C12,18.6584047 13.3409011,20 15,20 C16.6536722,20 18,18.6551646 18,17.0016655 L18,15.9012412 C15.6355383,15.6600453 13.6396292,14.9851873 12,13.9665025 L12,16.9924559 Z M24,32 C22.8954305,32 22,31.1045695 22,30 C22,28.8954305 22.8954305,28 24,28 C25.1045695,28 26,28.8954305 26,30 C26,31.1045695 25.1045695,32 24,32 Z M24,26 C22.8954305,26 22,25.1045695 22,24 C22,22.8954305 22.8954305,22 24,22 C25.1045695,22 26,22.8954305 26,24 C26,25.1045695 25.1045695,26 24,26 Z" id="Combined-Shape" fill="#000000"></path>
    </g>
</svg>