<?xml version="1.0" encoding="UTF-8"?>
<svg width="48px" height="48px" viewBox="0 0 48 48" version="1.1" xmlns="http://www.w3.org/2000/svg" xmlns:xlink="http://www.w3.org/1999/xlink">
    <!-- Generator: Sketch 43.2 (39069) - http://www.bohemiancoding.com/sketch -->
    <title>theicons.co/svg/clothes-08</title>
    <desc>Created with Sketch.</desc>
    <defs></defs>
    <g id="The-Icons" stroke="none" stroke-width="1" fill="none" fill-rule="evenodd">
        <path d="M31.8108519,30.6142084 C29.1918123,28.1062152 27.9037049,24.5552415 28.5432651,20 L19.4567349,20 C20.0962951,24.5552415 18.8081877,28.1062152 16.1891481,30.6142084 C15.9345,30.8580595 15.6738704,31.0849693 15.4091178,31.295661 C16.6140157,32.5915868 17.5763012,34.1592564 18.2367927,36.0108541 C18.9183348,36.0108538 29.4630135,36.0108538 29.7696402,36.0071226 C30.4345554,34.1597567 31.3958814,32.5946226 32.5957392,31.2995241 C32.3293171,31.0877436 32.0670571,30.8595506 31.8108519,30.6142084 Z M37.8993897,27.803393 C38.6857363,27.5208013 39.321291,27.3692103 39.6897727,27.3152718 C39.8438437,27.2887987 40,27.111359 40,27.0177737 C40,27.0177737 40.0007522,23.5837999 40.0014737,20 L32.5913264,20 C31.9415046,23.555069 32.7849478,26.0087746 34.5773692,27.7251979 C34.9944169,28.1245629 35.4387332,28.4550304 35.8836845,28.7197797 C36.5469841,28.3497838 37.2227281,28.0465668 37.8993897,27.803393 Z M13.4226308,27.7251979 C15.2150522,26.0087746 16.0584954,23.555069 15.4086736,20 L8,20 L8,27.0177737 C8,27.1299864 8.14808627,27.3027936 8.23837626,27.3160039 C8.65176195,27.3761209 9.28605542,27.5252392 10.0712021,27.8036917 C10.7562496,28.046644 11.4404311,28.3505716 12.1118033,28.7224622 C12.5582626,28.4572638 13.0041734,28.1259128 13.4226308,27.7251979 Z M40.0027084,12 C40.0027084,12 8,11.9962782 8,11.9920435 L8,16 L40.0022454,16 C40.0026582,13.7221061 40.0029053,12 40.0027084,12 Z M4,11.9920435 C4,9.78561158 5.78865765,8 7.99729162,8 L40.0027084,8 C42.2095199,8 44,9.7846625 44,11.9920435 L44,27.0177737 C44,29.0961813 42.4062698,30.9071299 40.3210283,31.2648712 C40.1545545,31.2894887 39.7732375,31.3804396 39.2521776,31.5676944 C38.3530747,31.8908076 37.4506885,32.367782 36.6122808,33.0237239 C35.0000444,34.2850832 33.8066155,36.0581556 33.1885237,38.4922413 L33.0502996,39.0365768 C32.9143462,39.5719699 32.3606271,40 31.8116564,40 L16.1859744,40 C15.6312592,40 15.0795581,39.5663957 14.9460575,39.0315177 L14.809483,38.4843238 C14.2002127,36.0432465 13.0018512,34.2699711 11.374156,33.0116018 C10.5361746,32.3637594 9.6336754,31.8926279 8.73419371,31.5736265 C8.21240904,31.3885754 7.83020032,31.2987206 7.6610321,31.2741184 C5.59728105,30.9721897 4,29.1082647 4,27.0177737 L4,11.9920435 Z" id="Combined-Shape" fill="#000000"></path>
    </g>
</svg>