<?xml version="1.0" encoding="UTF-8"?>
<svg width="48px" height="48px" viewBox="0 0 48 48" version="1.1" xmlns="http://www.w3.org/2000/svg" xmlns:xlink="http://www.w3.org/1999/xlink">
    <!-- Generator: Sketch 43.2 (39069) - http://www.bohemiancoding.com/sketch -->
    <title>theicons.co/svg/clothes-23</title>
    <desc>Created with Sketch.</desc>
    <defs></defs>
    <g id="The-Icons" stroke="none" stroke-width="1" fill="none" fill-rule="evenodd">
        <path d="M21.560963,16.9739377 L26.4322823,16.9739377 L27.428744,12.9880909 L20.5756833,12.9739377 L21.560963,16.9739377 Z M31.9078977,38.9856564 C31.9553596,39.5314691 31.6293036,40.2473363 31.1975171,40.5711762 L25.5935271,44.7741687 C24.7100417,45.4367828 23.2838885,45.4414777 22.3941432,44.7741687 L16.7901532,40.5711762 C16.3503589,40.2413305 16.0320019,39.5350199 16.0797727,38.9856564 L17.8489183,18.6404815 L16.4304188,12.9664837 C15.4296321,12.9355937 14.6037089,12.8760601 13.6764635,12.7671698 C8.17419874,12.1210161 4.54511211,9.90458464 4.01299532,5.22620461 C3.88816693,4.12871126 4.67666767,3.13782371 5.77416102,3.01299532 C6.87165437,2.88816693 7.86254192,3.67666767 7.98737031,4.77416102 C8.25296473,7.10927174 10.2669391,8.33928815 14.1429942,8.79446934 C14.9978209,8.89485517 15.7735176,8.94783726 16.7650178,8.9739377 L31.2612268,8.9739377 C32.252727,8.94783726 33.0284236,8.89485517 33.8832504,8.79446934 C37.7593055,8.33928815 39.7732798,7.10927174 40.0388742,4.77416102 C40.1637026,3.67666767 41.1545902,2.88816693 42.2520835,3.01299532 C43.3495769,3.13782371 44.1380776,4.12871126 44.0132492,5.22620461 C43.4811324,9.90458464 39.8520458,12.1210161 34.349781,12.7671698 C33.4105584,12.8774666 32.5752923,12.9371235 31.5569558,12.9676664 L30.138752,18.6404815 L31.9078977,38.9856564 Z M21.6603106,20.983056 L20.1794237,38.1123285 L24.0008986,40.975342 L27.8197312,38.1429172 L26.3298018,20.9739377 L21.6603106,20.983056 Z" id="Shape" fill="#000000" fill-rule="nonzero"></path>
    </g>
</svg>