<?xml version="1.0" encoding="UTF-8"?>
<svg width="48px" height="48px" viewBox="0 0 48 48" version="1.1" xmlns="http://www.w3.org/2000/svg" xmlns:xlink="http://www.w3.org/1999/xlink">
    <!-- Generator: Sketch 43.2 (39069) - http://www.bohemiancoding.com/sketch -->
    <title>theicons.co/svg/clothes-29</title>
    <desc>Created with Sketch.</desc>
    <defs></defs>
    <g id="The-Icons" stroke="none" stroke-width="1" fill="none" fill-rule="evenodd">
        <path d="M24,42 C11.9914571,42 2,37.0042715 2,30 L2,18 C2,10.9957285 11.9914571,6 24,6 C36.0085429,6 46,10.9957285 46,18 L46,30 C46,37.0042715 36.0085429,42 24,42 Z M42,25.0356403 C39.939951,26.6189079 37.1894417,27.8866676 34,28.7446973 L34,36.5740137 C38.8528485,35.063176 42,32.5480543 42,30 L42,25.0356403 Z M24,18 C30.1192373,18 35.8345212,19.3166921 39.909423,21.6020241 C41.2468957,20.4850339 42,19.2464573 42,18 C42,13.9585765 34.0828471,10 24,10 C13.9171529,10 6,13.9585765 6,18 C6,19.2464679 6.75311706,20.4850549 8.09061112,21.6020525 C12.1680989,19.3152738 17.8838102,18 24,18 Z M24,26 C28.4731907,26 32.5201303,25.2208743 35.638614,24.0010431 C32.432775,22.7378745 28.3525957,22 24,22 C19.6507807,22 15.5709786,22.7363089 12.3616683,24.0011535 C15.4801139,25.2209213 19.5269442,26 24,26 Z M14,28.7446973 C10.8105583,27.8866676 8.06004899,26.6189079 6,25.0356403 L6,30 C6,32.5480543 9.1471515,35.063176 14,36.5740137 L14,28.7446973 Z M18,37.5142461 C19.8696393,37.8261967 21.8872767,38 24,38 C26.1127233,38 28.1303607,37.8261967 30,37.5142461 L30,36 L27.9979131,36 C26.8944962,36 26,35.1122704 26,34 C26,32.8954305 26.8982606,32 27.9979131,32 L30,32 L30,29.5683998 C28.0875407,29.8510046 26.0738497,30 24,30 C21.9261503,30 19.9124593,29.8510046 18,29.5683998 L18,37.5142461 Z" id="Combined-Shape" fill="#000000"></path>
    </g>
</svg>