<?xml version="1.0" encoding="UTF-8"?>
<svg width="48px" height="48px" viewBox="0 0 48 48" version="1.1" xmlns="http://www.w3.org/2000/svg" xmlns:xlink="http://www.w3.org/1999/xlink">
    <!-- Generator: Sketch 43.2 (39069) - http://www.bohemiancoding.com/sketch -->
    <title>theicons.co/svg/clothes-07</title>
    <desc>Created with Sketch.</desc>
    <defs></defs>
    <g id="The-Icons" stroke="none" stroke-width="1" fill="none" fill-rule="evenodd">
        <path d="M36,38.0114746 L36,26.9814806 C36,25.0101684 36.017705,24.5036793 36.017705,24.5036793 C36.017705,24.5036793 35.1191396,23.7211222 34.9732122,23.5930441 C34.4876535,23.1668771 34.125735,22.8013244 33.7813881,22.3281465 C32.5712749,20.665292 32,18.0993435 32,15.9552865 C32,15.9552865 32.0145231,14.5740966 32.0145225,13.9033138 C30.7120636,17.5425793 28.1105307,20.0231131 23.97757,19.9999371 C19.8949846,19.9770436 17.3126508,17.5270465 16.0071065,13.9412624 C16.0071064,14.5838012 16,16.0308246 16,16.0308246 C16,18.1033554 15.4325872,20.6479764 14.2921809,22.2726111 C13.933939,22.7829664 13.557223,23.1628344 13.0395915,23.6120473 C12.8986427,23.734366 12.0005079,24.4895017 12.0005079,24.4895017 L12.0145264,38 L26.0000052,38.0066906 L26,35.9979131 C26,34.8944962 26.8982606,34 27.9979131,34 L30,34 L30,31.999615 C30,30.8952581 30.8877296,30 32,30 C33.1045695,30 34,30.8874333 34,31.999615 L34,38.000385 L36,38.0114746 Z M18.0011816,6 C18.5528138,6 18.9891304,6.45432585 18.9914893,6.99255895 C18.9914893,6.99255895 18.5030518,15.9691753 24,16 C29.4969482,16.0308247 29.0088153,6.9798385 29.0088153,6.9798385 C29.0039467,6.43868864 29.4432777,6 29.9988184,6 L33.9950534,6 C35.1023548,6 36,6.89868402 36,8.00125647 L36,15.9552865 C36,17.0605499 36.3129883,19.0089722 37.015625,19.9744873 C37.7182617,20.9400024 40,22.0081787 40,24 L40,40.0049107 C40,41.1067681 39.1001025,42 38.0087557,42 L9.99124431,42 C8.89151044,42 8,41.10452 8,39.9985245 L8,24 C8,22.0043945 10.3600464,20.9121704 11.0182495,19.9744873 C11.6764526,19.0368042 12,17.126725 12,16.0308246 L12,8.0001813 C12,6.89551167 12.8970262,6 14.0049466,6 L18.0011816,6 Z M16,36 C14.8954305,36 14,35.1045695 14,34 C14,32.8954305 14.8954305,32 16,32 C17.1045695,32 18,32.8954305 18,34 C18,35.1045695 17.1045695,36 16,36 Z" id="Rectangle-700-Copy-2" fill="#000000"></path>
    </g>
</svg>