<?xml version="1.0" encoding="UTF-8"?>
<svg width="48px" height="48px" viewBox="0 0 48 48" version="1.1" xmlns="http://www.w3.org/2000/svg" xmlns:xlink="http://www.w3.org/1999/xlink">
    <!-- Generator: Sketch 43.2 (39069) - http://www.bohemiancoding.com/sketch -->
    <title>theicons.co/svg/clothes-09</title>
    <desc>Created with Sketch.</desc>
    <defs></defs>
    <g id="The-Icons" stroke="none" stroke-width="1" fill="none" fill-rule="evenodd">
        <path d="M20,12.003139 C21.1045695,12.003139 22,12.8984817 22,14.0029428 L22,16.0027466 L26,16.0027466 L26,14.0029428 C26,12.8984817 26.8954305,12.003139 28,12.003139 C31.9709099,12.003139 34.5526125,10.4375149 36,9.15241708 L36,5.99719577 C36,4.894175 36.8877296,4 38,4 C39.1045695,4 40,4.89576993 40,5.99719577 L40,17.0004625 C40,20.8746611 36.8691896,24.0019619 33,24.0019619 C30.2104915,24.0019619 27.7985487,22.3665566 26.6741742,20.0023542 L21.3258258,20.0023542 C20.2014513,22.3665566 17.7895085,24.0019619 15,24.0019619 C11.1308104,24.0019619 8,20.8746611 8,17.0004625 L8,5.99719577 C8,4.894175 8.88772964,4 10,4 C11.1045695,4 12,4.89576993 12,5.99719577 L12,9.15241708 C13.4473875,10.4375149 16.0290901,12.003139 20,12.003139 Z M10.0017433,26.0015695 L37.9982567,26.0015695 C39.103789,26.0015695 40,26.9034314 40,28.0099027 L40,33.9924516 C40,35.1016234 39.1178976,36.1493773 38.0402266,36.3974696 C38.0402266,36.3974696 31.0215874,37.0415953 27.9963267,44 L20.0036733,44 C17.0121298,36.9671788 9.9425436,36.3778675 9.9425436,36.3778675 C8.86970639,36.1696104 8,35.0989229 8,33.9924516 L8,28.0099027 C8,26.9007309 8.88926172,26.0015695 10.0017433,26.0015695 Z M36,16.9446827 L36,13.998921 C33.730957,15.3470683 31.191138,15.6687821 30,15.800131 L30,16.9486005 C30,18.6304438 31.3463278,19.9983324 33,19.9983324 C34.6609666,19.9983324 36,18.6377387 36,16.9446827 Z M12,16.9487046 C12,18.6417605 13.3390334,20.0023542 15,20.0023542 C16.6536722,20.0023542 18,18.6344657 18,16.9526223 L18,15.8041528 C16.808862,15.6728039 14.269043,15.3510901 12,14.0029428 L12,16.9487046 Z M12.0038677,32.6815525 C12.0038677,32.6815525 11.7520983,32.5913595 12.8202779,32.8970678 C14.5497727,33.3920414 16.2771504,34.1667099 17.9050847,35.2930276 C19.6875023,36.5262275 21.2214902,38.0968608 22.426062,40.0172922 C23.06709,40.0003924 24.992382,40.0003924 25.6042462,39.9994264 C26.7972909,38.1280134 28.3036536,36.5895006 30.0472678,35.3716679 C31.6741174,34.2353897 33.400788,33.4484055 35.1298858,32.9400506 C35.4533332,32.8449571 36.0450015,32.6965974 36.0450015,32.6965974 L36.0403217,30.0011771 L12.0052742,30.0011771 L12.0038677,32.6815525 Z" id="Combined-Shape" fill="#000000"></path>
    </g>
</svg>