<?xml version="1.0" encoding="UTF-8"?>
<svg width="48px" height="48px" viewBox="0 0 48 48" version="1.1" xmlns="http://www.w3.org/2000/svg" xmlns:xlink="http://www.w3.org/1999/xlink">
    <!-- Generator: Sketch 43.2 (39069) - http://www.bohemiancoding.com/sketch -->
    <title>theicons.co/svg/clothes-03</title>
    <desc>Created with Sketch.</desc>
    <defs></defs>
    <g id="The-Icons" stroke="none" stroke-width="1" fill="none" fill-rule="evenodd">
        <path d="M9.9633793,34 L9.9633793,27.0085302 C9.9633793,25.8992496 10.8511089,25 11.9633793,25 C13.0679488,25 13.9633793,25.9019504 13.9633793,27.0085302 L13.9676518,38 L33.9633793,38.0196533 L33.9633793,27.0085302 C33.9633793,25.8992496 34.8511089,25 35.9633793,25 C37.0679488,25 37.9633793,25.9019504 37.9633793,27.0085302 L37.9633793,33.9988928 L41.8875282,33.9945733 C41.8875282,33.9945733 41.7477113,27.9468508 41.6375429,26.2445619 C41.4851979,23.8905733 41.2829407,21.9938848 41.0451413,20.8048878 C40.9053374,20.1058684 40.4809655,18.9635983 39.836431,17.5745413 C39.5777374,17.0170225 36.5188009,11.4580598 36.5188009,11.4580598 C36.1330452,10.7887339 34.7575369,10 33.9665404,10 C33.9665404,10 32.9633793,9.99254441 32.0381408,9.97924457 C30.5694228,12.9539236 27.5053444,15 23.9633793,15 C20.4266953,15 17.3664741,12.9600206 15.8951981,9.99254437 C15.0933842,9.99254441 13.9602182,10 13.9602182,10 C13.1765236,10 11.7934885,10.7929638 11.3967597,11.4710555 C11.3967597,11.4710555 8.35456777,16.9901936 8.09646824,17.5453031 C7.45258196,18.9301464 7.02889899,20.0684796 6.89001202,20.7629144 C6.65143308,21.9558091 6.44823806,23.8543389 6.29471066,26.2094508 C6.1834819,27.9157011 5.9991459,34 5.9991459,34 L9.9633793,34 Z M17.9629397,6 C18.5154672,6 19.0669764,6.42629719 19.2347267,6.96405029 C19.2347267,6.96405029 19.9021004,11 23.9633793,11 C28.0246582,11 28.6961202,6.95223077 28.6961202,6.95223077 C28.8437233,6.42632824 29.4073765,6 29.9638189,6 L33.9665404,6 C36.1739336,6 38.8776898,7.54039956 39.9844256,9.4607001 C39.9844256,9.4607001 44.2275675,16.3209409 44.967464,20.0204233 C45.8348768,24.3574876 45.9276078,36.0170339 45.9276078,36.0170339 C45.9473639,37.1121958 45.0766729,38.0002435 43.9652779,38.0005488 L37.9633793,38.0021973 L37.9633793,40.0028185 C37.9633793,41.1058314 37.0634818,42 35.972135,42 L11.9546236,42 C10.8548897,42 9.9633793,41.1017394 9.9633793,40.0020869 L9.9633793,38 L3.96148065,38 C2.85795975,38 1.97758243,37.1021965 2.00043503,35.9982951 C2.00043503,35.9982951 2.09747823,24.3295053 2.96768932,19.9784499 C3.70478757,16.2929586 7.94425134,9.45110852 7.94425134,9.45110852 C9.05938492,7.54511391 11.7574996,6 13.9602182,6 L17.9629397,6 Z M23.9633793,21 C23.9633793,19.8954305 24.8500857,19 25.9614807,19 L29.9652779,19 C31.0687989,19 31.9633793,19.8877296 31.9633793,21 C31.9633793,22.1045695 31.0766729,23 29.9652779,23 L25.9614807,23 C24.8579597,23 23.9633793,22.1122704 23.9633793,21 Z" id="Path" fill="#000000"></path>
    </g>
</svg>