<?xml version="1.0" encoding="UTF-8"?>
<svg width="48px" height="48px" viewBox="0 0 48 48" version="1.1" xmlns="http://www.w3.org/2000/svg" xmlns:xlink="http://www.w3.org/1999/xlink">
    <!-- Generator: Sketch 43.2 (39069) - http://www.bohemiancoding.com/sketch -->
    <title>theicons.co/svg/clothes-16</title>
    <desc>Created with Sketch.</desc>
    <defs></defs>
    <g id="The-Icons" stroke="none" stroke-width="1" fill="none" fill-rule="evenodd">
        <path d="M28,12 L20,12 L20,14.0018986 C20,15.1054196 19.1122704,16 18,16 C16.8954305,16 16,15.1132936 16,14.0018986 L16,12 C13.7880132,12 12,13.7899803 12,16.0007413 L12.0008112,23.2477961 C14.9954572,21.249241 18.9750057,20.0716231 24.0239088,20.0668246 C29.0585359,20.0620397 33.0221863,21.2305352 36,23.222298 L36,16.0007413 C36,13.7910553 34.2110235,12 32.0075946,12 L32,14.0018986 C32,15.1054196 31.1122704,16 30,16 C28.8954305,16 28,15.1132936 28,14.0018986 L28,12 Z M12.002686,39.9981154 L36,39.9868164 L36,28.5911751 C35.9421781,28.513319 35.8776113,28.4306425 35.8060895,28.3437221 C35.3469946,27.785785 34.7383474,27.2154967 33.9617107,26.6738678 C31.6380858,25.0533645 28.3951188,24.062672 24.0277104,24.0668228 C19.663344,24.0709707 16.4097128,25.0620775 14.0675923,26.679213 C13.2807413,27.2225005 12.6627471,27.7946503 12.1954447,28.3545167 C12.1240758,28.4400225 12.0594626,28.5214518 12.00141,28.5982618 L12.002686,39.9981154 Z M16,6 C16,2.68877618 18.6894664,0 21.9958262,0 L26.0041738,0 C29.3148431,0 32,2.69004815 32,6 L32,8 C36.4216782,8 40,11.5834312 40,16.0007413 L40,42.0088084 C40,43.1085132 39.1107383,44 37.9982567,44 L10.0017433,44 C8.89621101,44 8,43.1001263 8,42.0088084 L8,16.0007413 C8,11.5820539 11.5776607,8 15.9924054,8 L16,6 Z M20,8 L28,8 L28,6 C28,4.89755916 27.1040728,4 26.0041738,4 L21.9958262,4 C20.8983756,4 20,4.89814503 20,6 L20,8 Z M18,30.9979131 C18,29.8944962 18.9019504,29 20.0085302,29 L27.9914698,29 C29.1007504,29 30,29.8982606 30,30.9979131 L30,33.0020869 C30,34.1055038 29.0980496,35 27.9914698,35 L20.0085302,35 C18.8992496,35 18,34.1017394 18,33.0020869 L18,30.9979131 Z" id="Rectangle-707" fill="#000000"></path>
    </g>
</svg>