<?xml version="1.0" encoding="UTF-8"?>
<svg width="48px" height="48px" viewBox="0 0 48 48" version="1.1" xmlns="http://www.w3.org/2000/svg" xmlns:xlink="http://www.w3.org/1999/xlink">
    <!-- Generator: Sketch 43.2 (39069) - http://www.bohemiancoding.com/sketch -->
    <title>theicons.co/svg/clothes-22</title>
    <desc>Created with Sketch.</desc>
    <defs></defs>
    <g id="The-Icons" stroke="none" stroke-width="1" fill="none" fill-rule="evenodd">
        <path d="M35.7327903,8.99519713 L45.7278437,26.3071375 C45.9420394,26.6781352 46.0254752,27.0883923 45.9914895,27.484206 C45.9959777,27.5392282 45.9982662,27.5949105 45.9982662,27.6511673 C45.9982662,28.7557368 45.1115599,29.6511673 44.0001649,29.6511673 L41.9982662,29.6511673 L41.9982662,32.6511673 C41.9982662,36.5171605 38.8562716,39.6511673 35.0037092,39.6511673 L32.9928232,39.6511673 C29.4692909,39.6511673 26.5542792,37.0372091 26.0691815,33.6500125 C26.046277,33.6507803 21.9963676,33.6511673 21.9963676,33.6511673 C21.4415761,37.042867 18.5183303,39.6511673 15.0037092,39.6511673 L12.9928232,39.6511673 C9.12983605,39.6511673 5.99826621,36.509294 5.99826621,32.6511673 L5.99826621,29.6511673 L4.45228577,29.6511673 C3.97542043,29.7623103 3.45736079,29.6996401 3.00033655,29.435777 C2.36584725,29.0694544 2.01046258,28.4145546 2.00001298,27.7361238 C1.99826621,27.1609004 2.17295253,26.7118351 2.46443722,26.3639819 L12.2658124,9.38750197 C12.601928,8.80533273 13.1847083,8.45522617 13.8047609,8.39326273 C14.5308077,8.08473206 15.4004684,8.22494234 15.9969237,8.82139762 L18.8280359,11.6525098 C19.608343,12.432817 19.6131872,13.6931005 18.8266933,14.4795944 C18.0456448,15.260643 16.7854837,15.2668119 15.9996088,14.480937 L14.6963534,13.1776816 L7.49478305,25.6511673 L20.0042059,25.6511673 C21.105495,25.6511673 21.9982662,26.5482274 21.9982662,27.657026 L21.9982662,29.6511673 L25.9982662,29.6511673 L25.9982662,27.657026 C25.9982662,26.5492208 26.89278,25.6511673 27.9923265,25.6511673 L40.730317,25.6511673 L33.4450851,13.0327755 L31.9969237,14.480937 C31.2110487,15.2668119 29.9508877,15.260643 29.1698391,14.4795944 C28.3833452,13.6931005 28.3881894,12.432817 29.1684965,11.6525098 L31.9996088,8.82139762 C32.271901,8.54910536 32.6011315,8.3718983 32.9476433,8.2890625 C33.9548515,7.7065777 35.1788301,8.03570995 35.7327903,8.99519713 Z M9.99826621,32.6511673 C9.99826621,34.304262 11.3430802,35.6511673 12.9928232,35.6511673 L15.0037092,35.6511673 C16.6509578,35.6511673 17.9982662,34.3041972 17.9982662,32.6511673 L17.9982662,29.6511673 L9.99826621,29.6511673 L9.99826621,32.6511673 Z M29.9982662,32.6511673 C29.9982662,34.304262 31.3430802,35.6511673 32.9928232,35.6511673 L35.0037092,35.6511673 C36.6509578,35.6511673 37.9982662,34.3041972 37.9982662,32.6511673 L37.9982662,29.6511673 L29.9982662,29.6511673 L29.9982662,32.6511673 Z" id="Combined-Shape" fill="#000000"></path>
    </g>
</svg>