<?xml version="1.0" encoding="UTF-8"?>
<svg width="48px" height="48px" viewBox="0 0 48 48" version="1.1" xmlns="http://www.w3.org/2000/svg" xmlns:xlink="http://www.w3.org/1999/xlink">
    <!-- Generator: Sketch 43.2 (39069) - http://www.bohemiancoding.com/sketch -->
    <title>theicons.co/svg/clothes-06</title>
    <desc>Created with Sketch.</desc>
    <defs></defs>
    <g id="The-Icons" stroke="none" stroke-width="1" fill="none" fill-rule="evenodd">
        <path d="M22,24 L22,19.7786029 C19.0532039,19.1014936 17.1010771,16.9242093 16.018187,13.971585 C16.018187,15.195557 16,16.0308246 16,16.0308246 C16,18.4419005 14.8668513,20.877527 12.7571213,22.8774512 C12.1485072,23.4543885 10,24.8649902 10,24.8649902 L10,30 L22,30 L22,28 L20.999615,28 C19.8952581,28 19,27.1122704 19,26 C19,24.8954305 19.8874333,24 20.999615,24 L22,24 Z M26,24 L27.000385,24 C28.1047419,24 29,24.8877296 29,26 C29,27.1045695 28.1125667,28 27.000385,28 L26,28 L26,30 L38.0011108,30 L38.0018402,24.7345139 C38.0018402,24.7345139 36.0304597,23.4814782 35.6417336,23.1951628 C33.0510774,21.2870198 32,18.70132 32,15.9552865 C32,15.9552865 31.997612,14.5673827 31.9976127,13.9502954 C30.9185429,16.9314488 28.9622655,19.1268536 26,19.7910644 L26,24 Z M10,38 L22,38.0080828 L22,34 L10,34 L10,38 Z M26,34 L26,38.0107771 L38,38.0188599 L38.0005567,34 L26,34 Z M24,16 C29.4969482,16.0308247 29.0088153,6.9798385 29.0088153,6.9798385 C29.0039467,6.43868864 29.4432777,6 29.9988184,6 L33.9950534,6 C35.1023548,6 36,6.89868402 36,8.00125647 L36,15.9552865 C36,17.0605499 36.2874756,18.7028809 38.013916,19.9744873 C39.7403564,21.2460938 42,22.0081787 42,24 L42,40.0049107 C42,41.1067681 41.1001025,42 40.0087557,42 L7.99124431,42 C6.89151044,42 6,41.10452 6,39.9985245 L6,24 C6,22.0043945 8.52062988,21.3818359 10.005249,19.9744873 C11.4898682,18.5671387 12,17.126725 12,16.0308246 L12,8.0001813 C12,6.89551167 12.8970262,6 14.0049466,6 L18.0011816,6 C18.5528138,6 18.9891304,6.45432585 18.9914893,6.99255895 C18.9914893,6.99255895 18.5030518,15.9691753 24,16 Z" id="Combined-Shape" fill="#000000"></path>
    </g>
</svg>