<?xml version="1.0" encoding="UTF-8"?>
<svg width="48px" height="48px" viewBox="0 0 48 48" version="1.1" xmlns="http://www.w3.org/2000/svg" xmlns:xlink="http://www.w3.org/1999/xlink">
    <!-- Generator: Sketch 43.2 (39069) - http://www.bohemiancoding.com/sketch -->
    <title>theicons.co/svg/clothes-05</title>
    <desc>Created with Sketch.</desc>
    <defs></defs>
    <g id="The-Icons" stroke="none" stroke-width="1" fill="none" fill-rule="evenodd">
        <path d="M26,16 L26,22.0049107 C26,23.1067681 25.1122704,24 24,24 C22.8954305,24 22,23.1073772 22,22.0049107 L22,16 L18.0226796,16 C18.0013411,16.2171747 17.9732077,16.4531377 17.9369852,16.7054361 C17.7609814,17.931344 17.4413389,19.1593524 16.9339084,20.3268699 C15.6315478,23.3233959 13.3317011,25.3810075 10.0036521,25.9440537 L10.0062256,40 L18,40.020752 L18,34.0049466 C18,30.6904164 20.6766407,28 24,28 C27.3159453,28 30,30.6901194 30,34.0049466 L30,40.0357666 L39,40.0111084 L39.0223534,26.0543212 C35.2251127,25.7215461 32.6399515,23.5762285 31.2277039,20.3268699 C30.7202733,19.1593524 30.4006309,17.931344 30.2246271,16.7054361 C30.1884192,16.4532394 30.1602939,16.217365 30.1389597,16 L26,16 Z M34.1840289,16.1369842 C34.3126352,17.0327575 34.5443156,17.9228317 34.8961975,18.7324563 C35.7080502,20.6004011 36.9879913,21.7475167 39.0287978,22.0306424 L39.0384566,16 L34.1651079,16 C34.1710346,16.0446881 34.1773358,16.090365 34.1840289,16.1369842 Z M22,8.01734301 L10.0003721,8.02954794 L10.001099,12 L22,12 L22,8.01734301 Z M26,8.01327457 L26,12 L39.0448631,12 L39.0512695,8 L26,8.01327457 Z M13.2654148,18.7324563 C13.6172967,17.9228317 13.8489771,17.0327575 13.9775834,16.1369842 C13.9842766,16.090364 13.990578,16.0446861 13.9965048,16 L10.0018314,16 L10.0029015,21.8447785 C11.5479999,21.3861996 12.5756516,20.3194924 13.2654148,18.7324563 Z M27.9915655,44 C26.8916543,44 26,43.1130057 26,42.0013741 L26,34.0049466 C26,32.8970262 25.1045695,32 24,32 C22.8877296,32 22,32.8976452 22,34.0049466 L22,42.0013741 C22,43.1051847 21.1030936,44 19.9944851,44 L8.00239962,44 C6.89650485,44 6,43.1084602 6,42.0027084 L6,5.99729162 C6,4.89421792 6.89627863,4 8.00239962,4 L40.9976004,4 C42.1034952,4 43,4.89153983 43,5.99729162 L43,42.0027084 C43,43.1057821 42.1037214,44 40.9976004,44 L27.9915655,44 Z" id="Combined-Shape" fill="#000000"></path>
    </g>
</svg>