<?xml version="1.0" encoding="UTF-8"?>
<svg width="48px" height="48px" viewBox="0 0 48 48" version="1.1" xmlns="http://www.w3.org/2000/svg" xmlns:xlink="http://www.w3.org/1999/xlink">
    <!-- Generator: Sketch 43.2 (39069) - http://www.bohemiancoding.com/sketch -->
    <title>theicons.co/svg/clothes-04</title>
    <desc>Created with Sketch.</desc>
    <defs></defs>
    <g id="The-Icons" stroke="none" stroke-width="1" fill="none" fill-rule="evenodd">
        <path d="M27.9633793,23 C27.9633793,24.1045695 27.0679488,25 25.9633793,25 L25.9633793,29 C27.0679488,29 27.9633793,29.8954305 27.9633793,31 C27.9633793,32.1045695 27.0679488,33 25.9633793,33 L25.9633793,38.0013181 L33.9633793,38.0021969 L33.9633794,36.9947795 L33.9633793,27.0058587 C33.9633793,25.8980535 34.8511089,25 35.9633793,25 C37.0679488,25 37.9633793,25.8970601 37.9633793,27.0058587 L37.9633793,28 L41.6155528,28 C41.4293656,24.886966 41.1902362,21.5303623 41.0451413,20.8048878 C40.9053374,20.1058684 40.4809655,18.9635983 39.836431,17.5745413 C39.5777374,17.0170225 37.885552,13.7807656 37.319809,12.8051423 C37.1219418,12.4639205 36.5188009,11.4580598 36.5188009,11.4580598 C36.2886587,11.0587394 35.7062313,10.6169178 35.1058133,10.3254386 L32.7495862,15.0877847 C31.7883607,17.0305892 29.4302432,17.9034098 27.4453309,17.048732 L25.9633793,16.4106228 L25.9633793,21 C27.0679488,21 27.9633793,21.8954305 27.9633793,23 Z M20.6877675,17.048732 C18.7117363,17.8995857 16.3532161,17.0430163 15.3713585,15.1211101 L12.9030378,10.2895738 C12.2737418,10.5816838 11.6438911,11.0486567 11.3967597,11.4710555 C11.3967597,11.4710555 10.8059385,12.4539264 10.6083884,12.7939721 C10.0435545,13.766228 8.35456777,16.9901936 8.09646824,17.5453031 C7.45258196,18.9301464 7.02889899,20.0684796 6.89001202,20.7629144 C6.7439273,21.493338 6.50208257,24.8741578 6.31418004,28 L9.9633793,28 L9.9633793,27.0058587 C9.9633793,25.8980535 10.8511089,25 11.9633793,25 C13.0679488,25 13.9633793,25.8970601 13.9633793,27.0058587 L13.9633793,37.9999999 L21.9633793,38.0008787 L21.9633793,16.49947 L20.6877675,17.048732 Z M19.1058362,13.3748386 L21.7111094,12.243108 L17.8226917,7.80543279 L16.6940361,8.91788623 C16.6940361,8.91788623 19.0690854,13.390663 19.1058362,13.3748386 Z M21.5590301,5.99999997 L24.0562948,8.85001519 L26.5329421,5.99999995 L21.5590301,5.99999997 Z M26.4126024,12.2489997 L29.0272622,13.3748386 C29.055132,13.3868389 31.2949946,9.00766057 31.2949946,9.00766057 L30.1783029,7.90660267 L26.4126024,12.2489997 Z M9.9633793,32 L5.9633793,32 L5.9633793,34.0005493 L9.9633793,34.0002759 L9.9633793,32 Z M41.9633793,32 L37.9633793,32 L37.9633793,34.0130264 L41.9633793,34 L41.9633793,32 Z M28.9953105,2 C29.547219,2 30.3062985,2.31387329 30.7047274,2.71511984 L33.9665404,6 C36.1739336,6 38.8776898,7.54039956 39.9844256,9.4607001 C39.9844256,9.4607001 44.2275675,16.3209409 44.967464,20.0204233 C45.8348768,24.3574876 45.9276078,36.0170339 45.9276078,36.0170339 C45.9473639,37.1121958 45.0766729,38.0002435 43.9652779,38.0005488 L37.9633793,38.0021973 L37.9633791,40.0010986 C37.963379,41.1050614 37.0634814,42 35.9721346,42 L11.9546237,42 C10.8548898,42 9.96337936,41.1122704 9.96337934,40 L9.9633793,38 L3.96148065,38 C2.85795975,38 1.97758243,37.1021965 2.00043503,35.9982951 C2.00043503,35.9982951 2.09747823,24.3295053 2.96768932,19.9784499 C3.70478757,16.2929586 7.94425134,9.45110852 7.94425134,9.45110852 C9.05938492,7.54511391 11.7574996,6 13.9602182,6 L17.3230716,2.69674683 C17.7148172,2.31194418 18.4867165,2 19.0317085,2 L28.9953105,2 Z" id="Rectangle-691" fill="#000000"></path>
    </g>
</svg>