<?xml version="1.0" encoding="UTF-8"?>
<svg width="48px" height="48px" viewBox="0 0 48 48" version="1.1" xmlns="http://www.w3.org/2000/svg" xmlns:xlink="http://www.w3.org/1999/xlink">
    <!-- Generator: Sketch 43.2 (39069) - http://www.bohemiancoding.com/sketch -->
    <title>theicons.co/svg/clothes-19</title>
    <desc>Created with Sketch.</desc>
    <defs></defs>
    <g id="The-Icons" stroke="none" stroke-width="1" fill="none" fill-rule="evenodd">
        <path d="M12.9688459,4.45059046 C13.7722073,2.26773686 16.2144726,1.36319178 18.2535047,2.47937393 L24.7364856,5.87509068 L40.00077,5.87509068 C42.2094838,5.87509068 44,7.67161193 44,9.87091693 L44,37.8782518 C44,40.085645 42.2035752,41.8750907 39.9999745,41.8750907 L8.00002553,41.8750907 C5.79087243,41.8750907 4,40.0809704 4,37.8782518 L4,11.8750907 C4,8.56215364 6.67989999,5.87509068 9.99017859,5.87509068 L12.4445833,5.87509068 L12.9688459,4.45059046 Z M31.9907535,23.8750907 C29.786613,23.8750907 28,25.6640777 28,27.8750907 C28,30.0800729 29.7915524,31.8750907 31.9907535,31.8750907 L39.9990682,31.8750907 L39.9994568,23.8750907 L31.9907535,23.8750907 Z M16.6420898,6.14974889 L13.7546387,13.8750907 L31.385376,13.8750907 L16.6420898,6.14974889 Z M8,37.8782518 L39.9999745,37.8750907 L39.9991954,35.8750907 L31.9907535,35.8750907 C27.5775822,35.8750907 24,32.2843784 24,27.8750907 C24,23.4568127 27.5755992,19.8750907 31.9907535,19.8750907 L39.9997838,19.8750907 L39.9999733,17.8750907 L9.99017859,17.8750907 C9.29250787,17.8750907 8.62268754,17.7554214 8,17.5355175 L8,37.8782518 Z M40,9.87091693 L32.3698771,9.87338027 L40.0005133,13.8702267 L40,9.87091693 Z M9.99017859,9.87509068 C8.89143267,9.87509068 8,10.768906 8,11.8750907 C8,12.8156268 8.64997375,13.6062929 9.52100972,13.8188794 L10.9724527,9.87509068 L9.99017859,9.87509068 Z M32,29.8750907 C30.8954305,29.8750907 30,28.9796602 30,27.8750907 C30,26.7705212 30.8954305,25.8750907 32,25.8750907 C33.1045695,25.8750907 34,26.7705212 34,27.8750907 C34,28.9796602 33.1045695,29.8750907 32,29.8750907 Z" id="Combined-Shape" fill="#000000"></path>
    </g>
</svg>