<?xml version="1.0" encoding="UTF-8"?>
<svg width="48px" height="48px" viewBox="0 0 48 48" version="1.1" xmlns="http://www.w3.org/2000/svg" xmlns:xlink="http://www.w3.org/1999/xlink">
    <!-- Generator: Sketch 43.2 (39069) - http://www.bohemiancoding.com/sketch -->
    <title>theicons.co/svg/clothes-10</title>
    <desc>Created with Sketch.</desc>
    <defs></defs>
    <g id="The-Icons" stroke="none" stroke-width="1" fill="none" fill-rule="evenodd">
        <path d="M34.8784484,29 C34.8784484,26.0237605 37.0454553,23.5536526 39.8877377,23.0814075 C39.889488,20.9055084 39.8909658,18.3656689 39.8921431,15.9974291 L31.8449449,15.9974291 L31.8449449,24.3245638 L23.060607,33.1089017 C21.4991355,34.6703733 21.503014,37.1994675 23.0818737,38.7783272 C24.685795,40.3822485 27.3801549,40.4298398 29.0386748,38.885451 L35.9150648,32.3722202 C35.2608471,31.4111805 34.8784484,30.2502472 34.8784484,29 Z M39.8939469,11.9982861 C39.8949103,9.64155232 39.8954162,8 39.8954162,8 L31.8449449,8.00939941 L31.8449449,11.9982861 L39.8939469,11.9982861 Z M24.1213493,21.2119379 C23.8573728,21.6919673 23.1983546,22.1735774 22.6539223,22.2794044 L11.229298,24.5001264 C9.06161559,24.9214811 7.6505795,27.0203642 8.07662637,29.2121853 C8.50943599,31.4387978 10.7165488,32.9849196 12.9551354,32.6319958 C12.9551354,32.6319958 18.5815768,31.6516777 19.2414696,31.4840271 C19.5265179,31.0593117 27.8449449,22.6677095 27.8449449,22.6677095 L27.8449449,14.4407459 L24.1213493,21.2119379 Z M13.5780604,36.5831937 C9.2142464,37.2711696 4.99429766,34.318351 4.15011764,29.9754213 C3.30254373,25.6150315 6.12982901,21.4164959 10.466062,20.5736176 L21.0343344,18.5193536 L27.9082977,5.50389989 C28.1307909,4.63895733 28.9134046,4 29.8420438,4 L41.872227,4 C42.9751942,4 43.8693258,4.89814586 43.8693258,6.00689989 L43.8693258,28.9873157 C43.8693258,29.1820146 43.8693253,30.2804737 42.5759213,31.7454535 L31.7645848,41.8128072 C28.5315303,44.8233789 23.381839,44.7351467 20.2534466,41.6067543 C18.6742051,40.0275129 17.8880099,37.9627086 17.8936319,35.9028234 L13.5780604,36.5831937 Z" id="Shape" fill="#000000"></path>
    </g>
</svg>