<?xml version="1.0" encoding="UTF-8"?>
<svg width="48px" height="48px" viewBox="0 0 48 48" version="1.1" xmlns="http://www.w3.org/2000/svg" xmlns:xlink="http://www.w3.org/1999/xlink">
    <!-- Generator: Sketch 43.2 (39069) - http://www.bohemiancoding.com/sketch -->
    <title>theicons.co/svg/clothes-26</title>
    <desc>Created with Sketch.</desc>
    <defs></defs>
    <g id="The-Icons" stroke="none" stroke-width="1" fill="none" fill-rule="evenodd">
        <path d="M26.7444789,8 C26.7444789,9.65685425 25.4013332,11 23.7444789,11 C22.0876247,11 20.7444789,9.65685425 20.7444789,8 L11.7440716,8 C11.7440716,8 11.6862294,13.8971631 11.6806549,14 L29.7074283,14 C29.7545994,13.9990715 29.8015393,13.9998238 29.8481781,14.0022106 C30.7911208,14.0462609 31.5625365,14.7438184 31.7164972,15.6620524 L33.7056403,25.6077677 C33.9222642,26.6908872 33.2198307,27.7445375 32.1367112,27.9611614 C31.0535917,28.1777853 29.9999415,27.4753518 29.7833176,26.3922323 L28.1048711,18 L19.3840867,18 L17.7056403,26.3922323 C17.4890164,27.4753518 16.4353661,28.1777853 15.3522466,27.9611614 C14.2691271,27.7445375 13.5666937,26.6908872 13.7833176,25.6077677 L15.3048711,18 L11.2636561,18 C11.1004308,18.9821335 10.8953162,19.8645661 10.6385918,20.6334269 C10.2415035,21.8226619 9.07040492,25.4868009 7.34709643,30.9193457 C6.60237687,33.2671249 5.80609234,35.7827552 5.01091954,38.2984069 C4.81882407,38.9061305 4.46541075,40 4.46541075,40 L43.0372035,40 C43.0372035,40 40.8507425,33.2831069 40.0937394,30.922554 C38.3509387,25.4880126 37.1623057,21.786892 36.783047,20.6165518 C36.4774006,19.6733688 36.2505203,18.5384668 36.0827724,17.2396501 C35.933846,16.0865622 35.8391088,14.8640307 35.7865571,13.6433573 C35.768224,13.2175167 35.7444789,8 35.7444789,8 L26.7444789,8 Z M7.74447891,13.5003345 L7.74447891,6.99077797 C7.74447891,5.33620739 9.08253415,4 10.7410137,4 L36.7479441,4 C38.4000376,4 39.7444789,5.34356018 39.7444789,6.99077797 L39.7444789,13.4713109 C39.7444789,13.4713109 39.9171575,15.7001083 40.0498223,16.7272882 C40.1886294,17.8020258 40.3703789,18.7111742 40.588235,19.3834482 C40.9693924,20.5596476 47.2897806,40.2682411 47.3434277,40.4356958 C47.9257951,42.2533406 46.6498978,44 44.7428066,44 L2.74615118,44 C0.844118791,44 -0.433391886,42.255015 0.136879065,40.4487966 C0.189869266,40.2808586 6.43783729,20.5845024 6.84450668,19.3665731 C7.06691116,18.7004966 7.25328316,17.833604 7.39833954,16.8227645 C7.54865245,15.7752942 7.74447891,13.5003345 7.74447891,13.5003345 Z" id="Combined-Shape" fill="#000000"></path>
    </g>
</svg>