<?xml version="1.0" encoding="UTF-8"?>
<svg width="48px" height="48px" viewBox="0 0 48 48" version="1.1" xmlns="http://www.w3.org/2000/svg" xmlns:xlink="http://www.w3.org/1999/xlink">
    <!-- Generator: Sketch 43.2 (39069) - http://www.bohemiancoding.com/sketch -->
    <title>theicons.co/svg/clothes-25</title>
    <desc>Created with Sketch.</desc>
    <defs></defs>
    <g id="The-Icons" stroke="none" stroke-width="1" fill="none" fill-rule="evenodd">
        <path d="M18,28.0031979 L18,24.0031979 L10,24.0031979 L10,28.0031979 L18,28.0031979 Z M18,32.0031979 L10,32.0031979 L10,40.0031979 L18,40.0031979 L18,32.0031979 Z M8,12.9952149 C8,11.2069448 9.12103706,9.19405445 10.6365964,8.24682989 L16.9400021,4.30720129 C18.2720981,3.47464128 20,4.43232682 20,6.0031979 L20,20.0031979 C21.1072288,20.0031979 22,20.9002241 22,22.0081445 L22,40.0131449 C22,42.2167903 20.2111696,44.0031979 18.0037973,44.0031979 L9.99620271,44.0031979 C7.78916089,44.0031979 6,42.2189046 6,40.0131449 L6,22.0081445 C6,20.9008431 6.89451376,20.0031979 7.99406028,20.0031979 L8,12.9952149 Z M16,20.0031979 L16,9.62905239 L12.7565921,11.6388231 C12.4079417,11.8567296 12,12.5892138 12,12.9952149 L12,20.0031979 L16,20.0031979 Z M26,42.0081086 L26,29.9979813 C26,27.7949135 27.7891609,26.0031979 29.9962027,26.0031979 L38.0037973,26.0031979 C40.2111696,26.0031979 42,27.7917233 42,29.9979813 L42,42.0081086 C42,43.1105751 41.1072288,44.0031979 40.0059397,44.0031979 L27.9940603,44.0031979 C26.8945138,44.0031979 26,43.109966 26,42.0081086 Z M30,30.0031979 L30,40.0031979 L38,40.0031979 L38,30.0031979 L30,30.0031979 Z" id="Combined-Shape" fill="#000000"></path>
    </g>
</svg>