<?xml version="1.0" encoding="UTF-8"?>
<svg width="48px" height="48px" viewBox="0 0 48 48" version="1.1" xmlns="http://www.w3.org/2000/svg" xmlns:xlink="http://www.w3.org/1999/xlink">
    <!-- Generator: Sketch 43.2 (39069) - http://www.bohemiancoding.com/sketch -->
    <title>theicons.co/svg/common-05</title>
    <desc>Created with Sketch.</desc>
    <defs></defs>
    <g id="The-Icons" stroke="none" stroke-width="1" fill="none" fill-rule="evenodd">
        <path d="M39.4142136,11.4142136 L26.8284271,24 L39.4142136,36.5857864 C40.1952621,37.366835 40.1952621,38.633165 39.4142136,39.4142136 C38.633165,40.1952621 37.366835,40.1952621 36.5857864,39.4142136 L22.5857864,25.4142136 C21.8047379,24.633165 21.8047379,23.366835 22.5857864,22.5857864 L36.5857864,8.58578644 C37.366835,7.80473785 38.633165,7.80473785 39.4142136,8.58578644 C40.1952621,9.36683502 40.1952621,10.633165 39.4142136,11.4142136 Z M22.4142136,14.4142136 L12.8284271,24 L22.4142136,33.5857864 C23.1952621,34.366835 23.1952621,35.633165 22.4142136,36.4142136 C21.633165,37.1952621 20.366835,37.1952621 19.5857864,36.4142136 L8.58578644,25.4142136 C7.80473785,24.633165 7.80473785,23.366835 8.58578644,22.5857864 L19.5857864,11.5857864 C20.366835,10.8047379 21.633165,10.8047379 22.4142136,11.5857864 C23.1952621,12.366835 23.1952621,13.633165 22.4142136,14.4142136 Z" id="Combined-Shape" fill="#000000" fill-rule="nonzero" transform="translate(24.000000, 24.000000) scale(-1, 1) translate(-24.000000, -24.000000) "></path>
    </g>
</svg>