<?xml version="1.0" encoding="UTF-8"?>
<svg width="48px" height="48px" viewBox="0 0 48 48" version="1.1" xmlns="http://www.w3.org/2000/svg" xmlns:xlink="http://www.w3.org/1999/xlink">
    <!-- Generator: Sketch 43.2 (39069) - http://www.bohemiancoding.com/sketch -->
    <title>theicons.co/svg/common-08</title>
    <desc>Created with Sketch.</desc>
    <defs></defs>
    <g id="The-Icons" stroke="none" stroke-width="1" fill="none" fill-rule="evenodd">
        <path d="M28,31.0066283 C28,35.4214054 24.4193321,39 20,39 C15.5848016,39 12,35.4153529 12,31.0066283 L12,26 C12,24.8954305 11.1045695,24 10,24 C8.8954305,24 8,24.8954305 8,26 L8,31.0066283 C8,37.6245304 13.3757012,43 20,43 C26.6279527,43 32,37.6310631 32,31.0066283 L32,11.8284271 L36.5857864,16.4142136 C37.366835,17.1952621 38.633165,17.1952621 39.4142136,16.4142136 C40.1952621,15.633165 40.1952621,14.366835 39.4142136,13.5857864 L31.4142136,5.58578644 C30.633165,4.80473785 29.366835,4.80473785 28.5857864,5.58578644 L20.5857864,13.5857864 C19.8047379,14.366835 19.8047379,15.633165 20.5857864,16.4142136 C21.366835,17.1952621 22.633165,17.1952621 23.4142136,16.4142136 L28,11.8284271 L28,31.0066283 Z" id="Combined-Shape" fill="#000000" fill-rule="nonzero"></path>
    </g>
</svg>