<?xml version="1.0" encoding="UTF-8"?>
<svg width="48px" height="48px" viewBox="0 0 48 48" version="1.1" xmlns="http://www.w3.org/2000/svg" xmlns:xlink="http://www.w3.org/1999/xlink">
    <!-- Generator: Sketch 43.2 (39069) - http://www.bohemiancoding.com/sketch -->
    <title>theicons.co/svg/common-13</title>
    <desc>Created with Sketch.</desc>
    <defs></defs>
    <g id="The-Icons" stroke="none" stroke-width="1" fill="none" fill-rule="evenodd">
        <path d="M26,12.8284271 L30.5857864,17.4142136 C31.366835,18.1952621 32.633165,18.1952621 33.4142136,17.4142136 C34.1952621,16.633165 34.1952621,15.366835 33.4142136,14.5857864 L25.4142136,6.58578644 C24.633165,5.80473785 23.366835,5.80473785 22.5857864,6.58578644 L14.5857864,14.5857864 C13.8047379,15.366835 13.8047379,16.633165 14.5857864,17.4142136 C15.366835,18.1952621 16.633165,18.1952621 17.4142136,17.4142136 L22,12.8284271 L22,35.1715729 L17.4142136,30.5857864 C16.633165,29.8047379 15.366835,29.8047379 14.5857864,30.5857864 C13.8047379,31.366835 13.8047379,32.633165 14.5857864,33.4142136 L22.5857864,41.4142136 C23.366835,42.1952621 24.633165,42.1952621 25.4142136,41.4142136 L33.4142136,33.4142136 C34.1952621,32.633165 34.1952621,31.366835 33.4142136,30.5857864 C32.633165,29.8047379 31.366835,29.8047379 30.5857864,30.5857864 L26,35.1715729 L26,12.8284271 Z" id="Combined-Shape" fill="#000000" fill-rule="nonzero"></path>
    </g>
</svg>