<?xml version="1.0" encoding="UTF-8"?>
<svg width="48px" height="48px" viewBox="0 0 48 48" version="1.1" xmlns="http://www.w3.org/2000/svg" xmlns:xlink="http://www.w3.org/1999/xlink">
    <!-- Generator: Sketch 43.2 (39069) - http://www.bohemiancoding.com/sketch -->
    <title>theicons.co/svg/common-19</title>
    <desc>Created with Sketch.</desc>
    <defs></defs>
    <g id="The-Icons" stroke="none" stroke-width="1" fill="none" fill-rule="evenodd">
        <path d="M16,38 L16,18.8284271 L13.4142136,21.4142136 C12.633165,22.1952621 11.366835,22.1952621 10.5857864,21.4142136 C9.80473785,20.633165 9.80473785,19.366835 10.5857864,18.5857864 L22.5857864,6.58578644 C23.366835,5.80473785 24.633165,5.80473785 25.4142136,6.58578644 L37.4142136,18.5857864 C38.1952621,19.366835 38.1952621,20.633165 37.4142136,21.4142136 C36.633165,22.1952621 35.366835,22.1952621 34.5857864,21.4142136 L32,18.8284271 L32,38 L36.0087557,38 C37.1084896,38 38,38.8877296 38,40 C38,41.1045695 37.1001025,42 36.0087557,42 L11.9912443,42 C10.8915104,42 10,41.1122704 10,40 C10,38.8954305 10.8998975,38 11.9912443,38 L16,38 Z M20,38 L28,38 L28,14.8284271 L24,10.8284271 L20,14.8284271 L20,38 Z" id="Combined-Shape" fill="#000000"></path>
    </g>
</svg>