<?xml version="1.0" encoding="UTF-8"?>
<svg width="48px" height="48px" viewBox="0 0 48 48" version="1.1" xmlns="http://www.w3.org/2000/svg" xmlns:xlink="http://www.w3.org/1999/xlink">
    <!-- Generator: Sketch 43.2 (39069) - http://www.bohemiancoding.com/sketch -->
    <title>theicons.co/svg/common-12</title>
    <desc>Created with Sketch.</desc>
    <defs></defs>
    <g id="The-Icons" stroke="none" stroke-width="1" fill="none" fill-rule="evenodd">
        <path d="M26.5857864,22.5857864 C25.8047379,23.366835 25.8047379,24.633165 26.5857864,25.4142136 C27.366835,26.1952621 28.633165,26.1952621 29.4142136,25.4142136 L37.4142136,17.4142136 C38.1952621,16.633165 38.1952621,15.366835 37.4142136,14.5857864 L29.4142136,6.58578644 C28.633165,5.80473785 27.366835,5.80473785 26.5857864,6.58578644 C25.8047379,7.36683502 25.8047379,8.63316498 26.5857864,9.41421356 L31.1715729,14 L14,14 C12.8954305,14 12,14.8954305 12,16 L12,40 C12,41.1045695 12.8954305,42 14,42 C15.1045695,42 16,41.1045695 16,40 L16,18 L31.1715729,18 L26.5857864,22.5857864 Z" id="Combined-Shape" fill="#000000" fill-rule="nonzero"></path>
    </g>
</svg>