<?xml version="1.0" encoding="UTF-8"?>
<svg width="48px" height="48px" viewBox="0 0 48 48" version="1.1" xmlns="http://www.w3.org/2000/svg" xmlns:xlink="http://www.w3.org/1999/xlink">
    <!-- Generator: Sketch 43.2 (39069) - http://www.bohemiancoding.com/sketch -->
    <title>theicons.co/svg/common-16</title>
    <desc>Created with Sketch.</desc>
    <defs></defs>
    <g id="The-Icons" stroke="none" stroke-width="1" fill="none" fill-rule="evenodd">
        <path d="M26,38 L26,12.8284271 L30.5857864,17.4142136 C31.366835,18.1952621 32.633165,18.1952621 33.4142136,17.4142136 C34.1952621,16.633165 34.1952621,15.366835 33.4142136,14.5857864 L25.4142136,6.58578644 C24.633165,5.80473785 23.366835,5.80473785 22.5857864,6.58578644 L14.5857864,14.5857864 C13.8047379,15.366835 13.8047379,16.633165 14.5857864,17.4142136 C15.366835,18.1952621 16.633165,18.1952621 17.4142136,17.4142136 L22,12.8284271 L22,38 L15.9907951,38 C14.8982124,38 14,38.8954305 14,40 C14,41.1122704 14.8913093,42 15.9907951,42 L32.0092049,42 C33.1017876,42 34,41.1045695 34,40 C34,38.8877296 33.1086907,38 32.0092049,38 L26,38 Z" id="Combined-Shape" fill="#000000" fill-rule="nonzero"></path>
    </g>
</svg>