<?xml version="1.0" encoding="UTF-8"?>
<svg width="48px" height="48px" viewBox="0 0 48 48" version="1.1" xmlns="http://www.w3.org/2000/svg" xmlns:xlink="http://www.w3.org/1999/xlink">
    <!-- Generator: Sketch 43.2 (39069) - http://www.bohemiancoding.com/sketch -->
    <title>theicons.co/svg/common-07</title>
    <desc>Created with Sketch.</desc>
    <defs></defs>
    <g id="The-Icons" stroke="none" stroke-width="1" fill="none" fill-rule="evenodd">
        <path d="M32.0066283,20 C36.4214054,20 40,23.5806679 40,28 C40,32.4151984 36.4153529,36 32.0066283,36 L8,36 C6.8954305,36 6,36.8954305 6,38 C6,39.1045695 6.8954305,40 8,40 L32.0066283,40 C38.6245304,40 44,34.6242988 44,28 C44,21.3720473 38.6310631,16 32.0066283,16 L12.8284271,16 L17.4142136,11.4142136 C18.1952621,10.633165 18.1952621,9.36683502 17.4142136,8.58578644 C16.633165,7.80473785 15.366835,7.80473785 14.5857864,8.58578644 L6.58578644,16.5857864 C5.80473785,17.366835 5.80473785,18.633165 6.58578644,19.4142136 L14.5857864,27.4142136 C15.366835,28.1952621 16.633165,28.1952621 17.4142136,27.4142136 C18.1952621,26.633165 18.1952621,25.366835 17.4142136,24.5857864 L12.8284271,20 L32.0066283,20 Z" id="Combined-Shape" fill="#000000" fill-rule="nonzero"></path>
    </g>
</svg>