<?xml version="1.0" encoding="UTF-8"?>
<svg width="48px" height="48px" viewBox="0 0 48 48" version="1.1" xmlns="http://www.w3.org/2000/svg" xmlns:xlink="http://www.w3.org/1999/xlink">
    <!-- Generator: Sketch 43.2 (39069) - http://www.bohemiancoding.com/sketch -->
    <title>theicons.co/svg/common-15</title>
    <desc>Created with Sketch.</desc>
    <defs></defs>
    <g id="The-Icons" stroke="none" stroke-width="1" fill="none" fill-rule="evenodd">
        <path d="M36.0756931,14.7156246 L36.0651895,19.9960217 C36.0629923,21.100589 36.9566399,21.9977989 38.0612072,21.999996 C39.1657745,22.0021932 40.0629844,21.1085457 40.0651816,20.0039783 L40.0850733,10.0039783 C40.0872736,8.89785707 39.1912008,8 38.0850773,8 L28.0651855,8 C26.960616,8 26.0651855,8.8954305 26.0651855,10 C26.0651855,11.1045695 26.960616,12 28.0651855,12 L33.1344635,12 L23.9814453,21.1530182 L11.4142136,8.58578644 C10.633165,7.80473785 9.36683502,7.80473785 8.58578644,8.58578644 C7.80473785,9.36683502 7.80473785,10.633165 8.58578644,11.4142136 L21.1530182,23.9814453 L8.58578644,36.5486771 C7.80473785,37.3297256 7.80473785,38.5960556 8.58578644,39.3771042 C9.36683502,40.1581528 10.633165,40.1581528 11.4142136,39.3771042 L23.9814453,26.8098724 L33.1344635,35.9628906 L28.0651855,35.9628906 C26.960616,35.9628906 26.0651855,36.8583211 26.0651855,37.9628906 C26.0651855,39.0674601 26.960616,39.9628906 28.0651855,39.9628906 L38.0850773,39.9628906 C39.1912008,39.9628906 40.0872736,39.0650336 40.0850733,37.9589123 L40.0651816,27.9589123 C40.0629844,26.854345 39.1657745,25.9606974 38.0612072,25.9628946 C36.9566399,25.9650918 36.0629923,26.8623017 36.0651895,27.966869 L36.0756931,33.247266 L26.8098724,23.9814453 L36.0756931,14.7156246 Z" id="Combined-Shape" fill="#000000" fill-rule="nonzero"></path>
    </g>
</svg>