<?xml version="1.0" encoding="UTF-8"?>
<svg width="48px" height="48px" viewBox="0 0 48 48" version="1.1" xmlns="http://www.w3.org/2000/svg" xmlns:xlink="http://www.w3.org/1999/xlink">
    <!-- Generator: Sketch 43.2 (39069) - http://www.bohemiancoding.com/sketch -->
    <title>theicons.co/svg/common-18</title>
    <desc>Created with Sketch.</desc>
    <defs></defs>
    <g id="The-Icons" stroke="none" stroke-width="1" fill="none" fill-rule="evenodd">
        <path d="M32,18.8284271 L34.5857864,21.4142136 C35.366835,22.1952621 36.633165,22.1952621 37.4142136,21.4142136 C38.1952621,20.633165 38.1952621,19.366835 37.4142136,18.5857864 L25.4142136,6.58578644 C24.633165,5.80473785 23.366835,5.80473785 22.5857864,6.58578644 L10.5857864,18.5857864 C9.80473785,19.366835 9.80473785,20.633165 10.5857864,21.4142136 C11.366835,22.1952621 12.633165,22.1952621 13.4142136,21.4142136 L16,18.8284271 L16,40.0087557 C16,41.1001025 16.8954305,42 18,42 C19.1122704,42 20,41.1084896 20,40.0087557 L20,14.8284271 L24,10.8284271 L28,14.8284271 L28,40.0087557 C28,41.1001025 28.8954305,42 30,42 C31.1122704,42 32,41.1084896 32,40.0087557 L32,18.8284271 Z" id="Combined-Shape" fill="#000000" fill-rule="nonzero"></path>
    </g>
</svg>