<?xml version="1.0" encoding="UTF-8"?>
<svg width="48px" height="48px" viewBox="0 0 48 48" version="1.1" xmlns="http://www.w3.org/2000/svg" xmlns:xlink="http://www.w3.org/1999/xlink">
    <!-- Generator: Sketch 43.2 (39069) - http://www.bohemiancoding.com/sketch -->
    <title>theicons.co/svg/common-14</title>
    <desc>Created with Sketch.</desc>
    <defs></defs>
    <g id="The-Icons" stroke="none" stroke-width="1" fill="none" fill-rule="evenodd">
        <path d="M33.1715729,12 L26,12 C24.8954305,12 24,11.1045695 24,10 C24,8.8954305 24.8954305,8 26,8 L38,8 C39.1045695,8 40,8.8954305 40,10 L40,22 C40,23.1045695 39.1045695,24 38,24 C36.8954305,24 36,23.1045695 36,22 L36,14.8284271 L14.8284271,36 L22,36 C23.1045695,36 24,36.8954305 24,38 C24,39.1045695 23.1045695,40 22,40 L10,40 C8.8954305,40 8,39.1045695 8,38 L8,26 C8,24.8954305 8.8954305,24 10,24 C11.1045695,24 12,24.8954305 12,26 L12,33.1715729 L33.1715729,12 Z" id="Combined-Shape" fill="#000000" fill-rule="nonzero"></path>
    </g>
</svg>