<?xml version="1.0" encoding="UTF-8"?>
<svg width="48px" height="48px" viewBox="0 0 48 48" version="1.1" xmlns="http://www.w3.org/2000/svg" xmlns:xlink="http://www.w3.org/1999/xlink">
    <!-- Generator: Sketch 43.2 (39069) - http://www.bohemiancoding.com/sketch -->
    <title>theicons.co/svg/common-17</title>
    <desc>Created with Sketch.</desc>
    <defs></defs>
    <g id="The-Icons" stroke="none" stroke-width="1" fill="none" fill-rule="evenodd">
        <path d="M18,12.8284271 L18,40.1113876 C18,41.1544394 17.1122704,42 16,42 C14.8954305,42 14,41.1595459 14,40.1113876 L14,12.8284271 L9.41421356,17.4142136 C8.63316498,18.1952621 7.36683502,18.1952621 6.58578644,17.4142136 C5.80473785,16.633165 5.80473785,15.366835 6.58578644,14.5857864 L14.5857864,6.58578644 C15.366835,5.80473785 16.633165,5.80473785 17.4142136,6.58578644 L25.4142136,14.5857864 C26.1952621,15.366835 26.1952621,16.633165 25.4142136,17.4142136 C24.633165,18.1952621 23.366835,18.1952621 22.5857864,17.4142136 L18,12.8284271 Z M34,26.8284271 L34,40.1113876 C34,41.1544394 33.1122704,42 32,42 C30.8954305,42 30,41.1595459 30,40.1113876 L30,26.8284271 L25.4142136,31.4142136 C24.633165,32.1952621 23.366835,32.1952621 22.5857864,31.4142136 C21.8047379,30.633165 21.8047379,29.366835 22.5857864,28.5857864 L30.5857864,20.5857864 C31.366835,19.8047379 32.633165,19.8047379 33.4142136,20.5857864 L41.4142136,28.5857864 C42.1952621,29.366835 42.1952621,30.633165 41.4142136,31.4142136 C40.633165,32.1952621 39.366835,32.1952621 38.5857864,31.4142136 L34,26.8284271 Z" id="Combined-Shape" fill="#000000" fill-rule="nonzero"></path>
    </g>
</svg>