<?xml version="1.0" encoding="UTF-8"?>
<svg width="48px" height="48px" viewBox="0 0 48 48" version="1.1" xmlns="http://www.w3.org/2000/svg" xmlns:xlink="http://www.w3.org/1999/xlink">
    <!-- Generator: Sketch 43.2 (39069) - http://www.bohemiancoding.com/sketch -->
    <title>theicons.co/svg/documents-01</title>
    <desc>Created with Sketch.</desc>
    <defs></defs>
    <g id="The-Icons" stroke="none" stroke-width="1" fill="none" fill-rule="evenodd">
        <path d="M35.9957423,40 L12,39.9999745 L11.9909413,8 L22,8 L22,20 C22,21.1045695 22.8954305,22 24,22 L36.0001145,22 L35.9957423,40 Z M26,8 L26,18 L35.9999993,18 L26,8 Z M11.9909413,4 L26.6055819,4 C27.1573996,4 27.923594,4.31897704 28.3066744,4.70220075 L39.2980619,15.6977016 C39.6857316,16.0855164 40,16.8559261 40,17.3985099 L40,40.0014572 C40,42.2097914 38.2109725,44 35.9957423,44 L12.0042577,44 C9.79276724,44 8,42.2035752 8,39.9999745 L8,8.00002553 C8,5.79087243 9.79176129,4 11.9909413,4 Z" id="Combined-Shape" fill="#000000"></path>
    </g>
</svg>