<?xml version="1.0" encoding="UTF-8"?>
<svg width="48px" height="48px" viewBox="0 0 48 48" version="1.1" xmlns="http://www.w3.org/2000/svg" xmlns:xlink="http://www.w3.org/1999/xlink">
    <!-- Generator: Sketch 43.2 (39069) - http://www.bohemiancoding.com/sketch -->
    <title>theicons.co/svg/documents-10</title>
    <desc>Created with Sketch.</desc>
    <defs></defs>
    <g id="The-Icons" stroke="none" stroke-width="1" fill="none" fill-rule="evenodd">
        <path d="M25,6 L18,6 L18,33.9974504 L38,34 L38,19 L29.0034467,19 C26.7975802,19 25,17.2146562 25,15.0079593 L25,6 Z M29.0034467,15 L37.2861208,15 L29.0002293,6.5874434 C29.0006025,9.81521301 29.0034467,15 29.0034467,15 Z M34,43.9663445 C34,45.0676581 33.1001025,45.9617203 32.0087557,45.9632619 L7.99124431,45.9971873 C6.89151044,45.9987407 6,45.1101074 6,44.0002927 L6,11.9997073 C6,10.8952994 6.89003319,10 8.00547323,10 L14,10 L14,3.99970728 C14,2.89529944 14.8872914,2 16.0037056,2 L29.0716797,2 C29.6271196,2 30.3962935,2.32097101 30.787501,2.71471786 L41.2898916,13.2852821 C41.6820737,13.6800099 42,14.4572464 42,14.9990455 L42,35.9588067 C42,37.0642833 41.1001025,37.9617203 40.0087557,37.9632619 L34,37.9717494 L34,43.9663445 Z M15.9912443,37.9971873 C14.8915104,37.9987407 14,37.1101074 14,36.0002927 L14,14 L10.0200195,14 L10.0013291,42 L30,42 L30,37.9773996 L15.9912443,37.9971873 Z" id="Combined-Shape" fill="#000000"></path>
    </g>
</svg>