<?xml version="1.0" encoding="UTF-8"?>
<svg width="48px" height="48px" viewBox="0 0 48 48" version="1.1" xmlns="http://www.w3.org/2000/svg" xmlns:xlink="http://www.w3.org/1999/xlink">
    <!-- Generator: Sketch 43.2 (39069) - http://www.bohemiancoding.com/sketch -->
    <title>theicons.co/svg/documents-16</title>
    <desc>Created with Sketch.</desc>
    <defs></defs>
    <g id="The-Icons" stroke="none" stroke-width="1" fill="none" fill-rule="evenodd">
        <path d="M37,36 L28,36 C26.3431458,36 25,34.6568542 25,33 C25,31.3431458 26.3431458,30 28,30 C28.0093213,29.8359166 28,29.6690468 28,29.5 C28,27.0147186 30.0147186,25 32.5,25 C34.4622749,25 36.1311998,26.2559807 36.7467215,28.007889 C36.8304751,28.0026558 36.9149274,28 37,28 C39.209139,28 41,29.790861 41,32 C41,34.209139 39.209139,36 37,36 Z M48,31 C48,39.2842712 41.2842712,46 33,46 C27.2439122,46 22.24508,42.7578034 19.7300932,38 L6.00180999,38 C3.79167136,38 2,36.2147544 2,34.0098214 L2,5.99017859 C2,3.7864638 3.79975948,2 5.99029394,2 L18.0767644,2 C19.1835685,2 20.5701975,2.7477726 21.1746315,3.67133451 L24.0075684,8 L41.9918214,8 C44.2054773,8 46,9.78679466 46,11.9992748 L46,23.5116513 C47.2721115,25.7153164 48,28.2726545 48,31 Z M42,11.9992748 L24.0075684,12 C22.658105,12 21.3996088,11.3195781 20.6606307,10.1904356 L18,6.00978016 L5.99029394,6 L6,34.0098214 C6,34.0098214 11.5550131,34.004763 18.3007122,34.0032388 C18.103521,33.032905 18,32.0285418 18,31 C18,22.7157288 24.7157288,16 33,16 C36.3766611,16 39.4927293,17.1157309 41.9996511,18.9986394 C41.999865,15.113519 42,11.9992748 42,11.9992748 Z M33,42 C39.0751322,42 44,37.0751322 44,31 C44,24.9248678 39.0751322,20 33,20 C26.9248678,20 22,24.9248678 22,31 C22,37.0751322 26.9248678,42 33,42 Z" id="Combined-Shape" fill="#000000"></path>
    </g>
</svg>