<?xml version="1.0" encoding="UTF-8"?>
<svg width="48px" height="48px" viewBox="0 0 48 48" version="1.1" xmlns="http://www.w3.org/2000/svg" xmlns:xlink="http://www.w3.org/1999/xlink">
    <!-- Generator: Sketch 43.2 (39069) - http://www.bohemiancoding.com/sketch -->
    <title>theicons.co/svg/documents-04</title>
    <desc>Created with Sketch.</desc>
    <defs></defs>
    <g id="The-Icons" stroke="none" stroke-width="1" fill="none" fill-rule="evenodd">
        <path d="M22,8 L11.9909413,8 L11.9989525,37.3199506 L14.5853213,36.2858647 C15.5905406,35.8839564 16.71574,35.9066616 17.7039276,36.3487945 L26,39.9922186 L26,37.9979131 C26,36.8944962 26.8938998,36 28.0048815,36 L30,36 L30,33.999615 C30,32.8952581 30.8877296,32 32,32 C33.1045695,32 34,32.8874333 34,33.999615 L34,40 L36.0027793,40 L35.9999194,22 L24,22 C22.8954305,22 22,21.1045695 22,20 L22,8 Z M26,18 L35.9999993,18 L26,8.00115953 L26,18 Z M11.9909413,4 L26.6055819,4 C27.1573996,4 27.923594,4.31897704 28.3066744,4.70220075 L39.2980619,15.6977016 C39.6857316,16.0855164 40,16.8559261 40,17.3985099 L40,40.0014572 C40,42.2097914 38.2068045,44 36.0027793,44 L26.0172769,44 C25.4612483,44 24.6031256,43.8177342 24.1040661,43.594446 L16.0703125,40 L11.716265,41.7408419 C9.6638285,42.5614501 8,41.4392642 8,39.2313348 L8,7.99534976 C8,5.78877902 9.79176129,4 11.9909413,4 Z" id="Combined-Shape" fill="#000000"></path>
    </g>
</svg>