<?xml version="1.0" encoding="UTF-8"?>
<svg width="48px" height="48px" viewBox="0 0 48 48" version="1.1" xmlns="http://www.w3.org/2000/svg" xmlns:xlink="http://www.w3.org/1999/xlink">
    <!-- Generator: Sketch 43.2 (39069) - http://www.bohemiancoding.com/sketch -->
    <title>theicons.co/svg/documents-02</title>
    <desc>Created with Sketch.</desc>
    <defs></defs>
    <g id="The-Icons" stroke="none" stroke-width="1" fill="none" fill-rule="evenodd">
        <path d="M24,22 C22.8954305,22 22,21.1045695 22,20 L22,8 L11.9909413,8 L11.9990393,24 L17.9941413,24 C19.1019465,24 20,24.9019504 20,26.0085302 L20,33.9914698 C20,35.1007504 19.1029399,36 17.9941413,36 L11.9999544,36 L12,39.9999745 L35.9957423,40 L36.0001145,22 L24,22 Z M35.9999993,18 L26,8 L26,18 L35.9999993,18 Z M8,35.9999916 C6.89488899,35.9968183 6,35.0960983 6,33.9914698 L6,26.0085302 C6,24.901204 6.89390193,24.0031694 8,24.0000084 L8,8.00002553 C8,5.79087243 9.79176129,4 11.9909413,4 L26.6055819,4 C27.1573996,4 27.923594,4.31897704 28.3066744,4.70220075 L39.2980619,15.6977016 C39.6857316,16.0855164 40,16.8559261 40,17.3985099 L40,40.0014572 C40,42.2097914 38.2109725,44 35.9957423,44 L12.0042577,44 C9.79276724,44 8,42.2035752 8,39.9999745 L8,35.9999916 Z" id="Combined-Shape" fill="#000000"></path>
    </g>
</svg>