<?xml version="1.0" encoding="UTF-8"?>
<svg width="48px" height="48px" viewBox="0 0 48 48" version="1.1" xmlns="http://www.w3.org/2000/svg" xmlns:xlink="http://www.w3.org/1999/xlink">
    <!-- Generator: Sketch 43.2 (39069) - http://www.bohemiancoding.com/sketch -->
    <title>theicons.co/svg/documents-17</title>
    <desc>Created with Sketch.</desc>
    <defs></defs>
    <g id="The-Icons" stroke="none" stroke-width="1" fill="none" fill-rule="evenodd">
        <path d="M44.6222453,20.0146654 C47.1716068,20.0157453 48.6664712,22.3264657 47.6325537,24.65278 L41.2547697,39.0027941 C40.4870663,40.7301267 38.5041841,42.0154629 36.620551,42.014665 L3.99379325,42.0008447 C3.64876334,42.0006986 3.32304849,41.9582471 3.02030344,41.8791772 C1.28469057,41.443073 0,39.8769124 0,38.0098214 L0,9.99017859 C0,7.7864638 1.79975948,6 3.99029394,6 L16.0767644,6 C17.1835685,6 18.5701975,6.7477726 19.1746315,7.67133451 L22.0075684,12 L35.9918214,12 C38.2054773,12 40,13.7867947 40,15.9992748 L40,20.0127075 L44.6222453,20.0146654 Z M7.36126891,23.0127161 C8.1289723,21.2853834 10.1118545,20.0000472 11.9954876,20.0008451 L35.9998088,20.011013 L36,15.9992748 L22.0075684,16 C20.658105,16 19.3996088,15.3195781 18.6606307,14.1904356 L16,10.0097802 L3.99029394,10 L4.00013591,30.5752653 L7.36126891,23.0127161 Z M11.9937933,24.0008447 C11.6900358,24.0007161 11.1413552,24.3563797 11.0165151,24.6372699 L5,38 L36.6222453,38.0146654 C36.9260028,38.0147941 37.4746834,37.6591304 37.5995235,37.3782402 L43.5299721,24 L11.9937933,24.0008447 Z" id="Combined-Shape" fill="#000000"></path>
    </g>
</svg>