<?xml version="1.0" encoding="UTF-8"?>
<svg width="48px" height="48px" viewBox="0 0 48 48" version="1.1" xmlns="http://www.w3.org/2000/svg" xmlns:xlink="http://www.w3.org/1999/xlink">
    <!-- Generator: Sketch 43.2 (39069) - http://www.bohemiancoding.com/sketch -->
    <title>theicons.co/svg/documents-15</title>
    <desc>Created with Sketch.</desc>
    <defs></defs>
    <g id="The-Icons" stroke="none" stroke-width="1" fill="none" fill-rule="evenodd">
        <path d="M35,29 L37.9941413,29 C39.1019465,29 40,29.8877296 40,31 C40,32.1045695 39.1029399,33 37.9941413,33 L35,33 L35,35.9941413 C35,37.1019465 34.1122704,38 33,38 C31.8954305,38 31,37.1029399 31,35.9941413 L31,33 L28.0058587,33 C26.8980535,33 26,32.1122704 26,31 C26,29.8954305 26.8970601,29 28.0058587,29 L31,29 L31,26.0058587 C31,24.8980535 31.8877296,24 33,24 C34.1045695,24 35,24.8970601 35,26.0058587 L35,29 Z M48,31 C48,39.2842712 41.2842712,46 33,46 C27.2439122,46 22.24508,42.7578034 19.7300932,38 L6.00180999,38 C3.79167136,38 2,36.2147544 2,34.0098214 L2,5.99017859 C2,3.7864638 3.79975948,2 5.99029394,2 L18.0767644,2 C19.1835685,2 20.5701975,2.7477726 21.1746315,3.67133451 L24.0075684,8 L41.9918214,8 C44.2054773,8 46,9.78679466 46,11.9992748 L46,23.5116513 C47.2721115,25.7153164 48,28.2726545 48,31 Z M42,11.9992748 L24.0075684,12 C22.658105,12 21.3996088,11.3195781 20.6606307,10.1904356 L18,6.00978016 L5.99029394,6 L6,34.0098214 C6,34.0098214 11.5550131,34.004763 18.3007122,34.0032388 C18.103521,33.032905 18,32.0285418 18,31 C18,22.7157288 24.7157288,16 33,16 C36.3766611,16 39.4927293,17.1157309 41.9996511,18.9986394 C41.999865,15.113519 42,11.9992748 42,11.9992748 Z M33,42 C39.0751322,42 44,37.0751322 44,31 C44,24.9248678 39.0751322,20 33,20 C26.9248678,20 22,24.9248678 22,31 C22,37.0751322 26.9248678,42 33,42 Z" id="Combined-Shape" fill="#000000"></path>
    </g>
</svg>