<?xml version="1.0" encoding="UTF-8"?>
<svg width="48px" height="48px" viewBox="0 0 48 48" version="1.1" xmlns="http://www.w3.org/2000/svg" xmlns:xlink="http://www.w3.org/1999/xlink">
    <!-- Generator: Sketch 43.2 (39069) - http://www.bohemiancoding.com/sketch -->
    <title>theicons.co/svg/documents-19</title>
    <desc>Created with Sketch.</desc>
    <defs></defs>
    <g id="The-Icons" stroke="none" stroke-width="1" fill="none" fill-rule="evenodd">
        <path d="M35,14.3985099 L35,17.8535285 C40.8259619,19.9127106 45,25.4689059 45,32 C45,40.2842712 38.2842712,47 30,47 C25.0925465,47 20.7355204,44.6433401 17.9989014,41 L7.0042577,41 C4.79276724,41 3,39.2035752 3,36.9999745 L3,5.00002553 C3,2.79087243 4.79176129,1 6.99094127,1 L21.6055819,1 C22.1573996,1 22.923594,1.31897704 23.3066744,1.70220075 L34.2980619,12.6977016 C34.6857316,13.0855164 35,13.8559261 35,14.3985099 Z M30.9999993,15 L21.0006104,5.00061035 L21.0006104,15 L30.9999993,15 Z M6.99094127,5 L7,36.9999745 C7,36.9999745 11.0673663,36.9981819 15.8529625,36.9983983 C15.3005658,35.4349563 15,33.7525786 15,32 C15,26.4430743 18.0217165,21.5919082 22.5116513,19 L19.0006104,19 C17.8960409,19 17.0006104,18.1045695 17.0006104,17 L17.0006104,5 L6.99094127,5 Z M41,32 C41,25.9248678 36.0751322,21 30,21 C23.9248678,21 19,25.9248678 19,32 C19,38.0751322 23.9248678,43 30,43 C36.0751322,43 41,38.0751322 41,32 Z M33.1301266,38.2062848 C33.1301266,38.2062848 29.9574678,36.5556882 29.9882967,36.5394805 L26.8178466,38.2062848 C25.9723786,38.6507736 25.1578952,38.0582133 25.3192427,37.1174853 C25.3192427,37.1174853 25.9086478,33.5900452 25.9335889,33.6143567 L23.3686409,31.1141503 C22.684643,30.4474171 22.9965121,29.4896862 23.9410567,29.3524358 C23.9410567,29.3524358 27.4779878,28.8229544 27.4625734,28.8541875 L29.0477984,25.6421707 C29.4705324,24.7856181 30.4777615,24.7862681 30.9001747,25.6421707 C30.9001747,25.6421707 32.4967132,28.8423734 32.4622455,28.837365 L36.0069165,29.3524358 C36.9521784,29.4897904 37.2628111,30.4479231 36.5793322,31.1141503 C36.5793322,31.1141503 34.0291162,33.6214657 34.0232284,33.5871373 L34.6287305,37.1174853 C34.7902005,38.0589277 33.9749529,38.6504363 33.1301266,38.2062848 Z" id="Combined-Shape" fill="#000000"></path>
    </g>
</svg>