<?xml version="1.0" encoding="UTF-8"?>
<svg width="48px" height="48px" viewBox="0 0 48 48" version="1.1" xmlns="http://www.w3.org/2000/svg" xmlns:xlink="http://www.w3.org/1999/xlink">
    <!-- Generator: Sketch 43.2 (39069) - http://www.bohemiancoding.com/sketch -->
    <title>theicons.co/svg/documents-06</title>
    <desc>Created with Sketch.</desc>
    <defs></defs>
    <g id="The-Icons" stroke="none" stroke-width="1" fill="none" fill-rule="evenodd">
        <path d="M8,8.00002553 C8,5.79087243 9.78902751,4 12.0042577,4 L35.9957423,4 C38.2072328,4 40,5.79642476 40,8.00002553 L40,39.9999745 C40,42.2091276 38.2109725,44 35.9957423,44 L12.0042577,44 C9.79276724,44 8,42.2035752 8,39.9999745 L8,8.00002553 Z M12,39.9999745 L35.9957423,40 L36,8.00002553 L12.0042577,8 L12,39.9999745 Z M20,12 C20,13.1122704 20.8945804,14 21.9981014,14 L26.0018986,14 C27.1132936,14 28,13.1045695 28,12 C28,10.8877296 27.1054196,10 26.0018986,10 L21.9981014,10 C20.8867064,10 20,10.8954305 20,12 Z M20,18 C20,16.8954305 20.8867064,16 21.9981014,16 L26.0018986,16 C27.1054196,16 28,16.8877296 28,18 C28,19.1045695 27.1132936,20 26.0018986,20 L21.9981014,20 C20.8945804,20 20,19.1122704 20,18 Z M19.7176907,23.9761648 C19.8736058,22.8847591 20.8867064,22 21.9981014,22 L26.0018986,22 C27.1054196,22 28.1266262,22.8863836 28.2823093,23.9761648 L29.2524297,30.7670079 C29.6653014,33.6571096 27.6291862,36 24.7191626,36 L23.2808374,36 C20.3643114,36 18.334755,33.6567148 18.7475703,30.7670079 L19.7176907,23.9761648 Z M22.7073683,31.3326933 C22.6386191,31.8139374 22.7997927,32 23.2808374,32 L24.7191626,32 C25.1970715,32 25.3609613,31.8110005 25.2926317,31.3326933 L24.5387573,26 L23.4682007,25.9999999 L22.7073683,31.3326933 Z" id="Combined-Shape" fill="#000000"></path>
    </g>
</svg>