<?xml version="1.0" encoding="UTF-8"?>
<svg width="48px" height="48px" viewBox="0 0 48 48" version="1.1" xmlns="http://www.w3.org/2000/svg" xmlns:xlink="http://www.w3.org/1999/xlink">
    <!-- Generator: Sketch 43.2 (39069) - http://www.bohemiancoding.com/sketch -->
    <title>theicons.co/svg/documents-12</title>
    <desc>Created with Sketch.</desc>
    <defs></defs>
    <g id="The-Icons" stroke="none" stroke-width="1" fill="none" fill-rule="evenodd">
        <path d="M2,9.99017859 C2,7.7864638 3.79975948,6 5.99029394,6 L18.0767644,6 C19.1835685,6 20.5701975,6.7477726 21.1746315,7.67133451 L24.0075684,12 L41.9918214,12 C44.2054773,12 46,13.7867947 46,15.9992748 L46,38.0007252 C46,40.2094637 44.2069088,42 41.99819,42 L6.00180999,42 C3.79167136,42 2,40.2147544 2,38.0098214 L2,9.99017859 Z M6,38.0098214 L41.99819,38 L42,15.9992748 L24.0075684,16 C22.658105,16 21.3996088,15.3195781 20.6606307,14.1904356 L18,10.0097802 L5.99029394,10 L6,38.0098214 Z M17.862928,23.9448407 C18.3178041,22.9335006 19.2364493,22.8239147 19.9084014,23.6918355 L22.7905122,27.4144876 C23.4653199,28.2860968 24.7285203,28.4701867 25.6270803,27.8146248 L26.205134,27.3928946 C27.0969196,26.7422751 28.2985638,26.9754922 28.8829814,27.9041067 L31.6562655,32.3107367 C32.2434141,33.2436908 31.8235673,33.9999996 30.718486,33.9999996 L15.3412689,33.9999999 C14.236199,33.9999999 13.7078282,33.1830028 14.1639889,32.1688067 L17.862928,23.9448407 Z M30.9342877,26 C29.2774335,26 27.9342877,24.6568542 27.9342877,23 C27.9342877,21.3431458 29.2774335,20 30.9342877,20 C32.591142,20 33.9342877,21.3431458 33.9342877,23 C33.9342877,24.6568542 32.591142,26 30.9342877,26 Z" id="Combined-Shape" fill="#000000"></path>
    </g>
</svg>