<?xml version="1.0" encoding="UTF-8"?>
<svg width="48px" height="48px" viewBox="0 0 48 48" version="1.1" xmlns="http://www.w3.org/2000/svg" xmlns:xlink="http://www.w3.org/1999/xlink">
    <!-- Generator: Sketch 43.2 (39069) - http://www.bohemiancoding.com/sketch -->
    <title>theicons.co/svg/documents-11</title>
    <desc>Created with Sketch.</desc>
    <defs></defs>
    <g id="The-Icons" stroke="none" stroke-width="1" fill="none" fill-rule="evenodd">
        <path d="M6,38.0098214 L41.99819,38 L42,15.9992748 L24.0075684,16 C22.658105,16 21.3996088,15.3195781 20.6606307,14.1904356 L18,10.0097802 L5.99029394,10 L6,38.0098214 Z M2,9.99017859 C2,7.7864638 3.79975948,6 5.99029394,6 L18.0767644,6 C19.1835685,6 20.5701975,6.7477726 21.1746315,7.67133451 L24.0075684,12 L41.9918214,12 C44.2054773,12 46,13.7867947 46,15.9992748 L46,38.0007252 C46,40.2094637 44.2069088,42 41.99819,42 L6.00180999,42 C3.79167136,42 2,40.2147544 2,38.0098214 L2,9.99017859 Z" id="Combined-Shape" fill="#000000" fill-rule="nonzero"></path>
    </g>
</svg>