<?xml version="1.0" encoding="UTF-8"?>
<svg width="48px" height="48px" viewBox="0 0 48 48" version="1.1" xmlns="http://www.w3.org/2000/svg" xmlns:xlink="http://www.w3.org/1999/xlink">
    <!-- Generator: Sketch 43.2 (39069) - http://www.bohemiancoding.com/sketch -->
    <title>theicons.co/svg/documents-07</title>
    <desc>Created with Sketch.</desc>
    <defs></defs>
    <g id="The-Icons" stroke="none" stroke-width="1" fill="none" fill-rule="evenodd">
        <path d="M2,9.99017859 C2,7.7864638 3.79309123,6 6.00180999,6 L41.99819,6 C44.2083286,6 46,7.7852456 46,9.99017859 L46,38.0098214 C46,40.2135362 44.2069088,42 41.99819,42 L6.00180999,42 C3.79167136,42 2,40.2147544 2,38.0098214 L2,9.99017859 Z M6,38.0098214 L41.99819,38 C42.001081,38 42,9.99017859 42,9.99017859 L6.00180999,10 C5.99891897,10 6,38.0098214 6,38.0098214 Z M16.0551816,18.8056279 C16.5485402,17.8154185 17.4296247,17.7714246 18.0148611,18.6943111 L21.4128124,24.0526981 C22.0017549,24.9814288 23.2396077,25.261544 24.1837138,24.674573 L26.1618064,23.4447504 C27.1031905,22.8594717 28.3814264,23.1076965 29.0288612,24.0160616 L33.5568641,30.3689476 C34.1989106,31.2697527 33.8211537,31.9999996 32.7179027,31.9999996 L11.4827515,32 C10.3773595,32 9.88273258,31.1942174 10.3745669,30.2070674 L16.0551816,18.8056279 Z M35,22 C33.3431458,22 32,20.6568542 32,19 C32,17.3431458 33.3431458,16 35,16 C36.6568542,16 38,17.3431458 38,19 C38,20.6568542 36.6568542,22 35,22 Z" id="Combined-Shape" fill="#000000"></path>
    </g>
</svg>