<?xml version="1.0" encoding="UTF-8"?>
<svg width="48px" height="48px" viewBox="0 0 48 48" version="1.1" xmlns="http://www.w3.org/2000/svg" xmlns:xlink="http://www.w3.org/1999/xlink">
    <!-- Generator: Sketch 43.2 (39069) - http://www.bohemiancoding.com/sketch -->
    <title>theicons.co/svg/documents-05</title>
    <desc>Created with Sketch.</desc>
    <defs></defs>
    <g id="The-Icons" stroke="none" stroke-width="1" fill="none" fill-rule="evenodd">
        <path d="M22,8 L11.9909413,8 L12,39.9999745 L35.9957423,40 C35.9957423,40 36.0001766,28.3434109 36.0001145,22 L24,22 C22.8954305,22 22,21.1045695 22,20 L22,8 Z M26,18 L35.9999993,18 L26,8 L26,18 Z M11.9909413,4 L26.6055819,4 C27.1573996,4 27.923594,4.31897704 28.3066744,4.70220075 L39.2980619,15.6977016 C39.6857316,16.0855164 40,16.8559261 40,17.3985099 L40,40.0014572 C40,42.2097914 38.2109725,44 35.9957423,44 L12.0042577,44 C9.79276724,44 8,42.2035752 8,39.9999745 L8,8.00002553 C8,5.79087243 9.79176129,4 11.9909413,4 Z M30.9625772,30 C29.3057229,30 27.9625772,28.6568542 27.9625772,27 C27.9625772,25.3431458 29.3057229,24 30.9625772,24 C32.6194314,24 33.9625772,25.3431458 33.9625772,27 C33.9625772,28.6568542 32.6194314,30 30.9625772,30 Z M17.8912175,27.9448407 C18.3460936,26.9335006 19.2647388,26.8239147 19.9366909,27.6918355 L22.8188017,31.4144876 C23.4936094,32.2860968 24.7568098,32.4701867 25.6553698,31.8146248 L26.2334235,31.3928946 C27.1252091,30.7422751 28.3268533,30.9754922 28.9112709,31.9041067 L31.6845549,36.3107367 C32.2717036,37.2436908 31.8518568,37.9999996 30.7467755,37.9999996 L15.3695584,37.9999999 C14.2644885,37.9999999 13.7361177,37.1830028 14.1922784,36.1688067 L17.8912175,27.9448407 Z" id="Combined-Shape" fill="#000000"></path>
    </g>
</svg>