<?xml version="1.0" encoding="UTF-8"?>
<svg width="48px" height="48px" viewBox="0 0 48 48" version="1.1" xmlns="http://www.w3.org/2000/svg" xmlns:xlink="http://www.w3.org/1999/xlink">
    <!-- Generator: Sketch 43.2 (39069) - http://www.bohemiancoding.com/sketch -->
    <title>theicons.co/svg/finance-17</title>
    <desc>Created with Sketch.</desc>
    <defs></defs>
    <g id="The-Icons" stroke="none" stroke-width="1" fill="none" fill-rule="evenodd">
        <path d="M32,12 L4,12 L4,14 L32,14 L32,12 Z M4,20 L4,28 L32,28 L32,20 L4,20 Z M36,22 L44,22 L44,20 L36,20 L36,22 Z M16,32 L16,36 L44,36 L44,28 L36,28 C36,30.2135924 34.2147544,32 32.0098214,32 L16,32 Z M36,16 L44.0098214,16 C46.2135362,16 48,17.7842933 48,19.990053 L48,36.009947 C48,38.2135924 46.2147544,40 44.0098214,40 L15.9901786,40 C13.7864638,40 12,38.2157067 12,36.009947 L12,32 L3.99017859,32 C1.7864638,32 0,30.2157067 0,28.009947 L0,11.990053 C0,9.78640758 1.7852456,8 3.99017859,8 L32.0098214,8 C34.2135362,8 36,9.78429328 36,11.990053 L36,16 Z" id="Combined-Shape" fill="#000000"></path>
    </g>
</svg>