<?xml version="1.0" encoding="UTF-8"?>
<svg width="48px" height="48px" viewBox="0 0 48 48" version="1.1" xmlns="http://www.w3.org/2000/svg" xmlns:xlink="http://www.w3.org/1999/xlink">
    <!-- Generator: Sketch 43.2 (39069) - http://www.bohemiancoding.com/sketch -->
    <title>theicons.co/svg/finance-51</title>
    <desc>Created with Sketch.</desc>
    <defs></defs>
    <g id="The-Icons" stroke="none" stroke-width="1" fill="none" fill-rule="evenodd">
        <path d="M40.9918888,20 C43.2055075,20 45,21.7842933 45,23.990053 L45,40.009947 C45,42.2135924 43.2087482,44 40.9918888,44 L7.00811116,44 C4.79449249,44 3,42.2157067 3,40.009947 L3,23.990053 C3,21.7864076 4.79125179,20 7.00811116,20 L8.27590013,20 L18.2425934,11.6944223 C18.0847074,11.1570852 18,10.5884348 18,10 C18,6.6862915 20.6862915,4 24,4 C27.3137085,4 30,6.6862915 30,10 C30,10.5884348 29.9152926,11.1570852 29.7574066,11.6944223 L39.7240999,20 L40.9918888,20 Z M27.4049958,14.9409131 C26.437627,15.6088367 25.264494,16 24,16 C22.735506,16 21.562373,15.6088367 20.5950042,14.9409131 L14.5240999,20 L33.4759001,20 L27.4049958,14.9409131 Z M7,40.009947 C7,40.0014545 40.9918888,40 40.9918888,40 C41.0020254,40 41,23.990053 41,23.990053 C41,23.9985455 7.00811116,24 7.00811116,24 C6.99797465,24 7,40.009947 7,40.009947 Z M26,10 C26,8.8954305 25.1045695,8 24,8 C22.8954305,8 22,8.8954305 22,10 C22,11.1045695 22.8954305,12 24,12 C25.1045695,12 26,11.1045695 26,10 Z" id="Combined-Shape" fill="#000000"></path>
    </g>
</svg>