<?xml version="1.0" encoding="UTF-8"?>
<svg width="48px" height="48px" viewBox="0 0 48 48" version="1.1" xmlns="http://www.w3.org/2000/svg" xmlns:xlink="http://www.w3.org/1999/xlink">
    <!-- Generator: Sketch 43.2 (39069) - http://www.bohemiancoding.com/sketch -->
    <title>theicons.co/svg/finance-21</title>
    <desc>Created with Sketch.</desc>
    <defs></defs>
    <g id="The-Icons" stroke="none" stroke-width="1" fill="none" fill-rule="evenodd">
        <path d="M11.3240698,6.87807472 C10.2871382,6.4974877 9.75506569,5.34836175 10.1356527,4.31143008 C10.5162397,3.2744984 11.6653657,2.74242593 12.7022973,3.12301294 C17.2823184,4.80402684 20.1781627,7.90473417 21.5836654,11.950495 L25,11.950495 C25.535577,11.950495 26.0487776,12.1653036 26.4246674,12.5468132 L40.8293528,27.1668541 C42.3749322,28.7355405 42.3703384,31.2595123 40.8132879,32.8206721 L29.8505293,43.8123637 C28.2933261,45.3736767 25.7615971,45.3783902 24.1950606,43.8275584 L9.59292885,29.3718151 C9.2134895,28.9961797 9,28.4844203 9,27.950495 L9,13.950495 C9,12.8459255 9.8954305,11.950495 11,11.950495 L17.2554488,11.950495 C16.1136776,9.65762813 14.2026752,7.93461476 11.3240698,6.87807472 Z M13,15.950495 L13,27.1202948 L27,40.950495 L38,29.950495 L24,15.950495 L22.4643316,15.950495 C22.6041789,17.2532231 22.6140665,18.5596601 22.5204343,19.8443002 C23.4231762,20.5777036 24,21.6967371 24,22.950495 C24,25.159634 22.209139,26.950495 20,26.950495 C17.790861,26.950495 16,25.159634 16,22.950495 C16,21.2525776 17.0579104,19.8017485 18.5505432,19.2211956 C18.610136,18.1312033 18.5781975,17.0299513 18.4333901,15.950495 L13,15.950495 Z" id="Combined-Shape" fill="#000000"></path>
    </g>
</svg>