<?xml version="1.0" encoding="UTF-8"?>
<svg width="48px" height="48px" viewBox="0 0 48 48" version="1.1" xmlns="http://www.w3.org/2000/svg" xmlns:xlink="http://www.w3.org/1999/xlink">
    <!-- Generator: Sketch 43.2 (39069) - http://www.bohemiancoding.com/sketch -->
    <title>theicons.co/svg/finance-01</title>
    <desc>Created with Sketch.</desc>
    <defs></defs>
    <g id="The-Icons" stroke="none" stroke-width="1" fill="none" fill-rule="evenodd">
        <path d="M9,26 L14.9914698,26 C16.1007504,26 17,26.9019504 17,28.0085302 L17,35.9914698 C17,37.1007504 16.0980496,38 14.9914698,38 L9,38 L9,40 L41,40 L41,8 L9,8 L9,10 L14.9914698,10 C16.1007504,10 17,10.9019504 17,12.0085302 L17,19.9914698 C17,21.1007504 16.0980496,22 14.9914698,22 L9,22 L9,26 Z M5,8.00002553 C5,5.79087243 6.79642476,4 9.00002553,4 L40.9999745,4 C43.2091276,4 45,5.79642476 45,8.00002553 L45,39.9999745 C45,42.2091276 43.2035752,44 40.9999745,44 L9.00002553,44 C6.79087243,44 5,42.2035752 5,39.9999745 L5,8.00002553 Z M9,14 L9,18 L13,18 L13,14 L9,14 Z M9,30 L9,34 L13,34 L13,30 L9,30 Z M29,20 C26.790861,20 25,21.790861 25,24 C25,26.209139 26.790861,28 29,28 C31.209139,28 33,26.209139 33,24 C33,23.8133028 32.9872094,23.6295931 32.9624567,23.4496992 L30.5782678,23.9655281 C29.4991539,24.1989988 28.8115174,23.5154389 29.0450616,22.4381762 L29.5650584,20.039602 C29.3804576,20.0135001 29.1918054,20 29,20 Z M29,32 C24.581722,32 21,28.418278 21,24 C21,19.581722 24.581722,16 29,16 C33.418278,16 37,19.581722 37,24 C37,28.418278 33.418278,32 29,32 Z" id="Combined-Shape" fill="#000000"></path>
    </g>
</svg>