<?xml version="1.0" encoding="UTF-8"?>
<svg width="48px" height="48px" viewBox="0 0 48 48" version="1.1" xmlns="http://www.w3.org/2000/svg" xmlns:xlink="http://www.w3.org/1999/xlink">
    <!-- Generator: Sketch 43.2 (39069) - http://www.bohemiancoding.com/sketch -->
    <title>theicons.co/svg/finance-22</title>
    <desc>Created with Sketch.</desc>
    <defs></defs>
    <g id="The-Icons" stroke="none" stroke-width="1" fill="none" fill-rule="evenodd">
        <path d="M34,22 C34,27.5200925 29.5166149,32 24,32 C18.4799075,32 14,27.5166149 14,22 L14,19.4648712 C12.8043973,18.7732524 12,17.4805647 12,16 C12,13.790861 13.790861,12 16,12 C18.209139,12 20,13.790861 20,16 C20,17.4805647 19.1956027,18.7732524 18,19.4648712 L18,22 C18,25.3081704 20.6897416,28 24,28 C27.3081704,28 30,25.3102584 30,22 L30,19.4648712 C28.8043973,18.7732524 28,17.4805647 28,16 C28,13.790861 29.790861,12 32,12 C34.209139,12 36,13.790861 36,16 C36,17.4805647 35.1956027,18.7732524 34,19.4648712 L34,22 Z M6,8.00002553 C6,5.79087243 7.7852456,4 9.99017859,4 L38.0098214,4 C40.2135362,4 42,5.79642476 42,8.00002553 L42,39.9999745 C42,42.2091276 40.2147544,44 38.0098214,44 L9.99017859,44 C7.7864638,44 6,42.2035752 6,39.9999745 L6,8.00002553 Z M10,8 L10,40 L38,40 L38,8 L10,8 Z" id="Combined-Shape" fill="#000000"></path>
    </g>
</svg>