<?xml version="1.0" encoding="UTF-8"?>
<svg width="48px" height="48px" viewBox="0 0 48 48" version="1.1" xmlns="http://www.w3.org/2000/svg" xmlns:xlink="http://www.w3.org/1999/xlink">
    <!-- Generator: Sketch 43.2 (39069) - http://www.bohemiancoding.com/sketch -->
    <title>theicons.co/svg/finance-16</title>
    <desc>Created with Sketch.</desc>
    <defs></defs>
    <g id="The-Icons" stroke="none" stroke-width="1" fill="none" fill-rule="evenodd">
        <path d="M28,26.0075441 C28,23.2419539 30.2441952,21 33,21 C35.7614237,21 38,23.2347797 38,26.0075441 L38,28.0000077 C39.105111,28.003128 40,28.8886662 40,29.9981014 L40,34.0018986 C40,35.1054196 39.1029399,36 37.9941413,36 L28.0058587,36 C26.8980535,36 26,35.1132936 26,34.0018986 L26,29.9981014 C26,28.8965247 26.8939019,28.0031529 28,28.0000083 L28,26.0075441 Z M32,28 L34,28 L34,26.0075441 C34,25.4459331 33.5542976,25 33,25 C32.4520491,25 32,25.45238 32,26.0075441 L32,28 Z M18,29 C18,24.6538917 19.848356,20.73949 22.801863,18 L4,18 L4,32 L18.3000543,32 C18.1032908,31.0306702 18,30.0273975 18,29 Z M48,29 C48,37.2842712 41.2842712,44 33,44 C27.243913,44 22.2450814,40.7578043 19.7300943,36.000002 L4.00180999,36 C1.79167136,36 0,34.2109725 0,31.9957423 L0,8.0042577 C0,5.79276724 1.79309123,4 4.00180999,4 L39.99819,4 C42.2083286,4 44,5.78902751 44,8.0042577 L44,18.801863 C46.4823491,21.4781405 48,25.0618371 48,29 Z M40,8 L4,8 L4,12 L40,12 L40,8 Z M33,40 C39.0751322,40 44,35.0751322 44,29 C44,22.9248678 39.0751322,18 33,18 C26.9248678,18 22,22.9248678 22,29 C22,35.0751322 26.9248678,40 33,40 Z" id="Combined-Shape" fill="#000000"></path>
    </g>
</svg>