<?xml version="1.0" encoding="UTF-8"?>
<svg width="48px" height="48px" viewBox="0 0 48 48" version="1.1" xmlns="http://www.w3.org/2000/svg" xmlns:xlink="http://www.w3.org/1999/xlink">
    <!-- Generator: Sketch 43.2 (39069) - http://www.bohemiancoding.com/sketch -->
    <title>theicons.co/svg/finance-28</title>
    <desc>Created with Sketch.</desc>
    <defs></defs>
    <g id="The-Icons" stroke="none" stroke-width="1" fill="none" fill-rule="evenodd">
        <path d="M8.802508,24.0003422 L10.1611506,29.0003422 L36.9346569,29.0003422 L38.2998224,24.0003422 L8.802508,24.0003422 Z M41.5445963,20.0003422 C42.64767,20.0003422 43.3066808,20.8627683 43.0146865,21.933414 L38.0690893,40.0672705 C37.777924,41.1348765 36.6419904,42.0003422 35.5506436,42.0003422 L11.5331322,42.0003422 C10.4333983,42.0003422 9.30668077,41.1379162 9.0146865,40.0672705 L4.06908926,21.933414 C3.77792398,20.8658079 4.43342771,20.0003422 5.5391795,20.0003422 L10.3812428,20.0003422 L17.8054016,7.00806436 C18.3534215,6.04902947 19.5751309,5.71583602 20.5341658,6.26385596 C21.4932006,6.81187589 21.8263941,8.03358522 21.2783742,8.99262012 L14.9882472,20.0003422 L32.0955285,20.0003422 L25.8054016,8.99262012 C25.2573817,8.03358522 25.5905751,6.81187589 26.54961,6.26385596 C27.5086449,5.71583602 28.7303542,6.04902947 29.2783742,7.00806436 L36.7025329,20.0003422 L41.5445963,20.0003422 Z M12.6067072,38.0003422 L34.4773588,38.0003422 L35.8425244,33.0003422 L11.2480646,33.0003422 L12.6067072,38.0003422 Z" id="Combined-Shape" fill="#000000"></path>
    </g>
</svg>