<?xml version="1.0" encoding="UTF-8"?>
<svg width="48px" height="48px" viewBox="0 0 48 48" version="1.1" xmlns="http://www.w3.org/2000/svg" xmlns:xlink="http://www.w3.org/1999/xlink">
    <!-- Generator: Sketch 43.2 (39069) - http://www.bohemiancoding.com/sketch -->
    <title>theicons.co/svg/finance-03</title>
    <desc>Created with Sketch.</desc>
    <defs></defs>
    <g id="The-Icons" stroke="none" stroke-width="1" fill="none" fill-rule="evenodd">
        <path d="M3.19232734,14.0462949 C2.93470103,13.0853585 2.3306503,12.3517634 1.16669224,11.8179079 C0.162689429,11.3574167 -0.277913794,10.1702098 0.182577396,9.16620694 C0.643068587,8.16220413 1.83027554,7.72160091 2.83427836,8.1820921 C5.09789395,9.22031135 6.76611281,11.105404 7.21761213,13.7499817 C8.39357678,13.0975223 9.67339368,12.6094486 11.02603,12.3167782 C11.3751663,7.66538548 15.2597775,4 20.0004853,4 C24.3257708,4 27.9384233,7.05114498 28.8035158,11.1185081 L34.0883704,7.8336402 C35.8909664,6.713214 38.0004853,7.87333995 38.0004853,10.0010537 C38.0004853,10.0010537 38.0004853,14.1508181 37.9786639,14.4950779 C40.5336786,16.2709962 42.4350183,18.8672909 43.3643712,22 C43.8109101,21.9999997 44.998012,22 44.998012,22 C46.6464186,22 48.0004853,23.3381121 48.0004853,24.9953976 L48.0004853,33.0046024 C48.0004853,34.6524344 46.6527024,36 44.998012,36 C44.998012,36 40.0004853,36 39.7941769,35.9891867 C38.9199337,36.8181898 38.0004853,37.4805298 38.0004853,37.4805298 L38.0004853,40.9975267 C38.0004853,42.6466579 36.6608958,44 35.0034552,44 L28.9975154,44 C27.3462755,44 26.0004853,42.6530687 26.0004853,40.9975267 L26.0004853,40 L18.0004853,40 L18.0004853,40.9975267 C18.0004853,42.6466579 16.6608958,44 15.0034552,44 L8.99751544,44 C7.34627553,44 6.0004853,42.6530687 6.0004853,40.9975267 C6.0004853,40.9975267 5.98046577,37.8150765 5.98046577,37.4775304 C2.28165479,34.8906986 0.000485297404,30.6430983 0.000485297404,26 C0.000485297404,22.7670054 1.0960874,19.7902591 2.93629663,17.4205861 C2.94926395,17.3805055 3.61270483,15.614287 3.19232734,14.0462949 Z M27.4849363,18 L28.0096902,18 C29.1022729,18 30.0004853,18.8954305 30.0004853,20 C30.0004853,21.1122704 29.109176,22 28.0096902,22 L11.9912804,22 C10.8986977,22 10.0004853,21.1045695 10.0004853,20 C10.0004853,18.8877296 10.8917946,18 11.9912804,18 L12.5160343,18 C12.1586512,17.4660973 11.8568805,16.891823 11.6190094,16.2854642 C7.24552784,17.3539246 4.0004853,21.2973737 4.0004853,26 C4.0004853,32.6867676 10.0004853,35.2405437 10.0004853,35.2405437 L10.0004853,40 L14.0004853,40 L14.0004853,36 L30.0004853,36 L29.970456,40 L34.0004853,40.0100098 L34.0004853,35.2408987 C34.0004853,35.2408987 36.5056152,34.015625 38.0510956,32 C40.4298096,32 44.0004853,32.0300293 44.0004853,32.0300293 L44.0004853,26 C44.0004853,26 41.2052002,26 40.1421776,26 C39.7941769,19.0610352 34.0004853,16.7594563 34.0004853,16.7594563 L34.0004853,12.6092295 L28.5271571,16 C28.2366918,16.712058 27.8979508,17.3829884 27.4849363,18 Z M34.0004853,26 C32.8959158,26 32.0004853,25.1045695 32.0004853,24 C32.0004853,22.8954305 32.8959158,22 34.0004853,22 C35.1050548,22 36.0004853,22.8954305 36.0004853,24 C36.0004853,25.1045695 35.1050548,26 34.0004853,26 Z M20.0004853,18 C22.761909,18 25.0004853,15.7614237 25.0004853,13 C25.0004853,10.2385763 22.761909,8 20.0004853,8 C17.2390615,8 15.0004853,10.2385763 15.0004853,13 C15.0004853,15.7614237 17.2390615,18 20.0004853,18 Z" id="Combined-Shape" fill="#000000"></path>
    </g>
</svg>