<?xml version="1.0" encoding="UTF-8"?>
<svg width="48px" height="48px" viewBox="0 0 48 48" version="1.1" xmlns="http://www.w3.org/2000/svg" xmlns:xlink="http://www.w3.org/1999/xlink">
    <!-- Generator: Sketch 43.2 (39069) - http://www.bohemiancoding.com/sketch -->
    <title>theicons.co/svg/finance-04</title>
    <desc>Created with Sketch.</desc>
    <defs></defs>
    <g id="The-Icons" stroke="none" stroke-width="1" fill="none" fill-rule="evenodd">
        <path d="M30.3412287,7.6724035 C27.4582885,8.77126833 24.9091562,8.93435531 23.9950175,8.93352456 C23.0809887,8.93435531 20.5318564,8.77126833 17.6489161,7.6724035 C17.8646313,8.23683965 18.4381242,9.66950934 18.9465375,10.9335153 L29.0436073,10.9335153 C29.5520207,9.66950934 30.1255136,8.23683965 30.3412287,7.6724035 Z M36,15.9335153 C36,17.5452147 35.2382122,18.9788088 34.0540084,19.8931818 C37.3846342,23.4338264 40,27.9885076 40,31.9335153 C40,40.4972534 33.2270631,45.9335153 24,45.9335153 C14.7729369,45.9335153 8,40.4972534 8,31.9335153 C8,27.9879193 10.6161459,23.432468 13.9474848,19.8915946 C12.7629264,18.9762015 12,17.5420045 12,15.9335153 C12,13.9453533 13.1592294,12.2282183 14.8406307,11.4224415 L12.1405331,4.67672646 C11.4472362,2.94464725 13.2103376,1.4937579 14.9392286,2.16920301 C17.648916,3.22782678 20.7066156,4.43115913 21.8873482,4.70669095 C22.8590242,4.93343802 23.3690728,4.93484965 23.9950724,4.93352121 C24.6210721,4.93484965 25.1311207,4.93343802 26.1027967,4.70669095 C27.2835293,4.43115913 30.3412289,3.22782678 33.0509163,2.16920301 C34.7798072,1.4937579 36.5429086,2.94464725 35.8496118,4.67672646 L33.1505596,11.4198297 C34.8357128,12.2254166 36,13.9464739 36,15.9335153 Z M17.0535827,22.4514963 C13.9205921,25.5700485 12,29.0438022 12,31.9335153 C12,38.0707759 16.8125147,41.9335153 24,41.9335153 C31.1874853,41.9335153 36,38.0707759 36,31.9335153 C36,29.0438022 34.0794079,25.5700485 30.9464173,22.4514963 C30.4032111,21.9107935 29.8397382,21.4014873 29.2770219,20.9335153 L18.7229781,20.9335153 C18.1602618,21.4014873 17.5967889,21.9107935 17.0535827,22.4514963 Z M16,15.9335153 C16,16.4824632 16.45088,16.9335153 17.0019727,16.9335153 L30.9980273,16.9335153 C31.553427,16.9335153 32,16.4869241 32,15.9335153 C32,15.3845673 31.54912,14.9335153 30.9980273,14.9335153 L17.0019727,14.9335153 C16.446573,14.9335153 16,15.3801064 16,15.9335153 Z M26,24.9335153 C27.1045695,24.9335153 28,25.8289458 28,26.9335153 C28,28.0380848 27.1045695,28.9335153 26,28.9335153 L24,28.9335153 C22.8954305,28.9335153 22,29.8289458 22,30.9335153 C22,32.0380848 22.8954305,32.9335153 24,32.9335153 L26,32.9335153 C27.1045695,32.9335153 28,33.8289458 28,34.9335153 C28,36.0380848 27.1045695,36.9335153 26,36.9335153 L24,36.9335153 C20.6862915,36.9335153 18,34.2472238 18,30.9335153 C18,27.6198068 20.6862915,24.9335153 24,24.9335153 L26,24.9335153 Z" id="Combined-Shape" fill="#000000"></path>
    </g>
</svg>