<?xml version="1.0" encoding="UTF-8"?>
<svg width="48px" height="48px" viewBox="0 0 48 48" version="1.1" xmlns="http://www.w3.org/2000/svg" xmlns:xlink="http://www.w3.org/1999/xlink">
    <!-- Generator: Sketch 43.2 (39069) - http://www.bohemiancoding.com/sketch -->
    <title>theicons.co/svg/finance-47</title>
    <desc>Created with Sketch.</desc>
    <defs></defs>
    <g id="The-Icons" stroke="none" stroke-width="1" fill="none" fill-rule="evenodd">
        <path d="M34,12.0018311 C32.8954305,12.0018311 32,11.1064006 32,10.0018311 C32,8.89726156 32.8954305,8.00183105 34,8.00183105 L39.8336632,8.00183105 C40.914324,7.91843964 42,8.73508899 42,10 L42,16 C42,17.1045695 41.1045695,18 40,18 C38.8954305,18 38,17.1045695 38,16 L38,14.8422852 L29.4142136,23.4142136 C28.633165,24.1952621 27.366835,24.1952621 26.5857864,23.4142136 L20.8310867,17.6595139 L13.8799631,36.6834585 C13.5024994,37.7215312 12.3549804,38.2570606 11.3169077,37.8795969 C10.278835,37.5021332 9.74330561,36.3546142 10.1207693,35.3165415 L18.1204031,13.3165415 C18.6204391,11.9413796 20.3795382,11.5511111 21.4142136,12.5857864 L28.0224289,19.1940018 L35.1841869,12.0018311 L34,12.0018311 Z M8,40 L42.0027084,40 C43.1057821,40 44,40.8877296 44,42 C44,43.1045695 43.1084602,44 42.0027084,44 L5.99729162,44 C5.44620226,44 4.94724215,43.7784276 4.5858732,43.4179797 C4.22349185,43.0540909 4,42.5551324 4,42.0027084 L4,5.99729162 C4,4.89421792 4.88772964,4 6,4 C7.1045695,4 8,4.89153983 8,5.99729162 L8,40 Z" id="Combined-Shape" fill="#000000"></path>
    </g>
</svg>