<?xml version="1.0" encoding="UTF-8"?>
<svg width="48px" height="48px" viewBox="0 0 48 48" version="1.1" xmlns="http://www.w3.org/2000/svg" xmlns:xlink="http://www.w3.org/1999/xlink">
    <!-- Generator: Sketch 43.2 (39069) - http://www.bohemiancoding.com/sketch -->
    <title>theicons.co/svg/finance-49</title>
    <desc>Created with Sketch.</desc>
    <defs></defs>
    <g id="The-Icons" stroke="none" stroke-width="1" fill="none" fill-rule="evenodd">
        <path d="M28,14 C30.124298,14 31.9917113,15.1046847 33.0579758,16.7700162 C33.9276392,16.2797601 34.9315316,16 36,16 C39.3122686,16 42,18.6857068 42,21.9947834 L42,33.9920273 C42,40.6203702 36.6248874,46 30.0066283,46 L17.9933717,46 C11.3685051,46 6,40.6241903 6,33.9920273 L6,7.9992748 C6,4.68708903 8.68966251,2 12,2 C15.3146314,2 18,4.68314665 18,7.9992748 L18,14.3417202 C18.6257541,14.1204275 19.2989781,14 20,14 C21.5364479,14 22.9385132,14.5778873 24.0002672,15.5278188 C25.0623108,14.5778024 26.4644694,14 28,14 Z M26,19.9947834 L26,24 C26,25.1045695 25.1045695,26 24,26 C22.8954305,26 22,25.1045695 22,24 L22,19.9947834 C22,18.8955208 21.1038041,18 20,18 C18.8974426,18 18,18.895577 18,19.9947834 L18,24 C18,25.1045695 17.1045695,26 16,26 C14.8954305,26 14,25.1045695 14,24 L14,7.9992748 C14,6.8930272 13.1062333,6 12,6 C10.8979448,6 10,6.89708564 10,7.9992748 L10,33.9920273 C10,38.4162679 13.5788625,42 17.9933717,42 L30.0066283,42 C34.4149959,42 38,38.4119831 38,33.9920273 L38,21.9947834 C38,20.8955208 37.1038041,20 36,20 C34.8974426,20 34,20.895577 34,21.9947834 L34,24 C34,25.1045695 33.1045695,26 32,26 C30.8954305,26 30,25.1045695 30,24 L30,19.9947834 C30,18.8955208 29.1038041,18 28,18 C26.8974426,18 26,18.895577 26,19.9947834 Z" id="Combined-Shape" fill="#000000"></path>
    </g>
</svg>