<?xml version="1.0" encoding="UTF-8"?>
<svg width="48px" height="48px" viewBox="0 0 48 48" version="1.1" xmlns="http://www.w3.org/2000/svg" xmlns:xlink="http://www.w3.org/1999/xlink">
    <!-- Generator: Sketch 43.2 (39069) - http://www.bohemiancoding.com/sketch -->
    <title>theicons.co/svg/finance-41</title>
    <desc>Created with Sketch.</desc>
    <defs></defs>
    <g id="The-Icons" stroke="none" stroke-width="1" fill="none" fill-rule="evenodd">
        <path d="M32.4142136,29.5857864 C31.633165,28.8047379 30.366835,28.8047379 29.5857864,29.5857864 C28.8047379,30.366835 28.8047379,31.633165 29.5857864,32.4142136 L33.1715729,36 L29.5857864,39.5857864 C28.8047379,40.366835 28.8047379,41.633165 29.5857864,42.4142136 C30.366835,43.1952621 31.633165,43.1952621 32.4142136,42.4142136 L36,38.8284271 L39.5857864,42.4142136 C40.366835,43.1952621 41.633165,43.1952621 42.4142136,42.4142136 C43.1952621,41.633165 43.1952621,40.366835 42.4142136,39.5857864 L38.8284271,36 L42.4142136,32.4142136 C43.1952621,31.633165 43.1952621,30.366835 42.4142136,29.5857864 C41.633165,28.8047379 40.366835,28.8047379 39.5857864,29.5857864 L36,33.1715729 L32.4142136,29.5857864 Z M29.9940603,10 C28.8945138,10 28,10.8954305 28,12 C28,13.1122704 28.8927712,14 29.9940603,14 L34,14 L34,18.0059397 C34,19.1054862 34.8954305,20 36,20 C37.1122704,20 38,19.1072288 38,18.0059397 L38,14 L42.0059397,14 C43.1054862,14 44,13.1045695 44,12 C44,10.8877296 43.1072288,10 42.0059397,10 L38,10 L38,5.99406028 C38,4.89451376 37.1045695,4 36,4 C34.8877296,4 34,4.8927712 34,5.99406028 L34,10 L29.9940603,10 Z M4,12 C4,10.8954305 4.89451376,10 5.99406028,10 L18.0059397,10 C19.1072288,10 20,10.8877296 20,12 C20,13.1045695 19.1054862,14 18.0059397,14 L5.99406028,14 C4.8927712,14 4,13.1122704 4,12 Z M4,39 C4,37.8954305 4.89451376,37 5.99406028,37 L18.0059397,37 C19.1072288,37 20,37.8877296 20,39 C20,40.1045695 19.1054862,41 18.0059397,41 L5.99406028,41 C4.8927712,41 4,40.1122704 4,39 Z M4,33 C4,31.8954305 4.89451376,31 5.99406028,31 L18.0059397,31 C19.1072288,31 20,31.8877296 20,33 C20,34.1045695 19.1054862,35 18.0059397,35 L5.99406028,35 C4.8927712,35 4,34.1122704 4,33 Z" id="Combined-Shape" fill="#000000"></path>
    </g>
</svg>