<?xml version="1.0" encoding="UTF-8"?>
<svg width="48px" height="48px" viewBox="0 0 48 48" version="1.1" xmlns="http://www.w3.org/2000/svg" xmlns:xlink="http://www.w3.org/1999/xlink">
    <!-- Generator: Sketch 43.2 (39069) - http://www.bohemiancoding.com/sketch -->
    <title>theicons.co/svg/finance-30</title>
    <desc>Created with Sketch.</desc>
    <defs></defs>
    <g id="The-Icons" stroke="none" stroke-width="1" fill="none" fill-rule="evenodd">
        <path d="M24,45 C21.790861,45 20,43.209139 20,41 C20,38.790861 21.790861,37 24,37 C25.4805647,37 26.7732524,37.8043973 27.4648712,39 L32.0088057,39 C34.2072686,39 36,37.2046741 36,34.9946773 L36,18.9958407 C36,12.3737446 30.6258706,7 24,7 C17.3713746,7 12,12.3702293 12,18.9958407 L12,30.002848 C12,32.7623098 9.75844486,35 7,35 C4.23894111,35 2,32.7633122 2,30.002848 L2,23.997152 C2,21.2376902 4.24155514,19 7,19 L8,19 C8,10.1608993 15.1624266,3 24,3 C32.8349454,3 40,10.1645415 40,18.9958407 L41,19 C43.7584449,19 46,21.2376902 46,23.997152 L46,30.002848 C46,32.7633122 43.7610589,35 41,35 L39.9999984,35 C39.9971223,39.4154003 36.4159329,43 32.0088057,43 L27.4648712,43 C26.7732524,44.1956027 25.4805647,45 24,45 Z M7,23 C6.44915035,23 6,23.4483759 6,23.997152 L6,30.002848 C6,30.553271 6.44717899,31 7,31 C7.55084965,31 8,30.5516241 8,30.002848 L8,23 L7,23 Z M42,30.002848 L42,23.997152 C42,23.4483759 41.5508497,23 41,23 L40,23 L40,31 L41,31 C41.552821,31 42,30.553271 42,30.002848 Z M19,29 C17.3431458,29 16,27.6568542 16,26 C16,24.3431458 17.3431458,23 19,23 C20.6568542,23 22,24.3431458 22,26 C22,27.6568542 20.6568542,29 19,29 Z M29,29 C27.3431458,29 26,27.6568542 26,26 C26,24.3431458 27.3431458,23 29,23 C30.6568542,23 32,24.3431458 32,26 C32,27.6568542 30.6568542,29 29,29 Z" id="Combined-Shape" fill="#000000"></path>
    </g>
</svg>