<?xml version="1.0" encoding="UTF-8"?>
<svg width="48px" height="48px" viewBox="0 0 48 48" version="1.1" xmlns="http://www.w3.org/2000/svg" xmlns:xlink="http://www.w3.org/1999/xlink">
    <!-- Generator: Sketch 43.2 (39069) - http://www.bohemiancoding.com/sketch -->
    <title>theicons.co/svg/finance-54</title>
    <desc>Created with Sketch.</desc>
    <defs></defs>
    <g id="The-Icons" stroke="none" stroke-width="1" fill="none" fill-rule="evenodd">
        <path d="M42.0027084,33 C43.1057821,33 44,33.8874333 44,34.999615 L44,41.000385 C44,42.1047419 43.1084602,43 42.0027084,43 L8,43 L8,44.9938589 C8,46.10182 7.11227036,47 6,47 C4.8954305,47 4,46.1017583 4,44.9938589 L4,3.0061411 C4,1.89817996 4.88772964,1 6,1 C7.1045695,1 8,1.89824172 8,3.0061411 L8,5 L22.0092049,5 C23.1086907,5 24,5.88743329 24,6.99961498 L24,13.000385 C24,14.1047419 23.1017876,15 22.0092049,15 L8,15 L8,19 L33.9982567,19 C35.103789,19 36,19.8874333 36,20.999615 L36,27.000385 C36,28.1047419 35.1107383,29 33.9982567,29 L8,29 L8,33 L42.0027084,33 Z M20,9 L8,9 L8,11 L20,11 L20,9 Z M32,23 L8,23 L8,25 L32,25 L32,23 Z M40,37 L8,37 L8,39 L40,39 L40,37 Z" id="Combined-Shape" fill="#000000"></path>
    </g>
</svg>