<?xml version="1.0" encoding="UTF-8"?>
<svg width="48px" height="48px" viewBox="0 0 48 48" version="1.1" xmlns="http://www.w3.org/2000/svg" xmlns:xlink="http://www.w3.org/1999/xlink">
    <!-- Generator: Sketch 43.2 (39069) - http://www.bohemiancoding.com/sketch -->
    <title>theicons.co/svg/finance-35</title>
    <desc>Created with Sketch.</desc>
    <defs></defs>
    <g id="The-Icons" stroke="none" stroke-width="1" fill="none" fill-rule="evenodd">
        <path d="M46,32 C46,40.2842712 39.2842712,47 31,47 C25.9087038,47 21.4098476,44.4634627 18.6982228,40.5851794 L16.0062076,39.2391718 L12.8973055,40.7886359 C12.3343192,41.0703009 11.6715746,41.0704627 11.1084508,40.7890726 L8.00568447,39.2386358 L4.89442719,40.7888544 C3.56462501,41.4537555 2,40.486764 2,39 L2,4.99970728 C2,2.78894535 3.78647255,1 6.00174332,1 L33.9982567,1 C36.2089408,1 38,2.78589582 38,4.99970728 L38,18.7300932 C42.7578034,21.24508 46,26.2439122 46,32 Z M33.9982567,5 L6,4.99970728 L6,35.7611084 L7.10557281,35.2111456 C7.66847418,34.9296949 8.33102061,34.9296141 8.89399065,35.2109274 L12.0200195,36.7710059 L15.1051359,35.2113641 C15.4803925,35.0236213 15.8999656,34.9609477 16.3048137,35.0233505 C16.1049567,34.0467853 16,33.0356496 16,32 C16,30.9726025 16.1032908,29.9693298 16.3000543,29 L12.0008642,29 C10.8958174,29 10,28.1122704 10,27 C10,25.8954305 10.9016273,25 12.0008642,25 L17.7300932,25 C20.24508,20.2421966 25.2439122,17 31,17 C32.0290507,17 33.0338988,17.1036235 34.004679,17.3010049 C34.0024838,10.763135 33.9982567,5 33.9982567,5 Z M10,19 C10,17.8954305 10.8867064,17 11.9981014,17 L16.0018986,17 C17.1054196,17 18,17.8877296 18,19 C18,20.1045695 17.1132936,21 16.0018986,21 L11.9981014,21 C10.8945804,21 10,20.1122704 10,19 Z M10,11 C10,9.8954305 10.8982124,9 11.9907951,9 L28.0092049,9 C29.1086907,9 30,9.88772964 30,11 C30,12.1045695 29.1017876,13 28.0092049,13 L11.9907951,13 C10.8913093,13 10,12.1122704 10,11 Z M31,43 C37.0751322,43 42,38.0751322 42,32 C42,25.9248678 37.0751322,21 31,21 C24.9248678,21 20,25.9248678 20,32 C20,38.0751322 24.9248678,43 31,43 Z M27.5857001,38.4141272 L23.5861884,34.4141272 C22.8051875,33.633031 22.8052648,32.366701 23.586361,31.5857001 C24.3674573,30.8046992 25.6337873,30.8047765 26.4147882,31.5858728 L29.0233688,34.1947719 L35.5857864,27.5857864 C36.366835,26.8047379 37.633165,26.8047379 38.4142136,27.5857864 C39.1952621,28.366835 39.1952621,29.633165 38.4142136,30.4142136 L30.4142136,38.4142136 C29.6331313,39.1952959 28.3667347,39.1952572 27.5857001,38.4141272 Z" id="Combined-Shape" fill="#000000"></path>
    </g>
</svg>