<?xml version="1.0" encoding="UTF-8"?>
<svg width="48px" height="48px" viewBox="0 0 48 48" version="1.1" xmlns="http://www.w3.org/2000/svg" xmlns:xlink="http://www.w3.org/1999/xlink">
    <!-- Generator: Sketch 43.2 (39069) - http://www.bohemiancoding.com/sketch -->
    <title>theicons.co/svg/finance-26</title>
    <desc>Created with Sketch.</desc>
    <defs></defs>
    <g id="The-Icons" stroke="none" stroke-width="1" fill="none" fill-rule="evenodd">
        <path d="M11.5007403,9.05603578 L43.3117204,11.0066834 C44.4128513,11.0680907 45.1400283,12.0036535 44.9388675,13.0805194 L42.3354502,27.0172835 C42.1329678,28.1012242 41.0744857,28.9799318 39.9706095,28.9799318 L16.1005524,28.9799318 L16.5622906,30.9799318 L38.9688234,30.9799318 C40.0733929,30.9799318 40.9688234,31.8753623 40.9688234,32.9799318 C40.9688234,34.0845013 40.0733929,34.9799318 38.9688234,34.9799318 L14.9688234,34.9799318 C14.0375114,34.9799318 13.2294553,34.337113 13.020041,33.4296508 L7.23501091,8.36118717 L4.10770841,6.79014097 C3.11928363,6.29709916 2.71769638,5.09613319 3.21073819,4.10770841 C3.70378001,3.11928363 4.90474597,2.71769638 5.89317075,3.21073819 L9.86155454,5.19023038 C10.3959835,5.45681194 10.7833136,5.94828007 10.9176058,6.53021276 L11.5007403,9.05603578 Z M38.6470013,24.9790697 L40.5410416,14.8397833 L12.4391717,13.1208128 L15.1770742,24.9799241 L38.6470013,24.9790697 Z M34.9688234,44.9799318 C32.7596844,44.9799318 30.9688234,43.1890708 30.9688234,40.9799318 C30.9688234,38.7707928 32.7596844,36.9799318 34.9688234,36.9799318 C37.1779624,36.9799318 38.9688234,38.7707928 38.9688234,40.9799318 C38.9688234,43.1890708 37.1779624,44.9799318 34.9688234,44.9799318 Z M16.9688234,44.9799318 C14.7596844,44.9799318 12.9688234,43.1890708 12.9688234,40.9799318 C12.9688234,38.7707928 14.7596844,36.9799318 16.9688234,36.9799318 C19.1779624,36.9799318 20.9688234,38.7707928 20.9688234,40.9799318 C20.9688234,43.1890708 19.1779624,44.9799318 16.9688234,44.9799318 Z" id="Combined-Shape" fill="#000000"></path>
    </g>
</svg>