<?xml version="1.0" encoding="UTF-8"?>
<svg width="48px" height="48px" viewBox="0 0 48 48" version="1.1" xmlns="http://www.w3.org/2000/svg" xmlns:xlink="http://www.w3.org/1999/xlink">
    <!-- Generator: Sketch 43.2 (39069) - http://www.bohemiancoding.com/sketch -->
    <title>theicons.co/svg/finance-53</title>
    <desc>Created with Sketch.</desc>
    <defs></defs>
    <g id="The-Icons" stroke="none" stroke-width="1" fill="none" fill-rule="evenodd">
        <path d="M22.0000221,18.9940063 C22.0070856,17.4930242 22.6422029,16.4413291 23.8753628,15.2157659 C24.0417843,15.0503696 24.6059785,14.5098551 24.6073798,14.5084957 C25.6570027,13.4902268 26.0016152,12.9092811 26.0000032,12.0035598 C25.9980303,10.8951447 25.1034951,10 24,10 C22.8954305,10 22,10.8954305 22,12 C22,13.1045695 21.1045695,14 20,14 C18.8954305,14 18,13.1045695 18,12 C18,8.6862915 20.6862915,6 24,6 C27.3120595,6 29.9941008,8.68386866 29.9999968,11.9964402 C30.0039761,14.2321457 29.1460837,15.6783753 27.3926014,17.3794782 C27.3678621,17.4034785 26.8305946,17.9181964 26.6950376,18.0529183 C26.1454818,18.5990887 26.0007974,18.8386725 25.9999779,19.0128296 C25.9960043,19.857212 25.9980728,22.6452726 25.9980728,22.6452726 C25.9980728,22.6452726 42.0116889,28.7464682 42.9354494,29.2353169 C45.9998653,30.8569879 48,33.1173145 48,36 C48,39.3122249 45.3096307,42 41.9999745,42 L6.00002553,42 C2.68750954,42 0,39.3104214 0,36 C0,33.1059121 2.12917659,30.6963973 5.10849055,29.2127542 C5.99107005,28.773246 21.9981011,22.6524669 21.9981011,22.6524669 C21.9968195,21.4802138 21.9960183,19.8448158 22.0000221,18.9940063 Z M41.0644995,32.7707866 C40.3546157,32.3951203 25.3093214,26.6215629 25.1782919,26.5730121 C24.5939157,26.3550736 23.4165291,26.3569612 22.832825,26.5768276 C22.7056826,26.6245395 7.60219702,32.4394655 6.89156052,32.7933493 C5.12481355,33.6731565 4,34.9460688 4,36 C4,37.1019712 4.89733793,38 6.00002553,38 L41.9999745,38 C43.101355,38 44,37.1022216 44,36 C44,34.9499682 42.9586635,33.7731671 41.0644995,32.7707866 Z" id="Combined-Shape" fill="#000000"></path>
    </g>
</svg>