<?xml version="1.0" encoding="UTF-8"?>
<svg width="48px" height="48px" viewBox="0 0 48 48" version="1.1" xmlns="http://www.w3.org/2000/svg" xmlns:xlink="http://www.w3.org/1999/xlink">
    <!-- Generator: Sketch 43.2 (39069) - http://www.bohemiancoding.com/sketch -->
    <title>theicons.co/svg/finance-34</title>
    <desc>Created with Sketch.</desc>
    <defs></defs>
    <g id="The-Icons" stroke="none" stroke-width="1" fill="none" fill-rule="evenodd">
        <path d="M6,42 L6,7.99970728 C6,5.78894535 7.78647255,4 10.0017433,4 L37.9982567,4 C40.2089408,4 42,5.78589582 42,7.99970728 L42,42 C42,43.486764 40.435375,44.4537555 39.1055728,43.7888544 L36.0226627,42.2473993 L32.8944272,43.7888544 C32.3313722,44.0703819 31.6686278,44.0703819 31.1055728,43.7888544 L28.0052798,42.2387079 L24.8944272,43.7888544 C24.3313722,44.0703819 23.6686278,44.0703819 23.1055728,43.7888544 L20.0062076,42.2391718 L16.8973055,43.7886359 C16.3343192,44.0703009 15.6715746,44.0704627 15.1084508,43.7890726 L12.0056845,42.2386358 L8.89442719,43.7888544 C7.56462501,44.4537555 6,43.486764 6,42 Z M37.9982567,8 L10,7.99970728 L10,38.7611084 L11.1055728,38.2111456 C11.6684742,37.9296949 12.3310206,37.9296141 12.8939906,38.2109274 L16.0200195,39.7710059 L19.1051359,38.2113641 C19.6682758,37.9296222 20.3312184,37.9295412 20.8944272,38.2111456 L24,39.7678595 L27.1055728,38.2111456 C27.6686278,37.9296181 28.3313722,37.9296181 28.8944272,38.2111456 L32.0300293,39.7772101 L35.1055728,38.2111456 C35.6686278,37.9296181 36.3313722,37.9296181 36.8944272,38.2111456 L38.0100098,38.7690314 L37.9982567,8 Z M24,30 C24,28.8954305 24.8874333,28 25.999615,28 L32.000385,28 C33.1047419,28 34,28.8877296 34,30 C34,31.1045695 33.1125667,32 32.000385,32 L25.999615,32 C24.8952581,32 24,31.1122704 24,30 Z M14,22 C14,20.8954305 14.8982124,20 15.9907951,20 L32.0092049,20 C33.1086907,20 34,20.8877296 34,22 C34,23.1045695 33.1017876,24 32.0092049,24 L15.9907951,24 C14.8913093,24 14,23.1122704 14,22 Z M14,14 C14,12.8954305 14.8982124,12 15.9907951,12 L32.0092049,12 C33.1086907,12 34,12.8877296 34,14 C34,15.1045695 33.1017876,16 32.0092049,16 L15.9907951,16 C14.8913093,16 14,15.1122704 14,14 Z" id="Combined-Shape" fill="#000000"></path>
    </g>
</svg>