<?xml version="1.0" encoding="UTF-8"?>
<svg width="48px" height="48px" viewBox="0 0 48 48" version="1.1" xmlns="http://www.w3.org/2000/svg" xmlns:xlink="http://www.w3.org/1999/xlink">
    <!-- Generator: Sketch 43.2 (39069) - http://www.bohemiancoding.com/sketch -->
    <title>theicons.co/svg/finance-05</title>
    <desc>Created with Sketch.</desc>
    <defs></defs>
    <g id="The-Icons" stroke="none" stroke-width="1" fill="none" fill-rule="evenodd">
        <path d="M26.0092049,42 L9.99079514,42 C8.89130934,42 8,41.0980496 8,39.9914698 L8,32.0085302 C8,30.8992496 8.89821238,30 9.99079514,30 L12,30 L12,26 L9.99079514,26 C8.89130934,26 8,25.0980496 8,23.9914698 L8,18 L5.99079514,18 C4.89130934,18 4,17.0980496 4,15.9914698 L4,8.0085302 C4,6.8992496 4.89821238,6 5.99079514,6 L22.0092049,6 C23.1086907,6 24,6.90195036 24,8.0085302 L24,14 L26.0092049,14 C27.1086907,14 28,14.9019504 28,16.0085302 L28,22 L34,22 C39.5228475,22 44,26.4771525 44,32 C44,37.5228475 39.5228475,42 34,42 C31.7487788,42 29.6713038,41.2561042 27.9999792,40.0007167 C27.9950042,41.1057435 27.0987501,42 26.0092049,42 Z M16,26 L16,30 L24.2000362,30 C24.5000047,28.5222448 25.1258387,27.1628213 25.9992676,26 L16,26 Z M8,10 L8,14 L20,14 L20,10 L8,10 Z M12,18 L12,22 L24,22 L24,18 L12,18 Z M12,34 L12,38 L24,38 L24,34 L12,34 Z M34,38 C37.3137085,38 40,35.3137085 40,32 C40,28.6862915 37.3137085,26 34,26 C30.6862915,26 28,28.6862915 28,32 C28,35.3137085 30.6862915,38 34,38 Z" id="Combined-Shape" fill="#000000"></path>
    </g>
</svg>