<?xml version="1.0" encoding="UTF-8"?>
<svg width="48px" height="48px" viewBox="0 0 48 48" version="1.1" xmlns="http://www.w3.org/2000/svg" xmlns:xlink="http://www.w3.org/1999/xlink">
    <!-- Generator: Sketch 43.2 (39069) - http://www.bohemiancoding.com/sketch -->
    <title>theicons.co/svg/finance-44</title>
    <desc>Created with Sketch.</desc>
    <defs></defs>
    <g id="The-Icons" stroke="none" stroke-width="1" fill="none" fill-rule="evenodd">
        <path d="M22,8.12378751 C14.1073768,9.10798369 8,15.8407647 8,24 C8,30.3160497 11.6597117,35.7773279 16.9742656,38.3789651 L19.6422914,30.7100935 C17.4497331,29.2832709 16,26.8109371 16,24 C16,20.2723211 18.5495456,17.1401206 22,16.252035 L22,8.12378751 Z M24,32 C23.810221,32 23.6219854,31.9933918 23.4355108,31.980393 L20.7596787,39.6717029 C21.8061213,39.8869388 22.8898572,40 24,40 C32.1592353,40 38.8920163,33.8926232 39.8762125,26 L31.747965,26 C30.8598794,29.4504544 27.7276789,32 24,32 Z M39.8762125,22 C38.9737172,14.7625653 33.2374347,9.02628284 26,8.12378751 L26,16.252035 C28.8112146,16.9755916 31.0244084,19.1887854 31.747965,22 L39.8762125,22 Z M24,44 C12.954305,44 4,35.045695 4,24 C4,12.954305 12.954305,4 24,4 C35.045695,4 44,12.954305 44,24 C44,35.045695 35.045695,44 24,44 Z M24,28 C26.209139,28 28,26.209139 28,24 C28,21.790861 26.209139,20 24,20 C21.790861,20 20,21.790861 20,24 C20,26.209139 21.790861,28 24,28 Z" id="Combined-Shape" fill="#000000"></path>
    </g>
</svg>