<?xml version="1.0" encoding="UTF-8"?>
<svg width="48px" height="48px" viewBox="0 0 48 48" version="1.1" xmlns="http://www.w3.org/2000/svg" xmlns:xlink="http://www.w3.org/1999/xlink">
    <!-- Generator: Sketch 43.2 (39069) - http://www.bohemiancoding.com/sketch -->
    <title>theicons.co/svg/finance-20</title>
    <desc>Created with Sketch.</desc>
    <defs></defs>
    <g id="The-Icons" stroke="none" stroke-width="1" fill="none" fill-rule="evenodd">
        <path d="M24.2704169,44.4389606 C23.7763473,44.1955971 22.9770865,44.1947183 22.4812328,44.4389606 L19.5481366,45.8837137 C17.5661415,46.8599836 15.1294046,46.0750711 14.0928809,44.1065352 L12.557048,41.1897254 C12.2992966,40.7002114 11.6531937,40.2261121 11.1095676,40.1300228 L7.90579211,39.5637353 C5.7262693,39.1784908 4.20743424,37.0993043 4.51546693,34.904868 L4.97608406,31.6234146 C5.05310314,31.0747278 4.80694746,30.308498 4.42319576,29.9087798 L2.14480719,27.5355961 C0.615540462,25.9427023 0.621257419,23.3541565 2.14480719,21.7672175 L4.42319576,19.3940338 C4.80556662,18.9957539 5.05338128,18.2300672 4.97608406,17.679399 L4.51546693,14.3979456 C4.20836902,12.2101687 5.72370786,10.1247755 7.90579211,9.73907834 L11.1095676,9.17279079 C11.6512375,9.07704721 12.2983658,8.60436996 12.557048,8.1130882 L14.0928809,5.1962784 C15.1237403,3.23849987 17.568667,2.44407396 19.5481366,3.41909991 L22.4812328,4.863853 C22.9753023,5.10721649 23.7745631,5.10809534 24.2704169,4.863853 L27.203513,3.41909991 C29.1855082,2.44282996 31.6222451,3.22774249 32.6587687,5.1962784 L34.1946017,8.1130882 C34.4523531,8.6026022 35.098456,9.07670145 35.6420821,9.17279079 L38.8458576,9.73907834 C41.0253804,10.1243228 42.5442154,12.2035093 42.2361827,14.3979456 L41.7755656,17.679399 C41.6985465,18.2280858 41.9447022,18.9943156 42.3284539,19.3940338 L44.6068425,21.7672175 C46.1361092,23.3601113 46.1303922,25.9486571 44.6068425,27.5355961 L42.3284539,29.9087798 C41.946083,30.3070597 41.6982684,31.0727464 41.7755656,31.6234146 L42.2361827,34.904868 C42.5432806,37.0926449 41.0279418,39.1780381 38.8458576,39.5637353 L35.6420821,40.1300228 C35.1004121,40.2257664 34.4532839,40.6984436 34.1946017,41.1897254 L32.6587687,44.1065352 C31.6279093,46.0643137 29.1829826,46.8587396 27.203513,45.8837137 L24.2704169,44.4389606 Z M29.1194309,42.242913 L30.6552639,39.3261031 C31.4889291,37.7428302 33.1844434,36.502421 34.9458493,36.1910813 C34.9458493,36.1910813 38.2826664,35.51539 38.2750172,35.4608963 L37.8144,32.1794428 C37.5667498,30.4151732 38.2098717,28.4229872 39.4429849,27.1385688 C39.4429849,27.1385688 41.7617903,24.5795269 41.7213735,24.5374285 L39.4429849,22.1642448 C38.208759,20.8786674 37.5669724,18.8860541 37.8144,17.1233708 C37.8144,17.1233708 38.2129428,13.6892117 38.1496248,13.6780198 L34.9458493,13.1117323 C33.1828515,12.8001113 31.4881796,11.5585601 30.6552639,9.97671046 C30.6552639,9.97671046 29.0131952,6.9866288 28.9710047,7.00741055 L26.0379085,8.45216365 C24.4278207,9.2452435 22.3223777,9.24452864 20.7137411,8.45216365 C20.7137411,8.45216365 17.6533372,7.0197931 17.6322187,7.05990065 L16.0963858,9.97671046 C15.2627206,11.5599834 13.5672063,12.8003926 11.8058004,13.1117323 L8.60202488,13.6780198 C8.54067383,13.688864 8.93724963,17.1233708 8.93724963,17.1233708 C9.18489989,18.8876404 8.54177794,20.8798264 7.30866474,22.1642448 L5.03027618,24.5374285 C4.98995773,24.5794244 7.30866474,27.1385688 7.30866474,27.1385688 C8.54289066,28.4241462 9.18467723,30.4167595 8.93724963,32.1794428 L8.4766325,35.4608963 C8.46868746,35.517497 11.8058004,36.1910813 11.8058004,36.1910813 C13.5687981,36.5027023 15.26347,37.7442535 16.0963858,39.3261031 C16.0963858,39.3261031 17.7384545,42.3161848 17.780645,42.295403 L20.7137411,40.85065 C22.323829,40.0575701 24.429272,40.058285 26.0379085,40.85065 C26.0379085,40.85065 29.0983125,42.2830205 29.1194309,42.242913 Z M18.7900384,31.8909768 C18.0089898,32.6720253 16.7426599,32.6720253 15.9616113,31.8909768 C15.1805627,31.1099282 15.1805627,29.8435982 15.9616113,29.0625496 L27.9616113,17.0625496 C28.7426599,16.281501 30.0089898,16.281501 30.7900384,17.0625496 C31.571087,17.8435982 31.571087,19.1099282 30.7900384,19.8909768 L18.7900384,31.8909768 Z M18.3758248,22.4767632 C16.7189706,22.4767632 15.3758248,21.1336174 15.3758248,19.4767632 C15.3758248,17.8199089 16.7189706,16.4767632 18.3758248,16.4767632 C20.0326791,16.4767632 21.3758248,17.8199089 21.3758248,19.4767632 C21.3758248,21.1336174 20.0326791,22.4767632 18.3758248,22.4767632 Z M28.3758248,32.4767632 C26.7189706,32.4767632 25.3758248,31.1336174 25.3758248,29.4767632 C25.3758248,27.8199089 26.7189706,26.4767632 28.3758248,26.4767632 C30.0326791,26.4767632 31.3758248,27.8199089 31.3758248,29.4767632 C31.3758248,31.1336174 30.0326791,32.4767632 28.3758248,32.4767632 Z" id="Combined-Shape" fill="#000000"></path>
    </g>
</svg>