<?xml version="1.0" encoding="UTF-8"?>
<svg width="48px" height="48px" viewBox="0 0 48 48" version="1.1" xmlns="http://www.w3.org/2000/svg" xmlns:xlink="http://www.w3.org/1999/xlink">
    <!-- Generator: Sketch 43.2 (39069) - http://www.bohemiancoding.com/sketch -->
    <title>theicons.co/svg/finance-42</title>
    <desc>Created with Sketch.</desc>
    <defs></defs>
    <g id="The-Icons" stroke="none" stroke-width="1" fill="none" fill-rule="evenodd">
        <path d="M10,32 L14,32 C14,30.8945804 14.8877296,30 16,30 C17.1045695,30 18,30.8867064 18,31.9981014 L24,32 C24,30.8945804 24.8877296,30 26,30 C27.1045695,30 28,30.8867064 28,31.9981014 L30,32 C30,30.8945804 30.8877296,30 32,30 C33.1045695,30 34,30.8867064 34,31.9981014 L38,32 L38,26 L30,26 C30,27.1054196 29.1122704,28 28,28 C26.8954305,28 26,27.1132936 26,26.0018986 L24,26 C24,27.1054196 23.1122704,28 22,28 C20.8954305,28 20,27.1132936 20,26.0018986 L18,26 C18,27.1054196 17.1122704,28 16,28 C14.8954305,28 14,27.1132936 14,26.0018986 L10,26 L10,32 Z M10,42 L38,42 L38,36 L34,36 C34,37.1054196 33.1122704,38 32,38 C30.8954305,38 30,37.1132936 30,36.0018986 L28,36 C28,37.1054196 27.1122704,38 26,38 C24.8954305,38 24,37.1132936 24,36.0018986 L18,36 C18,37.1054196 17.1122704,38 16,38 C14.8954305,38 14,37.1132936 14,36.0018986 L10,36 L10,42 Z M14,22 C14,20.8945804 14.8877296,20 16,20 C17.1045695,20 18,20.8867064 18,21.9981014 L20,22 C20,20.8945804 20.8877296,20 22,20 C23.1045695,20 24,20.8867064 24,21.9981014 L26,22 C26,20.8945804 26.8877296,20 28,20 C29.1045695,20 30,20.8867064 30,21.9981014 L38,22 L38,16 L34,16 C34,17.1054196 33.1122704,18 32,18 C30.8954305,18 30,17.1132936 30,16.0018986 L24,16 C24,17.1054196 23.1122704,18 22,18 C20.8954305,18 20,17.1132936 20,16.0018986 L18,16 C18,17.1054196 17.1122704,18 16,18 C14.8954305,18 14,17.1132936 14,16.0018986 L10,16 L10,22 L14,22 Z M32,10 C33.1045695,10 34,10.8867064 34,11.9981014 L38,12 L38,6 L10,6 L10,12 L14,12 C14,10.8945804 14.8877296,10 16,10 C17.1045695,10 18,10.8867064 18,11.9981014 L20,12 C20,10.8945804 20.8877296,10 22,10 C23.1045695,10 24,10.8867064 24,11.9981014 L30,12 C30,10.8945804 30.8877296,10 32,10 Z M6,6.00180999 C6,3.79167136 7.7852456,2 9.99017859,2 L38.0098214,2 C40.2135362,2 42,3.79309123 42,6.00180999 L42,41.99819 C42,44.2083286 40.2147544,46 38.0098214,46 L9.99017859,46 C7.7864638,46 6,44.2069088 6,41.99819 L6,6.00180999 Z" id="Combined-Shape" fill="#000000"></path>
    </g>
</svg>