<?xml version="1.0" encoding="UTF-8"?>
<svg width="48px" height="48px" viewBox="0 0 48 48" version="1.1" xmlns="http://www.w3.org/2000/svg" xmlns:xlink="http://www.w3.org/1999/xlink">
    <!-- Generator: Sketch 43.2 (39069) - http://www.bohemiancoding.com/sketch -->
    <title>theicons.co/svg/finance-45</title>
    <desc>Created with Sketch.</desc>
    <defs></defs>
    <g id="The-Icons" stroke="none" stroke-width="1" fill="none" fill-rule="evenodd">
        <path d="M33,5.99729162 C33,4.89421792 33.8874333,4 34.999615,4 L41.000385,4 C42.1047419,4 43,4.89153983 43,5.99729162 L43,40 L44.9938589,40 C46.10182,40 47,40.8877296 47,42 C47,43.1045695 46.1017583,44 44.9938589,44 L3.0061411,44 C1.89817996,44 1,43.1122704 1,42 C1,40.8954305 1.89824172,40 3.0061411,40 L5,40 L5,29.9940603 C5,28.8927712 5.88743329,28 6.99961498,28 L13.000385,28 C14.1047419,28 15,28.8945138 15,29.9940603 L15,40 L19,40 L19,15.991617 C19,14.8916773 19.8874333,14 20.999615,14 L27.000385,14 C28.1047419,14 29,14.8978404 29,15.991617 L29,40 L33,40 L33,5.99729162 Z M9,32 L9,40 L11,40 L11,32 L9,32 Z M23,18 L23,40 L25,40 L25,18 L23,18 Z M37,8 L37,40 L39,40 L39,8 L37,8 Z" id="Combined-Shape" fill="#000000"></path>
    </g>
</svg>