<?xml version="1.0" encoding="UTF-8"?>
<svg width="48px" height="48px" viewBox="0 0 48 48" version="1.1" xmlns="http://www.w3.org/2000/svg" xmlns:xlink="http://www.w3.org/1999/xlink">
    <!-- Generator: Sketch 43.2 (39069) - http://www.bohemiancoding.com/sketch -->
    <title>theicons.co/svg/finance-29</title>
    <desc>Created with Sketch.</desc>
    <defs></defs>
    <g id="The-Icons" stroke="none" stroke-width="1" fill="none" fill-rule="evenodd">
        <path d="M33.5418879,29.0003422 L36.5360292,29.0003422 C37.6438344,29.0003422 38.5418879,29.8880719 38.5418879,31.0003422 C38.5418879,32.1049117 37.6448278,33.0003422 36.5360292,33.0003422 L33.5418879,33.0003422 L33.5418879,35.9944836 C33.5418879,37.1022887 32.6541582,38.0003422 31.5418879,38.0003422 C30.4373184,38.0003422 29.5418879,37.1032821 29.5418879,35.9944836 L29.5418879,33.0003422 L26.5477465,33.0003422 C25.4399414,33.0003422 24.5418879,32.1126126 24.5418879,31.0003422 C24.5418879,29.8957727 25.438948,29.0003422 26.5477465,29.0003422 L29.5418879,29.0003422 L29.5418879,26.0062009 C29.5418879,24.8983958 30.4296175,24.0003422 31.5418879,24.0003422 C32.6464574,24.0003422 33.5418879,24.8974024 33.5418879,26.0062009 L33.5418879,29.0003422 Z M16.6740592,29.0003422 C16.9118884,27.2153253 17.4636384,25.5295492 18.2719811,24.0003422 L5.802508,24.0003422 L7.16115057,29.0003422 L16.6740592,29.0003422 Z M8.53313219,42.0003422 C7.43339832,42.0003422 6.30668077,41.1379162 6.0146865,40.0672705 L1.06908926,21.933414 C0.777923977,20.8658079 1.43342771,20.0003422 2.5391795,20.0003422 L7.38124281,20.0003422 L14.8054016,7.00806436 C15.3534215,6.04902947 16.5751309,5.71583602 17.5341658,6.26385596 C18.4932006,6.81187589 18.8263941,8.03358522 18.2783742,8.99262012 L11.9882472,20.0003422 L21.3437509,20.0003422 C22.9885859,18.4746953 24.976181,17.3134445 27.1781669,16.6449594 L22.8054016,8.99262012 C22.2573817,8.03358522 22.5905751,6.81187589 23.54961,6.26385596 C24.5086449,5.71583602 25.7303542,6.04902947 26.2783742,7.00806436 L31.4171091,16.0008504 C39.8261591,16.0003422 46.5418879,22.716071 46.5418879,31.0003422 C46.5418879,39.2846135 39.8261591,46.0003422 31.5418879,46.0003422 C27.603725,46.0003422 24.0200284,44.4826913 21.3437509,42.0003422 L8.53313219,42.0003422 Z M16.6740592,33.0003422 L8.24806464,33.0003422 L9.60670721,38.0003422 L18.2719811,38.0003422 C17.4636384,36.4711353 16.9118884,34.7853592 16.6740592,33.0003422 Z M31.5418879,42.0003422 C37.6170201,42.0003422 42.5418879,37.0754745 42.5418879,31.0003422 C42.5418879,24.92521 37.6170201,20.0003422 31.5418879,20.0003422 C25.4667556,20.0003422 20.5418879,24.92521 20.5418879,31.0003422 C20.5418879,37.0754745 25.4667556,42.0003422 31.5418879,42.0003422 Z" id="Combined-Shape" fill="#000000"></path>
    </g>
</svg>