<?xml version="1.0" encoding="UTF-8"?>
<svg width="48px" height="48px" viewBox="0 0 48 48" version="1.1" xmlns="http://www.w3.org/2000/svg" xmlns:xlink="http://www.w3.org/1999/xlink">
    <!-- Generator: Sketch 43.2 (39069) - http://www.bohemiancoding.com/sketch -->
    <title>theicons.co/svg/finance-23</title>
    <desc>Created with Sketch.</desc>
    <defs></defs>
    <g id="The-Icons" stroke="none" stroke-width="1" fill="none" fill-rule="evenodd">
        <path d="M35.9941413,29 C37.1019465,29 38,29.8877296 38,31 C38,32.1045695 37.1029399,33 35.9941413,33 L33,33 L33,35.9941413 C33,37.1019465 32.1122704,38 31,38 C29.8954305,38 29,37.1029399 29,35.9941413 L29,33 L26.0058587,33 C24.8980535,33 24,32.1122704 24,31 C24,29.8954305 24.8970601,29 26.0058587,29 L29,29 L29,26.0058587 C29,24.8980535 29.8877296,24 31,24 C32.1045695,24 33,24.8970601 33,26.0058587 L33,29 L35.9941413,29 Z M10,22 L10,19.4648712 C8.80439726,18.7732524 8,17.4805647 8,16 C8,13.790861 9.790861,12 12,12 C14.209139,12 16,13.790861 16,16 C16,17.4805647 15.1956027,18.7732524 14,19.4648712 L14,22 C14,24.0310519 15.0138574,25.8297835 16.5627137,26.9158867 C17.7195801,22.8182301 20.5739638,19.4326617 24.3184302,17.566616 C24.1134373,17.0854931 24,16.5559939 24,16 C24,13.790861 25.790861,12 28,12 C30.209139,12 32,13.790861 32,16 C32.6799566,16.0775536 33.3476646,16.1676372 34,16.3000543 L34,8 L6,8 L6,40 L18.9989014,40 C17.1468936,37.5343683 16.0370177,34.4794486 16.0009091,31.1668764 C12.4695861,29.6222401 10,26.0959083 10,22 Z M46,31 C46,39.2842712 39.2842712,46 31,46 C28.2726545,46 25.7153164,45.2721115 23.5116513,44 L5.99017859,44 C3.7864638,44 2,42.2035752 2,39.9999745 L2,8.00002553 C2,5.79087243 3.7852456,4 5.99017859,4 L34.0098214,4 C36.2135362,4 38,5.79642476 38,8.00002553 L38,17.7300932 C42.7578034,20.24508 46,25.2439122 46,31 Z M31,42 C37.0751322,42 42,37.0751322 42,31 C42,24.9248678 37.0751322,20 31,20 C24.9248678,20 20,24.9248678 20,31 C20,37.0751322 24.9248678,42 31,42 Z" id="Combined-Shape" fill="#000000"></path>
    </g>
</svg>