<?xml version="1.0" encoding="UTF-8"?>
<svg width="48px" height="48px" viewBox="0 0 48 48" version="1.1" xmlns="http://www.w3.org/2000/svg" xmlns:xlink="http://www.w3.org/1999/xlink">
    <!-- Generator: Sketch 43.2 (39069) - http://www.bohemiancoding.com/sketch -->
    <title>theicons.co/svg/finance-19</title>
    <desc>Created with Sketch.</desc>
    <defs></defs>
    <g id="The-Icons" stroke="none" stroke-width="1" fill="none" fill-rule="evenodd">
        <path d="M23,14 L23,16 L36,16 L36,8 L23,8 L23,10 L29.9914698,10 C31.1007504,10 32,10.8877296 32,12 C32,13.1045695 31.0980496,14 29.9914698,14 L23,14 Z M12,8 L12,16 L19,16 L19,8 L12,8 Z M40,32 L36.904739,20 L11.095261,20 L8,32 L40,32 Z M8.00231934,36 L8.00463867,40 L40,40.0400391 L40,36 L8.00231934,36 Z M4,32 L8,16 L8,6.0085302 C8,4.8992496 8.88926172,4 10.0017433,4 L37.9982567,4 C39.103789,4 40,4.90195036 40,6.0085302 L40,16 L44,32 L44,41.9914698 C44,43.1007504 43.1084602,44 42.0027084,44 L5.99729162,44 C4.89421792,44 4,43.0980496 4,41.9914698 L4,32 Z" id="Combined-Shape" fill="#000000"></path>
    </g>
</svg>