<?xml version="1.0" encoding="UTF-8"?>
<svg width="48px" height="48px" viewBox="0 0 48 48" version="1.1" xmlns="http://www.w3.org/2000/svg" xmlns:xlink="http://www.w3.org/1999/xlink">
    <!-- Generator: Sketch 43.2 (39069) - http://www.bohemiancoding.com/sketch -->
    <title>theicons.co/svg/finance-32</title>
    <desc>Created with Sketch.</desc>
    <defs></defs>
    <g id="The-Icons" stroke="none" stroke-width="1" fill="none" fill-rule="evenodd">
        <path d="M19.2357009,19.0654408 L24.0200195,21.7215738 L37.9339609,14.0330702 L32.9688174,11.2758846 L19.2357009,19.0654408 Z M28.8720856,9.00093532 L24,6.29542563 L10.1186239,14.0038696 L15.1384817,16.790768 L28.8720856,9.00093532 Z M26,40.6061355 L40,32.8108567 L40,17.4585264 L26,25.1808891 L26,40.6061355 Z M22,25.177084 L8.00000004,17.40308 L8,32.8423462 L22,40.6100717 L22,25.177084 Z M5.02871414,12.2516854 L23.0287141,2.25168545 C23.6327592,1.91610485 24.3672408,1.91610485 24.9712859,2.25168545 L42.9712859,12.2516854 C43.6062162,12.6044245 44,13.2736657 44,14 L44,34 C44,34.7263343 43.6062162,35.3955755 42.9712859,35.7483146 L24.9712859,45.7483146 C24.3672408,46.0838951 23.6327592,46.0838951 23.0287141,45.7483146 L5.02871414,35.7483146 C4.39378377,35.3955755 4,34.7263343 4,34 L4,14 C4,13.2736657 4.39378377,12.6044245 5.02871414,12.2516854 Z M11.0418914,26.3487841 C10.0791524,25.8072979 9.73765942,24.5878824 10.2791456,23.6251434 C10.8206318,22.6624043 12.0400473,22.3209114 13.0027863,22.8623975 L17.984842,25.6645216 C18.947581,26.2060077 19.289074,27.4254232 18.7475878,28.3881623 C18.2061016,29.3509014 16.9866861,29.6923943 16.0239471,29.1509081 L11.0418914,26.3487841 Z" id="Combined-Shape" fill="#000000"></path>
    </g>
</svg>