<?xml version="1.0" encoding="UTF-8"?>
<svg width="48px" height="48px" viewBox="0 0 48 48" version="1.1" xmlns="http://www.w3.org/2000/svg" xmlns:xlink="http://www.w3.org/1999/xlink">
    <!-- Generator: Sketch 43.2 (39069) - http://www.bohemiancoding.com/sketch -->
    <title>theicons.co/svg/finance-39</title>
    <desc>Created with Sketch.</desc>
    <defs></defs>
    <g id="The-Icons" stroke="none" stroke-width="1" fill="none" fill-rule="evenodd">
        <path d="M5,5.99729162 C5,4.89421792 5.89826062,4 6.99791312,4 L9.00208688,4 C10.1055038,4 11,4.89153983 11,5.99729162 L11,42.0027084 C11,43.1057821 10.1017394,44 9.00208688,44 L6.99791312,44 C5.89449617,44 5,43.1084602 5,42.0027084 L5,5.99729162 Z M15,6.00174332 C15,4.89621101 15.8877296,4 17,4 C18.1045695,4 19,4.88926172 19,6.00174332 L19,33.9982567 C19,35.103789 18.1122704,36 17,36 C15.8954305,36 15,35.1107383 15,33.9982567 L15,6.00174332 Z M39,5.99729162 C39,4.89421792 39.8877296,4 41,4 C42.1045695,4 43,4.89153983 43,5.99729162 L43,42.0027084 C43,43.1057821 42.1122704,44 41,44 C39.8954305,44 39,43.1084602 39,42.0027084 L39,5.99729162 Z M32,6.00174332 C32,4.89621101 32.8877296,4 34,4 C35.1045695,4 36,4.88926172 36,6.00174332 L36,33.9982567 C36,35.103789 35.1122704,36 34,36 C32.8954305,36 32,35.1107383 32,33.9982567 L32,6.00174332 Z M21,6.00174332 C21,4.89621101 21.8867064,4 22.9981014,4 L27.0018986,4 C28.1054196,4 29,4.88926172 29,6.00174332 L29,33.9982567 C29,35.103789 28.1132936,36 27.0018986,36 L22.9981014,36 C21.8945804,36 21,35.1107383 21,33.9982567 L21,6.00174332 Z" id="Combined-Shape" fill="#000000"></path>
    </g>
</svg>