<?xml version="1.0" encoding="UTF-8"?>
<svg width="48px" height="48px" viewBox="0 0 48 48" version="1.1" xmlns="http://www.w3.org/2000/svg" xmlns:xlink="http://www.w3.org/1999/xlink">
    <!-- Generator: Sketch 43.2 (39069) - http://www.bohemiancoding.com/sketch -->
    <title>theicons.co/svg/finance-25</title>
    <desc>Created with Sketch.</desc>
    <defs></defs>
    <g id="The-Icons" stroke="none" stroke-width="1" fill="none" fill-rule="evenodd">
        <path d="M37.7527738,29 C38.860579,29 39.7586325,29.8877296 39.7586325,31 C39.7586325,32.1045695 38.8615724,33 37.7527738,33 L34.7586325,33 L34.7586325,35.9941413 C34.7586325,37.1019465 33.8709028,38 32.7586325,38 C31.654063,38 30.7586325,37.1029399 30.7586325,35.9941413 L30.7586325,33 L27.7644911,33 C26.656686,33 25.7586325,32.1122704 25.7586325,31 C25.7586325,29.8954305 26.6556926,29 27.7644911,29 L30.7586325,29 L30.7586325,26.0058587 C30.7586325,24.8980535 31.6463621,24 32.7586325,24 C33.863202,24 34.7586325,24.8970601 34.7586325,26.0058587 L34.7586325,29 L37.7527738,29 Z M3.74881106,44 C1.54509628,44 -0.129553304,42.2109725 0.0078900116,40.0118794 L1.50937494,15.9881206 C1.64703608,13.7855424 3.54765999,12 5.76289018,12 L7.75863248,12 C7.75863248,6.47752559 12.2422817,2 17.7586325,2 C23.278675,2 27.7586325,6.48051622 27.7586325,11.9952753 L29.7543748,12 C31.9658652,12 33.8704467,13.7890275 34.00789,15.9881206 C41.7097354,16.6883324 47.7586325,23.1377684 47.7586325,31 C47.7586325,39.2842712 41.0429037,46 32.7586325,46 C30.031287,46 27.4739489,45.2721115 25.2702838,44 L3.74881106,44 Z M18.612161,36 L9.74942761,36 C8.64994182,36 7.75863248,35.1122704 7.75863248,34 C7.75863248,32.8954305 8.65684486,32 9.74942761,32 L17.791437,32 C17.7696818,31.6694764 17.7586325,31.3360286 17.7586325,31 C17.7586325,23.652315 23.041693,17.5385549 30.0164574,16.2500764 C30.0099962,16.1466974 29.8536255,16 29.7543748,16 L11.7586325,16 L11.7586325,20 C11.7586325,21.1045695 10.863202,22 9.75863248,22 C8.65406298,22 7.75863248,21.1045695 7.75863248,20 L7.75863248,16 L5.76289018,16 C5.66001797,16 5.50749397,16.1430943 5.50158526,16.2376337 L4.03134072,39.9999469 L20.7551329,39.9968026 C19.850831,38.7922133 19.1236244,37.4470631 18.612161,36 Z M23.7586325,12 C23.7586325,8.68954356 21.0694243,6 17.7586325,6 C14.4501979,6 11.7586325,8.68788931 11.7586325,11.9952753 L23.7586325,12 Z M32.7586325,42 C38.8337647,42 43.7586325,37.0751322 43.7586325,31 C43.7586325,24.9248678 38.8337647,20 32.7586325,20 C26.6835002,20 21.7586325,24.9248678 21.7586325,31 C21.7586325,37.0751322 26.6835002,42 32.7586325,42 Z" id="Combined-Shape" fill="#000000"></path>
    </g>
</svg>