<?xml version="1.0" encoding="UTF-8"?>
<svg width="48px" height="48px" viewBox="0 0 48 48" version="1.1" xmlns="http://www.w3.org/2000/svg" xmlns:xlink="http://www.w3.org/1999/xlink">
    <!-- Generator: Sketch 43.2 (39069) - http://www.bohemiancoding.com/sketch -->
    <title>theicons.co/svg/finance-24</title>
    <desc>Created with Sketch.</desc>
    <defs></defs>
    <g id="The-Icons" stroke="none" stroke-width="1" fill="none" fill-rule="evenodd">
        <path d="M23.7586325,2 C29.278675,2 33.7586325,6.48051622 33.7586325,11.9952753 L35.7543748,12 C37.9658652,12 39.8704467,13.7890275 40.00789,15.9881206 L41.5093749,40.0118794 C41.6470361,42.2144576 39.9733869,44 37.7684539,44 L9.74881106,44 C7.54509628,44 5.8704467,42.2109725 6.00789001,40.0118794 L7.50937494,15.9881206 C7.64703608,13.7855424 9.54765999,12 11.7628902,12 L13.7586325,12 C13.7586325,6.47752559 18.2422817,2 23.7586325,2 Z M29.7586325,12 C29.7586325,8.68954356 27.0694243,6 23.7586325,6 C20.4501979,6 17.7586325,8.68788931 17.7586325,11.9952753 L29.7586325,12 Z M13.7586325,16 L11.7628902,16 C11.660018,16 11.507494,16.1430943 11.5015853,16.2376337 L10.0313407,39.9999469 L37.5005015,39.9947823 L36.0156797,16.2376337 C36.0099962,16.1466974 35.8536255,16 35.7543748,16 L33.7586325,16 L33.7586325,20 C33.7586325,21.1045695 32.863202,22 31.7586325,22 C30.654063,22 29.7586325,21.1045695 29.7586325,20 L29.7586325,16 L17.7586325,16 L17.7586325,20 C17.7586325,21.1045695 16.863202,22 15.7586325,22 C14.654063,22 13.7586325,21.1045695 13.7586325,20 L13.7586325,16 Z M13.7586325,34 C13.7586325,32.8954305 14.6568449,32 15.7494276,32 L31.7678373,32 C32.8673231,32 33.7586325,32.8877296 33.7586325,34 C33.7586325,35.1045695 32.8604201,36 31.7678373,36 L15.7494276,36 C14.6499418,36 13.7586325,35.1122704 13.7586325,34 Z" id="Combined-Shape" fill="#000000"></path>
    </g>
</svg>