<?xml version="1.0" encoding="UTF-8"?>
<svg width="48px" height="48px" viewBox="0 0 48 48" version="1.1" xmlns="http://www.w3.org/2000/svg" xmlns:xlink="http://www.w3.org/1999/xlink">
    <!-- Generator: Sketch 43.2 (39069) - http://www.bohemiancoding.com/sketch -->
    <title>theicons.co/svg/finance-55</title>
    <desc>Created with Sketch.</desc>
    <defs></defs>
    <g id="The-Icons" stroke="none" stroke-width="1" fill="none" fill-rule="evenodd">
        <path d="M40,13.9995806 L40,8 L34.0004194,8 C32.8958499,8 32.0004194,7.1045695 32.0004194,6 C32.0004194,4.8954305 32.8958499,4 34.0004194,4 L40.9995806,4 C42.6564161,4 44,5.35032817 44,7.00041944 L44,13.9995806 C44,15.1041501 43.1045695,15.9995806 42,15.9995806 C40.8954305,15.9995806 40,15.1041501 40,13.9995806 Z M14,8 L8.00041944,8 L8.00041944,13.9995806 C8.00041944,15.1041501 7.10498894,15.9995806 6.00041944,15.9995806 C4.89584994,15.9995806 4.00041944,15.1041501 4.00041944,13.9995806 L4.00041944,7.00041944 C4.00041944,5.35032817 5.34400337,4 7.00083888,4 L14,4 C15.1045695,4 16,4.8954305 16,6 C16,7.1045695 15.1045695,8 14,8 Z M8.00041944,34 L8.00041944,39.9995806 L14,39.9995806 C15.1045695,39.9995806 16,40.8950111 16,41.9995806 C16,43.1041501 15.1045695,43.9995806 14,43.9995806 L7.00083888,43.9995806 C5.34400337,43.9995806 4.00041944,42.6492524 4.00041944,40.9991611 L4.00041944,34 C4.00041944,32.8954305 4.89584994,32 6.00041944,32 C7.10498894,32 8.00041944,32.8954305 8.00041944,34 Z M34.0004194,39.9995806 L40,39.9995806 L40,34 C40,32.8954305 40.8954305,32 42,32 C43.1045695,32 44,32.8954305 44,34 L44,40.9991611 C44,42.6492524 42.6564161,43.9995806 40.9995806,43.9995806 L34.0004194,43.9995806 C32.8958499,43.9995806 32.0004194,43.1041501 32.0004194,41.9995806 C32.0004194,40.8950111 32.8958499,39.9995806 34.0004194,39.9995806 Z M46,24 C46,25.1045695 45.1125667,26 44.000385,26 L3.99961498,26 C2.89525812,26 2,25.1122704 2,24 C2,22.8954305 2.88743329,22 3.99961498,22 L44.000385,22 C45.1047419,22 46,22.8877296 46,24 Z" id="Combined-Shape" fill="#000000" fill-rule="nonzero"></path>
    </g>
</svg>