<?xml version="1.0" encoding="UTF-8"?>
<svg width="48px" height="48px" viewBox="0 0 48 48" version="1.1" xmlns="http://www.w3.org/2000/svg" xmlns:xlink="http://www.w3.org/1999/xlink">
    <!-- Generator: Sketch 43.2 (39069) - http://www.bohemiancoding.com/sketch -->
    <title>theicons.co/svg/finance-09</title>
    <desc>Created with Sketch.</desc>
    <defs></defs>
    <g id="The-Icons" stroke="none" stroke-width="1" fill="none" fill-rule="evenodd">
        <path d="M18,18 C18,14.6862915 20.6862915,12 24,12 C27.3137085,12 30,14.6862915 30,18 C30,20.6124377 28.3303847,22.8349158 26,23.6585886 L26,28 L40,28 L40,8 L8,8 L8,28 L22,28 L22,23.6585886 C19.6696153,22.8349158 18,20.6124377 18,18 Z M26,39.1590537 L28.5857721,36.5858008 C29.3668127,35.8047443 30.6331426,35.8047314 31.4141992,36.5857721 C32.1952557,37.3668127 32.1952686,38.6331426 31.4142279,39.4141992 L25.41435,45.4141992 C24.6333094,46.1952557 23.3669794,46.1952686 22.5859229,45.4142279 L16.5858008,39.4142279 C15.8047443,38.6331873 15.8047314,37.3668574 16.5857721,36.5858008 C17.3668127,35.8047443 18.6331426,35.8047314 19.4141992,36.5857721 L22,39.1590536 L22,32 L8.00002553,32 C5.79087243,32 4,30.2058797 4,28.0031611 L4,7.99683887 C4,5.78944571 5.79642476,4 8.00002553,4 L39.9999745,4 C42.2091276,4 44,5.79412025 44,7.99683887 L44,28.0031611 C44,30.2105543 42.2035752,32 39.9999745,32 L26,32 L26,39.1590537 Z M10,23.0093689 C10,22.4519098 10.4509752,22 10.990778,22 L15.009222,22 C15.5564136,22 16,22.4433532 16,23.0093689 L16,24.9906311 C16,25.5480902 15.5490248,26 15.009222,26 L10.990778,26 C10.4435864,26 10,25.5566468 10,24.9906311 L10,23.0093689 Z M32,11.0093689 C32,10.4519098 32.4509752,10 32.990778,10 L37.009222,10 C37.5564136,10 38,10.4433532 38,11.0093689 L38,12.9906311 C38,13.5480902 37.5490248,14 37.009222,14 L32.990778,14 C32.4435864,14 32,13.5566468 32,12.9906311 L32,11.0093689 Z" id="Combined-Shape" fill="#000000"></path>
    </g>
</svg>