<?xml version="1.0" encoding="UTF-8"?>
<svg width="48px" height="48px" viewBox="0 0 48 48" version="1.1" xmlns="http://www.w3.org/2000/svg" xmlns:xlink="http://www.w3.org/1999/xlink">
    <!-- Generator: Sketch 43.2 (39069) - http://www.bohemiancoding.com/sketch -->
    <title>theicons.co/svg/finance-56</title>
    <desc>Created with Sketch.</desc>
    <defs></defs>
    <g id="The-Icons" stroke="none" stroke-width="1" fill="none" fill-rule="evenodd">
        <path d="M23.7586325,3 C29.278675,3 33.7586325,7.48051622 33.7586325,12.9952753 L35.7543748,13 C37.9658652,13 39.8704467,14.7890275 40.00789,16.9881206 L41.5093749,41.0118794 C41.6470361,43.2144576 39.9733869,45 37.7684539,45 L9.74881106,45 C7.54509628,45 5.8704467,43.2109725 6.00789001,41.0118794 L7.50937494,16.9881206 C7.64703608,14.7855424 9.54765999,13 11.7628902,13 L13.7586325,13 C13.7586325,7.47752559 18.2422817,3 23.7586325,3 Z M29.7586325,13 C29.7586325,9.68954356 27.0694243,7 23.7586325,7 C20.4501979,7 17.7586325,9.68788931 17.7586325,12.9952753 L29.7586325,13 Z M11.7628902,17 C11.660018,17 11.507494,17.1430943 11.5015853,17.2376337 L10.0313407,40.9999469 L37.5005015,40.9947823 L36.0156797,17.2376337 C36.0099962,17.1466974 35.8536255,17 35.7543748,17 L11.7628902,17 Z M19.1666205,36.4142136 C18.3855719,37.1952621 17.1192419,37.1952621 16.3381933,36.4142136 C15.5571447,35.633165 15.5571447,34.366835 16.3381933,33.5857864 L28.3381933,21.5857864 C29.1192419,20.8047379 30.3855719,20.8047379 31.1666205,21.5857864 C31.947669,22.366835 31.947669,23.633165 31.1666205,24.4142136 L19.1666205,36.4142136 Z M18.7524069,27 C17.0955526,27 15.7524069,25.6568542 15.7524069,24 C15.7524069,22.3431458 17.0955526,21 18.7524069,21 C20.4092611,21 21.7524069,22.3431458 21.7524069,24 C21.7524069,25.6568542 20.4092611,27 18.7524069,27 Z M28.7524069,37 C27.0955526,37 25.7524069,35.6568542 25.7524069,34 C25.7524069,32.3431458 27.0955526,31 28.7524069,31 C30.4092611,31 31.7524069,32.3431458 31.7524069,34 C31.7524069,35.6568542 30.4092611,37 28.7524069,37 Z" id="Combined-Shape" fill="#000000"></path>
    </g>
</svg>