<?xml version="1.0" encoding="UTF-8"?>
<svg width="48px" height="48px" viewBox="0 0 48 48" version="1.1" xmlns="http://www.w3.org/2000/svg" xmlns:xlink="http://www.w3.org/1999/xlink">
    <!-- Generator: Sketch 43.2 (39069) - http://www.bohemiancoding.com/sketch -->
    <title>theicons.co/svg/finance-02</title>
    <desc>Created with Sketch.</desc>
    <defs></defs>
    <g id="The-Icons" stroke="none" stroke-width="1" fill="none" fill-rule="evenodd">
        <path d="M9.00284797,42 L2.99715203,42 C1.34187067,42 0,40.6582294 0,39.0089096 L0,20.9910904 C0,19.3391568 1.34162278,18 2.99715203,18 L9.00284797,18 C10.3602083,18 11.5068221,18.902246 11.8755923,20.136464 C13.7054376,20.3763529 16.9043887,21.2394438 19.650122,23.0201171 C20.1904843,23.0201171 26.00177,23 26.00177,23 C28.7154796,23 30.8447682,24.5289694 32.4928723,27 L39,27 C44.0861408,27 47.9934082,30.0458854 47.9933649,32.9847086 C48.0047538,34.7161294 44.9889819,37.4085356 41.1247085,39.6328146 C36.3530718,42.3793726 30.8356577,44.0311994 25.0107218,43.9999713 C19.2643127,44.0307776 14.4759237,42.9153069 11.3152553,40.9120298 C10.7655718,41.5764987 9.93384551,42 9.00284797,42 Z M25.0106828,40.0000285 C35.9979749,39.941373 43.6440568,33.3739929 43.6440568,32.7668932 C43.6440568,32.1597934 41.4642334,31 39,31 L34.4757341,31 C34.6758933,31.5594324 34.8294788,32.072688 34.9400305,32.5139119 C35.2563706,33.7764594 34.3015749,35 33,35 L17,35 C15.8954305,35 15,34.1045695 15,33 C15,31.8954305 15.8954305,31 17,31 L30,31 C30,31 28.6669922,27 26.00177,27 L19,27 C18.5713189,27 18.1539809,26.8622618 17.8095157,26.6070928 C17.7289352,26.5474012 15.0574705,24.7652039 12,24.2048163 L12,36.3769521 C14.2815205,38.9348329 19.9172301,40.0272198 25.0106828,40.0000285 Z M8,22.0053583 L4,22 L4,38 L8,38 L8,22.0053583 Z M38,24 C34.6862915,24 32,21.3137085 32,18 C32,14.6862915 34.6862915,12 38,12 C41.3137085,12 44,14.6862915 44,18 C44,21.3137085 41.3137085,24 38,24 Z M38,20 C39.1045695,20 40,19.1045695 40,18 C40,16.8954305 39.1045695,16 38,16 C36.8954305,16 36,16.8954305 36,18 C36,19.1045695 36.8954305,20 38,20 Z M24,16 C20.6862915,16 18,13.3137085 18,10 C18,6.6862915 20.6862915,4 24,4 C27.3137085,4 30,6.6862915 30,10 C30,13.3137085 27.3137085,16 24,16 Z M24,12 C25.1045695,12 26,11.1045695 26,10 C26,8.8954305 25.1045695,8 24,8 C22.8954305,8 22,8.8954305 22,10 C22,11.1045695 22.8954305,12 24,12 Z" id="Combined-Shape" fill="#000000"></path>
    </g>
</svg>