<?xml version="1.0" encoding="UTF-8"?>
<svg width="48px" height="48px" viewBox="0 0 48 48" version="1.1" xmlns="http://www.w3.org/2000/svg" xmlns:xlink="http://www.w3.org/1999/xlink">
    <!-- Generator: Sketch 43.2 (39069) - http://www.bohemiancoding.com/sketch -->
    <title>theicons.co/svg/finance-10</title>
    <desc>Created with Sketch.</desc>
    <defs></defs>
    <g id="The-Icons" stroke="none" stroke-width="1" fill="none" fill-rule="evenodd">
        <path d="M22,26 L20.9979131,26 C19.8944962,26 19,25.1122704 19,24 C19,22.8954305 19.8982606,22 20.9979131,22 L22,22 L22,20 L14,20 L14,22 L15.0020869,22 C16.1055038,22 17,22.8877296 17,24 C17,25.1045695 16.1017394,26 15.0020869,26 L14,26 L14,28 L22,28 L22,26 Z M2,12.0042577 C2,9.79276724 3.79309123,8 6.00180999,8 L41.99819,8 C44.2083286,8 46,9.78902751 46,12.0042577 L46,35.9957423 C46,38.2072328 44.2069088,40 41.99819,40 L6.00180999,40 C3.79167136,40 2,38.2109725 2,35.9957423 L2,12.0042577 Z M6,12 L6,36 L42,36 L42,12 L6,12 Z M10,17.9940603 C10,16.8927712 10.8945138,16 11.9940603,16 L24.0059397,16 C25.1072288,16 26,16.8945138 26,17.9940603 L26,30.0059397 C26,31.1072288 25.1054862,32 24.0059397,32 L11.9940603,32 C10.8927712,32 10,31.1054862 10,30.0059397 L10,17.9940603 Z" id="Combined-Shape" fill="#000000"></path>
    </g>
</svg>