<?xml version="1.0" encoding="UTF-8"?>
<svg width="48px" height="48px" viewBox="0 0 48 48" version="1.1" xmlns="http://www.w3.org/2000/svg" xmlns:xlink="http://www.w3.org/1999/xlink">
    <!-- Generator: Sketch 43.2 (39069) - http://www.bohemiancoding.com/sketch -->
    <title>theicons.co/svg/finance-18</title>
    <desc>Created with Sketch.</desc>
    <defs></defs>
    <g id="The-Icons" stroke="none" stroke-width="1" fill="none" fill-rule="evenodd">
        <path d="M18,38 C16.8954305,38 16,37.1045695 16,36 L16,30 L3.99017859,30 C1.7864638,30 0,28.2157067 0,26.009947 L0,9.99005301 C0,7.78640758 1.7852456,6 3.99017859,6 L32.0098214,6 C34.2135362,6 36,7.78429328 36,9.99005301 L36,26.009947 C36,28.2135924 34.2147544,30 32.0098214,30 L20,30 L20,34 L41.2106934,34 L38.5877675,31.4122883 C37.8069733,30.6309854 37.8073855,29.3646555 38.5886883,28.5838613 C39.3699911,27.803067 40.636321,27.8034793 41.4171153,28.5847821 L47.4146153,34.5861883 C47.8265216,34.9997923 48.0038769,35.585022 48.0038769,36.0025513 C48.0038769,36.4200807 47.8490295,36.9994507 47.3150204,37.5134068 C47.1518049,37.6704932 41.4142136,43.4142136 41.4142136,43.4142136 C40.633165,44.1952621 39.366835,44.1952621 38.5857864,43.4142136 C37.8047379,42.633165 37.8047379,41.366835 38.5857864,40.5857864 L41.1715729,38 L18,38 Z M32,26 L32,18 L4,18 L4,26 L16,26 L16,22 C16,20.8954305 16.8954305,20 18,20 C19.1045695,20 20,20.8954305 20,22 L20,26 L32,26 Z M32,10 L4,10 L4,12 L32,12 L32,10 Z" id="Combined-Shape" fill="#000000"></path>
    </g>
</svg>