<?xml version="1.0" encoding="UTF-8"?>
<svg width="48px" height="48px" viewBox="0 0 48 48" version="1.1" xmlns="http://www.w3.org/2000/svg" xmlns:xlink="http://www.w3.org/1999/xlink">
    <!-- Generator: Sketch 43.2 (39069) - http://www.bohemiancoding.com/sketch -->
    <title>theicons.co/svg/finance-33</title>
    <desc>Created with Sketch.</desc>
    <defs></defs>
    <g id="The-Icons" stroke="none" stroke-width="1" fill="none" fill-rule="evenodd">
        <path d="M41.008845,12 C43.2137129,12 45,13.7846896 45,15.9914008 L45,40.6519097 C45,43.203455 42.6809272,44.6908025 40.358254,43.6553686 L37.0200195,42.1653376 L32.8268358,43.8563387 C32.3496735,44.0476614 31.817162,44.0478949 31.339832,43.8569909 L27,42.1653385 L23.6384537,43.6773012 C21.3064677,44.6908459 19,43.2012702 19,40.6519097 L19,35.3832323 L17.8268358,35.8563387 C17.3496735,36.0476614 16.817162,36.0478949 16.339832,35.8569909 L12,34.1653385 L8.63845374,35.6773012 C6.3064677,36.6908459 4,35.2012702 4,32.6519097 L4,7.99140082 C4,5.78672433 5.78539039,4 7.991155,4 L26.008845,4 C28.2137129,4 30,5.78468956 30,7.99140082 L30,12 L41.008845,12 Z M26.008845,8 L8,7.99140082 L8,31.6011353 L11.2845745,30.1657557 C11.7742598,29.9529252 12.3287168,29.944735 12.8244747,30.1430091 L17.013245,31.8136588 L19,31.0443846 L19,24 L12.0058587,24 C10.8980535,24 10,23.1122704 10,22 C10,20.8954305 10.8970601,20 12.0058587,20 L19,20 L19,16 L12.0058587,16 C10.8980535,16 10,15.1122704 10,14 C10,12.8954305 10.8970601,12 12.0058587,12 L26.0058589,12 C26.0068977,9.61520034 26.008845,8 26.008845,8 Z M41.008845,16 L23,15.9914008 L23,39.6011353 L26.2845745,38.1657557 C26.7742598,37.9529252 27.3287168,37.944735 27.8244747,38.1430091 L32.013245,39.8136588 L36.3262403,38.1436613 C36.8284122,37.9423108 37.3907358,37.9530012 37.8848917,38.173293 L41,39.5726378 L41.008845,16 Z M25,30 C25,28.8954305 25.8970601,28 27.0058587,28 L36.9941413,28 C38.1019465,28 39,28.8877296 39,30 C39,31.1045695 38.1029399,32 36.9941413,32 L27.0058587,32 C25.8980535,32 25,31.1122704 25,30 Z M25,22 C25,20.8954305 25.8970601,20 27.0058587,20 L36.9941413,20 C38.1019465,20 39,20.8877296 39,22 C39,23.1045695 38.1029399,24 36.9941413,24 L27.0058587,24 C25.8980535,24 25,23.1122704 25,22 Z" id="Combined-Shape" fill="#000000"></path>
    </g>
</svg>