<?xml version="1.0" encoding="UTF-8"?>
<svg width="48px" height="48px" viewBox="0 0 48 48" version="1.1" xmlns="http://www.w3.org/2000/svg" xmlns:xlink="http://www.w3.org/1999/xlink">
    <!-- Generator: Sketch 43.2 (39069) - http://www.bohemiancoding.com/sketch -->
    <title>theicons.co/svg/finance-12</title>
    <desc>Created with Sketch.</desc>
    <defs></defs>
    <g id="The-Icons" stroke="none" stroke-width="1" fill="none" fill-rule="evenodd">
        <path d="M2,12.0042577 C2,9.79276724 3.79309123,8 6.00180999,8 L41.99819,8 C44.2083286,8 46,9.78902751 46,12.0042577 L46,35.9957423 C46,38.2072328 44.2069088,40 41.99819,40 L6.00180999,40 C3.79167136,40 2,38.2109725 2,35.9957423 L2,12.0042577 Z M6,12 L6,36 L42,36 L42,12 L6,12 Z M16.7688659,20 L15.0161133,20.0021973 C13.9115438,20.0021973 13.0161133,19.1067668 13.0161133,18.0021973 C13.0161133,16.8976278 13.9115438,16.0021973 15.0161133,16.0021973 L18.0126953,16.0021973 C18.7707968,16.0021973 19.4637324,16.4308255 19.802241,17.1091541 L24,25.5337628 L28.2112111,17.107639 C28.705262,16.1197182 29.9066374,15.7193575 30.8945582,16.2134084 C31.882479,16.7074593 32.2828397,17.9088347 31.7887889,18.8967555 L25.7887889,30.8945582 C25.0513437,32.3691784 22.9466504,32.3682873 22.2104543,30.8930432 L16.7688659,20 Z" id="Combined-Shape" fill="#000000"></path>
    </g>
</svg>