<?xml version="1.0" encoding="UTF-8"?>
<svg width="48px" height="48px" viewBox="0 0 48 48" version="1.1" xmlns="http://www.w3.org/2000/svg" xmlns:xlink="http://www.w3.org/1999/xlink">
    <!-- Generator: Sketch 43.2 (39069) - http://www.bohemiancoding.com/sketch -->
    <title>theicons.co/svg/finance-15</title>
    <desc>Created with Sketch.</desc>
    <defs></defs>
    <g id="The-Icons" stroke="none" stroke-width="1" fill="none" fill-rule="evenodd">
        <path d="M18,29 C18,24.6538917 19.848356,20.73949 22.801863,18 L4,18 L4,32 L18.3000543,32 C18.1032908,31.0306702 18,30.0273975 18,29 Z M48,29 C48,37.2842712 41.2842712,44 33,44 C27.243913,44 22.2450814,40.7578043 19.7300943,36.000002 L4.00180999,36 C1.79167136,36 0,34.2109725 0,31.9957423 L0,8.0042577 C0,5.79276724 1.79309123,4 4.00180999,4 L39.99819,4 C42.2083286,4 44,5.78902751 44,8.0042577 L44,18.801863 C46.4823491,21.4781405 48,25.0618371 48,29 Z M40,8 L4,8 L4,12 L40,12 L40,8 Z M33,40 C39.0751322,40 44,35.0751322 44,29 C44,22.9248678 39.0751322,18 33,18 C26.9248678,18 22,22.9248678 22,29 C22,35.0751322 26.9248678,40 33,40 Z M29.5857001,35.4141272 L25.5861884,31.4141272 C24.8051875,30.633031 24.8052648,29.366701 25.586361,28.5857001 C26.3674573,27.8046992 27.6337873,27.8047765 28.4147882,28.5858728 L31.0233688,31.1947719 L37.5857864,24.5857864 C38.366835,23.8047379 39.633165,23.8047379 40.4142136,24.5857864 C41.1952621,25.366835 41.1952621,26.633165 40.4142136,27.4142136 L32.4142136,35.4142136 C31.6331313,36.1952959 30.3667347,36.1952572 29.5857001,35.4141272 Z" id="Combined-Shape" fill="#000000"></path>
    </g>
</svg>