<?xml version="1.0" encoding="UTF-8"?>
<svg width="48px" height="48px" viewBox="0 0 48 48" version="1.1" xmlns="http://www.w3.org/2000/svg" xmlns:xlink="http://www.w3.org/1999/xlink">
    <!-- Generator: Sketch 43.2 (39069) - http://www.bohemiancoding.com/sketch -->
    <title>theicons.co/svg/finance-06</title>
    <desc>Created with Sketch.</desc>
    <defs></defs>
    <g id="The-Icons" stroke="none" stroke-width="1" fill="none" fill-rule="evenodd">
        <path d="M4.00002553,34 C1.79087243,34 0,32.2058797 0,30.0031611 L0,9.99683887 C0,7.78944571 1.79642476,6 4.00002553,6 L35.9999745,6 C38.2091276,6 40,7.79412025 40,9.99683887 L40,22.2000362 C44.5644806,23.1265769 48,27.1620842 48,32 C48,37.5228475 43.5228475,42 38,42 C36.1785643,42 34.4708668,41.5130286 33,40.662178 C31.5291332,41.5130286 29.8214357,42 28,42 C23.1620842,42 19.1265769,38.5644806 18.2000362,34 L4.00002553,34 Z M19.9992677,26 C16.6858957,25.9996042 14,23.3134644 14,20 C14,16.6862915 16.6862915,14 20,14 C23.3137085,14 26,16.6862915 26,20 C26,20.8165132 25.8369011,21.5949326 25.5415052,22.3044564 C26.3280418,22.1056306 27.1516852,22 28,22 C29.8214357,22 31.5291332,22.4869714 33,23.337822 C33.9177629,22.8069248 34.9277303,22.4176955 36,22.2000362 L36,10 L4,10 L4,30 L18.2000362,30 C18.5000047,28.5222447 19.1258387,27.1628212 19.9992677,26 Z M38,38 C41.3137085,38 44,35.3137085 44,32 C44,28.6862915 41.3137085,26 38,26 C37.3728404,26 36.768155,26.0962234 36.1999016,26.2747123 C37.3344022,27.8965527 38,29.870547 38,32 C38,34.129453 37.3344022,36.1034473 36.1999016,37.7252877 C36.768155,37.9037766 37.3728404,38 38,38 Z M6,25.0093689 C6,24.4519098 6.45097518,24 6.99077797,24 L11.009222,24 C11.5564136,24 12,24.4433532 12,25.0093689 L12,26.9906311 C12,27.5480902 11.5490248,28 11.009222,28 L6.99077797,28 C6.44358641,28 6,27.5566468 6,26.9906311 L6,25.0093689 Z M28,13.0093689 C28,12.4519098 28.4509752,12 28.990778,12 L33.009222,12 C33.5564136,12 34,12.4433532 34,13.0093689 L34,14.9906311 C34,15.5480902 33.5490248,16 33.009222,16 L28.990778,16 C28.4435864,16 28,15.5566468 28,14.9906311 L28,13.0093689 Z M28,38 C31.3137085,38 34,35.3137085 34,32 C34,28.6862915 31.3137085,26 28,26 C24.6862915,26 22,28.6862915 22,32 C22,35.3137085 24.6862915,38 28,38 Z" id="Combined-Shape" fill="#000000"></path>
    </g>
</svg>