<?xml version="1.0" encoding="UTF-8"?>
<svg width="48px" height="48px" viewBox="0 0 48 48" version="1.1" xmlns="http://www.w3.org/2000/svg" xmlns:xlink="http://www.w3.org/1999/xlink">
    <!-- Generator: Sketch 43.2 (39069) - http://www.bohemiancoding.com/sketch -->
    <title>theicons.co/svg/finance-08</title>
    <desc>Created with Sketch.</desc>
    <defs></defs>
    <g id="The-Icons" stroke="none" stroke-width="1" fill="none" fill-rule="evenodd">
        <path d="M30,30 C30,33.3137085 27.3137085,36 24,36 C20.6862915,36 18,33.3137085 18,30 C18,27.3875623 19.6696153,25.1650842 22,24.3414114 L22,20 L8,20 L8,40 L40,40 L40,20 L26,20 L26,24.3414114 C28.3303847,25.1650842 30,27.3875623 30,30 Z M22,16 L22,8.84094638 L19.4141992,11.4142279 C18.6331426,12.1952686 17.3668127,12.1952557 16.5857721,11.4141992 C15.8047314,10.6331426 15.8047443,9.36681269 16.5858008,8.58577205 L22.5859229,2.58577205 C23.3669794,1.80473141 24.6333094,1.8047443 25.41435,2.58580082 L31.4142279,8.58580082 C32.1952686,9.36685735 32.1952557,10.6331873 31.4141992,11.4142279 C30.6331426,12.1952686 29.3668127,12.1952557 28.5857721,11.4141992 L26,8.84094632 L26,16 L39.9999745,16 C42.2091276,16 44,17.7941203 44,19.9968389 L44,40.0031611 C44,42.2105543 42.2035752,44 39.9999745,44 L8.00002553,44 C5.79087243,44 4,42.2058797 4,40.0031611 L4,19.9968389 C4,17.7894457 5.79642476,16 8.00002553,16 L22,16 Z M10,35.0093689 C10,34.4519098 10.4509752,34 10.990778,34 L15.009222,34 C15.5564136,34 16,34.4433532 16,35.0093689 L16,36.9906311 C16,37.5480902 15.5490248,38 15.009222,38 L10.990778,38 C10.4435864,38 10,37.5566468 10,36.9906311 L10,35.0093689 Z M32,23.0093689 C32,22.4519098 32.4509752,22 32.990778,22 L37.009222,22 C37.5564136,22 38,22.4433532 38,23.0093689 L38,24.9906311 C38,25.5480902 37.5490248,26 37.009222,26 L32.990778,26 C32.4435864,26 32,25.5566468 32,24.9906311 L32,23.0093689 Z" id="Combined-Shape" fill="#000000"></path>
    </g>
</svg>