<?xml version="1.0" encoding="UTF-8"?>
<svg width="48px" height="48px" viewBox="0 0 48 48" version="1.1" xmlns="http://www.w3.org/2000/svg" xmlns:xlink="http://www.w3.org/1999/xlink">
    <!-- Generator: Sketch 43.2 (39069) - http://www.bohemiancoding.com/sketch -->
    <title>theicons.co/svg/finance-31</title>
    <desc>Created with Sketch.</desc>
    <defs></defs>
    <g id="The-Icons" stroke="none" stroke-width="1" fill="none" fill-rule="evenodd">
        <path d="M14,43 C10.6862915,43 8,40.3137085 8,37 C8,33.6862915 10.6862915,31 14,31 C16.6124377,31 18.8349158,32.6696153 19.6585886,35 L23,35 L23,13.0048828 L4,13 C2.8954305,13 2,12.1045695 2,11 C2,9.8954305 2.8954305,9 4,9 L23.9975383,9 C25.6311916,9 27,10.2718489 27,11.9443359 L27,15 L37.0059397,15 C38.1072288,15 39.2441966,15.8546881 39.5477958,16.9172854 L41.8571429,25 L43.9991358,25 C45.1041826,25 46,25.8970601 46,27.0058587 L46,36.9941413 C46,38.1019465 45.0983727,39 43.9991358,39 L41.6585886,39 C40.8349158,41.3303847 38.6124377,43 36,43 C33.3875623,43 31.1650842,41.3303847 30.3414114,39 L19.6585886,39 C18.8349158,41.3303847 16.6124377,43 14,43 Z M36,31 C38.6124377,31 40.8349158,32.6696153 41.6585886,35 L42,35 L42,28.9866943 L27,29.0018311 L27.0100098,35 L30.3414114,35 C31.1650842,32.6696153 33.3875623,31 36,31 Z M37.7130369,25 L36.0107422,19 L27,19 L27,25 L37.7130369,25 Z M8,27 C8,25.8954305 8.89354265,25 10.0027601,25 L18.9972399,25 C20.1033337,25 21,25.8877296 21,27 C21,28.1045695 20.1064574,29 18.9972399,29 L10.0027601,29 C8.89666625,29 8,28.1122704 8,27 Z M5,19 C5,17.8954305 5.89451376,17 6.99406028,17 L19.0059397,17 C20.1072288,17 21,17.8877296 21,19 C21,20.1045695 20.1054862,21 19.0059397,21 L6.99406028,21 C5.8927712,21 5,20.1122704 5,19 Z M36,39 C37.1045695,39 38,38.1045695 38,37 C38,35.8954305 37.1045695,35 36,35 C34.8954305,35 34,35.8954305 34,37 C34,38.1045695 34.8954305,39 36,39 Z M14,39 C15.1045695,39 16,38.1045695 16,37 C16,35.8954305 15.1045695,35 14,35 C12.8954305,35 12,35.8954305 12,37 C12,38.1045695 12.8954305,39 14,39 Z" id="Combined-Shape" fill="#000000"></path>
    </g>
</svg>