<?xml version="1.0" encoding="UTF-8"?>
<svg width="48px" height="48px" viewBox="0 0 48 48" version="1.1" xmlns="http://www.w3.org/2000/svg" xmlns:xlink="http://www.w3.org/1999/xlink">
    <!-- Generator: Sketch 43.2 (39069) - http://www.bohemiancoding.com/sketch -->
    <title>theicons.co/svg/finance-38</title>
    <desc>Created with Sketch.</desc>
    <defs></defs>
    <g id="The-Icons" stroke="none" stroke-width="1" fill="none" fill-rule="evenodd">
        <path d="M14,8 C14,9.10550383 13.1122704,10 12,10 C10.8954305,10 10,9.10173938 10,8.00208688 L6,8 L6,16 L10,16 L10,14.0017433 C10,12.896211 10.8998975,12 11.9912443,12 L36.0087557,12 C37.1084896,12 38,12.8892617 38,14.0017433 L38,16 L42,16 L42,8 L14,8 Z M38,20 L38,39.9957423 C38,42.2072328 36.2058797,44 34.0031611,44 L13.9968389,44 C11.7894457,44 10,42.2109725 10,39.9957423 L10,20 L6.00180999,20 C3.79167136,20 2,18.2111696 2,16.0037973 L2,7.99620271 C2,5.78916089 3.79309123,4 6.00180999,4 L41.99819,4 C44.2083286,4 46,5.78883037 46,7.99620271 L46,16.0037973 C46,18.2108391 44.2069088,20 41.99819,20 L38,20 Z M14,16 L14,40 L34,40 L34,16 L14,16 Z M24,30 C20.6862915,30 18,27.3137085 18,24 C18,20.6862915 20.6862915,18 24,18 C27.3137085,18 30,20.6862915 30,24 C30,27.3137085 27.3137085,30 24,30 Z M28,32.990778 C28,32.4435864 28.4433532,32 29.0093689,32 L30.9906311,32 C31.5480902,32 32,32.4509752 32,32.990778 L32,37.009222 C32,37.5564136 31.5566468,38 30.9906311,38 L29.0093689,38 C28.4519098,38 28,37.5490248 28,37.009222 L28,32.990778 Z" id="Combined-Shape" fill="#000000"></path>
    </g>
</svg>