<?xml version="1.0" encoding="UTF-8"?>
<svg width="48px" height="48px" viewBox="0 0 48 48" version="1.1" xmlns="http://www.w3.org/2000/svg" xmlns:xlink="http://www.w3.org/1999/xlink">
    <!-- Generator: Sketch 43.2 (39069) - http://www.bohemiancoding.com/sketch -->
    <title>theicons.co/svg/finance-50</title>
    <desc>Created with Sketch.</desc>
    <defs></defs>
    <g id="The-Icons" stroke="none" stroke-width="1" fill="none" fill-rule="evenodd">
        <path d="M32,2 C33.1045695,2 34,2.88670635 34,3.99810135 L37.9982567,4 C40.2089408,4 42,5.78589582 42,7.99970728 L42,40.0002927 C42,42.2110546 40.2135275,44 37.9982567,44 L10.0017433,44 C7.79105924,44 6,42.2141042 6,40.0002927 L6,7.99970728 C6,5.78894535 7.78647255,4 10.0017433,4 L14,4 C14,2.89458045 14.8877296,2 16,2 C17.1045695,2 18,2.88670635 18,3.99810135 L22,4 C22,2.89458045 22.8877296,2 24,2 C25.1045695,2 26,2.88670635 26,3.99810135 L30,4 C30,2.89458045 30.8877296,2 32,2 Z M26,7.99891324 C26,9.10541955 25.1122704,10 24,10 C22.8954305,10 22,9.11329365 22,8.00189865 C20.6219817,7.99859837 19.270349,7.99854686 18,7.99852278 C18,9.10541955 17.1122704,10 16,10 C14.8954305,10 14,9.11329365 14,8.00189865 C11.5846667,7.99868657 10,7.99970728 10,7.99970728 L10.0017433,40 L38,40.0002927 L37.9982567,8 C37.9982567,8 36.4143525,7.99982161 34,7.99958819 C34,9.10541955 33.1122704,10 32,10 C30.8954305,10 30,9.11329365 30,8.00189865 C28.72968,7.9991172 27.3780453,7.99901032 26,7.99891324 Z M24,19 C24,17.8954305 24.9019504,17 26.0085302,17 L33.9914698,17 C35.1007504,17 36,17.8877296 36,19 C36,20.1045695 35.0980496,21 33.9914698,21 L26.0085302,21 C24.8992496,21 24,20.1122704 24,19 Z M24,30 C24,28.8954305 24.9019504,28 26.0085302,28 L33.9914698,28 C35.1007504,28 36,28.8877296 36,30 C36,31.1045695 35.0980496,32 33.9914698,32 L26.0085302,32 C24.8992496,32 24,31.1122704 24,30 Z M14.5857864,20.4142136 L12.5857864,18.4142136 C11.8047379,17.633165 11.8047379,16.366835 12.5857864,15.5857864 C13.366835,14.8047379 14.633165,14.8047379 15.4142136,15.5857864 L16.0004257,16.1719986 L18.5857864,13.5857864 C19.366835,12.8047379 20.633165,12.8047379 21.4142136,13.5857864 C22.1952621,14.366835 22.1952621,15.633165 21.4142136,16.4142136 L17.4142136,20.4142136 C16.633165,21.1952621 15.366835,21.1952621 14.5857864,20.4142136 Z M14.5857864,31.4142136 L12.5857864,29.4142136 C11.8047379,28.633165 11.8047379,27.366835 12.5857864,26.5857864 C13.366835,25.8047379 14.633165,25.8047379 15.4142136,26.5857864 L16.0038742,27.1754471 L18.5857864,24.5857864 C19.366835,23.8047379 20.633165,23.8047379 21.4142136,24.5857864 C22.1952621,25.366835 22.1952621,26.633165 21.4142136,27.4142136 L17.4142136,31.4142136 C16.633165,32.1952621 15.366835,32.1952621 14.5857864,31.4142136 Z" id="Combined-Shape" fill="#000000"></path>
    </g>
</svg>