<?xml version="1.0" encoding="UTF-8"?>
<svg width="48px" height="48px" viewBox="0 0 48 48" version="1.1" xmlns="http://www.w3.org/2000/svg" xmlns:xlink="http://www.w3.org/1999/xlink">
    <!-- Generator: Sketch 43.2 (39069) - http://www.bohemiancoding.com/sketch -->
    <title>theicons.co/svg/finance-57</title>
    <desc>Created with Sketch.</desc>
    <defs></defs>
    <g id="The-Icons" stroke="none" stroke-width="1" fill="none" fill-rule="evenodd">
        <path d="M29,4 C37.2842712,4 44,10.7157288 44,19 C44,25.9092141 39.3286562,31.7273774 32.9719901,33.4684686 C30.7863962,39.0484247 25.354668,43 19,43 C10.7157288,43 4,36.2842712 4,28 C4,21.0907859 8.67134376,15.2726226 15.0280099,13.5315314 C17.2136038,7.95157527 22.645332,4 29,4 Z M34,28 C34,28.2722831 33.9927452,28.5428718 33.9784183,28.8115832 C37.5518224,26.9948255 40,23.283314 40,19 C40,12.9248678 35.0751322,8 29,8 C25.130224,8 21.7271697,9.99827265 19.7664139,13.0192409 C27.6945384,13.418242 34,19.9727613 34,28 Z M19,39 C25.0751322,39 30,34.0751322 30,28 C30,21.9248678 25.0751322,17 19,17 C12.9248678,17 8,21.9248678 8,28 C8,34.0751322 12.9248678,39 19,39 Z M21,30 C22.1054196,30 23,30.8877296 23,32 C23,33.1045695 22.1132936,34 21.0018986,34 L16.9981014,34 C15.8945804,34 15,33.1122704 15,32 C15,30.8954305 15.8867064,30 16.9981014,30 L17,28 C15.8944962,28 15,27.1122704 15,26 C15,24.8954305 15.8982606,24 16.9979131,24 C17.0045547,22.8946432 17.8905821,22 19,22 C20.1045695,22 21,22.9019504 21,24.0085302 L21,30 Z" id="Combined-Shape" fill="#000000"></path>
    </g>
</svg>