<?xml version="1.0" encoding="UTF-8"?>
<svg width="48px" height="48px" viewBox="0 0 48 48" version="1.1" xmlns="http://www.w3.org/2000/svg" xmlns:xlink="http://www.w3.org/1999/xlink">
    <!-- Generator: Sketch 43.2 (39069) - http://www.bohemiancoding.com/sketch -->
    <title>theicons.co/svg/finance-11</title>
    <desc>Created with Sketch.</desc>
    <defs></defs>
    <g id="The-Icons" stroke="none" stroke-width="1" fill="none" fill-rule="evenodd">
        <path d="M24,30.9297424 C22.8233065,31.6104229 21.4571486,32 20,32 C15.581722,32 12,28.418278 12,24 C12,19.581722 15.581722,16 20,16 C21.4571486,16 22.8233065,16.3895771 24,17.0702576 C25.1766935,16.3895771 26.5428514,16 28,16 C32.418278,16 36,19.581722 36,24 C36,28.418278 32.418278,32 28,32 C26.5428514,32 25.1766935,31.6104229 24,30.9297424 L24,30.9297424 Z M27.0009829,20.1257646 C27.6375361,21.273602 28,22.594472 28,24 C28,25.405528 27.6375361,26.726398 27.0009829,27.8742354 C27.3203069,27.9563366 27.6550544,28 28,28 C30.209139,28 32,26.209139 32,24 C32,21.790861 30.209139,20 28,20 C27.6550544,20 27.3203069,20.0436634 27.0009829,20.1257646 L27.0009829,20.1257646 Z M2,12.0042577 C2,9.79276724 3.79309123,8 6.00180999,8 L41.99819,8 C44.2083286,8 46,9.78902751 46,12.0042577 L46,35.9957423 C46,38.2072328 44.2069088,40 41.99819,40 L6.00180999,40 C3.79167136,40 2,38.2109725 2,35.9957423 L2,12.0042577 Z M6,12 L6,36 L42,36 L42,12 L6,12 Z M16,24 C16,26.209139 17.790861,28 20,28 C22.209139,28 24,26.209139 24,24 C24,21.790861 22.209139,20 20,20 C17.790861,20 16,21.790861 16,24 Z" id="Combined-Shape" fill="#000000"></path>
    </g>
</svg>