<?xml version="1.0" encoding="UTF-8"?>
<svg width="48px" height="48px" viewBox="0 0 48 48" version="1.1" xmlns="http://www.w3.org/2000/svg" xmlns:xlink="http://www.w3.org/1999/xlink">
    <!-- Generator: Sketch 43.2 (39069) - http://www.bohemiancoding.com/sketch -->
    <title>theicons.co/svg/finance-43</title>
    <desc>Created with Sketch.</desc>
    <defs></defs>
    <g id="The-Icons" stroke="none" stroke-width="1" fill="none" fill-rule="evenodd">
        <path d="M22.3450471,25.1081063 C22.0260876,24.6212033 21.9053567,23.9921967 22.1355313,23.3370547 L27.3970266,8.36135171 C26.3022001,8.12465145 25.165657,8 24,8 C15.163444,8 8,15.163444 8,24 C8,32.836556 15.163444,40 24,40 C26.5658098,40 28.9905584,39.3960448 31.1398383,38.3225417 L22.3450471,25.1081063 Z M40,24 C40,21.7294832 39.5270609,19.5694272 38.6743199,17.6129694 L26.8442456,24.6487615 L34.4667807,36.1018474 C37.8559134,33.1680369 40,28.8344076 40,24 Z M44,24 C44,35.045695 35.045695,44 24,44 C12.954305,44 4,35.045695 4,24 C4,12.954305 12.954305,4 24,4 C35.0749512,4 44,12.9975586 44,24 Z" id="Combined-Shape" fill="#000000"></path>
    </g>
</svg>