<?xml version="1.0" encoding="UTF-8"?>
<svg width="48px" height="48px" viewBox="0 0 48 48" version="1.1" xmlns="http://www.w3.org/2000/svg" xmlns:xlink="http://www.w3.org/1999/xlink">
    <!-- Generator: Sketch 43.2 (39069) - http://www.bohemiancoding.com/sketch -->
    <title>theicons.co/svg/finance-48</title>
    <desc>Created with Sketch.</desc>
    <defs></defs>
    <g id="The-Icons" stroke="none" stroke-width="1" fill="none" fill-rule="evenodd">
        <path d="M41.2394354,29.5724792 C41.0064228,29.7561933 40.4844971,30 39.8596405,30 L33.999615,30 C32.8952581,30 32,29.1122704 32,28 C32,26.8954305 32.8874333,26 33.999615,26 L35.1709269,26 L21.0117986,11.8435503 L13.9231165,36.549202 C13.6198007,37.6113099 12.512906,38.2264324 11.450798,37.9231165 C10.3886901,37.6198007 9.7735676,36.512906 10.0768835,35.450798 L18.0730993,7.45079804 C18.4918645,5.98442607 20.331859,5.50742006 21.4102956,6.58565267 L38.0143576,23.1865736 L38,22 C38,20.8954305 38.8954305,20 40,20 C41.1045695,20 42,20.8954305 42,22 L42,28 C41.999549,28.675205 41.691046,29.2216493 41.2394354,29.5724792 Z M8,40 L42.0027084,40 C43.1057821,40 44,40.8877296 44,42 C44,43.1045695 43.1084602,44 42.0027084,44 L5.99729162,44 C5.44620243,44 4.94724247,43.7784277 4.58587355,43.4179801 C4.22349198,43.0540912 4,42.5551326 4,42.0027084 L4,5.99729162 C4,4.89421792 4.88772964,4 6,4 C7.1045695,4 8,4.89153983 8,5.99729162 L8,40 Z" id="Combined-Shape" fill="#000000"></path>
    </g>
</svg>