<?xml version="1.0" encoding="UTF-8"?>
<svg width="48px" height="48px" viewBox="0 0 48 48" version="1.1" xmlns="http://www.w3.org/2000/svg" xmlns:xlink="http://www.w3.org/1999/xlink">
    <!-- Generator: Sketch 43.2 (39069) - http://www.bohemiancoding.com/sketch -->
    <title>theicons.co/svg/finance-14</title>
    <desc>Created with Sketch.</desc>
    <defs></defs>
    <g id="The-Icons" stroke="none" stroke-width="1" fill="none" fill-rule="evenodd">
        <path d="M37.9941413,27 C39.1019465,27 40,27.8877296 40,29 C40,30.1045695 39.1029399,31 37.9941413,31 L35,31 L35,33.9941413 C35,35.1019465 34.1122704,36 33,36 C31.8954305,36 31,35.1029399 31,33.9941413 L31,31 L28.0058587,31 C26.8980535,31 26,30.1122704 26,29 C26,27.8954305 26.8970601,27 28.0058587,27 L31,27 L31,24.0058587 C31,22.8980535 31.8877296,22 33,22 C34.1045695,22 35,22.8970601 35,24.0058587 L35,27 L37.9941413,27 Z M18,29 C18,24.6538917 19.848356,20.73949 22.801863,18 L4,18 L4,32 L18.3000543,32 C18.1032908,31.0306702 18,30.0273975 18,29 Z M48,29 C48,37.2842712 41.2842712,44 33,44 C27.243913,44 22.2450814,40.7578043 19.7300943,36.000002 L4.00180999,36 C1.79167136,36 0,34.2109725 0,31.9957423 L0,8.0042577 C0,5.79276724 1.79309123,4 4.00180999,4 L39.99819,4 C42.2083286,4 44,5.78902751 44,8.0042577 L44,18.801863 C46.4823491,21.4781405 48,25.0618371 48,29 Z M40,8 L4,8 L4,12 L40,12 L40,8 Z M33,40 C39.0751322,40 44,35.0751322 44,29 C44,22.9248678 39.0751322,18 33,18 C26.9248678,18 22,22.9248678 22,29 C22,35.0751322 26.9248678,40 33,40 Z" id="Combined-Shape" fill="#000000"></path>
    </g>
</svg>