<?xml version="1.0" encoding="UTF-8"?>
<svg width="48px" height="48px" viewBox="0 0 48 48" version="1.1" xmlns="http://www.w3.org/2000/svg" xmlns:xlink="http://www.w3.org/1999/xlink">
    <!-- Generator: Sketch 43.2 (39069) - http://www.bohemiancoding.com/sketch -->
    <title>theicons.co/svg/food-14</title>
    <desc>Created with Sketch.</desc>
    <defs></defs>
    <g id="The-Icons" stroke="none" stroke-width="1" fill="none" fill-rule="evenodd">
        <path d="M13.9116249,5.90143567 C14.2613041,4.85130175 15.4314639,4 16.5505365,4 L31.4486618,4 C32.5564131,4 33.7406169,4.8438167 34.0993252,5.90143567 L36.1677504,12 L37.9982567,12 C39.103789,12 40,12.8877296 40,14 C40,15.1045695 39.1107383,16 37.9982567,16 L37.5,16 L34.2471993,42.0224058 C34.1106749,43.1146009 33.1017876,44 32.0092049,44 L15.9907951,44 C14.8913093,44 13.8888423,43.1107383 13.7528007,42.0224058 L10.5,16 L10.0017433,16 C8.89621101,16 8,15.1122704 8,14 C8,12.8954305 8.88926172,12 10.0017433,12 L11.8808919,12 L13.9116249,5.90143567 Z M16.7853088,34 L17.541748,40 L30.4622662,40 L31.221486,34 L16.7853088,34 Z M15.020284,20 L32.992999,20 L33.4991455,16 L14.5159912,16 L15.020284,20 Z M24,30 C25.6568542,30 27,28.6568542 27,27 C27,25.3431458 25.6568542,24 24,24 C22.3431458,24 21,25.3431458 21,27 C21,28.6568542 22.3431458,30 24,30 Z M17.4214081,8.02001953 L16,11.9993349 L32,11.9968323 L30.6053958,8 L17.4214081,8.02001953 Z" id="Combined-Shape" fill="#000000"></path>
    </g>
</svg>