<?xml version="1.0" encoding="UTF-8"?>
<svg width="48px" height="48px" viewBox="0 0 48 48" version="1.1" xmlns="http://www.w3.org/2000/svg" xmlns:xlink="http://www.w3.org/1999/xlink">
    <!-- Generator: Sketch 43.2 (39069) - http://www.bohemiancoding.com/sketch -->
    <title>theicons.co/svg/food-12</title>
    <desc>Created with Sketch.</desc>
    <defs></defs>
    <g id="The-Icons" stroke="none" stroke-width="1" fill="none" fill-rule="evenodd">
        <path d="M24.811161,36.5422964 C24.5121037,37.6056113 23.4076829,38.2251644 22.344368,37.9261071 C21.2810531,37.6270498 20.6615,36.5226289 20.9605573,35.4593141 L23.2965265,27.1536459 C21.9273732,26.3521769 21.2915712,26.1126216 20.3448435,26.1126216 C19.3523411,26.1126216 18.6858718,26.3915924 17.4422621,27.2240775 C17.3729099,27.2705026 15.805659,28.3539546 15.0086426,28.6192459 L15.6710154,40.0008053 L32.1671101,40.0008057 L32.8335787,28.2754866 C31.5614992,28.747397 30.2245339,29.0169185 28.8399607,29.0169185 C28.1525542,29.0169185 27.555546,28.9585133 26.9802956,28.8298178 L24.811161,36.5422964 Z M14.1578929,14.0008052 L14.7521408,24.2117736 C16.4456126,23.0776485 18.3828375,22.1126216 20.3448435,22.1126216 C21.8797845,22.1126216 22.963315,22.4276499 24.4103053,23.1935434 L26.9957629,14.0008052 L14.1578929,14.0008052 Z M28.0693674,24.9575626 C28.3142977,24.9993231 28.5639071,25.0169185 28.8399607,25.0169185 C30.0839366,25.0169185 32.0767771,24.49519 33.091879,23.7311574 L33.6449534,14.0008052 L31.1509554,14.0008052 L28.0693674,24.9575626 Z M29.9605573,3.45931408 C30.2823574,2.3151359 31.5250808,1.70242798 32.6286405,2.14385185 L42.6286405,6.14385185 C43.6542076,6.55407866 44.1530394,7.71801955 43.7428126,8.74358658 C43.3325857,9.76915362 42.1686449,10.2679854 41.1430778,9.85775861 L33.2211028,6.6402814 L32.2759554,10.0008052 L35.8946149,10.0008052 C36.9943487,10.0008052 37.833392,10.8927464 37.7682168,12.0007256 L36.0035015,42.0008848 C35.9385295,43.1054104 34.9888329,44.0008052 33.8809126,44.0008052 L13.8908058,44.0008052 C12.7835043,44.0008052 11.833392,43.1088641 11.7682168,42.0008848 L10.0035015,12.0007256 C9.93852946,10.8962001 10.7857567,10.0008052 11.8771035,10.0008052 L28.1207629,10.0008052 L29.9605573,3.45931408 Z M18.8858592,33.0008052 C17.7812897,33.0008052 16.8858592,32.1053747 16.8858592,31.0008052 C16.8858592,29.8962357 17.7812897,29.0008052 18.8858592,29.0008052 C19.9904287,29.0008052 20.8858592,29.8962357 20.8858592,31.0008052 C20.8858592,32.1053747 19.9904287,33.0008052 18.8858592,33.0008052 Z M28.8858592,38.0008052 C27.7812897,38.0008052 26.8858592,37.1053747 26.8858592,36.0008052 C26.8858592,34.8962357 27.7812897,34.0008052 28.8858592,34.0008052 C29.9904287,34.0008052 30.8858592,34.8962357 30.8858592,36.0008052 C30.8858592,37.1053747 29.9904287,38.0008052 28.8858592,38.0008052 Z" id="Combined-Shape" fill="#000000"></path>
    </g>
</svg>