<?xml version="1.0" encoding="UTF-8"?>
<svg width="48px" height="48px" viewBox="0 0 48 48" version="1.1" xmlns="http://www.w3.org/2000/svg" xmlns:xlink="http://www.w3.org/1999/xlink">
    <!-- Generator: Sketch 43.2 (39069) - http://www.bohemiancoding.com/sketch -->
    <title>theicons.co/svg/food-09</title>
    <desc>Created with Sketch.</desc>
    <defs></defs>
    <g id="The-Icons" stroke="none" stroke-width="1" fill="none" fill-rule="evenodd">
        <path d="M41.6541265,14.1822007 C42.2405465,15.0199961 42.4763593,16.1119476 42.2249728,17.0460875 C42.1328545,17.4473808 41.9562352,18.116884 41.6928349,18.9679968 C41.5332182,19.4837584 41.3615002,19.9997564 41.1773505,20.5119975 C44.5218468,23.0768255 45.7409501,27.2606906 44.1993016,32 L45.9986107,32 C47.1039475,32 48,32.8877296 48,34 C48,35.1045695 47.1050616,36 45.9986107,36 L42.6666667,36 L40.6338119,42.0985643 C40.2837672,43.1486983 39.1107383,44 37.9982567,44 L10.0017433,44 C8.89621101,44 7.65632975,43.1751914 7.22970764,42.1512983 L4.66666667,36 L2.00138927,36 C0.896052496,36 0,35.1122704 0,34 C0,32.8954305 0.894938439,32 2.00138927,32 L3.41365437,32 C3.38779257,31.8918062 3.36188738,31.7803173 3.33604268,31.6656289 C2.58151452,28.3173352 2.45743564,24.7933566 3.38615527,21.426964 C4.24476274,18.3147117 5.95909594,15.6157969 8.63730948,13.5106186 C15.7058985,7.95443739 25.6474667,8.67059174 31.5811507,14.3350929 C32.2381807,13.9073627 34.7857049,12.0169074 34.881069,11.9373673 C35.9120006,11.1145063 37.4044102,11.0250849 38.5439296,11.6578131 C38.5439296,11.6578131 40.1016235,9.5552063 40.204833,9.40384238 C39.4734168,8.85674556 39,7.98365899 39,7 C39,5.34314575 40.3431458,4 42,4 C43.3079681,4 44.4204339,4.8370451 44.8309451,6.00468311 C44.8869014,6.00157481 44.9432668,6 45,6 C46.6568542,6 48,7.34314575 48,9 C48,10.6568542 46.6568542,12 45,12 C44.4457034,12 43.9265177,11.8496723 43.4809885,11.5875625 C43.4236496,11.7189817 41.6541265,14.1822007 41.6541265,14.1822007 Z M11.1092255,16.655397 C9.12733299,18.2132403 7.88077468,20.1757262 7.24210824,22.4907435 C6.51399229,25.1299944 6.61592186,28.0249079 7.23819146,30.7862911 C7.33935281,31.2352047 7.44665982,31.6421899 7.5533801,32 L10.4160437,32 C10.1484475,31.3875377 10,30.7111047 10,30 C10,27.2385763 12.2385763,25 15,25 C17.2314972,25 19.1215644,26.4618353 19.7648059,28.4801102 C23.4263772,25.9691619 26.4414912,25.9959449 26.4414912,25.9959449 C27.5330696,25.8617313 30.1838379,25.9959449 29.4719521,27.5216816 C28.8795877,28.791256 27.592905,30.6582888 25.9577318,32 L39.916113,32 C41.388892,28.7369415 41.099864,26.1198087 39.4823185,24.3614397 C38.5662072,26.0550654 37.5261925,27.4335532 36.3190811,28.4159534 C35.4623729,29.11318 34.2026599,28.9838947 33.5054333,28.1271865 C32.8082067,27.2704784 32.937492,26.0107654 33.7942002,25.3135388 C34.7293895,24.5524408 35.6493595,23.2020029 36.4768819,21.4387879 C37.0177987,20.2862479 37.4843911,19.0367264 37.8716414,17.7854232 C38.0074577,17.3465664 38.2581122,16.4270457 38.2581122,16.4270457 L36.9248483,15.411769 C36.9248483,15.411769 36.5705379,15.7170002 35.8255708,16.2626251 C34.594505,17.164276 33.2343103,18.0647889 31.7786294,18.9071253 C28.8047459,20.6279765 25.8194072,21.886127 22.9128743,22.4804516 C21.8306969,22.701734 20.774034,22.0038407 20.5527516,20.9216633 C20.3314692,19.8394859 21.0293624,18.782823 22.1115398,18.5615406 C23.9662186,18.182298 25.9242416,17.4521265 27.9179585,16.450014 C23.3245003,12.8610776 16.2358646,12.6256627 11.1092255,16.655397 Z M10.6965281,40.0002841 L37.1152867,40.011085 L38.4621582,36 L9.03381348,36 L10.6965281,40.0002841 Z" id="Combined-Shape" fill="#000000"></path>
    </g>
</svg>