<?xml version="1.0" encoding="UTF-8"?>
<svg width="48px" height="48px" viewBox="0 0 48 48" version="1.1" xmlns="http://www.w3.org/2000/svg" xmlns:xlink="http://www.w3.org/1999/xlink">
    <!-- Generator: Sketch 43.2 (39069) - http://www.bohemiancoding.com/sketch -->
    <title>theicons.co/svg/food-08</title>
    <desc>Created with Sketch.</desc>
    <defs></defs>
    <g id="The-Icons" stroke="none" stroke-width="1" fill="none" fill-rule="evenodd">
        <path d="M4,17.9981014 C4,16.8945804 4.4750598,15.2402426 5.10902386,14.3314514 C5.10902386,14.3314514 10.7490234,4 24,4 C37.2509766,4 42.8909761,14.3314514 42.8909761,14.3314514 C43.5034731,15.2529654 44,16.8867064 44,17.9981014 L44,24.3436335 C46.3306409,25.1700427 48,27.3944645 48,30 C48,32.611675 46.3330678,34.833618 44,35.6578668 L44,41.9914698 C44,43.1007504 43.1084602,44 42.0027084,44 L5.99729162,44 C4.89421792,44 4,43.0980496 4,41.9914698 L4,35.6563665 C1.66935907,34.8299573 0,32.6055355 0,30 C0,27.388325 1.66693216,25.166382 4,24.3421332 L4,17.9981014 Z M6.00638655,28 C4.89424298,28 4,28.8938688 4,30 C4,31.0998977 4.90036151,32 6.00638655,32 L31.6353088,32 C31.5450324,31.9521304 26,28 26,28 L6.00638655,28 Z M34.3645869,32 L41.9936134,32 C43.105757,32 44,31.1061312 44,30 C44,28.9001023 43.0996385,28 41.9936134,28 L40,28 C40,28 34.4549636,31.9521104 34.3645869,32 Z M8,40 L40,40 L40,36 L8,36 L8,40 Z M8,20 L40,20 L40,17.9981014 C40,17.0529785 39.0420951,15.6957168 38.6175249,15.1368293 C37.8685412,14.1508965 36.9415413,13.1548525 35.837679,12.2250486 C32.6922965,9.57563359 28.8008202,8 24,8 C19.1991798,8 15.3077035,9.57563359 12.162321,12.2250486 C11.0584587,13.1548525 10.1314588,14.1508965 9.38247508,15.1368293 C8.95790488,15.6957168 8,17.1206055 8,17.9981014 L8,20 Z" id="Combined-Shape" fill="#000000"></path>
    </g>
</svg>