<?xml version="1.0" encoding="UTF-8"?>
<svg width="48px" height="48px" viewBox="0 0 48 48" version="1.1" xmlns="http://www.w3.org/2000/svg" xmlns:xlink="http://www.w3.org/1999/xlink">
    <!-- Generator: Sketch 43.2 (39069) - http://www.bohemiancoding.com/sketch -->
    <title>theicons.co/svg/food-10</title>
    <desc>Created with Sketch.</desc>
    <defs></defs>
    <g id="The-Icons" stroke="none" stroke-width="1" fill="none" fill-rule="evenodd">
        <path d="M27,42.9996703 C27,44.6567066 25.6534829,46 24,46 C22.3431458,46 21,44.6513555 21,42.9996703 L21,38 L15.0055203,38 C12.7933325,38 11,36.2147544 11,34.0098214 L11,14.9968262 C11,7.81887728 16.8187196,2 24,2 C31.1797017,2 37,7.82403298 37,14.9968262 L37,34.0098214 C37,36.2135362 35.2129147,38 32.9944797,38 L27,38 L27,42.9996703 Z M15,34.0098214 C15,34.0015615 32.9944797,34 32.9944797,34 C33.0040853,34 33,14.9968262 33,14.9968262 C33,10.0313647 28.9687555,6 24,6 C19.0282603,6 15,10.0276147 15,14.9968262 L15,34.0098214 Z M19,15.9940603 C19,14.8927712 19.8877296,14 21,14 C22.1045695,14 23,14.8945138 23,15.9940603 L23,28.0059397 C23,29.1072288 22.1122704,30 21,30 C19.8954305,30 19,29.1054862 19,28.0059397 L19,15.9940603 Z M25,15.9940603 C25,14.8927712 25.8877296,14 27,14 C28.1045695,14 29,14.8945138 29,15.9940603 L29,28.0059397 C29,29.1072288 28.1122704,30 27,30 C25.8954305,30 25,29.1054862 25,28.0059397 L25,15.9940603 Z" id="Combined-Shape" fill="#000000"></path>
    </g>
</svg>