<?xml version="1.0" encoding="UTF-8"?>
<svg width="48px" height="48px" viewBox="0 0 48 48" version="1.1" xmlns="http://www.w3.org/2000/svg" xmlns:xlink="http://www.w3.org/1999/xlink">
    <!-- Generator: Sketch 43.2 (39069) - http://www.bohemiancoding.com/sketch -->
    <title>theicons.co/svg/food-07</title>
    <desc>Created with Sketch.</desc>
    <defs></defs>
    <g id="The-Icons" stroke="none" stroke-width="1" fill="none" fill-rule="evenodd">
        <path d="M32,24 C32,28.418278 28.418278,32 24,32 C22.5143894,32 21.1233588,31.5950553 19.9312657,30.8895235 C19.8990436,30.9268078 16.9986575,33.8297697 16.9986575,33.8297697 C16.2183503,34.6100768 14.9580668,34.614921 14.1715729,33.8284271 C13.3905243,33.0473785 13.3843554,31.7872175 14.1702303,31.0013425 C14.1702303,31.0013425 17.0731778,28.1009823 17.1104899,28.0687569 C16.4049499,26.8766588 16,25.48562 16,24 C16,21.0384127 17.609292,18.4526958 20.0011092,17.069616 C20.0003725,17.0471399 20,12.9981014 20,12.9981014 C20,11.8945804 20.8877296,11 22,11 C23.1045695,11 24,11.8867064 24,12.9981014 L24,16 C28.418278,16 32,19.581722 32,24 Z M24,40 C25.570908,40 27.0889397,39.77361 28.523249,39.3516761 L26.1702303,36.9986575 C25.3899232,36.2183503 25.385079,34.9580668 26.1715729,34.1715729 C26.9526215,33.3905243 28.2127825,33.3843554 28.9986575,34.1702303 C28.9986575,34.1702303 32.18395,37.4408664 32.281686,37.6926662 C36.9083273,34.8883457 40,29.8052223 40,24 C40,20.9902646 39.6447395,18.9154669 39.1175737,17.6246869 C38.4434814,17.8260499 38.1082802,18 37,18 C32.0294373,18 28,13.9705627 28,9 L28,8.31555179 C28,8.31555179 26.0177125,8 24,8 C19.7924494,7.99999999 15.9642292,9.62410646 13.108043,12.2796158 L14.8297697,14.0013425 C15.6100768,14.7816497 15.614921,16.0419332 14.8284271,16.8284271 C14.0473785,17.6094757 12.7872175,17.6156446 12.0013425,16.8297697 L10.5312456,15.3596727 C9.27018435,17.3213802 8.4259898,19.5765312 8.12378751,22 L11.0018986,22 C12.1054196,22 13,22.8877296 13,24 C13,25.1045695 12.1132936,26 11.0018986,26 L8.12378751,26 C9.10798369,33.8926232 15.8407647,40 24,40 Z M37,14 C38.269043,14 38.6966217,13.5557754 38.6966217,13.5557754 C39.6644187,13.038982 41.0274102,13.3046065 41.6412922,14.2246394 C41.6412922,14.2246394 44,16 44,24 C44,35.045695 35.045695,44 24,44 C12.954305,44 4,35.045695 4,24 C4,12.954305 12.954305,3.99999998 24,4 C29.4355469,4.00000001 31.1162716,5.26897251 31.1162716,5.26897251 C32.1166826,5.72697572 32.5556999,6.91616737 32.1832789,7.95376269 C32.1832789,7.95376269 32,8.69421387 32,9 C32,12.0037842 34.458252,14 37,14 Z M24,28 C26.209139,28 28,26.209139 28,24 C28,21.790861 26.209139,20 24,20 C21.790861,20 20,21.790861 20,24 C20,26.209139 21.790861,28 24,28 Z M34,22.9981014 C34,21.8945804 34.8877296,21 36,21 C37.1045695,21 38,21.8867064 38,22.9981014 L38,27.0018986 C38,28.1054196 37.1122704,29 36,29 C34.8954305,29 34,28.1132936 34,27.0018986 L34,22.9981014 Z M38,11 C36.3431458,11 35,9.65685425 35,8 C35,6.34314575 36.3431458,5 38,5 C39.6568542,5 41,6.34314575 41,8 C41,9.65685425 39.6568542,11 38,11 Z M45,8 C43.8954305,8 43,7.1045695 43,6 C43,4.8954305 43.8954305,4 45,4 C46.1045695,4 47,4.8954305 47,6 C47,7.1045695 46.1045695,8 45,8 Z" id="Combined-Shape" fill="#000000"></path>
    </g>
</svg>