<?xml version="1.0" encoding="UTF-8"?>
<svg width="48px" height="48px" viewBox="0 0 48 48" version="1.1" xmlns="http://www.w3.org/2000/svg" xmlns:xlink="http://www.w3.org/1999/xlink">
    <!-- Generator: Sketch 43.2 (39069) - http://www.bohemiancoding.com/sketch -->
    <title>theicons.co/svg/food-16</title>
    <desc>Created with Sketch.</desc>
    <defs></defs>
    <g id="The-Icons" stroke="none" stroke-width="1" fill="none" fill-rule="evenodd">
        <path d="M16,20.0036298 C16,24.4228923 19.5793042,28 24,28 C28.4194277,28 32,24.4202105 32,20.0036298 L31.9995012,18.4707246 C31.0141508,18.7500881 29.9940837,18.9042969 28.9467773,18.9042969 C26.9708406,18.9042969 25.7418333,18.421716 23.6294866,17.1742737 C23.5713522,17.1399375 23.5713522,17.1399375 23.5139585,17.1060508 C22.0677294,16.2524436 21.7214355,16 20.4516602,16 C19.1818848,16 16.7423096,17.3283691 16.005985,18.0866001 L16,20.0036298 Z M20.4516602,12 C22.3284965,12 23.5304304,12.4709979 25.5471406,13.66132 C25.6056643,13.6958738 25.6056643,13.6958738 25.6634821,13.7300231 C27.2047328,14.6402057 27.8773039,14.9042969 28.9467773,14.9042969 C29.9719463,14.9042969 31.0031373,14.6594784 31.9981218,14.2320123 L31.9960937,8 L16.0374756,8 L16.020806,13.3393441 C17.5229319,12.4186036 18.7453912,12 20.4516602,12 Z M26,40 L30.0059397,40 C31.1072288,40 32,40.8877296 32,42 C32,43.1045695 31.1054862,44 30.0059397,44 L17.9940603,44 C16.8927712,44 16,43.1122704 16,42 C16,40.8954305 16.8945138,40 17.9940603,40 L22,40 L22,31.8342871 C16.3245733,30.8832625 12,25.9526741 12,20.0036298 L12,5.99124431 C12,4.89151044 12.8970262,4 14.0049466,4 L33.9950534,4 C35.1023548,4 36,4.89989752 36,5.99124431 L36,20.0036298 C36,25.9479501 31.6764159,30.8824748 26,31.834194 L26,40 Z M21,23 C19.8954305,23 19,22.1045695 19,21 C19,19.8954305 19.8954305,19 21,19 C22.1045695,19 23,19.8954305 23,21 C23,22.1045695 22.1045695,23 21,23 Z M27,25 C25.8954305,25 25,24.1045695 25,23 C25,21.8954305 25.8954305,21 27,21 C28.1045695,21 29,21.8954305 29,23 C29,24.1045695 28.1045695,25 27,25 Z" id="Combined-Shape" fill="#000000"></path>
    </g>
</svg>