<?xml version="1.0" encoding="UTF-8"?>
<svg width="48px" height="48px" viewBox="0 0 48 48" version="1.1" xmlns="http://www.w3.org/2000/svg" xmlns:xlink="http://www.w3.org/1999/xlink">
    <!-- Generator: Sketch 43.2 (39069) - http://www.bohemiancoding.com/sketch -->
    <title>theicons.co/svg/food-02</title>
    <desc>Created with Sketch.</desc>
    <defs></defs>
    <g id="The-Icons" stroke="none" stroke-width="1" fill="none" fill-rule="evenodd">
        <path d="M18.2039456,7.72710193 C17.4067714,5.66340085 18.5505132,3.99472318 20.7612877,4.00001254 L27.1222683,4.01523143 C29.3318235,4.02051787 30.4799002,5.69071071 29.6835814,7.75345154 L26.4944879,16.0143053 L27.9586399,16.0143053 C32.3723077,16.0143053 35.4436896,19.5605247 34.8200919,23.9257085 L33.0804928,36.1029022 C32.4563004,40.4722495 28.3595801,44.0143053 23.9502924,44.0143053 C19.5320144,44.0143053 15.4436896,40.468086 14.8200919,36.1029022 L13.0804928,23.9257085 C12.4563004,19.5563612 15.5303685,16.0143053 19.9419449,16.0143053 L21.4051575,16.0143053 L18.2039456,7.72710193 Z M25.9483937,36.0143053 C24.8448728,36.0143053 23.9502924,35.1265757 23.9502924,34.0143053 C23.9502924,32.9097358 24.8369987,32.0143053 25.9483937,32.0143053 L29.6239679,32.0143053 L30.1953965,28.0143053 L25.9499074,28.0143053 C24.8455505,28.0143053 23.9502924,27.1265757 23.9502924,26.0143053 C23.9502924,24.9097358 24.8377257,24.0143053 25.9499074,24.0143053 L30.7668251,24.0143053 L30.860294,23.3600231 C31.1399069,21.4027324 29.9362527,20.0143053 27.9586399,20.0143053 L19.9419449,20.0143053 C17.9636565,20.0143053 16.7604744,21.4013084 17.0402908,23.3600231 L18.7798899,35.5372167 C19.1221092,37.9327519 21.5235731,40.0143053 23.9502924,40.0143053 C26.2108813,40.0143053 28.4558858,38.2016158 29.0246295,36.0143053 L25.9483937,36.0143053 Z" id="Combined-Shape" fill="#000000"></path>
    </g>
</svg>