<?xml version="1.0" encoding="UTF-8"?>
<svg width="48px" height="48px" viewBox="0 0 48 48" version="1.1" xmlns="http://www.w3.org/2000/svg" xmlns:xlink="http://www.w3.org/1999/xlink">
    <!-- Generator: Sketch 43.2 (39069) - http://www.bohemiancoding.com/sketch -->
    <title>theicons.co/svg/food-05</title>
    <desc>Created with Sketch.</desc>
    <defs></defs>
    <g id="The-Icons" stroke="none" stroke-width="1" fill="none" fill-rule="evenodd">
        <path d="M28,27.9731922 C25.798758,27.9731922 24.012809,26.195112 24.0000686,23.9968673 C23.9871911,26.195112 22.201242,27.9731922 20,27.9731922 C17.7979174,27.9731922 16.0114449,26.1937536 16.0000548,23.9943485 C15.9885551,26.1937536 14.2020826,27.9731922 12,27.9731922 C11.2714257,27.9731922 10.5883467,27.7784037 10,27.4380635 L10,32 L38.0037186,32 C38.0044477,30.3594019 38.0052415,28.7636839 38.0060591,27.4345514 C37.4163451,27.7770633 36.7310767,27.9731922 36,27.9731922 C33.7993994,27.9731922 32.0138497,26.196148 32.0000802,23.9987886 C31.9861503,26.1961479 30.2006006,27.9731922 28,27.9731922 Z M12,15.9981014 C12,14.8945804 12.8877296,14 14,14 C15.1045695,14 16,14.8867064 16,15.9981014 L16,20 L22,20 L22,15.9981014 C22,14.8945804 22.8877296,14 24,14 C25.1045695,14 26,14.8867064 26,15.9981014 L26,20 L32,20 L32,15.9981014 C32,14.8945804 32.8877296,14 34,14 C35.1045695,14 36,14.8867064 36,15.9981014 L36,20 L38.0098214,20 C40.2135362,20 42,21.7842933 42,23.990053 L42,40 L43.9950767,40 C45.1023652,40 46,40.8877296 46,42 C46,43.1045695 45.1011449,44 43.9950767,44 L4.00492334,44 C2.89763476,44 2,43.1122704 2,42 C2,40.8954305 2.89885511,40 4.00492334,40 L6,40 L6,23.990053 C6,21.7864076 7.7852456,20 9.99017859,20 L12,20 L12,15.9981014 Z M10,36 L10,40 L38.0006479,40 C38.0010052,38.9371729 38.0014951,37.5342571 38.0020792,36 L10,36 Z M34,4 C35.6568542,4 37,8.6884592 37,9.86666667 C37,11.0448741 35.6568542,12 34,12 C32.3431458,12 31,11.0448741 31,9.86666667 C31,8.6884592 32.3431458,4 34,4 Z M24,4 C25.6568542,4 27,8.6884592 27,9.86666667 C27,11.0448741 25.6568542,12 24,12 C22.3431458,12 21,11.0448741 21,9.86666667 C21,8.6884592 22.3431458,4 24,4 Z M14,4 C15.6568542,4 17,8.6884592 17,9.86666667 C17,11.0448741 15.6568542,12 14,12 C12.3431458,12 11,11.0448741 11,9.86666667 C11,8.6884592 12.3431458,4 14,4 Z" id="Combined-Shape" fill="#000000"></path>
    </g>
</svg>