<?xml version="1.0" encoding="UTF-8"?>
<svg width="48px" height="48px" viewBox="0 0 48 48" version="1.1" xmlns="http://www.w3.org/2000/svg" xmlns:xlink="http://www.w3.org/1999/xlink">
    <!-- Generator: Sketch 43.2 (39069) - http://www.bohemiancoding.com/sketch -->
    <title>theicons.co/svg/food-18</title>
    <desc>Created with Sketch.</desc>
    <defs></defs>
    <g id="The-Icons" stroke="none" stroke-width="1" fill="none" fill-rule="evenodd">
        <path d="M26.1702388,6.19958623 C28.891726,3.47809901 31.9182158,4.05010054 31.9182158,4.05010054 C33.0130437,4.03309363 33.930592,4.98115053 33.9513685,6.08325327 C33.9513685,6.08325327 34.52337,9.10974304 31.8018828,11.8312303 C31.487127,12.145986 31.1415987,12.416184 30.7766261,12.6479207 C36.7108166,13.9694349 40,17.394308 40,23.6264528 C40,33.1759272 32.4387691,44.0014528 24,44.0014528 C15.5612309,44.0014528 8,33.1759272 8,23.6264528 C8,17.394308 11.2891834,13.9694349 17.2233739,12.6479207 C16.8584013,12.416184 16.512873,12.145986 16.1981172,11.8312303 C13.47663,9.10974304 14.0486315,6.08325327 14.0486315,6.08325327 C14.069408,4.98115053 14.9869563,4.03309363 16.0817842,4.05010054 C16.0817842,4.05010054 19.108274,3.47809901 21.8297612,6.19958623 C23.462745,7.83257002 23.8963956,10.2938396 23.9820534,12.0014563 C24.1036044,10.2938396 24.537255,7.83257002 26.1702388,6.19958623 Z M24,40.0014528 C29.8594645,40.0014528 36,31.2099577 36,23.6264528 C36,18.1368234 32.242432,16.0014528 24,16.0014528 C15.757568,16.0014528 12,18.1368234 12,23.6264528 C12,31.2099577 18.1405355,40.0014528 24,40.0014528 Z M19,28.0014528 C17.3431458,28.0014528 15.9992676,24.9885134 16.0010986,23.0031618 C16.0029297,21.0178103 17.3431458,20.0014528 19,20.0014528 C20.6568542,20.0014528 22.0177002,21.0021853 22.013916,23.0031618 C22.0101318,25.0041384 20.6568542,28.0014528 19,28.0014528 Z M29,28.0014528 C27.3431458,28.0014528 25.9992676,24.9885134 26.0010986,23.0031618 C26.0029297,21.0178103 27.3431458,20.0014528 29,20.0014528 C30.6568542,20.0014528 32.0177002,21.0021853 32.013916,23.0031618 C32.0101318,25.0041384 30.6568542,28.0014528 29,28.0014528 Z M24,36.0014528 C22.3431458,36.0014528 20.9992676,32.9885134 21.0010986,31.0031618 C21.0029297,29.0178103 22.3431458,28.0014528 24,28.0014528 C25.6568542,28.0014528 27.0177002,29.0021853 27.013916,31.0031618 C27.0101318,33.0041384 25.6568542,36.0014528 24,36.0014528 Z" id="Combined-Shape" fill="#000000"></path>
    </g>
</svg>