<?xml version="1.0" encoding="UTF-8"?>
<svg width="48px" height="48px" viewBox="0 0 48 48" version="1.1" xmlns="http://www.w3.org/2000/svg" xmlns:xlink="http://www.w3.org/1999/xlink">
    <!-- Generator: Sketch 43.2 (39069) - http://www.bohemiancoding.com/sketch -->
    <title>theicons.co/svg/food-11</title>
    <desc>Created with Sketch.</desc>
    <defs></defs>
    <g id="The-Icons" stroke="none" stroke-width="1" fill="none" fill-rule="evenodd">
        <path d="M11,16 C11,8.82029825 16.8202983,3 24,3 C31.1797017,3 37,8.82029825 37,16 C37,22.4995722 32.2301801,27.8850933 26,28.8471036 L26,44.0092049 C26,45.1086907 25.1122704,46 24,46 C22.8954305,46 22,45.1017876 22,44.0092049 L22,28.8471036 C15.7698199,27.8850933 11,22.4995722 11,16 Z M17.0620795,15.1467491 C17.6979416,12.0097758 20.4604668,9.28087268 23.5937383,9.11923317 C27.2008282,8.93315028 30.5627438,11.3079469 30.5627438,14.748291 C30.5627438,18.6306912 27.007469,20.5416468 24.1638155,19.0604053 C23.1841815,18.55012 22.8036992,17.3423018 23.3139845,16.3626679 C23.8242698,15.3830339 25.0320879,15.0025516 26.0117219,15.5128369 C26.2886937,15.6571098 26.5627438,15.5098082 26.5627438,14.748291 C26.5627438,13.8997196 25.3379823,13.0345701 23.7998166,13.1139211 C22.6114284,13.1752278 21.2755703,14.4948274 20.9823541,15.9413857 C19.88354,21.3622948 30.0725059,24.1565357 32.6009979,18.4191506 C32.6413767,18.3275272 32.6877954,18.2404437 32.73958,18.1581615 C32.9097422,17.4667574 33,16.7439191 33,16 C33,11.0294373 28.9705627,7 24,7 C19.0294373,7 15,11.0294373 15,16 C15,20.8277703 18.8012504,24.7677111 23.574026,24.990097 C19.3704114,23.6259817 16.0737758,20.0224647 17.0620795,15.1467491 Z" id="Shape" fill="#000000" fill-rule="nonzero"></path>
    </g>
</svg>