<?xml version="1.0" encoding="UTF-8"?>
<svg width="48px" height="48px" viewBox="0 0 48 48" version="1.1" xmlns="http://www.w3.org/2000/svg" xmlns:xlink="http://www.w3.org/1999/xlink">
    <!-- Generator: Sketch 43.2 (39069) - http://www.bohemiancoding.com/sketch -->
    <title>theicons.co/svg/food-17</title>
    <desc>Created with Sketch.</desc>
    <defs></defs>
    <g id="The-Icons" stroke="none" stroke-width="1" fill="none" fill-rule="evenodd">
        <path d="M25.9115416,18.0051271 L34.3172581,4.91932814 C34.9142316,3.98997545 36.1515635,3.72052888 37.0809161,4.31750238 C38.0102688,4.91447588 38.2797154,6.15180773 37.6827419,7.08116042 L32.0488997,15.8517782 L42.7643569,7.43249041 C43.6329002,6.75006357 44.8902098,6.90094073 45.5726367,7.76948399 C46.2550635,8.63802724 46.1041864,9.89533692 45.2356431,10.5777638 L35.7826352,18.0051271 L42.0027084,18.0051271 C44.2140034,18.0051271 46,19.798696 46,22.0090291 L46,24.0129312 C46,30.9498076 42.0360855,37.15076 35.9812325,40.1450444 C35.9812325,42.1878663 34.2156465,44.0051271 32.0092049,44.0051271 L15.9907951,44.0051271 C13.8402975,44.0051271 12.0796746,42.3016124 12,40.1649171 C6.78430176,38.1574708 2,31.4077236 2,24.0129312 L2,22.0090291 C2,19.7929709 3.78669818,18.0051271 5.99729162,18.0051271 L25.9115416,18.0051271 Z M6,22.0090291 L6,24.0129312 C6,29.7638672 9.50568476,34.8670562 14.7502007,36.9892279 L15.0655778,37.116844 C15.576875,37.3237382 15.9999494,37.9391264 15.999887,38.4870409 C15.999887,38.4870409 16.001954,40.0051271 15.9907951,40.0051271 C15.9907951,40.0051271 32,40.0061298 32,40.0028261 L32,38.4862428 C32,37.9434625 32.4184098,37.3258733 32.9345445,37.1170745 L33.2499629,36.9894741 C38.4947725,34.867722 42,29.7656846 42,24.0129312 C42,24.0129312 42.0010671,22.0051271 42.0027084,22.0051271 C42.0027084,22.0051271 6,22.0048738 6,22.0090291 Z M11.9872089,7.75160867 C11.9197995,7.69196574 11.8842176,7.66501839 11.8962912,7.67300804 C10.975146,7.06344649 10.7225575,5.82256349 11.3321191,4.90141827 C11.9416806,3.98027306 13.1825636,3.7276846 14.1037088,4.33724614 C14.5305053,4.61967577 15.0721116,5.09888143 15.5989346,5.80001529 C16.4708202,6.96038306 17,8.3728318 17,10.0051271 C17,11.6374224 16.4708202,13.0498711 15.5989346,14.2102389 C15.0721116,14.9113727 14.5305053,15.3905784 14.1037088,15.673008 C13.1825636,16.2825696 11.9416806,16.0299811 11.3321191,15.1088359 C10.7225575,14.1876907 10.975146,12.9468077 11.8962912,12.3372461 C11.8842176,12.3452358 11.9197995,12.3182884 11.9872089,12.2586455 C12.1248249,12.1368848 12.2673847,11.9853123 12.4010654,11.8074005 C12.7791798,11.3041788 13,10.7147813 13,10.0051271 C13,9.29547291 12.7791798,8.70607535 12.4010654,8.20285364 C12.2673847,8.02494185 12.1248249,7.87336936 11.9872089,7.75160867 Z M19.9872089,7.75160867 C19.9197995,7.69196574 19.8842176,7.66501839 19.8962912,7.67300804 C18.975146,7.06344649 18.7225575,5.82256349 19.3321191,4.90141827 C19.9416806,3.98027306 21.1825636,3.7276846 22.1037088,4.33724614 C22.5305053,4.61967577 23.0721116,5.09888143 23.5989346,5.80001529 C24.4708202,6.96038306 25,8.3728318 25,10.0051271 C25,11.6374224 24.4708202,13.0498711 23.5989346,14.2102389 C23.0721116,14.9113727 22.5305053,15.3905784 22.1037088,15.673008 C21.1825636,16.2825696 19.9416806,16.0299811 19.3321191,15.1088359 C18.7225575,14.1876907 18.975146,12.9468077 19.8962912,12.3372461 C19.8842176,12.3452358 19.9197995,12.3182884 19.9872089,12.2586455 C20.1248249,12.1368848 20.2673847,11.9853123 20.4010654,11.8074005 C20.7791798,11.3041788 21,10.7147813 21,10.0051271 C21,9.29547291 20.7791798,8.70607535 20.4010654,8.20285364 C20.2673847,8.02494185 20.1248249,7.87336936 19.9872089,7.75160867 Z" id="Combined-Shape" fill="#000000"></path>
    </g>
</svg>