<?xml version="1.0" encoding="UTF-8"?>
<svg width="48px" height="48px" viewBox="0 0 48 48" version="1.1" xmlns="http://www.w3.org/2000/svg" xmlns:xlink="http://www.w3.org/1999/xlink">
    <!-- Generator: Sketch 43.2 (39069) - http://www.bohemiancoding.com/sketch -->
    <title>theicons.co/svg/food-15</title>
    <desc>Created with Sketch.</desc>
    <defs></defs>
    <g id="The-Icons" stroke="none" stroke-width="1" fill="none" fill-rule="evenodd">
        <path d="M6,14 C6,11.2385763 8.23857625,9 11.0828457,9.00067248 C11.5586466,6.16262828 14.0267689,4 17,4 C18.9986872,4 20.769121,4.97726918 21.859527,6.48003329 C22.5083889,6.17221428 23.234083,6 24,6 C25.8064083,6 27.3890781,6.95793851 28.2677264,8.39353249 C28.7918597,8.1413196 29.3794264,8 30,8 C32.209139,8 34,9.790861 34,12 L34,16 L39.9914698,16 C41.1007504,16 42,16.9023438 42,17.9945615 L42,30.9962991 C42,34.3120516 39.3069658,37 36,37 L34,37 L34,39.9957423 C34,42.2072328 32.2129147,44 29.9944797,44 L12.0055203,44 C9.7933325,44 8,42.2109725 8,39.9957423 L8,18.0003662 C6.7855533,17.0881599 6,15.6358178 6,14 Z M12,39.9957423 C12,39.9996813 29.9944797,40 29.9944797,40 C29.9987601,40 29.9997911,29.4473436 30,22.3368429 L30,16 L15.5839563,16 C14.9412732,17.4709448 13.6113267,18.5728998 12,18.8999819 L12,39.9957423 Z M34,20 L34,33 L36,33 C37.1002982,33 38,32.1004415 38,30.9962991 L38,20 L34,20 Z M24,20.036377 C25.1045695,20.036377 26,20.9403896 26,22.0420168 L26,33.9943601 C26,35.1020445 25.1122704,36 24,36 C22.8954305,36 22,35.0959874 22,33.9943601 L22,22.0420168 C22,20.9343325 22.8877296,20.036377 24,20.036377 Z M18,20.036377 C19.1045695,20.036377 20,20.9403896 20,22.0420168 L20,33.9943601 C20,35.1020445 19.1122704,36 18,36 C16.8954305,36 16,35.0959874 16,33.9943601 L16,22.0420168 C16,20.9343325 16.8877296,20.036377 18,20.036377 Z" id="Combined-Shape" fill="#000000"></path>
    </g>
</svg>