<?xml version="1.0" encoding="UTF-8"?>
<svg width="48px" height="48px" viewBox="0 0 48 48" version="1.1" xmlns="http://www.w3.org/2000/svg" xmlns:xlink="http://www.w3.org/1999/xlink">
    <!-- Generator: Sketch 43.2 (39069) - http://www.bohemiancoding.com/sketch -->
    <title>theicons.co/svg/food-19</title>
    <desc>Created with Sketch.</desc>
    <defs></defs>
    <g id="The-Icons" stroke="none" stroke-width="1" fill="none" fill-rule="evenodd">
        <path d="M30.7409388,13.9108648 L29.0062999,15.6455037 C29.6244004,16.1431777 30.0148487,16.9286046 30.0128193,18.001709 C30.0090351,20.0026855 28.6557575,23 26.9989032,23 C25.905974,23 24.949229,21.6889905 24.4250907,20.2267129 L21.1279423,23.5238613 C21.4958077,23.778674 21.8303294,24.1441742 22.1108918,24.6322518 C23.1081028,26.3670404 23.4347873,29.6394297 21.9999094,30.4678568 C20.5841722,31.285233 17.9657508,29.4101354 16.9441909,27.7076128 L13.9108648,30.7409388 C18.1259131,33.77252 23.8571149,33.7528942 28.0525327,30.6820613 C26.417769,29.9518983 24.8461713,28.5588244 25.0684867,27.2980111 C25.3561964,25.6663282 28.5567246,24.866058 30.5115962,25.2126139 C31.1073873,25.3182346 31.592952,25.5306548 31.9719926,25.8211563 C33.6732774,21.9731818 33.2629262,17.4173843 30.7409388,13.9108648 Z M8.90162753,35.7501761 C16.3983499,41.8330124 27.4323179,41.386008 34.4091629,34.4091629 C41.386008,27.4323179 41.8330124,16.3983499 35.7501761,8.90162753 L33.5976535,11.0541501 C38.5328059,17.3554454 38.0990763,26.4938528 32.2964646,32.2964646 C26.4938528,38.0990763 17.3554454,38.5328059 11.0541501,33.5976535 L8.90162753,35.7501761 Z M4.58578644,37.2375901 C3.80473785,36.4565415 3.80473785,35.1902115 4.58578644,34.4091629 L34.4091629,4.58578644 C35.1902115,3.80473785 36.4565415,3.80473785 37.2375901,4.58578644 C46.2541366,13.602333 46.2541366,28.2210435 37.2375901,37.2375901 C28.2210435,46.2541366 13.602333,46.2541366 4.58578644,37.2375901 Z" id="Combined-Shape" fill="#000000"></path>
    </g>
</svg>