<?xml version="1.0" encoding="UTF-8"?>
<svg width="48px" height="48px" viewBox="0 0 48 48" version="1.1" xmlns="http://www.w3.org/2000/svg" xmlns:xlink="http://www.w3.org/1999/xlink">
    <!-- Generator: Sketch 43.2 (39069) - http://www.bohemiancoding.com/sketch -->
    <title>theicons.co/svg/food-04</title>
    <desc>Created with Sketch.</desc>
    <defs></defs>
    <g id="The-Icons" stroke="none" stroke-width="1" fill="none" fill-rule="evenodd">
        <path d="M18.8357818,25.9044232 C17.6195849,25.7176819 16.3338099,26.0926866 15.3970592,27.0294373 C14.1693139,28.2571826 12.2673783,31.3415715 11.099956,34.1990887 C10.4859912,35.7018999 10.0273083,38.0476196 10.0273083,38.0476196 C10.0273083,38.0476196 12.3814509,37.5973596 13.884262,36.9833947 C16.7417792,35.8159725 19.8261681,33.9140369 21.0539135,32.6862915 C22.203861,31.536344 22.5072675,29.8604233 21.964133,28.4329262 L19.6383574,30.7587019 C18.8580503,31.539009 17.5977667,31.5438532 16.8112728,30.7573593 C16.0302242,29.9763107 16.0240553,28.7161497 16.8099303,27.9302747 L18.8357818,25.9044232 Z M24.8465202,11.9641796 C24.4901498,13.2986468 24.8354233,14.7815098 25.8823406,15.8284271 C27.110086,17.0561725 30.1944749,18.9581081 33.0519921,20.1255303 C34.5548032,20.7394952 36.9153665,21.1562214 36.9153665,21.1562214 C36.9153665,21.1562214 36.4502629,18.8440355 35.8362981,17.3412243 C34.6688758,14.4837071 32.7669402,11.3993183 31.5391949,10.1715729 C30.4922775,9.12465553 29.0094145,8.77938207 27.6749474,9.1357525 L29.2268289,10.687634 C30.007136,11.4679412 30.0119803,12.7282247 29.2254864,13.5147186 C28.4444378,14.2957672 27.1842767,14.3019361 26.3984018,13.5160612 L24.8465202,11.9641796 Z M12.5686321,24.2010101 C15.6928265,21.0768158 20.7581463,21.0768158 23.8823406,24.2010101 C27.0065349,27.3252045 27.0065349,32.3905243 23.8823406,35.5147186 C20.7581463,38.638913 10.0359722,44.2957672 6.91177787,41.1715729 C3.78758353,38.0473785 9.44443778,27.3252045 12.5686321,24.2010101 Z M23.0539135,18.6568542 C19.9297192,15.5326599 19.9297192,10.4673401 23.0539135,7.34314575 C26.1781078,4.21895142 31.2434277,4.21895142 34.367622,7.34314575 C37.4918163,10.4673401 43.1486706,21.1895142 40.0244762,24.3137085 C36.9002819,27.4379028 26.1781078,21.7810486 23.0539135,18.6568542 Z M7.65441855,18.9142136 C6.40771343,17.6675084 8.66507274,13.3888407 9.91177787,12.1421356 C11.158483,10.8954305 13.1797914,10.8954305 14.4264965,12.1421356 C15.6732016,13.3888407 15.6732016,15.4101491 14.4264965,16.6568542 C13.1797914,17.9035594 8.90112368,20.1609187 7.65441855,18.9142136 Z M37.4264965,37.7157288 C36.1797914,38.9624339 31.9011237,36.7050746 30.6544186,35.4583694 C29.4077134,34.2116643 29.4077134,32.1903559 30.6544186,30.9436508 C31.9011237,29.6969457 33.9224321,29.6969457 35.1691372,30.9436508 C36.4158423,32.1903559 38.6732016,36.4690236 37.4264965,37.7157288 Z" id="Combined-Shape" fill="#000000"></path>
    </g>
</svg>