<?xml version="1.0" encoding="UTF-8"?>
<svg width="48px" height="48px" viewBox="0 0 48 48" version="1.1" xmlns="http://www.w3.org/2000/svg" xmlns:xlink="http://www.w3.org/1999/xlink">
    <!-- Generator: Sketch 43.2 (39069) - http://www.bohemiancoding.com/sketch -->
    <title>theicons.co/svg/food-13</title>
    <desc>Created with Sketch.</desc>
    <defs></defs>
    <g id="The-Icons" stroke="none" stroke-width="1" fill="none" fill-rule="evenodd">
        <path d="M34.210941,1.10642055 C34.7046935,0.11835057 35.9059479,-0.282372954 36.8940179,0.211379509 C37.8820879,0.705131971 38.2828114,1.90638641 37.789059,2.89445639 L35.2339799,7.9880108 C37.8867752,8.11050877 40,10.3050835 40,12.9826197 L40,15.9830048 C40,17.0873616 39.1107383,17.9826197 37.9982567,17.9826197 L37.4894823,17.9826197 L34.2655489,42.0040247 C34.1188903,43.0967726 33.1017876,43.9826197 32.0092049,43.9826197 L15.9907951,43.9826197 C14.8913093,43.9826197 13.8802879,43.0906498 13.7344511,42.0040247 L10.5105177,17.9826197 L10.0017433,17.9826197 C8.89621101,17.9826197 8,17.0951865 8,15.9830048 L8,12.9826197 C8,10.221196 10.2374593,7.98261974 13,7.98261974 L30.7650493,7.98261974 L34.210941,1.10642055 Z M13,11.9826197 C12.4471222,11.9826197 12,12.429811 12,12.9826197 L12.0340572,13.9828201 L36,13.9851832 L36,12.9826197 C36,12.4333188 35.5496505,11.9826197 35,11.9826197 L13,11.9826197 Z M14.5762881,17.9826197 L17.5100122,39.9811843 L30.5028194,39.9689077 L33.4222587,17.9826197 L14.5762881,17.9826197 Z M24,33.9826197 C20.6862915,33.9826197 18,31.2963282 18,27.9826197 C18,24.6689112 20.6862915,21.9826197 24,21.9826197 C27.3137085,21.9826197 30,24.6689112 30,27.9826197 C30,31.2963282 27.3137085,33.9826197 24,33.9826197 Z M24,29.9826197 C25.1045695,29.9826197 26,29.0871892 26,27.9826197 C26,26.8780502 25.1045695,25.9826197 24,25.9826197 C22.8954305,25.9826197 22,26.8780502 22,27.9826197 C22,29.0871892 22.8954305,29.9826197 24,29.9826197 Z" id="Combined-Shape" fill="#000000"></path>
    </g>
</svg>