<?xml version="1.0" encoding="UTF-8"?>
<svg width="48px" height="48px" viewBox="0 0 48 48" version="1.1" xmlns="http://www.w3.org/2000/svg" xmlns:xlink="http://www.w3.org/1999/xlink">
    <!-- Generator: Sketch 43.2 (39069) - http://www.bohemiancoding.com/sketch -->
    <title>theicons.co/svg/food-06</title>
    <desc>Created with Sketch.</desc>
    <defs></defs>
    <g id="The-Icons" stroke="none" stroke-width="1" fill="none" fill-rule="evenodd">
        <path d="M13,34 C13,31.2385763 15.2385763,29 18,29 C20.7614237,29 23,31.2385763 23,34 C23,34.3364209 22.9667745,34.6650816 22.9034259,34.9828796 L32.9918416,32.4528086 C32.8512174,27.7429731 30.9013206,23.4876638 27.8133553,20.3580849 C27.2216186,22.4595647 25.2907033,24 23,24 C20.2385763,24 18,21.7614237 18,19 C18,17.6570159 18.5294775,16.4376979 19.3910712,15.5394073 C18.1511914,15.228586 16.8603,15.0463673 15.5333976,15.0077518 L9.70947519,38.2917868 L14.1415872,37.1802586 C13.4284095,36.3159937 13,35.2080271 13,34 Z M38.9545577,30.9574207 C38.2182124,19.1875466 28.797151,9.77233275 17.0247843,9.04518956 L16.5228596,11.0518836 C27.454146,11.799252 36.1917209,20.5317843 36.9469998,31.4608956 L38.9545577,30.9574207 Z M41.4018612,34.4917383 L7.62498224,42.935958 C6.07888684,43.3224819 4.67842825,41.9220233 5.06495209,40.3759279 L13.5091718,6.59904891 C13.7441148,5.65927691 14.5885011,5 15.5571959,5 C30.7139408,5 43.0009101,17.2869693 43.0009101,32.4437142 C43.0009101,33.412409 42.3416332,34.2567953 41.4018612,34.4917383 Z M27,32 C25.3431458,32 24,30.6568542 24,29 C24,27.3431458 25.3431458,26 27,26 C28.6568542,26 30,27.3431458 30,29 C30,30.6568542 28.6568542,32 27,32 Z M19,34 C19,33.4477153 18.5522847,33 18,33 C17.4477153,33 17,33.4477153 17,34 C17,34.5522847 17.4477153,35 18,35 C18.5522847,35 19,34.5522847 19,34 Z M24,19 C24,18.4477153 23.5522847,18 23,18 C22.4477153,18 22,18.4477153 22,19 C22,19.5522847 22.4477153,20 23,20 C23.5522847,20 24,19.5522847 24,19 Z" id="Combined-Shape" fill="#000000"></path>
    </g>
</svg>