<?xml version="1.0" encoding="UTF-8"?>
<svg width="48px" height="48px" viewBox="0 0 48 48" version="1.1" xmlns="http://www.w3.org/2000/svg" xmlns:xlink="http://www.w3.org/1999/xlink">
    <!-- Generator: Sketch 43.2 (39069) - http://www.bohemiancoding.com/sketch -->
    <title>theicons.co/svg/food-03</title>
    <desc>Created with Sketch.</desc>
    <defs></defs>
    <g id="The-Icons" stroke="none" stroke-width="1" fill="none" fill-rule="evenodd">
        <path d="M14,36 L12,36 C8.69303423,36 6,33.3137085 6,30 L6,26.0085302 C6,25.4556588 6.22447241,24.9538674 6.58746026,24.5901235 C6.21102142,23.8060192 6,22.9275912 6,22 L6,18.0085302 C6,17.4556588 6.22447241,16.9538674 6.58746026,16.5901235 C6.21102142,15.8060192 6,14.9275912 6,14 L6,10.0085302 C6,8.90195036 6.8992496,8 8.0085302,8 L12,8 C12.7800192,8 13.5258821,8.1494529 14.210305,8.42134048 C14.9047236,5.87350508 17.2382741,4 20,4 L23.9914698,4 C25.1007504,4 26,4.90195036 26,6.0085302 L26,10 C26,10.9275912 25.7889786,11.8060192 25.4125397,12.5901235 C25.7755276,12.9538674 26,13.4556588 26,14.0085302 L26,18 C26,18.9275912 25.7889786,19.8060192 25.4125397,20.5901235 C25.7755276,20.9538674 26,21.4556588 26,22.0085302 L26,26 C26,29.3137085 23.3069658,32 20,32 L18,32 L18,42.0000796 C18,43.1046051 17.1122704,44 16,44 C14.8954305,44 14,43.1080589 14,42.0000796 L14,36 Z M30,42.008845 L30,22 C30,18.6862915 32.6930342,16 36,16 L39.9914698,16 C41.1007504,16 42,16.9019504 42,18.0085302 L42,22 C42,22.9275912 41.7889786,23.8060192 41.4125397,24.5901235 C41.7755276,24.9538674 42,25.4556588 42,26.0085302 L42,30 C42,33.3137085 39.3069658,36 36,36 L34,36 L34,42.008845 C34,43.1085295 33.1122704,44 32,44 C30.8954305,44 30,43.1103261 30,42.008845 Z M14,30 C14,28.8984525 13.10085,28 12,28 L10,28 L10,30 C10,31.1015475 10.89915,32 12,32 L14,32 L14,30 Z M14,22 C14,20.8984525 13.10085,20 12,20 L10,20 L10,22 C10,23.1015475 10.89915,24 12,24 L14,24 L14,22 Z M14,14 C14,12.8984525 13.10085,12 12,12 L10,12 L10,14 C10,15.1015475 10.89915,16 12,16 L14,16 L14,14 Z M18,10 L18,12 L20,12 C21.10085,12 22,11.1015475 22,10 L22,8 L20,8 C18.89915,8 18,8.89845255 18,10 Z M18,18 L18,20 L20,20 C21.10085,20 22,19.1015475 22,18 L22,16 L20,16 C18.89915,16 18,16.8984525 18,18 Z M18,26 L18,28 L20,28 C21.10085,28 22,27.1015475 22,26 L22,24 L20,24 C18.89915,24 18,24.8984525 18,26 Z M34,30 L34,32 L36,32 C37.10085,32 38,31.1015475 38,30 L38,28 L36,28 C34.89915,28 34,28.8984525 34,30 Z M34,22 L34,24 L36,24 C37.10085,24 38,23.1015475 38,22 L38,20 L36,20 C34.89915,20 34,20.8984525 34,22 Z" id="Combined-Shape" fill="#000000"></path>
    </g>
</svg>