<?xml version="1.0" encoding="UTF-8"?>
<svg width="48px" height="48px" viewBox="0 0 48 48" version="1.1" xmlns="http://www.w3.org/2000/svg" xmlns:xlink="http://www.w3.org/1999/xlink">
    <!-- Generator: Sketch 43.2 (39069) - http://www.bohemiancoding.com/sketch -->
    <title>theicons.co/svg/food-01</title>
    <desc>Created with Sketch.</desc>
    <defs></defs>
    <g id="The-Icons" stroke="none" stroke-width="1" fill="none" fill-rule="evenodd">
        <path d="M27.4141333,17.5597021 C27.5811767,17.5648558 29.9687971,17.1179557 30.7955316,17.0379891 C31.2041001,16.99847 31.5979653,16.9766765 31.9860236,16.9739645 C36.4671911,17.0036306 39.9408367,21.3596031 39.9999203,27.9560024 C39.9223936,36.4548966 33.4933457,44.0111456 23.9999609,43.9739328 C14.5065746,44.0111456 8.07752664,36.4548966 8,27.9560024 C8.05908361,21.3596031 11.5327292,17.0036306 16.0138967,16.9739645 C16.4019549,16.9766765 16.7958202,16.99847 17.2043886,17.0379891 C18.0311232,17.1179557 21.500043,17.7625412 22.0341729,17.8365959 L15.5857062,11.3881292 C14.8046576,10.6070806 14.8046576,9.34075065 15.5857062,8.55970207 C16.3667548,7.77865348 17.6330848,7.77865348 18.4141333,8.55970207 L20.1665487,10.3121174 C20.4290158,8.89896394 20.9870563,7.35226376 22.1298873,6.20943275 C24.8635573,3.47576271 27.9035953,4.05032481 27.9035953,4.05032481 C29.0158081,4.033536 29.9253834,4.9779856 29.9467507,6.07569982 C29.9467507,6.07569982 30.5204116,9.13261696 27.7867415,11.866287 C26.6439105,13.009118 25.0972103,13.5671585 23.6840568,13.8296256 L27.4141333,17.5597021 Z M19.3757585,21.4381605 C17.91166,21.1576955 16.2496194,20.9757095 16.013243,20.9738713 C13.9698604,20.9874838 12.040911,23.406398 11.9998359,27.9555952 C12.0584859,34.35803 16.8633658,40.0041177 23.9887029,39.9739454 C31.1365545,40.0041177 35.9414344,34.35803 36.0000844,27.9555952 C35.9590093,23.406398 34.0300598,20.9874838 31.9866773,20.9738713 C31.7503008,20.9757095 30.0882603,21.1576955 28.6241618,21.4381605 C26.5938847,21.8270835 25.4507992,21.9802641 23.9999645,21.9739366 C22.5491211,21.9802641 21.4060356,21.8270835 19.3757585,21.4381605 Z" id="Combined-Shape" fill="#000000"></path>
    </g>
</svg>