<?xml version="1.0" encoding="UTF-8"?>
<svg width="48px" height="48px" viewBox="0 0 48 48" version="1.1" xmlns="http://www.w3.org/2000/svg" xmlns:xlink="http://www.w3.org/1999/xlink">
    <!-- Generator: Sketch 43.2 (39069) - http://www.bohemiancoding.com/sketch -->
    <title>theicons.co/svg/grid-14</title>
    <desc>Created with Sketch.</desc>
    <defs></defs>
    <g id="The-Icons" stroke="none" stroke-width="1" fill="none" fill-rule="evenodd">
        <path d="M10.9691313,22.0030493 L13.0626067,19.7664404 C13.8469865,18.9820606 13.8551324,17.7184754 13.0686385,16.9319815 C12.2875899,16.1509329 11.0166497,16.1555432 10.2341796,16.9380133 L4.58938885,22.582804 C4.19383626,22.9783566 3.99972205,23.4897217 4.00004707,24.0015763 C3.99652075,24.5141196 4.1911169,25.0250227 4.58335709,25.4172629 C4.5873786,25.4212823 10.2341796,31.0680854 10.2341796,31.0680854 C11.0185594,31.8524652 12.2821445,31.860611 13.0686385,31.0741171 C13.849687,30.2930686 13.8450768,29.0221284 13.0626067,28.2396583 L10.8259978,26.0030493 L21.9691313,26.0030493 L21.9691313,37.1828642 L19.7692038,34.9462553 C18.9867336,34.1637852 17.7157934,34.159175 16.9347449,34.9402235 C16.148251,35.7267175 16.1563968,36.9903026 16.9407766,37.7746824 C16.9407766,37.7746824 22.5875797,43.4214834 22.5915991,43.4255049 C22.9838393,43.8177451 23.4947424,44.0123412 24.0072857,44.0088149 C24.5191403,44.00914 25.0305054,43.8150257 25.426058,43.4194732 L31.0708487,37.7746824 C31.8533188,36.9922123 31.8579291,35.7212721 31.0768805,34.9402235 C30.2903866,34.1537296 29.0268014,34.1618755 28.2424216,34.9462553 L25.9691313,37.1828642 L25.9691313,26.0030493 L37.1828642,26.0030493 L34.9462553,28.2396583 C34.1637852,29.0221284 34.159175,30.2930686 34.9402235,31.0741171 C35.7267175,31.860611 36.9903026,31.8524652 37.7746824,31.0680854 C37.7746824,31.0680854 43.4214834,25.4212823 43.4255049,25.4172629 C43.8177451,25.0250227 44.0123412,24.5141196 44.0088149,24.0015763 C44.00914,23.4897217 43.8150257,22.9783566 43.4194732,22.582804 L37.7746824,16.9380133 C36.9922123,16.1555432 35.7212721,16.1509329 34.9402235,16.9319815 C34.1537296,17.7184754 34.1618755,18.9820606 34.9462553,19.7664404 L37.1828642,22.0030493 L25.9691313,22.0030493 L26.0058127,10.8259978 L28.2424216,13.0626067 C29.0268014,13.8469865 30.2903866,13.8551324 31.0768805,13.0686385 C31.8579291,12.2875899 31.8533188,11.0166497 31.0708487,10.2341796 L25.426058,4.58938885 C25.0305054,4.19383626 24.5191403,3.99972205 24.0072857,4.00004707 C23.4947424,3.99652075 22.9838393,4.1911169 22.5915991,4.58335709 C22.5875797,4.5873786 16.9407766,10.2341796 16.9407766,10.2341796 C16.1563968,11.0185594 16.148251,12.2821445 16.9347449,13.0686385 C17.7157934,13.849687 18.9867336,13.8450768 19.7692038,13.0626067 L21.9691313,10.8259978 L21.9691313,22.0030493 L10.9691313,22.0030493 Z" id="Rectangle-586" fill="#000000"></path>
    </g>
</svg>