<?xml version="1.0" encoding="UTF-8"?>
<svg width="48px" height="48px" viewBox="0 0 48 48" version="1.1" xmlns="http://www.w3.org/2000/svg" xmlns:xlink="http://www.w3.org/1999/xlink">
    <!-- Generator: Sketch 43.2 (39069) - http://www.bohemiancoding.com/sketch -->
    <title>theicons.co/svg/grid-17</title>
    <desc>Created with Sketch.</desc>
    <defs></defs>
    <g id="The-Icons" stroke="none" stroke-width="1" fill="none" fill-rule="evenodd">
        <path d="M6.09983766,15.0701492 C5.60606329,16.0582083 6.0067602,17.2594716 6.99481923,17.7532459 C7.98287827,18.2470203 9.18414159,17.8463234 9.67791595,16.8582644 C9.82729113,16.5593596 9.98602656,16.2652406 10.1538603,15.9763191 C10.7086839,15.0212042 10.3841837,13.7971572 9.4290688,13.2423335 C8.47395388,12.6875099 7.24990683,13.0120101 6.69508319,13.967125 C6.48521199,14.328413 6.28668618,14.6962591 6.09983766,15.0701492 Z M5.34486959,31.2235585 C5.74393444,32.2535202 6.90238932,32.7649631 7.93235098,32.3658983 C8.96231264,31.9668334 9.47375557,30.8083786 9.07469072,29.7784169 C8.36739082,27.9529197 8,26.0034332 8,24 C8,22.8954305 7.1045695,22 6,22 C4.8954305,22 4,22.8954305 4,24 C4,26.4996807 4.45970117,28.9389936 5.34486959,31.2235585 Z M19.5544457,43.5037081 C20.631594,43.7483001 21.7030763,43.0733799 21.9476683,41.9962316 C22.1922604,40.9190833 21.5173402,39.847601 20.4401918,39.603009 C17.4559164,38.9253585 14.741139,37.4003073 12.6010321,35.2278062 C11.8258722,34.440913 10.559578,34.4314012 9.77268472,35.2065611 C8.98579149,35.981721 8.97627972,37.2480152 9.75143958,38.0349084 C12.4245899,40.7485214 15.8193708,42.6555708 19.5544457,43.5037081 Z M26,22 L32.0092049,22 C33.1086907,22 34,22.8877296 34,24 C34,25.1045695 33.1017876,26 32.0092049,26 L26,26 L26,32.0092049 C26,33.1086907 25.1122704,34 24,34 C22.8954305,34 22,33.1017876 22,32.0092049 L22,26 L15.9907951,26 C14.8913093,26 14,25.1122704 14,24 C14,22.8954305 14.8982124,22 15.9907951,22 L22,22 L22,15.9907951 C22,14.8913093 22.8877296,14 24,14 C25.1045695,14 26,14.8982124 26,15.9907951 L26,22 Z M44,24 C44,33.3805632 37.4911435,41.4411192 28.4630429,43.4997286 C27.3861156,43.7452922 26.314025,43.0713387 26.0684614,41.9944115 C25.8228979,40.9174842 26.4968513,39.8453936 27.5737786,39.59983 C34.7916794,37.9539868 40,31.504012 40,24 C40,15.163444 32.836556,8 24,8 C22.8954305,8 22,7.1045695 22,6 C22,4.8954305 22.8954305,4 24,4 C35.045695,4 44,12.954305 44,24 Z" id="Combined-Shape" fill="#000000" fill-rule="nonzero"></path>
    </g>
</svg>