<?xml version="1.0" encoding="UTF-8"?>
<svg width="48px" height="48px" viewBox="0 0 48 48" version="1.1" xmlns="http://www.w3.org/2000/svg" xmlns:xlink="http://www.w3.org/1999/xlink">
    <!-- Generator: Sketch 43.2 (39069) - http://www.bohemiancoding.com/sketch -->
    <title>theicons.co/svg/grid-08</title>
    <desc>Created with Sketch.</desc>
    <defs></defs>
    <g id="The-Icons" stroke="none" stroke-width="1" fill="none" fill-rule="evenodd">
        <path d="M6,37 C4.8954305,37 4,36.1056623 4,35.0017862 L4,7.99821383 C4,6.8946308 4.88772964,6 6,6 C7.1045695,6 8,6.89433765 8,7.99821383 L8,15 L14,15 L14,12.0058587 C14,10.8980535 14.8978404,10 15.991617,10 L42.008383,10 C43.1083227,10 44,10.8970601 44,12.0058587 L44,21.9941413 C44,23.1019465 43.1021596,24 42.008383,24 L15.991617,24 C14.8916773,24 14,23.1029399 14,21.9941413 L14,19 L8,19 L8,33 L14,33 L14,30.0058587 C14,28.8980535 14.8978404,28 15.991617,28 L42.008383,28 C43.1083227,28 44,28.8970601 44,30.0058587 L44,39.9941413 C44,41.1019465 43.1021596,42 42.008383,42 L15.991617,42 C14.8916773,42 14,41.1029399 14,39.9941413 L14,37 L6,37 Z M18,38 L40,38 L40,32 L18,32 L18,38 Z M18,20 L40,20 L40,14 L18,14 L18,20 Z" id="Combined-Shape" fill="#000000"></path>
    </g>
</svg>