<?xml version="1.0" encoding="UTF-8"?>
<svg width="48px" height="48px" viewBox="0 0 48 48" version="1.1" xmlns="http://www.w3.org/2000/svg" xmlns:xlink="http://www.w3.org/1999/xlink">
    <!-- Generator: Sketch 43.2 (39069) - http://www.bohemiancoding.com/sketch -->
    <title>theicons.co/svg/grid-09</title>
    <desc>Created with Sketch.</desc>
    <defs></defs>
    <g id="The-Icons" stroke="none" stroke-width="1" fill="none" fill-rule="evenodd">
        <path d="M38,38 L38,10 L10,10 L10,24 L22.0049107,24 C23.1067681,24 24,24.8926228 24,25.9950893 L24,38 L38,38 Z M6,7.99970728 C6,6.89529944 6.88989258,6 7.99970728,6 L40.0002927,6 C41.1047006,6 42,6.88989258 42,7.99970728 L42,40.0002927 C42,41.1047006 41.1101074,42 40.0002927,42 L7.99970728,42 C6.89529944,42 6,41.1101074 6,40.0002927 L6,7.99970728 Z M10,28 L10,38 L20,38 L20,28 L10,28 Z" id="Combined-Shape" fill="#000000"></path>
    </g>
</svg>