<?xml version="1.0" encoding="UTF-8"?>
<svg width="48px" height="48px" viewBox="0 0 48 48" version="1.1" xmlns="http://www.w3.org/2000/svg" xmlns:xlink="http://www.w3.org/1999/xlink">
    <!-- Generator: Sketch 43.2 (39069) - http://www.bohemiancoding.com/sketch -->
    <title>theicons.co/svg/grid-02</title>
    <desc>Created with Sketch.</desc>
    <defs></defs>
    <g id="The-Icons" stroke="none" stroke-width="1" fill="none" fill-rule="evenodd">
        <path d="M40.0002927,26 C41.1047006,26 42,26.8945138 42,27.9940603 L42,40.0059397 C42,41.1072288 41.1101074,42 40.0002927,42 L7.99970728,42 C6.89529944,42 6,41.1054862 6,40.0059397 L6,27.9940603 C6,26.8927712 6.88989258,26 7.99970728,26 L40.0002927,26 Z M38,30 L10,30 L10,38 L38,38 L38,30 Z M40.0002927,6 C41.1047006,6 42,6.89451376 42,7.99406028 L42,20.0059397 C42,21.1072288 41.1101074,22 40.0002927,22 L7.99970728,22 C6.89529944,22 6,21.1054862 6,20.0059397 L6,7.99406028 C6,6.8927712 6.88989258,6 7.99970728,6 L40.0002927,6 Z M38,10 L10,10 L10,18 L38,18 L38,10 Z" id="Rectangle-560" fill="#000000"></path>
    </g>
</svg>