<?xml version="1.0" encoding="UTF-8"?>
<svg width="48px" height="48px" viewBox="0 0 48 48" version="1.1" xmlns="http://www.w3.org/2000/svg" xmlns:xlink="http://www.w3.org/1999/xlink">
    <!-- Generator: Sketch 43.2 (39069) - http://www.bohemiancoding.com/sketch -->
    <title>theicons.co/svg/grid-16</title>
    <desc>Created with Sketch.</desc>
    <defs></defs>
    <g id="The-Icons" stroke="none" stroke-width="1" fill="none" fill-rule="evenodd">
        <path d="M26,41.8901424 L26,43.9914698 C26,45.1007504 25.1122704,46 24,46 C22.8954305,46 22,45.0980496 22,43.9914698 L22,41.8901424 C13.6567668,40.9678448 7.0321552,34.3432332 6.10985756,26 L4.0085302,26 C2.8992496,26 2,25.1122704 2,24 C2,22.8954305 2.90195036,22 4.0085302,22 L6.10985756,22 C7.0321552,13.6567668 13.6567668,7.0321552 22,6.10985756 L22,4.0085302 C22,2.8992496 22.8877296,2 24,2 C25.1045695,2 26,2.90195036 26,4.0085302 L26,6.10985756 C34.3432332,7.0321552 40.9678448,13.6567668 41.8901424,22 L43.9914698,22 C45.1007504,22 46,22.8877296 46,24 C46,25.1045695 45.0980496,26 43.9914698,26 L41.8901424,26 C40.9678448,34.3432332 34.3432332,40.9678448 26,41.8901424 Z M36.0085302,26 C34.8992496,26 34,25.1122704 34,24 C34,22.8954305 34.9019504,22 36.0085302,22 L37.8582223,22 C36.9811968,15.8686177 32.1313823,11.0188032 26,10.1417777 L26,11.9914698 C26,13.1007504 25.1122704,14 24,14 C22.8954305,14 22,13.0980496 22,11.9914698 L22,10.1417777 C15.8686177,11.0188032 11.0188032,15.8686177 10.1417777,22 L11.9914698,22 C13.1007504,22 14,22.8877296 14,24 C14,25.1045695 13.0980496,26 11.9914698,26 L10.1417777,26 C11.0188032,32.1313823 15.8686177,36.9811968 22,37.8582223 L22,36.0085302 C22,34.8992496 22.8877296,34 24,34 C25.1045695,34 26,34.9019504 26,36.0085302 L26,37.8582223 C32.1313823,36.9811968 36.9811968,32.1313823 37.8582223,26 L36.0085302,26 Z M24,27 C22.3431458,27 21,25.6568542 21,24 C21,22.3431458 22.3431458,21 24,21 C25.6568542,21 27,22.3431458 27,24 C27,25.6568542 25.6568542,27 24,27 Z" id="Combined-Shape" fill="#000000" fill-rule="nonzero"></path>
    </g>
</svg>