<?xml version="1.0" encoding="UTF-8"?>
<svg width="48px" height="48px" viewBox="0 0 48 48" version="1.1" xmlns="http://www.w3.org/2000/svg" xmlns:xlink="http://www.w3.org/1999/xlink">
    <!-- Generator: Sketch 43.2 (39069) - http://www.bohemiancoding.com/sketch -->
    <title>theicons.co/svg/grid-07</title>
    <desc>Created with Sketch.</desc>
    <defs></defs>
    <g id="The-Icons" stroke="none" stroke-width="1" fill="none" fill-rule="evenodd">
        <path d="M8,8.0085302 C8,6.8992496 8.88926172,6 10.0017433,6 L37.9982567,6 C39.103789,6 40,6.90195036 40,8.0085302 L40,15.9914698 C40,17.1007504 39.1107383,18 37.9982567,18 L10.0017433,18 C8.89621101,18 8,17.0980496 8,15.9914698 L8,8.0085302 Z M12,10 L12,14 L36,14 L36,10 L12,10 Z M8,32.0085302 C8,30.8992496 8.88926172,30 10.0017433,30 L37.9982567,30 C39.103789,30 40,30.9019504 40,32.0085302 L40,39.9914698 C40,41.1007504 39.1107383,42 37.9982567,42 L10.0017433,42 C8.89621101,42 8,41.0980496 8,39.9914698 L8,32.0085302 Z M12,34 L12,38 L36,38 L36,34 L12,34 Z M4,24 C4,22.8954305 4.89153983,22 5.99729162,22 L42.0027084,22 C43.1057821,22 44,22.8877296 44,24 C44,25.1045695 43.1084602,26 42.0027084,26 L5.99729162,26 C4.89421792,26 4,25.1122704 4,24 Z" id="Combined-Shape" fill="#000000"></path>
    </g>
</svg>