<?xml version="1.0" encoding="UTF-8"?>
<svg width="48px" height="48px" viewBox="0 0 48 48" version="1.1" xmlns="http://www.w3.org/2000/svg" xmlns:xlink="http://www.w3.org/1999/xlink">
    <!-- Generator: Sketch 43.2 (39069) - http://www.bohemiancoding.com/sketch -->
    <title>theicons.co/svg/grid-06</title>
    <desc>Created with Sketch.</desc>
    <defs></defs>
    <g id="The-Icons" stroke="none" stroke-width="1" fill="none" fill-rule="evenodd">
        <path d="M42,15.9940603 L42,32.0059397 C42,33.1072288 41.1101074,34 40.0002927,34 L7.99970728,34 C6.89529944,34 6,33.1054862 6,32.0059397 L6,15.9940603 C6,14.8927712 6.88989258,14 7.99970728,14 L40.0002927,14 C41.1047006,14 42,14.8945138 42,15.9940603 Z M6,8 C6,6.8954305 6.88989258,6 7.99970728,6 L40.0002927,6 C41.1047006,6 42,6.88772964 42,8 C42,9.1045695 41.1101074,10 40.0002927,10 L7.99970728,10 C6.89529944,10 6,9.11227036 6,8 Z M6,40 C6,38.8954305 6.88989258,38 7.99970728,38 L40.0002927,38 C41.1047006,38 42,38.8877296 42,40 C42,41.1045695 41.1101074,42 40.0002927,42 L7.99970728,42 C6.89529944,42 6,41.1122704 6,40 Z M38,30 L38,18 L10,18 L10,30 L38,30 Z" id="Combined-Shape" fill="#000000"></path>
    </g>
</svg>