<?xml version="1.0" encoding="UTF-8"?>
<svg width="48px" height="48px" viewBox="0 0 48 48" version="1.1" xmlns="http://www.w3.org/2000/svg" xmlns:xlink="http://www.w3.org/1999/xlink">
    <!-- Generator: Sketch 43.2 (39069) - http://www.bohemiancoding.com/sketch -->
    <title>theicons.co/svg/grid-19</title>
    <desc>Created with Sketch.</desc>
    <defs></defs>
    <g id="The-Icons" stroke="none" stroke-width="1" fill="none" fill-rule="evenodd">
        <path d="M34,14 L40.0092049,14 C41.1086907,14 42,14.8877296 42,16 C42,17.1045695 41.1017876,18 40.0092049,18 L34,18 L34,24.0092049 C34,25.1086907 33.1122704,26 32,26 C30.8954305,26 30,25.1017876 30,24.0092049 L30,18 L23.9907951,18 C22.8913093,18 22,17.1122704 22,16 C22,14.8954305 22.8982124,14 23.9907951,14 L30,14 L30,7.99079514 C30,6.89130934 30.8877296,6 32,6 C33.1045695,6 34,6.89821238 34,7.99079514 L34,14 L34,14 Z M38,34.0039229 L38,26 C38,24.8954305 38.8954305,24 40,24 C41.1045695,24 42,24.8954305 42,26 L42,34.0039229 C42,38.4221581 38.4176869,42 33.9932975,42 L14.0067025,42 C9.58338933,42 6,38.4184793 6,33.9932975 L6,14.0067025 C6,9.58627801 9.58748307,6 14.0053084,6 L22,6 C23.1045695,6 24,6.8954305 24,8 C24,9.1045695 23.1045695,10 22,10 L14.0053084,10 C11.7963213,10 10,11.7957179 10,14.0067025 L10,33.9932975 C10,36.2088731 11.7920614,38 14.0067025,38 L33.9932975,38 C36.2096654,38 38,36.2119 38,34.0039229 Z" id="Combined-Shape" fill="#000000" fill-rule="nonzero"></path>
    </g>
</svg>