<?xml version="1.0" encoding="UTF-8"?>
<svg width="48px" height="48px" viewBox="0 0 48 48" version="1.1" xmlns="http://www.w3.org/2000/svg" xmlns:xlink="http://www.w3.org/1999/xlink">
    <!-- Generator: Sketch 43.2 (39069) - http://www.bohemiancoding.com/sketch -->
    <title>theicons.co/svg/grid-18</title>
    <desc>Created with Sketch.</desc>
    <defs></defs>
    <g id="The-Icons" stroke="none" stroke-width="1" fill="none" fill-rule="evenodd">
        <path d="M24,6 C29.519873,6 34.6248572,8.47664774 38,12.4937345 L38,10 C38,8.8954305 38.8954305,8 40,8 C41.1045695,8 42,8.8954305 42,10 L42,18 C42,19.1045695 41.1045695,20 40,20 L39.1058837,20 C39.0377872,20.0034934 38.9698792,20.0034581 38.9024065,20 L32,20 C30.8954305,20 30,19.1045695 30,18 C30,16.8954305 30.8954305,16 32,16 L35.6555512,16 C33.0730231,12.3294485 28.7332283,10 24,10 C16.9176105,10 10.9729981,15.2890819 10.1076532,22.2536154 C9.97145741,23.3497561 8.97245131,24.1279453 7.87631058,23.9917495 C6.78016985,23.8555538 6.00198069,22.8565477 6.13817644,21.7604069 C7.25165529,12.798824 14.8931278,6 24,6 Z M16,32 L12.3466018,32 C14.9245322,35.6732208 19.26003,38 24,38 C31.0718958,38 37.0107657,32.7262202 37.8888173,25.7745581 C38.0272337,24.6786955 39.0278144,23.9025321 40.123677,24.0409484 C41.2195395,24.1793648 41.9957029,25.1799456 41.8572866,26.2758081 C40.7274533,35.2208619 33.0933805,42 24,42 C18.4737838,42 13.371235,39.5252992 10,35.5057311 L10,38 C10,39.1045695 9.1045695,40 8,40 C6.8954305,40 6,39.1045695 6,38 L6,30 C6,28.8954305 6.8954305,28 8,28 L16,28 C17.1045695,28 18,28.8954305 18,30 C18,31.1045695 17.1045695,32 16,32 Z" id="Combined-Shape" fill="#000000" fill-rule="nonzero"></path>
    </g>
</svg>