<?xml version="1.0" encoding="UTF-8"?>
<svg width="48px" height="48px" viewBox="0 0 48 48" version="1.1" xmlns="http://www.w3.org/2000/svg" xmlns:xlink="http://www.w3.org/1999/xlink">
    <!-- Generator: Sketch 43.2 (39069) - http://www.bohemiancoding.com/sketch -->
    <title>theicons.co/svg/grid-01</title>
    <desc>Created with Sketch.</desc>
    <defs></defs>
    <g id="The-Icons" stroke="none" stroke-width="1" fill="none" fill-rule="evenodd">
        <path d="M26,7.99970728 C26,6.89529944 26.8945138,6 27.9940603,6 L40.0059397,6 C41.1072288,6 42,6.88989258 42,7.99970728 L42,40.0002927 C42,41.1047006 41.1054862,42 40.0059397,42 L27.9940603,42 C26.8927712,42 26,41.1101074 26,40.0002927 L26,7.99970728 Z M30,10 L30,38 L38,38 L38,10 L30,10 Z M6,7.99970728 C6,6.89529944 6.89451376,6 7.99406028,6 L20.0059397,6 C21.1072288,6 22,6.88989258 22,7.99970728 L22,40.0002927 C22,41.1047006 21.1054862,42 20.0059397,42 L7.99406028,42 C6.8927712,42 6,41.1101074 6,40.0002927 L6,7.99970728 Z M10,10 L10,38 L18,38 L18,10 L10,10 Z" id="Combined-Shape" fill="#000000"></path>
    </g>
</svg>