<?xml version="1.0" encoding="UTF-8"?>
<svg width="48px" height="48px" viewBox="0 0 48 48" version="1.1" xmlns="http://www.w3.org/2000/svg" xmlns:xlink="http://www.w3.org/1999/xlink">
    <!-- Generator: Sketch 43.2 (39069) - http://www.bohemiancoding.com/sketch -->
    <title>theicons.co/svg/grid-03</title>
    <desc>Created with Sketch.</desc>
    <defs></defs>
    <g id="The-Icons" stroke="none" stroke-width="1" fill="none" fill-rule="evenodd">
        <path d="M40.0059397,6 C41.1072288,6 42,6.89451376 42,7.99406028 L42,20.0059397 C42,21.1072288 41.1054862,22 40.0059397,22 L27.9940603,22 C26.8927712,22 26,21.1054862 26,20.0059397 L26,7.99406028 C26,6.8927712 26.8945138,6 27.9940603,6 L40.0059397,6 Z M38,10 L30,10 L30,18 L38,18 L38,10 Z M20.0059397,6 C21.1072288,6 22,6.89451376 22,7.99406028 L22,20.0059397 C22,21.1072288 21.1054862,22 20.0059397,22 L7.99406028,22 C6.8927712,22 6,21.1054862 6,20.0059397 L6,7.99406028 C6,6.8927712 6.89451376,6 7.99406028,6 L20.0059397,6 Z M18,10 L10,10 L10,18 L18,18 L18,10 Z M6,27.9940603 C6,26.8927712 6.89451376,26 7.99406028,26 L20.0059397,26 C21.1072288,26 22,26.8945138 22,27.9940603 L22,40.0059397 C22,41.1072288 21.1054862,42 20.0059397,42 L7.99406028,42 C6.8927712,42 6,41.1054862 6,40.0059397 L6,27.9940603 Z M10,30 L10,38 L18,38 L18,30 L10,30 Z M26,27.9940603 C26,26.8927712 26.8945138,26 27.9940603,26 L40.0059397,26 C41.1072288,26 42,26.8945138 42,27.9940603 L42,40.0059397 C42,41.1072288 41.1054862,42 40.0059397,42 L27.9940603,42 C26.8927712,42 26,41.1054862 26,40.0059397 L26,27.9940603 Z M30,30 L30,38 L38,38 L38,30 L30,30 Z" id="Combined-Shape" fill="#000000"></path>
    </g>
</svg>