<?xml version="1.0" encoding="UTF-8"?>
<svg width="48px" height="48px" viewBox="0 0 48 48" version="1.1" xmlns="http://www.w3.org/2000/svg" xmlns:xlink="http://www.w3.org/1999/xlink">
    <!-- Generator: Sketch 43.2 (39069) - http://www.bohemiancoding.com/sketch -->
    <title>theicons.co/svg/grid-13</title>
    <desc>Created with Sketch.</desc>
    <defs></defs>
    <g id="The-Icons" stroke="none" stroke-width="1" fill="none" fill-rule="evenodd">
        <path d="M16,24 C16,19.581722 19.581722,16 24,16 C25.4836172,16 26.8729082,16.4038588 28.0639347,17.1076382 L35.1715729,10 L32.0085302,10 C30.8992496,10 30,9.11227036 30,8 C30,6.8954305 30.9019504,6 32.0085302,6 L39.9914698,6 C40.5508656,6 41.0497149,6.22433028 41.4114209,6.58649593 C41.7763372,6.94642533 42,7.44528861 42,8 L42,15.9914698 C42,17.1007504 41.1122704,18 40,18 C38.8954305,18 38,17.0980496 38,15.9914698 L38,12.8284271 L30.8923618,19.9360653 C31.5961412,21.1270918 32,22.5163828 32,24 C32,28.418278 28.418278,32 24,32 C22.5163828,32 21.1270918,31.5961412 19.9360653,30.8923618 L12.8284271,38 L15.9914698,38 C17.1007504,38 18,38.8877296 18,40 C18,41.1045695 17.0980496,42 15.9914698,42 L8.0085302,42 C7.44913437,42 6.95028513,41.7756697 6.58857914,41.4135041 C6.22366277,41.0535747 6,40.5547114 6,40 L6,32.0085302 C6,30.8992496 6.88772964,30 8,30 C9.1045695,30 10,30.9019504 10,32.0085302 L10,35.1715729 L17.1076382,28.0639347 C16.4038588,26.8729082 16,25.4836172 16,24 Z M24,28 C26.209139,28 28,26.209139 28,24 C28,21.790861 26.209139,20 24,20 C21.790861,20 20,21.790861 20,24 C20,26.209139 21.790861,28 24,28 Z" id="Combined-Shape" fill="#000000"></path>
    </g>
</svg>