<?xml version="1.0" encoding="UTF-8"?>
<svg width="48px" height="48px" viewBox="0 0 48 48" version="1.1" xmlns="http://www.w3.org/2000/svg" xmlns:xlink="http://www.w3.org/1999/xlink">
    <!-- Generator: Sketch 43.2 (39069) - http://www.bohemiancoding.com/sketch -->
    <title>theicons.co/svg/home-28</title>
    <desc>Created with Sketch.</desc>
    <defs></defs>
    <g id="The-Icons" stroke="none" stroke-width="1" fill="none" fill-rule="evenodd">
        <path d="M14.9497475,19.6066017 C12.2160774,16.8729317 12.7897383,13.8160145 12.7897383,13.8160145 C12.8111055,12.7183003 13.7206809,11.7738507 14.8328937,11.7906395 C14.8328937,11.7906395 17.8729317,11.2160774 20.6066017,13.9497475 C21.2288932,14.5720389 21.6777947,15.3140773 22,16.0890973 L22,6.00494659 C22,4.89764516 22.8877296,4 24,4 C25.1045695,4 26,4.89702623 26,6.00494659 L26,8.19207202 C26.259964,7.74692094 26.5730952,7.3263997 26.9497475,6.94974747 C29.6834175,4.21607743 32.7234555,4.79063953 32.7234555,4.79063953 C33.8356683,4.77385072 34.7452436,5.71830032 34.7666109,6.81601454 C34.7666109,6.81601454 35.3402718,9.87293168 32.6066017,12.6066017 C30.6961692,14.5170342 27.6571367,14.7932874 26,14.7864166 L26,24 L36.0087557,24 C37.1084896,24 38,24.8867064 38,25.9981014 L38,30.0018986 C38,31.1054196 37.1001025,32 36.0087557,32 L35,32 L32.4864795,42.0540819 C32.2178043,43.1287828 31.1054862,44 30.0059397,44 L17.9940603,44 C16.8927712,44 15.7849426,43.1397705 15.5135205,42.0540819 L13,32 L11.9912443,32 C10.8915104,32 10,31.1132936 10,30.0018986 L10,25.9981014 C10,24.8945804 10.8998975,24 11.9912443,24 L22,24 L22,21.7775604 C20.5035922,21.8316604 17.0467625,21.7036167 14.9497475,19.6066017 Z M19.1708984,40 L28.8775655,40.0049413 L30.8929443,32 L17.170166,32 L19.1708984,40 Z" id="Combined-Shape" fill="#000000"></path>
    </g>
</svg>