<?xml version="1.0" encoding="UTF-8"?>
<svg width="48px" height="48px" viewBox="0 0 48 48" version="1.1" xmlns="http://www.w3.org/2000/svg" xmlns:xlink="http://www.w3.org/1999/xlink">
    <!-- Generator: Sketch 43.2 (39069) - http://www.bohemiancoding.com/sketch -->
    <title>theicons.co/svg/home-21</title>
    <desc>Created with Sketch.</desc>
    <defs></defs>
    <g id="The-Icons" stroke="none" stroke-width="1" fill="none" fill-rule="evenodd">
        <path d="M8,36 L4,36 L4,12.0000002 C4,7.4362915 8.581722,4 14,4 C19.418278,4 24,7.4362915 24,12 L24,16 L40.0031611,16 C42.2105543,16 44,17.7842933 44,19.990053 L44,40.009947 C44,42.2135924 42.2058797,44 40.0031611,44 L14,44 L14,40 L16,40 L16,33.999615 C16,32.8952581 16.8877296,32 18,32 C19.1045695,32 20,32.8874333 20,33.999615 L20,40 L22,40 L22,25.9950893 C22,24.8932319 22.8877296,24 24,24 C25.1045695,24 26,24.8926228 26,25.9950893 L26,40 L28,40 L28,33.999615 C28,32.8952581 28.8877296,32 30,32 C31.1045695,32 32,32.8874333 32,33.999615 L32,40 L34,40 L34,33.999615 C34,32.8952581 34.8877296,32 36,32 C37.1045695,32 38,32.8874333 38,33.999615 L38,40 L40.0031611,40 C40.0005967,40 40,19.990053 40,19.990053 C40,19.9959926 14.1857261,19.9999715 14.0009962,19.9999998 C11.7716716,20 9.68483484,19.4187997 8,18.4170023 L8,36 Z M10,32.0085302 C10,30.8992496 10.8877296,30 12,30 C13.1045695,30 14,30.9019504 14,32.0085302 L14,39.9914698 L14,44 C8.581722,44 4,40.5637085 4,36 L8,36 C8,37.1193166 8.75948403,38.20115 10,38.956883 L10,32.0085302 Z M14,16 C17.418278,16 20,14.0637085 20,12 C20,9.9362915 17.418278,8 14,8 C10.581722,8 8,9.9362915 8,12 C8,14.0637085 10.581722,16 14,16 Z M14,14 C12.3431458,14 11,13.1045695 11,12 C11,10.8954305 12.3431458,10 14,10 C15.6568542,10 17,10.8954305 17,12 C17,13.1045695 15.6568542,14 14,14 Z" id="Path" fill="#000000"></path>
    </g>
</svg>