<?xml version="1.0" encoding="UTF-8"?>
<svg width="48px" height="48px" viewBox="0 0 48 48" version="1.1" xmlns="http://www.w3.org/2000/svg" xmlns:xlink="http://www.w3.org/1999/xlink">
    <!-- Generator: Sketch 43.2 (39069) - http://www.bohemiancoding.com/sketch -->
    <title>theicons.co/svg/home-19</title>
    <desc>Created with Sketch.</desc>
    <defs></defs>
    <g id="The-Icons" stroke="none" stroke-width="1" fill="none" fill-rule="evenodd">
        <path d="M18.75,32 L13.9968389,32 C11.7894457,32 10,30.2034788 10,28.0041738 L10,6.00591905 C10,4.89808055 10.8998975,4 11.9912443,4 L36.0087557,4 C37.1084896,4 38,4.88655484 38,6.00591905 L38,28.0041738 C38,30.2110077 36.2058797,32 34.0031611,32 L29.25,32 L29.7502373,40.0037973 C29.8881774,42.2108391 28.2034788,44 26.0041738,44 L21.9958262,44 C19.7889923,44 18.1118019,42.2111696 18.2497627,40.0037973 L18.75,32 Z M14,11 L14,20 L34,20 L34,11 L22,11 L22,13.0018986 C22,14.1054196 21.1122704,15 20,15 C18.8954305,15 18,14.1132936 18,13.0018986 L18,11 L14,11 Z M14,24 L14,28 L34,28 L34,24 L14,24 Z M22.2803955,40 L25.7425463,40.0056195 L25.2457886,32 L22.7714844,32 L22.2803955,40 Z" id="Rectangle-623" fill="#000000"></path>
    </g>
</svg>