<?xml version="1.0" encoding="UTF-8"?>
<svg width="48px" height="48px" viewBox="0 0 48 48" version="1.1" xmlns="http://www.w3.org/2000/svg" xmlns:xlink="http://www.w3.org/1999/xlink">
    <!-- Generator: Sketch 43.2 (39069) - http://www.bohemiancoding.com/sketch -->
    <title>theicons.co/svg/home-38</title>
    <desc>Created with Sketch.</desc>
    <defs></defs>
    <g id="The-Icons" stroke="none" stroke-width="1" fill="none" fill-rule="evenodd">
        <path d="M25,31.0019724 C25,32.6588266 23.6568542,34.0019724 22,34.0019724 C21.8577014,34.0019724 21.7177168,33.992065 21.5806984,33.9729026 L20.7181424,38.4581936 C20.120688,41.5649565 17.1642851,44.0019724 14,44.0019724 C10.6877314,44.0019724 8,41.3162655 8,38.007189 L8,25.7675403 C4.4215856,24.0941745 2,20.4696228 2,16.0019724 C2,9.27222346 7.50545126,4.45166639 14.1705921,5.34035184 L33.7443129,7.95018128 L43.2572186,4.14501897 C44.5709474,3.61952746 46,4.58704315 46,6.00197235 L46,26.0019724 C46,27.4169016 44.5709474,28.3844172 43.2572186,27.8589257 L33.7443129,24.0537634 L23.2183281,25.4572281 L22.7125811,28.0871125 C24.0254453,28.4069496 25,29.5906512 25,31.0019724 Z M12,38.007189 C12,39.1064515 12.8961959,40.0019724 14,40.0019724 C15.2481076,40.0019724 16.5551675,38.9245395 16.7901166,37.702804 L19.0378432,26.0146261 L14.1705921,26.6635929 C13.4306871,26.7622469 12.7051873,26.7906821 12,26.7540742 L12,38.007189 Z M36,20.6479064 L42,23.0479064 L42,8.95603828 L36,11.3560383 L36,20.6479064 Z M32,11.7530051 L13.6419373,9.30526345 C9.37481749,8.73631415 6,11.6912945 6,16.0019724 C6,20.3163173 9.3696895,23.2683143 13.6419373,22.6986813 L32,20.2509396 L32,11.7530051 Z" id="Combined-Shape" fill="#000000"></path>
    </g>
</svg>