<?xml version="1.0" encoding="UTF-8"?>
<svg width="48px" height="48px" viewBox="0 0 48 48" version="1.1" xmlns="http://www.w3.org/2000/svg" xmlns:xlink="http://www.w3.org/1999/xlink">
    <!-- Generator: Sketch 43.2 (39069) - http://www.bohemiancoding.com/sketch -->
    <title>theicons.co/svg/home-07</title>
    <desc>Created with Sketch.</desc>
    <defs></defs>
    <g id="The-Icons" stroke="none" stroke-width="1" fill="none" fill-rule="evenodd">
        <path d="M30.5354004,32 L33.5133057,8 L14.5118408,8 L17.5338135,32 L22,32 L22,20 C20.8944962,20 20,19.1122704 20,18 C20,16.8954305 20.8982606,16 21.9979131,16 L24.0020869,16 C24.5529834,16 25.0518034,16.2212797 25.4132276,16.5813058 C25.7764238,16.945711 26,17.4442026 26,17.9950893 L26,22 C27.1055038,22 28,22.8877296 28,24 C28,25.1045695 27.1017394,26 26.0020869,26 L26,32 L30.5354004,32 Z M34.5,32 L36.0087557,32 C37.1084896,32 38,32.9019504 38,34.0085302 L38,41.9914698 C38,43.1007504 37.1001025,44 36.0087557,44 L11.9912443,44 C10.8915104,44 10,43.0980496 10,41.9914698 L10,34.0085302 C10,32.8992496 10.8998975,32 11.9912443,32 L13.5,32 L10.2471993,5.9775942 C10.1106749,4.88539908 10.8998975,4 11.9912443,4 L36.0087557,4 C37.1084896,4 37.8888423,4.88926172 37.7528007,5.9775942 L37,12 L42.0026083,12 C43.1057373,12 44,12.8945138 44,13.9940603 L44,26.0059397 C44,27.1072288 43.0998238,28 42.007983,28 L35,28 L34.5,32 Z M35.5,24 L40,24 L40,16 L36.5,16 L35.5,24 Z M34,40 L34,36 L14,36 L14,40 L22,40 C22,38.8954305 22.8954305,38 24,38 C25.1045695,38 26,38.8954305 26,40 L34,40 Z" id="Combined-Shape" fill="#000000"></path>
    </g>
</svg>