<?xml version="1.0" encoding="UTF-8"?>
<svg width="48px" height="48px" viewBox="0 0 48 48" version="1.1" xmlns="http://www.w3.org/2000/svg" xmlns:xlink="http://www.w3.org/1999/xlink">
    <!-- Generator: Sketch 43.2 (39069) - http://www.bohemiancoding.com/sketch -->
    <title>theicons.co/svg/home-14</title>
    <desc>Created with Sketch.</desc>
    <defs></defs>
    <g id="The-Icons" stroke="none" stroke-width="1" fill="none" fill-rule="evenodd">
        <path d="M17.9909668,28.953125 C17.9909668,26.2223511 21.0010376,24.6561279 21.7133179,23.6276245 C22.4255981,22.5991211 22.7746773,21.2762419 22.7746773,21.2762419 C22.9426713,20.7520384 23.4348232,20.6109278 23.8286534,20.9797497 C23.8286534,20.9797497 26.4386597,22.6367798 26.0100708,27.0113525 C27.0266724,26.2589722 27.5797655,24.884188 27.5797655,24.884188 C27.8244954,24.3867294 28.2273793,24.3873958 28.4488914,24.8858822 C28.4488914,24.8858822 30.5968109,28.590507 28.7149082,32 L34,32 L34,20 C32.8945804,20 32,19.1017394 32,18.0020869 L32,17 L16,17 L16,18.0020869 C16,19.1055038 15.1132936,20 14.0018986,20 L14,32 L19.3771316,32 C18.6539497,31.23468 17.9909668,30.1945344 17.9909668,28.953125 Z M39.4971319,10 C40.8794278,10 42,11.1246711 42,12.5073889 L42,14.4926111 C42,15.7052259 41.1435844,16.7167912 40,16.9495907 L40,18.0020869 C40,19.1055038 39.1132936,20 38.0018986,20 L38,32.0000007 C39.104731,32.0009483 40,32.9025321 40,34.0085302 L40,40 L42.0027084,40 C43.1057821,40 44,40.8877296 44,42 C44,43.1045695 43.1084602,44 42.0027084,44 L5.99729162,44 C4.89421792,44 4,43.1122704 4,42 C4,40.8954305 4.89153983,40 5.99729162,40 L8,40 L8,34.0085302 C8,32.8998291 8.88833285,32.0009396 10,32.0000007 L10,20 C8.89458045,20 8,19.1017394 8,18.0020869 L8,16.9492908 C6.85871406,16.7157156 6,15.7030362 6,14.4926111 L6,12.5073889 C6,11.1225963 7.11688471,10 8.50286814,10 L12,10 L12,5.99810135 C12,4.89458045 12.8877296,4 14,4 C15.1045695,4 16,4.88670635 16,5.99810135 L18,6 C19.1045695,6 20,6.89826062 20,7.99791312 L20,10 L39.4971319,10 Z M12.0159302,40 L36,40 L36,35.9788818 L12.0318604,36 L12.0159302,40 Z" id="Rectangle-642-Copy" fill="#000000"></path>
    </g>
</svg>