<?xml version="1.0" encoding="UTF-8"?>
<svg width="48px" height="48px" viewBox="0 0 48 48" version="1.1" xmlns="http://www.w3.org/2000/svg" xmlns:xlink="http://www.w3.org/1999/xlink">
    <!-- Generator: Sketch 43.2 (39069) - http://www.bohemiancoding.com/sketch -->
    <title>theicons.co/svg/home-18</title>
    <desc>Created with Sketch.</desc>
    <defs></defs>
    <g id="The-Icons" stroke="none" stroke-width="1" fill="none" fill-rule="evenodd">
        <path d="M37,16.0037973 C37,18.2108391 35.2109725,20 32.9957423,20 L9.0042577,20 C6.79276724,20 5,18.2111696 5,16.0037973 L5,7.99620271 C5,5.78916089 6.78902751,4 9.0042577,4 L32.9957423,4 C35.2072328,4 37,5.78883037 37,7.99620271 L37,9.99347165 L39.0041738,9.99347165 C41.2110077,9.99347165 43,11.7803557 43,13.9853263 L43,21.9842081 C43,24.1888485 41.2034788,25.9760627 39.0041738,25.9760627 L22.9943368,25.9760627 C22.994907,25.9760627 22.9964897,27.091015 22.9978373,28.1272044 C24.7246568,28.5725446 26,30.1357063 26,31.9962027 L26,40.0037973 C26,42.2108391 24.2122004,44 21.990237,44 L20.009763,44 C17.795232,44 16,42.2111696 16,40.0037973 L16,31.9962027 C16,30.1358678 17.270223,28.5724354 19,28.1271409 L19,25.9667127 C19,23.7651413 20.7858574,21.980415 22.9943368,21.980415 L34.0263672,21.980415 L39,21.980415 L39,13.9891194 L37,13.9891194 L37,16.0037973 Z M20,32 L20,40 L22,40 L22,32 L20,32 Z M9,8 L9,16 L33,16 L33,8 L9,8 Z" id="Rectangle-617" fill="#000000"></path>
    </g>
</svg>