<?xml version="1.0" encoding="UTF-8"?>
<svg width="48px" height="48px" viewBox="0 0 48 48" version="1.1" xmlns="http://www.w3.org/2000/svg" xmlns:xlink="http://www.w3.org/1999/xlink">
    <!-- Generator: Sketch 43.2 (39069) - http://www.bohemiancoding.com/sketch -->
    <title>theicons.co/svg/home-25</title>
    <desc>Created with Sketch.</desc>
    <defs></defs>
    <g id="The-Icons" stroke="none" stroke-width="1" fill="none" fill-rule="evenodd">
        <path d="M13.9981014,27.9824359 C12.8867064,27.9824359 12,28.8816855 12,29.9909661 L12,39.9824359 L20,39.9824359 L20,32.9824359 L19,32.9824359 C17.3431458,32.9824359 16,31.6327655 16,29.9731814 L16,27.9824359 L13.9981014,27.9824359 Z M18,23.9824359 L22.0059397,23.9824359 C23.1072288,23.9824359 24,24.8806483 24,25.973231 L24,39.9824359 L26,39.9824359 L26,21.9891384 C26,19.4071188 27.6251936,17.2056056 29.90894,16.356441 C29.295696,15.8787488 28.0619674,14.662719 28.0619674,12.610632 C28.0619674,9.87985806 30.3342285,8.45980291 31.0465088,7.43129949 C31.7587891,6.40279607 31.88106,4.53258842 31.88106,4.53258842 C31.9467488,3.98234692 32.3310483,3.83281213 32.739108,4.20499253 C32.739108,4.20499253 35.8128543,6.89827418 36.8412642,8.60175418 C37.7400096,10.0904549 39.1056444,13.1376725 36.4605961,15.9824359 L37.9941413,15.9824359 C39.1019465,15.9824359 40,16.8823334 40,17.9736802 L40,39.9824359 L42.0027084,39.9824359 C43.1057821,39.9824359 44,40.8701655 44,41.9824359 C44,43.0870054 43.1084602,43.9824359 42.0027084,43.9824359 L5.99729162,43.9824359 C4.89421792,43.9824359 4,43.0947063 4,41.9824359 C4,40.8778664 4.89153983,39.9824359 5.99729162,39.9824359 L8,39.9824359 L8,29.9830954 C8,26.6701293 10.6762521,23.9842302 14,23.9824368 L14,19.9820509 C14,18.877694 14.8877296,17.9824359 16,17.9824359 C17.1045695,17.9824359 18,18.8698692 18,19.9820509 L18,23.9824359 Z M30,21.973231 L30,39.9824359 L36,39.9824359 L36,19.9824359 L31.9979131,19.9824359 C30.8982606,19.9824359 30,20.8737452 30,21.973231 Z" id="Combined-Shape" fill="#000000"></path>
    </g>
</svg>