<?xml version="1.0" encoding="UTF-8"?>
<svg width="48px" height="48px" viewBox="0 0 48 48" version="1.1" xmlns="http://www.w3.org/2000/svg" xmlns:xlink="http://www.w3.org/1999/xlink">
    <!-- Generator: Sketch 43.2 (39069) - http://www.bohemiancoding.com/sketch -->
    <title>theicons.co/svg/home-37</title>
    <desc>Created with Sketch.</desc>
    <defs></defs>
    <g id="The-Icons" stroke="none" stroke-width="1" fill="none" fill-rule="evenodd">
        <path d="M42,30 L42,39.9950534 C42,41.1023548 41.1084602,42 40.0027084,42 L38,42 C38,43.1045695 37.1017394,44 36.0020869,44 L33.9979131,44 C32.8944962,44 32,43.1122704 32,42 L12,42 C12,43.1045695 11.1017394,44 10.0020869,44 L7.99791312,44 C6.89449617,44 6,43.1122704 6,42 L3.99729162,42 C2.89421792,42 2,41.1029738 2,39.9950534 L2,23.9943041 C2,20.6837413 4.68662393,18 7.99922047,18 L8,12.9970301 C8,11.3401513 9.34455977,10 11.0006946,10 L32.9993054,10 C34.6546643,10 36,11.3465853 36,12.9970301 L36,18 C39.3140575,18 42,20.6832456 42,23.9943041 L44.0020869,24 C45.1055038,24 46,24.8877296 46,26 C46,28.7283936 42,30 42,30 Z M32,18 L32,14 L12,14 L12,18 L32,18 Z M38,38 L38,23.9943041 C38,22.8933414 37.1058748,22 36.0007795,22 L7.99922047,22 C6.89472361,22 6,22.8939202 6,23.9943041 L6,38 L38,38 Z M10,32 C10,30.8954305 10.8970262,30 12.0049466,30 L31.9950534,30 C33.1023548,30 34,30.8877296 34,32 C34,33.1045695 33.1029738,34 31.9950534,34 L12.0049466,34 C10.8976452,34 10,33.1122704 10,32 Z M20,3.99791312 C20,2.89449617 20.8877296,2 22,2 C23.1045695,2 24,2.89826062 24,3.99791312 L24,6.00208688 C24,7.10550383 23.1122704,8 22,8 C20.8954305,8 20,7.10173938 20,6.00208688 L20,3.99791312 Z M12,3.99791312 C12,2.89449617 12.8877296,2 14,2 C15.1045695,2 16,2.89826062 16,3.99791312 L16,6.00208688 C16,7.10550383 15.1122704,8 14,8 C12.8954305,8 12,7.10173938 12,6.00208688 L12,3.99791312 Z M28,3.99791312 C28,2.89449617 28.8877296,2 30,2 C31.1045695,2 32,2.89826062 32,3.99791312 L32,6.00208688 C32,7.10550383 31.1122704,8 30,8 C28.8954305,8 28,7.10173938 28,6.00208688 L28,3.99791312 Z" id="Combined-Shape" fill="#000000"></path>
    </g>
</svg>