<?xml version="1.0" encoding="UTF-8"?>
<svg width="48px" height="48px" viewBox="0 0 48 48" version="1.1" xmlns="http://www.w3.org/2000/svg" xmlns:xlink="http://www.w3.org/1999/xlink">
    <!-- Generator: Sketch 43.2 (39069) - http://www.bohemiancoding.com/sketch -->
    <title>theicons.co/svg/home-13</title>
    <desc>Created with Sketch.</desc>
    <defs></defs>
    <g id="The-Icons" stroke="none" stroke-width="1" fill="none" fill-rule="evenodd">
        <path d="M24.0085302,22 L31.9914698,22 C33.1007504,22 34,22.8874333 34,23.999615 L38,24 L38,10.9921405 C38,9.33765928 36.6593981,8 35,8 C33.347302,8 32,9.34873997 32,11.009222 L32,11.5351288 C33.1956027,12.2267476 34,13.5194353 34,15 C34,17.209139 26,17.209139 26,15 C26,13.5194353 26.8043973,12.2267476 28,11.5351288 L28,11.009222 C28,7.14055561 31.1372072,4 35,4 C38.8665718,4 42,7.12655026 42,10.9921405 L42,24 C43.1057821,24 44,24.8877296 44,26 C44,27.1045695 43.1084602,28 42.0027084,28 L42,32 C42,36.4180309 38.4169696,39.9995993 34,40 L34,42.0018986 C34,43.1054196 33.1122704,44 32,44 C30.8954305,44 30,43.1132936 30,42.0018986 L30,40 L18,40 L18,42.0018986 C18,43.1054196 17.1122704,44 16,44 C14.8954305,44 14,43.1132936 14,42.0018986 L14,40 C9.58165328,39.9995984 6,36.4090411 6,32 L6,28 C4.89421792,28 4,27.1122704 4,26 C4,24.8954305 4.89153983,24 5.99729162,24 L22,24 C22,22.8952581 22.9019504,22 24.0085302,22 Z M10,28.005249 L10,32 C10,34.2038653 11.7949078,36 14.0007413,36 L33.9992587,36 C36.2080949,36 38,34.2084739 38,32 L38,28.0112305 L34,28.010376 L34,30.000385 C34,31.1047419 33.0980496,32 31.9914698,32 L24.0085302,32 C22.8992496,32 22,31.1125667 22,30.000385 L22,28.0078125 L10,28.005249 Z M14,20 C12.8954305,20 12,19.1045695 12,18 C12,16.8954305 12.8954305,16 14,16 C15.1045695,16 16,16.8954305 16,18 C16,19.1045695 15.1045695,20 14,20 Z M20,15 C18.3431458,15 17,13.6568542 17,12 C17,10.3431458 18.3431458,9 20,9 C21.6568542,9 23,10.3431458 23,12 C23,13.6568542 21.6568542,15 20,15 Z M12,10 C10.3431458,10 9,8.65685425 9,7 C9,5.34314575 10.3431458,4 12,4 C13.6568542,4 15,5.34314575 15,7 C15,8.65685425 13.6568542,10 12,10 Z" id="Shape" fill="#000000" fill-rule="nonzero"></path>
    </g>
</svg>