<?xml version="1.0" encoding="UTF-8"?>
<svg width="48px" height="48px" viewBox="0 0 48 48" version="1.1" xmlns="http://www.w3.org/2000/svg" xmlns:xlink="http://www.w3.org/1999/xlink">
    <!-- Generator: Sketch 43.2 (39069) - http://www.bohemiancoding.com/sketch -->
    <title>theicons.co/svg/home-06</title>
    <desc>Created with Sketch.</desc>
    <defs></defs>
    <g id="The-Icons" stroke="none" stroke-width="1" fill="none" fill-rule="evenodd">
        <path d="M27.5899167,23.5847087 C28.3715605,22.8042558 29.6378901,22.8052212 30.418343,23.586865 C31.198796,24.3685088 31.1978306,25.6348384 30.4161868,26.4152913 L29.4157521,27.4142018 C29.7902801,28.1972107 30,29.074114 30,30 C30,33.3137085 27.3137085,36 24,36 C20.6862915,36 18,33.3137085 18,30 C18,26.6862915 20.6862915,24 24,24 C24.9266999,24 25.8043309,24.2100887 26.5878628,24.5852359 L27.5899167,23.5847087 Z M36,8 L36,5.99810135 C36,4.89458045 36.8877296,4 38,4 C39.1045695,4 40,4.88670635 40,5.99810135 L40,10.0018986 C40,11.1054196 39.1122704,12 38,12 L26,12 L26,16 C33.7320561,16.0004055 40,22.2665637 40,30 L40,42.0087557 C40,43.1084896 39.1107383,44 37.9982567,44 L10.0017433,44 C8.89621101,44 8,43.1001025 8,42.0087557 L8,30 C8,22.2682636 14.2645231,16.0004054 22,16 L22,12 L10,12 C8.8954305,12 8,11.1132936 8,10.0018986 L8,5.99810135 C8,4.89458045 8.88772964,4 10,4 C11.1045695,4 12,4.88670635 12,5.99810135 L12,8 L36,8 Z M12,30 L12.0015869,40 L36,40.0091553 L36,30 C36,24.4764129 31.5236273,20.0004055 26,20 L22,20 C16.4749468,20.0004053 12,24.4761178 12,30 Z M24,32 C25.1045695,32 26,31.1045695 26,30 C26,28.8954305 25.1045695,28 24,28 C22.8954305,28 22,28.8954305 22,30 C22,31.1045695 22.8954305,32 24,32 Z" id="Combined-Shape" fill="#000000"></path>
    </g>
</svg>