<?xml version="1.0" encoding="UTF-8"?>
<svg width="48px" height="48px" viewBox="0 0 48 48" version="1.1" xmlns="http://www.w3.org/2000/svg" xmlns:xlink="http://www.w3.org/1999/xlink">
    <!-- Generator: Sketch 43.2 (39069) - http://www.bohemiancoding.com/sketch -->
    <title>theicons.co/svg/home-16</title>
    <desc>Created with Sketch.</desc>
    <defs></defs>
    <g id="The-Icons" stroke="none" stroke-width="1" fill="none" fill-rule="evenodd">
        <path d="M36,44 C33.790861,44 32,42.2046438 32,40 L16,40 C16,42.209139 14.2046438,44 12,44 C9.790861,44 8,42.2046438 8,40 C5.79232782,40 4,38.2116547 4,36.0059397 L4,25.9962027 C4,23.386578 5.67122268,21.1655379 8,20.3417958 L8,14 C8,8.47403205 12.4732101,4 18.0049345,4 L29.9950655,4 C35.5176051,4 40,8.48310914 40,14 L40,20.3411715 C42.3302391,21.1642085 44,23.3849418 44,25.9962027 L44,36.0059397 C44,38.2140933 42.2123806,40 40.0002927,40 C40,42.209139 38.2046438,44 36,44 Z M40,36 L40,25.9962027 C40,24.8939651 39.1051343,24 38,24 C36.8982593,24 36,24.8980308 36,26.0020869 L36,28 C36,29.4174809 34.5661985,30.3850936 33.2516781,29.8547276 C33.1270113,29.8044286 28.1143797,28 23.9996489,28 C19.884918,28 14.8607838,29.8107038 14.730466,29.8618323 C13.4185487,30.3765462 12,29.4092755 12,28 L12,26.0020869 C12,24.900984 11.1007899,24 10,24 C8.89760126,24 8,24.8960536 8,25.9962027 C8,25.9962027 7.99947741,36 7.99970728,36 L16,36 C20.8865526,36.0017816 27.1135008,36.0027194 32,36.0036354 L40,36 Z M15.9594648,25.3020919 C15.9594648,25.3020919 20.3404704,23.9559476 24,24 C27.6595296,24.0440524 32.0783296,25.251712 32.0783296,25.251712 C32.0783292,23.2429499 33.6963612,21.1423551 36,20.3393274 L36,14 C36,10.6921055 33.3083234,8 29.9950655,8 L18.0049345,8 C14.6825136,8 12,10.6830065 12,14 L12,20.3424876 C14.1180601,21.0931807 15.691305,23.0015019 15.9594648,25.3020919 Z M18,18 C16.8954305,18 16,17.1045695 16,16 C16,14.8954305 16.8954305,14 18,14 C19.1045695,14 20,14.8954305 20,16 C20,17.1045695 19.1045695,18 18,18 Z M30,18 C28.8954305,18 28,17.1045695 28,16 C28,14.8954305 28.8954305,14 30,14 C31.1045695,14 32,14.8954305 32,16 C32,17.1045695 31.1045695,18 30,18 Z" id="Combined-Shape" fill="#000000"></path>
    </g>
</svg>