<?xml version="1.0" encoding="UTF-8"?>
<svg width="48px" height="48px" viewBox="0 0 48 48" version="1.1" xmlns="http://www.w3.org/2000/svg" xmlns:xlink="http://www.w3.org/1999/xlink">
    <!-- Generator: Sketch 43.2 (39069) - http://www.bohemiancoding.com/sketch -->
    <title>theicons.co/svg/home-36</title>
    <desc>Created with Sketch.</desc>
    <defs></defs>
    <g id="The-Icons" stroke="none" stroke-width="1" fill="none" fill-rule="evenodd">
        <path d="M31.5772919,7.01032877 C32.7414642,5.83683497 34.6361849,5.8300414 35.7988411,7.00200695 L40.0204847,11.2574533 C41.1858853,12.4321852 41.1782948,14.3374019 40.0160571,15.5089456 L39.3154858,16.2151264 L42.1308069,19.0529898 C43.2933735,20.224865 43.2862292,22.1321442 42.1303666,23.2972618 L36.5006049,28.9721008 C35.3353164,30.1467199 33.4460701,30.1378241 32.2840521,28.9665019 L29.4747258,26.1346813 L22.4442386,33.2214615 C22.2654656,33.4016659 22.0854536,33.5851701 21.9042773,33.7718577 C20.1562729,35.5730359 18.3812418,37.6138488 16.6228529,39.7012619 C15.7944336,40.6846924 14.1165482,42.8287985 14.0763156,42.8815569 C13.0036421,44.2642733 11.0249401,44.3812294 9.79493165,43.1413722 L4.87109985,38.1781153 C3.70383221,37.0015014 3.71283379,35.0978973 4.87899391,33.9223997 L21.0397886,17.6322057 L15.4188165,11.9662266 C14.2507871,10.7888447 14.2509363,8.88754435 15.4230827,7.70601261 L17.5252315,5.58703195 C18.0903103,5.01742854 18.9388083,4.84423569 19.6792086,5.14736865 C19.8684985,5.22486726 21.6685181,5.87762451 23.3636475,6.16378784 C25.0587769,6.44995117 27.3698445,5.83309946 27.4779516,5.79917521 C28.183342,5.57782222 28.9523286,5.76899165 29.4747258,6.29557158 L30.8805486,7.71265085 L31.5772919,7.01032877 Z M26.66308,23.3005228 L19.6325929,30.387303 C19.4433986,30.5780121 19.2531453,30.7719563 19.0618891,30.9690305 C17.2331544,32.8533947 15.3755526,34.955573 13.5718934,37.1308738 C12.8986642,37.942821 12.2776928,38.7113029 11.7214669,39.4150161 L8.38738289,36.0542362 L23.8514343,20.4663642 L26.66308,23.3005228 Z M19.5825214,9.35323299 C20.628075,9.68168938 21.7320449,9.95429213 22.8550515,10.1321418 C23.6510409,10.2582021 24.4878693,10.2812408 25.3541212,10.2216382 C26.1294703,10.1682901 26.844859,10.0609207 27.4602758,9.93330906 L38.6125743,21.1749039 L34.3951058,25.4261417 L18.9310543,9.83826975 L19.4529701,9.31217498 C19.4954158,9.32574651 19.5386045,9.33943667 19.5825214,9.35323299 Z" id="Combined-Shape" fill="#000000"></path>
    </g>
</svg>