<?xml version="1.0" encoding="UTF-8"?>
<svg width="48px" height="48px" viewBox="0 0 48 48" version="1.1" xmlns="http://www.w3.org/2000/svg" xmlns:xlink="http://www.w3.org/1999/xlink">
    <!-- Generator: Sketch 43.2 (39069) - http://www.bohemiancoding.com/sketch -->
    <title>theicons.co/svg/home-01</title>
    <desc>Created with Sketch.</desc>
    <defs></defs>
    <g id="The-Icons" stroke="none" stroke-width="1" fill="none" fill-rule="evenodd">
        <path d="M15,24.1691407 C18.4504544,24.7847533 21,27.1181792 21,31.7777778 C21,37.3006253 17.418278,44 13,44 C8.581722,44 5,37.3006253 5,31.7777778 C5,27.1181792 7.54954557,24.7847533 11,24.1691407 L11,21.8720619 C9.27427846,21.4254196 8,19.8613096 8,18.0052166 L8,7.9947834 C8,5.78852545 9.7877996,4 12.009763,4 L13.990237,4 C16.204768,4 18,5.79171562 18,7.9947834 L18,18.0052166 C18,19.8648907 16.729777,21.427768 15,21.8729042 L15,24.1691407 Z M30,18.0052166 L30,7.9947834 C30,5.78852545 31.7877996,4 34.009763,4 L35.990237,4 C38.204768,4 40,5.79171562 40,7.9947834 L40,18.0052166 C40,19.8648907 38.729777,21.427768 37,21.8729042 L37,24.2761197 C40.4859858,25.2614688 43,28.7650411 43,32.8550687 L43,42 C43,43.1045695 42.1045695,44 41,44 C39.8954305,44 39,43.1045695 39,42 L39,32.8550687 C39,32.562336 38.9788164,32.2767039 38.9383557,32 L37,32 L37,42.0029953 C37,43.1059106 36.1122704,44 35,44 C33.8954305,44 33,43.1050211 33,42.0029953 L33,32 L31.0619832,32 C31.0213057,32.2767765 31,32.5624173 31,32.8550687 L31,42 C31,43.1045695 30.1045695,44 29,44 C27.8954305,44 27,43.1045695 27,42 L27,32.8550687 C27,28.7695752 29.517113,25.2638882 33,24.2769169 L33,21.8720619 C31.2742785,21.4254196 30,19.8613096 30,18.0052166 Z M15.2452139,37.8717254 C16.326427,36.1052974 17,33.768025 17,31.7777778 C17,29.0257551 15.815872,28 13,28 C10.184128,28 9,29.0257551 9,31.7777778 C9,33.768025 9.67357304,36.1052974 10.7547861,37.8717254 C11.6499204,39.3341478 12.5420348,40 13,40 C13.4579652,40 14.3500796,39.3341478 15.2452139,37.8717254 Z M12,18.0052166 C12,17.9973845 12.0026238,18 12.009763,18 L13.990237,18 C14.0026956,18 14,18.002689 14,18.0052166 L14,7.9947834 C14,8.00261546 13.9973762,8 13.990237,8 L12.009763,8 C11.9973044,8 12,7.99731099 12,7.9947834 L12,18.0052166 Z M34,18.0052166 C34,17.9973845 34.0026238,18 34.009763,18 L35.990237,18 C36.0026956,18 36,18.002689 36,18.0052166 L36,7.9947834 C36,8.00261546 35.9973762,8 35.990237,8 L34.009763,8 C33.9973044,8 34,7.99731099 34,7.9947834 L34,18.0052166 Z" id="Rectangle-22-Copy-2" fill="#000000" transform="translate(24.000000, 24.000000) scale(1, -1) translate(-24.000000, -24.000000) "></path>
    </g>
</svg>