<?xml version="1.0" encoding="UTF-8"?>
<svg width="48px" height="48px" viewBox="0 0 48 48" version="1.1" xmlns="http://www.w3.org/2000/svg" xmlns:xlink="http://www.w3.org/1999/xlink">
    <!-- Generator: Sketch 43.2 (39069) - http://www.bohemiancoding.com/sketch -->
    <title>theicons.co/svg/home-31</title>
    <desc>Created with Sketch.</desc>
    <defs></defs>
    <g id="The-Icons" stroke="none" stroke-width="1" fill="none" fill-rule="evenodd">
        <path d="M34.0087557,40 C35.1084896,40 36,40.8877296 36,42 C36,43.1045695 35.1001025,44 34.0087557,44 L9.99124431,44 C8.89151044,44 8,43.1122704 8,42 C8,40.8954305 8.89989752,40 9.99124431,40 L14.6746599,40 L8.82424436,28.9969687 C6.14421312,28.9043836 4,26.7025957 4,24 C4,21.2385763 6.23857625,19 9,19 C9.49684759,19 9.97676914,19.072469 10.4297711,19.2074134 L27.948197,6.00633262 C28.0455328,5.93298486 28.1493948,5.86795705 28.2583125,5.81122248 C29.8830919,4.66994999 31.8631267,4 34,4 C39.5228475,4 44,8.47593818 44,14 L44,22.0092049 C44,23.1086907 43.1017876,24 42.0092049,24 L38,24 C38,26.209139 36.209139,28 34,28 C31.790861,28 30,26.209139 30,24 L25.9907951,24 C24.8913093,24 24,23.1017876 24,22.0092049 L24,14 L13.5296397,21.8800375 C13.8313913,22.5236671 14,23.2421432 14,24 C14,25.3667706 13.4516005,26.6054556 12.5628365,27.5080201 L19.1937788,39.9790087 C19.197493,39.9859941 24,40 24,40 L24,37.9981014 C24,36.8945804 24.8877296,36 26,36 C27.1045695,36 28,36.8867064 28,37.9981014 L28,40 L34.0087557,40 Z M28.013916,20 L40,19.9920654 L40,14 C40,10.6855717 37.314203,8 34,8 C30.6855717,8 28,10.685797 28,14 L28.013916,20 Z" id="Rectangle-624" fill="#000000"></path>
    </g>
</svg>