<?xml version="1.0" encoding="UTF-8"?>
<svg width="48px" height="48px" viewBox="0 0 48 48" version="1.1" xmlns="http://www.w3.org/2000/svg" xmlns:xlink="http://www.w3.org/1999/xlink">
    <!-- Generator: Sketch 43.2 (39069) - http://www.bohemiancoding.com/sketch -->
    <title>theicons.co/svg/home-03</title>
    <desc>Created with Sketch.</desc>
    <defs></defs>
    <g id="The-Icons" stroke="none" stroke-width="1" fill="none" fill-rule="evenodd">
        <path d="M36.0000001,33 L36.0000001,27.9925189 C36.0000001,26.1437954 37.2484495,24.2264078 38.9014695,23.3759131 C38.9014695,23.3759131 40.0671006,22.9083071 40.5936421,22.4490693 C41.4775971,21.6781034 42.0000001,20.5967299 42.0000001,19 C42.0000002,16.2385763 39.7614239,14 37.0000001,14 C36.4471403,14 35.9115789,14.1399242 35.4191027,14.3765679 C35.1305285,14.515233 34.6576448,14.8508963 34.6576448,14.8508963 C32.4127533,16.2329379 29.9609926,14.89467 29.8430366,12.2797242 C29.8430366,12.2797242 29.751142,11.2828584 29.7444432,11.2602471 C28.9858656,8.75104359 26.6631189,7 24.0000001,7 C21.3350664,7 19.0111182,8.75342474 18.254118,11.2650144 C18.2473448,11.2879557 18.1570379,12.2629073 18.1570379,12.2629073 C18.06521,14.8885203 15.6377254,16.1916766 13.3824585,14.8749434 C13.3824585,14.8749434 12.8694717,14.515233 12.5808975,14.3765679 C12.0884213,14.1399242 11.5528599,14 11.0000001,14 C8.2383645,14 5.99950118,16.238709 6.00000008,18.9996386 C6.00029825,20.6497107 6.51982391,21.7304834 7.39011388,22.4726937 C7.9017815,22.9090597 8.9846057,23.3034424 8.9846057,23.3034424 C10.7187213,24.0602391 12.0012532,26.0337346 12.0010943,27.9306179 C12.0010943,27.9306179 12.0011024,30.2877799 12.0003539,33 L16.0000001,33 L16.0000001,25.0085302 C16.0000001,23.8992496 16.8877298,23 18.0000001,23 C19.1045696,23 20.0000001,23.9019504 20.0000001,25.0085302 L20.0000001,33 L22.0000001,33 L22.0000001,20.9940603 C22.0000001,19.8927712 22.8877298,19 24.0000001,19 C25.1045696,19 26.0000001,19.8945138 26.0000001,20.9940603 L26.0000001,33 L28.0000001,33 L28.0000001,25.0085302 C28.0000001,23.8992496 28.8877298,23 30.0000001,23 C31.1045696,23 32.0000001,23.9019504 32.0000001,25.0085302 L32.0000001,33 L36.0000001,33 Z M11.9986231,37 C11.9971761,39.2338207 11.9948819,41 11.9912444,41 C11.9912444,41 36.0000001,40.997567 36.0000001,40.9991358 L36.0000001,37 L11.9986231,37 Z M2.00000015,19.0003614 C1.99910196,14.029787 6.02916674,10 11.0000001,10 C12.0633988,10 13.0568594,10.2277107 13.9649552,10.6135439 C14.0825255,10.6634974 14.3133398,10.7712047 14.3133398,10.7712047 C14.3133398,10.7712047 14.3982789,10.1988529 14.4242947,10.1106948 C15.6870914,5.92096414 19.558469,3 24.0000001,3 C28.438497,3 32.3078803,5.91700289 33.5732968,10.1027154 C33.5989578,10.1893696 33.6866604,10.7712047 33.6866604,10.7712047 C33.6866604,10.7712047 34.1784823,10.549215 34.4339097,10.4564348 C35.2316427,10.1666703 36.0902262,10 37.0000001,10 C41.9705629,10 46.0000002,14.0294373 46.0000001,19 C46.0000001,21.7879899 44.9535831,23.9540717 43.2228385,25.4635885 C42.1805601,26.3726405 40.7314914,26.9327402 40.7314914,26.9327402 C40.3726953,27.1173443 40.0000001,27.6897353 40.0000001,27.9925189 L40.0000001,40.9991358 C40.0000001,43.2049937 38.2084267,45 36.0087558,45 L11.9912444,45 C9.78586767,45 8.00000012,43.2019055 8.00000012,40.9989683 L8.00109435,27.930283 C8.00112043,27.6188523 7.65613206,27.0880016 7.384665,26.9695289 C7.384665,26.9695289 5.85209208,26.4181241 4.79452143,25.5161949 C3.05011066,24.0285072 2.00051418,21.8450247 2.00000015,19.0003614 Z" id="Combined-Shape" fill="#000000"></path>
    </g>
</svg>