<?xml version="1.0" encoding="UTF-8"?>
<svg width="48px" height="48px" viewBox="0 0 48 48" version="1.1" xmlns="http://www.w3.org/2000/svg" xmlns:xlink="http://www.w3.org/1999/xlink">
    <!-- Generator: Sketch 43.2 (39069) - http://www.bohemiancoding.com/sketch -->
    <title>theicons.co/svg/home-29</title>
    <desc>Created with Sketch.</desc>
    <defs></defs>
    <g id="The-Icons" stroke="none" stroke-width="1" fill="none" fill-rule="evenodd">
        <path d="M23.3914494,8.78012348 L24.2943689,7.87720401 C25.0746025,7.0969704 26.3348264,7.09218575 27.1213203,7.87867966 C27.9023689,8.65972824 27.9003677,9.9280594 27.122796,10.7056311 L26.3307622,11.497665 C27.0940373,12.7736918 27.4737753,14.3146965 27.3354183,15.9749806 L29.0006928,16 C32.8663034,16 36,19.1353607 36,22.9979204 L36,28 L40.0002927,28 C41.1047006,28 42,28.8982606 42,29.9979131 L42,32.0020869 C42,33.1055038 41.1101074,34 40.0002927,34 L40,38.0018149 C40,41.314521 37.3130221,44 33.9998243,44 L14.0001757,44 C10.6863701,44 8,41.3172241 8,38.0018149 L8,34 C6.89529944,34 6,33.1017394 6,32.0020869 L6,29.9979131 C6,28.8944962 6.88989258,28 7.99970728,28 L11.6666667,28 L11.4166667,25 L10.9979131,25 C9.89449617,25 9,24.1122704 9,23 C9,21.8954305 9.89826062,21 10.9979131,21 L10.8333333,18 L9.99791312,18 C8.89449617,18 8,17.1122704 8,16 C8,14.8954305 8.89826062,14 9.99791312,14 L10.7469725,14 C10.9028295,13.0938994 11.2193875,12.249796 11.6692206,11.4976477 L10.877204,10.7056311 C10.0969704,9.92539753 10.0921857,8.66517357 10.8786797,7.87867966 C11.6597282,7.09763107 12.9280594,7.09963227 13.7056311,7.87720401 L14.6083817,8.77995453 C15.3368172,8.41732936 16.1413198,8.1704075 17.0008917,8.06212528 C17.0002986,8.04218247 17,5.99791312 17,5.99791312 C17,4.89449617 17.8877296,4 19,4 C20.1045695,4 21,4.89826062 21,5.99791312 L21,8.00208688 C21.8584277,8.17048155 22.6629132,8.41742577 23.3914494,8.78012348 Z M26.3333333,28 L32,28 L32,22.9979204 C32,21.343686 30.6563508,20 29.0006928,20 L27,20 L26.3333333,28 Z M22.3194685,28 L23.3492353,15.6427986 C23.522123,13.5681462 22.0792958,12 20.0001134,12 L17.9998866,12 C15.9199436,12 14.4778966,13.5683811 14.6507647,15.6427986 L15.6568604,28 L22.3194685,28 Z M12,33.99646 L12,38.0018149 C12,39.1065755 12.8939993,40 14.0001757,40 L33.9998243,40 C35.1044526,40 36,39.1048124 36,38.0018149 L36,34.003418 L12,33.99646 Z" id="Path" fill="#000000"></path>
    </g>
</svg>