<?xml version="1.0" encoding="UTF-8"?>
<svg width="48px" height="48px" viewBox="0 0 48 48" version="1.1" xmlns="http://www.w3.org/2000/svg" xmlns:xlink="http://www.w3.org/1999/xlink">
    <!-- Generator: Sketch 43.2 (39069) - http://www.bohemiancoding.com/sketch -->
    <title>theicons.co/svg/home-26</title>
    <desc>Created with Sketch.</desc>
    <defs></defs>
    <g id="The-Icons" stroke="none" stroke-width="1" fill="none" fill-rule="evenodd">
        <path d="M34,36.5 L34,10 L14,10 L14,36.5 L14,35 C14,32.2053256 15.6330154,29.7931617 18,28.6708837 L18,19.9935641 C18,16.68341 20.6930342,14 24,14 C27.3137085,14 30,16.6937005 30,19.9935641 L30,28.6735941 C32.3647991,29.7983178 34,32.2121697 34,35 L34,36.5 Z M4,2.00138927 C4,0.896052496 4.89153983,0 5.99729162,0 L42.0027084,0 C43.1057821,0 44,0.894938439 44,2.00138927 L44,45.9986107 C44,47.1039475 43.1084602,48 42.0027084,48 L5.99729162,48 C4.89421792,48 4,47.1050616 4,45.9986107 L4,2.00138927 Z M8,4 L8,44 L40,44 L40,4 L8,4 Z M10,7.99970728 C10,6.89529944 10.8998975,6 11.9912443,6 L36.0087557,6 C37.1084896,6 38,6.88989258 38,7.99970728 L38,40.0002927 C38,41.1047006 37.1001025,42 36.0087557,42 L11.9912443,42 C10.8915104,42 10,41.1101074 10,40.0002927 L10,7.99970728 Z M24,28 L26,28 L26,18 L23.0093689,18 C22.4433532,18 22,18.4463856 22,18.9970301 L22,24.0018986 C22,25.1132936 22.8954305,26 24,26 L24,28 Z M18,36 L24,36 L24,32 L21,32 C19.3465171,32 18,33.3389512 18,34.9906311 L18,36 Z" id="Combined-Shape" fill="#000000"></path>
    </g>
</svg>