<?xml version="1.0" encoding="UTF-8"?>
<svg width="48px" height="48px" viewBox="0 0 48 48" version="1.1" xmlns="http://www.w3.org/2000/svg" xmlns:xlink="http://www.w3.org/1999/xlink">
    <!-- Generator: Sketch 43.2 (39069) - http://www.bohemiancoding.com/sketch -->
    <title>theicons.co/svg/home-10</title>
    <desc>Created with Sketch.</desc>
    <defs></defs>
    <g id="The-Icons" stroke="none" stroke-width="1" fill="none" fill-rule="evenodd">
        <path d="M5.99729162,4 L42.0027084,4 C43.1057821,4 44,4.89153983 44,5.99729162 L44,42.0027084 C44,43.1057821 43.1084602,44 42.0027084,44 L5.99729162,44 C4.89421792,44 4,43.1084602 4,42.0027084 L4,5.99729162 C4,4.89421792 4.89153983,4 5.99729162,4 Z M8,8 L8,16 L16,16 L16,8 L8,8 Z M20,8 L20,16 L40,16 L40,8 L20,8 Z M8,20 L8,40 L40,40 L40,20 L8,20 Z M16,30 C16,25.581722 19.581722,22 24,22 C28.418278,22 32,25.581722 32,30 C32,34.418278 28.418278,38 24,38 C19.581722,38 16,34.418278 16,30 Z M28,30 C28,27.790861 26.209139,26 24,26 C21.790861,26 20,27.790861 20,30 C20,32.209139 21.790861,34 24,34 C26.209139,34 28,32.209139 28,30 Z M34,14 C32.8954305,14 32,13.1045695 32,12 C32,10.8954305 32.8954305,10 34,10 C35.1045695,10 36,10.8954305 36,12 C36,13.1045695 35.1045695,14 34,14 Z M26,14 C24.8954305,14 24,13.1045695 24,12 C24,10.8954305 24.8954305,10 26,10 C27.1045695,10 28,10.8954305 28,12 C28,13.1045695 27.1045695,14 26,14 Z" id="Combined-Shape" fill="#000000"></path>
    </g>
</svg>