<?xml version="1.0" encoding="UTF-8"?>
<svg width="48px" height="48px" viewBox="0 0 48 48" version="1.1" xmlns="http://www.w3.org/2000/svg" xmlns:xlink="http://www.w3.org/1999/xlink">
    <!-- Generator: Sketch 43.2 (39069) - http://www.bohemiancoding.com/sketch -->
    <title>theicons.co/svg/home-11</title>
    <desc>Created with Sketch.</desc>
    <defs></defs>
    <g id="The-Icons" stroke="none" stroke-width="1" fill="none" fill-rule="evenodd">
        <path d="M11.3350681,22.696427 C11.6544045,23.3350999 12.3455955,23.3350999 12.6649319,22.696427 C13.4895409,21.047209 14,18.6334874 14,16 C14,13.3665126 13.4895409,10.952791 12.6649319,9.30357301 C12.3455955,8.66490008 11.6544045,8.66490008 11.3350681,9.30357301 C10.7245889,10.5245314 10.2862896,12.1645005 10.0998246,14.0024479 C11.1580181,14.054463 12,14.9289038 12,16 C12,17.0710962 11.1580181,17.945537 10.0998246,17.9975521 C10.2862896,19.8354995 10.7245889,21.4754686 11.3350681,22.696427 Z M12,4 L36,4 C39.3137085,4 42,9.372583 42,16 C42,22.627417 39.3137085,28 36,28 L34,28 L34,41.9964641 C34,43.1029864 33.1001025,44 32.0087557,44 L7.99124431,44 C6.89151044,44 6,43.1001025 6,42.0087557 L6,16 C6,9.372583 8.6862915,4 12,4 Z M10.0272217,40 L30.0377197,40 C30.0377197,40 30.0148398,31.8257105 30.0047191,28 L12,28 C11.3031843,28 10.6341123,27.7624307 10.0119283,27.3255808 L10.0272217,40 Z M18,16 C18,19.0768496 17.421002,21.8832348 16.469029,24.0071094 C23.3404674,24.0171491 35.7187493,24.0313108 35.7521026,24.0030963 C36.0171532,23.7788824 36.3455955,23.3350999 36.6649319,22.696427 C37.4895409,21.047209 38,18.6334874 38,16 C38,13.3665126 37.4895409,10.952791 36.6649319,9.30357301 C36.3455955,8.66490008 36.0171532,8.2211176 35.7521026,7.99690369 C35.7187493,7.96868921 23.3404674,7.98285095 16.469029,7.99289063 C17.421002,10.1167652 18,12.9231504 18,16 Z" id="Path" fill="#000000"></path>
    </g>
</svg>