<?xml version="1.0" encoding="UTF-8"?>
<svg width="48px" height="48px" viewBox="0 0 48 48" version="1.1" xmlns="http://www.w3.org/2000/svg" xmlns:xlink="http://www.w3.org/1999/xlink">
    <!-- Generator: Sketch 43.2 (39069) - http://www.bohemiancoding.com/sketch -->
    <title>theicons.co/svg/home-23</title>
    <desc>Created with Sketch.</desc>
    <defs></defs>
    <g id="The-Icons" stroke="none" stroke-width="1" fill="none" fill-rule="evenodd">
        <path d="M20.2336136,16 L24.6070538,11.6131064 C25.386902,10.8308593 26.6532304,10.8289146 27.4354776,11.6087628 C28.2177247,12.3886109 28.2196694,13.6549394 27.4398212,14.4371865 L25.8818005,16 L29.6585886,16 C29.8796916,15.3744421 30,14.7012708 30,14 C30,10.6862915 27.3137085,8 24,8 C20.6862915,8 18,10.6862915 18,14 C18,14.7012708 18.1203084,15.3744421 18.3414114,16 L20.2336136,16 Z M7.99964737,16 C8.00567937,16 8,39.9957423 8,39.9957423 C8,40.0009109 39.9999745,40 39.9999745,40 C39.9962651,40 40,16.0042577 40,16.0042577 C40,15.9990594 33.7999638,16 33.7999638,16 C32.8734231,20.5644806 28.8379158,24 24,24 C19.1620842,24 15.1265769,20.5644806 14.2000362,16 L7.99964737,16 Z M40.0001072,12 C42.209187,12 44,13.7890275 44,16.0042577 L44,39.9957423 C44,42.2072328 42.2035752,44 39.9999745,44 L8.00002553,44 C5.79087243,44 4,42.2109725 4,39.9957423 L4,16.0042577 C4,13.7927672 5.80031206,12 7.99964737,12 L14.2000362,12 C15.1265769,7.43551936 19.1620842,4 24,4 C28.8379158,4 32.8734231,7.43551936 33.7999638,12 L40.0001072,12 Z M18,36 C18,34.8954305 18.9019504,34 20.0085302,34 L27.9914698,34 C29.1007504,34 30,34.8877296 30,36 C30,37.1045695 29.0980496,38 27.9914698,38 L20.0085302,38 C18.8992496,38 18,37.1122704 18,36 Z" id="Combined-Shape" fill="#000000" fill-rule="nonzero"></path>
    </g>
</svg>