<?xml version="1.0" encoding="UTF-8"?>
<svg width="48px" height="48px" viewBox="0 0 48 48" version="1.1" xmlns="http://www.w3.org/2000/svg" xmlns:xlink="http://www.w3.org/1999/xlink">
    <!-- Generator: Sketch 43.2 (39069) - http://www.bohemiancoding.com/sketch -->
    <title>theicons.co/svg/home-34</title>
    <desc>Created with Sketch.</desc>
    <defs></defs>
    <g id="The-Icons" stroke="none" stroke-width="1" fill="none" fill-rule="evenodd">
        <path d="M39.999895,22 C39.9997052,18.1312187 39.9993774,10 39.9999745,10 C39.9999745,10 8,10.0026075 8,9.99922997 L8,22 L12,22 L12,15.999615 C12,14.8952581 12.8874333,14 13.999615,14 L20.000385,14 C21.1047419,14 22,14.8874333 22,15.999615 L22,22 L26,22 L26,15.999615 C26,14.8952581 26.8874333,14 27.999615,14 L34.000385,14 C35.1047419,14 36,14.8874333 36,15.999615 L36,22 L39.999895,22 Z M8,40 L8,42.0020869 C8,43.1055038 7.11227036,44 6,44 C4.8954305,44 4,43.1017394 4,42.0020869 L4,39.9999889 C1.78994613,39.9946616 0,38.2050029 0,36.0052166 L0,25.9947834 C0,23.7918098 1.78871491,22.005326 4,22.0000119 L4,9.99922997 C4,7.79051625 5.79642476,6 8.00002553,6 L39.9999745,6 C42.2091276,6 44,7.79246765 44,9.99922997 L44,22.0000111 C46.2100539,22.0053384 48,23.7949971 48,25.9947834 L48,36.0052166 C48,38.2081902 46.2112851,39.994674 44,39.9999881 L44,42.0020869 C44,43.1055038 43.1122704,44 42,44 C40.8954305,44 40,43.1017394 40,42.0020869 L40,40 L8,40 Z M4,36.0052166 C4,35.9973554 43.9901068,36 43.9901068,36 C43.9928216,36 43.994793,35.1755598 43.9962241,34 L4.00031203,34 C4.00003601,35.1783366 4,36.0052166 4,36.0052166 Z M43.999057,30 C43.9999182,27.8718945 44,25.9947834 44,25.9947834 C44,26.0026446 4.00989318,26 4.00989318,26 C4.00580011,26 4.00339686,27.8740445 4.00198741,30 L43.999057,30 Z" id="Combined-Shape" fill="#000000"></path>
    </g>
</svg>