<?xml version="1.0" encoding="UTF-8"?>
<svg width="48px" height="48px" viewBox="0 0 48 48" version="1.1" xmlns="http://www.w3.org/2000/svg" xmlns:xlink="http://www.w3.org/1999/xlink">
    <!-- Generator: Sketch 43.2 (39069) - http://www.bohemiancoding.com/sketch -->
    <title>theicons.co/svg/home-30</title>
    <desc>Created with Sketch.</desc>
    <defs></defs>
    <g id="The-Icons" stroke="none" stroke-width="1" fill="none" fill-rule="evenodd">
        <path d="M34.6994253,30.7638935 C35.3131747,31.313214 35.6994253,32.1115002 35.6994253,33 C35.6994253,34.6568542 34.3562795,36 32.6994253,36 C31.042571,36 29.6994253,34.6568542 29.6994253,33 C29.6994253,32.1115002 30.0856759,31.313214 30.6994253,30.7638935 L30.6994253,28 L25.6994253,28 L25.6994253,40 L33.6944787,40 C34.8017801,40 35.6994253,40.8877296 35.6994253,42 C35.6994253,43.1045695 34.8023991,44 33.6944787,44 L13.7043719,44 C12.5970705,44 11.6994253,43.1122704 11.6994253,42 C11.6994253,40.8954305 12.5964515,40 13.7043719,40 L21.6994253,40 L21.6994253,28 L9.70116861,28 C8.5956363,28 7.84653128,27.117364 8.02676208,26.0359793 L11.3720885,5.96402073 C11.5528716,4.87932203 12.5964515,4 13.7043719,4 L33.6944787,4 C34.8017801,4 35.8465313,4.88263595 36.0267621,5.96402073 L39.3720885,26.0359793 C39.5528716,27.120678 38.8101636,28 37.697682,28 L34.6994253,28 L34.6994253,30.7638935 Z M12.4015737,24 L34.9764894,23.9934345 L32.313439,8 L15.0657583,7.99999996 L12.4015737,24 Z" id="Rectangle-621" fill="#000000"></path>
    </g>
</svg>