<?xml version="1.0" encoding="UTF-8"?>
<svg width="48px" height="48px" viewBox="0 0 48 48" version="1.1" xmlns="http://www.w3.org/2000/svg" xmlns:xlink="http://www.w3.org/1999/xlink">
    <!-- Generator: Sketch 43.2 (39069) - http://www.bohemiancoding.com/sketch -->
    <title>theicons.co/svg/home-04</title>
    <desc>Created with Sketch.</desc>
    <defs></defs>
    <g id="The-Icons" stroke="none" stroke-width="1" fill="none" fill-rule="evenodd">
        <path d="M40.003056,40 C41.1084896,40 42,40.8877296 42,42 C42,43.1045695 41.1001025,44 40.0087557,44 L15.9912443,44 C14.8915104,44 14,43.1122704 14,42 C14,40.8954305 14.8998975,40 15.9912443,40 L16.003056,36.9681241 L7.37732874,25.9026727 C5.34051297,23.2897584 5.59361031,19.2673101 7.93198823,16.9289322 C9.06592909,15.7949913 10.5392095,15.2081938 12.0242244,15.1709378 C14.5222778,15.1709375 16.003056,16.5510775 16.003056,16.5510775 C16.003056,16.5510775 15.9072266,13.8228149 16.6148887,12.2073591 C18.2022029,7.43853551 22.7001846,4 28.003056,4 C34.630473,4 40.003056,9.37380987 40.003056,16.0013189 L40.003056,40 Z M36.003056,40.0252686 L36.003056,16.0013189 C36.003056,11.5825979 32.4209831,8 28.003056,8 C23.5839977,8 20.003056,11.5816356 20.003056,16.0013189 L20.003056,23.0854995 C20.003056,24.1855137 19.3137497,24.5043 18.4657631,23.7994536 L13.4461935,19.6271877 C12.6577322,18.9718188 11.4947171,19.0230576 10.7604154,19.7573593 C9.84746961,20.6703051 9.7383897,22.4253173 10.532074,23.4434895 L19.3887709,34.8052385 C19.7280312,35.2404561 20.003056,36.0434484 20.003056,36.5924391 L20.003056,40.0192871 L36.003056,40.0252686 Z M23,21.9940603 C23,20.8927712 23.8877296,20 25,20 C26.1045695,20 27,20.8945138 27,21.9940603 L27,34.0059397 C27,35.1072288 26.1122704,36 25,36 C23.8954305,36 23,35.1054862 23,34.0059397 L23,21.9940603 Z M29,21.9940603 C29,20.8927712 29.8877296,20 31,20 C32.1045695,20 33,20.8945138 33,21.9940603 L33,34.0059397 C33,35.1072288 32.1122704,36 31,36 C29.8954305,36 29,35.1054862 29,34.0059397 L29,21.9940603 Z" id="Combined-Shape" fill="#000000"></path>
    </g>
</svg>