<?xml version="1.0" encoding="UTF-8"?>
<svg width="48px" height="48px" viewBox="0 0 48 48" version="1.1" xmlns="http://www.w3.org/2000/svg" xmlns:xlink="http://www.w3.org/1999/xlink">
    <!-- Generator: Sketch 43.2 (39069) - http://www.bohemiancoding.com/sketch -->
    <title>theicons.co/svg/home-02</title>
    <desc>Created with Sketch.</desc>
    <defs></defs>
    <g id="The-Icons" stroke="none" stroke-width="1" fill="none" fill-rule="evenodd">
        <path d="M43,7.99620271 L43,40.0031611 C43,42.2105543 41.2111696,44 39.0037973,44 L28.9940603,44 C27.8927712,44 26.7176907,43.1472915 26.4215171,42.0950671 C26.4215171,42.0950671 25,38.7839355 25,29.9624023 C25,21.1408691 27.9490471,17.6851439 27.9490471,17.6851439 C28.5294724,16.7544646 29.8970601,16 31.0058587,16 L33,16 L33,7.99620271 C33,5.78916089 34.7877996,4 37.009763,4 L38.990237,4 C41.204768,4 43,5.78883037 43,7.99620271 Z M21,7.99620271 L21,42.0087557 C21,43.1084896 20.126069,43.854139 19.0591513,43.5657304 C19.0591513,43.5657304 13.2739258,43.4316406 7.65332031,33.2851562 C3.60180666,25.3354492 4.13497921,19.9888613 4,19.9888613 C4.06043225,17.785874 5.78716697,16 8.00723574,16 L11,16 L11,7.99620271 C11,5.78916089 12.7877996,4 15.009763,4 L16.990237,4 C19.204768,4 21,5.78883037 21,7.99620271 Z M15.0255737,16 L17,15.9910889 L17,7.99620271 C17,8.00117386 16.9988221,8 16.990237,8 L15.009763,8 C14.9976216,8 15,7.99762664 15,7.99620271 L15.0255737,16 Z M37.0255737,16 L39,15.9910889 L39,7.99620271 C39,8.00117386 38.9988221,8 38.990237,8 L37.009763,8 C36.9976216,8 37,7.99762664 37,7.99620271 L37.0255737,16 Z M29.6446564,38.6126221 C29.7746203,39.318606 29.9766235,40 29.9766235,40 L39.0037973,40 C39.0017228,40 39.0405273,20 39.0405273,20 L31.1852903,20 C31.1852903,20 30.4573312,21.2866923 30.2199791,21.9198215 C29.4688813,23.9233516 29,26.5766506 29,29.9624023 C29,33.5855907 29.2457668,36.4457927 29.6446564,38.6126221 Z M8.43716265,23.6632177 C8.8903426,26.0277005 9.77871879,28.6463805 11.2171767,31.4688613 C11.2171767,31.4688613 11.4308741,31.8427266 11.5712767,32.0823402 C13.118333,34.7225748 14.678851,36.5931915 16.1870236,37.8430839 C16.6840655,38.2550054 17.0020898,38.4542195 17.0020898,38.4542195 L17.0129395,20 L8,20 C8,20 8.15257043,22.1783476 8.43716265,23.6632177 Z" id="Combined-Shape" fill="#000000" transform="translate(23.500000, 24.000000) scale(1, -1) translate(-23.500000, -24.000000) "></path>
    </g>
</svg>