<?xml version="1.0" encoding="UTF-8"?>
<svg width="48px" height="48px" viewBox="0 0 48 48" version="1.1" xmlns="http://www.w3.org/2000/svg" xmlns:xlink="http://www.w3.org/1999/xlink">
    <!-- Generator: Sketch 43.2 (39069) - http://www.bohemiancoding.com/sketch -->
    <title>theicons.co/svg/home-17</title>
    <desc>Created with Sketch.</desc>
    <defs></defs>
    <g id="The-Icons" stroke="none" stroke-width="1" fill="none" fill-rule="evenodd">
        <path d="M28.7338376,23.2569762 L20.4652672,14.637266 L25.9879627,8.89029957 L34.2421215,17.514773 C34.5791673,17.8661321 35.0405458,18.2784721 35.6294955,18.7609659 C35.5561456,18.9922426 35.4736216,19.2308124 35.3817091,19.4732294 C34.9122093,20.7115239 34.3004155,21.7820498 33.573162,22.5190796 C32.846422,23.2555889 31.8452359,23.8674239 30.7069486,24.3365049 C30.4239821,24.4531136 30.1468825,24.5549272 29.8814495,24.6424355 C29.4373231,24.055098 29.0575933,23.5944808 28.7338376,23.2569762 Z M34.2421215,30.9604774 C34.2421215,30.9604774 37.0912516,28.9001573 38.3733344,27.5636285 C39.6558076,26.2266928 41.6110116,23.1956215 41.6110116,23.1956215 C41.6110116,23.1956215 39.7659468,21.8721455 38.8954271,21.2450794 C38.2525277,22.859561 37.4042622,24.2993099 36.288152,25.4304236 C35.1773804,26.5561269 33.8001815,27.4108673 32.2773973,28.0546849 C32.8726287,28.9348606 34.2421215,30.9604774 34.2421215,30.9604774 Z M45.0198415,20.690461 C45.9122888,21.3150754 46.2713743,22.6373442 45.7761941,23.649659 C45.7761941,23.649659 44.5748609,26.8409462 41.1274764,30.4347301 C37.6800918,34.0285141 34.6026002,35.2898338 34.6026002,35.2898338 C33.642978,35.7797653 32.3792424,35.4207256 31.7757999,34.4878484 C31.7757999,34.4878484 27.3769239,27.5846419 25.9796956,26.1280778 L20.542854,31.7958047 C17.3061287,35.1699834 13.0921102,41.5098209 13.0921102,41.5098209 C11.8438388,43.3215452 9.60127485,43.5073366 8.08252229,41.9240874 L2.57352294,36.1811385 C1.81075978,35.3859832 1.80690135,34.1008041 2.57350107,33.3016493 L17.7172698,17.514773 L16.3383858,16.0773323 C15.5788518,15.2855433 15.5790323,14.0016115 16.3361091,13.2123841 L24.6067144,4.59055258 C25.364991,3.80007438 26.5982726,3.80411119 27.3588062,4.5969422 L28.7338376,6.03036676 L30.1123454,4.59331806 C30.8720872,3.80131253 32.1090044,3.80666296 32.8709239,4.60093874 L38.3674611,10.3308963 C39.1312401,11.1271107 39.1319211,12.4173193 38.3747713,13.2066228 L36.9962634,14.6436715 C38.4190428,16.1268718 45.0198415,20.690461 45.0198415,20.690461 Z M20.4714117,20.3858746 L6.66410812,34.7795304 L10.3725941,38.5776937 C10.3725941,38.5776937 11.8396232,36.3738461 12.4989049,35.466497 C13.2731071,34.4009862 14.0419515,33.379213 14.7919393,32.4270662 C15.8677014,31.0613327 16.8695281,29.8829219 17.7887121,28.9247031 L23.2255537,23.2569762 L20.4714117,20.3858746 Z" id="Combined-Shape" fill="#000000"></path>
    </g>
</svg>