<?xml version="1.0" encoding="UTF-8"?>
<svg width="48px" height="48px" viewBox="0 0 48 48" version="1.1" xmlns="http://www.w3.org/2000/svg" xmlns:xlink="http://www.w3.org/1999/xlink">
    <!-- Generator: Sketch 43.2 (39069) - http://www.bohemiancoding.com/sketch -->
    <title>theicons.co/svg/home-15</title>
    <desc>Created with Sketch.</desc>
    <defs></defs>
    <g id="The-Icons" stroke="none" stroke-width="1" fill="none" fill-rule="evenodd">
        <path d="M42,42.0027084 C42,43.1057821 41.094845,44 40.0088621,44 L35.1087281,44 C34.5568006,44 33.7869192,43.6861267 33.3935765,43.3032532 L30,40 L18,40 L14.7488027,43.2848802 C14.3579027,43.6798299 13.5856566,44 13.0388738,44 L8.00834553,44 C6.89916692,44 6,43.1084602 6,42.0027084 L6,8 L4.99749218,8 C3.89430771,8 3,7.11227036 3,6 C3,4.8954305 3.89666034,4 4.99749218,4 L43.0025078,4 C44.1056923,4 45,4.88772964 45,6 C45,7.1045695 44.1033397,8 43.0025078,8 L42,8 L42,42.0027084 Z M10,8 L10,40 L12.3554606,40.016785 L15.1570347,37.1861862 C15.9083305,36.4271068 16.9319892,36 18,36 L30,36 C31.0421847,36 32.0432177,36.4067549 32.790025,37.1336852 L35.7387695,40 L38,40 L38,8 L10,8 Z M10,28 L38,28 L38,32 L10,32 L10,28 Z M24,14 C22.8954305,14 22,13.1045695 22,12 C22,10.8954305 22.8954305,10 24,10 C25.1045695,10 26,10.8954305 26,12 C26,13.1045695 25.1045695,14 24,14 Z M24,26 C22.8954305,26 22,25.1045695 22,24 C22,22.8954305 22.8954305,22 24,22 C25.1045695,22 26,22.8954305 26,24 C26,25.1045695 25.1045695,26 24,26 Z M10,16 L38,16 L38,20 L10,20 L10,16 Z" id="Combined-Shape" fill="#000000" fill-rule="nonzero"></path>
    </g>
</svg>