<?xml version="1.0" encoding="UTF-8"?>
<svg width="48px" height="48px" viewBox="0 0 48 48" version="1.1" xmlns="http://www.w3.org/2000/svg" xmlns:xlink="http://www.w3.org/1999/xlink">
    <!-- Generator: Sketch 43.2 (39069) - http://www.bohemiancoding.com/sketch -->
    <title>theicons.co/svg/home-22</title>
    <desc>Created with Sketch.</desc>
    <defs></defs>
    <g id="The-Icons" stroke="none" stroke-width="1" fill="none" fill-rule="evenodd">
        <path d="M36.2519132,5.59778179 C37.0290529,3.4179348 38.2525935,2.3633974 40.0953118,1.59626869 C41.5196514,1.00331218 43.1644285,1 44.6188169,1 C46.5581762,1 47.1795335,2.39849135 46.9570286,3.48147173 C46.7345236,4.56445211 45.7397685,4.95443408 44.6188169,4.95443408 C43.7723778,4.95443408 42.7390464,4.92266567 42.090187,5.13343686 C41.4413276,5.34420805 40.412845,5.84549461 40.0216683,6.94273005 C39.5177855,8.3561021 39.9877508,9.69426257 41.2219651,11.0151646 C41.5643549,11.381603 41.9362176,11.7106448 42.3064605,11.992494 C42.5202461,12.1552392 42.6749296,12.2593372 42.7390464,12.298241 C43.266037,12.6179996 43.5928768,13.142328 43.6794989,13.7075684 C43.7026251,13.780441 46.9570286,30.0364511 46.9570286,30.0364511 C47.1650308,31.0768445 46.5014092,31.9275169 45.469205,31.9888639 L41.3445873,31.9924054 L42.8613244,38.0615847 C43.1288653,39.1321419 42.4463724,40 41.3396611,40 L2.36794854,40 C1.26001618,40 0.714702973,39.1763959 1.14967083,38.1610977 L6.55030184,24.6293628 C5.60848067,24.1227005 4.96821432,23.1276049 4.96821432,21.9829121 C4.96821432,20.324485 6.31214096,18.9800641 7.96995849,18.9800641 C8.37167202,18.9800641 8.75495501,19.0590037 9.10515226,19.2022222 C11.8573058,15.0686417 17.1911336,11.9734189 21.9714658,11.9734189 L36.9406822,11.9734189 C35.7869238,10.0620869 35.4290618,7.90584827 36.2519132,5.59778179 Z M21.9714658,15.9772162 C18.0557966,15.9772162 13.2550937,19.1430995 11.7111554,22.7469471 L9.64237801,27.9886081 L39.3434245,27.9886081 L42.471804,28.0175224 L41.6653878,23.9848108 L29.9864521,23.9848108 C26.6687719,23.9848108 23.9792608,21.28922 23.9792608,17.9791148 L23.9792608,15.9772162 L21.9714658,15.9772162 Z M27.9815863,17.9791148 C27.9815863,19.0804575 28.8816678,19.9810135 29.9864521,19.9810135 L40.8647535,19.9810135 L40.0641192,15.9772162 L27.9815863,15.9772162 L27.9815863,17.9791148 Z M31.9839119,33.994304 C30.8787002,33.994304 29.9827491,33.0980235 29.9827491,31.9924054 L25.9804235,31.9924054 C25.9804235,33.0980235 25.0844724,33.994304 23.9792608,33.994304 C22.8740491,33.994304 21.978098,33.0980235 21.978098,31.9924054 L17.9757724,31.9924054 C17.9757724,33.0980235 17.0798213,33.994304 15.9746096,33.994304 C14.8693979,33.994304 13.9734468,33.0980235 13.9734468,31.9924054 L7.93508845,31.9924054 L6.45799206,35.9962027 L38.2218895,36.0051002 L37.2190845,31.9924054 L33.9850747,31.9924054 C33.9850747,33.0980235 33.0891236,33.994304 31.9839119,33.994304 Z" id="Path" fill="#000000"></path>
    </g>
</svg>