<?xml version="1.0" encoding="UTF-8"?>
<svg width="48px" height="48px" viewBox="0 0 48 48" version="1.1" xmlns="http://www.w3.org/2000/svg" xmlns:xlink="http://www.w3.org/1999/xlink">
    <!-- Generator: Sketch 43.2 (39069) - http://www.bohemiancoding.com/sketch -->
    <title>theicons.co/svg/home-24</title>
    <desc>Created with Sketch.</desc>
    <defs></defs>
    <g id="The-Icons" stroke="none" stroke-width="1" fill="none" fill-rule="evenodd">
        <path d="M34,16 L30,16 L30,20 L34,20 L34,16 Z M30,24 L30,40 L34,40 L34,24 L30,24 Z M42,8 L38,8 L38,32 L42,32 L42,8 Z M38,36 L38,40 L42,40 L42,36 L38,36 Z M6,16 L6,40 L22,40 L22,16 L18,16 L18,22.0455698 C18,24.2569061 16.7890131,24.7326457 15.287643,23.0999622 L14,21.6996989 L12.712357,23.0999622 C11.2143636,24.7289737 10,24.2624263 10,22.0455698 L10,16 L6,16 Z M4.00494659,44 C2.89764516,44 2,43.1107383 2,41.9982567 L2,14.0017433 C2,12.896211 2.89702623,12 4.00494659,12 L22,12 L22,9.99970728 C22,8.89529944 22.8867064,8 23.9981014,8 L28.0018986,8 C29.1054196,8 30,8.88989258 30,9.99970728 L30,12 L34,12 L34,5.99729162 C34,4.89421792 34.9019504,4 36.0085302,4 L43.9914698,4 C45.1007504,4 46,4.89153983 46,5.99729162 L46,42.0027084 C46,43.1057821 45.0980496,44 43.9914698,44 L36.0085302,44 L28.0085302,44 L23.9981014,44 L4.00494659,44 Z" id="Combined-Shape" fill="#000000"></path>
    </g>
</svg>