<?xml version="1.0" encoding="UTF-8"?>
<svg width="48px" height="48px" viewBox="0 0 48 48" version="1.1" xmlns="http://www.w3.org/2000/svg" xmlns:xlink="http://www.w3.org/1999/xlink">
    <!-- Generator: Sketch 43.2 (39069) - http://www.bohemiancoding.com/sketch -->
    <title>theicons.co/svg/home-33</title>
    <desc>Created with Sketch.</desc>
    <defs></defs>
    <g id="The-Icons" stroke="none" stroke-width="1" fill="none" fill-rule="evenodd">
        <path d="M6.00180999,8 C6.00325381,8 6,21.9904421 6,21.9904421 C6,21.9948404 41.99819,22 41.99819,22 C41.9967462,22 42,8.00955791 42,8.00955791 C42,8.00892859 41.2630325,8.00828369 39.9999905,8.00764054 C39.9958688,9.66098153 38.6543067,11 37,11 C35.3449761,11 34.002968,9.65982023 34.0000049,8.00548996 C23.3936324,8.00249274 6.00180999,8 6.00180999,8 Z M6.00180999,4 L41.99819,4 C44.2083286,4 46,5.80035233 46,8.00955791 L46,21.9904421 C46,24.2048598 44.2069088,26 41.99819,26 L6.00180999,26 C3.79167136,26 2,24.1996477 2,21.9904421 L2,8.00955791 C2,5.79514022 3.79309123,4 6.00180999,4 Z M21.9874278,33.7467004 C21.9200183,33.6870575 21.8844364,33.6601102 21.89651,33.6680998 C20.9753648,33.0585383 20.7227764,31.8176553 21.3323379,30.89651 C21.9418995,29.9753648 23.1827825,29.7227764 24.1039277,30.3323379 C24.5307241,30.6147675 25.0723304,31.0939732 25.5991535,31.7951071 C26.4710391,32.9554748 27.0002189,34.3679236 27.0002189,36.0002189 C27.0002189,37.6325141 26.4710391,39.0449629 25.5991535,40.2053307 C25.0723304,40.9064645 24.5307241,41.3856702 24.1039277,41.6680998 C23.1827825,42.2776613 21.9418995,42.0250729 21.3323379,41.1039277 C20.7227764,40.1827825 20.9753648,38.9418995 21.89651,38.3323379 C21.8844364,38.3403276 21.9200183,38.3133802 21.9874278,38.2537373 C22.1250437,38.1319766 22.2676036,37.9804041 22.4012842,37.8024923 C22.7793986,37.2992706 23.0002189,36.709873 23.0002189,36.0002189 C23.0002189,35.2905647 22.7793986,34.7011671 22.4012842,34.1979454 C22.2676036,34.0200336 22.1250437,33.8684611 21.9874278,33.7467004 Z M32.9874278,33.7467004 C32.9200183,33.6870575 32.8844364,33.6601102 32.89651,33.6680998 C31.9753648,33.0585383 31.7227764,31.8176553 32.3323379,30.89651 C32.9418995,29.9753648 34.1827825,29.7227764 35.1039277,30.3323379 C35.5307241,30.6147675 36.0723304,31.0939732 36.5991535,31.7951071 C37.4710391,32.9554748 38.0002189,34.3679236 38.0002189,36.0002189 C38.0002189,37.6325141 37.4710391,39.0449629 36.5991535,40.2053307 C36.0723304,40.9064645 35.5307241,41.3856702 35.1039277,41.6680998 C34.1827825,42.2776613 32.9418995,42.0250729 32.3323379,41.1039277 C31.7227764,40.1827825 31.9753648,38.9418995 32.89651,38.3323379 C32.8844364,38.3403276 32.9200183,38.3133802 32.9874278,38.2537373 C33.1250437,38.1319766 33.2676036,37.9804041 33.4012842,37.8024923 C33.7793986,37.2992706 34.0002189,36.709873 34.0002189,36.0002189 C34.0002189,35.2905647 33.7793986,34.7011671 33.4012842,34.1979454 C33.2676036,34.0200336 33.1250437,33.8684611 32.9874278,33.7467004 Z M10.9874278,33.7467004 C10.9200183,33.6870575 10.8844364,33.6601102 10.89651,33.6680998 C9.97536483,33.0585383 9.72277636,31.8176553 10.3323379,30.89651 C10.9418995,29.9753648 12.1827825,29.7227764 13.1039277,30.3323379 C13.5307241,30.6147675 14.0723304,31.0939732 14.5991535,31.7951071 C15.4710391,32.9554748 16.0002189,34.3679236 16.0002189,36.0002189 C16.0002189,37.6325141 15.4710391,39.0449629 14.5991535,40.2053307 C14.0723304,40.9064645 13.5307241,41.3856702 13.1039277,41.6680998 C12.1827825,42.2776613 10.9418995,42.0250729 10.3323379,41.1039277 C9.72277636,40.1827825 9.97536483,38.9418995 10.89651,38.3323379 C10.8844364,38.3403276 10.9200183,38.3133802 10.9874278,38.2537373 C11.1250437,38.1319766 11.2676036,37.9804041 11.4012842,37.8024923 C11.7793986,37.2992706 12.0002189,36.709873 12.0002189,36.0002189 C12.0002189,35.2905647 11.7793986,34.7011671 11.4012842,34.1979454 C11.2676036,34.0200336 11.1250437,33.8684611 10.9874278,33.7467004 Z M8,18 C8,16.8954305 8.88926172,16 10.0017433,16 L37.9982567,16 C39.103789,16 40,16.8877296 40,18 C40,19.1045695 39.1107383,20 37.9982567,20 L10.0017433,20 C8.89621101,20 8,19.1122704 8,18 Z" id="Combined-Shape" fill="#000000"></path>
    </g>
</svg>