<?xml version="1.0" encoding="UTF-8"?>
<svg width="48px" height="48px" viewBox="0 0 48 48" version="1.1" xmlns="http://www.w3.org/2000/svg" xmlns:xlink="http://www.w3.org/1999/xlink">
    <!-- Generator: Sketch 43.2 (39069) - http://www.bohemiancoding.com/sketch -->
    <title>theicons.co/svg/home-35</title>
    <desc>Created with Sketch.</desc>
    <defs></defs>
    <g id="The-Icons" stroke="none" stroke-width="1" fill="none" fill-rule="evenodd">
        <path d="M4,8.99263394 C4,6.23284259 6.2433961,4 9.00741988,4 L35.9946773,4 C40.4145511,4 44,7.58278858 44,11.998845 L44,35.9999946 C44,40.4131577 40.4188171,44 36.0048168,44 L9,44 C7.8954305,44 7,43.1045695 7,42 C7,40.8954305 7.8954305,40 9,40 L36.0048168,40 C38.2082629,40 40,38.2054314 40,36 C40,33.7863999 38.2145315,32 35.9946773,32 L9.00741988,32 C8.45144575,32 8,32.4506815 8,33 C8,33.5488093 8.45158992,34 8.99649048,34 L34,34 C35.1045695,34 36,34.8954305 36,36 C36,37.1045695 35.1045695,38 34,38 L8.99649048,38 C6.24324248,38 4,35.7587406 4,33 L4,8.99263394 Z M35.9946773,28 C37.4550996,28 38.8227302,28.388922 40,29.0688054 L40,11.998845 C40,9.79259249 38.2060765,8 35.9946773,8 L9.00741988,8 C8.44832387,8 8,8.44621484 8,8.99263394 L8,28 L35.9946773,28 Z" id="Combined-Shape" fill="#000000"></path>
    </g>
</svg>