<?xml version="1.0" encoding="UTF-8"?>
<svg width="48px" height="48px" viewBox="0 0 48 48" version="1.1" xmlns="http://www.w3.org/2000/svg" xmlns:xlink="http://www.w3.org/1999/xlink">
    <!-- Generator: Sketch 43.2 (39069) - http://www.bohemiancoding.com/sketch -->
    <title>theicons.co/svg/home-32</title>
    <desc>Created with Sketch.</desc>
    <defs></defs>
    <g id="The-Icons" stroke="none" stroke-width="1" fill="none" fill-rule="evenodd">
        <path d="M6,29 L6,20 C6,18.8954305 6.89826062,18 7.99791312,18 L10.0020869,18 C11.1055038,18 12,18.8877296 12,20 C12,21.1045695 11.1017394,22 10.0020869,22 L10,27 L12.1258217,27 C12.3815991,26.0062706 13.0101429,25.1611547 13.8523875,24.6236266 L12.6072825,12.1725762 C12.1593704,7.69345477 15.4959374,4 20.0006595,4 L27.9993405,4 C32.4962908,4 35.8401944,7.69780693 35.3927175,12.1725762 L34.1477023,24.6227285 C34.9907176,25.1603672 35.6188191,26.0060812 35.874332,27 L38,27 L38,22 C36.8982606,22 36,21.1045695 36,20 C36,18.8877296 36.8944962,18 37.9979131,18 L40.0020869,18 C41.1017394,18 42,18.8954305 42,20 L42,29 C42,30.1122704 41.1057373,31 40.0026083,31 L35.8741783,31 C35.4305575,32.7235258 33.8656002,34 32.0092049,34 L15.9907951,34 C14.1304859,34 12.5685029,32.7225821 12.125668,31 L7.9973917,31 C6.89426273,31 6,30.1122704 6,29 Z M36,38 C36,36.8877296 35.1023548,36 33.9950534,36 L26,36 L26,34 L22,34 L22,36 L14.0049466,36 C12.8970262,36 12,36.8954305 12,38 C12,39.1106136 12.8949731,39.9973549 14,39.9999941 L14,41 C14,42.6534829 15.3431458,44 17,44 C18.6534829,44 20,42.6568542 20,41 L20,40 L28,40 L28,41 C28,42.6534829 29.3431458,44 31,44 C32.6534829,44 34,42.6568542 34,41 L34,39.9999945 C35.1056425,39.9973335 36,39.1029252 36,38 Z M31.4125687,11.7745613 C31.6246419,9.65383001 30.1290938,8 27.9993405,8 L20.0006595,8 C17.8640775,8 16.3748293,9.64854196 16.5874313,11.7745613 L17.8099751,24 L30.1900249,24 L31.4125687,11.7745613 Z M31.0077574,28.0000473 L17.0014475,27.9990331 C16.4448867,27.998701 15.9979394,28.4460955 15.9953976,28.9989566 C15.992838,29.555672 16.4391584,30.0000584 16.9922426,30.0001305 L30.9985525,30.0019563 C31.5551133,30.0020289 32.0020606,29.5539045 32.0046024,29.0010434 C32.007162,28.444328 31.5608416,28.0000212 31.0077574,28.0000473 Z" id="Combined-Shape" fill="#000000"></path>
    </g>
</svg>