<?xml version="1.0" encoding="UTF-8"?>
<svg width="48px" height="48px" viewBox="0 0 48 48" version="1.1" xmlns="http://www.w3.org/2000/svg" xmlns:xlink="http://www.w3.org/1999/xlink">
    <!-- Generator: Sketch 43.2 (39069) - http://www.bohemiancoding.com/sketch -->
    <title>theicons.co/svg/home-27</title>
    <desc>Created with Sketch.</desc>
    <defs></defs>
    <g id="The-Icons" stroke="none" stroke-width="1" fill="none" fill-rule="evenodd">
        <path d="M30.6542969,25.4221425 C28.8730469,22.4013906 30.0646972,19.8835683 31.4975585,19.0229726 C32.5627984,18.3831753 35.3139238,18.8179376 36.9499138,19.8825091 C36.9830506,19.5347899 37,19.1823499 37,18.8259511 C37,12.7508189 32.0751322,7.82595111 26,7.82595111 C23.9422136,7.82595111 22.0164007,8.39099697 20.3692528,9.37439717 C21.4760013,10.3224516 21.2053328,12.6372249 20.4194336,14.0537341 C19.3234863,16.0290757 16.5014648,17.1804431 18.9489746,20.5837634 C21.1677027,23.6689574 22.5261224,26.0142227 22.4906053,29.2542732 C23.5927372,29.6250232 24.772904,29.8259511 26,29.8259511 C27.7728868,29.8259511 29.4478138,29.406535 30.9309713,28.6615123 C31.2894493,27.7644856 31.3761594,26.6463208 30.6542969,25.4221425 Z M43.2366089,33.2341329 C44.0209888,34.0185127 44.0291346,35.2820979 43.2426407,36.0685918 C42.4615921,36.8496404 41.1906519,36.8450301 40.4081818,36.06256 L39.3685609,35.0229391 C36.0417569,37.7753891 32.0654299,39.3448344 27.9979107,39.731275 C27.9992985,39.7620151 28,41.8259511 28,41.8259511 L35.9950534,41.8259511 C37.1023548,41.8259511 38,42.7136808 38,43.8259511 C38,44.9305206 37.1029738,45.8259511 35.9950534,45.8259511 L16.0049466,45.8259511 C14.8976452,45.8259511 14,44.9382215 14,43.8259511 C14,42.7213816 14.8970262,41.8259511 16.0049466,41.8259511 L24,41.8259511 L24,39.8240525 C19.311684,39.2856586 14.7425285,37.2669644 11.1507576,33.6751935 C3.42673904,25.951175 2.97749051,13.7071938 9.803012,5.45739023 L8.76339107,4.41776931 C7.97901124,3.63338947 7.9708654,2.36980433 8.75735931,1.58331042 C9.5384079,0.802261836 10.8093481,0.806872072 11.5918182,1.58934218 L16.9017545,6.89927846 C19.4253522,4.97122268 22.5789299,3.82595111 26,3.82595111 C34.2842712,3.82595111 41,10.5416799 41,18.8259511 C41,22.2470212 39.8547284,25.4005989 37.9266726,27.9241966 L43.2366089,33.2341329 Z M26,33.8259511 C17.7157288,33.8259511 11,27.1102224 11,18.8259511 C11,15.404881 12.1452716,12.2513033 14.0733274,9.72770559 L12.6472828,8.30166105 C7.37475213,14.9740593 7.81871943,24.6863011 13.9791847,30.8467664 C20.13965,37.0072317 29.8518918,37.451199 36.5242901,32.1786683 L35.0982455,30.7526237 C32.5746478,32.6806795 29.4210701,33.8259511 26,33.8259511 Z" id="Path" fill="#000000"></path>
    </g>
</svg>