<?xml version="1.0" encoding="UTF-8"?>
<svg width="48px" height="48px" viewBox="0 0 48 48" version="1.1" xmlns="http://www.w3.org/2000/svg" xmlns:xlink="http://www.w3.org/1999/xlink">
    <!-- Generator: Sketch 43.2 (39069) - http://www.bohemiancoding.com/sketch -->
    <title>theicons.co/svg/home-09</title>
    <desc>Created with Sketch.</desc>
    <defs></defs>
    <g id="The-Icons" stroke="none" stroke-width="1" fill="none" fill-rule="evenodd">
        <path d="M18,20 L16,20 L16,32 L32,32 L32,20 L30,20 C30,21.1045695 29.0980496,22 27.9914698,22 L20.0085302,22 C18.8992496,22 18,21.1122704 18,20 Z M40,8 L8,8 L8,16 L40,16 L40,8 Z M36,20 L36,34.0092049 C36,35.1086907 35.1029738,36 33.9950534,36 L14.0049466,36 C12.8976452,36 12,35.1017876 12,34.0092049 L12,20 L8,20 L8,40 L40,40 L40,20 L36,20 Z M4,5.99729162 C4,4.89421792 4.89153983,4 5.99729162,4 L42.0027084,4 C43.1057821,4 44,4.89153983 44,5.99729162 L44,42.0027084 C44,43.1057821 43.1084602,44 42.0027084,44 L5.99729162,44 C4.89421792,44 4,43.1084602 4,42.0027084 L4,5.99729162 Z M16,14 C14.8954305,14 14,13.1045695 14,12 C14,10.8954305 14.8954305,10 16,10 C17.1045695,10 18,10.8954305 18,12 C18,13.1045695 17.1045695,14 16,14 Z M24,14 C22.8954305,14 22,13.1045695 22,12 C22,10.8954305 22.8954305,10 24,10 C25.1045695,10 26,10.8954305 26,12 C26,13.1045695 25.1045695,14 24,14 Z M32,14 C30.8954305,14 30,13.1045695 30,12 C30,10.8954305 30.8954305,10 32,10 C33.1045695,10 34,10.8954305 34,12 C34,13.1045695 33.1045695,14 32,14 Z" id="Rectangle-610" fill="#000000"></path>
    </g>
</svg>