<?xml version="1.0" encoding="UTF-8"?>
<svg width="48px" height="48px" viewBox="0 0 48 48" version="1.1" xmlns="http://www.w3.org/2000/svg" xmlns:xlink="http://www.w3.org/1999/xlink">
    <!-- Generator: Sketch 43.2 (39069) - http://www.bohemiancoding.com/sketch -->
    <title>theicons.co/svg/home-12</title>
    <desc>Created with Sketch.</desc>
    <defs></defs>
    <g id="The-Icons" stroke="none" stroke-width="1" fill="none" fill-rule="evenodd">
        <path d="M31,20 C31,18.3431458 32.3431458,17 34,17 C35.6568542,17 37,18.3431458 37,20 L38.9946779,20 C41.759041,20 44,22.2441952 44,25 C44,27.7614237 41.7637156,30 38.9946779,30 L38.8367832,30 C37.493429,33.3189397 35.0690708,36.084458 32,37.8597527 L32,42.0081158 C32,43.1082031 31.1054862,44 30.0059397,44 L17.9940603,44 C16.8927712,44 16,43.1066027 16,42.0081158 L15.9999955,37.8615129 C12.9299916,36.0869063 10.5048238,33.3214657 9.1616999,30 L9.00532213,30 C6.24095905,30 4,27.7558048 4,25 C4,22.2385763 6.23628439,20 9.00532213,20 L11,20 C11,18.3431458 12.3431458,17 14,17 C15.6568542,17 17,18.3431458 17,20 L22,20 L22,10.9921405 C22,7.12655026 25.1334282,4 29,4 C32.8627928,4 36,7.14055561 36,11.009222 L36,12 C36,13.1045695 35.1045695,14 34,14 C32.8954305,14 32,13.1045695 32,12 L32,11.009222 C32,9.34873997 30.652698,8 29,8 C27.3406019,8 26,9.33765928 26,10.9921405 L26,20 L31,20 Z M13.602246,30 C14.6423295,31.8027431 16.1486618,33.3272527 18.001805,34.3984566 L18.2630332,34.5494588 C19.2331561,35.1102355 19.999994,36.4517428 19.9999952,37.5597772 L19.9999979,40.0235596 L28.03125,40 L28,37.8597527 L28,37.5581254 C28,36.4511773 28.7772605,35.1029394 29.7360599,34.5483248 L29.9971528,34.3972965 C31.8492349,33.3259653 33.3551916,31.8016067 34.3954875,30 L13.602246,30 Z M8,25 C8,25.5483486 8.45178147,26 9.00532213,26 L38.9946779,26 C39.5533368,26 40,25.5535237 40,25 C40,24.4516514 39.5482185,24 38.9946779,24 L9.00532213,24 C8.4466632,24 8,24.4464763 8,25 Z" id="Combined-Shape" fill="#000000"></path>
    </g>
</svg>