<?xml version="1.0" encoding="UTF-8"?>
<svg width="48px" height="48px" viewBox="0 0 48 48" version="1.1" xmlns="http://www.w3.org/2000/svg" xmlns:xlink="http://www.w3.org/1999/xlink">
    <!-- Generator: Sketch 43.2 (39069) - http://www.bohemiancoding.com/sketch -->
    <title>theicons.co/svg/home-20</title>
    <desc>Created with Sketch.</desc>
    <defs></defs>
    <g id="The-Icons" stroke="none" stroke-width="1" fill="none" fill-rule="evenodd">
        <path d="M38,11 L43.9914698,11 C45.0980496,11 46,11.8954305 46,13 C46,14.1122704 45.1007504,15 43.9914698,15 L38,15 L38,16.002848 C38,17.6583772 36.6581293,19 35.002848,19 L30,19 L29.9847412,24.0198186 C29.9847412,27.3376262 27.2994127,30.0281982 23.9834875,30.0281982 L19.6867342,30.0281982 L19.2210693,31.9999997 C22.5318885,31.9999997 25,34.6873174 25,38 C25,41.3104209 22.3124934,44 18.9999798,44 L12.0000202,44 C8.68892393,44 6,41.3127516 6,38 L6,20.4862428 C3.58809156,18.871963 2,16.1215707 2,13 C2,8.02834436 6.02684078,4 10.9942006,4 L28.0087557,4 C29.1001025,4 30,4.8932319 30,5.99508929 L30,7 L35.002848,7 C36.6583772,7 38,8.34187067 38,9.99715203 L38,11 Z M25.9847412,24.0198187 L25.9847412,22 L21.5826909,22 L20.6313829,26.0281982 L23.9834875,26.0281982 C25.0885251,26.0281982 25.9847412,25.1302321 25.9847412,24.0198187 Z M17.4747942,22 C17.4747942,22 10.326458,21.9815628 10,21.9456443 L10,38 C10,39.1030542 10.897505,40 12.0000202,40 L18.9999798,40 C20.1026638,40 21,39.1019718 21,38 C21,36.8968631 20.1027295,36 19.0006427,36 L14.1806766,36 L17.4747942,22 Z M26.0087557,17.9950893 L26.0087557,7.99508929 L10.9942006,8 C8.23610476,8 6,10.2373589 6,13 C6,15.7620935 8.23642592,18 10.9942006,18 L26.0087557,17.9950893 Z" id="Shape" fill="#000000"></path>
    </g>
</svg>