<?xml version="1.0" encoding="UTF-8"?>
<svg width="48px" height="48px" viewBox="0 0 48 48" version="1.1" xmlns="http://www.w3.org/2000/svg" xmlns:xlink="http://www.w3.org/1999/xlink">
    <!-- Generator: Sketch 43.2 (39069) - http://www.bohemiancoding.com/sketch -->
    <title>theicons.co/svg/home-08</title>
    <desc>Created with Sketch.</desc>
    <defs></defs>
    <g id="The-Icons" stroke="none" stroke-width="1" fill="none" fill-rule="evenodd">
        <path d="M36,41.9950534 C36,43.1023548 35.1107383,44 33.9982567,44 L6.00174332,44 C4.89621101,44 4,43.1029738 4,41.9950534 L4,32 C4,29.5470004 4.73623015,27.2659074 6,25.3655158 L6,9.99922997 C6,7.79051625 7.79412025,6 9.99683887,6 L12,6 C12,4.8954305 12.8945138,4 13.9940603,4 L26.0059397,4 C27.1072288,4 28,4.88772964 28,6 L30.0031611,6 C32.2105543,6 34,7.79246765 34,9.99922997 L34,25.3654371 C34.8942472,26.7101097 35.524385,28.245457 35.8164096,29.8975945 C40.1668773,29.0290488 40.7541565,24.9466934 40.7541565,24.9466934 C40.8899321,24.4238491 41.4437166,24 41.9998075,24 L45.0001925,24 C45.5523709,24 45.9873256,24.4497448 45.9519583,25.006389 C45.9519583,25.006389 46.0551517,36.5684478 36,37.8741135 L36,41.9950534 Z M30,9.99922997 C30,10.0000958 9.99683887,10 9.99683887,10 C9.99986518,10 10.0002827,16.8701827 10.0002109,21.6068187 C10.6325693,21.2410215 11.301426,20.9312174 12,20.6841906 L12,19.9979131 C12,18.8944962 12.8945138,18 13.9940603,18 L17,18 C17,16.3431458 18.3431458,15 20,15 C21.6568542,15 23,16.3431458 23,18 L26.0059397,18 C27.1072288,18 28,18.8982606 28,19.9979131 L28,20.684238 C28.6986328,20.9312931 29.3675634,21.2411387 30,21.6069939 L30,9.99922997 Z M8,32 L8,40 L32,40 L32,32 C32,27.5907123 28.4220153,24 24.0083475,24 L15.9916525,24 C11.5800761,24 8,27.581722 8,32 Z" id="Rectangle-611" fill="#000000"></path>
    </g>
</svg>