<?xml version="1.0" encoding="UTF-8"?>
<svg width="48px" height="48px" viewBox="0 0 48 48" version="1.1" xmlns="http://www.w3.org/2000/svg" xmlns:xlink="http://www.w3.org/1999/xlink">
    <!-- Generator: Sketch 43.2 (39069) - http://www.bohemiancoding.com/sketch -->
    <title>theicons.co/svg/keyboard-02</title>
    <desc>Created with Sketch.</desc>
    <defs></defs>
    <g id="The-Icons" stroke="none" stroke-width="1" fill="none" fill-rule="evenodd">
        <path d="M14.8672228,12 L6.0168457,11.9892578 C4.9122762,11.9892578 4,11.1045695 4,10 C4,8.8954305 4.9122762,8 6.0168457,8 L15.0214481,8 C16.2885502,8 17.6232245,8.76929183 18.2497252,9.86566804 L33.1842045,36.0010068 L42.0168457,36 C43.1214152,36 44,36.8954305 44,38 C44,39.1045695 43.1214152,40 42.0168457,40 L33.0122433,40 C31.7517369,40 30.4126878,39.2131104 29.7839662,38.1128476 L14.8672228,12 Z M28,10 C28,8.8954305 28.8945138,8 29.9940603,8 L42.0059397,8 C43.1072288,8 44,8.88772964 44,10 C44,11.1045695 43.1054862,12 42.0059397,12 L29.9940603,12 C28.8927712,12 28,11.1122704 28,10 Z" id="Combined-Shape" fill="#000000" fill-rule="nonzero"></path>
    </g>
</svg>