<?xml version="1.0" encoding="UTF-8"?>
<svg width="48px" height="48px" viewBox="0 0 48 48" version="1.1" xmlns="http://www.w3.org/2000/svg" xmlns:xlink="http://www.w3.org/1999/xlink">
    <!-- Generator: Sketch 43.2 (39069) - http://www.bohemiancoding.com/sketch -->
    <title>theicons.co/svg/keyboard-10</title>
    <desc>Created with Sketch.</desc>
    <defs></defs>
    <g id="The-Icons" stroke="none" stroke-width="1" fill="none" fill-rule="evenodd">
        <path d="M24,34 C18.4771525,34 14,29.5228475 14,24 C14,18.4771525 18.4771525,14 24,14 C29.5228475,14 34,18.4771525 34,24 C34,29.5228475 29.5228475,34 24,34 Z M24,12 C22.8954305,12 22,11.1045695 22,10 C22,8.8954305 22.8954305,8 24,8 C25.1045695,8 26,8.8954305 26,10 C26,11.1045695 25.1045695,12 24,12 Z M24,40 C22.8954305,40 22,39.1045695 22,38 C22,36.8954305 22.8954305,36 24,36 C25.1045695,36 26,36.8954305 26,38 C26,39.1045695 25.1045695,40 24,40 Z M32.5857864,15.4142136 C31.8047379,14.633165 31.8047379,13.366835 32.5857864,12.5857864 C33.366835,11.8047379 34.633165,11.8047379 35.4142136,12.5857864 C36.1952621,13.366835 36.1952621,14.633165 35.4142136,15.4142136 C34.633165,16.1952621 33.366835,16.1952621 32.5857864,15.4142136 Z M12.5857864,35.4142136 C11.8047379,34.633165 11.8047379,33.366835 12.5857864,32.5857864 C13.366835,31.8047379 14.633165,31.8047379 15.4142136,32.5857864 C16.1952621,33.366835 16.1952621,34.633165 15.4142136,35.4142136 C14.633165,36.1952621 13.366835,36.1952621 12.5857864,35.4142136 Z M36,24 C36,22.8954305 36.8954305,22 38,22 C39.1045695,22 40,22.8954305 40,24 C40,25.1045695 39.1045695,26 38,26 C36.8954305,26 36,25.1045695 36,24 Z M8,24 C8,22.8954305 8.8954305,22 10,22 C11.1045695,22 12,22.8954305 12,24 C12,25.1045695 11.1045695,26 10,26 C8.8954305,26 8,25.1045695 8,24 Z M15.4142136,15.4142136 C14.633165,16.1952621 13.366835,16.1952621 12.5857864,15.4142136 C11.8047379,14.633165 11.8047379,13.366835 12.5857864,12.5857864 C13.366835,11.8047379 14.633165,11.8047379 15.4142136,12.5857864 C16.1952621,13.366835 16.1952621,14.633165 15.4142136,15.4142136 Z M35.4142136,35.4142136 C34.633165,36.1952621 33.366835,36.1952621 32.5857864,35.4142136 C31.8047379,34.633165 31.8047379,33.366835 32.5857864,32.5857864 C33.366835,31.8047379 34.633165,31.8047379 35.4142136,32.5857864 C36.1952621,33.366835 36.1952621,34.633165 35.4142136,35.4142136 Z M24,30 C27.3137085,30 30,27.3137085 30,24 C30,20.6862915 27.3137085,18 24,18 C20.6862915,18 18,20.6862915 18,24 C18,27.3137085 20.6862915,30 24,30 Z" id="Combined-Shape" fill="#000000"></path>
    </g>
</svg>