<?xml version="1.0" encoding="UTF-8"?>
<svg width="48px" height="48px" viewBox="0 0 48 48" version="1.1" xmlns="http://www.w3.org/2000/svg" xmlns:xlink="http://www.w3.org/1999/xlink">
    <!-- Generator: Sketch 43.2 (39069) - http://www.bohemiancoding.com/sketch -->
    <title>theicons.co/svg/keyboard-03</title>
    <desc>Created with Sketch.</desc>
    <defs></defs>
    <g id="The-Icons" stroke="none" stroke-width="1" fill="none" fill-rule="evenodd">
        <path d="M19.9991336,17.9259563 C21.105728,17.9259563 22.0028,18.8230994 22.0028,19.9320006 L22.0028001,31.9272517 L26,31.9291248 L26,19.9322689 C26,18.824213 26.8882357,17.9280941 28.0072045,17.9307874 L30.6067913,17.9370442 L24.0047381,9.53732733 L17.4041291,17.9259564 L19.9991336,17.9259563 Z M30,21.9263172 L30,33.9355221 C30,35.0350079 29.0980496,35.9263172 27.9914698,35.9263172 L20.0085302,35.9263172 C18.8992496,35.9263172 18,35.0281048 18,33.9355221 L18,21.9263175 L11.1591617,21.9263177 C10.0587146,21.9263177 9.72095036,21.221834 10.4055984,20.3517236 L22.7586412,4.65240055 C23.4429068,3.78277624 24.5520891,3.78229012 25.2369236,4.65240048 L37.593332,20.3517229 C38.277784,21.2213472 37.944797,21.9263169 36.8401063,21.926317 L30,21.9263172 Z M10,41.9263172 C10,40.8217477 10.8998975,39.9263172 11.9912443,39.9263172 L36.0087557,39.9263172 C37.1084896,39.9263172 38,40.8140469 38,41.9263172 C38,43.0308867 37.1001025,43.9263172 36.0087557,43.9263172 L11.9912443,43.9263172 C10.8915104,43.9263172 10,43.0385876 10,41.9263172 Z" id="Combined-Shape" fill="#000000" fill-rule="nonzero"></path>
    </g>
</svg>