<?xml version="1.0" encoding="UTF-8"?>
<svg width="48px" height="48px" viewBox="0 0 48 48" version="1.1" xmlns="http://www.w3.org/2000/svg" xmlns:xlink="http://www.w3.org/1999/xlink">
    <!-- Generator: Sketch 43.2 (39069) - http://www.bohemiancoding.com/sketch -->
    <title>theicons.co/svg/keyboard-09</title>
    <desc>Created with Sketch.</desc>
    <defs></defs>
    <g id="The-Icons" stroke="none" stroke-width="1" fill="none" fill-rule="evenodd">
        <path d="M15.241373,9.56327939 L22,18.0745182 L22,11.9961861 C22,9.78951311 23.7923623,8 26.0033533,8 L28.0018986,8 C29.1054196,8 30.5623256,8.7081449 31.241373,9.56327939 L41.4639492,22.4367206 C42.1495406,23.300096 42.1429967,24.7081449 41.4639492,25.5632794 L31.241373,38.4367206 C30.5557816,39.300096 29.1132936,40 28.0018986,40 L26.0033533,40 C23.8007675,40 22,38.2108465 22,36.0038139 L22,29.9254818 L15.241373,38.4367206 C14.5557816,39.300096 13.1132936,40 12.0018986,40 L10.0033533,40 C7.8007675,40 6,38.2072328 6,35.9957423 L6,12.0042577 C6,9.78902751 7.79236233,8 10.0033533,8 L12.0018986,8 C13.1054196,8 14.5623256,8.7081449 15.241373,9.56327939 Z M26,12 L26,36 L28,36 L37.583252,24 L28,12 L26,12 Z M10,12 L10,36 L12,36 L21.583252,24 L12,12 L10,12 Z" id="Combined-Shape" fill="#000000" fill-rule="nonzero"></path>
    </g>
</svg>