<?xml version="1.0" encoding="UTF-8"?>
<svg width="48px" height="48px" viewBox="0 0 48 48" version="1.1" xmlns="http://www.w3.org/2000/svg" xmlns:xlink="http://www.w3.org/1999/xlink">
    <!-- Generator: Sketch 43.2 (39069) - http://www.bohemiancoding.com/sketch -->
    <title>theicons.co/svg/keyboard-13</title>
    <desc>Created with Sketch.</desc>
    <defs></defs>
    <g id="The-Icons" stroke="none" stroke-width="1" fill="none" fill-rule="evenodd">
        <path d="M22,19.8335122 C24.209139,19.8335122 26,21.6243732 26,23.8335122 C26,26.0426512 24.209139,27.8335122 22,27.8335122 L22,35.8422679 C22,36.9420017 21.2900534,37.3010522 20.400308,36.6337432 L14,31.8335122 L10,31.8335122 C7.790861,31.8335122 6,30.0446818 6,27.8373095 L6,19.8297149 C6,17.6226731 7.79535615,15.8335122 10,15.8335122 L14,15.8335122 L20.400308,11.0332812 C21.2837935,10.370667 22,10.7334097 22,11.8247565 L22,19.8335122 Z M15.3333333,19.8335122 L10,19.8335122 C10.0013989,19.8335122 10,27.8373095 10,27.8373095 C10,27.8345265 15.3333333,27.8335122 15.3333333,27.8335122 L18,29.8923501 L18,17.8134926 L15.3333333,19.8335122 Z M35.3936718,39.1248326 C34.5895012,39.8820534 33.3237433,39.8439931 32.5665225,39.0398224 C31.8093017,38.2356518 31.8473621,36.9698939 32.6515327,36.2126731 C36.0434612,33.0187753 38,28.5850009 38,23.8335122 C38,19.0828149 36.044118,14.6497142 32.6531815,11.4559039 C31.849111,10.6985767 31.8112182,9.43281385 32.5685454,8.6287434 C33.3258726,7.82467295 34.5916355,7.78678007 35.3957059,8.54410727 C39.5810271,12.486122 42,17.9688405 42,23.8335122 C42,29.699162 39.580216,35.1827112 35.3936718,39.1248326 Z M29.8634956,33.343483 C29.0556045,34.0967331 27.7900495,34.0524379 27.0367994,33.2445467 C26.2835493,32.4366556 26.3278446,31.1711006 27.1357357,30.4178505 C28.9518019,28.7246123 30,26.3654116 30,23.8335122 C30,21.3402615 28.9838387,19.0140129 27.2162463,17.3251632 C26.4176116,16.562106 26.3887703,15.2961045 27.1518275,14.4974698 C27.9148847,13.698835 29.1808861,13.6699937 29.9795209,14.4330509 C32.5290494,16.8690031 34,20.2363787 34,23.8335122 C34,27.4865283 32.482791,30.9013413 29.8634956,33.343483 Z" id="Combined-Shape" fill="#000000"></path>
    </g>
</svg>