<?xml version="1.0" encoding="UTF-8"?>
<svg width="48px" height="48px" viewBox="0 0 48 48" version="1.1" xmlns="http://www.w3.org/2000/svg" xmlns:xlink="http://www.w3.org/1999/xlink">
    <!-- Generator: Sketch 43.2 (39069) - http://www.bohemiancoding.com/sketch -->
    <title>theicons.co/svg/keyboard-11</title>
    <desc>Created with Sketch.</desc>
    <defs></defs>
    <g id="The-Icons" stroke="none" stroke-width="1" fill="none" fill-rule="evenodd">
        <path d="M34,24 C34,29.5228475 29.5228475,34 24,34 C18.4771525,34 14,29.5228475 14,24 C14,18.4771525 18.4771525,14 24,14 C29.5228475,14 34,18.4771525 34,24 Z M22,5.99810135 C22,4.89458045 22.8877296,4 24,4 C25.1045695,4 26,4.88670635 26,5.99810135 L26,10.0018986 C26,11.1054196 25.1122704,12 24,12 C22.8954305,12 22,11.1132936 22,10.0018986 L22,5.99810135 Z M22,37.9981014 C22,36.8945804 22.8877296,36 24,36 C25.1045695,36 26,36.8867064 26,37.9981014 L26,42.0018986 C26,43.1054196 25.1122704,44 24,44 C22.8954305,44 22,43.1132936 22,42.0018986 L22,37.9981014 Z M35.5013753,9.60119701 C36.3007069,8.801854 37.5917172,8.79689157 38.3973865,9.6025723 C39.1974777,10.4026749 39.203797,11.693578 38.3987618,12.4986247 L35.4986247,15.398803 C34.6992931,16.198146 33.4082828,16.2031084 32.6026135,15.3974277 C31.8025223,14.5973251 31.796203,13.306422 32.6012382,12.5013753 L35.5013753,9.60119701 Z M12.5013753,32.601197 C13.3007069,31.801854 14.5917172,31.7968916 15.3973865,32.6025723 C16.1974777,33.4026749 16.203797,34.693578 15.3987618,35.4986247 L12.4986247,38.398803 C11.6992931,39.198146 10.4082828,39.2031084 9.6026135,38.3974277 C8.80252231,37.5973251 8.796203,36.306422 9.60123822,35.5013753 L12.5013753,32.601197 Z M42.0018986,22 C43.1054196,22 44,22.8877296 44,24 C44,25.1045695 43.1132936,26 42.0018986,26 L37.9981014,26 C36.8945804,26 36,25.1122704 36,24 C36,22.8954305 36.8867064,22 37.9981014,22 L42.0018986,22 Z M10.0018986,22 C11.1054196,22 12,22.8877296 12,24 C12,25.1045695 11.1132936,26 10.0018986,26 L5.99810135,26 C4.89458045,26 4,25.1122704 4,24 C4,22.8954305 4.88670635,22 5.99810135,22 L10.0018986,22 Z M9.60119701,12.4986247 C8.801854,11.6992931 8.79689157,10.4082828 9.6025723,9.6026135 C10.4026749,8.80252231 11.693578,8.796203 12.4986247,9.60123822 L15.398803,12.5013753 C16.198146,13.3007069 16.2031084,14.5917172 15.3974277,15.3973865 C14.5973251,16.1974777 13.306422,16.203797 12.5013753,15.3987618 L9.60119701,12.4986247 Z M32.601197,35.4986247 C31.801854,34.6992931 31.7968916,33.4082828 32.6025723,32.6026135 C33.4026749,31.8025223 34.693578,31.796203 35.4986247,32.6012382 L38.398803,35.5013753 C39.198146,36.3007069 39.2031084,37.5917172 38.3974277,38.3973865 C37.5973251,39.1974777 36.306422,39.203797 35.5013753,38.3987618 L32.601197,35.4986247 Z M18,24 C18,27.3137085 20.6862915,30 24,30 C27.3137085,30 30,27.3137085 30,24 C30,20.6862915 27.3137085,18 24,18 C20.6862915,18 18,20.6862915 18,24 Z" id="Combined-Shape" fill="#000000" fill-rule="nonzero"></path>
    </g>
</svg>