<?xml version="1.0" encoding="UTF-8"?>
<svg width="48px" height="48px" viewBox="0 0 48 48" version="1.1" xmlns="http://www.w3.org/2000/svg" xmlns:xlink="http://www.w3.org/1999/xlink">
    <!-- Generator: Sketch 43.2 (39069) - http://www.bohemiancoding.com/sketch -->
    <title>theicons.co/svg/keyboard-04</title>
    <desc>Created with Sketch.</desc>
    <defs></defs>
    <g id="The-Icons" stroke="none" stroke-width="1" fill="none" fill-rule="evenodd">
        <path d="M25.4184112,32.6138485 C26.1971346,33.3972154 26.1933703,34.6635398 25.4100034,35.4422632 C24.6266365,36.2209865 23.3603122,36.2172222 22.5815888,35.4338553 L18.5815888,31.4100034 C17.8028556,30.6266267 17.8066312,29.3602829 18.5900218,28.5815637 L22.5900218,24.6054156 C23.3734025,23.8267062 24.6397268,23.830493 25.4184363,24.6138737 C26.1971457,25.3972545 26.1933589,26.6635788 25.4099782,27.4422882 L24.8489208,28 L32,28 L32,16 C32,14.8954305 32.8954305,14 34,14 C35.1045695,14 36,14.8954305 36,16 L36,30 C36,31.1045695 35.1045695,32 34,32 L24.8123632,32 L25.4184112,32.6138485 Z M4,19.9968389 C4,17.7894457 5.79246765,16 7.99922997,16 L23.0081969,16 C23.5559546,16 24,15.544239 24,14.9975267 L24,7.99582624 C24,5.78899235 25.7924676,4 27.99923,4 L40.00077,4 C42.2094838,4 44,5.79642476 44,8.00002553 L44,39.9999745 C44,42.2091276 42.2035752,44 39.9999745,44 L8.00002553,44 C5.79087243,44 4,42.2058797 4,40.0031611 L4,19.9968389 Z M8,40.0031611 L39.9999745,40 L40,8.00002553 L27.99923,8 L28,14.9975267 C28,17.7420414 25.776704,20 23.0081969,20 L7.99922997,20 L8,40.0031611 Z" id="Combined-Shape" fill="#000000" fill-rule="nonzero"></path>
    </g>
</svg>