<?xml version="1.0" encoding="UTF-8"?>
<svg width="48px" height="48px" viewBox="0 0 48 48" version="1.1" xmlns="http://www.w3.org/2000/svg" xmlns:xlink="http://www.w3.org/1999/xlink">
    <!-- Generator: Sketch 43.2 (39069) - http://www.bohemiancoding.com/sketch -->
    <title>theicons.co/svg/keyboard-01</title>
    <desc>Created with Sketch.</desc>
    <defs></defs>
    <g id="The-Icons" stroke="none" stroke-width="1" fill="none" fill-rule="evenodd">
        <path d="M28,16 L28,12 C28,7.59071231 31.581722,4 36,4 C40.4092877,4 44,7.581722 44,12 C44,16.4092877 40.418278,20 36,20 L32,20 L32,28 L36,28 C40.418278,28 44,31.5907123 44,36 C44,40.418278 40.4092877,44 36,44 C31.581722,44 28,40.4092877 28,36 L28,32 L20,32 L20,36 C20,40.4092877 16.418278,44 12,44 C7.59071231,44 4,40.418278 4,36 C4,31.5907123 7.581722,28 12,28 L16,28 L16,20 L12,20 C7.581722,20 4,16.4092877 4,12 C4,7.581722 7.59071231,4 12,4 C16.418278,4 20,7.59071231 20,12 L20,16 L28,16 Z M20,20 L20,28 L28,28 L28,20 L20,20 Z M12,16 L16,16 L16,12 C16,9.7960518 14.2053413,8 12,8 C9.7960518,8 8,9.7946587 8,12 C8,14.2039482 9.7946587,16 12,16 Z M36,16 C38.2053413,16 40,14.2039482 40,12 C40,9.7946587 38.2039482,8 36,8 C33.7946587,8 32,9.7960518 32,12 L32,16 L36,16 Z M36,32 L32,32 L32,36 C32,38.2039482 33.7946587,40 36,40 C38.2039482,40 40,38.2053413 40,36 C40,33.7960518 38.2053413,32 36,32 Z M12,32 C9.7946587,32 8,33.7960518 8,36 C8,38.2053413 9.7960518,40 12,40 C14.2053413,40 16,38.2039482 16,36 L16,32 L12,32 Z" id="Combined-Shape" fill="#000000"></path>
    </g>
</svg>