<?xml version="1.0" encoding="UTF-8"?>
<svg width="48px" height="48px" viewBox="0 0 48 48" version="1.1" xmlns="http://www.w3.org/2000/svg" xmlns:xlink="http://www.w3.org/1999/xlink">
    <!-- Generator: Sketch 43.2 (39069) - http://www.bohemiancoding.com/sketch -->
    <title>theicons.co/svg/keyboard-14</title>
    <desc>Created with Sketch.</desc>
    <defs></defs>
    <g id="The-Icons" stroke="none" stroke-width="1" fill="none" fill-rule="evenodd">
        <path d="M42.4142136,19.5463809 C43.1952621,18.7653323 43.1952621,17.4990024 42.4142136,16.7179538 C41.633165,15.9369052 40.366835,15.9369052 39.5857864,16.7179538 L35,21.3037402 L30.4142136,16.7179538 C29.633165,15.9369052 28.366835,15.9369052 27.5857864,16.7179538 C26.8047379,17.4990024 26.8047379,18.7653323 27.5857864,19.5463809 L32.1715729,24.1321673 L27.5857864,28.7179538 C26.8047379,29.4990024 26.8047379,30.7653323 27.5857864,31.5463809 C28.366835,32.3274295 29.633165,32.3274295 30.4142136,31.5463809 L35,26.9605945 L39.5857864,31.5463809 C40.366835,32.3274295 41.633165,32.3274295 42.4142136,31.5463809 C43.1952621,30.7653323 43.1952621,29.4990024 42.4142136,28.7179538 L37.8284271,24.1321673 L42.4142136,19.5463809 Z M22,20.1321673 C24.209139,20.1321673 26,21.9230283 26,24.1321673 C26,26.3413063 24.209139,28.1321673 22,28.1321673 L22,36.140923 C22,37.2406569 21.2900534,37.5997074 20.400308,36.9323983 L14,32.1321673 L10,32.1321673 C7.790861,32.1321673 6,30.343337 6,28.1359646 L6,20.12837 C6,17.9213282 7.79535615,16.1321673 10,16.1321673 L14,16.1321673 L20.400308,11.3319363 C21.2837935,10.6693222 22,11.0320649 22,12.1234116 L22,20.1321673 Z M15.3333333,20.1321673 L10,20.1321673 C10.0013989,20.1321673 10,28.1359646 10,28.1359646 C10,28.1331817 15.3333333,28.1321673 15.3333333,28.1321673 L18,30.1910052 L18,18.1121478 L15.3333333,20.1321673 Z" id="Combined-Shape" fill="#000000"></path>
    </g>
</svg>