<?xml version="1.0" encoding="UTF-8"?>
<svg width="48px" height="48px" viewBox="0 0 48 48" version="1.1" xmlns="http://www.w3.org/2000/svg" xmlns:xlink="http://www.w3.org/1999/xlink">
    <!-- Generator: Sketch 43.2 (39069) - http://www.bohemiancoding.com/sketch -->
    <title>theicons.co/svg/keyboard-12</title>
    <desc>Created with Sketch.</desc>
    <defs></defs>
    <g id="The-Icons" stroke="none" stroke-width="1" fill="none" fill-rule="evenodd">
        <path d="M22,20.1321673 C24.209139,20.1321673 26,21.9230283 26,24.1321673 C26,26.3413063 24.209139,28.1321673 22,28.1321673 L22,36.140923 C22,37.2406569 21.2900534,37.5997074 20.400308,36.9323983 L14,32.1321673 L10,32.1321673 C7.790861,32.1321673 6,30.343337 6,28.1359646 L6,20.12837 C6,17.9213282 7.79535615,16.1321673 10,16.1321673 L14,16.1321673 L20.400308,11.3319363 C21.2837935,10.6693222 22,11.0320649 22,12.1234116 L22,20.1321673 Z M15.3333333,20.1321673 L10,20.1321673 C10.0013989,20.1321673 10,28.1359646 10,28.1359646 C10,28.1331817 15.3333333,28.1321673 15.3333333,28.1321673 L18,30.1910052 L18,18.1121478 L15.3333333,20.1321673 Z M29.8634956,33.6421382 C29.0556045,34.3953883 27.7900495,34.351093 27.0367994,33.5432019 C26.2835493,32.7353108 26.3278446,31.4697558 27.1357357,30.7165057 C28.9518019,29.0232675 30,26.6640667 30,24.1321673 C30,21.6389167 28.9838387,19.3126681 27.2162463,17.6238184 C26.4176116,16.8607612 26.3887703,15.5947597 27.1518275,14.7961249 C27.9148847,13.9974902 29.1808861,13.9686489 29.9795209,14.7317061 C32.5290494,17.1676582 34,20.5350339 34,24.1321673 C34,27.7851835 32.482791,31.1999965 29.8634956,33.6421382 Z" id="Combined-Shape" fill="#000000"></path>
    </g>
</svg>