<?xml version="1.0" encoding="UTF-8"?>
<svg width="48px" height="48px" viewBox="0 0 48 48" version="1.1" xmlns="http://www.w3.org/2000/svg" xmlns:xlink="http://www.w3.org/1999/xlink">
    <!-- Generator: Sketch 43.2 (39069) - http://www.bohemiancoding.com/sketch -->
    <title>theicons.co/svg/keyboard-15</title>
    <desc>Created with Sketch.</desc>
    <defs></defs>
    <g id="The-Icons" stroke="none" stroke-width="1" fill="none" fill-rule="evenodd">
        <path d="M43.4142136,30.5897959 C44.1952621,31.3708445 44.1952621,32.6371745 43.4142136,33.4182231 C43.3890493,33.4433873 35.4142136,41.4182231 35.4142136,41.4182231 C34.1542838,42.6781528 32,41.7858192 32,40.0040095 L32,28.8324366 L27.4142136,33.4182231 C26.633165,34.1992717 25.366835,34.1992717 24.5857864,33.4182231 C23.8047379,32.6371745 23.8047379,31.3708445 24.5857864,30.5897959 L31.1715729,24.0040095 L24.5857864,17.4182231 C23.8047379,16.6371745 23.8047379,15.3708445 24.5857864,14.5897959 C25.366835,13.8087474 26.633165,13.8087474 27.4142136,14.5897959 L32,19.1755824 L32,8.00400951 C32,6.22219981 34.1542838,5.32986622 35.4142136,6.58979595 L43.4142136,14.5897959 C44.1952621,15.3708445 44.1952621,16.6371745 43.4142136,17.4182231 L36.8284271,24.0040095 L43.4142136,30.5897959 Z M36,12.8324366 L39.1715729,16.0040095 L36,19.1755824 L36,12.8324366 Z M39.1715729,32.0040095 L36,35.1755824 L36,28.8324366 L39.1715729,32.0040095 Z M20,11.9952538 C20,10.903907 19.2837935,10.5411644 18.400308,11.2037785 L12,16.0040095 L8,16.0040095 C5.79535615,16.0040095 4,17.7931704 4,20.0002122 L4,28.0078068 C4,30.2151791 5.790861,32.0040095 8,32.0040095 L12,32.0040095 L18.400308,36.8042405 C19.2900534,37.4715495 20,37.1124991 20,36.0127652 L20,28.0040095 C22.209139,28.0040095 24,26.2131485 24,24.0040095 C24,21.7948705 22.209139,20.0040095 20,20.0040095 L20,11.9952538 Z M13.3333333,20.0040095 L8,20.0040095 C8.00139887,20.0040095 8,28.0078068 8,28.0078068 C8,28.0050239 13.3333333,28.0040095 13.3333333,28.0040095 L16,30.0628474 L16,17.98399 L13.3333333,20.0040095 Z" id="Combined-Shape" fill="#000000"></path>
    </g>
</svg>