<?xml version="1.0" encoding="UTF-8"?>
<svg width="48px" height="48px" viewBox="0 0 48 48" version="1.1" xmlns="http://www.w3.org/2000/svg" xmlns:xlink="http://www.w3.org/1999/xlink">
    <!-- Generator: Sketch 43.2 (39069) - http://www.bohemiancoding.com/sketch -->
    <title>theicons.co/svg/keyboard-06</title>
    <desc>Created with Sketch.</desc>
    <defs></defs>
    <g id="The-Icons" stroke="none" stroke-width="1" fill="none" fill-rule="evenodd">
        <path d="M8,26 C8,20.6639906 10.6337427,15.7695039 14.9486873,12.804705 C15.8590688,12.1791818 17.1041656,12.410105 17.7296889,13.3204865 C18.3552121,14.230868 18.1242888,15.4759648 17.2139073,16.101488 C13.9736716,18.3278544 12,21.9956801 12,26 C12,32.627417 17.372583,38 24,38 C30.627417,38 36,32.627417 36,26 C36,22.0640738 34.0937708,18.4514924 30.9447841,16.2124145 C30.0445821,15.5723285 29.8337164,14.3236783 30.4738024,13.4234763 C31.1138885,12.5232743 32.3625386,12.3124087 33.2627406,12.9524947 C37.4560394,15.9341277 40,20.7553027 40,26 C40,34.836556 32.836556,42 24,42 C15.163444,42 8,34.836556 8,26 Z M22,7.99079514 C22,6.89130934 22.8877296,6 24,6 C25.1045695,6 26,6.89821238 26,7.99079514 L26,24.0092049 C26,25.1086907 25.1122704,26 24,26 C22.8954305,26 22,25.1017876 22,24.0092049 L22,7.99079514 Z" id="Combined-Shape" fill="#000000" fill-rule="nonzero"></path>
    </g>
</svg>