<?xml version="1.0" encoding="UTF-8"?>
<svg width="48px" height="48px" viewBox="0 0 48 48" version="1.1" xmlns="http://www.w3.org/2000/svg" xmlns:xlink="http://www.w3.org/1999/xlink">
    <!-- Generator: Sketch 43.2 (39069) - http://www.bohemiancoding.com/sketch -->
    <title>theicons.co/svg/keyboard-16</title>
    <desc>Created with Sketch.</desc>
    <defs></defs>
    <g id="The-Icons" stroke="none" stroke-width="1" fill="none" fill-rule="evenodd">
        <path d="M24,36 C17.372583,36 12,30.627417 12,24 C12,17.372583 17.372583,12 24,12 C30.627417,12 36,17.372583 36,24 C36,30.627417 30.627417,36 24,36 Z M22.1033676,16.2261681 C18.6005862,17.0777853 16,20.2351929 16,24 C16,28.418278 19.581722,32 24,32 C27.7648071,32 30.9222147,29.3994138 31.7738319,25.8966324 C30.6848622,26.595018 29.3897254,27 28,27 C24.1340068,27 21,23.8659932 21,20 C21,18.6102746 21.404982,17.3151378 22.1033676,16.2261681 L22.1033676,16.2261681 Z M22,5.99791312 C22,4.89449617 22.8877296,4 24,4 C25.1045695,4 26,4.89826062 26,5.99791312 L26,8.00208688 C26,9.10550383 25.1122704,10 24,10 C22.8954305,10 22,9.10173938 22,8.00208688 L22,5.99791312 Z M22,39.9979131 C22,38.8944962 22.8877296,38 24,38 C25.1045695,38 26,38.8982606 26,39.9979131 L26,42.0020869 C26,43.1055038 25.1122704,44 24,44 C22.8954305,44 22,43.1017394 22,42.0020869 L22,39.9979131 Z M42.0020869,22 C43.1055038,22 44,22.8877296 44,24 C44,25.1045695 43.1017394,26 42.0020869,26 L39.9979131,26 C38.8944962,26 38,25.1122704 38,24 C38,22.8954305 38.8982606,22 39.9979131,22 L42.0020869,22 Z M8.00208688,22 C9.10550383,22 10,22.8877296 10,24 C10,25.1045695 9.10173938,26 8.00208688,26 L5.99791312,26 C4.89449617,26 4,25.1122704 4,24 C4,22.8954305 4.89826062,22 5.99791312,22 L8.00208688,22 Z M35.3151841,9.85638873 C36.0954178,9.07615512 37.3556417,9.07137047 38.1421356,9.85786438 C38.9231842,10.638913 38.921183,11.9072441 38.1436113,12.6848159 L36.7264464,14.1019807 C35.9462128,14.8822143 34.6859888,14.886999 33.8994949,14.1005051 C33.1184464,13.3194565 33.1204476,12.0511253 33.8980193,11.2735536 L35.3151841,9.85638873 Z M11.2735536,33.8980193 C12.0537872,33.1177857 13.3140112,33.113001 14.1005051,33.8994949 C14.8815536,34.6805435 14.8795524,35.9488747 14.1019807,36.7264464 L12.6848159,38.1436113 C11.9045822,38.9238449 10.6443583,38.9286295 9.85786438,38.1421356 C9.07681579,37.361087 9.07881699,36.0927559 9.85638873,35.3151841 L11.2735536,33.8980193 Z M9.85638873,12.6848159 C9.07615512,11.9045822 9.07137047,10.6443583 9.85786438,9.85786438 C10.638913,9.07681579 11.9072441,9.07881699 12.6848159,9.85638873 L14.1019807,11.2735536 C14.8822143,12.0537872 14.886999,13.3140112 14.1005051,14.1005051 C13.3194565,14.8815536 12.0511253,14.8795524 11.2735536,14.1019807 L9.85638873,12.6848159 Z M33.8980193,36.7264464 C33.1177857,35.9462128 33.113001,34.6859888 33.8994949,33.8994949 C34.6805435,33.1184464 35.9488747,33.1204476 36.7264464,33.8980193 L38.1436113,35.3151841 C38.9238449,36.0954178 38.9286295,37.3556417 38.1421356,38.1421356 C37.361087,38.9231842 36.0927559,38.921183 35.3151841,38.1436113 L33.8980193,36.7264464 Z" id="Combined-Shape" fill="#000000"></path>
    </g>
</svg>