<?xml version="1.0" encoding="UTF-8"?>
<svg width="48px" height="48px" viewBox="0 0 48 48" version="1.1" xmlns="http://www.w3.org/2000/svg" xmlns:xlink="http://www.w3.org/1999/xlink">
    <!-- Generator: Sketch 43.2 (39069) - http://www.bohemiancoding.com/sketch -->
    <title>theicons.co/svg/keyboard-08</title>
    <desc>Created with Sketch.</desc>
    <defs></defs>
    <g id="The-Icons" stroke="none" stroke-width="1" fill="none" fill-rule="evenodd">
        <path d="M6,12.0042577 C6,9.79276724 7.8007675,8 10.0033533,8 L12.0018986,8 C13.1054196,8 14.5623256,8.7081449 15.241373,9.56327939 L25.4639492,22.4367206 C26.1495406,23.300096 26.1429967,24.7081449 25.4639492,25.5632794 L15.241373,38.4367206 C14.5557816,39.300096 13.1132936,40 12.0018986,40 L10.0033533,40 C7.79236233,40 6,38.2109725 6,35.9957423 L6,12.0042577 Z M30,10.0017433 C30,8.89621101 30.8877296,8 32,8 C33.1045695,8 34,8.88926172 34,10.0017433 L34,37.9982567 C34,39.103789 33.1122704,40 32,40 C30.8954305,40 30,39.1107383 30,37.9982567 L30,10.0017433 Z M38,10.0017433 C38,8.89621101 38.8877296,8 40,8 C41.1045695,8 42,8.88926172 42,10.0017433 L42,37.9982567 C42,39.103789 41.1122704,40 40,40 C38.8954305,40 38,39.1107383 38,37.9982567 L38,10.0017433 Z M9.99810135,36 L12.0018986,36 L21.5833649,24 L12.0018986,12 L9.99810135,12.0017433 L9.99810135,36 Z" id="Combined-Shape" fill="#000000" fill-rule="nonzero"></path>
    </g>
</svg>