<?xml version="1.0" encoding="UTF-8"?>
<svg width="48px" height="48px" viewBox="0 0 48 48" version="1.1" xmlns="http://www.w3.org/2000/svg" xmlns:xlink="http://www.w3.org/1999/xlink">
    <!-- Generator: Sketch 43.2 (39069) - http://www.bohemiancoding.com/sketch -->
    <title>theicons.co/svg/keyboard-07</title>
    <desc>Created with Sketch.</desc>
    <defs></defs>
    <g id="The-Icons" stroke="none" stroke-width="1" fill="none" fill-rule="evenodd">
        <path d="M32.7343187,9.56327939 C33.4133662,8.7081449 34.8702722,8 35.9737931,8 L37.9723384,8 C40.1833294,8 41.9756917,9.78902751 42,12 L42,36 C41.9756917,38.2072328 40.1749243,40 37.9723384,40 L35.9737931,40 C34.8623981,40 33.4199101,39.300096 32.7343187,38.4367206 L26,29.9254818 L26,36.0038139 C26,38.2108465 24.1749243,40 21.9723384,40 L19.9737931,40 C18.8623981,40 17.4199101,39.300096 16.7343187,38.4367206 L6.51174251,25.5632794 C5.83269506,24.7081449 5.82615112,23.300096 6.51174251,22.4367206 L16.7343187,9.56327939 C17.4133662,8.7081449 18.8702722,8 19.9737931,8 L21.9723384,8 C24.1833294,8 26,9.78951311 26,11.9961861 L26,18.0745182 L32.7343187,9.56327939 Z M22,12 L20,12 L10.3924398,24 L20,36 L22,36 L22,12 Z M38,12 L36,12 L26.3924398,24 L36,36 L38,36 L38,12 Z" id="Combined-Shape" fill="#000000" fill-rule="nonzero"></path>
    </g>
</svg>