<?xml version="1.0" encoding="UTF-8"?>
<svg width="48px" height="48px" viewBox="0 0 48 48" version="1.1" xmlns="http://www.w3.org/2000/svg" xmlns:xlink="http://www.w3.org/1999/xlink">
    <!-- Generator: Sketch 43.2 (39069) - http://www.bohemiancoding.com/sketch -->
    <title>theicons.co/svg/mail-11</title>
    <desc>Created with Sketch.</desc>
    <defs></defs>
    <g id="The-Icons" stroke="none" stroke-width="1" fill="none" fill-rule="evenodd">
        <path d="M12,28.0075441 C12,25.2419539 14.2441952,23 17,23 C19.7614237,23 22,25.2347797 22,28.0075441 L22,30.0000077 C23.105111,30.003128 24,30.8886662 24,31.9981014 L24,36.0018986 C24,37.1054196 23.1029399,38 21.9941413,38 L12.0058587,38 C10.8980535,38 10,37.1132936 10,36.0018986 L10,31.9981014 C10,30.8965247 10.8939019,30.0031529 12,30.0000083 L12,28.0075441 Z M18,30 L18,28.0075441 C18,27.4459331 17.5542976,27 17,27 C16.4520491,27 16,27.45238 16,28.0075441 L16,30 L18,30 Z M27,2 C37.4934102,2 46,10.5065898 46,21 C46,23.9222925 45.3402649,26.6904957 44.1616112,29.1637931 L45.9005008,36.8938023 C46.3842284,39.0441513 45.0284783,40.3927584 42.8748001,39.9065541 L35.1578931,38.1644216 C33.2826322,39.0572852 31.2379668,39.651886 29.0852398,39.8868813 C26.3542796,43.5944862 21.9580587,46 17,46 C8.71572875,46 2,39.2842712 2,31 C2,26.0419413 4.40551384,21.6457204 8.11311871,18.9147602 C9.15150276,9.40241195 17.2112884,2 27,2 Z M34.6883121,33.957747 L41.491439,35.519725 L39.9555017,28.6919138 L40.5506754,27.442996 C41.500615,25.4496345 42,23.2642843 42,21 C42,12.7157288 35.2842712,6 27,6 C20.2311605,6 14.5094884,10.4834565 12.6426765,16.6426765 C14.0216245,16.2247281 15.4845682,16 17,16 C25.2842712,16 32,22.7157288 32,31 C32,32.5159098 31.7751301,33.9792985 31.3569279,35.3586285 C32.0697184,35.1427066 34.6883121,33.957747 34.6883121,33.957747 Z M17,42 C23.0751322,42 28,37.0751322 28,31 C28,24.9248678 23.0751322,20 17,20 C10.9248678,20 6,24.9248678 6,31 C6,37.0751322 10.9248678,42 17,42 Z" id="Combined-Shape" fill="#000000"></path>
    </g>
</svg>