<?xml version="1.0" encoding="UTF-8"?>
<svg width="48px" height="48px" viewBox="0 0 48 48" version="1.1" xmlns="http://www.w3.org/2000/svg" xmlns:xlink="http://www.w3.org/1999/xlink">
    <!-- Generator: Sketch 43.2 (39069) - http://www.bohemiancoding.com/sketch -->
    <title>theicons.co/svg/mail-17</title>
    <desc>Created with Sketch.</desc>
    <defs></defs>
    <g id="The-Icons" stroke="none" stroke-width="1" fill="none" fill-rule="evenodd">
        <path d="M44,24 L44,27.0016655 C44,30.8652973 40.8618187,34 37,34 C34.5899143,34 32.4646692,32.7852743 31.2055401,30.9340048 C29.3863073,32.8240263 26.8304853,34 24,34 C18.4771525,34 14,29.5228475 14,24 C14,18.4771525 18.4771525,14 24,14 C29.5228475,14 34,18.4771525 34,24 L34,27.0078595 C34,28.6623407 35.3406019,30 37,30 C38.6536722,30 40,28.6551646 40,27.0016655 L40,24 C40,15.163444 32.836556,8 24,8 C15.163444,8 8,15.163444 8,24 C8,32.836556 15.163444,40 24,40 C25.1045695,40 26,40.8954305 26,42 C26,43.1045695 25.1045695,44 24,44 C12.954305,44 4,35.045695 4,24 C4,12.954305 12.954305,4 24,4 C35.045695,4 44,12.954305 44,24 Z M30,24 C30,20.6862915 27.3137085,18 24,18 C20.6862915,18 18,20.6862915 18,24 C18,27.3137085 20.6862915,30 24,30 C27.3137085,30 30,27.3137085 30,24 Z" id="Combined-Shape" fill="#000000"></path>
    </g>
</svg>