<?xml version="1.0" encoding="UTF-8"?>
<svg width="48px" height="48px" viewBox="0 0 48 48" version="1.1" xmlns="http://www.w3.org/2000/svg" xmlns:xlink="http://www.w3.org/1999/xlink">
    <!-- Generator: Sketch 43.2 (39069) - http://www.bohemiancoding.com/sketch -->
    <title>theicons.co/svg/mail-07</title>
    <desc>Created with Sketch.</desc>
    <defs></defs>
    <g id="The-Icons" stroke="none" stroke-width="1" fill="none" fill-rule="evenodd">
        <path d="M24,44 C12.954305,44 4,35.045695 4,24 C4,12.954305 12.954305,4 24,4 C35.045695,4 44,12.954305 44,24 C44,27.0162546 43.3322994,29.8765594 42.1366422,32.4411702 L43.8912966,40.8407995 C44.3434999,43.0055218 42.9635038,44.3895254 40.8016058,43.9304903 L32.4136034,42.1494686 C29.8560691,43.3370735 27.0054519,44 24,44 Z M31.939168,37.9595581 L39.5426578,39.5851779 L37.9491133,31.9567911 L38.5112809,30.7509764 C39.4875151,28.6570142 40,26.3687085 40,24 C40,15.163444 32.836556,8 24,8 C15.163444,8 8,15.163444 8,24 C8,32.836556 15.163444,40 24,40 C26.3603576,40 28.640895,39.491129 30.7289502,38.5215293 L31.939168,37.9595581 Z M24,27 C22.3431458,27 21,25.6568542 21,24 C21,22.3431458 22.3431458,21 24,21 C25.6568542,21 27,22.3431458 27,24 C27,25.6568542 25.6568542,27 24,27 Z M16,27 C14.3431458,27 13,25.6568542 13,24 C13,22.3431458 14.3431458,21 16,21 C17.6568542,21 19,22.3431458 19,24 C19,25.6568542 17.6568542,27 16,27 Z M32,27 C30.3431458,27 29,25.6568542 29,24 C29,22.3431458 30.3431458,21 32,21 C33.6568542,21 35,22.3431458 35,24 C35,25.6568542 33.6568542,27 32,27 Z" id="Combined-Shape" fill="#000000"></path>
    </g>
</svg>