<?xml version="1.0" encoding="UTF-8"?>
<svg width="48px" height="48px" viewBox="0 0 48 48" version="1.1" xmlns="http://www.w3.org/2000/svg" xmlns:xlink="http://www.w3.org/1999/xlink">
    <!-- Generator: Sketch 43.2 (39069) - http://www.bohemiancoding.com/sketch -->
    <title>theicons.co/svg/mail-05</title>
    <desc>Created with Sketch.</desc>
    <defs></defs>
    <g id="The-Icons" stroke="none" stroke-width="1" fill="none" fill-rule="evenodd">
        <path d="M22,33.999615 C22,32.8952581 22.8877296,32 24,32 C25.1045695,32 26,32.8874333 26,33.999615 L26,39.18794 L26.5899967,38.6054407 C27.3733635,37.8267173 28.6396879,37.8304816 29.4184113,38.6138485 C30.1971347,39.3972154 30.1933703,40.6635398 29.4100035,41.4422632 L25.3861515,45.4422632 C24.6027748,46.2209963 23.3364311,46.2172207 22.5577118,45.4338301 L18.5815638,41.4338301 C17.8028543,40.6504494 17.8066411,39.3841251 18.5900219,38.6054156 C19.3734026,37.8267062 20.6397269,37.830493 21.4184363,38.6138737 L22,39.198926 L22,33.999615 Z M14,38 C15.1045695,38 16,38.8954305 16,40 C16,41.1045695 15.1045695,42 14,42 L5.99961498,42 C3.78888351,42 2,40.2135068 2,37.9982567 L2,10.0017433 C2,7.79212283 3.78648116,6 5.99729162,6 L42.0027084,6 C44.212674,6 46,7.78701418 46,10.0017433 L46,37.9982567 C46,40.2093866 44.2161253,42 42.000385,42 L34,42 C32.8954305,42 32,41.1045695 32,40 C32,38.8954305 32.8954305,38 34,38 L39.1727593,38.0011864 L28,26.8284271 L25.4142136,29.4142136 C24.633165,30.1952621 23.366835,30.1952621 22.5857864,29.4142136 L20,26.8284271 L8.82842712,38 L14,38 Z M17.1715729,24 L5.99970086,12.828128 C5.99970086,12.828128 5.99810915,29.8052328 5.99859156,35.1729813 L17.1715729,24 Z M42.0028094,12.8256178 L30.8284271,24 L42.0003651,35.171938 L42.0028094,12.8256178 Z M8.81982992,10.0004406 L24,25.2376419 L39.1807139,9.99989472 C32.4552595,9.99966788 8.81982992,10.0004406 8.81982992,10.0004406 Z" id="Combined-Shape" fill="#000000"></path>
    </g>
</svg>