<?xml version="1.0" encoding="UTF-8"?>
<svg width="48px" height="48px" viewBox="0 0 48 48" version="1.1" xmlns="http://www.w3.org/2000/svg" xmlns:xlink="http://www.w3.org/1999/xlink">
    <!-- Generator: Sketch 43.2 (39069) - http://www.bohemiancoding.com/sketch -->
    <title>theicons.co/svg/mail-04</title>
    <desc>Created with Sketch.</desc>
    <defs></defs>
    <g id="The-Icons" stroke="none" stroke-width="1" fill="none" fill-rule="evenodd">
        <path d="M22,5.99201702 C22,4.8918564 22.8877296,4 24,4 C25.1045695,4 26,4.90017617 26,5.99201702 L26,11.18794 L26.5899967,10.6054407 C27.3733635,9.82671732 28.6396879,9.83048163 29.4184113,10.6138485 C30.1971347,11.3972154 30.1933703,12.6635398 29.4100035,13.4422632 L25.3861515,17.4422632 C24.6027748,18.2209963 23.3364311,18.2172207 22.5577118,17.4338301 L18.5815638,13.4338301 C17.8028543,12.6504494 17.8066411,11.3841251 18.5900219,10.6054156 C19.3734026,9.82670618 20.6397269,9.83049301 21.4184364,10.6138737 L22,11.198926 L22,5.99201702 Z M25.4142136,29.4142136 C24.633165,30.1952621 23.366835,30.1952621 22.5857864,29.4142136 L20,26.8284271 L8.82832154,38.0001056 L39.1711339,37.999561 L28,26.8284271 L25.4142136,29.4142136 Z M42.0002991,35.171872 L42.0014084,12.8270187 L30.8284271,24 L42.0002991,35.171872 Z M34,10 C32.8954305,10 32,9.1045695 32,8 C32,6.8954305 32.8954305,6 34,6 L42.000385,6 C44.2111165,6 46,7.78649324 46,10.0017433 L46,37.9982567 C46,40.2078772 44.2135188,42 42.0027084,42 L5.99729162,42 C3.78732603,42 2,40.2129858 2,37.9982567 L2,10.0017433 C2,7.79061339 3.78387466,6 5.99961498,6 L14,6 C15.1045695,6 16,6.8954305 16,8 C16,9.1045695 15.1045695,10 14,10 L8.81820943,9.99881401 L24,25.2376419 L39.180609,10 L34,10 Z M5.99719064,35.1743822 L17.1715729,24 L5.99963488,12.828062 C5.9989503,18.1957568 5.99719064,35.1743822 5.99719064,35.1743822 Z" id="Combined-Shape" fill="#000000"></path>
    </g>
</svg>