<?xml version="1.0" encoding="UTF-8"?>
<svg width="48px" height="48px" viewBox="0 0 48 48" version="1.1" xmlns="http://www.w3.org/2000/svg" xmlns:xlink="http://www.w3.org/1999/xlink">
    <!-- Generator: Sketch 43.2 (39069) - http://www.bohemiancoding.com/sketch -->
    <title>theicons.co/svg/mail-14</title>
    <desc>Created with Sketch.</desc>
    <defs></defs>
    <g id="The-Icons" stroke="none" stroke-width="1" fill="none" fill-rule="evenodd">
        <path d="M30,35.9904421 C30,38.2048598 28.2058797,40 26.0031611,40 L16,40 L5.53279114,45.5573278 C3.58168447,46.5932238 2,45.63242 2,43.4385363 L2,20.0095579 C2,17.7951402 3.79412025,16 5.99683887,16 L8,16 L8,7.00187852 C8,4.79170204 9.78185079,3 11.9948438,3 L42.0051562,3 C44.2114475,3 46,4.79219474 46,7.00187852 L46,37.5613514 C46,39.7754395 44.5344256,40.5375405 42.7267219,39.2636743 L32.4190687,32 L30,32 L30,35.9904421 Z M33.686863,28 L42.0309057,33.8799426 L42,7.00187852 L11.9948438,7 L11.9974928,16 L26.0031611,16 C28.2105543,16 30,17.8003523 30,20.0095579 L30,28.0000401 L33.686863,28 Z M26.0031611,36 L26,20.0095579 L5.99683887,20 L6.01978302,40.7699581 L15.0039835,36 L26.0031611,36 Z M9.99923842,30 C8.89508953,30 8,29.1045695 8,28 C8,26.8954305 8.89508953,26 9.99923842,26 C11.1033873,26 11.9984768,26.8954305 11.9984768,28 C11.9984768,29.1045695 11.1033873,30 9.99923842,30 Z M21.9992384,30 C20.8950895,30 20,29.1045695 20,28 C20,26.8954305 20.8950895,26 21.9992384,26 C23.1033873,26 23.9984768,26.8954305 23.9984768,28 C23.9984768,29.1045695 23.1033873,30 21.9992384,30 Z M15.9992384,30 C14.8950895,30 14,29.1045695 14,28 C14,26.8954305 14.8950895,26 15.9992384,26 C17.1033873,26 17.9984768,26.8954305 17.9984768,28 C17.9984768,29.1045695 17.1033873,30 15.9992384,30 Z" id="Combined-Shape" fill="#000000"></path>
    </g>
</svg>