<?xml version="1.0" encoding="UTF-8"?>
<svg width="48px" height="48px" viewBox="0 0 48 48" version="1.1" xmlns="http://www.w3.org/2000/svg" xmlns:xlink="http://www.w3.org/1999/xlink">
    <!-- Generator: Sketch 43.2 (39069) - http://www.bohemiancoding.com/sketch -->
    <title>theicons.co/svg/mail-16</title>
    <desc>Created with Sketch.</desc>
    <defs></defs>
    <g id="The-Icons" stroke="none" stroke-width="1" fill="none" fill-rule="evenodd">
        <path d="M12,28.0075441 C12,25.2419539 14.2441952,23 17,23 C19.7614237,23 22,25.2347797 22,28.0075441 L22,30.0000077 C23.105111,30.003128 24,30.8886662 24,31.9981014 L24,36.0018986 C24,37.1054196 23.1029399,38 21.9941413,38 L12.0058587,38 C10.8980535,38 10,37.1132936 10,36.0018986 L10,31.9981014 C10,30.8965247 10.8939019,30.0031529 12,30.0000083 L12,28.0075441 Z M18,30 L18,28.0075441 C18,27.4459331 17.5542976,27 17,27 C16.4520491,27 16,27.45238 16,28.0075441 L16,30 L18,30 Z M17,46 C8.71572875,46 2,39.2842712 2,31 C2,26.0925465 4.35665989,21.7355204 8,18.9989014 L8,7.00187852 C8,4.79170204 9.78185079,3 11.9948438,3 L42.0051562,3 C44.2114475,3 46,4.79219474 46,7.00187852 L46,37.5613514 C46,39.7754395 44.5344256,40.5375405 42.7267219,39.2636743 L32.4190687,32 L31.9671954,32 C31.4526094,39.8180318 24.9482427,46 17,46 Z M33.686863,28 L42.0309057,33.8799426 L42,7.00187852 L11.9948438,7 C11.9948438,7 11.9965677,11.8282885 11.9976839,16.8543474 C13.562233,16.3010682 15.2459574,16 17,16 C24.256884,16 30.3101518,21.1532937 31.6999516,28.0000291 C32.9303656,28.000017 33.686863,28 33.686863,28 Z M17,42 C23.0751322,42 28,37.0751322 28,31 C28,24.9248678 23.0751322,20 17,20 C10.9248678,20 6,24.9248678 6,31 C6,37.0751322 10.9248678,42 17,42 Z" id="Combined-Shape" fill="#000000"></path>
    </g>
</svg>