<?xml version="1.0" encoding="UTF-8"?>
<svg width="48px" height="48px" viewBox="0 0 48 48" version="1.1" xmlns="http://www.w3.org/2000/svg" xmlns:xlink="http://www.w3.org/1999/xlink">
    <!-- Generator: Sketch 43.2 (39069) - http://www.bohemiancoding.com/sketch -->
    <title>theicons.co/svg/mail-15</title>
    <desc>Created with Sketch.</desc>
    <defs></defs>
    <g id="The-Icons" stroke="none" stroke-width="1" fill="none" fill-rule="evenodd">
        <path d="M17,46 C8.71572875,46 2,39.2842712 2,31 C2,26.0925465 4.35665989,21.7355204 8,18.9989014 L8,7.00187852 C8,4.79170204 9.78185079,3 11.9948438,3 L42.0051562,3 C44.2114475,3 46,4.79219474 46,7.00187852 L46,37.5613514 C46,39.7754395 44.5344256,40.5375405 42.7267219,39.2636743 L32.4190687,32 L31.9671954,32 C31.4526094,39.8180318 24.9482427,46 17,46 Z M33.686863,28 L42.0309057,33.8799426 L42,7.00187852 L11.9948438,7 C11.9948438,7 11.9965677,11.8282885 11.9976839,16.8543474 C13.562233,16.3010682 15.2459574,16 17,16 C24.256884,16 30.3101518,21.1532937 31.6999516,28.0000291 C32.9303656,28.000017 33.686863,28 33.686863,28 Z M17,42 C23.0751322,42 28,37.0751322 28,31 C28,24.9248678 23.0751322,20 17,20 C10.9248678,20 6,24.9248678 6,31 C6,37.0751322 10.9248678,42 17,42 Z M13.5857001,37.4141272 L9.5861884,33.4141272 C8.80518749,32.633031 8.80526479,31.366701 9.58636104,30.5857001 C10.3674573,29.8046992 11.6337873,29.8047765 12.4147882,30.5858728 L15.0233688,33.1947719 L21.5857864,26.5857864 C22.366835,25.8047379 23.633165,25.8047379 24.4142136,26.5857864 C25.1952621,27.366835 25.1952621,28.633165 24.4142136,29.4142136 L16.4142136,37.4142136 C15.6331313,38.1952959 14.3667347,38.1952572 13.5857001,37.4141272 Z" id="Combined-Shape" fill="#000000"></path>
    </g>
</svg>