<?xml version="1.0" encoding="UTF-8"?>
<svg width="48px" height="48px" viewBox="0 0 48 48" version="1.1" xmlns="http://www.w3.org/2000/svg" xmlns:xlink="http://www.w3.org/1999/xlink">
    <!-- Generator: Sketch 43.2 (39069) - http://www.bohemiancoding.com/sketch -->
    <title>theicons.co/svg/mail-01</title>
    <desc>Created with Sketch.</desc>
    <defs></defs>
    <g id="The-Icons" stroke="none" stroke-width="1" fill="none" fill-rule="evenodd">
        <path d="M28,26.8284271 L25.4142136,29.4142136 C24.633165,30.1952621 23.366835,30.1952621 22.5857864,29.4142136 L20,26.8284271 L8.82200105,38.0064261 L39.1717986,38.0002258 L28,26.8284271 Z M42.0000874,12.8283398 L30.8284271,24 L41.9994741,35.171047 L42.0000874,12.8283398 Z M17.1715729,24 L6.00052588,12.828953 L5.99991263,35.1716602 L17.1715729,24 Z M24,25.2376419 L39.1870161,9.99356883 L8.81916686,9.99977504 L24,25.2376419 Z M6.00180999,6 L41.99819,6 C44.2083286,6 46,7.7852456 46,9.99017859 L46,38.0098214 C46,40.2135362 44.2069088,42 41.99819,42 L6.00180999,42 C3.79167136,42 2,40.2147544 2,38.0098214 L2,9.99017859 C2,7.7864638 3.79309123,6 6.00180999,6 Z" id="Combined-Shape" fill="#000000"></path>
    </g>
</svg>