<?xml version="1.0" encoding="UTF-8"?>
<svg width="48px" height="48px" viewBox="0 0 48 48" version="1.1" xmlns="http://www.w3.org/2000/svg" xmlns:xlink="http://www.w3.org/1999/xlink">
    <!-- Generator: Sketch 43.2 (39069) - http://www.bohemiancoding.com/sketch -->
    <title>theicons.co/svg/mail-19</title>
    <desc>Created with Sketch.</desc>
    <defs></defs>
    <g id="The-Icons" stroke="none" stroke-width="1" fill="none" fill-rule="evenodd">
        <path d="M28.1715729,20 L17.9916239,20 C12.4731746,20 8,24.4759236 8,30 L8,40 C8,41.1045695 7.1045695,42 6,42 C4.8954305,42 4,41.1045695 4,40 L4,30 C4,22.2673346 10.2634853,16 17.9916239,16 L28.1715729,16 L21.5857864,9.41421356 C20.8047379,8.63316498 20.8047379,7.36683502 21.5857864,6.58578644 C22.366835,5.80473785 23.633165,5.80473785 24.4142136,6.58578644 L34.4142136,16.5857864 C35.1952621,17.366835 35.1952621,18.633165 34.4142136,19.4142136 L24.4142136,29.4142136 C23.633165,30.1952621 22.366835,30.1952621 21.5857864,29.4142136 C20.8047379,28.633165 20.8047379,27.366835 21.5857864,26.5857864 L28.1715729,20 Z M30.5857864,26.5857864 L39.1715729,18 L30.5857864,9.41421356 C29.8047379,8.63316498 29.8047379,7.36683502 30.5857864,6.58578644 C31.366835,5.80473785 32.633165,5.80473785 33.4142136,6.58578644 L43.4142136,16.5857864 C44.1952621,17.366835 44.1952621,18.633165 43.4142136,19.4142136 L33.4142136,29.4142136 C32.633165,30.1952621 31.366835,30.1952621 30.5857864,29.4142136 C29.8047379,28.633165 29.8047379,27.366835 30.5857864,26.5857864 Z" id="Combined-Shape" fill="#000000" fill-rule="nonzero"></path>
    </g>
</svg>