<?xml version="1.0" encoding="UTF-8"?>
<svg width="48px" height="48px" viewBox="0 0 48 48" version="1.1" xmlns="http://www.w3.org/2000/svg" xmlns:xlink="http://www.w3.org/1999/xlink">
    <!-- Generator: Sketch 43.2 (39069) - http://www.bohemiancoding.com/sketch -->
    <title>theicons.co/svg/mail-03</title>
    <desc>Created with Sketch.</desc>
    <defs></defs>
    <g id="The-Icons" stroke="none" stroke-width="1" fill="none" fill-rule="evenodd">
        <path d="M39.1775331,42.0059602 L28,30.8284271 L25.4142136,33.4142136 C24.633165,34.1952621 23.366835,34.1952621 22.5857864,33.4142136 L20,30.8284271 L8.82829807,42.0001291 L39.1775331,42.0059602 Z M17.1715729,28 L5.99978891,16.828216 L6.00002275,39.1715501 L17.1715729,28 Z M42,16.8284271 L30.8284271,28 L42,39.1715729 L42,16.8284271 Z M38,6 L10,6 L10,15.1850445 L24,29.2376419 L38,15.1850445 L38,6 Z M42.187532,8.78694199 C44.2930999,9.45689543 46,11.7852456 46,13.9901786 L46,42.0098214 C46,44.2135362 44.2069088,46 41.99819,46 L6.00180999,46 C3.79167136,46 2,44.2147544 2,42.0098214 L2,13.9901786 C2,11.7864638 3.70801791,9.45653976 5.80857329,8.78818123 L6,8.72727273 L6,4.00585866 C6,2.89805351 6.88989258,2 7.99970728,2 L40.0002927,2 C41.1047006,2 42,2.89706013 42,4.00585866 L42,8.72727273 L42.187532,8.78694199 Z M21.2846568,19.3619321 C20.5572646,19.7443448 19.8565296,19.2345399 19.9953438,18.4251913 L20.5162831,15.3878818 C20.5112081,15.4174714 18.3171575,13.2602652 18.3171575,13.2602652 C17.7286848,12.6866461 17.9969992,11.8626692 18.8096313,11.7445868 L21.8592635,11.3014493 C21.8295538,11.3057664 23.2031799,8.55248696 23.2031799,8.55248696 C23.566876,7.8155581 24.4334383,7.81611732 24.7968585,8.55248696 L26.1606954,11.3159225 C26.1474088,11.2890009 29.190407,11.7445868 29.190407,11.7445868 C30.0036563,11.8627589 30.2709069,12.6870814 29.6828808,13.2602652 L27.4761462,15.4112998 C27.4976443,15.3903443 28.0046946,18.4251913 28.0046946,18.4251913 C28.1436141,19.2351545 27.4422218,19.7440546 26.7153815,19.3619321 L23.9877076,17.927909 C24.0142807,17.9418794 21.2846568,19.3619321 21.2846568,19.3619321 Z" id="Combined-Shape" fill="#000000"></path>
    </g>
</svg>