<?xml version="1.0" encoding="UTF-8"?>
<svg width="48px" height="48px" viewBox="0 0 48 48" version="1.1" xmlns="http://www.w3.org/2000/svg" xmlns:xlink="http://www.w3.org/1999/xlink">
    <!-- Generator: Sketch 43.2 (39069) - http://www.bohemiancoding.com/sketch -->
    <title>theicons.co/svg/medical-10</title>
    <desc>Created with Sketch.</desc>
    <defs></defs>
    <g id="The-Icons" stroke="none" stroke-width="1" fill="none" fill-rule="evenodd">
        <path d="M34,36 L14.0001757,36 C12.8958182,36 12,36.8957293 12,38 C12,39.1008238 12.898505,40 14.0001757,40 L34,40 L34,36 Z M40,42 C40,43.1045695 39.1017394,44 38.0020869,44 L14.0001757,44 C10.6863701,44 8,41.3069658 8,38 L8,10.0001757 C8,6.68637015 10.6869779,4 14.0001757,4 L35.9945068,4 C38.2066796,4 40,5.78679466 40,7.9992748 L40,34.0020869 C40,35.1055038 39.1122704,36 38,36 L38,40 C39.1055038,40 40,40.8877296 40,42 Z M26,18 L28.9941413,18 C30.1019465,18 31,18.8877296 31,20 C31,21.1045695 30.1029399,22 28.9941413,22 L26,22 L26,24.9941413 C26,26.1019465 25.1122704,27 24,27 C22.8954305,27 22,26.1029399 22,24.9941413 L22,22 L19.0058587,22 C17.8980535,22 17,21.1122704 17,20 C17,18.8954305 17.8970601,18 19.0058587,18 L22,18 L22,15.0058587 C22,13.8980535 22.8877296,13 24,13 C25.1045695,13 26,13.8970601 26,15.0058587 L26,18 Z M14.0001757,32 L36,32 L36,7.9992748 C36,7.99919838 14.0001757,8 14.0001757,8 C12.8958444,8 12,8.8957817 12,10.0001757 L12,32.3415376 C12.62564,32.1203542 13.2988795,32 14.0001757,32 Z" id="Rectangle-898" fill="#000000"></path>
    </g>
</svg>