<?xml version="1.0" encoding="UTF-8"?>
<svg width="48px" height="48px" viewBox="0 0 48 48" version="1.1" xmlns="http://www.w3.org/2000/svg" xmlns:xlink="http://www.w3.org/1999/xlink">
    <!-- Generator: Sketch 43.2 (39069) - http://www.bohemiancoding.com/sketch -->
    <title>theicons.co/svg/medical-14</title>
    <desc>Created with Sketch.</desc>
    <defs></defs>
    <g id="The-Icons" stroke="none" stroke-width="1" fill="none" fill-rule="evenodd">
        <path d="M37,24 L41,24 L41,22.0085302 C41,20.8992496 41.8877296,20 43,20 C44.1045695,20 45,20.9019504 45,22.0085302 L45,42 C45,43.1045695 44.1045695,44 43,44 C41.8954305,44 41,43.1045695 41,42 L41,28 L37,28 L37,34.9943542 C37,37.7588961 34.7558048,40 32,40 C29.2385763,40 27,37.7616406 27,34.9943542 L27,28 L21,28 L21,35 C21,37.7614237 18.7558048,40 16,40 C13.2385763,40 11,37.7625407 11,35 L11,28 L7,28 L7,42 C7,43.1045695 6.1045695,44 5,44 C3.8954305,44 3,43.1045695 3,42 L3,22.0085302 C3,20.8992496 3.88772964,20 5,20 C6.1045695,20 7,20.9019504 7,22.0085302 L7,24 L11,24 L11,13.9999917 C9.89488899,13.9968684 9,13.1103089 9,12 C9,10.8954305 9.89706013,10 11.0058587,10 L20.9941413,10 C22.1019465,10 23,10.8877296 23,12 C23,13.1026234 22.1060981,13.9968441 21,13.9999917 L21,24 L27,24 L27,9.99999172 C25.894889,9.9968684 25,9.11030894 25,8 C25,6.8954305 25.8970601,6 27.0058587,6 L36.9941413,6 C38.1019465,6 39,6.88772964 39,8 C39,9.10262341 38.1060981,9.99684411 37,9.99999167 L37,24 Z M31,28 L31,35.0029699 C31,35.5469637 31.4477153,36 32,36 C32.5561352,36 33,35.5536144 33,35.0029699 L33,28 L31,28 Z M31,10 L31,24 L33,24 L33,10 L31,10 Z M15,14 L15,23.0046024 C15,23.5443356 15.4477153,24 16,24 C16.5561352,24 17,23.5543453 17,23.0046024 L17,14 L15,14 Z M19,6 C17.8954305,6 17,5.1045695 17,4 C17,2.8954305 17.8954305,2 19,2 C20.1045695,2 21,2.8954305 21,4 C21,5.1045695 20.1045695,6 19,6 Z M13,8 C11.8954305,8 11,7.1045695 11,6 C11,4.8954305 11.8954305,4 13,4 C14.1045695,4 15,4.8954305 15,6 C15,7.1045695 14.1045695,8 13,8 Z" id="Combined-Shape" fill="#000000" fill-rule="nonzero"></path>
    </g>
</svg>