<?xml version="1.0" encoding="UTF-8"?>
<svg width="48px" height="48px" viewBox="0 0 48 48" version="1.1" xmlns="http://www.w3.org/2000/svg" xmlns:xlink="http://www.w3.org/1999/xlink">
    <!-- Generator: Sketch 43.2 (39069) - http://www.bohemiancoding.com/sketch -->
    <title>theicons.co/svg/medical-07</title>
    <desc>Created with Sketch.</desc>
    <defs></defs>
    <g id="The-Icons" stroke="none" stroke-width="1" fill="none" fill-rule="evenodd">
        <path d="M12,3 C13.6568542,3 15,4.34180734 15,6.00434265 L15,10.1002158 C15,11.7594684 13.6534829,13.1045584 12,13.1045584 C10.4125155,13.1045584 9.11302056,11.8727575 9.00698789,10.3072771 C8.4056163,10.6552243 8,11.3101716 8,12.0602809 L8,20 L26,20 L26,12.0602809 C26,11.3092954 25.59465,10.6544326 24.9930031,10.3067817 C24.8867739,11.8696824 23.5842937,13.1045584 22,13.1045584 C20.3431458,13.1045584 19,11.7627511 19,10.1002158 L19,6.00434265 C19,4.34509002 20.3465171,3 22,3 C23.6568542,3 25,4.34180734 25,6.00434265 C27.8375289,6.56309728 30,9.05594147 30,12.0602809 L30,21.1492632 C30,27.2920993 25.1141774,32.0164185 19.0276489,32.0164185 L19,38.213498 C19,40.1836856 21.1214002,41.6071528 23.0188873,40.6313679 C23.9018027,40.1773277 27.7506738,36.7996516 28.0602945,36.544732 C29.5493698,35.318733 30.8652831,34.5918652 32.3119616,34.4104004 C33.1110453,32.0106946 35.3557681,30.2823077 38,30.2823077 C41.3137085,30.2823077 44,32.9966867 44,36.3450428 C44,39.6933989 41.3137085,42.4077778 38,42.4077778 C35.4478068,42.4077778 33.2677951,40.7976181 32.4006139,38.5277829 C31.909097,38.7016034 31.3253207,39.0702026 30.5869764,39.6781029 C30.3286365,39.8908017 26.1168614,43.5733833 24.8331635,44.2335264 C20.2024763,46.6148625 15,43.1239821 15,38.213498 L15,32.0163411 C8.94017673,31.9943439 4,27.2850458 4,21.1492632 L4,12.0602809 C4,9.05667504 6.16341089,6.56342379 9,6.08343657 C9,4.34509002 10.3465171,3 12,3 Z M8.63136113,24.0418234 C9.74335077,26.4293632 12.2040656,28.0136108 15.0426411,28.0136108 L19.0276489,28.0136108 C21.8670246,28.0136108 24.2893223,26.428863 25.3809412,24.0418234 L8.63136113,24.0418234 Z M38,38.3659545 C39.1045695,38.3659545 40,37.4611615 40,36.3450428 C40,35.2289241 39.1045695,34.3241311 38,34.3241311 C36.8954305,34.3241311 36,35.2289241 36,36.3450428 C36,37.4611615 36.8954305,38.3659545 38,38.3659545 Z" id="Shape" fill="#000000" fill-rule="nonzero"></path>
    </g>
</svg>