<?xml version="1.0" encoding="UTF-8"?>
<svg width="48px" height="48px" viewBox="0 0 48 48" version="1.1" xmlns="http://www.w3.org/2000/svg" xmlns:xlink="http://www.w3.org/1999/xlink">
    <!-- Generator: Sketch 43.2 (39069) - http://www.bohemiancoding.com/sketch -->
    <title>theicons.co/svg/medical-03</title>
    <desc>Created with Sketch.</desc>
    <defs></defs>
    <g id="The-Icons" stroke="none" stroke-width="1" fill="none" fill-rule="evenodd">
        <path d="M28.2136439,13.9016516 L23.970731,9.65873871 C23.1898328,8.87784049 23.1845094,7.61707775 23.9710033,6.83058384 C24.7520518,6.04953525 26.0127269,6.04388037 26.7991581,6.83031159 L31.0420711,11.0732245 L32.4562846,9.65901096 L28.2133717,5.41609803 C27.4324735,4.6351998 27.42715,3.37443706 28.2136439,2.58794315 C28.9946925,1.80689457 30.2553676,1.80123969 31.0417988,2.5876709 L35.2847119,6.83058399 C36.846374,5.2699846 39.3807392,5.26975699 40.9400904,6.82910819 L42.3572552,8.24627305 C43.919238,9.80825585 43.9175243,12.3399069 42.3547972,13.902634 L11.2440636,45.0133677 C9.68248213,46.5749491 7.14738086,46.5755039 5.5877026,45.0158257 L4.17053774,43.5986608 C2.60855494,42.036678 2.61026862,39.505027 4.17299575,37.9422999 L23.9710033,18.1442923 L19.7280903,13.9013794 C18.9471921,13.1204812 18.9418687,11.8597184 19.7283626,11.0732245 C20.5094112,10.2921759 21.7700862,10.2865211 22.5565175,11.0729523 L26.7994304,15.3158652 L28.2136439,13.9016516 Z M38.1121565,9.65999332 C38.1119179,9.66023197 39.5288281,11.0747002 39.5288281,11.0747002 C39.5278559,11.073728 8.41563643,42.1849405 8.41563643,42.1849405 C8.41587509,42.1847019 6.99896487,40.7702337 6.99896487,40.7702337 C6.99993706,40.7712059 38.1121565,9.65999332 38.1121565,9.65999332 Z" id="Combined-Shape" fill="#000000"></path>
    </g>
</svg>