<?xml version="1.0" encoding="UTF-8"?>
<svg width="48px" height="48px" viewBox="0 0 48 48" version="1.1" xmlns="http://www.w3.org/2000/svg" xmlns:xlink="http://www.w3.org/1999/xlink">
    <!-- Generator: Sketch 43.2 (39069) - http://www.bohemiancoding.com/sketch -->
    <title>theicons.co/svg/medical-04</title>
    <desc>Created with Sketch.</desc>
    <defs></defs>
    <g id="The-Icons" stroke="none" stroke-width="1" fill="none" fill-rule="evenodd">
        <path d="M17.6639736,6.33696754 C20.7852021,3.21573908 25.8544747,3.2245005 28.9723119,6.34233773 C32.0965063,9.46653206 32.099378,14.5289801 28.9776821,17.650676 L17.6532333,28.9751249 C14.5320048,32.0963534 9.46273217,32.087592 6.34489495,28.9697547 C3.22070061,25.8455604 3.21782887,20.7831123 6.33952476,17.6614164 L17.6639736,6.33696754 Z M26.9289322,41.0710678 C23.0236893,37.1658249 23.0236893,30.8341751 26.9289322,26.9289322 C30.8341751,23.0236893 37.1658249,23.0236893 41.0710678,26.9289322 C44.9763107,30.8341751 44.9763107,37.1658249 41.0710678,41.0710678 C37.1658249,44.9763107 30.8341751,44.9763107 26.9289322,41.0710678 Z M31.4129872,39.4154399 C33.6432427,40.4808461 36.3953683,40.0899131 38.2426407,38.2426407 C40.0899131,36.3953683 40.4808461,33.6432427 39.4154399,31.4129872 L31.4129872,39.4154399 L31.4129872,39.4154399 Z M36.5870128,28.5845601 C34.3567573,27.5191539 31.6046317,27.9100869 29.7573593,29.7573593 C27.9100869,31.6046317 27.5191539,34.3567573 28.5845601,36.5870128 L36.5870128,28.5845601 L36.5870128,28.5845601 Z M14.8301763,14.8276191 L20.4870306,20.4844733 L26.149255,14.8222489 C27.7080544,13.2634495 27.7067808,10.7336608 26.1438848,9.17076485 C24.5848576,7.6117376 22.0482466,7.60954886 20.4924008,9.16539467 L14.8301763,14.8276191 Z" id="Combined-Shape" fill="#000000" fill-rule="nonzero"></path>
    </g>
</svg>