<?xml version="1.0" encoding="UTF-8"?>
<svg width="48px" height="48px" viewBox="0 0 48 48" version="1.1" xmlns="http://www.w3.org/2000/svg" xmlns:xlink="http://www.w3.org/1999/xlink">
    <!-- Generator: Sketch 43.2 (39069) - http://www.bohemiancoding.com/sketch -->
    <title>theicons.co/svg/medical-16</title>
    <desc>Created with Sketch.</desc>
    <defs></defs>
    <g id="The-Icons" stroke="none" stroke-width="1" fill="none" fill-rule="evenodd">
        <path d="M15.7752265,23.8196816 C16.2200535,24.3865706 16.725359,24.9951299 17.2917871,25.6375581 C19.1712472,27.7691934 21.391621,29.9050037 23.960716,31.9503366 C25.354709,30.7697747 26.7502429,29.4857376 28.1179902,28.1179902 C29.5341015,26.701879 30.8604778,25.2559814 32.0751825,23.8128472 C31.3100998,22.867193 30.476019,21.921556 29.5821672,20.980396 C27.8399615,19.1459821 25.9671543,17.426596 24.0945205,15.8757146 C24.0276061,15.8202973 23.9611917,15.7655133 23.8952946,15.7113693 C22.4662953,16.9163056 21.0349003,18.2305175 19.6327089,19.6327089 C18.2552483,21.0101694 16.9626912,22.4158126 15.7752265,23.8196816 Z M9.66420393,32.7697767 C7.90597408,36.2862364 7.6164568,38.7291552 8.31900037,39.4316987 C9.02154394,40.1342423 11.4644627,39.844725 14.9809224,38.0864952 C16.7901027,37.181905 18.7415438,35.963801 20.7444227,34.4933921 C18.2897277,32.4759574 16.1414812,30.3811849 14.2914621,28.2829408 C13.9052661,27.8449273 13.551917,27.4302968 13.2310868,27.0420225 C11.7724137,29.0323726 10.5634118,30.971361 9.66420393,32.7697767 Z M32.4825498,18.2258034 C33.2271911,19.0098557 33.9357161,19.7993511 34.6040227,20.5931741 C36.0249663,18.6433266 37.2046902,16.7445324 38.0864952,14.9809224 C39.844725,11.4644627 40.1342423,9.02154394 39.4316987,8.31900037 C38.7291552,7.6164568 36.2862364,7.90597408 32.7697767,9.66420393 C30.9915844,10.5533001 29.075963,11.7452622 27.1091479,13.1819729 C28.9419034,14.7257752 30.766145,16.4185558 32.4825498,18.2258034 Z M5.49057324,5.49057324 C8.81786352,2.16328296 16.0809908,4.64250767 23.8753496,10.5825365 C31.6697083,4.64250767 38.9328356,2.16328296 42.2601259,5.49057324 C45.5874161,8.81786352 43.1081914,16.0809908 37.1681626,23.8753496 C43.1081914,31.6697083 45.5874161,38.9328356 42.2601259,42.2601259 C38.9328356,45.5874161 31.6697083,43.1081914 23.8753496,37.1681626 C16.0809908,43.1081914 8.81786352,45.5874161 5.49057324,42.2601259 C2.16328296,38.9328356 4.64250767,31.6697083 10.5825365,23.8753496 C4.64250767,16.0809908 2.16328296,8.81786352 5.49057324,5.49057324 Z M16.8042817,16.8042817 C18.0832537,15.5253098 19.3754002,14.3203305 20.6657491,13.1996593 C18.6904488,11.7550428 16.7664064,10.5569459 14.9809224,9.66420393 C11.4644627,7.90597408 9.02154394,7.6164568 8.31900037,8.31900037 C7.6164568,9.02154394 7.90597408,11.4644627 9.66420393,14.9809224 C10.5569459,16.7664064 11.7550428,18.6904488 13.1996593,20.6657491 C14.3203305,19.3754002 15.5253098,18.0832537 16.8042817,16.8042817 Z M30.9464174,30.9464174 C29.6674454,32.2253893 28.3752989,33.4303686 27.08495,34.5510398 C29.0602503,35.9956563 30.9842927,37.1937532 32.7697767,38.0864952 C36.2862364,39.844725 38.7291552,40.1342423 39.4316987,39.4316987 C40.1342423,38.7291552 39.844725,36.2862364 38.0864952,32.7697767 C37.1937532,30.9842927 35.9956563,29.0602503 34.5510398,27.08495 C33.4303686,28.3752989 32.2253893,29.6674454 30.9464174,30.9464174 Z M23.8753496,26.8753496 C22.2184953,26.8753496 20.8753496,25.5322038 20.8753496,23.8753496 C20.8753496,22.2184953 22.2184953,20.8753496 23.8753496,20.8753496 C25.5322038,20.8753496 26.8753496,22.2184953 26.8753496,23.8753496 C26.8753496,25.5322038 25.5322038,26.8753496 23.8753496,26.8753496 Z" id="Combined-Shape" fill="#000000"></path>
    </g>
</svg>