<?xml version="1.0" encoding="UTF-8"?>
<svg width="48px" height="48px" viewBox="0 0 48 48" version="1.1" xmlns="http://www.w3.org/2000/svg" xmlns:xlink="http://www.w3.org/1999/xlink">
    <!-- Generator: Sketch 43.2 (39069) - http://www.bohemiancoding.com/sketch -->
    <title>theicons.co/svg/medical-02</title>
    <desc>Created with Sketch.</desc>
    <defs></defs>
    <g id="The-Icons" stroke="none" stroke-width="1" fill="none" fill-rule="evenodd">
        <path d="M34.6951583,5.41288978 L36.1135719,6.83130336 L40.3575551,2.58732013 C41.1378622,1.80701301 42.3974222,1.80144519 43.1832971,2.58732013 L46.0144094,5.41843234 C46.7947165,6.19873946 46.8002843,7.45829943 46.0144094,8.24417438 L41.7704261,12.4881576 L43.1888397,13.9065712 C43.9675687,14.6853002 44.0395207,16.0157504 43.3500742,16.8775586 L21.9714362,43.600856 L19.1430091,46.4292831 C17.580912,47.9913803 15.0528961,47.9960244 13.4931885,46.4363167 L2.16541279,35.108541 C0.607200166,33.5503284 0.613527762,31.017639 2.17244638,29.4587204 L5.0008735,26.6302932 L31.7241709,5.25165533 C32.5862729,4.56197368 33.9176615,4.63539298 34.6951583,5.41288978 Z M7.82930062,29.4587204 L5.0008735,32.2871475 L16.3216156,43.6078896 L19.1430091,40.7724289 L7.82930062,29.4587204 Z M32.988728,9.36331377 L10.9851703,26.9577358 L21.6574591,37.6300246 L39.2465676,15.6211534 L32.988728,9.36331377 Z M28.8284271,25.3284271 C27.26633,26.8905243 24.73367,26.8905243 23.1715729,25.3284271 C21.6094757,23.76633 21.6094757,21.23367 23.1715729,19.6715729 C24.73367,18.1094757 27.26633,18.1094757 28.8284271,19.6715729 C30.3905243,21.23367 30.3905243,23.76633 28.8284271,25.3284271 Z" id="Combined-Shape" fill="#000000"></path>
    </g>
</svg>