<?xml version="1.0" encoding="UTF-8"?>
<svg width="48px" height="48px" viewBox="0 0 48 48" version="1.1" xmlns="http://www.w3.org/2000/svg" xmlns:xlink="http://www.w3.org/1999/xlink">
    <!-- Generator: Sketch 43.2 (39069) - http://www.bohemiancoding.com/sketch -->
    <title>theicons.co/svg/medical-19</title>
    <desc>Created with Sketch.</desc>
    <defs></defs>
    <g id="The-Icons" stroke="none" stroke-width="1" fill="none" fill-rule="evenodd">
        <path d="M41.6585886,38 L44.0018986,38 C45.1054196,38 46,38.8877296 46,40 C46,41.1045695 45.1132936,42 44.0018986,42 L41.6585886,42 C40.8349158,44.3303847 38.6124377,46 36,46 C32.6862915,46 30,43.3137085 30,40 C30,37.3875623 31.6696153,35.1650842 34,34.3414114 L34,32 L23.585935,32 C23.8556657,32.9536636 24,33.9599762 24,35 C24,41.0751322 19.0751322,46 13,46 C6.92486775,46 2,41.0751322 2,35 C2,29.6078607 5.87976392,25.1218889 11,24.1813762 L11,8.0050741 C11,6.8990354 10.1014066,6 9,6 L5,6 C3.8954305,6 3,5.1045695 3,4 C3,2.8954305 3.8954305,2 5,2 L9,2 C12.3109861,2 15,4.69033663 15,8.0050741 L15,14 L30.0029381,14 C34.418697,14 38,17.5827706 38,22.0006595 L38,34.3414114 C39.7048269,34.9439813 41.0560187,36.2951731 41.6585886,38 Z M15,18 L15,24.1813762 C17.5950731,24.6580533 19.8715018,26.0454647 21.4856758,28 L34,28 L34,22.0006595 C34,19.7915428 32.209191,18 30.0029381,18 L15,18 Z M6,35 C6,38.8659932 9.13400675,42 13,42 C16.8659932,42 20,38.8659932 20,35 C20,31.8289794 17.8914889,29.1504279 15,28.2898787 L15,35 C15,36.1045695 14.1045695,37 13,37 C11.8954305,37 11,36.1045695 11,35 L11,28.2898787 C8.10851105,29.1504279 6,31.8289794 6,35 Z M36,42 C37.1045695,42 38,41.1045695 38,40 C38,38.8954305 37.1045695,38 36,38 C34.8954305,38 34,38.8954305 34,40 C34,41.1045695 34.8954305,42 36,42 Z" id="Combined-Shape" fill="#000000"></path>
    </g>
</svg>