<?xml version="1.0" encoding="UTF-8"?>
<svg width="48px" height="48px" viewBox="0 0 48 48" version="1.1" xmlns="http://www.w3.org/2000/svg" xmlns:xlink="http://www.w3.org/1999/xlink">
    <!-- Generator: Sketch 43.2 (39069) - http://www.bohemiancoding.com/sketch -->
    <title>theicons.co/svg/medical-13</title>
    <desc>Created with Sketch.</desc>
    <defs></defs>
    <g id="The-Icons" stroke="none" stroke-width="1" fill="none" fill-rule="evenodd">
        <path d="M16.8888999,32 L30.6726603,32 L27.7807922,24.7703296 L27.8203568,20 L19.8147661,20 L19.7807922,24.7703296 L16.8888999,32 Z M15.2888866,36 L13.6888732,40 L33.8846723,40.03003 L32.2726603,36 L15.2888866,36 Z M31.7807922,20 L31.7807922,24 L38.2948023,40.2850252 C39.1154918,42.3367491 37.9917647,44 35.7765345,44 L11.7850499,44 C9.57355943,44 8.44910772,42.3292112 9.26678212,40.2850252 L15.7807922,24 L15.7807922,20 L14.7719472,20 C13.6722627,20 12.7807922,19.1122704 12.7807922,18 C12.7807922,16.8954305 13.6704661,16 14.7719472,16 L32.7896372,16 C33.8893217,16 34.7807922,16.8877296 34.7807922,18 C34.7807922,19.1045695 33.8911182,20 32.7896372,20 L31.7807922,20 Z M27.7807922,8 C26.6762227,8 25.7807922,7.1045695 25.7807922,6 C25.7807922,4.8954305 26.6762227,4 27.7807922,4 C28.8853617,4 29.7807922,4.8954305 29.7807922,6 C29.7807922,7.1045695 28.8853617,8 27.7807922,8 Z M20.7807922,14 C19.1239379,14 17.7807922,12.6568542 17.7807922,11 C17.7807922,9.34314575 19.1239379,8 20.7807922,8 C22.4376464,8 23.7807922,9.34314575 23.7807922,11 C23.7807922,12.6568542 22.4376464,14 20.7807922,14 Z" id="Path" fill="#000000"></path>
    </g>
</svg>