<?xml version="1.0" encoding="UTF-8"?>
<svg width="48px" height="48px" viewBox="0 0 48 48" version="1.1" xmlns="http://www.w3.org/2000/svg" xmlns:xlink="http://www.w3.org/1999/xlink">
    <!-- Generator: Sketch 43.2 (39069) - http://www.bohemiancoding.com/sketch -->
    <title>theicons.co/svg/medical-12</title>
    <desc>Created with Sketch.</desc>
    <defs></defs>
    <g id="The-Icons" stroke="none" stroke-width="1" fill="none" fill-rule="evenodd">
        <path d="M22,41 L22,7 C22,7 18.8913674,7 18.1041418,9.25672883 L19.1351739,10.485465 C19.8444367,11.3307315 19.7411644,12.585069 18.8913674,13.2981333 C18.0474541,14.0062607 16.794254,13.9021164 16.0790933,13.0498211 L15.2379683,12.0474074 L15.0143834,12.0906201 C13.0037673,12.4792156 11.452605,14.0703065 11.071655,16.0511433 C11.3693978,16.0173564 11.6721072,16 11.9788598,16 C13.4535958,16 14.8740893,16.4036449 16.1103026,17.1549475 C17.052399,17.7275021 17.3531984,18.9573928 16.7821569,19.9019854 C16.2111153,20.8465779 14.9844746,21.1481743 14.0423782,20.5756197 C13.425405,20.2006572 12.7192587,20 11.9788598,20 C9.77555849,20 7.98942989,21.790861 7.98942989,24 C7.98942989,26.209139 9.77555849,28 11.9788598,28 C12.7171756,28 13.4214291,27.8004758 14.0372083,27.4275168 C14.9801688,26.856394 16.2063524,27.1598534 16.775966,28.1053122 C17.3455796,29.0507711 17.0429222,30.2802035 16.0999617,30.8513263 C14.8661037,31.598637 13.4494268,32 11.9788598,32 C11.3777155,32 10.7920985,31.9333436 10.2289597,31.8070003 C10.0681803,32.1779201 9.98414483,32.579583 9.98414483,33 C9.98414483,34.549233 11.1628138,35.8413997 12.6852646,35.9862778 L13.1709234,36.0324936 L14.0790933,34.9501789 C14.794254,34.0978836 16.0474541,33.9937393 16.8913674,34.7018667 C17.7411644,35.414931 17.8444367,36.6692685 17.1351739,37.514535 L16.1077008,38.7390298 C17.1351739,41 22,41 22,41 Z M35.2090343,35.9862778 C36.7314851,35.8413997 37.9101541,34.549233 37.9101541,33 C37.9101541,32.5875254 37.8292637,32.193103 37.6743692,31.828055 C37.1409825,31.9407375 36.5879638,32 36.0211402,32 C34.5505732,32 33.1338963,31.598637 31.9000383,30.8513263 C30.9570778,30.2802035 30.6544204,29.0507711 31.224034,28.1053122 C31.7936476,27.1598534 33.0198312,26.856394 33.9627917,27.4275168 C34.5785709,27.8004758 35.2828244,28 36.0211402,28 C36.7692209,28 37.4692105,27.7935518 38.0675277,27.4343788 L38.5654042,26.9901682 C39.4145244,26.2325741 39.904869,25.1605869 39.904869,24 C39.904869,22.760443 39.3440184,21.6215669 38.3922874,20.8638867 L37.8943094,20.4674428 C37.3357853,20.169088 36.6981569,20 36.0211402,20 C35.2807413,20 34.574595,20.2006572 33.9576218,20.5756197 C33.0155254,21.1481743 31.7888847,20.8465779 31.2178431,19.9019854 C30.6468016,18.9573928 30.947601,17.7275021 31.8896974,17.1549475 C33.1259107,16.4036449 34.5464042,16 36.0211402,16 C36.2909021,16 36.5575372,16.0134229 36.8204174,16.0396388 C36.4356839,14.0641481 34.8866376,12.478463 32.8799155,12.0906201 L32.6836159,12.0526809 L31.8469159,13.0498211 C31.1317552,13.9021164 29.8785551,14.0062607 29.0346418,13.2981333 C28.1848448,12.585069 28.0815725,11.3307315 28.7908353,10.485465 L29.8002474,9.2824945 C29.0346418,6.99719238 26,6.99719238 26,6.99719238 L26,41 C26,41 31.0346418,41 31.7966251,38.7131886 L30.7908353,37.514535 C30.0815725,36.6692685 30.1848448,35.414931 31.0346418,34.7018667 C31.8785551,33.9937393 33.1317552,34.0978836 33.8469159,34.9501789 L34.7527409,36.0296991 L35.2090343,35.9862778 Z M41.8995839,33 C41.8995839,36.6401135 39.1284441,39.6312778 35.5859757,39.9683829 C34.7734491,42.3152685 32.0681152,45 24,45 C15.9318848,45 13.1208498,42.3152685 12.3083232,39.9683829 C8.76585479,39.6312778 5.99471494,36.6401135 5.99471494,33 C5.99471494,31.9178834 6.23960814,30.8931162 6.67685739,29.9783748 C5.03451522,28.5130599 4,26.377662 4,24 C4,21.4601594 5.1804554,19.1967593 7.0212747,17.7312695 C7.00193126,17.4900719 6.99207242,17.2461903 6.99207242,17 C6.99207242,12.6153821 10.1192145,8.96308264 14.259277,8.16292495 C14.9342878,6.05633212 17.3389893,3 24,3 C30.6610107,3 32.9600111,6.05633212 33.6350219,8.16292495 C37.7750844,8.96308264 40.9022265,12.6153821 40.9022265,17 C40.9022265,17.219633 40.8943799,17.4374284 40.8789525,17.6531199 C42.7767819,19.1155848 44,21.414565 44,24 C44,26.4134972 42.9340662,28.5773726 41.2484717,30.0441706 C41.6662604,30.9421485 41.8995839,31.9437542 41.8995839,33 Z" id="Path" fill="#000000"></path>
    </g>
</svg>