<?xml version="1.0" encoding="UTF-8"?>
<svg width="48px" height="48px" viewBox="0 0 48 48" version="1.1" xmlns="http://www.w3.org/2000/svg" xmlns:xlink="http://www.w3.org/1999/xlink">
    <!-- Generator: Sketch 43.2 (39069) - http://www.bohemiancoding.com/sketch -->
    <title>theicons.co/svg/medical-05</title>
    <desc>Created with Sketch.</desc>
    <defs></defs>
    <g id="The-Icons" stroke="none" stroke-width="1" fill="none" fill-rule="evenodd">
        <path d="M23.8989922,6.92520269 C27.8034681,3.02072675 34.1407964,3.02764876 38.0428309,6.92968327 L40.8650744,9.75192671 C44.7720249,13.6588772 44.7703169,19.9950035 40.8695549,23.8957654 L23.8962147,40.8691057 C19.9917388,44.7735816 13.6544105,44.7666596 9.752376,40.8646251 L6.93013255,38.0423816 C3.02318206,34.1354311 3.02489001,27.7993049 6.92565197,23.8985429 L23.8989922,6.92520269 Z M9.7540791,26.72697 C7.41430307,29.0667461 7.41481799,32.8702128 9.75855968,35.2139545 L12.5808031,38.036198 C14.9231429,40.3785377 18.7278102,40.3806559 21.0677876,38.0406785 L9.75546784,26.7255813 L9.7540791,26.72697 Z M35.211312,23.8971542 L23.8976035,12.5834457 L12.583895,23.8971542 L23.8976035,35.2543945 L35.211312,23.8971542 Z M38.0411278,21.0673383 C40.3809039,18.7275623 40.3803889,14.9240955 38.0366472,12.5803538 L35.2144038,9.75811039 C32.872064,7.41577063 29.0673967,7.41365244 26.7274193,9.75362982 L38.0411278,21.0673383 Z M16.5857864,25.4142136 C15.8047379,24.633165 15.8047379,23.366835 16.5857864,22.5857864 C17.366835,21.8047379 18.633165,21.8047379 19.4142136,22.5857864 C20.1952621,23.366835 20.1952621,24.633165 19.4142136,25.4142136 C18.633165,26.1952621 17.366835,26.1952621 16.5857864,25.4142136 Z M22.5857864,31.4142136 C21.8047379,30.633165 21.8047379,29.366835 22.5857864,28.5857864 C23.366835,27.8047379 24.633165,27.8047379 25.4142136,28.5857864 C26.1952621,29.366835 26.1952621,30.633165 25.4142136,31.4142136 C24.633165,32.1952621 23.366835,32.1952621 22.5857864,31.4142136 Z M28.5857864,25.4142136 C27.8047379,24.633165 27.8047379,23.366835 28.5857864,22.5857864 C29.366835,21.8047379 30.633165,21.8047379 31.4142136,22.5857864 C32.1952621,23.366835 32.1952621,24.633165 31.4142136,25.4142136 C30.633165,26.1952621 29.366835,26.1952621 28.5857864,25.4142136 Z M22.5857864,19.4142136 C21.8047379,18.633165 21.8047379,17.366835 22.5857864,16.5857864 C23.366835,15.8047379 24.633165,15.8047379 25.4142136,16.5857864 C26.1952621,17.366835 26.1952621,18.633165 25.4142136,19.4142136 C24.633165,20.1952621 23.366835,20.1952621 22.5857864,19.4142136 Z" id="Combined-Shape" fill="#000000"></path>
    </g>
</svg>