<?xml version="1.0" encoding="UTF-8"?>
<svg width="48px" height="48px" viewBox="0 0 48 48" version="1.1" xmlns="http://www.w3.org/2000/svg" xmlns:xlink="http://www.w3.org/1999/xlink">
    <!-- Generator: Sketch 43.2 (39069) - http://www.bohemiancoding.com/sketch -->
    <title>theicons.co/svg/medical-11</title>
    <desc>Created with Sketch.</desc>
    <defs></defs>
    <g id="The-Icons" stroke="none" stroke-width="1" fill="none" fill-rule="evenodd">
        <path d="M14,12 L14,10 C14,6.68662779 16.683924,4 19.9962027,4 L28.0037973,4 C31.3146322,4 34,6.69000605 34,10 L34,12 L38.0007795,12 C42.4205166,12 46,15.5820787 46,20.0067025 L46,40.0087557 C46,42.2149259 44.2111631,44 42.0027084,44 L6.00029637,44 C3.7965464,44 2,42.2080509 2,39.9975696 L2,20.0067025 C2,15.585481 5.58129584,12 9.99922047,12 L14,12 Z M18,12 L30,12 L30,10 C30,8.89760126 29.1039464,8 28.0037973,8 L19.9962027,8 C18.8939651,8 18,8.89486567 18,10 L18,12 Z M26,26 L28.9941413,26 C30.1019465,26 31,26.8877296 31,28 C31,29.1045695 30.1029399,30 28.9941413,30 L26,30 L26,32.9941413 C26,34.1019465 25.1122704,35 24,35 C22.8954305,35 22,34.1029399 22,32.9941413 L22,30 L19.0058587,30 C17.8980535,30 17,29.1122704 17,28 C17,26.8954305 17.8970601,26 19.0058587,26 L22,26 L22,23.0058587 C22,21.8980535 22.8877296,21 24,21 C25.1045695,21 26,21.8970601 26,23.0058587 L26,26 Z M14,16 L14,40.0010045 C19.954363,40.0018255 28.0462854,40.0031035 34,40.0046638 L34,16 L14,16 Z M38,40.0058851 C40.4528511,40.0067833 42,40.0077489 42,40.0087557 L42,20.0067025 C42,17.790569 40.2107284,16 38.0007795,16 L38,40.0058851 Z M6,20.0067025 C6,20.0067025 6.00162751,40 5.99729162,40 C5.99729162,40 7.54557946,40.0001677 10,40.0004768 L10,16 C7.79148132,16 6,17.7935749 6,20.0067025 Z" id="Combined-Shape" fill="#000000"></path>
    </g>
</svg>