<?xml version="1.0" encoding="UTF-8"?>
<svg width="48px" height="48px" viewBox="0 0 48 48" version="1.1" xmlns="http://www.w3.org/2000/svg" xmlns:xlink="http://www.w3.org/1999/xlink">
    <!-- Generator: Sketch 43.2 (39069) - http://www.bohemiancoding.com/sketch -->
    <title>theicons.co/svg/medical-01</title>
    <desc>Created with Sketch.</desc>
    <defs></defs>
    <g id="The-Icons" stroke="none" stroke-width="1" fill="none" fill-rule="evenodd">
        <path d="M24.0124534,5.63074573 C24.0124534,5.63074573 24.1309285,5.51091136 25.1711657,5.09701838 C27.352496,4.22910351 29.7430742,3.80730921 32.2446571,4.08455596 C38.1394819,4.73787072 43.0509115,9.72146138 43.0509115,15.9352349 C43.0509115,21.0086807 41.8293273,27.6866806 39.9427361,33.3335697 C37.7498186,39.8973457 35.2177469,43.9472084 32.0221515,43.9436973 C29.1354783,43.9405255 26.6850586,41.117429 24,34.9089329 C21.2293701,41.287595 18.8737405,43.955608 15.9677018,43.908672 C13.0616632,43.8617361 10.2853867,39.8097025 8.10378747,33.2809747 C6.21871809,27.6396522 5,20.9823571 5,15.9089329 C5,9.66502563 9.9260861,4.76777402 15.8002385,4.08238618 C20.0048828,3.59179419 24.0124534,5.63074573 24.0124534,5.63074573 Z M29.6750055,10.767888 C30.2887373,11.6862599 30.0417777,12.9282754 29.1234057,13.5420072 C28.2050338,14.155739 26.9630183,13.9087794 26.3492865,12.9904074 C25.8797313,12.2877775 22.3227539,7.49426001 16.1948853,7.95702856 C12.27892,8.25275709 9,11.7963997 9,15.9089329 C9,20.5217612 10.1417799,26.7587782 11.8975858,32.0132626 C13.488324,36.7737597 15.4338747,39.8995284 16.0322982,39.9091937 C16.6326175,39.9188895 20.1748047,34.5668918 21.792587,29.2297006 C22.5267242,26.807724 25.470588,26.9172794 26.2253732,29.2825068 C28.1549072,35.3289768 31.3947024,39.9430055 32.0265465,39.9436997 C32.0951439,39.9437751 34.1708984,38.1094944 36.1488695,32.066062 C37.8743517,26.7940763 39.0509115,20.5483309 39.0509115,15.9352349 C39.0509115,11.8471883 35.738419,8.39792514 31.7927246,7.96062963 C30.4006751,7.80635084 29.0363448,8.02028824 27.7383475,8.42591714 C28.4534841,9.13370562 29.103866,9.9132499 29.6750055,10.767888 Z M17,9.90893286 C18.1045695,9.90893286 19,10.8043634 19,11.9089329 C19,13.0135024 18.1045695,13.9089329 17,13.9089329 C15.8954305,13.9089329 15,14.8043634 15,15.9089329 C15,17.0135024 14.1045695,17.9089329 13,17.9089329 C11.8954305,17.9089329 11,17.0135024 11,15.9089329 C11,12.5952244 13.6862915,9.90893286 17,9.90893286 Z" id="Combined-Shape" fill="#000000" fill-rule="nonzero"></path>
    </g>
</svg>