<?xml version="1.0" encoding="UTF-8"?>
<svg width="48px" height="48px" viewBox="0 0 48 48" version="1.1" xmlns="http://www.w3.org/2000/svg" xmlns:xlink="http://www.w3.org/1999/xlink">
    <!-- Generator: Sketch 43.2 (39069) - http://www.bohemiancoding.com/sketch -->
    <title>theicons.co/svg/medical-17</title>
    <desc>Created with Sketch.</desc>
    <defs></defs>
    <g id="The-Icons" stroke="none" stroke-width="1" fill="none" fill-rule="evenodd">
        <path d="M14.8160085,38.0000604 L33.2187336,38.0000604 C32.8279688,36.6352878 32.2935304,35.2932315 31.5975655,34.0000604 L16.4371766,34.0000604 C15.7412117,35.2932315 15.2067733,36.6352878 14.8160085,38.0000604 Z M28.7300574,30.0000604 C27.4182349,28.5968314 25.8553912,27.350532 24.0173711,26.283643 C22.1793509,27.350532 20.6165072,28.5968314 19.3046847,30.0000604 L28.7300574,30.0000604 Z M31.541275,14.0000604 C32.2407471,12.7062276 32.7814535,11.3641488 33.1807602,10.0000604 L14.8539819,10.0000604 C15.2532886,11.3641488 15.793995,12.7062276 16.4934671,14.0000604 L31.541275,14.0000604 Z M24.0173711,21.7107941 C25.8292381,20.6442628 27.3746967,19.3999781 28.6767257,18.0000604 L19.3580164,18.0000604 C20.6600454,19.3999781 22.205504,20.6442628 24.0173711,21.7107941 Z M14.0196948,43.8620856 C14.0043315,44.9270624 13.2643725,45.9190941 12.1624346,45.9952955 C11.0604967,46.0714969 10.1054261,45.2399732 10.0292247,44.1380353 C10.025962,44.090854 10.0221449,44.0189627 10.0186843,43.9235174 C9.97513008,42.7222598 10.070092,41.1262568 10.4136708,39.2704756 C10.9356091,36.4513167 11.9329271,33.6595601 13.5231185,31.0415413 C15.1725058,28.3260653 17.3749705,25.9453366 20.1780496,23.9902884 C17.4177845,22.0421897 15.2384292,19.6760297 13.5943716,16.9804619 C11.9787873,14.3315785 10.9616108,11.5064038 10.423426,8.65685396 C10.0727947,6.80035179 9.97112724,5.21846644 10.0066846,4.05204135 C10.0089563,3.97751771 10.0110973,3.92971519 10.0136975,3.88323174 C10.0782202,2.78054838 11.0244277,1.93895287 12.127111,2.00347557 C13.2297944,2.06799827 14.0048273,2.94390808 14.0048273,4.1739208 C14.0048273,5.40393353 14.0102824,6.00006042 14.0102824,6.00006042 L34.0102824,6.00006042 C34.0102824,6.00006042 34.0391261,4.56414733 34.0278749,4.1168891 C34.0391261,3.01751647 34.8049477,2.06799827 35.9076311,2.00347557 C37.0103144,1.93895287 37.9565219,2.78054838 38.0210446,3.88323174 C38.0236448,3.92971519 38.0257858,3.97751771 38.0280575,4.05204135 C38.0636149,5.21846644 37.9619474,6.80035179 37.6113161,8.65685396 C37.0731314,11.5064038 36.0559548,14.3315785 34.4403705,16.9804619 C32.7963129,19.6760297 30.6169576,22.0421897 27.8566925,23.9902884 C30.6597716,25.9453366 32.8622363,28.3260653 34.5116236,31.0415413 C36.101815,33.6595601 37.099133,36.4513167 37.6210713,39.2704756 C37.9646501,41.1262568 38.059612,42.7222598 38.0160578,43.9235174 C38.0125972,44.0189627 38.0087801,44.090854 38.0055174,44.1380353 C37.929316,45.2399732 36.9742454,46.0714969 35.8723075,45.9952955 C34.7703696,45.9190941 34.0304106,44.9636224 34.0186843,43.7785837 C34.0102824,43.4279779 34.0278749,42.0000604 34.0278749,42.0000604 L14.0196948,42.0000604 C14.0196948,42.0000604 14.0196948,43.4423212 14.0196948,43.8620856 Z" id="Combined-Shape" fill="#000000"></path>
    </g>
</svg>