<?xml version="1.0" encoding="UTF-8"?>
<svg width="48px" height="48px" viewBox="0 0 48 48" version="1.1" xmlns="http://www.w3.org/2000/svg" xmlns:xlink="http://www.w3.org/1999/xlink">
    <!-- Generator: Sketch 43.2 (39069) - http://www.bohemiancoding.com/sketch -->
    <title>theicons.co/svg/medical-06</title>
    <desc>Created with Sketch.</desc>
    <defs></defs>
    <g id="The-Icons" stroke="none" stroke-width="1" fill="none" fill-rule="evenodd">
        <path d="M37.1134679,13.9002644 L39.9445801,16.7313767 C41.5051943,18.2919909 41.5016875,20.8257533 39.9441303,22.3833106 L22.969097,39.3583438 C21.4082343,40.9192065 18.878011,40.9196416 17.3171631,39.3587937 L15.9002644,37.941895 L14.4845752,39.3575842 C13.7043416,40.1378178 12.4448412,40.1433261 11.6589663,39.3574511 L7.41078305,43.6029493 C6.63205407,44.3816782 5.37304985,44.3852432 4.58655594,43.5987493 C3.80550736,42.8177007 3.80485912,41.5520189 4.58235592,40.7745221 L8.82919663,36.5276814 C8.04754697,35.7460318 8.05014924,34.4783017 8.82772098,33.70073 L10.2434102,32.2850408 L8.82651154,30.8681421 C7.26589731,29.3075279 7.2694041,26.7737655 8.82696137,25.2162082 L25.8019946,8.24117493 C27.3628573,6.68031227 29.8930806,6.67987715 31.4539285,8.2407251 L34.2850408,11.0718373 L37.1134679,8.24341019 L34.2808407,5.41078305 C33.5021118,4.63205407 33.4985468,3.37304985 34.2850408,2.58655594 C35.0660893,1.80550736 36.3317711,1.80485912 37.1092679,2.58235592 L45.6029493,11.0760373 C46.3816782,11.8547663 46.3852432,13.1137705 45.5987493,13.9002644 C44.8177007,14.681313 43.5520189,14.6819613 42.7745221,13.9044645 L39.941895,11.0718373 L37.1134679,13.9002644 Z M37.1116793,19.5508596 L34.2849244,16.7288079 L25.7997594,25.2139729 L28.6253509,28.0395644 L37.1116793,19.5508596 Z M20.1478219,36.5227647 L11.6638828,28.0441886 L17.3177661,22.388834 L25.7974599,30.8685277 L20.1478219,36.5227647 Z M28.6277403,11.0722835 L31.4561407,13.9007373 L22.9713323,22.3855458 L20.1457415,19.5599551 L28.6277403,11.0722835 Z" id="Rectangle-901" fill="#000000"></path>
    </g>
</svg>