<?xml version="1.0" encoding="UTF-8"?>
<svg width="48px" height="48px" viewBox="0 0 48 48" version="1.1" xmlns="http://www.w3.org/2000/svg" xmlns:xlink="http://www.w3.org/1999/xlink">
    <!-- Generator: Sketch 43.2 (39069) - http://www.bohemiancoding.com/sketch -->
    <title>theicons.co/svg/medical-18</title>
    <desc>Created with Sketch.</desc>
    <defs></defs>
    <g id="The-Icons" stroke="none" stroke-width="1" fill="none" fill-rule="evenodd">
        <path d="M26,12.0095579 C26,10.9027201 25.0980897,10 23.9904421,10 L10.0095579,10 C8.90272009,10 8,10.9019103 8,12.0095579 L8,14.000785 C8.13025142,14.0853878 8.26061081,14.1652917 8.3613975,14.2164267 C9.31785419,14.7016938 10.5197326,15 12,15 C13.4513056,15 14.4242103,14.7794214 16.4545742,14.1026334 C16.5848567,14.0591895 16.5848567,14.0591895 16.7167473,14.0152754 C18.9031458,13.2881133 20.1907728,13 22,13 C23.4562851,13 24.7927754,13.2343718 26,13.6486073 L26,12.0095579 Z M25.5723323,17.7939548 C24.5692359,17.2995775 23.3796167,17 22,17 C20.7220351,17 19.7903266,17.2084747 17.9790997,17.8108605 C17.8501942,17.8537808 17.8501942,17.8537808 17.7194852,17.8973666 C15.311542,18.7000143 13.9883973,19 12,19 C10.5183579,19 9.18375129,18.7796363 8,18.3861565 L8,25.9904421 C8,27.0972799 8.90191025,28 10.0095579,28 L23.9904421,28 C25.0972799,28 26,27.0980897 26,25.9904421 L26,18.0217923 C25.8742641,17.949237 25.731564,17.8724323 25.5723323,17.7939548 Z M35.9981014,32 L40.0018986,32 C41.1054196,32 42,32.8867064 42,33.9981014 L44.0018986,34 C45.1054196,34 46,34.8877296 46,36 C46,37.1045695 45.1132936,38 44.0018986,38 L42,38 C42,39.1054196 41.1132936,40 40.0018986,40 L35.9981014,40 C34.8954637,40 34.0014321,39.1147124 34.0000017,38.0045667 C33.8316584,38.0022139 33.6495676,37.9993727 33.4526367,37.9959717 C32.2792969,37.975708 31.6735389,38.7835045 30.5869764,39.6781029 C30.3286365,39.8908017 26.1168614,43.5733833 24.8331635,44.2335264 C20.2024763,46.6148625 15,43.1239821 15,38.213498 L15,32 L13,32 L13,34.0020869 C13,35.1055038 12.1122704,36 11,36 C9.8954305,36 9,35.1017394 9,34.0020869 L9,31.9153983 C6.16263073,31.434542 4,28.961852 4,25.9904421 L4,12.0095579 C4,8.6919672 6.69438435,6 10.0095579,6 L13,6 C13,3.790861 14.790861,2 17,2 C19.209139,2 21,3.790861 21,6 L23.9904421,6 C27.3080328,6 30,8.69438435 30,12.0095579 L30,25.9904421 C30,29.3080328 27.3056157,32 23.9904421,32 L19,32 L19,38.213498 C19,40.1836856 21.1214002,41.6071528 23.0188873,40.6313679 C23.9018027,40.1773277 27.7506738,36.7996516 28.0602945,36.544732 C29.7953663,35.1161969 31.3193851,34.0200195 33.0650635,34.0200195 L34,34.0200195 C34,32.8945804 34.8867064,32 35.9981014,32 Z M21,25 C19.3431458,25 18,23.6568542 18,22 C18,20.3431458 19.3431458,19 21,19 C22.6568542,19 24,20.3431458 24,22 C24,23.6568542 22.6568542,25 21,25 Z" id="Combined-Shape" fill="#000000"></path>
    </g>
</svg>