<?xml version="1.0" encoding="UTF-8"?>
<svg width="48px" height="48px" viewBox="0 0 48 48" version="1.1" xmlns="http://www.w3.org/2000/svg" xmlns:xlink="http://www.w3.org/1999/xlink">
    <!-- Generator: Sketch 43.2 (39069) - http://www.bohemiancoding.com/sketch -->
    <title>theicons.co/svg/medical-15</title>
    <desc>Created with Sketch.</desc>
    <defs></defs>
    <g id="The-Icons" stroke="none" stroke-width="1" fill="none" fill-rule="evenodd">
        <path d="M22,20.00077 C22,22.2094838 20.2111696,24 18.0037973,24 L17,24 C17,25.6568542 15.6568542,27 14,27 C12.3431458,27 11,25.6568542 11,24 L9.99620271,24 C7.78916089,24 6,22.2075324 6,20.00077 L6,7.99922997 C6,5.79051625 7.78883037,4 9.99620271,4 L20.0059397,4 C22.6459384,4.00601257 24.8798476,5.70666895 25.682395,8.06868619 C31.899018,8.50071626 36.2628481,11.5307046 39.0975553,16.5691258 C41.3124792,20.5059414 41.9595674,26.1546779 41.9997723,35.9390068 C42,40.418278 38.418278,44 34,44 L12.9918031,44 C11.3401758,44 10,42.654313 10,41.009222 L10,34 L7.99600776,34 C6.89364311,34 6,33.1122704 6,32 C6,30.8954305 6.89451376,30 7.99406028,30 L20.0059397,30 C21.1072288,30 22,30.8938998 22,32.0048815 L22,34 L26.252035,34 C27.1401206,30.5495456 30.2723211,28 34,28 C35.3787574,28 36.6760509,28.348788 37.8084601,28.9629433 C37.5133813,24.0166319 36.8496396,20.7312844 35.6114291,18.5304836 C33.4504995,14.6896377 30.3251537,12.4627635 25.6311872,12.0758854 C25.0157193,13.7448822 23.679453,15.0649871 22,15.6585886 L22,20.00077 Z M10,8 L10,20 L18,20 L18,15.6585886 C15.6696153,14.8349158 14,12.6124377 14,10 C14,9.29872915 14.1203084,8.62555785 14.3414114,8 L10,8 Z M34,32 C31.790861,32 30,33.790861 30,36 C30,38.209139 31.790861,40 34,40 C36.2078458,40 37.9979032,38.211235 37.9999982,36.0038791 L37.9998403,35.9638839 C37.9804486,33.7713754 36.1970878,32 34,32 Z M26.252035,38 L14.0027466,38 L14.0009061,40 L27.0702576,40 C26.712178,39.3809871 26.4346584,38.7095418 26.252035,38 Z M20,12 C21.1045695,12 22,11.1045695 22,10 C22,8.8954305 21.1045695,8 20,8 C18.8954305,8 18,8.8954305 18,10 C18,11.1045695 18.8954305,12 20,12 Z" id="Combined-Shape" fill="#000000"></path>
    </g>
</svg>