<?xml version="1.0" encoding="UTF-8"?>
<svg width="48px" height="48px" viewBox="0 0 48 48" version="1.1" xmlns="http://www.w3.org/2000/svg" xmlns:xlink="http://www.w3.org/1999/xlink">
    <!-- Generator: Sketch 43.2 (39069) - http://www.bohemiancoding.com/sketch -->
    <title>theicons.co/svg/medical-09</title>
    <desc>Created with Sketch.</desc>
    <defs></defs>
    <g id="The-Icons" stroke="none" stroke-width="1" fill="none" fill-rule="evenodd">
        <path d="M40,10 L8,10 L8,22 L10.7858276,22 L12.2111456,19.1055728 C12.9481942,17.6314757 15.0518058,17.6314757 15.7888544,19.1055728 L17.4875116,22.5028873 L20.0769521,13.4505577 C20.653157,11.4338406 23.5498239,11.5510806 23.9611614,13.6077677 L26.3414503,25.5092124 L28.0769521,19.4505577 C28.4491977,18.1476981 29.9819768,17.5842837 31.1094004,18.3358994 L36.618396,22 L40,22 L40,10 Z M36,26 C35.60515,26 35.2191346,25.8831239 34.8905996,25.6641006 L31.1923621,23.1986089 L27.9230479,34.5494423 C27.346843,36.5661594 24.4501761,36.4489194 24.0388386,34.3922323 L21.6573079,22.4845785 L19.9230479,28.5494423 C19.4219517,30.303279 17.0268712,30.5258783 16.2111456,28.8944272 L14.0044318,24.4809995 L13.7888544,24.8944272 C13.4500704,25.5719952 12.7575441,26 12,26 L8,26 L8,38 L40,38 L40,26 L36,26 Z M4,9.99017859 C4,7.7864638 5.79642476,6 8.00002553,6 L39.9999745,6 C42.2091276,6 44,7.7852456 44,9.99017859 L44,38.0098214 C44,40.2135362 42.2035752,42 39.9999745,42 L8.00002553,42 C5.79087243,42 4,40.2147544 4,38.0098214 L4,9.99017859 Z" id="Combined-Shape" fill="#000000"></path>
    </g>
</svg>