<?xml version="1.0" encoding="UTF-8"?>
<svg width="48px" height="48px" viewBox="0 0 48 48" version="1.1" xmlns="http://www.w3.org/2000/svg" xmlns:xlink="http://www.w3.org/1999/xlink">
    <!-- Generator: Sketch 43.2 (39069) - http://www.bohemiancoding.com/sketch -->
    <title>theicons.co/svg/medical-08</title>
    <desc>Created with Sketch.</desc>
    <defs></defs>
    <g id="The-Icons" stroke="none" stroke-width="1" fill="none" fill-rule="evenodd">
        <path d="M18.0118458,38.6627614 C15.6752753,37.8424425 14,35.616862 14,33 C14,29.6862915 16.6862915,27 20,27 C21.480111,27 22.6458244,27.4068604 23.3258057,28 C24.001929,28 24.4291992,27.9928188 24.6932562,27.9928196 C25.6618264,27.3521547 26.805305,27 28,27 C31.3137085,27 34,29.6862915 34,33 C34,36.3137085 31.4440918,38.2022095 30,38.6504517 L30,40 L38,40 L38,8 L30,8 L30,13.3495483 C31.4440918,13.7977905 34,15.6862915 34,19 C34,22.3137085 31.3137085,25 28,25 C26.805305,25 25.6618264,24.6478453 24.6932562,24.0071804 C24.4291992,24.0071812 24.001929,24 23.3258057,24 C22.6458244,24.5931396 21.480111,25 20,25 C16.6862915,25 14,22.3137085 14,19 C14,16.383138 15.6752753,14.1575575 18.0118458,13.3372386 C18.0118457,12.9801401 18.0069462,10.0476155 18.0034492,8 L10,8 L10,40 L18.0088673,40 C18.0105757,39.3723337 18.0118457,38.8445721 18.0118458,38.6627614 Z M26,40 L26,37 C26,35.8954305 26.8954305,35 28,35 C29.1045695,35 30,34.1045695 30,33 C30,31.8954305 29.1045695,31 28,31 C27.5041459,31 27.0413046,31.1785036 26.6776425,31.4994784 C26.3122143,31.8220119 25.8415827,32 25.3541756,32 L22.6458244,32 C22.1584173,32 21.6877857,31.8220119 21.3223575,31.4994784 C20.9586954,31.1785036 20.4958541,31 20,31 C18.8954305,31 18,31.8954305 18,33 C18,34.1045695 18.8954305,35 20,35 C21.1045695,35 22,35.8954305 22,37 L22,40 L26,40 Z M22,8 L22,15 C22,16.1045695 21.1045695,17 20,17 C18.8954305,17 18,17.8954305 18,19 C18,20.1045695 18.8954305,21 20,21 C20.4958541,21 20.9586954,20.8214964 21.3223575,20.5005216 C21.6877857,20.1779881 22.1584173,20 22.6458244,20 L25.3541756,20 C25.8415827,20 26.3122143,20.1779881 26.6776425,20.5005216 C27.0413046,20.8214964 27.5041459,21 28,21 C29.1045695,21 30,20.1045695 30,19 C30,17.8954305 29.1045695,17 28,17 C26.8954305,17 26,16.1045695 26,15 L26,8 L22,8 Z M6,8.00002553 C6,5.79087243 7.7852456,4 9.99017859,4 L38.0098214,4 C40.2135362,4 42,5.79642476 42,8.00002553 L42,39.9999745 C42,42.2091276 40.2147544,44 38.0098214,44 L9.99017859,44 C7.7864638,44 6,42.2035752 6,39.9999745 L6,8.00002553 Z" id="Combined-Shape" fill="#000000"></path>
    </g>
</svg>