<?xml version="1.0" encoding="UTF-8"?>
<svg width="48px" height="48px" viewBox="0 0 48 48" version="1.1" xmlns="http://www.w3.org/2000/svg" xmlns:xlink="http://www.w3.org/1999/xlink">
    <!-- Generator: Sketch 43.2 (39069) - http://www.bohemiancoding.com/sketch -->
    <title>theicons.co/svg/nature-08</title>
    <desc>Created with Sketch.</desc>
    <defs></defs>
    <g id="The-Icons" stroke="none" stroke-width="1" fill="none" fill-rule="evenodd">
        <path d="M16.4343314,38.322194 C16.2579133,39.3376265 16.1390368,40.2783505 16.0670132,41.1181355 C16.0248171,41.6101363 16.0076169,41.9502271 16.0044091,42.1123564 C15.9856309,43.0614735 15.3086513,43.8430628 14.4176589,44.0301712 C14.2684282,44.0639285 14.1129321,44.080979 13.953266,44.0792718 C12.8487596,44.0674622 11.9629538,43.1625094 11.9747634,42.058003 C11.9751452,41.9836022 11.9708558,41.8248008 11.9564576,41.5998281 C11.9323418,41.2230168 11.8875448,40.8027946 11.8170201,40.3513044 C11.618946,39.0832595 11.2601733,37.8228761 10.7094615,36.6657895 C9.62007476,34.3769063 7.92333613,32.7655408 5.42222259,32.0100654 C4.36483701,31.6906761 3.76657278,30.5745796 4.08596204,29.517194 C4.4053513,28.4598084 5.52144784,27.8615442 6.57883342,28.1809334 C9.62928962,29.1023409 11.9021783,30.9334825 13.4699212,33.4022712 C13.6722108,32.7072161 13.8954652,32.0161198 14.14075,31.3310223 C11.6425605,28.8875197 10.4549958,25.352158 10.4549958,21.7068275 C10.4549958,11.7058039 19.2684979,0.859148448 41.9759329,6.59180852 C42.955871,6.83920114 43.0793953,6.88785295 43.0793953,6.88785295 C44.1383177,7.18900642 44.3851069,8.08827848 43.6358282,8.89956377 C43.6358282,8.89956377 42.8377764,9.72944894 41.9951408,10.7427056 C37.981978,15.5684732 37.2768339,18.6482975 35.9713532,24.1821636 C34.3917634,30.8779644 29.5977936,34.5981787 22.9703766,34.5981787 C20.9139317,34.5981788 19.1248314,34.2391856 17.5929297,33.6021544 C17.0918602,35.1516897 16.7098333,36.7364518 16.4343314,38.322194 Z M22.9703766,30.5981787 C27.7949957,30.5981787 30.9367454,28.1023862 32.0782176,23.2637436 C32.39844,21.9063373 32.503547,21.4658105 32.6628198,20.8253071 C33.3266923,18.1555936 33.9215966,16.323441 34.8082352,14.4479442 C35.5564105,12.8653373 36.4882602,11.338056 37.6936713,9.73271082 C31.4390656,8.38913955 24.3821804,8.70521755 19.8651175,11.6126713 C16.3305478,13.8877333 14.4549958,17.593668 14.4549958,21.7068275 C14.4549958,23.9021889 14.9542987,25.7847336 15.9186656,27.2448788 C18.072155,23.1088981 21.0465543,19.7270254 24.9597686,17.3800794 C25.9070341,16.811958 27.1354979,17.119315 27.7036193,18.0665804 C28.2717407,19.0138459 27.9643837,20.2423097 27.0171183,20.8104311 C23.5576172,22.8852631 20.9530996,25.975798 19.0903852,29.8432322 C20.1878689,30.3446376 21.4886282,30.5981787 22.9703766,30.5981787 Z" id="Shape" fill="#000000" fill-rule="nonzero"></path>
    </g>
</svg>