<?xml version="1.0" encoding="UTF-8"?>
<svg width="48px" height="48px" viewBox="0 0 48 48" version="1.1" xmlns="http://www.w3.org/2000/svg" xmlns:xlink="http://www.w3.org/1999/xlink">
    <!-- Generator: Sketch 43.2 (39069) - http://www.bohemiancoding.com/sketch -->
    <title>theicons.co/svg/nature-15</title>
    <desc>Created with Sketch.</desc>
    <defs></defs>
    <g id="The-Icons" stroke="none" stroke-width="1" fill="none" fill-rule="evenodd">
        <path d="M12,9.125 L38.0703207,16.4572777 C39.1360531,16.7570149 40,17.8982606 40,18.9979131 L40,21.0020869 C40,22.1055038 39.1440773,23.2407283 38.0703207,23.5427223 L12,30.875 L12,42.0027084 C12,43.1057821 11.1122704,44 10,44 C8.8954305,44 8,43.1084602 8,42.0027084 L8,5.99729162 C8,4.89421792 8.88772964,4 10,4 C11.1045695,4 12,4.89153983 12,5.99729162 L12,9.125 Z M12,13.3035889 L12.0344986,26.7101047 L36,20.0068469 L12,13.3035889 Z" id="Combined-Shape" fill="#000000"></path>
    </g>
</svg>