<?xml version="1.0" encoding="UTF-8"?>
<svg width="48px" height="48px" viewBox="0 0 48 48" version="1.1" xmlns="http://www.w3.org/2000/svg" xmlns:xlink="http://www.w3.org/1999/xlink">
    <!-- Generator: Sketch 43.2 (39069) - http://www.bohemiancoding.com/sketch -->
    <title>theicons.co/svg/nature-05</title>
    <desc>Created with Sketch.</desc>
    <defs></defs>
    <g id="The-Icons" stroke="none" stroke-width="1" fill="none" fill-rule="evenodd">
        <path d="M14.2487045,44.1903894 C11.6186307,45.7088632 8.25222728,44.8019464 6.73653464,42.1766898 C5.21775158,39.5460803 6.12734316,36.1775537 8.7487045,34.66411 L13.0570427,32.1766898 L8.7487045,29.6892695 C6.11863071,28.1707957 5.220842,24.8019464 6.73653464,22.1766898 C8.2553177,19.5460803 11.6273432,18.6495464 14.2487045,20.1629901 L23.9918056,25.7881721 C28.0695614,23.4498195 33.8653809,20.1629901 33.8653809,20.1629901 C34.6410795,19.7151403 35.4808285,19.4782659 36.3182571,19.4342274 C38.3240065,19.3227227 40.3180444,20.3180889 41.3911081,22.1766898 C42.9098912,24.8072992 42.0085778,28.1710464 39.3779684,29.6898295 C39.2979704,29.7360164 35.0570427,32.1766898 35.0570427,32.1766898 L39.3653809,34.66411 C41.9954547,36.1825838 42.8932434,39.5514331 41.3775508,42.1766898 C39.8587677,44.8072992 36.4867423,45.7038331 33.8653809,44.1903894 L24.0570427,38.5275427 L14.2487045,44.1903894 Z M17.0570427,34.4860908 L10.7487045,38.1282116 C10.0366837,38.539297 9.78863266,39.4630786 10.2006363,40.1766898 C10.6132651,40.8913839 11.5344081,41.138687 12.2487045,40.7262878 L20.0570427,36.2181416 L17.0570427,34.4860908 Z M31.8648287,27.6766898 C31.6035903,27.2242117 31.4139523,26.7500432 31.2923992,26.2673039 L28.056072,28.1346775 L31.3221634,30.0203562 C31.8020831,29.660537 32.2882737,29.2726375 32.8234574,28.9005317 C32.4561884,28.5485909 32.1319691,28.1393905 31.8648287,27.6766898 Z M35.8653809,40.7262878 C36.5774018,41.1373732 37.5014456,40.8903009 37.9134492,40.1766898 C38.326078,39.4619957 38.0796773,38.5406108 37.3653809,38.1282116 L16.8335187,26.2741354 C16.7118996,26.7545165 16.52282,27.2263463 16.2628141,27.6766898 C16.0028081,28.1270333 15.6887314,28.5266958 15.3335187,28.8722116 L35.8653809,40.7262878 Z M10.2006363,24.1766898 C9.78642269,24.8941287 10.0322354,25.8115143 10.7496744,26.2257279 C11.4671133,26.6399414 12.3844989,26.3941287 12.7987125,25.6766898 C13.212926,24.9592508 12.9671133,24.0418652 12.2496744,23.6276517 C11.5322354,23.2134381 10.6148498,23.4592508 10.2006363,24.1766898 Z M37.9134492,24.1766898 C37.4992356,23.4592508 36.58185,23.2134381 35.8644111,23.6276517 C35.1469721,24.0418652 34.9011594,24.9592508 35.315373,25.6766898 C35.7295865,26.3941287 36.6469721,26.6399414 37.3644111,26.2257279 C38.08185,25.8115143 38.3276627,24.8941287 37.9134492,24.1766898 Z M24.5244566,21.2872849 C22.7744566,21.2872849 21.6357059,20.8493748 21.6357059,20.8493748 C21.1122759,20.6950802 20.2931651,20.3767534 19.8170054,20.1014646 C19.8170054,20.1014646 16.057531,18.6400095 16.057531,13.6937799 C16.057531,9.39782247 19.706141,7.52889056 20.6879521,6.11119574 C21.6697632,4.69350093 22.278137,2.49366421 22.278137,2.49366421 C22.4394496,1.97896403 22.93062,1.84215228 23.3350178,2.20029147 C23.3350178,2.20029147 27.2013894,4.74540988 26.6106201,10.7753452 C28.0119094,9.73825994 28.9529499,7.50088997 28.9529499,7.50088997 C29.1916192,7.00427036 29.6380907,6.97238852 29.9299573,7.44160726 C29.9299573,7.44160726 35.2290715,14.4937092 29.0212828,19.6740036 C28.1577755,20.3383515 26.2744566,21.2872849 24.5244566,21.2872849 Z" id="Path-250-Copy" fill="#000000"></path>
    </g>
</svg>