<?xml version="1.0" encoding="UTF-8"?>
<svg width="48px" height="48px" viewBox="0 0 48 48" version="1.1" xmlns="http://www.w3.org/2000/svg" xmlns:xlink="http://www.w3.org/1999/xlink">
    <!-- Generator: Sketch 43.2 (39069) - http://www.bohemiancoding.com/sketch -->
    <title>theicons.co/svg/nature-10</title>
    <desc>Created with Sketch.</desc>
    <defs></defs>
    <g id="The-Icons" stroke="none" stroke-width="1" fill="none" fill-rule="evenodd">
        <path d="M35.9957423,11.9797363 C38.2072328,11.9797363 40,13.7675359 40,15.9894993 L40,17.9699733 C40,19.5755274 39.05962,20.9606823 37.6982213,21.6010811 L36.2492575,38.9886459 C36.1115964,40.6405795 34.6582294,41.9797363 33.0089096,41.9797363 L14.9910904,41.9797363 C13.3391568,41.9797363 11.8881858,40.6379657 11.7507425,38.9886459 L10.3018187,21.6015609 C8.94161573,20.9625745 8,19.5802919 8,17.9699733 L8,15.9894993 C8,13.7749684 9.78902751,11.9797363 12.0042577,11.9797363 L21.6230268,11.9797363 C22.065019,10.935373 22.5709146,9.91619172 23.1545546,8.95322993 C24.9935656,5.91900107 27.2093557,4 30.019043,4 C32.954633,4 34.8266353,5.60012192 35.3098748,8.07568693 C35.5561276,9.3372038 35.4166721,10.780347 35.0590842,11.9797363 L35.9957423,11.9797363 Z M31.0907496,11.2170665 C31.3573443,10.5906327 31.5203003,9.54042343 31.3839728,8.84203767 C31.2616478,8.21538454 31.0096668,8 30.019043,8 C28.998469,8 27.7590589,9.07340005 26.5753038,11.0265064 C26.3883378,11.3349861 26.2094322,11.6541031 26.0391918,11.9797363 L30.7728142,11.9797363 C30.8913011,11.6909998 30.997482,11.4362233 31.0907496,11.2170665 Z M29.72432,25.7217951 C29.9012678,26.104371 30,26.5305236 30,26.9797363 C30,28.6365906 28.6568542,29.9797363 27,29.9797363 C25.3431458,29.9797363 24,28.6365906 24,26.9797363 C24,25.6553428 24.8582002,24.5313927 26.0488279,24.1336588 C26.0918182,24.0206914 26.6407168,22.5803975 26.8703413,21.9797363 L14.3515338,21.9797363 L15.7022095,37.9797363 L32.3286133,37.9797363 L33.6546308,21.9797363 L31.153588,21.9797363 C30.746435,23.0411079 29.7874261,25.5559109 29.72432,25.7217951 Z M12.0042577,15.9797363 C12.0012682,15.9797363 12,15.9810071 12,15.9894993 L12,17.9699733 C12,17.9803138 11.9994226,17.9797363 12.0042577,17.9797363 L28.4074311,17.9797363 C28.6814957,17.2708249 28.9406872,16.6030751 29.1838167,15.9797363 L12.0042577,15.9797363 Z M32.6975543,17.9797363 L35.9957423,17.9797363 C35.9987318,17.9797363 36,17.9784656 36,17.9699733 L36,15.9894993 C36,15.9791588 36.0005774,15.9797363 35.9957423,15.9797363 L33.4800037,15.9797363 C33.2404562,16.5877475 32.978954,17.2562481 32.6975543,17.9797363 Z" id="Combined-Shape" fill="#000000"></path>
    </g>
</svg>