<?xml version="1.0" encoding="UTF-8"?>
<svg width="48px" height="48px" viewBox="0 0 48 48" version="1.1" xmlns="http://www.w3.org/2000/svg" xmlns:xlink="http://www.w3.org/1999/xlink">
    <!-- Generator: Sketch 43.2 (39069) - http://www.bohemiancoding.com/sketch -->
    <title>theicons.co/svg/nature-13</title>
    <desc>Created with Sketch.</desc>
    <defs></defs>
    <g id="The-Icons" stroke="none" stroke-width="1" fill="none" fill-rule="evenodd">
        <path d="M34.6965876,22 C31.2460422,22 29.1478883,21.3727459 25.9352312,19.7952534 C25.6775744,19.6685326 25.5320065,19.5969187 25.4264081,19.5451791 C23.0798465,18.3954443 21.7790562,18 19.648168,18 C14.6623535,18 12.014419,20.8544571 12,20.86833 L12,23.9415526 C14.1675787,22.7193495 16.7231222,22 19.648168,22 C22.502169,22 24.3408647,22.5589692 27.1863699,23.9531693 C30.4296188,25.5422502 31.9606513,26 34.6965876,26 C38.3675537,26 39.9943046,23.4361973 40,23.4282479 L40,20.6661793 C38.4936128,21.5160191 36.7230139,22 34.6965876,22 Z M43.9977259,24.1053896 C43.9815008,24.4477424 43.8790974,24.7674448 43.7112525,25.0431361 C43.3324113,25.7429717 42.6595383,26.6376817 41.6351116,27.5173501 C39.8303638,29.0670751 37.5100432,30 34.6965876,30 C31.2460422,30 29.147037,29.3748848 25.9352312,27.7952534 C23.5621784,26.6281379 21.7790562,26 19.648168,26 C17.2294362,26 14.1173325,26.8166068 12,28.8257823 C11.9847311,28.8402712 12,42.0027084 12,42.0027084 C12,43.1057821 11.1122704,44 10,44 C8.8954305,44 8,43.1084602 8,42.0027084 L8,5.99729162 C8,4.89421792 8.88772964,4 10,4 C11.1045695,4 12,4.89153983 12,5.99729162 L12,7.94155263 C14.1675787,6.71934954 16.7231222,6 19.648168,6 C22.502169,6 24.3408647,6.55896917 27.1863699,7.9531693 C30.3119447,9.48459394 31.9606513,10 34.6965876,10 C36.5121837,10 37.9225824,9.43292492 39.0292346,8.48264993 C39.4137275,8.15248841 40,7.48614502 40.1844466,7.15193203 C40.4765693,6.52341929 41.0881679,6.0756383 41.8173794,6.00808535 C43.3531616,5.86581301 43.9725819,7.22189058 43.9986028,7.91613574 C44.0004133,7.95836411 44.0002616,24.0568374 43.9977259,24.1053896 Z M40,12.6661793 C38.4936128,13.5160191 36.7230139,14 34.6965876,14 C31.2460422,14 29.1440011,13.3733917 25.9352312,11.7952534 C23.2392507,10.4693154 21.7790562,10 19.648168,10 C17.2294362,10 15.1966283,10.6359481 13.5166883,11.6928475 C12.9373561,12.0573224 12.014419,12.8544571 12,12.86833 L12,15.9415526 C14.1675787,14.7193495 16.7231222,14 19.648168,14 C22.502169,14 24.394021,14.5796319 27.6982571,16.2047466 C30.4074514,17.5372032 31.9606513,18 34.6965876,18 C36.5121837,18 37.9225824,17.4329249 39.0292346,16.4826499 C39.4137275,16.1524884 39.7313343,15.7996088 39.9825737,15.4524481 C39.9884959,15.4442648 39.9943046,15.4361973 40,15.4282479 L40,12.6661793 Z" id="Path" fill="#000000"></path>
    </g>
</svg>