<?xml version="1.0" encoding="UTF-8"?>
<svg width="48px" height="48px" viewBox="0 0 48 48" version="1.1" xmlns="http://www.w3.org/2000/svg" xmlns:xlink="http://www.w3.org/1999/xlink">
    <!-- Generator: Sketch 43.2 (39069) - http://www.bohemiancoding.com/sketch -->
    <title>theicons.co/svg/nature-09</title>
    <desc>Created with Sketch.</desc>
    <defs></defs>
    <g id="The-Icons" stroke="none" stroke-width="1" fill="none" fill-rule="evenodd">
        <path d="M10,25.8001083 C5.43570198,24.8729102 2,20.8304598 2,15.9956275 C2,10.4791101 6.47593818,6 12,6 C16.8380669,6 20.8736751,9.44061158 21.8000506,14 L28.0092049,14 C29.1086907,14 30.0642784,14.8998975 30.1422317,15.9912443 L30.618545,22.6596296 L34.0047651,19.2734095 L34.0172983,12.101877 C34.0211608,9.89175529 35.2936598,9.36923122 36.8516622,10.926946 L45.0858378,19.1596018 C46.6473512,20.7208271 46.1227825,21.9881939 43.907598,21.9903512 L36.93789,21.9971388 L30.9956686,27.9393603 L31.8577683,40.0087557 C31.9363207,41.1084896 31.1103261,42 30.008845,42 L11.991155,42 C10.8914705,42 10,41.1001025 10,40.0087557 L10,25.8001083 Z M10,15.9912443 C10,14.8915104 10.8982124,14 11.9907951,14 L17.6583771,14 C16.8341206,11.6718938 14.6102543,10 12,10 C8.68677465,10 6,12.6865518 6,15.9956275 C6,18.6075201 7.67125933,20.8333756 10,21.65823 L10,15.9912443 Z M27.7085566,38 L26.291748,18 L14,18 L14,38 L27.7085566,38 Z" id="Combined-Shape" fill="#000000"></path>
    </g>
</svg>