<?xml version="1.0" encoding="UTF-8"?>
<svg width="48px" height="48px" viewBox="0 0 48 48" version="1.1" xmlns="http://www.w3.org/2000/svg" xmlns:xlink="http://www.w3.org/1999/xlink">
    <!-- Generator: Sketch 43.2 (39069) - http://www.bohemiancoding.com/sketch -->
    <title>theicons.co/svg/nature-02</title>
    <desc>Created with Sketch.</desc>
    <defs></defs>
    <g id="The-Icons" stroke="none" stroke-width="1" fill="none" fill-rule="evenodd">
        <path d="M26,31.9590218 C27.4916539,31.8362305 28.9286352,31.4391961 30.2563058,30.7910792 L30.5278791,30.6585077 C31.030799,30.4130018 31.7697067,30.5083788 32.1921909,30.8647453 L32.423191,31.0595945 C33.140047,31.6642645 34.041474,32 35,32 C37.209139,32 39,30.209139 39,28 C39,26.7322139 38.4087019,25.566315 37.4174047,24.8127186 L37.1775721,24.6303948 C36.7334321,24.292754 36.4857049,23.5918299 36.6119693,23.055495 L36.6810064,22.7622451 C36.8922294,21.8650298 37,20.940316 37,20 C37,13.372583 31.627417,8 25,8 C19.5958624,8 14.9000049,11.6042516 13.4514104,16.7264402 L13.4076805,16.8810677 C13.257605,17.4117306 12.7049878,17.9475285 12.172184,18.0820189 L12.0163789,18.1213472 C10.2568797,18.5654802 9,20.1576512 9,22 C9,24.209139 10.790861,26 13,26 C13.111639,26 13.4855657,25.9683802 13.4855657,25.9683802 C14.0414463,25.9266351 14.733787,26.2572648 15.0463232,26.707006 L15.1377166,26.8385215 C16.7923658,29.2195696 19.2276147,30.9080728 22,31.621437 L22,25.8280507 L16.5891869,20.413759 C15.8083894,19.6324595 15.8087963,18.3661296 16.5900958,17.5853321 C17.3713954,16.8045345 18.6377252,16.8049414 19.4185228,17.586241 L22,20.1693778 L22,14.9982138 C22,13.8946308 22.8877296,13 24,13 C25.1045695,13 26,13.8943377 26,14.9982138 L26,20.1732351 L28.5853321,17.586241 C29.3661296,16.8049414 30.6324595,16.8045345 31.413759,17.5853321 C32.1950586,18.3661296 32.1954655,19.6324595 31.4146679,20.413759 L26,25.831908 L26,31.9590218 Z M12.5061268,29.9963552 C8.71936035,29.9298096 5,26.418278 5,22 C5,18.7181789 6.99202578,15.8355262 9.91808552,14.6152638 C11.592041,9.06652832 17.7943422,4 25,4 C33.836556,4 41,11.163444 41,20 C41,20.8426756 40.9346793,21.6775197 40.8056985,22.4990176 C41.7224731,23.3358154 43,25.4688328 43,28 C43,32.418278 39.418278,36 35,36 C33.5349381,36 32.1278845,35.6033593 30.9058685,34.8742429 C29.681451,35.3599583 28.0111239,35.8438454 26,35.9689589 L26,42.0017862 C26,43.1053692 25.1122704,44 24,44 C22.8954305,44 22,43.1056623 22,42.0017862 L22,35.7181842 C18.2493966,35.0054102 14.8888731,32.9732791 12.5061268,29.9963552 Z" id="Combined-Shape" fill="#000000"></path>
    </g>
</svg>