<?xml version="1.0" encoding="UTF-8"?>
<svg width="48px" height="48px" viewBox="0 0 48 48" version="1.1" xmlns="http://www.w3.org/2000/svg" xmlns:xlink="http://www.w3.org/1999/xlink">
    <!-- Generator: Sketch 43.2 (39069) - http://www.bohemiancoding.com/sketch -->
    <title>theicons.co/svg/nature-03</title>
    <desc>Created with Sketch.</desc>
    <defs></defs>
    <g id="The-Icons" stroke="none" stroke-width="1" fill="none" fill-rule="evenodd">
        <path d="M11.1765895,37.9853769 C8.46993674,37.9853769 7.12228505,35.4515977 8.62440474,33.2062878 L16.1125534,20.9850969 C13.4105742,20.9543254 12.1365511,18.3927088 13.7102551,16.189523 L21.2104517,5.51345307 C22.652322,3.49483465 25.3578846,3.49619675 26.7987819,5.51345307 L34.3241984,16.189523 C35.9061455,18.404249 34.6054501,20.9765529 31.8866352,20.9853543 L39.4019921,33.2062878 C40.9067337,35.4555168 39.5607196,37.9853769 36.8498073,37.9853769 L25.9970241,37.9853769 L25.9970241,41.9913166 C25.9970241,43.0926057 25.1092945,43.9853769 23.9970241,43.9853769 C22.8924546,43.9853769 21.9970241,43.0908631 21.9970241,41.9913166 L21.9970241,37.9853769 L11.1765895,37.9853769 Z M34.9970241,33.9853769 L27.6733704,21.764466 C27.4299352,21.4005886 26.6544684,20.9853769 26.2190764,20.9853769 L21.7767187,20.9853769 C21.3439078,20.9853769 20.5656127,21.400958 20.3224247,21.764466 L12.9970241,33.9853769 L21.9970241,33.9853769 L21.9970241,29.9794372 C21.9970241,28.8781481 22.8847538,27.9853769 23.9970241,27.9853769 C25.1015936,27.9853769 25.9970241,28.8798907 25.9970241,29.9794372 L25.9970241,33.9853769 L34.9970241,33.9853769 Z M29.9970241,16.9853769 L24.0007085,8.42114892 L17.9970241,16.9746157 L29.9970241,16.9853769 Z" id="Combined-Shape" fill="#000000"></path>
    </g>
</svg>