<?xml version="1.0" encoding="UTF-8"?>
<svg width="48px" height="48px" viewBox="0 0 48 48" version="1.1" xmlns="http://www.w3.org/2000/svg" xmlns:xlink="http://www.w3.org/1999/xlink">
    <!-- Generator: Sketch 43.2 (39069) - http://www.bohemiancoding.com/sketch -->
    <title>theicons.co/svg/nature-16</title>
    <desc>Created with Sketch.</desc>
    <defs></defs>
    <g id="The-Icons" stroke="none" stroke-width="1" fill="none" fill-rule="evenodd">
        <path d="M25.9988421,42.0027084 C25.9988421,43.1057821 25.1111125,44 23.9988421,44 C22.8942726,44 21.9988421,43.1084602 21.9988421,42.0027084 L21.9988421,26 L12.9988421,26 C12.4682085,26 11.9593252,25.7891273 11.5842192,25.4138041 L7.58537712,21.4126462 C6.80471448,20.6315315 6.80489772,19.3655173 7.58578644,18.5846285 L11.5846285,14.5857864 C11.9597013,14.2107137 12.4684091,14 12.9988421,14 L21.9988421,14 L21.9988421,5.99729162 C21.9988421,4.89421792 22.8865718,4 23.9988421,4 C25.1034116,4 25.9988421,4.89153983 25.9988421,5.99729162 L25.9988421,10 L35,10 C35.530433,10 36.0391408,10.2107137 36.4142136,10.5857864 L40.4130557,14.5846285 C41.1939444,15.3655173 41.1941276,16.6315315 40.413465,17.4126462 L36.4146229,21.4138041 C36.0395169,21.7891273 35.5306336,22 35,22 L25.9988421,22 L25.9988421,42.0027084 Z M34.1686463,18 L36.2235428,16 L34.2119141,14 L25.9988421,14 L25.9988421,18 L34.1686463,18 Z M21.9988421,22 L21.9988421,18 L13.786928,18 L11.7752993,20 L13.8301958,22 L21.9988421,22 Z" id="Combined-Shape" fill="#000000"></path>
    </g>
</svg>