<?xml version="1.0" encoding="UTF-8"?>
<svg width="48px" height="48px" viewBox="0 0 48 48" version="1.1" xmlns="http://www.w3.org/2000/svg" xmlns:xlink="http://www.w3.org/1999/xlink">
    <!-- Generator: Sketch 43.2 (39069) - http://www.bohemiancoding.com/sketch -->
    <title>theicons.co/svg/nature-04</title>
    <desc>Created with Sketch.</desc>
    <defs></defs>
    <g id="The-Icons" stroke="none" stroke-width="1" fill="none" fill-rule="evenodd">
        <path d="M15.2461295,24.9525609 L17.3644543,28.4780455 L22.9842873,23.7718171 C23.8297848,23.0637703 25.1765252,23.0956266 25.9840256,23.8353751 L37.3014021,34.2779201 L26.9518509,17.098909 L24.2708971,18.8401769 C23.8073387,19.1412561 23.0567894,19.1387503 22.5858812,18.8401769 L19.9171262,17.1480861 L15.2461295,24.9525609 Z M6.52781858,39.5194387 L19.326339,39.509586 L12.9174505,28.8434043 L6.52781858,39.5194387 Z M23.980975,39.4897851 L37.1537458,39.4897851 L24.4376334,27.7739746 L19.4541013,31.9558022 L23.980975,39.4897851 Z M24.9862326,6.0681254 L45.3765324,40.0530066 C46.5153455,41.9510869 45.6444834,43.4897851 43.4286427,43.4897851 L3.44842904,43.4897851 C1.23382618,43.4897851 0.36057946,41.9530457 1.50060291,40.0530066 L21.8915316,6.06812543 C22.7459185,4.64414734 24.1312362,4.64376906 24.9862326,6.0681254 Z" id="Shape" fill="#000000"></path>
    </g>
</svg>