<?xml version="1.0" encoding="UTF-8"?>
<svg width="48px" height="48px" viewBox="0 0 48 48" version="1.1" xmlns="http://www.w3.org/2000/svg" xmlns:xlink="http://www.w3.org/1999/xlink">
    <!-- Generator: Sketch 43.2 (39069) - http://www.bohemiancoding.com/sketch -->
    <title>theicons.co/svg/nature-14</title>
    <desc>Created with Sketch.</desc>
    <defs></defs>
    <g id="The-Icons" stroke="none" stroke-width="1" fill="none" fill-rule="evenodd">
        <path d="M12,10 L37.9982567,10 C39.103789,10 40,10.8982124 40,11.9907951 L40,28.0092049 C40,29.1086907 39.1107383,30 37.9982567,30 L12,30 L12,42.0027084 C12,43.1057821 11.1122704,44 10,44 C8.8954305,44 8,43.1084602 8,42.0027084 L8,5.99729162 C8,4.89421792 8.88772964,4 10,4 C11.1045695,4 12,4.89153983 12,5.99729162 L12,10 Z M18,14 L24,14 L24,20 L30,20 L30,14 L36,14 L36,20 L30,20 L30,26 L24,26 L24,20 L18,20 L18,26 L12,26 L12,20 L18,20 L18,14 Z" id="Combined-Shape" fill="#000000"></path>
    </g>
</svg>