<?xml version="1.0" encoding="UTF-8"?>
<svg width="48px" height="48px" viewBox="0 0 48 48" version="1.1" xmlns="http://www.w3.org/2000/svg" xmlns:xlink="http://www.w3.org/1999/xlink">
    <!-- Generator: Sketch 43.2 (39069) - http://www.bohemiancoding.com/sketch -->
    <title>theicons.co/svg/nature-06</title>
    <desc>Created with Sketch.</desc>
    <defs></defs>
    <g id="The-Icons" stroke="none" stroke-width="1" fill="none" fill-rule="evenodd">
        <path d="M25.5959309,27.4700084 L31.02847,30.612393 L32.1227362,34.7918818 C32.4103864,35.865407 33.5048024,36.4901451 34.5717346,36.2042615 C35.6461052,35.9163847 36.2720518,34.822525 35.9864395,33.7566057 L35.8971355,33.4233184 L38.1816183,34.7422651 C39.1392274,35.295141 40.3590388,34.9654454 40.9113236,34.0088601 C41.4674588,33.0456058 41.1369082,31.8297004 40.1816183,31.2781635 L37.8794152,29.9489859 L38.2406536,29.8521924 C39.3065729,29.5665802 39.9409099,28.4775647 39.6530332,27.4031941 C39.3671496,26.3362619 38.2789025,25.7008389 37.2053774,25.9884891 L33.0157569,27.1409515 L27.5959309,24.0118135 L33.0387008,20.8694289 C33.1340542,20.9118489 37.2053774,22.0115109 37.2053774,22.0115109 C38.2789025,22.2991611 39.3671496,21.6637381 39.6530332,20.5968059 C39.9409099,19.5224353 39.3065729,18.4334198 38.2406536,18.1478076 L37.9073663,18.0585035 L40.1918491,16.7395568 C41.1494583,16.1866809 41.4738391,14.9654454 40.9215544,14.0088601 C40.3654192,13.0456058 39.147139,12.7239183 38.1918491,13.2754551 L35.889646,14.6046327 L35.9864395,14.2433943 C36.2720518,13.177475 35.6461052,12.0836153 34.5717346,11.7957385 C33.5048024,11.5098549 32.4103864,12.134593 32.1227362,13.2081182 C32.1227362,13.2081182 31.0363755,17.3006158 31.0259877,17.4126672 L25.5959309,20.5536187 L25.5959309,14.8297725 L28.6785721,11.7776858 C29.464447,10.9918109 29.4582781,9.73164985 28.6772295,8.95060127 C27.8907356,8.16410736 26.6304521,8.16895161 25.850145,8.94925872 L25.5857001,9.21370358 L25.5857001,5.99729162 C25.5857001,4.89153983 24.6902696,4 23.5857001,4 C22.4734298,4 21.5857001,4.89421792 21.5857001,5.99729162 L21.5857001,9.19324196 L21.3417169,8.94925872 C20.5614098,8.16895161 19.3011262,8.16410736 18.5146323,8.95060127 C17.7335837,9.73164985 17.7274148,10.9918109 18.5132897,11.7776858 C18.5132897,11.7776858 21.5115174,14.7537242 21.5959309,14.8150926 L21.5959309,20.5418051 L16.6491655,17.6916956 L15.552417,13.4871466 C15.2647668,12.4136214 14.1703508,11.7888833 13.1034186,12.0747669 C12.029048,12.3626437 11.4031014,13.4565034 11.6887137,14.5224227 L11.7855072,14.8836611 L9.00001272,13.2754551 C8.04240358,12.7225792 6.82259219,13.0522749 6.27030744,14.0088601 C5.71417226,14.9721145 6.04472287,16.1880199 7.00001272,16.7395568 L9.7677869,18.3375319 L9.43449961,18.426836 C8.36858026,18.7124482 7.73424324,19.8014637 8.02211999,20.8758343 C8.30800362,21.9427665 9.39625065,22.5781895 10.4697758,22.2905393 L14.6364524,21.1484573 L19.5959309,24.0118135 L14.6593963,26.8619231 L10.4697758,25.7094607 C9.39625065,25.4218105 8.30800362,26.0572335 8.02211999,27.1241657 C7.73424324,28.1985363 8.36858026,29.2875518 9.43449961,29.573164 L9.795738,29.6699575 L7.01024353,31.2781635 C6.05263439,31.8310394 5.7282535,33.0522749 6.28053825,34.0088601 C6.83667343,34.9721145 8.05495368,35.293802 9.01024353,34.7422651 L11.7780177,33.14429 L11.6887137,33.4775773 C11.4031014,34.5434966 12.029048,35.6373563 13.1034186,35.9252331 C14.1703508,36.2111167 15.2647668,35.5863786 15.552417,34.5128534 L16.6466832,30.3333646 L21.5959309,27.4818219 L21.5959309,33.7429642 L18.5132897,36.7803709 C17.7274148,37.5662459 17.7335837,38.8264069 18.5146323,39.6074555 C19.3011262,40.3939494 20.5614098,40.3891052 21.3417169,39.6087981 L21.5857001,39.3648148 L21.5857001,42.0027084 C21.5857001,43.1084602 22.4811306,44 23.5857001,44 C24.6979705,44 25.5857001,43.1057821 25.5857001,42.0027084 L25.5857001,39.3443532 L25.850145,39.6087981 C26.6304521,40.3891052 27.8907356,40.3939494 28.6772295,39.6074555 C29.4582781,38.8264069 29.464447,37.5662459 28.6785721,36.7803709 L25.5959309,33.7282843 L25.5959309,27.4700084 Z" id="Rectangle-691" fill="#000000"></path>
    </g>
</svg>