<?xml version="1.0" encoding="UTF-8"?>
<svg width="48px" height="48px" viewBox="0 0 48 48" version="1.1" xmlns="http://www.w3.org/2000/svg" xmlns:xlink="http://www.w3.org/1999/xlink">
    <!-- Generator: Sketch 43.2 (39069) - http://www.bohemiancoding.com/sketch -->
    <title>theicons.co/svg/nature-07</title>
    <desc>Created with Sketch.</desc>
    <defs></defs>
    <g id="The-Icons" stroke="none" stroke-width="1" fill="none" fill-rule="evenodd">
        <path d="M10,29.9608963 C10,22.4917685 15.3269255,20.2845231 22.4742894,6.93263552 C22.9743489,5.99848161 23.0973904,5.73668547 23.0973904,5.73668547 C23.5958879,4.75594422 24.407133,4.75014902 24.9245354,5.7450373 C24.9245354,5.7450373 25.0700951,6.04506569 25.5896861,6.99856121 C32.8330569,20.2907877 38,22.4963528 38,29.9608963 C38,37.6928828 31.7319865,43.9608963 24,43.9608963 C16.2680135,43.9608963 10,37.6928828 10,29.9608963 Z M19.8145067,18.8050624 C19.1775034,19.7064922 15.4867542,24.9273336 15.0644314,25.7262565 C14.31803,27.13825 14,28.3573746 14,29.9608963 C14,35.4837438 18.4771525,39.9608963 24,39.9608963 C29.5228475,39.9608963 34,35.4837438 34,29.9608963 C34,28.3351208 33.6856714,27.1044458 32.9503,25.691752 C32.5339484,24.8919147 28.8201932,19.5990968 28.2531683,18.7961567 C26.7332676,16.6438895 24,12.3312862 24,12.3312862 C24,12.3312862 22.2049,15.422393 19.8145067,18.8050624 Z M24,37.9608963 C19.581722,37.9608963 16,34.3791743 16,29.9608963 C16,28.8563268 16.8954305,27.9608963 18,27.9608963 C19.1045695,27.9608963 20,28.8563268 20,29.9608963 C20,32.1700353 21.790861,33.9608963 24,33.9608963 C25.1045695,33.9608963 26,34.8563268 26,35.9608963 C26,37.0654658 25.1045695,37.9608963 24,37.9608963 Z" id="Combined-Shape" fill="#000000" fill-rule="nonzero"></path>
    </g>
</svg>