<?xml version="1.0" encoding="UTF-8"?>
<svg width="48px" height="48px" viewBox="0 0 48 48" version="1.1" xmlns="http://www.w3.org/2000/svg" xmlns:xlink="http://www.w3.org/1999/xlink">
    <!-- Generator: Sketch 43.2 (39069) - http://www.bohemiancoding.com/sketch -->
    <title>theicons.co/svg/nature-17</title>
    <desc>Created with Sketch.</desc>
    <defs></defs>
    <g id="The-Icons" stroke="none" stroke-width="1" fill="none" fill-rule="evenodd">
        <path d="M14.2210967,25.467615 C10.0524039,21.262357 7.37424329,17.3030069 6.07102709,12.5264349 C5.78028874,11.4608154 6.40845406,10.3612701 7.47407359,10.0705317 C8.53969313,9.77979338 9.63923844,10.4079587 9.92997679,11.4735782 C10.528334,13.6666882 11.4956145,15.6870952 12.8626058,17.6851666 C13.1028892,16.1529215 13.5952609,14.8256528 14.4269534,13.7655249 C15.1087388,12.896478 16.3659368,12.7446727 17.2349836,13.4264581 C18.1040305,14.1082435 18.2558359,15.3654414 17.5740504,16.2344883 C17.1753733,16.7426674 16.8948347,17.5759862 16.7664068,18.653244 C16.636855,19.7399285 16.6716037,20.9452754 16.8108109,22.1017421 C16.8258847,22.2269672 16.9923902,22.5814989 17.0618472,22.6515652 C17.889145,23.4861196 20.5462174,25.9756818 22.0005019,27.3727054 L22.0005019,17.0000066 C22.0005019,14.5488284 20.9966467,11.8218844 19.2995412,9.07789906 C18.688362,8.08970664 18.0314959,7.17210411 17.3761056,6.3526529 C17.1484112,6.06796079 16.5723091,5.40084129 16.5411777,5.36762226 C15.7858644,4.56165971 15.8269237,3.29599558 16.6328863,2.5406823 C17.4388488,1.78536902 18.7045129,1.82642836 19.4598262,2.6323909 C19.6814851,2.86891364 20.0436442,3.28380343 20.4998982,3.85426945 C21.2507579,4.7930885 22.0001419,5.83993299 22.7014627,6.97387192 C23.5141058,8.28780365 24.2003319,9.61205705 24.7328856,10.938617 C25.5371224,9.45479807 26.4604584,8.01206694 27.4199072,6.77455958 C28.0967029,5.90162122 29.3530106,5.74261618 30.2259489,6.41941187 C31.0988873,7.09620756 31.2578923,8.35251523 30.5810966,9.22545359 C28.2026966,12.2931395 26.0005019,17.0828299 26.0005019,19.0000066 L26.0005019,23.3710628 C27.5080115,21.6856169 29.2370804,20.3662429 31.2091071,19.5459797 C30.6913384,17.6776904 30.9452569,15.633904 32.4334427,13.7572977 C33.1197718,12.8918348 34.3777478,12.7466182 35.2432108,13.4329473 C36.1086737,14.1192765 36.2538903,15.3772525 35.5675612,16.2427154 C35.1429727,16.7781226 34.9673307,17.3056163 34.9708853,17.8269892 C37.2595472,16.4870029 38.2951576,14.9718234 39.0863843,12.4098422 C39.4123231,11.3544571 40.5321073,10.7631241 41.5874924,11.0890628 C42.6428775,11.4150016 43.2342106,12.5347858 42.9082719,13.5901709 C41.4087231,18.4456886 38.8974549,20.8591575 32.9415722,23.1605027 C32.6816551,23.2609344 32.4256433,23.3753509 32.1736279,23.5031889 C32.4182796,23.8880795 32.7182671,24.2751989 33.0698024,24.6328218 C33.7639685,25.3390089 34.5640081,25.8350844 35.4750694,26.0566498 C36.5483557,26.3176675 37.2068296,27.3993346 36.9458119,28.4726209 C36.6847942,29.5459073 35.603127,30.2043811 34.5298407,29.9433634 C32.8360601,29.5314447 31.4021348,28.6423197 30.2172005,27.4368657 C29.7351354,26.9464526 29.3379023,26.4560182 29.0189225,25.9969406 C28.8381685,26.197259 28.6605526,26.4053299 28.4861293,26.6208145 C27.7379303,27.5451491 27.0977134,28.5445308 26.570324,29.5432657 C26.3866191,29.8911536 26.0239105,30.6778092 26.0005019,30.7337759 L26.0005019,33.9581236 C26.0005707,33.9737083 26.0005019,42.0000066 26.0005019,42.0000066 C26.0005019,43.1045761 25.1050714,44.0000066 24.0005019,44.0000066 C22.8959324,44.0000066 22.0005019,43.1045761 22.0005019,42.0000066 L22.0005019,36.0146945 C21.9998094,35.8356169 21.9771146,35.5317391 21.9084438,35.1287353 C21.7906335,34.4373501 21.5786623,33.7503898 21.2576134,33.1270702 C20.0163363,30.7171182 17.4817624,29.6832672 12.5151167,30.9272598 C11.4436453,31.1956305 10.3574887,30.5445888 10.0891179,29.4731174 C9.82074716,28.401646 10.4717889,27.3154894 11.5432602,27.0471186 C12.8598203,26.7173607 14.0888747,26.5219474 15.2301077,26.451958 C14.8086645,26.0473118 14.4542599,25.7028234 14.2210967,25.467615 Z" id="Combined-Shape" fill="#000000" fill-rule="nonzero"></path>
    </g>
</svg>