<?xml version="1.0" encoding="UTF-8"?>
<svg width="48px" height="48px" viewBox="0 0 48 48" version="1.1" xmlns="http://www.w3.org/2000/svg" xmlns:xlink="http://www.w3.org/1999/xlink">
    <!-- Generator: Sketch 43.2 (39069) - http://www.bohemiancoding.com/sketch -->
    <title>theicons.co/svg/nature-12</title>
    <desc>Created with Sketch.</desc>
    <defs></defs>
    <g id="The-Icons" stroke="none" stroke-width="1" fill="none" fill-rule="evenodd">
        <path d="M13.9745321,22.7990671 L7.01029562,29.7633036 L8.89240103,39.1949066 L18.3243027,41.0767134 L25.2882406,34.1127756 L21.0442767,29.8688116 L18.5024105,32.4106779 C17.7244795,33.1886089 16.4661221,33.1915269 15.6796282,32.405033 C14.8985796,31.6239844 14.9019353,30.3542988 15.6739834,29.5822507 L18.2158496,27.0403845 L13.9745321,22.7990671 Z M23.8740271,27.0417078 L29.5273835,32.6950642 C30.3103639,33.4780446 30.3125781,34.7452923 29.5350813,35.5227891 L21.0413999,44.0164705 C20.2626709,44.7951995 18.7467324,45.2495533 17.664983,45.0332034 L7.45565411,42.9913376 C6.36963952,42.7741347 5.31231996,41.713403 5.09597007,40.6316536 L3.05410429,30.4223247 C2.83690137,29.3363101 3.29334036,27.8234046 4.07083716,27.0459078 L12.5645186,18.5522264 C13.3432475,17.7734974 14.6088254,17.7765061 15.3922434,18.5599241 L21.0455999,24.2132806 L36.6019491,8.65693144 L32.3527996,4.40778193 C31.5753457,3.63032807 31.5728145,2.37235754 32.3593084,1.58586363 C33.140357,0.804815044 34.4086541,0.806782131 35.1812267,1.57935481 L46.5079529,12.9060809 C47.2854067,13.6835348 47.287938,14.9415053 46.5014441,15.7279993 C45.7203955,16.5090478 44.4520984,16.5070807 43.6795257,15.7345081 L39.4303762,11.4853586 L23.8740271,27.0417078 Z" id="Combined-Shape" fill="#000000"></path>
    </g>
</svg>