<?xml version="1.0" encoding="UTF-8"?>
<svg width="48px" height="48px" viewBox="0 0 48 48" version="1.1" xmlns="http://www.w3.org/2000/svg" xmlns:xlink="http://www.w3.org/1999/xlink">
    <!-- Generator: Sketch 43.2 (39069) - http://www.bohemiancoding.com/sketch -->
    <title>theicons.co/svg/nature-11</title>
    <desc>Created with Sketch.</desc>
    <defs></defs>
    <g id="The-Icons" stroke="none" stroke-width="1" fill="none" fill-rule="evenodd">
        <path d="M23.5036206,27.0417078 L29.1627101,32.7007973 C30.7235728,34.2616599 30.7247368,36.7911543 29.1535714,38.3623197 L21.3883321,46.1275591 C20.6039522,46.9119389 19.3403671,46.9200848 18.5538732,46.1335908 C17.7728246,45.3525423 17.7774348,44.0816021 18.5599049,43.299132 L22.0894071,39.7696298 L19.2609799,36.9412027 L15.7251738,40.4770088 C14.9442756,41.2579071 13.6835128,41.2632305 12.8970189,40.4767366 C12.1159703,39.695688 12.1103155,38.4350129 12.8967467,37.6485817 L16.4325528,34.1127756 L13.6041257,31.2843484 L10.0683195,34.8201546 C9.28742132,35.6010528 8.02665858,35.6063763 7.24016467,34.8198823 C6.45911609,34.0388338 6.4534612,32.7781587 7.23989242,31.9917275 L10.7756986,28.4559213 L7.94727145,25.6274942 L4.41776931,29.1569963 C3.63338947,29.9413762 2.36980433,29.949522 1.58331042,29.1630281 C0.802261836,28.3819795 0.806872072,27.1110393 1.58934218,26.3285692 L9.35458153,18.5633299 C10.9204914,16.99742 13.4585467,16.9966338 15.016104,18.5541911 L20.6751935,24.2132806 L36.2315427,8.65693144 L31.9823932,4.40778193 C31.2049393,3.63032807 31.2024081,2.37235754 31.988902,1.58586363 C32.7699506,0.804815044 34.0382476,0.806782131 34.8108203,1.57935481 L46.1375465,12.9060809 C46.9150003,13.6835348 46.9175315,14.9415053 46.1310376,15.7279993 C45.3499891,16.5090478 44.081692,16.5070807 43.3091193,15.7345081 L39.0599698,11.4853586 L23.5036206,27.0417078 Z M10.7764754,22.7998439 L24.9028151,36.9562218 L26.3251443,35.5338926 C26.333629,35.5254079 12.1876769,21.3826182 12.1876769,21.3826182 C12.19261,21.3875514 10.7764754,22.7998439 10.7764754,22.7998439 Z" id="Combined-Shape" fill="#000000"></path>
    </g>
</svg>