<?xml version="1.0" encoding="UTF-8"?>
<svg width="48px" height="48px" viewBox="0 0 48 48" version="1.1" xmlns="http://www.w3.org/2000/svg" xmlns:xlink="http://www.w3.org/1999/xlink">
    <!-- Generator: Sketch 43.2 (39069) - http://www.bohemiancoding.com/sketch -->
    <title>theicons.co/svg/nature-18</title>
    <desc>Created with Sketch.</desc>
    <defs></defs>
    <g id="The-Icons" stroke="none" stroke-width="1" fill="none" fill-rule="evenodd">
        <path d="M30.4123808,18.6407364 C29.3314522,18.4134323 28.2709201,19.1054317 28.043616,20.1863603 C27.8163119,21.2672889 28.5083113,22.327821 29.5892399,22.5551251 C30.8493869,22.8201163 31.4903825,23.3814495 31.8207614,24.2299507 C31.9716752,24.6175378 32.0473446,25.0434116 32.065826,25.4568061 C29.3718653,27.1595678 27.5461804,29.4421171 26.5151677,32.1393352 C25.4061467,35.0406294 25.3080839,38.0632094 25.7931797,40.8554736 C25.8958733,41.446589 26.0024386,41.8920769 26.0824138,42.1633994 C26.3947136,43.2229005 27.5067779,43.8286269 28.566279,43.5163272 C29.6257801,43.2040275 30.2315066,42.0919632 29.9192069,41.0324621 C29.8806093,40.9015166 29.8093152,40.6034773 29.7341494,40.1708149 C29.361808,38.0275771 29.4374106,35.697286 30.2515027,33.5675509 C31.027835,31.5365989 32.4261002,29.8545804 34.6157807,28.5883382 C35.0159268,28.5972954 35.4836781,28.6370091 36.0061565,28.7219059 C37.1172257,28.9024422 38.208907,29.2514399 39.2169196,29.8026502 C40.4489412,30.4763551 41.4976014,31.4206226 42.3254859,32.6903079 C42.9287891,33.615564 44.1679314,33.8765585 45.0931875,33.2732552 C46.0184437,32.669952 46.2794381,31.4308097 45.6761349,30.5055536 C44.4769415,28.6664104 42.9317515,27.2750419 41.1360442,26.2930974 C40.4397168,25.9123255 39.7231179,25.6018731 38.9944557,25.3546856 C40.3465731,24.8376486 41.7542738,24.8209124 43.2234571,25.4406792 C44.241179,25.8699995 45.4142385,25.3930058 45.8435589,24.3752839 C46.2728792,23.3575621 45.7958855,22.1845026 44.7781636,21.7551822 C42.7393153,20.8951054 40.7604949,20.7658551 38.8956203,21.2010397 C39.0773531,19.7650362 38.9341602,18.3145426 38.3720816,16.8869454 C38.1922625,16.4302314 37.9706888,15.9852866 37.7067031,15.5539336 C37.1301195,14.6117951 35.8989519,14.3154543 34.9568133,14.892038 C34.0146747,15.4686216 33.7183339,16.6997892 34.2949176,17.6419278 C34.4375722,17.8750257 34.5554023,18.1116417 34.6501742,18.3523482 C35.0181015,19.2868295 35.0444584,20.3102019 34.7969888,21.3679657 C33.8498734,20.0190411 32.3858531,19.0557298 30.4123808,18.6407364 Z M6.8519341,9.70381609 C5.23053869,10.4896416 3.7479766,11.7011997 2.43417669,13.3547396 C1.74704185,14.219563 1.89108687,15.4776737 2.75591025,16.1648085 C3.62073363,16.8519434 4.87884436,16.7078984 5.5659792,15.843075 C6.51450411,14.6492678 7.52753538,13.8214129 8.59647883,13.3033388 C10.1082256,12.5706556 11.7309306,12.4566327 13.3705297,12.8081103 C11.6535263,14.1868636 10.4599262,15.9935595 10.0682584,18.2540421 C9.87968232,19.3423954 10.6090959,20.3775512 11.6974491,20.5661272 C12.7858024,20.7547033 13.8209582,20.0252898 14.0095342,18.9369365 C14.2380012,17.6183556 14.9854059,16.5657882 16.1456739,15.7200168 C16.5993139,15.3893383 17.0884726,15.1118445 17.5822805,14.887285 C18.6184632,17.0116293 19.3192279,19.4055741 19.7105813,22.0304142 C20.4213599,26.7976658 20.0830422,31.9626212 19.0806831,36.9726001 C18.8614656,38.0682902 18.6270183,39.0653039 18.3934652,39.9424275 C18.2556794,40.4598906 18.1509308,40.8160912 18.0954404,40.9900119 C17.7596961,42.0423187 18.3405848,43.1675564 19.3928916,43.5033007 C20.4451983,43.839045 21.570436,43.2581563 21.9061803,42.2058495 C21.9808158,41.9719233 22.1037874,41.553755 22.2587848,40.9716525 C22.5132035,40.0161668 22.7667281,38.938025 23.0029511,37.7573382 C24.0883833,32.3321444 24.4553832,26.7293096 23.6668498,21.44055 C23.2176129,18.4274804 22.4018274,15.6410346 21.1763307,13.1304539 C22.9055894,12.9141791 24.9076148,13.2197381 27.0627292,14.3642839 C28.0382591,14.8823719 29.2490757,14.5115418 29.7671636,13.5360119 C30.2852515,12.5604819 29.9144215,11.3496654 28.9388915,10.8315775 C26.3694553,9.4669921 23.8821404,8.96958521 21.6216529,9.0791945 C23.467184,6.35362388 26.1804902,5.25644581 30.4329709,6.51562681 C31.4920852,6.82923591 32.6048974,6.22488453 32.9185065,5.16577022 C33.2321156,4.10665591 32.6277642,2.99384372 31.5686499,2.68023463 C25.8225979,0.978799602 21.4998523,2.57481341 18.700934,6.2889476 C18.2147681,5.28795837 17.1883715,4.59793072 16.0008104,4.59793072 C14.3439561,4.59793072 13.0008104,5.94107647 13.0008104,7.59793072 C13.0008104,7.99295681 13.0771598,8.37015051 13.2159072,8.71556024 C11.0946489,8.42583747 8.94194872,8.69086956 6.8519341,9.70381609 Z" id="Combined-Shape" fill="#000000"></path>
    </g>
</svg>