<?xml version="1.0" encoding="UTF-8"?>
<svg width="48px" height="48px" viewBox="0 0 48 48" version="1.1" xmlns="http://www.w3.org/2000/svg" xmlns:xlink="http://www.w3.org/1999/xlink">
    <!-- Generator: Sketch 43.2 (39069) - http://www.bohemiancoding.com/sketch -->
    <title>theicons.co/svg/nature-01</title>
    <desc>Created with Sketch.</desc>
    <defs></defs>
    <g id="The-Icons" stroke="none" stroke-width="1" fill="none" fill-rule="evenodd">
        <path d="M28.5857864,20.5857864 C29.366835,19.8047379 30.633165,19.8047379 31.4142136,20.5857864 C32.1952621,21.366835 32.1952621,22.633165 31.4142136,23.4142136 L26,28.8284271 L26,34 L30.0081158,34 C32.2566493,33.6401425 34,31.2010948 34,29 C34,28.7512311 33.8792418,27.9055788 33.8792418,27.9055788 C33.8053795,27.3409606 34.1356953,26.6857122 34.6156564,26.4149407 L34.9424156,26.2305986 C36.8172842,25.1728861 38,23.1909403 38,21 C38,17.6791589 35.3065342,15.0000581 31.93824,15.0002342 L31.1789455,15.0002739 C30.6176979,15.0003032 30.1162295,14.5529654 30.0474316,14.0011174 L29.9534988,13.2476555 C29.5817525,10.2657727 27.0341601,8 24,8 C20.9678466,8 18.4029489,10.268695 17.9805874,13.2779809 L17.8766865,14.0182657 C17.799886,14.5654619 17.2950518,15 16.7475407,15 L16,15 C12.6862915,15 10,17.6862915 10,21 C10,23.1909403 11.1827158,25.1728861 13.0575844,26.2305986 L13.3843436,26.4149407 C13.8618386,26.6843209 14.1940088,27.3530936 14.1207582,27.9055788 C14.1207582,27.9055788 14,28.7512311 14,29 C14,31.2063457 15.4423749,33.1334902 17.516152,33.7766999 C17.516152,33.7766999 18.0025635,34.0019305 18.777771,34.0019305 C18.8032229,34.0019305 22,34 22,34 L22,19.9970047 C22,18.8940894 22.8877296,18 24,18 C25.1045695,18 26,18.8949789 26,19.9970047 L26,23.1715729 L28.5857864,20.5857864 Z M26,38 L26,42.0029953 C26,43.1059106 25.1122704,44 24,44 C22.8954305,44 22,43.1050211 22,42.0029953 L22,38 C22,38 18.9568636,37.9997744 18.9394355,37.9993259 C17.6583511,37.9899066 16.8196157,37.8801704 15.9169312,37.5698242 C12.7127075,36.4682007 10,32.9713013 10,29 C7.79608154,27.3058472 6,24.6489128 6,21 C6,16.035468 9.61769881,11.9158949 14.3606582,11.1337188 C14.8052979,8 18.9588308,4 24,4 C28.4950152,4 32.3472253,6.98107253 33.5847109,11.138704 C37.6773071,11.6582642 42,15.4651827 42,21 C42,24.6489128 39.8557129,27.90448 38,29 C38,32.9689743 35.4660645,36.3157959 31.6738892,37.6737061 C31.6738892,37.6737061 30.7896189,37.9957618 30.0210464,37.9999586 C30.0167394,37.9999862 26,38 26,38 Z" id="Combined-Shape" fill="#000000" fill-rule="nonzero"></path>
    </g>
</svg>