<?xml version="1.0" encoding="UTF-8"?>
<svg width="48px" height="48px" viewBox="0 0 48 48" version="1.1" xmlns="http://www.w3.org/2000/svg" xmlns:xlink="http://www.w3.org/1999/xlink">
    <!-- Generator: Sketch 43.2 (39069) - http://www.bohemiancoding.com/sketch -->
    <title>theicons.co/svg/others-18</title>
    <desc>Created with Sketch.</desc>
    <defs></defs>
    <g id="The-Icons" stroke="none" stroke-width="1" fill="none" fill-rule="evenodd">
        <path d="M16.0058587,22 C14.8980535,22 14,21.1122704 14,20 L14,12 L7.99620271,12 C7.99678488,12 8,40.0098214 8,40.0098214 C8,40.005034 24.009947,40 24.009947,40 C24.0056676,40 24.0101774,28.4924934 24.0130623,22 L16.0058587,22 Z M18,12 L18,18 L24.0149179,18 C24.0150217,17.7867788 18,12 18,12 Z M36.0013543,34.892913 L38,38.2190376 L40,34.9174194 L40,33 L36.0015234,33 C36.001438,34.1728182 36.0013543,34.892913 36.0013543,34.892913 Z M40,29 L40,14.0042577 C40,13.9981496 35.9958262,14 35.9958262,14 C36.0009964,14 36.0017817,22.8212245 36.0016975,29 L40,29 Z M35.9958262,4 L40.0041738,4 C42.2110077,4 44,5.78902751 44,8.0042577 L44,36 L40.0564653,42.5855554 C38.9207109,44.4822227 37.0756492,44.4761441 35.9435347,42.5855554 L32,36 L32,8.0042577 C32,5.79276724 33.7965212,4 35.9958262,4 Z M4,11.9901786 C4,9.7864638 5.78883037,8 7.99620271,8 L18.9991283,8 C19.5518945,8 20.3235178,8.3235178 20.7099466,8.70994663 L27.2900534,15.2900534 C27.6821461,15.6821461 28,16.4398131 28,16.9965348 L28,40.0031611 C28,42.2105543 26.2157067,44 24.009947,44 L7.99005301,44 C5.78640758,44 4,42.2147544 4,40.0098214 L4,11.9901786 Z" id="Combined-Shape" fill="#000000"></path>
    </g>
</svg>