<?xml version="1.0" encoding="UTF-8"?>
<svg width="48px" height="48px" viewBox="0 0 48 48" version="1.1" xmlns="http://www.w3.org/2000/svg" xmlns:xlink="http://www.w3.org/1999/xlink">
    <!-- Generator: Sketch 43.2 (39069) - http://www.bohemiancoding.com/sketch -->
    <title>theicons.co/svg/others-51</title>
    <desc>Created with Sketch.</desc>
    <defs></defs>
    <g id="The-Icons" stroke="none" stroke-width="1" fill="none" fill-rule="evenodd">
        <path d="M24,40 L24,42 C24,43.1045695 23.1054862,44 22.0059397,44 L9.99406028,44 C8.8927712,44 8,43.1122704 8,42 L8,40 L7.00583887,40 C4.2411904,40 2,37.7558048 2,35 C2,32.2385763 4.24402624,30 7.00583887,30 L8,30 L8,29 C8,26.9496508 9.23578672,25.1875484 11,24.4160096 L11,14 L6.991155,14 C5.89147046,14 5,13.1122704 5,12 C5,10.8954305 5.88967395,10 6.991155,10 L9,10 L9,5.99961498 C9,4.89525812 9.89706013,4 11.0058587,4 L20.9941413,4 C22.1019465,4 23,4.88743329 23,5.99961498 L23,10 L25.008845,10 C26.1085295,10 27,10.8877296 27,12 C27,13.1045695 26.1103261,14 25.008845,14 L21,14 L21,24.4160033 C21.0642489,24.444108 21.1277941,24.4735264 21.1906017,24.5042241 C22.3568125,22.3585807 24.301393,21.0014648 27.0185547,21.0014648 C29.8604875,21.0014648 31.2690514,22.2289741 33.2922292,25.2453369 C33.3404015,25.3171748 33.3404015,25.3171748 33.3880646,25.38825 C34.7814154,27.4654474 35.409146,28.0032959 36.6467285,28.0032959 C38.4738143,28.0032959 39.452218,25.9847589 39.8228929,21.3549556 C38.7256368,20.6408809 38,19.4041291 38,18.0041738 L38,13.9958262 C38,12.5176303 38.8055181,11.2269064 40,10.5357256 L40,8 C40,6.8954305 40.8954305,6 42,6 C43.1045695,6 44,6.8954305 44,8 L44,10.5362169 C45.1956027,11.2287958 46,12.5218523 46,13.9958262 L46,18.0041738 C46,19.5459332 45.1237167,20.8837511 43.8437847,21.5500797 C43.7178972,23.2512712 43.5038941,24.6466193 43.1600441,25.958251 C42.174432,29.7179136 40.0673976,32.0032959 36.6467285,32.0032959 C33.6458009,32.0032959 32.1478421,30.7198235 30.0661895,27.6165107 C30.017953,27.5445805 30.017953,27.5445805 29.9702776,27.4734836 C28.642459,25.4938341 28.0774664,25.0014648 27.0185547,25.0014648 C25.7952456,25.0014648 25.0614421,25.5823337 24.5386453,26.7519787 C24.3314978,27.2154264 24.0206805,28.757305 23.9995934,28.9356822 C23.9998642,28.9570899 24,30 24,30 L24.9941611,30 C27.7588096,30 30,32.2441952 30,35 C30,37.7614237 27.7559738,40 24.9941611,40 L24,40 Z M19,10 L19,8 L13.1000061,8 L13.0500031,10 L19,10 Z M15,24 L17,24 L17,14 L15,14 L15,24 Z M12,30 L20,30 L20,29 C20,28.4501061 19.5505412,28 19.0033142,28 L12.9966858,28 C12.4492068,28 12,28.4492261 12,29 L12,30 Z M7.00583887,36 L24.9941611,36 C25.5492083,36 26,35.5499103 26,35 C26,34.4517439 25.5480794,34 24.9941611,34 L7.00583887,34 C6.45079165,34 6,34.4500897 6,35 C6,35.5482561 6.45192062,36 7.00583887,36 Z" id="Combined-Shape" fill="#000000"></path>
    </g>
</svg>