<?xml version="1.0" encoding="UTF-8"?>
<svg width="48px" height="48px" viewBox="0 0 48 48" version="1.1" xmlns="http://www.w3.org/2000/svg" xmlns:xlink="http://www.w3.org/1999/xlink">
    <!-- Generator: Sketch 43.2 (39069) - http://www.bohemiancoding.com/sketch -->
    <title>theicons.co/svg/others-46</title>
    <desc>Created with Sketch.</desc>
    <defs></defs>
    <g id="The-Icons" stroke="none" stroke-width="1" fill="none" fill-rule="evenodd">
        <path d="M45.1076315,13.4562923 C46.1268384,14.7874533 46.7542173,15.8973426 46.9067468,16.9674796 C47.5677093,21.6047505 45.5771554,25.9377615 40.818665,28.5821186 C36.5824086,30.9362631 35.0700799,33.6066355 36.6385444,35.847634 C37.2719098,36.7525771 37.0517527,37.9996226 36.1468096,38.632988 C35.2418665,39.2663535 33.9948211,39.0461964 33.3614556,38.1412533 C30.0421515,33.3986814 32.8553664,28.4312882 38.8756714,25.0857238 C42.1414137,23.270907 43.3803636,20.5739773 42.9467691,17.5319057 C42.9314449,17.4243922 42.7953608,17.1509655 42.5574878,16.7769511 L16.0449694,43.2894706 C15.6556235,43.6788165 14.895455,43.9944437 14.3336473,43.9944437 L6.82842712,43.9944437 L6.41421356,44.4086572 C5.63316498,45.1897058 4.36683502,45.1897058 3.58578644,44.4086572 C2.80473785,43.6276086 2.80473785,42.3612787 3.58578644,41.5802301 L4,41.1660165 L4,33.6620534 C4,33.1063298 4.32021738,32.3359247 4.70533636,31.9511849 L31.5140933,5.16882353 C33.0755061,3.60894811 35.6073672,3.61050521 37.1696859,5.17282391 L37.8743369,5.87747494 C38.4175697,5.33202502 39.1693617,4.99444366 40,4.99444366 C41.6568542,4.99444366 43,6.33758941 43,7.99444366 C43,8.82447891 42.6629087,9.57578226 42.1181564,10.1189232 C42.1396005,10.1411287 44.8060807,13.0624441 45.1076315,13.4562923 Z M34.3412587,8.00125104 L25.9244989,16.4042239 L31.59893,22.078655 L39.997964,13.6796206 L34.3412587,8.00125104 Z M13.6686889,40.0088968 L28.7705029,24.9070822 L23.0939736,19.2305529 L8.00101116,34.3017343 L8.00553006,37.1604865 L8.58578644,36.5802301 C9.36683502,35.7991815 10.633165,35.7991815 11.4142136,36.5802301 C12.1952621,37.3612787 12.1952621,38.6276086 11.4142136,39.4086572 L10.8212468,40.001624 L13.6686889,40.0088968 Z" id="Combined-Shape" fill="#000000"></path>
    </g>
</svg>