<?xml version="1.0" encoding="UTF-8"?>
<svg width="48px" height="48px" viewBox="0 0 48 48" version="1.1" xmlns="http://www.w3.org/2000/svg" xmlns:xlink="http://www.w3.org/1999/xlink">
    <!-- Generator: Sketch 43.2 (39069) - http://www.bohemiancoding.com/sketch -->
    <title>theicons.co/svg/others-42</title>
    <desc>Created with Sketch.</desc>
    <defs></defs>
    <g id="The-Icons" stroke="none" stroke-width="1" fill="none" fill-rule="evenodd">
        <path d="M11.9952753,30.9714461 C6.47752559,30.9714461 2,26.4877968 2,20.9714461 C2,15.4514036 6.48051622,10.9714461 11.9952753,10.9714461 L29.3948975,10.9714461 L37.1905799,4.77581037 C39.3708203,3.06214467 42,4.34053712 42,7.11022297 L42,16.9714461 C44.209139,16.9714461 46,18.7623071 46,20.9714461 C46,23.1805851 44.209139,24.9714461 42,24.9714461 L42,34.8727082 C42,37.6436624 39.3718114,38.9240066 37.1977003,37.2064535 L29.287944,30.9714461 L26.5543429,30.9714461 L28.9145874,40.5233941 C29.4914365,42.8579121 27.8641969,44.9462996 25.45351,44.9462996 L19.45274,44.9462996 C17.4293005,44.9462996 15.5163162,43.4454701 15.0313782,41.4829181 L12.4340395,30.9714461 L11.9952753,30.9714461 Z M18.9145874,40.5233941 C18.9586363,40.701661 19.2704571,40.9462996 19.45274,40.9714461 L24.9049683,40.9714461 L22.4340359,30.9714461 L16.5543429,30.9714461 L18.9145874,40.5233941 Z M15.0027601,22.9714461 C13.8966663,22.9714461 13,22.0837164 13,20.9714461 C13,19.8668766 13.8935426,18.9714461 15.0027601,18.9714461 L22,18.9714461 L22,14.9714461 L11.9952753,14.9714461 C8.68954356,14.9714461 6,17.6606542 6,20.9714461 C6,24.2798807 8.68788931,26.9714461 11.9952753,26.9714461 L22,26.9714461 L22,22.9714461 L15.0027601,22.9714461 Z M38,9.26844313 L31.2359194,14.5438656 C30.8835023,14.820865 30.4482483,14.9714461 30,14.9714461 L26,14.9714461 L26,26.9714461 L30,26.9714461 C30.4499417,26.9714461 30.886739,27.1231654 31.2397997,27.4020842 L38.0041292,32.745921 L38.0020812,21.1017171 C38.0006973,21.0584633 38,21.0150361 38,20.9714461 C38,20.9283371 38.0006819,20.8853874 38.0020356,20.8426073 L38,9.26844313 Z" id="Combined-Shape" fill="#000000"></path>
    </g>
</svg>