<?xml version="1.0" encoding="UTF-8"?>
<svg width="48px" height="48px" viewBox="0 0 48 48" version="1.1" xmlns="http://www.w3.org/2000/svg" xmlns:xlink="http://www.w3.org/1999/xlink">
    <!-- Generator: Sketch 43.2 (39069) - http://www.bohemiancoding.com/sketch -->
    <title>theicons.co/svg/others-52</title>
    <desc>Created with Sketch.</desc>
    <defs></defs>
    <g id="The-Icons" stroke="none" stroke-width="1" fill="none" fill-rule="evenodd">
        <path d="M34,10 L35.9957423,10 C39.3136202,10 42,12.6843318 42,16.0055203 L42,33.9944797 C42,37.3106812 39.316977,39.9977009 36,39.9999985 L36,42.0020869 C36,44.2071599 34.2092684,46 32.0092049,46 L15.9907951,46 C13.7858476,46 12,44.2054347 12,42.0020869 L12,39.9999986 C8.68408188,39.9977032 6,37.3142474 6,33.9944797 L6,16.0055203 C6,12.6879 8.68531932,10 12.0042577,10 L14,10 L14,5.99810135 C14,3.79124937 15.7887057,2 17.9940603,2 L30.0059397,2 C32.2142058,2 34,3.78454225 34,5.99810135 L34,10 Z M30,6 L18,6 L18,10 L30,10 L30,6 Z M16,40 L16,42 C16,42 32.0000423,42.0002808 32,42.0005667 L32,40 L16,40 Z M10,16.0055203 L10,33.9944797 C10,35.105846 10.8948362,36 12.0042577,36 L35.9957423,36 C37.1046811,36 38,35.1038207 38,33.9944797 L38,16.0055203 C38,14.894154 37.1051638,14 35.9957423,14 L12.0042577,14 C10.8953189,14 10,14.8961793 10,16.0055203 Z M19,26 C17.3431458,26 16,24.6568542 16,23 C16,21.3431458 17.3431458,20 19,20 C20.6568542,20 22,21.3431458 22,23 C22,24.6568542 20.6568542,26 19,26 Z M29,26 C27.3431458,26 26,24.6568542 26,23 C26,21.3431458 27.3431458,20 29,20 C30.6568542,20 32,21.3431458 32,23 C32,24.6568542 30.6568542,26 29,26 Z M18.949559,32.7029443 C18.0090488,32.1237082 17.7161783,30.8917105 18.2954144,29.9512003 C18.8746505,29.0106902 20.1066482,28.7178196 21.0471584,29.2970557 C21.1365473,29.3521081 21.39095,29.4779392 21.7776478,29.6151671 C22.4518301,29.8544151 23.2026605,29.9990181 24.0024591,30.0000015 C24.8017229,30.0009843 25.5514972,29.8565738 26.2241343,29.616438 C26.6069603,29.4797666 26.858383,29.3546027 26.9459705,29.3002877 C27.8846957,28.7181633 29.1175879,29.0072454 29.6997123,29.9459705 C30.2818367,30.8846957 29.9927546,32.1175879 29.0540295,32.6997123 C28.7384681,32.8953989 28.2366059,33.1452374 27.5690241,33.3835684 C26.4848416,33.7706285 25.2857369,34.0015824 23.9975409,33.9999985 C22.7151153,33.9984217 21.5207229,33.7683927 20.4398991,33.3848393 C19.7698691,33.1470649 19.2660996,32.8978935 18.949559,32.7029443 Z" id="Combined-Shape" fill="#000000"></path>
    </g>
</svg>