<?xml version="1.0" encoding="UTF-8"?>
<svg width="48px" height="48px" viewBox="0 0 48 48" version="1.1" xmlns="http://www.w3.org/2000/svg" xmlns:xlink="http://www.w3.org/1999/xlink">
    <!-- Generator: Sketch 43.2 (39069) - http://www.bohemiancoding.com/sketch -->
    <title>theicons.co/svg/others-54</title>
    <desc>Created with Sketch.</desc>
    <defs></defs>
    <g id="The-Icons" stroke="none" stroke-width="1" fill="none" fill-rule="evenodd">
        <path d="M7.19083146,30.4518677 C9.78489543,37.2059783 16.3325958,42 24,42 C31.6674042,42 38.2151046,37.2059783 40.8091685,30.4518677 C36.7735936,32.6219714 30.7408382,34 24,34 C17.2591618,34 11.2264064,32.6219714 7.19083146,30.4518677 L7.19083146,30.4518677 Z M7.19083146,17.5481323 C11.2264064,15.3780286 17.2591618,14 24,14 C30.7408382,14 36.7735936,15.3780286 40.8091685,17.5481323 C38.2151046,10.7940217 31.6674042,6 24,6 C16.3325958,6 9.78489543,10.7940217 7.19083146,17.5481323 L7.19083146,17.5481323 Z M24,46 C11.8497355,46 2,36.1502645 2,24 C2,11.8497355 11.8497355,2 24,2 C36.1502645,2 46,11.8497355 46,24 C46,36.1502645 36.1502645,46 24,46 Z M24,30 C29.3712327,30 34.3536437,29.042099 37.9011374,27.4296019 C39.4576676,26.7220882 40.6307119,25.9328454 41.342806,25.1675819 C41.8304507,24.6435267 42,24.2669054 42,24 C42,23.7330946 41.8304507,23.3564733 41.342806,22.8324181 C40.6307119,22.0671546 39.4576676,21.2779118 37.9011374,20.5703981 C34.3536437,18.957901 29.3712327,18 24,18 C18.6287673,18 13.6463563,18.957901 10.0988626,20.5703981 C8.54233241,21.2779118 7.36928813,22.0671546 6.65719397,22.8324181 C6.16954934,23.3564733 6,23.7330946 6,24 C6,24.2669054 6.16954934,24.6435267 6.65719397,25.1675819 C7.36928813,25.9328454 8.54233241,26.7220882 10.0988626,27.4296019 C13.6463563,29.042099 18.6287673,30 24,30 Z" id="Combined-Shape" fill="#000000" fill-rule="nonzero"></path>
    </g>
</svg>