<?xml version="1.0" encoding="UTF-8"?>
<svg width="48px" height="48px" viewBox="0 0 48 48" version="1.1" xmlns="http://www.w3.org/2000/svg" xmlns:xlink="http://www.w3.org/1999/xlink">
    <!-- Generator: Sketch 43.2 (39069) - http://www.bohemiancoding.com/sketch -->
    <title>theicons.co/svg/others-37</title>
    <desc>Created with Sketch.</desc>
    <defs></defs>
    <g id="The-Icons" stroke="none" stroke-width="1" fill="none" fill-rule="evenodd">
        <path d="M23.0447998,41.0093994 C25.4777238,41.0093994 26.7100847,40.0502631 29.1655432,36.7975842 L29.291967,36.6300853 C32.2859848,32.6639612 34.1951712,31.1209245 37.9591064,31 C39.8793903,31 41.5149196,31.4813795 42.8471592,32.2952795 C43.692356,32.8116322 44.2666403,33.3585959 44.5985537,33.7973474 C45.2649514,34.6782492 45.0910616,35.9325832 44.2101599,36.5989809 C43.3292582,37.2653787 42.0749241,37.0914888 41.4085264,36.2105871 C41.1853263,35.9992138 40.9954608,35.8514256 40.7618191,35.7086878 C40.043926,35.2701082 39.1262096,35 38.0238846,34.9989507 C35.9222557,35.0670562 34.7973353,35.9762358 32.4844463,39.0400804 L32.3580135,39.2075911 C29.2049622,43.3843522 27.1169956,45.0093994 23.0447998,45.0093994 C18.4881514,45.0093994 14.843768,42.3504762 14.1294747,36.9967651 L12.5619658,36.9967651 C11.4504749,36.9967651 10.8003851,36.1362176 11.1030167,35.0746784 L11.7718303,32.728685 C7.29556397,29.9969455 4,23.3229614 4,17.2666667 C4,9.98929294 9.31594048,4 16,4 C22.6840595,4 28,9.98929294 28,17.2666667 C28,23.3259409 24.7011927,30.0035122 20.2215625,32.7327138 L20.9220486,35.0746784 C21.2428251,36.1471441 20.5984232,36.9967651 19.4900363,36.9967651 L18.1759331,36.9967651 C18.7259649,39.8448243 20.5425015,41.0093994 23.0447998,41.0093994 Z M16,30 C19.7560099,30 24,23.1859251 24,17.2666667 C24,12.099224 20.3616355,8 16,8 C11.6383645,8 8,12.099224 8,17.2666667 C8,23.1859251 12.2439901,30 16,30 Z" id="Combined-Shape" fill="#000000"></path>
    </g>
</svg>