<?xml version="1.0" encoding="UTF-8"?>
<svg width="48px" height="48px" viewBox="0 0 48 48" version="1.1" xmlns="http://www.w3.org/2000/svg" xmlns:xlink="http://www.w3.org/1999/xlink">
    <!-- Generator: Sketch 43.2 (39069) - http://www.bohemiancoding.com/sketch -->
    <title>theicons.co/svg/others-21</title>
    <desc>Created with Sketch.</desc>
    <defs></defs>
    <g id="The-Icons" stroke="none" stroke-width="1" fill="none" fill-rule="evenodd">
        <path d="M40,30 C40,30.7805911 39.8508983,31.5263665 39.5796321,32.2104136 C42.1269335,32.9049668 44,35.238418 44,38 C44,41.3137085 41.3133761,44 38.0007795,44 L9.99922047,44 C6.68594249,44 4,41.3069658 4,38 C4,35.2325878 5.87381185,32.9027736 8.4211539,32.2098042 C8.14938438,31.5255183 8,30.779829 8,30 C8,26.9893558 10.2179633,24.4966124 13.1084134,24.0658336 C12.4110343,22.8856932 12.0079005,21.5110334 12.0001149,20.0434131 C12.0233568,18.3655319 13.347834,16.9186703 14.9822721,16.6807797 C14.9822721,16.6807797 19.1385302,16.6033855 22.0588379,14.0075684 C23.46869,12.7543722 23.7230398,11.2847799 23.8865775,9.0215863 C23.9248134,8.49244196 23.9357328,8.29723995 23.9357328,8.29723995 C23.9712266,7.74461881 24.4433756,7.31521889 24.9894454,7.34428537 C24.9894454,7.34428537 25.4031613,7.34534251 26.048882,7.43661778 C33.4161446,8.47801074 36,15.0600653 36,18.0517578 L36,20.0074244 C36,21.4891298 35.5966181,22.8766644 34.8938091,24.066299 C37.7836045,24.4989339 40,26.9962042 40,30 Z M8,38 C8,39.1009663 8.89821969,40 9.99922047,40 L38.0007795,40 C39.1044263,40 40,39.1043802 40,38 C40,36.8990337 39.1017803,36 38.0007795,36 L9.99922047,36 C8.89557367,36 8,36.8956198 8,38 Z M12,30 C12,31.1008238 12.898505,32 14.0001757,32 L33.9998243,32 C35.1041818,32 36,31.1042707 36,30 C36,28.8991762 35.101495,28 33.9998243,28 L14.0001757,28 C12.8958182,28 12,28.8957293 12,30 Z M24.7162864,16.9972117 C23.8022358,17.8096974 22.7820773,18.4774651 21.6807566,19.0170437 C20.2324936,19.7266025 18.7219753,20.1818895 17.2178846,20.4461984 C16.3037623,20.606834 16.4713745,20.5409546 16.049076,20.6285371 C16.3503807,22.5384323 18.002623,24 19.9916525,24 L28.0083475,24 C30.2115656,24 32,22.2116823 32,20.0074244 L32,18.0517578 C32,17.0598454 31.36406,15.3281732 30.2678646,13.9990239 C29.531522,13.1062001 28.6346104,12.4118893 27.5452081,11.9506925 C27.3184203,13.0689697 27.0931925,14.884416 24.7162864,16.9972117 Z M16,5.99810135 C16,4.89458045 16.8877296,4 18,4 C19.1045695,4 20,4.88670635 20,5.99810135 L20,10.0018986 C20,11.1054196 19.1122704,12 18,12 C16.8954305,12 16,11.1132936 16,10.0018986 L16,5.99810135 Z" id="Shape" fill="#000000" fill-rule="nonzero"></path>
    </g>
</svg>