<?xml version="1.0" encoding="UTF-8"?>
<svg width="48px" height="48px" viewBox="0 0 48 48" version="1.1" xmlns="http://www.w3.org/2000/svg" xmlns:xlink="http://www.w3.org/1999/xlink">
    <!-- Generator: Sketch 43.2 (39069) - http://www.bohemiancoding.com/sketch -->
    <title>theicons.co/svg/others-39</title>
    <desc>Created with Sketch.</desc>
    <defs></defs>
    <g id="The-Icons" stroke="none" stroke-width="1" fill="none" fill-rule="evenodd">
        <path d="M24,6 C19.581722,6 16,9.581722 16,14 C16,15.1045695 15.1045695,16 14,16 C12.8954305,16 12,15.1045695 12,14 C12,7.372583 17.372583,2 24,2 C30.627417,2 36,7.372583 36,14 C35.9999866,14.0176981 36,44 36,44 C36,45.1045695 35.1045695,46 34,46 L14,46 C12.8954305,46 12,45.1045695 12,44 L12,24 C12,22.8954305 12.8954305,22 14,22 L24,22 C27.4557121,22 29.5591537,20.7462781 30.8048378,18.5617455 C31.2804973,17.7275907 31.608313,16.7857954 31.8043277,15.8012244 C31.9421931,15.1087336 32,14.4706306 32,14.0274658 C32,9.581722 28.418278,6 24,6 Z M28.2366089,35.4081818 C29.019079,36.1906519 29.0236893,37.4615921 28.2426407,38.2426407 C27.4561468,39.0291346 26.1925616,39.0209888 25.4081818,38.2366089 L24,36.8284271 L22.5918182,38.2366089 C21.8074384,39.0209888 20.5438532,39.0291346 19.7573593,38.2426407 C18.9763107,37.4615921 18.980921,36.1906519 19.7633911,35.4081818 L21.1715729,34 L19.7633911,32.5918182 C18.980921,31.8093481 18.9763107,30.5384079 19.7573593,29.7573593 C20.5438532,28.9708654 21.8074384,28.9790112 22.5918182,29.7633911 L24,31.1715729 L25.4081818,29.7633911 C26.1925616,28.9790112 27.4561468,28.9708654 28.2426407,29.7573593 C29.0236893,30.5384079 29.019079,31.8093481 28.2366089,32.5918182 L26.8284271,34 L28.2366089,35.4081818 Z M16,26 L16,42 L32,42 L32,23.3605347 C31.2973019,23.9044189 28.909897,26 24,26 L16,26 Z" id="Combined-Shape" fill="#000000"></path>
    </g>
</svg>