<?xml version="1.0" encoding="UTF-8"?>
<svg width="48px" height="48px" viewBox="0 0 48 48" version="1.1" xmlns="http://www.w3.org/2000/svg" xmlns:xlink="http://www.w3.org/1999/xlink">
    <!-- Generator: Sketch 43.2 (39069) - http://www.bohemiancoding.com/sketch -->
    <title>theicons.co/svg/others-01</title>
    <desc>Created with Sketch.</desc>
    <defs></defs>
    <g id="The-Icons" stroke="none" stroke-width="1" fill="none" fill-rule="evenodd">
        <path d="M6.51360264,25.0006423 C7.4558667,25.9889537 8.41740219,26.9505746 9.02718263,27.4381246 C13.4094991,30.942006 18.4138885,33.0199852 23.9866687,33.0006541 C29.6182012,33.0200064 34.6349915,30.9427691 38.9899462,27.4414924 C39.5971015,26.9533544 40.5509202,25.9897023 41.4834557,25.0006423 L6.51360264,25.0006423 Z M40.9922599,21.0006423 C40.5140444,20.4729495 40.0939433,19.9615748 39.6857739,19.4224808 C39.5906255,19.2968125 38.2433847,17.4646349 37.9993561,17.1499255 C36.4193035,15.1122244 34.2384332,13.97323 32.0380719,14.0004891 C31.0818678,13.9894838 30.2475283,14.2187087 28.5368888,14.8819627 C26.277844,15.757846 25.3973292,16.024695 24.0508787,16.0336124 C22.6025021,16.024695 21.7219873,15.757846 19.4629425,14.8819627 C17.752303,14.2187087 16.9179634,13.9894838 15.9617594,14.0004891 C13.761398,13.97323 11.5805278,15.1122244 10.0004752,17.1499255 C9.75644655,17.4646349 8.40920579,19.2968125 8.31405733,19.4224808 C7.905888,19.9615748 7.48578685,20.4729495 7.00757133,21.0006423 L40.9922599,21.0006423 Z M41.4929095,30.5599359 C36.4743917,34.5947011 30.6086959,37.0234338 23.9867505,37.0006303 C17.4229786,37.0234551 11.575657,34.5954641 6.53262017,30.5633037 C4.95982055,29.3057716 1.42244023,25.4242487 0.532776754,24.3604427 C0.10016168,23.8607937 -0.0528507586,23.2921051 0.0156973841,22.74924 C0.0792204403,22.2600243 0.317434269,21.8013319 0.711262851,21.470388 C3.03046123,19.4655279 4.12577585,18.3312148 5.12865534,17.006651 C5.2122838,16.8961979 6.57442408,15.0440143 6.84307532,14.6975506 C9.16405045,11.7043253 12.5089318,9.95740742 15.9622606,10.0007894 C17.53907,9.98165102 18.7364441,10.3106153 20.9066911,11.1520697 C22.6867475,11.8422383 23.3101089,12.030237 23.9999156,12.0337937 C24.6897224,12.030237 25.3130837,11.8422383 27.0931401,11.1520697 C29.2633872,10.3106153 30.4607613,9.98165102 32.0375707,10.0007894 C35.4908995,9.95740742 38.8357808,11.7043253 41.156756,14.6975506 C41.4254072,15.0440143 42.7875475,16.8961979 42.8711759,17.006651 C43.8767799,18.3348131 44.9753218,19.4716895 47.3074966,21.4867465 C48.1428995,22.2085554 48.2354746,23.4714912 47.514269,24.3075928 C47.4397178,24.3940208 42.9743018,29.3689329 41.4929095,30.5599359 Z" id="Combined-Shape" fill="#000000"></path>
    </g>
</svg>