<?xml version="1.0" encoding="UTF-8"?>
<svg width="48px" height="48px" viewBox="0 0 48 48" version="1.1" xmlns="http://www.w3.org/2000/svg" xmlns:xlink="http://www.w3.org/1999/xlink">
    <!-- Generator: Sketch 43.2 (39069) - http://www.bohemiancoding.com/sketch -->
    <title>theicons.co/svg/others-12</title>
    <desc>Created with Sketch.</desc>
    <defs></defs>
    <g id="The-Icons" stroke="none" stroke-width="1" fill="none" fill-rule="evenodd">
        <path d="M19.9914698,16.0052451 C21.1007504,16.0052451 22,16.8926783 22,18.00486 L22,23.6106314 C25.5868082,25.6854879 28,29.5635509 28,34.0052451 C28,40.6326621 22.627417,46.0052451 16,46.0052451 C9.372583,46.0052451 4,40.6326621 4,34.0052451 C4,29.5635509 6.41319178,25.6854879 10,23.6106314 L10,18.00486 C10,16.9005032 10.9019504,16.0052451 12.0085302,16.0052451 L14.013745,16.0052451 C14.015136,15.6321117 14.0329591,9.10470599 14.032959,8.0335656 C14.0329586,4.79686617 16.63873,1.9101899 20.0560691,2.00603115 L19.9016919,2.00766264 C23.4887925,1.83112878 26.1598386,4.73003105 25.9976907,8.10132716 L25.9993321,7.95356009 C26.0726648,10.7902958 26.0957968,11.8519979 26.0938893,12.0190405 C26.0932879,12.1759211 26.1163066,12.5180058 26.1894229,12.9689308 C26.3106348,13.7164726 26.5291784,14.4586385 26.8606388,15.1324719 C27.770231,16.9816024 29.3384049,18.0328329 32.0634766,18.0328329 C34.7829495,18.0328329 36.3295238,16.9883808 37.2143439,15.1484692 C37.3835349,14.7966503 37.5217646,14.4257291 37.6312825,14.0447046 C37.6312825,14.0447046 36.7305298,14.4516562 35.903595,14.8410628 C35.0766602,15.2304694 34.2240954,14.6429357 34.5872369,13.6989683 C34.9503784,12.7550009 35.8042261,10.241313 35.8042261,10.241313 L33.4382148,7.93502201 C32.6439107,7.16076689 32.8918312,6.40351845 33.9875639,6.24429916 L37.2573111,5.76917708 L38.7195865,2.80628349 C39.2104934,1.81159743 40.0072912,1.81338118 40.4973177,2.80628349 L41.9595931,5.76917708 L45.2293403,6.24429916 C46.3270416,6.40380449 46.5715692,7.16215535 45.7786895,7.93502201 L43.4126782,10.241313 L44.9530029,13.7961386 C45.1405127,14.8894044 44.0630493,15.060726 43.5147882,14.8410628 C42.966527,14.6213996 41.7237065,14.1173001 41.7237065,14.1173001 C41.5411588,15.0560707 41.2487451,15.9887622 40.8191644,16.8820404 C39.2888997,20.0641015 36.3736973,22.0328329 32.0634766,22.0328329 C27.7588546,22.0328329 24.8321097,20.0708799 23.2713802,16.8980377 C22.7499622,15.8380352 22.4215704,14.7228293 22.2409917,13.6091582 C22.1300121,12.9247212 22.0924828,12.3669924 22.0940024,11.9910865 C22.0942128,11.9678745 22.0023093,7.90916295 22.0023093,7.90916295 C22.0544894,6.82425937 21.2455986,5.94636527 20.0983081,6.00282748 L19.9439309,6.00445896 C18.9045271,5.97530828 18.0329589,6.94083245 18.032959,8.03356514 C18.0329591,9.10874734 18.0151459,15.6365759 18.0137728,16.0052451 L19.9914698,16.0052451 Z M16,42.0052451 C20.418278,42.0052451 24,38.4235231 24,34.0052451 C24,29.5869671 20.418278,26.0052451 16,26.0052451 C11.581722,26.0052451 8,29.5869671 8,34.0052451 C8,38.4235231 11.581722,42.0052451 16,42.0052451 Z M18.0195312,20.0052451 L14,19.9642294 L14,22.1711619 C14.6504169,22.0620426 15.3185756,22.0052451 16,22.0052451 C16.6845497,22.0052451 17.3557117,22.0625648 18.0089481,22.1726666 L18.0195312,20.0052451 Z" id="Star-2" fill="#000000"></path>
    </g>
</svg>