<?xml version="1.0" encoding="UTF-8"?>
<svg width="48px" height="48px" viewBox="0 0 48 48" version="1.1" xmlns="http://www.w3.org/2000/svg" xmlns:xlink="http://www.w3.org/1999/xlink">
    <!-- Generator: Sketch 43.2 (39069) - http://www.bohemiancoding.com/sketch -->
    <title>theicons.co/svg/others-05</title>
    <desc>Created with Sketch.</desc>
    <defs></defs>
    <g id="The-Icons" stroke="none" stroke-width="1" fill="none" fill-rule="evenodd">
        <path d="M34.8422653,14 L27.0004021,14 L27.0004021,36 L31.0063419,36 C32.1076309,36 33.0004021,36.8982606 33.0004021,37.9979131 L33.0004021,40 L35.9997075,40 C36.5523759,40 37.0004021,40.4433532 37.0004021,41.0093689 L37.0004021,42.9906311 C37.0004021,43.5480902 36.5529329,44 35.9997075,44 L14.0010968,44 C13.4484284,44 13.0004021,43.5566468 13.0004021,42.9906311 L13.0004021,41.0093689 C13.0004021,40.4519098 13.4478714,40 14.0010968,40 L17.0004021,40 L17.0004021,37.9979131 C17.0004021,36.8944962 17.8949159,36 18.9944624,36 L23.0004021,36 L23.0004021,14 L15.1881605,14 L20.8392875,27.2135518 C21.2546979,28.1848709 20.8430386,29.3117613 19.8993419,29.786591 C19.5213188,29.9767968 18.8848109,30.2172119 17.9913052,30.4424053 C16.5853119,30.7967627 14.9255964,31.0061035 13.0160882,31.0061035 C11.1075125,31.0061035 9.44316736,30.7970012 8.0287713,30.4433056 C7.1320229,30.2190573 6.49222226,29.9802115 6.11259492,29.7921491 C5.1603491,29.3204189 4.74328612,28.1863563 5.16300953,27.2100706 L10.8422653,14 L9.00008708,14 C7.89569159,14 7.00040215,13.1122704 7.00040215,12 C7.00040215,10.8954305 7.89028478,10 9.00008708,10 L23.0004021,10 L23.0004021,7.23610651 C22.3866528,6.68678595 22.0004021,5.88849981 22.0004021,5 C22.0004021,3.34314575 23.3435479,2 25.0004021,2 C26.6572564,2 28.0004021,3.34314575 28.0004021,5 C28.0004021,5.88849981 27.6141515,6.68678595 27.0004021,7.23610651 L27.0004021,10 L41.0003151,10 C42.1047106,10 43,10.8877296 43,12 C43,13.1045695 42.1101174,14 41.0003151,14 L39.1881605,14 L44.8392875,27.2135518 C45.2546979,28.1848709 44.8430386,29.3117613 43.8993419,29.786591 C43.5213188,29.9767968 42.8848109,30.2172119 41.9913052,30.4424053 C40.5853119,30.7967627 38.9255964,31.0061035 37.0160882,31.0061035 C35.1075125,31.0061035 33.4431674,30.7970012 32.0287713,30.4433056 C31.1320229,30.2190573 30.4922223,29.9802115 30.1125949,29.7921491 C29.1603491,29.3204189 28.7432861,28.1863563 29.1630095,27.2100706 L34.8422653,14 Z M16.3033666,26.7204575 C15.36073,26.900707 14.2654725,27.0061035 13.0160882,27.0061035 C11.4380153,27.0061035 10.4585932,26.8698728 9.72671472,26.7222825 L13.012689,19.0790359 C13.012689,19.0790359 16.0214596,26.0834958 16.3033666,26.7204575 Z M40.3033666,26.7204575 C39.36073,26.900707 38.2654725,27.0061035 37.0160882,27.0061035 C35.4380153,27.0061035 34.4585932,26.8698728 33.7267147,26.7222825 L37.012689,19.0790359 C37.012689,19.0790359 40.0214596,26.0834958 40.3033666,26.7204575 Z" id="Combined-Shape" fill="#000000"></path>
    </g>
</svg>