<?xml version="1.0" encoding="UTF-8"?>
<svg width="48px" height="48px" viewBox="0 0 48 48" version="1.1" xmlns="http://www.w3.org/2000/svg" xmlns:xlink="http://www.w3.org/1999/xlink">
    <!-- Generator: Sketch 43.2 (39069) - http://www.bohemiancoding.com/sketch -->
    <title>theicons.co/svg/others-19</title>
    <desc>Created with Sketch.</desc>
    <defs></defs>
    <g id="The-Icons" stroke="none" stroke-width="1" fill="none" fill-rule="evenodd">
        <path d="M42.0027084,15.7860724 C43.1057821,15.7860724 44,16.6880228 44,17.7946026 L44,25.7775422 C44,26.8868228 43.109122,27.7860724 41.9990853,27.7860724 L40,27.7860724 L40,41.7952773 C40,42.8947631 39.1107383,43.7860724 37.9982567,43.7860724 L10.0017433,43.7860724 C8.89621101,43.7860724 8,42.88786 8,41.7952773 L8,27.7860724 L6.00873405,27.7860724 C4.89934087,27.7860724 4,26.884122 4,25.7775422 L4,17.7946026 C4,16.685322 4.89153983,15.7860724 5.99729162,15.7860724 L12.8474312,15.7860724 C11.6950714,14.4991836 11.0454102,12.9063829 11.0454102,10.9750299 C11.0454102,6.51699052 14.5931238,3.65517466 18.7421128,4.0334581 C20.8758805,4.22800403 22.7293267,5.22334276 24.0291835,6.81416847 C25.3290403,5.22334276 27.1824865,4.22800403 29.3162542,4.0334581 C33.4652433,3.65517466 37.0129569,6.51699052 37.0129569,10.9750299 C37.0129569,12.9063829 36.3632956,14.4991836 35.2109358,15.7860724 L42.0027084,15.7860724 Z M22.0001286,12.9288347 C22.0340863,9.93466642 20.4934611,8.2097283 18.3789199,8.01693534 C16.4674106,7.84265377 15.0454102,8.98973158 15.0454102,10.9750299 C15.0454102,12.8087661 16.46721,14.1399683 19.1831763,15.0537487 C20.2135366,15.400411 21.897989,15.7411588 22.0252913,15.7667087 C22.0265187,15.6583827 22.0097399,13.7451064 22.0001286,12.9288347 Z M30,39.7768675 L36,39.7768675 L36,27.7860724 L30,27.7860724 L30,39.7768675 Z M40,23.7860724 L40,19.7860724 L30,19.7860724 L30,23.7860724 L40,23.7860724 Z M22,19.7860724 L22,39.7768675 L26,39.7768675 L26,19.7860724 L22,19.7860724 Z M8,19.7860724 L8,23.7860724 L18,23.7860724 L18,19.7860724 L8,19.7860724 Z M12,27.7860724 L12,39.7768675 L18,39.7768675 L18,27.7860724 L12,27.7860724 Z M28.8497757,15.0537487 C31.565742,14.1399683 32.9875418,12.8087661 32.9875418,10.9750299 C32.9875418,8.98973158 31.5655413,7.84265377 29.6540321,8.01693534 C27.5394909,8.2097283 25.9988657,9.93466642 26.0328234,12.9288347 C26.0196078,14.0512187 26,15.768242 26,15.768242 C26,15.768242 27.7784539,15.4141924 28.8497757,15.0537487 Z" id="Combined-Shape" fill="#000000"></path>
    </g>
</svg>