<?xml version="1.0" encoding="UTF-8"?>
<svg width="48px" height="48px" viewBox="0 0 48 48" version="1.1" xmlns="http://www.w3.org/2000/svg" xmlns:xlink="http://www.w3.org/1999/xlink">
    <!-- Generator: Sketch 43.2 (39069) - http://www.bohemiancoding.com/sketch -->
    <title>theicons.co/svg/others-43</title>
    <desc>Created with Sketch.</desc>
    <defs></defs>
    <g id="The-Icons" stroke="none" stroke-width="1" fill="none" fill-rule="evenodd">
        <path d="M24,26.9974219 C24,25.8942762 24.8877296,25 26,25 C27.1045695,25 28,25.8909254 28,26.9974219 L28,40 L30,40 L30,25.9965015 C30,22.6814664 27.3164776,20 24,20 C20.6852584,20 18,22.6845441 18,25.9965015 L18,40 L24,40 L24,26.9974219 Z M14,25.9965015 C14,20.4755862 18.4759382,16 24,16 C29.5228475,16 34,20.4695593 34,25.9965015 L34,40 L37.9982567,40 C39.103789,40 40,40.8877296 40,42 C40,43.1045695 39.1107383,44 37.9982567,44 L10.0017433,44 C8.89621101,44 8,43.1122704 8,42 C8,40.8954305 8.88926172,40 10.0017433,40 L14,40 L14,25.9965015 Z M38,28 C38,26.8954305 38.8867064,26 39.9981014,26 L44.0018986,26 C45.1054196,26 46,26.8877296 46,28 C46,29.1045695 45.1132936,30 44.0018986,30 L39.9981014,30 C38.8945804,30 38,29.1122704 38,28 Z M22,5.99810135 C22,4.89458045 22.8877296,4 24,4 C25.1045695,4 26,4.88670635 26,5.99810135 L26,10.0018986 C26,11.1054196 25.1122704,12 24,12 C22.8954305,12 22,11.1132936 22,10.0018986 L22,5.99810135 Z M2,28 C2,26.8954305 2.88670635,26 3.99810135,26 L8.00189865,26 C9.10541955,26 10,26.8877296 10,28 C10,29.1045695 9.11329365,30 8.00189865,30 L3.99810135,30 C2.89458045,30 2,29.1122704 2,28 Z M38.4652927,15.4059462 C37.6881358,16.1908673 36.4218215,16.1971614 35.6369005,15.4200046 C34.8519794,14.6428477 34.8456853,13.3765334 35.6228421,12.5916124 L38.5919583,9.59283309 C39.3691151,8.80791204 40.6354295,8.8016179 41.4203505,9.57877473 C42.2052716,10.3559316 42.2115657,11.6222459 41.4344089,12.4071669 L38.4652927,15.4059462 Z M12.4344089,12.5916124 C13.2115657,13.3765334 13.2052716,14.6428477 12.4203505,15.4200046 C11.6354295,16.1971614 10.3691151,16.1908673 9.59195832,15.4059462 L6.62284211,12.4071669 C5.84568528,11.6222459 5.85197943,10.3559316 6.63690047,9.57877473 C7.42182152,8.8016179 8.68813583,8.80791204 9.46529266,9.59283309 L12.4344089,12.5916124 Z" id="Combined-Shape" fill="#000000"></path>
    </g>
</svg>