<?xml version="1.0" encoding="UTF-8"?>
<svg width="48px" height="48px" viewBox="0 0 48 48" version="1.1" xmlns="http://www.w3.org/2000/svg" xmlns:xlink="http://www.w3.org/1999/xlink">
    <!-- Generator: Sketch 43.2 (39069) - http://www.bohemiancoding.com/sketch -->
    <title>theicons.co/svg/others-24</title>
    <desc>Created with Sketch.</desc>
    <defs></defs>
    <g id="The-Icons" stroke="none" stroke-width="1" fill="none" fill-rule="evenodd">
        <path d="M41.087891,32.3215598 C42.0075455,32.9346628 42.2555189,34.1774983 41.6415713,35.0965891 C37.9551766,40.6151897 31.7633074,44 25,44 C13.954305,44 5,35.045695 5,24 C5,12.954305 13.954305,4 25,4 C31.7633074,4 37.9551766,7.3848103 41.6415713,12.9034109 C42.2555189,13.8225017 42.0075455,15.0653372 41.087891,15.6784402 L28.6107338,23.996545 L41.087891,32.3215598 Z M25,40 C30.4129459,40 34.9177856,37.2861938 37.1075045,34.4753705 L23.8905996,25.6641006 C22.7031335,24.8724565 22.7031335,23.1275435 23.8905996,22.3358994 C23.8905996,22.3358994 32.6983013,16.4640983 37.1021522,13.5281977 C35.6673584,11.2701416 30.4129459,8 25,8 C16.163444,8 9,15.163444 9,24 C9,32.836556 16.163444,40 25,40 Z M24,19 C22.3431458,19 21,17.6568542 21,16 C21,14.3431458 22.3431458,13 24,13 C25.6568542,13 27,14.3431458 27,16 C27,17.6568542 25.6568542,19 24,19 Z" id="Combined-Shape" fill="#000000" fill-rule="nonzero"></path>
    </g>
</svg>