<?xml version="1.0" encoding="UTF-8"?>
<svg width="48px" height="48px" viewBox="0 0 48 48" version="1.1" xmlns="http://www.w3.org/2000/svg" xmlns:xlink="http://www.w3.org/1999/xlink">
    <!-- Generator: Sketch 43.2 (39069) - http://www.bohemiancoding.com/sketch -->
    <title>theicons.co/svg/others-30</title>
    <desc>Created with Sketch.</desc>
    <defs></defs>
    <g id="The-Icons" stroke="none" stroke-width="1" fill="none" fill-rule="evenodd">
        <path d="M16,14 L16,8.0028382 C16,8.00346695 11.9958262,8 11.9958262,8 C11.9958646,8 11.9964258,10.639017 11.9971248,14 L16,14 Z M16,18 L11.9979523,18 C11.9989827,23.0017122 12,28.0041096 12,28.0041096 C12,34.6283285 17.3727885,40 24,40 C30.6288438,40 36,34.6297729 36,28.0041096 L36,17.9907362 C36,18.0007553 31.9958262,18 31.9958262,18 C31.9956248,18 32,27.9957423 32,27.9957423 C32,32.4145611 28.4155932,36 24,36 C19.5800561,36 16,32.4184452 16,27.9957423 L16,18 Z M16.0041738,4 C18.2034788,4 20,5.7921317 20,8.0028382 L20,27.9957423 C20,30.2109725 21.790861,32 24,32 C26.2046438,32 28,30.2072328 28,27.9957423 L28,8.0028382 C28,5.78397674 29.7889923,4 31.9958262,4 L36.0041738,4 C38.2034788,4 40,5.78671347 40,7.99073624 L40,28.0041096 C40,36.8383959 32.8384989,44 24,44 C15.163444,44 8,36.8372621 8,28.0041096 L8,7.99073624 C8,5.78459881 9.78899235,4 11.9958262,4 L16.0041738,4 Z" id="Combined-Shape" fill="#000000"></path>
    </g>
</svg>