<?xml version="1.0" encoding="UTF-8"?>
<svg width="48px" height="48px" viewBox="0 0 48 48" version="1.1" xmlns="http://www.w3.org/2000/svg" xmlns:xlink="http://www.w3.org/1999/xlink">
    <!-- Generator: Sketch 43.2 (39069) - http://www.bohemiancoding.com/sketch -->
    <title>theicons.co/svg/others-36</title>
    <desc>Created with Sketch.</desc>
    <defs></defs>
    <g id="The-Icons" stroke="none" stroke-width="1" fill="none" fill-rule="evenodd">
        <path d="M38,4 C41.8659932,4 45,7.13400675 45,11 C45,14.8659932 41.8659932,18 38,18 C34.38254,22.4427808 34.4948217,26.6201266 36.8290574,30.50637 C37.1819408,31.0938818 37.55922,31.6191608 37.9340668,32.07234 C40.8041016,32.521697 43,35.0098879 43,38 C43,41.3137085 40.3133761,44 37.0007795,44 L8.99922047,44 C5.68594249,44 3,41.3069658 3,38 C3,35.3432767 4.72691491,33.089846 7.11880321,32.3007339 C7.15670894,31.4230068 7.24303956,30.4325068 7.39470101,29.3558032 C7.78632631,26.575503 8.54156362,23.8220864 9.75374159,21.2302267 C13.4396813,13.349009 20.5581452,8.45526347 31.6361855,8.08013352 C32.7428796,5.67206713 35.1761737,4 38,4 Z M13.3770567,22.9248026 C12.3467158,25.1278612 11.6950961,27.5035127 11.3556004,29.9137244 C11.2496441,30.6659491 11.1805742,31.3663015 11.140413,32 L33.0735272,32 C30.4570294,27.2716214 30.3001227,21.9649906 33.9366776,16.7006202 C32.4437767,15.6345931 31.3872613,13.9967361 31.0870322,12.1069497 C21.9457182,12.5899955 16.3610562,16.5444624 13.3770567,22.9248026 Z M23,19 C23.9696488,19 24.77813,19.6838779 24.9611711,20.6033311 C25.8444311,20.3042057 26.8423312,20.6551129 27.330127,21.5 C27.8149514,22.3397405 27.6269364,23.3818447 26.9221871,24.0000895 C27.6228673,24.6154524 27.8179228,25.6551129 27.330127,26.5 C26.8453026,27.3397405 25.8488063,27.6979668 24.961016,27.3967584 C24.7784363,28.3112467 23.9755916,29 23,29 C22.0303512,29 21.22187,28.3161221 21.0388289,27.3966689 C20.1555689,27.6957943 19.1576688,27.3448871 18.669873,26.5 C18.1850486,25.6602595 18.3730636,24.6181553 19.0778129,23.9999105 C18.3771327,23.3845476 18.1820772,22.3448871 18.669873,21.5 C19.1546974,20.6602595 20.1511937,20.3020332 21.038984,20.6032416 C21.2215637,19.6887533 22.0244084,19 23,19 Z M8.99922047,40 L37.0007795,40 C38.1044263,40 39,39.1043802 39,38 C39,36.8990337 38.1017803,36 37.0007795,36 L8.99922047,36 C7.89557367,36 7,36.8956198 7,38 C7,39.1009663 7.89821969,40 8.99922047,40 Z M38,14 C39.6568542,14 41,12.6568542 41,11 C41,9.34314575 39.6568542,8 38,8 C36.3431458,8 35,9.34314575 35,11 C35,12.6568542 36.3431458,14 38,14 Z" id="Combined-Shape" fill="#000000"></path>
    </g>
</svg>