<?xml version="1.0" encoding="UTF-8"?>
<svg width="48px" height="48px" viewBox="0 0 48 48" version="1.1" xmlns="http://www.w3.org/2000/svg" xmlns:xlink="http://www.w3.org/1999/xlink">
    <!-- Generator: Sketch 43.2 (39069) - http://www.bohemiancoding.com/sketch -->
    <title>theicons.co/svg/others-27</title>
    <desc>Created with Sketch.</desc>
    <defs></defs>
    <g id="The-Icons" stroke="none" stroke-width="1" fill="none" fill-rule="evenodd">
        <path d="M19,12 L19,5.99406028 C19,4.8927712 19.8874333,4 20.999615,4 L27.000385,4 C28.1047419,4 29,4.89451376 29,5.99406028 L29,12 L35.9957423,12 C38.2072328,12 40,13.7890275 40,16.0042577 L40,39.9957423 C40,42.2072328 38.2109725,44 35.9957423,44 L12.0042577,44 C9.79276724,44 8,42.2109725 8,39.9957423 L8,16.0042577 C8,13.7927672 9.78902751,12 12.0042577,12 L19,12 Z M12,16 L12,40 L36,40 L36,16 L29,16 L29,18.0059397 C29,19.1072288 28.1125667,20 27.000385,20 L20.999615,20 C19.8952581,20 19,19.1054862 19,18.0059397 L19,16 L12,16 Z M20,26 C20,23.790861 21.790861,22 24,22 C26.209139,22 28,23.790861 28,26 C28,27.2419887 27.4339548,28.9839192 26.5457704,30.2710913 L29.1026714,31.5508697 C29.5982523,31.7989175 30,32.4433532 30,33.0093689 L30,34 C30,35.1045695 29.0980496,36 27.9914698,36 L20.0085302,36 C18.8992496,36 18,35.1122704 18,34 L18,33.0093689 C18,32.4519098 18.3940852,31.8031616 18.8862393,31.5573397 L21.4560695,30.2737564 C20.566827,28.9863245 20,27.2428461 20,26 Z M23,8 L23,16 L25,16 L25,8 L23,8 Z" id="Combined-Shape" fill="#000000"></path>
    </g>
</svg>