<?xml version="1.0" encoding="UTF-8"?>
<svg width="48px" height="48px" viewBox="0 0 48 48" version="1.1" xmlns="http://www.w3.org/2000/svg" xmlns:xlink="http://www.w3.org/1999/xlink">
    <!-- Generator: Sketch 43.2 (39069) - http://www.bohemiancoding.com/sketch -->
    <title>theicons.co/svg/others-40</title>
    <desc>Created with Sketch.</desc>
    <defs></defs>
    <g id="The-Icons" stroke="none" stroke-width="1" fill="none" fill-rule="evenodd">
        <path d="M32,40 L33.9982567,40 C35.103789,40 36,40.8877296 36,42 C36,43.1045695 35.1107383,44 33.9982567,44 L6.00174332,44 C4.89621101,44 4,43.1122704 4,42 C4,40.8954305 4.88926172,40 6.00174332,40 L8,40 L8,8.00002553 C8,5.79087243 9.78429328,4 11.990053,4 L28.009947,4 C30.2135924,4 32,5.79642476 32,8.00002553 L32,22 L36,22 C37.1045695,22 38,22.8954305 38,24 L38,30.9996703 C38,31.5506752 38.4496242,32 39,32 C39.5564166,32 40,31.5573417 40,30.9998738 L40,17.6571655 L36.4621333,13.2497659 C35.7746033,12.3852566 35.9180734,11.1270802 36.7825827,10.4395503 C37.647092,9.75202029 38.9052684,9.89549039 39.5927984,10.7599997 L43.5653326,15.7551169 C43.8467793,16.1090118 44,16.5478342 44,17 L44,30.9998738 C44,33.7683523 41.7636883,36 39,36 C36.2410813,36 34,33.7604108 34,30.9996703 L34,26.0049438 L32,26.0016479 L32,40 Z M28,8.00002553 C28,8.00055874 11.990053,8 11.990053,8 C11.9953455,8 11.9984976,30.6209773 11.9995771,40 L28,40 L28,8.00002553 Z M14,10 L26,10 L26,22 L14,22 L14,10 Z M18,14 L18,18 L22,18 L22,14 L18,14 Z" id="Combined-Shape" fill="#000000"></path>
    </g>
</svg>