<?xml version="1.0" encoding="UTF-8"?>
<svg width="48px" height="48px" viewBox="0 0 48 48" version="1.1" xmlns="http://www.w3.org/2000/svg" xmlns:xlink="http://www.w3.org/1999/xlink">
    <!-- Generator: Sketch 43.2 (39069) - http://www.bohemiancoding.com/sketch -->
    <title>theicons.co/svg/others-04</title>
    <desc>Created with Sketch.</desc>
    <defs></defs>
    <g id="The-Icons" stroke="none" stroke-width="1" fill="none" fill-rule="evenodd">
        <path d="M23.1753658,17.6419937 L29.3469385,23.8135664 L35.0021101,18.1550295 L28.8305373,11.9834567 L23.1753658,17.6419937 Z M26.0021101,9.15502948 L24.8472827,8.00020208 L19.1904284,13.6570563 L20.3469385,14.8135664 L26.0021101,9.15502948 Z M32.1753658,26.6419937 L33.3325641,27.799192 L38.9894183,22.1423377 L37.8305373,20.9834567 L32.1753658,26.6419937 Z M43.6128389,40.3849784 C44.1605966,40.3849784 44.604642,40.8283316 44.604642,41.3943473 L44.604642,43.3756095 C44.604642,43.9330685 44.1493364,44.3849784 43.6128389,44.3849784 L25.5964451,44.3849784 C25.0486874,44.3849784 24.604642,43.9416252 24.604642,43.3756095 L24.604642,41.3943473 C24.604642,40.8368882 25.0599476,40.3849784 25.5964451,40.3849784 L28.604642,40.3849784 L28.604642,38.3828915 C28.604642,37.2794746 29.5065924,36.3849784 30.6131722,36.3849784 L38.5961118,36.3849784 C39.7053924,36.3849784 40.604642,37.283239 40.604642,38.3828915 L40.604642,40.3849784 L43.6128389,40.3849784 Z M26.968603,27.0920852 L13.5377029,40.5229853 C11.5828012,42.477887 8.41115465,42.4757623 6.46250639,40.527114 C4.50988493,38.5744926 4.51373866,35.4048139 6.46663509,33.4519175 L19.8975352,20.0210174 L16.3597661,16.4832482 C14.7989034,14.9223855 14.7984683,12.3921622 16.3593162,10.8313143 L22.0215407,5.16908987 C23.5821549,3.60847564 26.1159173,3.61198243 27.6734746,5.1695397 L41.8200807,19.3161458 C43.3809434,20.8770085 43.3813785,23.4072318 41.8205305,24.9680797 L36.1583061,30.6303042 C34.5976919,32.1909184 32.0639295,32.1874116 30.5063722,30.6298543 L26.968603,27.0920852 Z M22.7259624,22.8494445 L9.28513744,36.2902694 C8.90577639,36.6696305 8.90040922,37.3081626 9.29093351,37.6986869 C9.68418047,38.0919338 10.3120278,38.0918062 10.699351,37.704483 L24.1401759,24.2636581 L22.7259624,22.8494445 Z" id="Combined-Shape" fill="#000000"></path>
    </g>
</svg>