<?xml version="1.0" encoding="UTF-8"?>
<svg width="48px" height="48px" viewBox="0 0 48 48" version="1.1" xmlns="http://www.w3.org/2000/svg" xmlns:xlink="http://www.w3.org/1999/xlink">
    <!-- Generator: Sketch 43.2 (39069) - http://www.bohemiancoding.com/sketch -->
    <title>theicons.co/svg/others-28</title>
    <desc>Created with Sketch.</desc>
    <defs></defs>
    <g id="The-Icons" stroke="none" stroke-width="1" fill="none" fill-rule="evenodd">
        <path d="M12,32.9979131 C12,31.8944962 12.8877296,31 14,31 C15.1045695,31 16,31.8982606 16,32.9979131 L16,33.2898787 C17.539104,33.7479384 18.8563666,34.7210931 19.7518802,36.0094348 C20.4866951,36.0017433 44.0013893,36.0017433 44.0013893,36.0017433 L44.0013893,12.0017433 C44.0013893,12.0017433 20.5370262,11.9983 19.7522001,11.9901049 C18.8566804,13.2786751 17.5392873,14.252007 16,14.7101213 L16,15.0020869 C16,16.1055038 15.1122704,17 14,17 C12.8954305,17 12,16.1017394 12,15.0020869 L12,14.7101213 C10.4653201,14.2533783 9.15120798,13.2844972 8.25585254,12.0016672 C7.30487037,12 4.00138927,12.0017433 4.00138927,12.0017433 L4.00138927,36.0017433 C4.00138927,36.0017433 7.46020508,36.0017433 8.25576042,35.9984648 C9.15111784,34.7155692 10.4652675,33.7466374 12,33.2898787 L12,32.9979131 Z M2.00138927,40 C0.896052496,40 0,39.1107383 0,37.9982567 L0,10.0017433 C0,8.89621101 0.894938439,8 2.00138927,8 L10.0026093,8 C10.553453,8 11.1294951,8.42982686 11.3388821,8.94921875 C11.3388821,8.94921875 11.6852417,11 14,11 C16.3147583,11 16.6686491,8.93277395 16.6686491,8.93277395 C16.8516492,8.41761712 17.4554989,8 17.9981978,8 L45.9986107,8 C47.1039475,8 48,8.88926172 48,10.0017433 L48,37.9982567 C48,39.103789 47.1050616,40 45.9986107,40 L17.9981978,40 C17.4469084,40 16.859355,39.5828629 16.6365997,39.0672261 C16.6365997,39.0672261 16.1914062,37 14,37 C11.8085938,37 11.3634003,39.0672261 11.3634003,39.0672261 C11.1626999,39.5823829 10.5537575,40 10.0026093,40 L2.00138927,40 Z M12,21 C12,19.8954305 12.8877296,19 14,19 C15.1045695,19 16,19.8877296 16,21 C16,22.1045695 15.1122704,23 14,23 C12.8954305,23 12,22.1122704 12,21 Z M12,27 C12,25.8954305 12.8877296,25 14,25 C15.1045695,25 16,25.8877296 16,27 C16,28.1045695 15.1122704,29 14,29 C12.8954305,29 12,28.1122704 12,27 Z M22,18 C22,16.8954305 22.8926228,16 23.9950893,16 L38.0049107,16 C39.1067681,16 40,16.8877296 40,18 C40,19.1045695 39.1073772,20 38.0049107,20 L23.9950893,20 C22.8932319,20 22,19.1122704 22,18 Z M22,24 C22,22.8954305 22.8970601,22 24.0058587,22 L33.9941413,22 C35.1019465,22 36,22.8877296 36,24 C36,25.1045695 35.1029399,26 33.9941413,26 L24.0058587,26 C22.8980535,26 22,25.1122704 22,24 Z M22,30 C22,28.8954305 22.8970601,28 24.0058587,28 L33.9941413,28 C35.1019465,28 36,28.8877296 36,30 C36,31.1045695 35.1029399,32 33.9941413,32 L24.0058587,32 C22.8980535,32 22,31.1122704 22,30 Z" id="Path" fill="#000000"></path>
    </g>
</svg>