<?xml version="1.0" encoding="UTF-8"?>
<svg width="48px" height="48px" viewBox="0 0 48 48" version="1.1" xmlns="http://www.w3.org/2000/svg" xmlns:xlink="http://www.w3.org/1999/xlink">
    <!-- Generator: Sketch 43.2 (39069) - http://www.bohemiancoding.com/sketch -->
    <title>theicons.co/svg/others-26</title>
    <desc>Created with Sketch.</desc>
    <defs></defs>
    <g id="The-Icons" stroke="none" stroke-width="1" fill="none" fill-rule="evenodd">
        <path d="M19,12 L19,5.99406028 C19,4.8927712 19.8874333,4 20.999615,4 L27.000385,4 C28.1047419,4 29,4.89451376 29,5.99406028 L29,12 L41.99819,12 C44.2083286,12 46,13.7890275 46,16.0042577 L46,39.9957423 C46,42.2072328 44.2069088,44 41.99819,44 L6.00180999,44 C3.79167136,44 2,42.2109725 2,39.9957423 L2,16.0042577 C2,13.7927672 3.79309123,12 6.00180999,12 L19,12 Z M6,16 L6,40 L42,40 L42,16 L29,16 L29,18.0059397 C29,19.1072288 28.1125667,20 27.000385,20 L20.999615,20 C19.8952581,20 19,19.1054862 19,18.0059397 L19,16 L6,16 Z M12,26 C12,23.790861 13.790861,22 16,22 C18.209139,22 20,23.790861 20,26 C20,27.2419887 19.4339548,28.9839192 18.5457704,30.2710913 L21.1026714,31.5508697 C21.5982523,31.7989175 22,32.4433532 22,33.0093689 L22,34 C22,35.1045695 21.0980496,36 19.9914698,36 L12.0085302,36 C10.8992496,36 10,35.1122704 10,34 L10,33.0093689 C10,32.4519098 10.3940852,31.8031616 10.8862393,31.5573397 L13.4560695,30.2737564 C12.566827,28.9863245 12,27.2428461 12,26 Z M23,8 L23,16 L25,16 L25,8 L23,8 Z M24,26 C24,24.8954305 24.8970601,24 26.0058587,24 L35.9941413,24 C37.1019465,24 38,24.8877296 38,26 C38,27.1045695 37.1029399,28 35.9941413,28 L26.0058587,28 C24.8980535,28 24,27.1122704 24,26 Z M24,32 C24,30.8954305 24.8874333,30 25.999615,30 L32.000385,30 C33.1047419,30 34,30.8877296 34,32 C34,33.1045695 33.1125667,34 32.000385,34 L25.999615,34 C24.8952581,34 24,33.1122704 24,32 Z" id="Combined-Shape" fill="#000000"></path>
    </g>
</svg>