<?xml version="1.0" encoding="UTF-8"?>
<svg width="48px" height="48px" viewBox="0 0 48 48" version="1.1" xmlns="http://www.w3.org/2000/svg" xmlns:xlink="http://www.w3.org/1999/xlink">
    <!-- Generator: Sketch 43.2 (39069) - http://www.bohemiancoding.com/sketch -->
    <title>theicons.co/svg/others-47</title>
    <desc>Created with Sketch.</desc>
    <defs></defs>
    <g id="The-Icons" stroke="none" stroke-width="1" fill="none" fill-rule="evenodd">
        <path d="M14.4977914,37.7701208 C15.1350638,37.1328483 15.5909824,36.0789851 15.8412752,34.7905965 C15.8924778,34.5270297 15.947029,34.0027159 15.9859622,33.5660475 L14.4938868,32.073972 C12.5880958,32.2610723 11.0622508,32.7379426 10.262083,33.5367748 C9.52289523,34.2747288 9.42313723,34.6546751 9.50324844,35.8997319 C9.50128328,35.8691903 9.52728785,36.3043531 9.54621095,36.6498456 C9.86699734,36.4308315 10.2548165,36.302764 10.6725474,36.302764 C11.7771169,36.302764 12.6725474,37.1981945 12.6725474,38.302764 C12.6725474,38.5591622 12.6242998,38.8042916 12.5363883,39.0295684 C13.2631768,38.7616972 13.9202734,38.3476387 14.4977914,37.7701208 Z M21.5715352,36.3231934 C21.0039736,36.8907551 20.1795536,37.0452803 19.4704283,36.7865061 C19.0353041,38.2726921 18.34881,39.5759564 17.3262185,40.5985479 C15.1384429,42.7863235 12.3154885,43.4695772 9.30523777,43.2622986 C7.56413547,43.1424105 6.15085739,42.8540724 5.21937074,42.4588197 C3.9648931,41.926514 3.59848308,40.3229148 4.49728528,39.2986013 C4.54186314,39.2477985 5.74322605,38.0321952 5.74322605,35.9896545 C5.74145639,33.4942932 5.75378618,32.3854115 7.43601928,30.7059862 C8.45840256,29.6853094 9.74005033,29.0166862 11.2355973,28.5965712 C10.9384439,27.8735139 11.0814182,27.0143206 11.6720403,26.4236985 C12.3831644,25.7125744 13.4975236,25.6498652 14.2831051,26.2360885 C14.3078665,26.1772939 16.2216196,21.724517 19.4529051,18.6428387 C22.1960853,16.0266668 26.7142778,12.2067782 30.6978992,9.44616605 C36.5041109,5.42251607 39.9930825,3.8330524 42.0776319,5.9176018 C44.1621839,8.00215375 42.5727202,11.4911254 38.5490702,17.297337 C35.7884581,21.2809585 32.0615244,25.7820121 29.3523975,28.5423311 C26.2713062,31.6816433 21.8180284,33.6873332 21.7592757,33.7120773 C22.3456629,34.4964518 22.2875489,35.6071797 21.5715352,36.3231934 Z M18.629965,30.553196 C19.2179463,30.37384 19.9517561,30.1362861 20.3536828,29.9630537 C22.4483304,29.0602506 24.5520623,27.6783811 26.5239612,25.7139234 C29.0188686,23.2094945 32.6308717,18.8148188 35.2613525,15.0189796 C36.6970548,12.947231 37.7869723,11.1369032 38.4091544,9.77117496 L38.4651585,9.6398852 C38.5102729,9.5341243 38.4719808,9.48032394 38.3553499,9.53007656 L38.2240613,9.58608188 C36.858333,10.2082639 35.0480052,11.2981815 32.9762566,12.7338837 C29.1804174,15.3643645 24.7857417,18.9763676 22.2813129,21.4712751 C20.3168552,23.4431739 18.9349856,25.5469059 18.0321825,27.6415534 C17.8589502,28.0434802 17.6213963,28.7772899 17.4420403,29.3652713 L18.629965,30.553196 Z" id="Combined-Shape" fill="#000000"></path>
    </g>
</svg>