<?xml version="1.0" encoding="UTF-8"?>
<svg width="48px" height="48px" viewBox="0 0 48 48" version="1.1" xmlns="http://www.w3.org/2000/svg" xmlns:xlink="http://www.w3.org/1999/xlink">
    <!-- Generator: Sketch 43.2 (39069) - http://www.bohemiancoding.com/sketch -->
    <title>theicons.co/svg/others-07</title>
    <desc>Created with Sketch.</desc>
    <defs></defs>
    <g id="The-Icons" stroke="none" stroke-width="1" fill="none" fill-rule="evenodd">
        <path d="M10,9.99430406 C10,6.68324555 12.6862915,4 16,4 L40,4 C43.3158637,4 46,6.69136193 46,10.009763 L46,14.0053378 C46,15.1069593 45.1122704,16 44,16 L38,16 L38,38.009947 C38,41.3208267 35.3131642,44 32,44 L8,44 C4.69303423,44 2,41.3137085 2,38 L2,33.9979131 C2,32.8982606 2.8954305,32 4,32 L10,32 L10,9.99430406 Z M14,38.0056959 C14,38.704914 13.8802033,39.3761344 13.6599996,40 L32,40 C33.1065784,40 34,39.1091263 34,38.009947 L34,16 L20,16 C18.8877296,16 18,15.1055038 18,14.0020869 L18,10 C18,8.89845255 17.10085,8 16,8 C14.894358,8 14,8.8934579 14,9.99430406 L14,38.0056959 Z M6,36 L6,38 C6,39.1015475 6.89914997,40 8,40 C9.10564202,40 10,39.1065421 10,38.0056959 L10,36 L6,36 Z M22,10 L22,12 L42,12 L42,10.009763 C42,8.89809728 41.1043139,8 40,8 L21.6578744,8 C21.8793896,8.62555785 22,9.29872915 22,10 Z" id="Combined-Shape" fill="#000000"></path>
    </g>
</svg>