<?xml version="1.0" encoding="UTF-8"?>
<svg width="48px" height="48px" viewBox="0 0 48 48" version="1.1" xmlns="http://www.w3.org/2000/svg" xmlns:xlink="http://www.w3.org/1999/xlink">
    <!-- Generator: Sketch 43.2 (39069) - http://www.bohemiancoding.com/sketch -->
    <title>theicons.co/svg/others-15</title>
    <desc>Created with Sketch.</desc>
    <defs></defs>
    <g id="The-Icons" stroke="none" stroke-width="1" fill="none" fill-rule="evenodd">
        <path d="M18,8 L14.0019124,8 L14.0057373,16 L18,16.0008901 L18,8 Z M18,20 L12.0059191,20 C10.8980806,20 10,19.1054862 10,18.0059397 L10,8 L7.99970728,8 C6.89529944,8 6,7.11227036 6,6 C6,4.8954305 6.88989258,4 7.99970728,4 L40.0002927,4 C41.1047006,4 42,4.88772964 42,6 C42,7.1045695 41.1101074,8 40.0002927,8 L38,8 L38,18.0059397 C38,19.1072288 37.1134452,20 35.9940809,20 L30,20 L30,22 C30,24.0351659 28.9867324,25.8336704 27.4371621,26.9185487 L27.9697186,28.0478622 L34.9887849,28.6398431 C36.0945065,28.7330986 36.3968302,29.472442 35.6571176,30.2989517 L30.5538572,36.0010231 L32.0283549,43.6441705 C32.2380566,44.7311722 31.6176295,45.1812208 30.6467542,44.6516524 L24.0062215,41.0295436 L17.3656888,44.6516524 C16.39295,45.1822372 15.7353183,44.7253773 15.8966335,43.6325395 L17.0231318,36.0010231 L12.3090571,30.3516314 C11.5979987,29.4994923 11.9080548,28.73014 13.0128839,28.6322339 L19.6072704,28.0478622 L20.3002339,26.7238603 C18.8997864,25.6254801 18,23.9178183 18,22 L18,20 Z M34,16.0044556 L34,8 L30,8 L30,16.0035642 L34,16.0044556 Z M26,16.0026728 L26,8 L22,8 L22,16.0017815 L26,16.0026728 Z M21.6047017,37.7965965 L24.0090942,36.4795532 L26.0046907,37.5744267 C26.4828664,37.8367753 26.7984294,37.619817 26.6948646,37.081796 L26.2573853,34.809082 L27.9676449,32.8702887 C28.337308,32.4512294 28.1839841,32.0823334 27.6362741,32.0337672 L25.3226318,31.8286133 L24.2475415,29.5279452 C24.0114885,29.0227974 23.6128216,29.0161328 23.3555887,29.5098378 L22.149292,31.8250732 L20.0030062,32.0309775 C19.4461457,32.0844 19.2971858,32.4670242 19.6519624,32.8873514 L21.2723999,34.8071899 L20.8800315,37.2932244 C20.7938808,37.8390724 21.1185727,38.0628812 21.6047017,37.7965965 Z M24,24 C25.1045695,24 26,23.1045695 26,22 C26,20.8954305 25.1045695,20 24,20 C22.8954305,20 22,20.8954305 22,22 C22,23.1045695 22.8954305,24 24,24 Z" id="Path-Copy-13" fill="#000000"></path>
    </g>
</svg>