<?xml version="1.0" encoding="UTF-8"?>
<svg width="48px" height="48px" viewBox="0 0 48 48" version="1.1" xmlns="http://www.w3.org/2000/svg" xmlns:xlink="http://www.w3.org/1999/xlink">
    <!-- Generator: Sketch 43.2 (39069) - http://www.bohemiancoding.com/sketch -->
    <title>theicons.co/svg/others-49</title>
    <desc>Created with Sketch.</desc>
    <defs></defs>
    <g id="The-Icons" stroke="none" stroke-width="1" fill="none" fill-rule="evenodd">
        <path d="M22,14.0056038 C22,12.8977751 22.8877296,11.9997025 24,11.9997025 C25.1045695,11.9997025 26,12.8967817 26,14.0056038 L26,16 L27.9914698,16 C29.1007504,16 30,16.8877296 30,18 C30,19.1045695 29.0980496,20 27.9914698,20 L26,20 L26,23.9940987 C26,25.1019274 25.1122704,26 24,26 C22.8954305,26 22,25.1029208 22,23.9940987 L22,20 L20.0085302,20 C18.8992496,20 18,19.1122704 18,18 C18,16.8954305 18.9019504,16 20.0085302,16 L22,16 L22,14.0056038 Z M8,20.0044129 C8,11.1654197 15.1615011,4 24,4 C32.836556,4 40,11.1689801 40,20.0044129 L40,32.1112955 C41.5724465,32.6693079 42.2246586,33.1191255 42.2246586,33.1191255 C43.2051526,33.6056191 44,34.8874333 44,35.999615 L44,42.000385 C44,43.1047419 43.1084602,44 42.0027084,44 L5.99729162,44 C4.89421792,44 4,43.1125667 4,42.000385 L4,35.999615 C4,34.8952581 4.78375958,33.5684382 5.78685498,33.1004111 C5.78685498,33.1004111 6.43524479,32.6445024 8,32.0823212 L8,20.0044129 Z M24,30 C29.2749337,30.0135773 33.1844589,30.4755633 36,31.0399988 L36,20.0044129 C36,13.376505 30.6258033,8 24,8 C17.3716332,8 12,13.3735655 12,20.0044129 L12,31.0036509 C14.8137325,30.4397367 18.7227024,29.9864166 24,30 Z M40,36.4673063 C40,36.4673063 39.8173934,36.3517737 39.6416422,36.2716969 C39.0393261,35.997266 38.2234437,35.7049032 37.1728165,35.4197516 C33.9829651,34.5539915 29.6391967,34.0145282 23.9897043,33.9999867 C18.2946128,33.985328 13.9361818,34.5242007 10.7559304,35.4049552 C9.7406652,35.6861278 8.95352391,35.9738916 8.37376244,36.2433304 C8.20594445,36.3213223 8.00042235,36.4326783 8.00042235,36.4326783 L8.00015168,40.0008547 L40,40.0000501 L40,36.4673063 Z" id="Combined-Shape" fill="#000000"></path>
    </g>
</svg>