<?xml version="1.0" encoding="UTF-8"?>
<svg width="48px" height="48px" viewBox="0 0 48 48" version="1.1" xmlns="http://www.w3.org/2000/svg" xmlns:xlink="http://www.w3.org/1999/xlink">
    <!-- Generator: Sketch 43.2 (39069) - http://www.bohemiancoding.com/sketch -->
    <title>theicons.co/svg/others-09</title>
    <desc>Created with Sketch.</desc>
    <defs></defs>
    <g id="The-Icons" stroke="none" stroke-width="1" fill="none" fill-rule="evenodd">
        <path d="M28.3877152,13.4112747 L28.1958176,12.9875453 C27.6581811,11.5839063 27.5377155,10.0713565 28.1545835,8.5786281 C28.4285857,7.91558365 28.8391891,7.30294655 29.3847763,6.75735931 C31.7279221,4.41421356 35.5269119,4.41421356 37.8700577,6.75735931 C38.2038425,7.09114417 39.0886238,8.21365433 39.328589,9.5412173 C40.715699,9.76852494 41.7789135,10.6662151 42.1126984,11 C44.4558441,13.3431458 44.4558441,17.1421356 42.1126984,19.4852814 C41.5293584,20.0686213 40.8663715,20.4951277 40.1463408,20.7638339 C38.7091623,21.3001704 37.2616648,21.1721211 35.9105094,20.6670557 C35.4736048,20.5037396 35.4586304,20.4824951 35.4586304,20.4824951 L31.5060967,24.4350288 L35.4548767,28.3838089 L35.8825124,28.1958176 C37.2861514,27.6581811 38.7987011,27.5377155 40.2914296,28.1545835 C40.954474,28.4285857 41.5671111,28.8391891 42.1126984,29.3847763 C44.4558441,31.7279221 44.4558441,35.5269119 42.1126984,37.8700577 C41.7789135,38.2038425 40.7574471,39.042939 39.3310304,39.3281389 C39.1369637,40.5896919 38.2038425,41.7789135 37.8700577,42.1126984 C35.5269119,44.4558441 31.7279221,44.4558441 29.3847763,42.1126984 C28.8014364,41.5293584 28.37493,40.8663715 28.1062238,40.1463408 C27.5698873,38.7091623 27.6979366,37.2616648 28.203002,35.9105094 C28.2659428,35.7421296 28.39278,35.4493476 28.39278,35.4493476 L24.4369153,31.5042102 L20.5145081,35.4266174 C20.5145081,35.4266174 20.513141,35.4136166 20.6862865,35.8509451 C21.274452,37.336526 21.3769988,38.9528157 20.62018,40.5287561 C20.3460107,41.099665 19.9671496,41.6308301 19.4852814,42.1126984 C17.1421356,44.4558441 13.3431458,44.4558441 11,42.1126984 C10.6662151,41.7789135 9.72967606,40.5287561 9.5386676,39.3151077 C8.28839188,39.1500862 7.09114417,38.2038425 6.75735931,37.8700577 C4.41421356,35.5269119 4.41421356,31.7279221 6.75735931,29.3847763 C7.2492189,28.8929167 7.79305283,28.5088458 8.37832276,28.234279 C9.93746143,27.5028426 11.5330697,27.607196 13.0020061,28.1838286 C13.1617964,28.2465545 13.4413892,28.3732143 13.4413892,28.3732143 L17.369716,24.4407838 L13.432576,20.5036438 L13.0191126,20.6862865 C11.5335317,21.274452 9.91724195,21.3769988 8.34130158,20.62018 C7.77039269,20.3460107 7.23922756,19.9671496 6.75735931,19.4852814 C4.41421356,17.1421356 4.41421356,13.3431458 6.75735931,11 C7.09114417,10.6662151 8.23413163,9.74301224 9.55314156,9.53903434 C9.72375565,8.2974556 10.6662151,7.09114417 11,6.75735931 C13.3431458,4.41421356 17.1421356,4.41421356 19.4852814,6.75735931 C19.977141,7.2492189 20.3612119,7.79305283 20.6357787,8.37832276 C21.367215,9.93746143 21.2628617,11.5330697 20.686229,13.0020061 C20.627256,13.1522362 20.5081341,13.417386 20.5081341,13.417386 L24.4398245,17.3632895 L28.3877152,13.4112747 Z M17.3655433,15.9513297 C16.3817948,14.9675812 16.1199676,13.368098 16.6795295,12.1105203 C16.6795295,12.1105203 16.903443,11.7144769 16.9628354,11.5403837 C17.2775887,10.6177681 17.1510933,10.1063166 16.6568542,9.58578644 C15.8963672,8.78484529 14.5904255,8.7891826 13.8284271,9.58578644 C13.4963997,9.93289261 13.4103006,10.6720921 13.4103006,10.6720921 C13.1411869,11.986761 12.0062796,13.1081324 10.7134185,13.401385 C10.7134185,13.401385 9.88635331,13.5207832 9.58578644,13.8284271 C8.81428989,14.618089 8.80473785,15.8758057 9.58578644,16.6568542 C9.75135514,16.822423 9.91250504,16.9375951 10.072909,17.0144158 C10.9680489,17.443116 12.060708,16.7075144 12.060708,16.7075144 C13.3247381,16.0917484 14.9602603,16.3744739 15.9553499,17.3695634 L20.1966665,21.6108801 L21.6101418,20.1959282 L17.3655433,15.9513297 Z M27.263456,28.6776695 L31.5075618,32.9217754 C32.4774088,33.8916223 32.7550816,35.4795187 32.2267021,36.7228852 C32.2267021,36.7228852 31.223481,38.2698067 32.2132034,39.2842712 C32.9844162,40.0747636 34.2457588,40.0500858 35.0416306,39.2842712 C35.2855843,39.0495308 35.4597571,38.1979656 35.4597571,38.1979656 C35.7288708,36.8832967 36.8637781,35.7619253 38.1566392,35.4686727 C38.1566392,35.4686727 38.8969429,35.3551643 39.2842712,35.0416306 C40.0653198,34.260582 40.0653198,32.994252 39.2842712,32.2132034 C39.1091658,32.038098 38.9399047,31.9185258 38.7637411,31.8513616 C37.8700577,31.5106353 36.7861211,32.1876993 36.7861211,32.1876993 C35.5280638,32.7807716 33.9093059,32.4950923 32.9248489,31.5106353 L28.6776695,27.263456 L27.263456,28.6776695 Z M17.3644522,32.919819 L32.919819,17.3644522 C33.8901626,16.3941086 35.4788663,16.1146988 36.7228852,16.6433556 C36.7228852,16.6433556 37.8240669,17.3196114 38.747805,17.0162883 C38.9329613,16.9554895 39.1058532,16.8352723 39.2842712,16.6568542 C40.0653198,15.8758057 40.0557612,14.6180755 39.2842712,13.8284271 C38.9667366,13.5034187 38.1979656,13.4103006 38.1979656,13.4103006 C36.8832967,13.1411869 35.7619253,12.0062796 35.4686727,10.7134185 C35.4686727,10.7134185 35.3946846,9.93747025 35.0416306,9.58578644 C34.2592912,8.80648344 32.994252,8.80473785 32.2132034,9.58578644 C32.038098,9.76089184 31.9252703,9.9328765 31.8513616,10.1063166 C31.5056055,10.9176949 32.1876993,12.0839366 32.1876993,12.0839366 C32.7815372,13.343618 32.4904751,14.965369 31.5056055,15.9502386 L15.9502386,31.5056055 C14.9667609,32.4890832 13.3677326,32.7499275 12.1105203,32.1905282 C12.1105203,32.1905282 10.569825,31.140168 9.58578644,32.2132034 C8.83926794,33.0272374 8.80473785,34.260582 9.58578644,35.0416306 C9.8863228,35.3147278 10.6720921,35.4597571 10.6720921,35.4597571 C11.986761,35.7288708 13.1081324,36.8637781 13.401385,38.1566392 C13.401385,38.1566392 13.5429392,39.0423889 13.8284271,39.2842712 C14.6094757,40.0653198 15.9034957,40.092019 16.6568542,39.2842712 C17.7085579,38.1566392 16.7075144,36.8093496 16.7075144,36.8093496 C16.0927633,35.5474028 16.3717313,33.9125399 17.3644522,32.919819 Z" id="Combined-Shape" fill="#000000"></path>
    </g>
</svg>