<?xml version="1.0" encoding="UTF-8"?>
<svg width="48px" height="48px" viewBox="0 0 48 48" version="1.1" xmlns="http://www.w3.org/2000/svg" xmlns:xlink="http://www.w3.org/1999/xlink">
    <!-- Generator: Sketch 43.2 (39069) - http://www.bohemiancoding.com/sketch -->
    <title>theicons.co/svg/others-53</title>
    <desc>Created with Sketch.</desc>
    <defs></defs>
    <g id="The-Icons" stroke="none" stroke-width="1" fill="none" fill-rule="evenodd">
        <path d="M24,24.75 L34,20.5833333 L34,17.0833333 L24,21.25 L14,17.0833333 L14,20.5833333 L24,24.75 Z M14,30.9967004 C14,30.9709209 14.0859132,31.1602697 14.0594796,31.1373923 L24,39.740598 L33.9405204,31.1373923 C33.9162078,31.1584341 34,30.9736514 34,30.9967004 L34,27.0833333 L24,31.25 L14,27.0833333 L14,30.9967004 Z M24,14.75 L34,10.5833333 L34,8 L14,8 L14,10.5833333 L24,14.75 Z M10,7.00329963 C10,5.34576403 11.3417537,4 13.0006946,4 L34.9993054,4 C36.6576362,4 38,5.3477912 38,7.00329963 L38,30.9967004 C38,32.1303752 37.4150459,33.4203447 36.5581721,34.1619418 L26.0594796,43.2482278 C24.8932856,44.2575318 23.1088565,44.2593857 21.9405204,43.2482278 L11.4418279,34.1619418 C10.5873217,33.4223937 10,32.1279627 10,30.9967004 L10,7.00329963 Z" id="Combined-Shape" fill="#000000"></path>
    </g>
</svg>