<?xml version="1.0" encoding="UTF-8"?>
<svg width="48px" height="48px" viewBox="0 0 48 48" version="1.1" xmlns="http://www.w3.org/2000/svg" xmlns:xlink="http://www.w3.org/1999/xlink">
    <!-- Generator: Sketch 43.2 (39069) - http://www.bohemiancoding.com/sketch -->
    <title>theicons.co/svg/others-13</title>
    <desc>Created with Sketch.</desc>
    <defs></defs>
    <g id="The-Icons" stroke="none" stroke-width="1" fill="none" fill-rule="evenodd">
        <path d="M11.9863172,10 L13.9863172,10 C13.9863172,8.89130934 14.87894,8 15.9814065,8 L42.9863172,8 L42.9863172,5.99961498 C42.9863172,4.89525812 43.8740469,4 44.9863172,4 C46.0908867,4 46.9863172,4.88743329 46.9863172,5.99961498 L46.9863172,17.9914698 C46.9863172,19.1007504 46.0953918,20 44.9888953,20 L31.9863172,20 L31.9863172,29.9946916 C31.9863172,33.3113318 29.2927088,36 25.9810088,36 L20.0746336,36 C19.8488383,38.2254174 20.0024302,40.0457745 20.0024302,40.0457745 C20.0024302,40.0457745 20.0024302,42 17.9658091,42 L2.98588862,42 C1.88155583,42 1.1510892,41.1200353 1.36930291,40.0457742 C1.36930291,40.0457742 1.56810128,26.2169945 7.97885178,20.463181 C6.75568717,19.3637382 5.98631722,17.7697859 5.98631722,16 C5.98631722,15.2121106 6.13856249,14.4596909 6.41510644,13.7704157 C5.61625117,13.3664676 4.80599663,13.3231696 3.91903922,13.7817996 C2.93787742,14.289141 1.73120716,13.9050337 1.22386575,12.9238719 C0.716524343,11.9427101 1.10063166,10.7360398 2.08179346,10.2286984 C4.48285255,8.98715323 6.83668,9.30575869 8.83567292,10.5473664 C8.93373411,10.6082739 9.02784354,10.66939 9.11797697,10.7303617 C9.9707317,10.2646795 10.9482792,10 11.9863172,10 Z M13.9863172,14 L11.9863172,14 C10.8854672,14 9.98631722,14.8984525 9.98631722,16 C9.98631722,17.10085 10.8847698,18 11.9863172,18 L13.9863172,18 L13.9863172,14 Z M42.9863172,12.000385 L31.9863172,12 L31.9863172,16.0024414 L42.9863172,16.0091553 L42.9953799,12.1932055 C42.989384,12.1297903 42.9863172,12.0654725 42.9863172,12.000385 Z M6.9480655,30.1825294 C6.29557184,32.3340022 5.85445439,34.6839104 5.59360812,37.0407486 C5.50185535,37.8697674 5.49834115,38 5.49834115,38 C5.49834115,38 15.6265757,38.0005875 15.9863172,38.0005877 C15.9734809,36.4571561 16.1218711,34.8258144 16.4579153,33.2089387 C16.8712627,31.2201194 17.5421738,29.4467293 18.4961635,28 L15.9814065,28 C14.8795491,28 13.9863172,27.1017876 13.9863172,26.0092049 L13.9863172,22.0125555 C10.8386693,22.237694 8.51425663,25.0183143 6.9480655,30.1825294 Z M20.9525318,32 L25.9810088,32 C27.0857846,32 27.9863172,31.0999788 27.9863172,29.9946916 L27.9863172,28 L26.0258677,28 C23.3079942,28 21.7909081,29.7954495 20.9525318,32 Z M28.0041879,20 L23.9859322,20 C22.8815753,20 21.9863172,19.1122704 21.9863172,18 C21.9863172,16.8954305 22.8737505,16 23.9859322,16 L28.0219249,16 L28.0307934,14 L23.9859322,14 C22.8815753,14 21.9863172,13.1122704 21.9863172,12 L17.991078,12 L17.9921766,24 L21.9863523,24.01205 C21.9863172,22.8954305 22.8737505,22 23.9859322,22 L27.9953194,22 L28.0041879,20 Z" id="Rectangle-815" fill="#000000"></path>
    </g>
</svg>