<?xml version="1.0" encoding="UTF-8"?>
<svg width="48px" height="48px" viewBox="0 0 48 48" version="1.1" xmlns="http://www.w3.org/2000/svg" xmlns:xlink="http://www.w3.org/1999/xlink">
    <!-- Generator: Sketch 43.2 (39069) - http://www.bohemiancoding.com/sketch -->
    <title>theicons.co/svg/others-31</title>
    <desc>Created with Sketch.</desc>
    <defs></defs>
    <g id="The-Icons" stroke="none" stroke-width="1" fill="none" fill-rule="evenodd">
        <path d="M26.8284271,26.8284271 C25.26633,28.3905243 22.73367,28.3905243 21.1715729,26.8284271 C19.6094757,25.26633 19.6094757,22.73367 21.1715729,21.1715729 C22.2184902,20.1246555 23.7013532,19.7793821 25.0358204,20.1357525 L28.0644251,17.1071478 C24.996614,15.2952794 20.9790127,15.7072788 18.3431458,18.3431458 C15.2189514,21.4673401 15.2189514,26.5326599 18.3431458,29.6568542 C21.4673401,32.7810486 26.5326599,32.7810486 29.6568542,29.6568542 C30.875917,28.4377915 31.6482045,26.8956256 31.9056111,25.2297301 C32.0742825,24.1381149 33.0959467,23.3899211 34.1875619,23.5585925 C35.2791771,23.7272639 36.0273708,24.7489281 35.8586994,25.8405433 C35.4725828,28.3394306 34.3104079,30.6601549 32.4852814,32.4852814 C27.7989899,37.1715729 20.2010101,37.1715729 15.5147186,32.4852814 C10.8284271,27.7989899 10.8284271,20.2010101 15.5147186,15.5147186 C19.7191703,11.310267 26.2673381,10.8779694 30.9537469,14.217826 L33.8119639,11.3596089 C27.5351048,6.47461336 18.4557421,6.91684089 12.6862915,12.6862915 C6.43790283,18.9346802 6.43790283,29.0653198 12.6862915,35.3137085 C18.9346802,41.5620972 29.0653198,41.5620972 35.3137085,35.3137085 C36.3476244,34.2797926 37.2234452,33.127313 37.9294114,31.8814559 C38.4739667,30.9204495 39.6944656,30.5828491 40.655472,31.1274044 C41.6164784,31.6719597 41.9540787,32.8924586 41.4095235,33.853465 C40.5263156,35.4121101 39.4314699,36.8528013 38.1421356,38.1421356 C30.3316498,45.9526215 17.6683502,45.9526215 9.85786438,38.1421356 C2.04737854,30.3316498 2.04737854,17.6683502 9.85786438,9.85786438 C17.191054,2.52467477 28.8020719,2.07654596 36.6580949,8.51347795 C37.5117708,7.65980206 38.7698553,7.6571569 39.5563492,8.44365081 C40.3373978,9.2246994 40.3414683,10.4869589 39.5626035,11.2658236 L27.8642475,22.9641796 C28.2206179,24.2986468 27.8753445,25.7815098 26.8284271,26.8284271 Z M43.1160585,26.144986 C44.2876314,24.9734131 44.2876314,23.0739182 43.1160585,21.9023453 C41.9444857,20.7307724 40.0449907,20.7307724 38.8734179,21.9023453 C37.701845,23.0739182 37.701845,24.9734131 38.8734179,26.144986 C40.0449907,27.3165588 41.9444857,27.3165588 43.1160585,26.144986 Z" id="Combined-Shape" fill="#000000"></path>
    </g>
</svg>