<?xml version="1.0" encoding="UTF-8"?>
<svg width="48px" height="48px" viewBox="0 0 48 48" version="1.1" xmlns="http://www.w3.org/2000/svg" xmlns:xlink="http://www.w3.org/1999/xlink">
    <!-- Generator: Sketch 43.2 (39069) - http://www.bohemiancoding.com/sketch -->
    <title>theicons.co/svg/others-22</title>
    <desc>Created with Sketch.</desc>
    <defs></defs>
    <g id="The-Icons" stroke="none" stroke-width="1" fill="none" fill-rule="evenodd">
        <path d="M30,43.0059397 C30,44.1072288 29.0980496,45 27.9914698,45 L20.0085302,45 C18.8992496,45 18,44.1054862 18,43.0059397 L18,35 L8.00585866,35 C5.79645312,35 4,33.2130355 4,31.0059397 L4,21.994557 C4,17.0290167 8.03528197,13 13,13 L24,13 L24,4.99810135 C24,3.89458045 24.9001762,3 25.992017,3 L33.007983,3 C34.1081436,3 35,3.88670635 35,4.99810135 L35,7 C35,9.209139 33.2081782,11 30.9976305,11 L28,11 L28,13 L35,13 L35,17 L28,17 L28,18.9941413 C28,20.1019465 27.1122704,21 26,21 C24.8954305,21 24,20.1029399 24,18.9941413 L24,17 L20.4831165,17 C21.4410801,18.4295482 22,20.1478384 22,21.994557 L22,30.9996419 C27.8072561,30.999024 40,30.9981175 40,31.0014003 L40,21.994557 C40,19.2428513 37.7577118,17 35,17 L35,13 C39.9670757,13 44,17.0339371 44,21.994557 L44,31.0014003 C44,33.2093009 42.2031615,35 39.9985623,35 L30,35 L30,43.0059397 Z M21.9988556,35 L21.9954224,41 L26,41 L26,35 L21.9988556,35 Z M13,17 C10.2430308,17 8,19.2395483 8,21.994557 C8,21.994557 8.00086396,31 8.00585866,31 L18,31 L18,21.994557 C18,19.2428513 15.7577118,17 13,17 Z M13,28 C11.8954305,28 11,27.1045695 11,26 C11,24.8954305 11.8954305,24 13,24 C14.1045695,24 15,24.8954305 15,26 C15,27.1045695 14.1045695,28 13,28 Z" id="Combined-Shape" fill="#000000"></path>
    </g>
</svg>