<?xml version="1.0" encoding="UTF-8"?>
<svg width="48px" height="48px" viewBox="0 0 48 48" version="1.1" xmlns="http://www.w3.org/2000/svg" xmlns:xlink="http://www.w3.org/1999/xlink">
    <!-- Generator: Sketch 43.2 (39069) - http://www.bohemiancoding.com/sketch -->
    <title>theicons.co/svg/others-16</title>
    <desc>Created with Sketch.</desc>
    <defs></defs>
    <g id="The-Icons" stroke="none" stroke-width="1" fill="none" fill-rule="evenodd">
        <path d="M4,16 C4,14.513236 5.56462501,13.5462445 6.89442719,14.2111456 L15.1676694,18.3477667 L22.2352941,5.05882353 C22.9882353,3.64705882 25.0117647,3.64705882 25.7647059,5.05882353 L32.8573289,18.3574918 L41.1055728,14.2111456 C42.435375,13.5462445 44,14.513236 44,16 L44,36.9999998 C44,41.5475781 35.1712811,44 24,44 C12.8287189,44 4,41.5475781 4,37 L4,16 Z M24,30 C30.5942605,30 36.372282,30.8545184 40,32.4900733 L40,19.2417603 L32.8944272,22.7888544 C31.9248003,23.2736678 30.7454475,22.897714 30.2352941,21.9411765 L24.0086404,10.2662007 L17.7647059,21.9411765 C17.2545525,22.897714 16.0751997,23.2736678 15.1055728,22.7888544 L8.00667144,19.2394037 L8.00169436,32.4893096 C11.629517,30.8542524 17.406766,30 24,30 Z M11.8073657,38.6084981 C14.9734836,39.4879753 19.3315081,40 24,40 C28.6684919,40 33.0265164,39.4879753 36.1926343,38.6084981 C37.6501466,38.2036336 38.7805232,37.738862 39.4875849,37.274506 C39.762132,37.0941998 39.7525631,37 39.7525631,37 C39.7525631,37 39.762132,36.9058002 39.4875849,36.725494 C38.7805232,36.261138 37.6501466,35.7963664 36.1926343,35.3915019 C33.0265164,34.5120247 28.6684919,34 24,34 C19.3315081,34 14.9734836,34.5120247 11.8073657,35.3915019 C10.3498534,35.7963664 9.21947683,36.261138 8.51241511,36.725494 C8.23786803,36.9058002 8.26721191,37 8.26721191,37 C8.26721191,37 8.23786803,37.0941998 8.51241511,37.274506 C9.21947683,37.738862 10.3498534,38.2036336 11.8073657,38.6084981 Z M24,28 C22.3431458,28 21,26.6568542 21,25 C21,23.3431458 22.3431458,22 24,22 C25.6568542,22 27,23.3431458 27,25 C27,26.6568542 25.6568542,28 24,28 Z" id="Combined-Shape" fill="#000000"></path>
    </g>
</svg>