<?xml version="1.0" encoding="UTF-8"?>
<svg width="48px" height="48px" viewBox="0 0 48 48" version="1.1" xmlns="http://www.w3.org/2000/svg" xmlns:xlink="http://www.w3.org/1999/xlink">
    <!-- Generator: Sketch 43.2 (39069) - http://www.bohemiancoding.com/sketch -->
    <title>theicons.co/svg/others-23</title>
    <desc>Created with Sketch.</desc>
    <defs></defs>
    <g id="The-Icons" stroke="none" stroke-width="1" fill="none" fill-rule="evenodd">
        <path d="M31.671337,16 C31.7146571,15.9346275 33.0526177,13.9519621 33.4041669,13.4162788 C34.1638341,12.2587142 34.7230238,11.3228958 35.1498749,10.4696836 C35.7091329,9.35180965 35.971262,8.49638331 35.971262,8.00000047 C35.971262,7.99696911 12.0006616,8 12.0006616,8 C12,9.25785689 12.7389143,10.7636809 15.0307454,14.250914 C15.4985049,14.9626535 15.862392,15.5211515 16.1664824,16 L31.671337,16 Z M24.0440154,26 C22.6575467,26 20.4557113,25.3083035 18.8770329,24.7384682 C18.711443,25.9124759 18.3210795,28.1967025 17.6547149,29.4449277 C17.583104,29.5790683 17.5074149,29.717858 17.3799314,29.9508774 C16.779634,31.0529169 16.2693451,31.8630949 15.0307454,33.747739 C12.7389143,37.2349722 12,38.7407962 12.0006616,39.9986531 C12.0006616,39.9986531 35.971262,40.001684 35.971262,39.9986526 C35.971262,39.5022698 35.7091329,38.6468434 35.1498749,37.5289695 C34.7230238,36.6757573 34.1638341,35.7399389 33.4041669,34.5823742 C33.0526177,34.046691 31.8544649,32.2737227 31.8044791,32.1988293 C31.1471493,31.2139568 30.7182188,30.5244121 30.3737957,29.8607652 C29.6614974,28.4882833 29.2438207,25.9974917 29.0700633,24.751215 C27.5264317,25.3185642 25.3918508,26 24.0440154,26 Z M13.8672575,28.0388184 C14.4663123,26.9390601 15.0084929,26.0129395 15.0084929,24 C15.0084929,21.9664307 14.4663123,21.06094 13.8672575,19.9611816 C11.7095427,16 8.00000002,12.0048828 8,7.99413634 C7.99999999,5.79316878 9.79115722,4 12.0006616,4 L35.9706,4 C38.1838407,4 39.9712617,5.78823897 39.971262,8.00000003 C39.971262,12 35.3299198,17.2717482 33.924136,19.9804631 C33.3779834,21.0328095 32.974802,21.9946289 32.974802,24 C32.974802,25.9504395 33.3779834,26.9671905 33.924136,28.019537 C35.3299198,30.7282518 39.971262,36 39.971262,40.0058565 C39.9712617,42.2117611 38.1838407,44 35.9706,44 L12.0006616,44 C9.79115722,44 7.99999999,42.2068313 8,40 C8.00000002,35.9951172 11.7095427,32 13.8672575,28.0388184 Z M23.9712615,34 C22.3144073,34 20.9712615,32.6568543 20.9712615,31 C20.9712615,29.3431458 22.3144073,28 23.9712615,28 C25.6281158,28 26.9712615,29.3431458 26.9712615,31 C26.9712615,32.6568543 25.6281158,34 23.9712615,34 Z" id="Rectangle-903" fill="#000000"></path>
    </g>
</svg>