<?xml version="1.0" encoding="UTF-8"?>
<svg width="48px" height="48px" viewBox="0 0 48 48" version="1.1" xmlns="http://www.w3.org/2000/svg" xmlns:xlink="http://www.w3.org/1999/xlink">
    <!-- Generator: Sketch 43.2 (39069) - http://www.bohemiancoding.com/sketch -->
    <title>theicons.co/svg/others-14</title>
    <desc>Created with Sketch.</desc>
    <defs></defs>
    <g id="The-Icons" stroke="none" stroke-width="1" fill="none" fill-rule="evenodd">
        <path d="M23.6802947,39.0725971 C24.4595446,39.851847 25.7255552,39.8515276 26.5066038,39.0704791 C27.2930977,38.2839852 27.2886007,37.0240488 26.5087218,36.24417 L24.3852835,34.1207316 L43.4822673,15.0237477 C43.8644051,14.64161 44.1846609,13.8718408 44.1851389,13.31686 L44.1923058,4.99662156 C44.1932618,3.88681253 43.2993389,2.9990501 42.195685,3.00000076 L33.8754466,3.00716764 C33.314458,3.00765086 32.5562661,3.32233202 32.1685588,3.71003923 L13.071575,22.8070231 L10.9481366,20.6835847 C10.1688867,19.9043348 8.90287609,19.9046542 8.1218275,20.6857028 C7.33533359,21.4721967 7.33983065,22.732133 8.11970948,23.5120119 L11.6573614,27.0496638 L3.17153554,35.5354897 C1.61111894,37.0959063 1.60866153,39.6283809 3.16912874,41.1888481 L6.00345845,44.0231778 C7.55860193,45.5783213 10.0950205,45.5825675 11.6568169,44.020771 L20.1426428,35.5349452 L23.6802947,39.0725971 Z M14.4857885,29.8780909 L13.0878299,31.2760496 L13.7840413,36.2361133 C14.9922427,35.0277043 16.2439356,33.7760601 17.3139137,32.7062161 L14.4857885,29.8780909 Z M10.2422311,39.7797816 C9.38229888,40.6407235 8.83081834,41.1936835 8.83188558,41.1947507 C8.83188558,41.1947507 6.00041468,38.3634648 5.99996266,38.3639168 L9.54579096,34.8180885 L10.2422311,39.7797816 Z M30.0486465,19.9720872 C30.8212192,19.1995145 30.8231863,17.9312174 30.0421377,17.1501688 C29.2556438,16.3636749 27.9976733,16.3662062 27.2202194,17.14366 L17.3142157,27.0496638 L15.9000021,25.6354502 L34.530479,7.0049733 L40.2064292,7.00171575 L40.1872488,12.6883141 L21.5585974,31.2940455 L20.1426428,29.8780909 L30.0486465,19.9720872 Z" id="Rectangle-850" fill="#000000"></path>
    </g>
</svg>