<?xml version="1.0" encoding="UTF-8"?>
<svg width="48px" height="48px" viewBox="0 0 48 48" version="1.1" xmlns="http://www.w3.org/2000/svg" xmlns:xlink="http://www.w3.org/1999/xlink">
    <!-- Generator: Sketch 43.2 (39069) - http://www.bohemiancoding.com/sketch -->
    <title>theicons.co/svg/others-03</title>
    <desc>Created with Sketch.</desc>
    <defs></defs>
    <g id="The-Icons" stroke="none" stroke-width="1" fill="none" fill-rule="evenodd">
        <path d="M13.9533692,34.2772284 C14.348877,34.7076106 15.0214963,35.3291053 15.7031776,35.7816158 C17.7283798,37.1259758 20.4351931,37.9463191 23.9608765,37.9463191 C27.486078,37.9463191 30.1894659,37.1262671 32.2095349,35.7826345 C32.8892466,35.3305297 33.6983032,34.6810603 33.9533692,34.2794462 L33.9533692,25.8941366 L26.6164481,29.3854317 C25.0769826,30.1179909 22.8294946,30.1173667 21.2946682,29.3840993 L13.9533692,25.8767739 L13.9533692,34.2772284 Z M9.95336915,23.9657631 L1.13783544,19.7541181 C-0.380398339,19.0287779 -0.378958809,16.8670386 1.14023965,16.143721 L21.287744,6.5511331 C22.8268687,5.81832825 25.076416,5.81618281 26.6140482,6.54536585 L46.851355,16.1423952 C48.3742745,16.8646012 48.3757137,19.031222 46.853755,19.7554505 L45.9533692,20.1839017 L45.9533692,29.7133864 C46.5671185,30.262707 46.9533692,31.0609931 46.9533692,31.9494929 C46.9533692,33.6063472 45.6102234,34.9494929 43.9533692,34.9494929 C42.2965149,34.9494929 40.9533692,33.6063472 40.9533692,31.9494929 C40.9533692,31.0609931 41.3396198,30.262707 41.9533692,29.7133864 L41.9533692,22.0873133 L37.9533692,23.9907249 L37.9533692,34.917174 C37.9596056,35.2817244 37.8662948,35.65236 37.6631625,35.9870895 C37.5046721,36.2482565 37.2287899,36.6236379 36.8219301,37.0728513 C36.1835014,37.7777395 35.3884491,38.4722266 34.4248188,39.1131776 C31.7496249,40.8925613 28.275801,41.9463191 23.9608765,41.9463191 C19.6464338,41.9463191 16.1704049,40.8928526 13.49096,39.1141963 C12.5260148,38.473651 11.7294327,37.7796492 11.0893692,37.0752928 C10.6815509,36.62651 10.4048644,36.2515672 10.2458555,35.9908368 C10.0412174,35.6552874 9.94715462,35.2833167 9.95336915,34.9174178 L9.95336915,23.9657631 Z M23.0072647,10.1626769 L6.63577168,17.9477186 L23.0189974,25.7748489 C23.4646015,25.9877374 24.4469514,25.9880102 24.8977078,25.7735165 L41.3227744,17.9576009 L24.9001077,10.1595612 C24.4494028,9.94582582 23.4607409,9.94676873 23.0072647,10.1626769 Z" id="Combined-Shape" fill="#000000"></path>
    </g>
</svg>