<?xml version="1.0" encoding="UTF-8"?>
<svg width="48px" height="48px" viewBox="0 0 48 48" version="1.1" xmlns="http://www.w3.org/2000/svg" xmlns:xlink="http://www.w3.org/1999/xlink">
    <!-- Generator: Sketch 43.2 (39069) - http://www.bohemiancoding.com/sketch -->
    <title>theicons.co/svg/others-02</title>
    <desc>Created with Sketch.</desc>
    <defs></defs>
    <g id="The-Icons" stroke="none" stroke-width="1" fill="none" fill-rule="evenodd">
        <path d="M3.32964607,20.2782086 C4.5922321,20.5380501 5.92350432,20.5648149 7.10305589,20.227496 C8.04316026,19.9586523 8.83180449,19.4714568 9.47199015,18.710127 C13.2775562,14.200241 14.8656288,13.0305784 18.0160018,13 C19.65857,13.0129202 21.3153944,13.4535527 22.9359667,14.1710527 C23.3274812,14.3443936 23.6840059,14.5183523 24.000346,14.6846143 C24.3166862,14.5183523 24.6732109,14.3443936 25.0647254,14.1710527 C26.6852977,13.4535527 28.3421221,13.0129202 29.9846903,13 C33.1350633,13.0305784 34.7231359,14.200241 38.5287019,18.710127 C39.1688876,19.4714568 39.9575318,19.9586523 40.8976362,20.227496 C42.0771878,20.5648149 43.40846,20.5380501 44.671046,20.2782086 C45.0171869,20.2069724 45.2573544,20.1399803 45.3577056,20.1059397 C45.8152793,19.9532814 46.3168097,19.9606597 46.7846955,20.160074 C47.8008244,20.5931511 48.2734812,21.7679647 47.8404041,22.7840937 C47.6716254,23.1800992 47.3613849,23.8350544 46.9157826,24.6648734 C46.1773732,26.03997 45.3168821,27.4154028 44.3358849,28.7086457 C41.3881893,32.5945758 37.964728,34.9999381 34.0005399,34.9999381 C30.1853455,34.9999381 27.1069148,33.4227396 24.7707401,30.8422102 C24.497326,30.540198 24.0005273,29.9182136 24.0005273,29.9182136 C23.7602692,30.2314694 23.5037287,30.540198 23.2303145,30.8422102 C20.8941398,33.4227396 17.8157092,34.9999381 14.0005147,34.9999381 C10.0363266,34.9999381 6.61286535,32.5945758 3.66516971,28.7086457 C2.68417257,27.4154028 1.82368141,26.03997 1.08527201,24.6648734 C0.639669754,23.8350544 0.329429266,23.1800992 0.160650556,22.7840937 C-0.272426582,21.7679647 0.200230271,20.5931511 1.21635919,20.160074 C1.68943283,19.9584486 2.19690145,19.9531414 2.64790236,20.1075961 C2.7510376,20.1421216 2.98903446,20.2081103 3.32964607,20.2782086 Z M6.85203403,26.2912306 C9.11941102,29.2803005 11.5669062,30.9999381 14.0005147,30.9999381 C16.5952934,30.9999381 18.6404284,29.9521367 20.2649776,28.1576661 C20.8491602,27.5123803 21.3341778,26.8155189 21.7205505,26.1211863 C21.9452938,25.7173105 22.081006,25.4202153 22.1331277,25.2838067 C22.3295774,24.772045 22.7343843,24.3426777 23.2867666,24.1316427 C24.3185977,23.7374366 25.4746292,24.2543338 25.8688353,25.2861648 C25.9200487,25.4202153 26.0557609,25.7173105 26.2805042,26.1211863 C26.6668768,26.8155189 27.1518945,27.5123803 27.736077,28.1576661 C29.3606262,29.9521367 31.4057612,30.9999381 34.0005399,30.9999381 C36.4341485,30.9999381 38.8816436,29.2803005 41.1490206,26.2912306 C41.4334398,25.9162825 41.8649963,25.2250397 42.3132939,24.4707749 C41.473088,24.4369417 40.629927,24.3112849 39.7978349,24.0733297 C38.1186464,23.5931286 36.6408328,22.6801895 35.4694261,21.2871057 C32.3704226,17.6145548 31.5567966,17.0152951 29.9808117,16.999842 C28.9976789,17.0078874 28.0191621,17.3303771 26.7489888,17.8286023 C26.0084493,18.1190788 24.8492128,19.0008476 24.000346,19.000144 C23.1514793,18.9994404 21.9873216,18.1504831 21.3166055,17.8286023 C20.0117452,17.2023917 19.0030132,17.0078874 18.0198804,16.999842 C16.4438955,17.0152951 15.6302695,17.6145548 12.531266,21.2871057 C11.3598593,22.6801895 9.88204572,23.5931286 8.20285715,24.0733297 C7.37088197,24.3112514 6.52784095,24.4369064 5.68775224,24.4707607 C6.13605291,25.225031 6.56761309,25.9162801 6.85203403,26.2912306 Z" id="Combined-Shape" fill="#000000"></path>
    </g>
</svg>