<?xml version="1.0" encoding="UTF-8"?>
<svg width="48px" height="48px" viewBox="0 0 48 48" version="1.1" xmlns="http://www.w3.org/2000/svg" xmlns:xlink="http://www.w3.org/1999/xlink">
    <!-- Generator: Sketch 43.2 (39069) - http://www.bohemiancoding.com/sketch -->
    <title>theicons.co/svg/others-17</title>
    <desc>Created with Sketch.</desc>
    <defs></defs>
    <g id="The-Icons" stroke="none" stroke-width="1" fill="none" fill-rule="evenodd">
        <path d="M29.7275354,29.2129866 L31.3831633,30.8686145 C33.6134188,29.8032083 36.3655444,30.1941414 38.2128168,32.0414138 C40.5559626,34.3845595 40.5559626,38.1835494 38.2128168,40.5266951 C35.8696711,42.8698409 32.0706812,42.8698409 29.7275354,40.5266951 C27.8802631,38.6794228 27.48933,35.9272971 28.5547362,33.6970417 L26.8991083,32.0414138 L25.4909265,33.4495956 C25.0767641,33.863758 24.5265682,34.0608117 23.9850881,34.0392688 C23.4436079,34.0608117 22.8934121,33.863758 22.4792496,33.4495956 L21.0710678,32.0414138 L19.4154399,33.6970417 C20.4808461,35.9272971 20.0899131,38.6794228 18.2426407,40.5266951 C15.8994949,42.8698409 12.1005051,42.8698409 9.75735931,40.5266951 C7.41421356,38.1835494 7.41421356,34.3845595 9.75735931,32.0414138 C11.6046317,30.1941414 14.3567573,29.8032083 16.5870128,30.8686145 L18.2426407,29.2129866 L9.92853795,20.7276976 C6.02184787,16.8210076 6.02472969,10.4893855 9.93173293,6.58238229 C10.7033018,5.81081345 11.9732702,5.80186716 12.751045,6.57964199 L23.9850881,17.813685 L35.2191311,6.57964199 C35.9969059,5.80186716 37.2668744,5.81081345 38.0384432,6.58238229 C41.9454464,10.4893855 41.9483283,16.8210076 38.0416382,20.7276976 L29.7275354,29.2129866 Z M11.5707121,11.0561633 C10.7615597,12.3640346 10.4130959,15.5554013 12.7568116,17.8991171 L18.3282338,23.4705393 L21.1566609,20.6421121 L11.5707121,11.0561633 Z M35.3843897,34.8698409 C36.1654383,35.6508895 36.1654383,36.9172194 35.3843897,37.698268 C34.6033411,38.4793166 33.3370112,38.4793166 32.5559626,37.698268 C31.774914,36.9172194 31.774914,35.6508895 32.5559626,34.8698409 C33.3370112,34.0887923 34.6033411,34.0887923 35.3843897,34.8698409 Z M36.3994641,11.0561633 L21.0710678,26.3845595 L23.8995983,29.2128833 L35.2133645,17.8991171 C37.5570802,15.5554013 37.2086164,12.3640346 36.3994641,11.0561633 Z M12.5857864,34.8698409 C11.8047379,35.6508895 11.8047379,36.9172194 12.5857864,37.698268 C13.366835,38.4793166 14.633165,38.4793166 15.4142136,37.698268 C16.1952621,36.9172194 16.1952621,35.6508895 15.4142136,34.8698409 C14.633165,34.0887923 13.366835,34.0887923 12.5857864,34.8698409 Z" id="Combined-Shape" fill="#000000"></path>
    </g>
</svg>