<?xml version="1.0" encoding="UTF-8"?>
<svg width="48px" height="48px" viewBox="0 0 48 48" version="1.1" xmlns="http://www.w3.org/2000/svg" xmlns:xlink="http://www.w3.org/1999/xlink">
    <!-- Generator: Sketch 43.2 (39069) - http://www.bohemiancoding.com/sketch -->
    <title>theicons.co/svg/others-25</title>
    <desc>Created with Sketch.</desc>
    <defs></defs>
    <g id="The-Icons" stroke="none" stroke-width="1" fill="none" fill-rule="evenodd">
        <path d="M24,44 C21.2393922,44 19,41.7588695 19,39 C19,38.4477153 18.5522847,38 18,38 C17.4477153,38 17,38.4477153 17,39 C17,41.7606078 14.7588695,44 12,44 C9.23939217,44 7,41.7588695 7,39 L7,21.003296 C7,11.6121415 14.6098309,4 24,4 C33.3887397,4 41,11.613148 41,21.003296 L41,39 C41,41.7614237 38.7614237,44 36,44 C33.2385763,44 31,41.7614237 31,39 C31,38.4477153 30.5522847,38 30,38 C29.4477153,38 29,38.4477153 29,39 C29,41.7606078 26.7588695,44 24,44 Z M18,34 C20.7614237,34 23,36.2385763 23,39 C23,39.550425 23.4492263,40 24,40 C24.550425,40 25,39.5507737 25,39 C25,36.2385763 27.2385763,34 30,34 C32.7614237,34 35,36.2385763 35,39 C35,39.5522847 35.4477153,40 36,40 C36.5522847,40 37,39.5522847 37,39 L37,21.003296 C37,13.822065 31.1793787,8 24,8 C16.8192418,8 11,13.8210087 11,21.003296 L11,39 C11,39.550425 11.4492263,40 12,40 C12.550425,40 13,39.5507737 13,39 C13,36.2385763 15.2385763,34 18,34 Z M22,24 C20.3431458,24 19,22.6568542 19,21 C19,19.3431458 20.3431458,18 22,18 C23.6568542,18 25,19.3431458 25,21 C25,22.6568542 23.6568542,24 22,24 Z M32,24 C30.3431458,24 29,22.6568542 29,21 C29,19.3431458 30.3431458,18 32,18 C33.6568542,18 35,19.3431458 35,21 C35,22.6568542 33.6568542,24 32,24 Z" id="Combined-Shape" fill="#000000" fill-rule="nonzero"></path>
    </g>
</svg>