<?xml version="1.0" encoding="UTF-8"?>
<svg width="48px" height="48px" viewBox="0 0 48 48" version="1.1" xmlns="http://www.w3.org/2000/svg" xmlns:xlink="http://www.w3.org/1999/xlink">
    <!-- Generator: Sketch 43.2 (39069) - http://www.bohemiancoding.com/sketch -->
    <title>theicons.co/svg/others-44</title>
    <desc>Created with Sketch.</desc>
    <defs></defs>
    <g id="The-Icons" stroke="none" stroke-width="1" fill="none" fill-rule="evenodd">
        <path d="M39.9999745,7 C42.2091276,7 44,8.79219474 44,11.0018785 L44,32.0000059 C45.1050248,32.0026326 46,32.8893786 46,34 C46,35.1045695 45.1011449,36 43.9950767,36 L32.7370342,36 L36.6641006,41.8905996 C37.2768055,42.809657 37.0284578,44.0513957 36.1094004,44.6641006 C35.190343,45.2768055 33.9486043,45.0284578 33.3358994,44.1094004 L27.9296325,36 L20.0703675,36 L14.6641006,44.1094004 C14.0513957,45.0284578 12.809657,45.2768055 11.8905996,44.6641006 C10.9715422,44.0513957 10.7231945,42.809657 11.3358994,41.8905996 L15.2629658,36 L4.00492334,36 C2.89763476,36 2,35.1122704 2,34 C2,32.8970698 2.89618902,32.0026584 4,32.0000059 L4,11.0018785 C4,8.79170204 5.79642476,7 8.00002553,7 L22,7 L22,4.99810135 C22,3.89458045 22.8877296,3 24,3 C25.1045695,3 26,3.88670635 26,4.99810135 L26,7 L39.9999745,7 Z M40,32 L40,11.0018785 L8.00002553,11 L8,32 L18.9726552,32 C18.9920982,31.9997168 28.9689799,32 28.9689799,32 C28.9884447,31.9997164 40,32 40,32 Z M33,21 C31.3431458,21 30,19.6568542 30,18 C30,16.3431458 31.3431458,15 33,15 C34.6568542,15 36,16.3431458 36,18 C36,19.6568542 34.6568542,21 33,21 Z M16.8859326,17.8275613 C17.420651,16.8551044 18.4246034,16.767864 19.1217062,17.6245725 L22.1116922,21.2991334 C22.8117574,22.1594826 23.9398758,22.1547557 24.6259902,21.2953705 L25.1130234,20.6853422 C25.8015666,19.8229148 26.9384255,19.8055428 27.6549128,20.649656 L32.5987488,26.4741233 C33.3140524,27.3168417 33.0079172,28 31.8881934,28 L13.2982075,28 C12.1904751,28 11.7230084,27.2170276 12.2606739,26.2392112 L16.8859326,17.8275613 Z" id="Combined-Shape" fill="#000000"></path>
    </g>
</svg>