<?xml version="1.0" encoding="UTF-8"?>
<svg width="48px" height="48px" viewBox="0 0 48 48" version="1.1" xmlns="http://www.w3.org/2000/svg" xmlns:xlink="http://www.w3.org/1999/xlink">
    <!-- Generator: Sketch 43.2 (39069) - http://www.bohemiancoding.com/sketch -->
    <title>theicons.co/svg/others-48</title>
    <desc>Created with Sketch.</desc>
    <defs></defs>
    <g id="The-Icons" stroke="none" stroke-width="1" fill="none" fill-rule="evenodd">
        <path d="M24.0000947,16 C23.1104516,16 22.2660316,15.8063774 21.5066759,15.4589735 L17.0573295,24.3576663 C18.5668875,23.7169021 24.4616425,20.7266846 27.3782332,17.228413 L26.4935135,15.4589735 C25.7341578,15.8063774 24.8897377,16 24.0000947,16 Z M41.7889491,37.1055728 C42.1966199,37.9209146 42.0013762,38.9087629 41.3141778,39.5077087 C41.0890595,39.7039165 35.8311385,43.9929174 24.001292,43.9999996 C12.1714456,44.0070819 6.90801706,39.7018697 6.68346036,39.5054813 C5.99822611,38.9062026 5.8041332,37.919787 6.2112403,37.1055728 L18.5297836,12.4684861 C18.1895074,11.7155965 18.0000947,10.8799181 18.0000947,10 C18.0000947,6.6862915 20.6863862,4 24.0000947,4 C27.3138032,4 30.0000947,6.6862915 30.0000947,10 C30.0000947,10.8799181 29.810682,11.7155965 29.4704057,12.4684861 L41.7889491,37.1055728 Z M32.828061,28.1280686 C30.8857547,29.9942392 25.4200166,34.8857422 12.5219424,38.1690599 C14.7458865,39.024062 17.4339524,39.6266659 20.6202101,39.874383 C20.7247564,39.8317559 29.2733493,36.711792 34.5890389,31.6500244 L32.828061,28.1280686 Z M30.608291,39.471536 C34.013324,39.026123 37.418357,37.3086606 37.418357,37.3086606 L36.4467504,35.3654475 C35.2380323,36.4162793 33.2496064,37.8743896 30.608291,39.471536 Z M14.49168,29.4889654 L12.1653455,34.1416344 C15.353183,33.3626239 24.6622041,30.8461914 30.9357982,24.343543 L29.2733493,21.0186452 C27.8022854,22.4493181 22.2177813,27.3054199 14.49168,29.4889654 Z M26.0000947,10 C26.0000947,8.8954305 25.1046642,8 24.0000947,8 C22.8955252,8 22.0000947,8.8954305 22.0000947,10 C22.0000947,11.1045695 22.8955252,12 24.0000947,12 C25.1046642,12 26.0000947,11.1045695 26.0000947,10 Z" id="Combined-Shape" fill="#000000"></path>
    </g>
</svg>