<?xml version="1.0" encoding="UTF-8"?>
<svg width="48px" height="48px" viewBox="0 0 48 48" version="1.1" xmlns="http://www.w3.org/2000/svg" xmlns:xlink="http://www.w3.org/1999/xlink">
    <!-- Generator: Sketch 43.2 (39069) - http://www.bohemiancoding.com/sketch -->
    <title>theicons.co/svg/others-35</title>
    <desc>Created with Sketch.</desc>
    <defs></defs>
    <g id="The-Icons" stroke="none" stroke-width="1" fill="none" fill-rule="evenodd">
        <path d="M27,30 C27,32.3121412 26.2091138,34.4985469 24.8117781,36.2442279 L26.7852299,38.2388634 C29.1247194,40.578353 32.920032,40.5789872 35.258858,38.2401612 C37.5988196,35.9001996 37.5983122,32.107285 35.3101586,29.818171 L31.2241713,25.8800651 C30.4419226,25.1261278 29.9999999,24.0864316 30,22.9999996 L29.9999994,16.0061607 L18.0157364,16.0061607 L18.0104609,20.0504194 C23.0587683,20.556985 27,24.8182305 27,30 Z M17.9987701,29.0126433 C17.9987112,29.0608326 18.2071679,29.5687219 18.2457758,29.6077439 L21.9666688,33.3685783 C22.6309289,32.3915466 23,31.2268089 23,30 C23,27.0288198 20.8403542,24.5620518 18.0051995,24.0838331 L17.9987701,29.0126433 Z M34,23 L38.0859874,26.9381059 C41.9883707,30.8404892 41.9898096,37.1660638 38.0872852,41.0685883 C34.1856186,44.9702549 27.857646,44.9681338 23.9568027,41.0672905 L15.4023028,32.4210447 C14.6194087,31.6297541 13.9974276,30.1080402 13.9987731,29.007752 L14.0157329,16.0061607 C12.8976452,16.0061607 12,15.1037472 12,13.9965993 L12,6.00956135 C12,4.89971126 12.8970262,4 14.0049466,4 L33.9950534,4 C35.1023548,4 36,4.90241341 36,6.00956135 L36,13.9965993 C36,15.104797 35.1056428,16.0034812 34.0000004,16.0061547 L34,23 Z M16,8 L16,12 L32,12 L32,8 L16,8 Z" id="Combined-Shape" fill="#000000"></path>
    </g>
</svg>