<?xml version="1.0" encoding="UTF-8"?>
<svg width="48px" height="48px" viewBox="0 0 48 48" version="1.1" xmlns="http://www.w3.org/2000/svg" xmlns:xlink="http://www.w3.org/1999/xlink">
    <!-- Generator: Sketch 43.2 (39069) - http://www.bohemiancoding.com/sketch -->
    <title>theicons.co/svg/others-08</title>
    <desc>Created with Sketch.</desc>
    <defs></defs>
    <g id="The-Icons" stroke="none" stroke-width="1" fill="none" fill-rule="evenodd">
        <path d="M19.5605022,14 L29.0782041,14 L25.9857124,8.0000215 C24.8862933,8.00017953 23.7675323,8.00040181 22.6681997,8.00070814 L19.5605022,14 Z M19.1174066,18 L24.3321863,33.6927587 L29.566858,18 L19.1174066,18 Z M40.178983,14 L36.1943002,8 C36.1943002,8 33.7807156,7.99963135 30.4931159,7.99967957 L33.6013462,14 L40.178983,14 Z M39.6642892,18 L33.7835307,18 L29.4486816,30.9952258 L39.6642892,18 Z M9.06521199,18 L19.2133433,31.0101908 L14.8735023,18 L9.06521199,18 Z M8.46927236,14 L15.0556869,14 L18.1623995,8.00260924 C14.8845959,8.00461286 12.4770394,8.00791869 12.467,8.01330596 C12.4495713,8.02265842 9.98551733,11.7220192 8.46927236,14 Z M3.42745451,14.3314514 L9.20272306,5.66854858 C9.81706569,4.74703465 11.2149863,4 12.3063331,4 L36.3238445,4 C37.4235783,4 38.8155246,4.75065374 39.4274545,5.66854858 L45.2027231,14.3314514 C45.8170657,15.2529654 45.7602624,16.7061426 45.0851324,17.5653991 L25.5450452,42.4346009 C24.865759,43.299147 23.7602624,43.2938574 23.0851324,42.4346009 L3.5450452,17.5653991 C2.86575903,16.700853 2.81552462,15.2493463 3.42745451,14.3314514 Z" id="Combined-Shape" fill="#000000"></path>
    </g>
</svg>