<?xml version="1.0" encoding="UTF-8"?>
<svg width="48px" height="48px" viewBox="0 0 48 48" version="1.1" xmlns="http://www.w3.org/2000/svg" xmlns:xlink="http://www.w3.org/1999/xlink">
    <!-- Generator: Sketch 43.2 (39069) - http://www.bohemiancoding.com/sketch -->
    <title>theicons.co/svg/others-34</title>
    <desc>Created with Sketch.</desc>
    <defs></defs>
    <g id="The-Icons" stroke="none" stroke-width="1" fill="none" fill-rule="evenodd">
        <path d="M33.1037279,21.8937961 L38.2341329,16.7633911 C39.0185127,15.9790112 40.2820979,15.9708654 41.0685918,16.7573593 C41.8496404,17.5384079 41.8450301,18.8093481 41.06256,19.5918182 L35.4605106,25.1938676 C36.3342977,26.9414 36.8259511,28.9132841 36.8259511,31 C36.8259511,38.1797017 31.0056529,44 23.8259511,44 C16.6462494,44 10.8259511,38.1797017 10.8259511,31 C10.8259511,28.9132841 11.3176045,26.9414 12.1913916,25.1938676 L6.58934218,19.5918182 C5.80687207,18.8093481 5.80226184,17.5384079 6.58331042,16.7573593 C7.36980433,15.9708654 8.63338947,15.9790112 9.41776931,16.7633911 L14.5481743,21.8937961 C15.1067793,21.3247325 15.7173294,20.8068353 16.372147,20.3477819 C14.8930628,18.6161266 14,16.3688441 14,13.9129756 C14,8.43819033 18.4381903,4 23.9129756,4 C29.3877608,4 33.8259511,8.43819033 33.8259511,13.9129756 C33.8259511,16.4051859 32.9062618,18.6825912 31.387758,20.4243169 C32.0018011,20.8641515 32.5759496,21.3561363 33.1037279,21.8937961 Z M29.8259511,13.9129756 C29.8259511,10.6473293 27.1786218,8 23.9129756,8 C20.6473293,8 18,10.6473293 18,13.9129756 C18,15.731383 18.8242522,17.4042449 20.1968918,18.5133007 C20.7267424,18.3595739 21.2705438,18.2386575 21.8259511,18.1528964 L21.8259511,15.9981014 C21.8259511,14.8945804 22.7136808,14 23.8259511,14 C24.9305206,14 25.8259511,14.8867064 25.8259511,15.9981014 L25.8259511,18.1528964 C26.4258377,18.2455256 27.0121849,18.3791663 27.5820385,18.5508639 C28.9832987,17.4418198 29.8259511,15.7517267 29.8259511,13.9129756 Z M23.8259511,40 C28.7965139,40 32.8259511,35.9705627 32.8259511,31 C32.8259511,26.0294373 28.7965139,22 23.8259511,22 C18.8553884,22 14.8259511,26.0294373 14.8259511,31 C14.8259511,35.9705627 18.8553884,40 23.8259511,40 Z M23.8259511,30 C22.7213816,30 21.8259511,29.1045695 21.8259511,28 C21.8259511,26.8954305 22.7213816,26 23.8259511,26 C24.9305206,26 25.8259511,26.8954305 25.8259511,28 C25.8259511,29.1045695 24.9305206,30 23.8259511,30 Z M23.8259511,36 C22.7213816,36 21.8259511,35.1045695 21.8259511,34 C21.8259511,32.8954305 22.7213816,32 23.8259511,32 C24.9305206,32 25.8259511,32.8954305 25.8259511,34 C25.8259511,35.1045695 24.9305206,36 23.8259511,36 Z" id="Oval-111" fill="#000000"></path>
    </g>
</svg>