<?xml version="1.0" encoding="UTF-8"?>
<svg width="48px" height="48px" viewBox="0 0 48 48" version="1.1" xmlns="http://www.w3.org/2000/svg" xmlns:xlink="http://www.w3.org/1999/xlink">
    <!-- Generator: Sketch 43.2 (39069) - http://www.bohemiancoding.com/sketch -->
    <title>theicons.co/svg/others-06</title>
    <desc>Created with Sketch.</desc>
    <defs></defs>
    <g id="The-Icons" stroke="none" stroke-width="1" fill="none" fill-rule="evenodd">
        <path d="M8,16 C4.6862915,16 2,13.3069658 2,10 C2,6.6862915 4.69303423,4 8,4 L31.9932975,4 C35.3107077,4 38,6.68662393 38,9.99922047 L38,32 L39.9946773,32 C43.3113255,32 46,34.6930342 46,38 C46,41.3137085 43.3235601,44 39.9946773,44 L16,44 C12.6862915,44 10,41.3137085 10,38 L10,16 L8,16 Z M34,32 L34,9.99922047 C34,8.89657406 33.1023782,8 31.9932975,8 L14,8 L14,32 L34,32 Z M22,38 C22,38.7012708 21.8796916,39.3744421 21.6585886,40 L39.9946773,40 C41.1097285,40 42,39.109264 42,38 C42,36.8999437 41.0999566,36 39.9946773,36 L21.6585886,36 C21.8796916,36.6255579 22,37.2987292 22,38 Z M16,40 C17.1045695,40 18,39.1045695 18,38 C18,36.8954305 17.1045695,36 16,36 C14.8954305,36 14,36.8954305 14,38 C14,39.1045695 14.8954305,40 16,40 Z M6,10 C6,11.1122704 6.8954305,12 8,12 C9.11227036,12 10,11.1045695 10,10 L10,8 L8,8 C6.88772964,8 6,8.8954305 6,10 Z" id="Combined-Shape" fill="#000000"></path>
    </g>
</svg>