<?xml version="1.0" encoding="UTF-8"?>
<svg width="48px" height="48px" viewBox="0 0 48 48" version="1.1" xmlns="http://www.w3.org/2000/svg" xmlns:xlink="http://www.w3.org/1999/xlink">
    <!-- Generator: Sketch 43.2 (39069) - http://www.bohemiancoding.com/sketch -->
    <title>theicons.co/svg/others-10</title>
    <desc>Created with Sketch.</desc>
    <defs></defs>
    <g id="The-Icons" stroke="none" stroke-width="1" fill="none" fill-rule="evenodd">
        <path d="M42.0029297,17 C42.0029297,20.2257852 41.623423,22.3087932 40.8598871,24.2286616 C40.737551,24.5362687 40.3490509,25.4327657 40.2848758,25.5950478 C40.0791154,26.1153622 40,26.4794032 40,27 C40,28.0122961 40.0832682,28.4421994 40.3858201,29.3758238 C40.8123722,30.6920921 40.9727783,31.5222091 40.9727783,33.0240478 C40.9727783,37.431153 38.1247894,40.0139545 32.994557,39.9999926 C33,42.2139378 31.2140662,44 28.9940809,44 L19.0088487,44 C16.7888635,44 15.0029297,42.2139378 15.0083727,39.9999926 C9.87814034,40.0139545 7.03015137,37.431153 7.03015137,33.0240478 C7.03015137,31.5222091 7.19055749,30.6920921 7.6171096,29.3758238 C7.91966153,28.4421994 8.00292969,28.0122961 8.00292969,27 C8.00292969,26.4794032 7.92381433,26.1153622 7.71805388,25.5950478 C7.65387877,25.4327657 7.26537865,24.5362687 7.1430426,24.2286616 C6.37950672,22.3087932 6,20.2257852 6,17 C6,8.44601784 12.8508618,3.00047688 24.0014648,3 C35.1520678,3.00047688 42.0029297,8.44601784 42.0029297,17 Z M10,17 C10,19.731246 10.2881639,21.3128982 10.8598871,22.7504643 C10.951768,22.9814936 11.3423294,23.8827472 11.4377629,24.1240737 C11.8178873,25.0853088 12.0029297,25.9367621 12.0029297,27 C12.0029297,28.4861642 11.8435542,29.3090003 11.4191328,30.6186934 C11.1145174,31.5586855 11.0301514,31.9952876 11.0301514,33.0240478 C11.0301514,35.1284207 12.0002222,36.0081644 15.0366975,36.0002851 C15.7015173,36.0115114 16.3516858,36.0114432 16.96679,36.0003265 C18.0853176,35.9801116 19.0029297,36.8812897 19.0029297,38 C19.0029297,38 18.9980669,40 19.0088487,40 L28.9940809,40 C29.0048628,40 29,38 29,38 C29,36.8812897 29.9176121,35.9801116 31.0361397,36.0003265 C31.6512439,36.0114432 32.3014124,36.0115114 32.9662322,36.0002851 C36.0027074,36.0081644 36.9727783,35.1284207 36.9727783,33.0240478 C36.9727783,31.9952876 36.8884123,31.5586855 36.5837969,30.6186934 C36.1593755,29.3090003 36,28.4861642 36,27 C36,25.9367621 36.1850424,25.0853088 36.5651668,24.1240737 C36.6606003,23.8827472 37.0511617,22.9814936 37.1430426,22.7504643 C37.7147658,21.3128982 38.0029297,19.731246 38.0029297,17 C38.0029297,10.8832539 33.1190661,7.00083171 24.0029297,7.0000001 C14.8849099,6.99999997 10,10.8825987 10,17 Z M22.6860237,30.9507178 C22.8610461,30.4256508 23.4467945,30 24.0029297,30 C24.5552144,30 25.1467648,30.4315052 25.3198356,30.9507178 L26.3701172,34.1015625 C26.7196099,35.1500405 26.1046691,36 25.0050166,36 L23.0008428,36 C21.8974259,36 21.285239,35.1530722 21.6357422,34.1015625 L22.6860237,30.9507178 Z M18.0029297,29 C16.3460754,29 15.0029297,27.6568542 15.0029297,26 C15.0029297,24.3431457 16.3460754,23 18.0029297,23 C19.6597839,23 21.0029297,24.3431457 21.0029297,26 C21.0029297,27.6568542 19.6597839,29 18.0029297,29 Z M30.0029297,29 C28.3460754,29 27.0029297,27.6568542 27.0029297,26 C27.0029297,24.3431457 28.3460754,23 30.0029297,23 C31.6597839,23 33.0029297,24.3431457 33.0029297,26 C33.0029297,27.6568542 31.6597839,29 30.0029297,29 Z" id="Combined-Shape" fill="#000000"></path>
    </g>
</svg>