<?xml version="1.0" encoding="UTF-8"?>
<svg width="48px" height="48px" viewBox="0 0 48 48" version="1.1" xmlns="http://www.w3.org/2000/svg" xmlns:xlink="http://www.w3.org/1999/xlink">
    <!-- Generator: Sketch 43.2 (39069) - http://www.bohemiancoding.com/sketch -->
    <title>theicons.co/svg/others-20</title>
    <desc>Created with Sketch.</desc>
    <defs></defs>
    <g id="The-Icons" stroke="none" stroke-width="1" fill="none" fill-rule="evenodd">
        <path d="M10,7.00153326 C10,5.63641781 11.3373933,4.67247926 12.6324555,5.10416667 L24,8.89334816 L35.3675445,5.10416667 C36.6626067,4.67247926 38,5.63641781 38,7.00153326 L38,13.3436286 C38.6258999,13.1220925 39.2991631,13.0015333 40,13.0015333 C43.3137085,13.0015333 46,15.6848642 46,18.997014 L46,38.0060526 C46,41.3172651 43.3069658,44.0015333 40,44.0015333 L8,44.0015333 C4.6862915,44.0015333 2,41.3078327 2,38.0079692 L2,32.9950973 C2,29.6849433 4.69303423,27.0015333 8,27.0015333 L10,27.0015333 L10,7.00153326 Z M14,38.0079692 C14,38.7068848 13.8799409,39.3778593 13.6593935,40.0015333 L34,40.0015333 L34,32.7994987 C31.4589659,35.3925988 27.9173763,37.0015333 24,37.0015333 C20.0826237,37.0015333 16.5410341,35.3925988 14,32.7994987 L14,38.0079692 Z M34,9.82453131 L30.9275807,10.8328798 C32.0601051,11.479013 33.093694,12.2786915 34,13.2035678 L34,9.82453131 Z M17.1057151,10.8139442 L14,9.77985689 L14,13.2035678 C14.9151801,12.2696356 15.9601479,11.4633649 17.1057151,10.8139442 Z M24,33.0015333 C29.5228475,33.0015333 34,28.5243808 34,23.0015333 C34,17.4786858 29.5228475,13.0015333 24,13.0015333 C18.4771525,13.0015333 14,17.4786858 14,23.0015333 C14,28.5243808 18.4771525,33.0015333 24,33.0015333 Z M38.0067139,40.0015333 L40,40.0015333 C41.1015239,40.0015333 42,39.1044303 42,38.0060526 L42,18.997014 C42,17.8950986 41.1056645,17.0015333 40,17.0015333 C38.8984761,17.0015333 38,17.8986363 38,18.997014 L38.0067139,40.0015333 Z M25.4135343,22.5866408 C25.5781847,22.7511331 25.9210303,23.0447992 26.3598751,23.3372687 C26.9969158,23.7618266 27.590349,23.9999723 28,24.0015333 C29.1045695,24.0015333 30,24.8969638 30,26.0015333 C30,27.1061028 29.1045695,28.0015333 27.9808578,28.0014966 C26.6445774,27.9963807 25.3715063,27.4854954 24.1415661,26.6657978 C24.0804467,26.6250646 24.020546,26.5843408 23.9618945,26.543711 C23.9337219,26.5971572 23.8198308,26.6384991 23.7788696,26.6657978 C22.5489294,27.4854954 21.3554226,27.9963807 20.0191422,28.0014966 C18.8954305,28.0015333 18,27.1061028 18,26.0015333 C18,24.8969638 18.8954305,24.0015333 20.0038285,24.0015259 C20.409651,23.9999723 21.0030842,23.7618266 21.6401249,23.3372687 C22.0783677,23.0452005 22.4208744,22.7519389 22.585787,22.5873185 C23.366515,21.8065751 24.6323373,21.8061936 25.4135343,22.5866408 Z M6,38.0079692 C6,39.1023481 6.89908447,40.0015333 8,40.0015333 C9.10180964,40.0015333 10,39.1050023 10,38.0079692 L10,31.0015333 L8,31.0015333 C6.89819036,31.0015333 6,31.8980642 6,32.9950973 L6,38.0079692 Z" id="Combined-Shape" fill="#000000"></path>
    </g>
</svg>