<?xml version="1.0" encoding="UTF-8"?>
<svg width="48px" height="48px" viewBox="0 0 48 48" version="1.1" xmlns="http://www.w3.org/2000/svg" xmlns:xlink="http://www.w3.org/1999/xlink">
    <!-- Generator: Sketch 43.2 (39069) - http://www.bohemiancoding.com/sketch -->
    <title>theicons.co/svg/people-10</title>
    <desc>Created with Sketch.</desc>
    <defs></defs>
    <g id="The-Icons" stroke="none" stroke-width="1" fill="none" fill-rule="evenodd">
        <path d="M36,18.0697636 C36,21.1431814 34.8445857,23.9467377 32.944426,26.0697636 L35.972608,26.0697636 C37.0723419,26.0697636 38.2034226,26.9300063 38.5013419,27.9997669 L41.8822954,40.1400045 C42.1791427,41.2059159 41.5263362,42.0707441 40.4105922,42.0716636 L7.54579899,42.0987475 C6.43615247,42.099662 5.77463421,41.2385265 6.07063555,40.1667336 L9.429823,28.0034333 C9.72475926,26.935497 10.8637498,26.0697636 11.9550966,26.0697636 L15.055574,26.0697636 C13.1554143,23.9467377 12,21.1431814 12,18.0697636 L12,6.07952663 C12,3.86499568 13.2650073,3.33627053 14.8221555,4.89526474 L17.7483025,7.82488059 C19.5690101,6.71146027 21.7095669,6.06976363 24,6.06976363 C26.2960833,6.06976363 28.44155,6.71463016 30.2651661,7.83312924 L33.1986062,4.89526469 C34.7552525,3.33627051 36.019852,3.86499568 36.019852,6.07952663 C36.019852,6.07952663 36,17.835157 36,18.0697636 Z M37.1691771,38.0714571 L34.9188084,30.069957 L13.0060767,30.073978 L10.7846747,38.0697636 L17,38.0701626 C17,35.8606246 20.1340068,34.0697636 24,34.0697636 C27.8659932,34.0697636 31,35.8606246 31,38.0697636 L37.1691771,38.0714571 Z M24.9617255,21.8520142 C24.4305792,21.9858923 23.5729136,21.9867726 23.0382745,21.8520142 L16.272221,20.1465977 C17.1867425,23.5579995 20.3000443,26.0697636 24,26.0697636 C27.6999557,26.0697636 30.8132575,23.5579995 31.727779,20.1465977 L24.9617255,21.8520142 Z M28,18.0697636 C29.1045695,18.0697636 30,17.1743331 30,16.0697636 C30,14.9651941 29.1045695,14.0697636 28,14.0697636 C26.8954305,14.0697636 26,14.9651941 26,16.0697636 C26,17.1743331 26.8954305,18.0697636 28,18.0697636 Z M20,18.0697636 C21.1045695,18.0697636 22,17.1743331 22,16.0697636 C22,14.9651941 21.1045695,14.0697636 20,14.0697636 C18.8954305,14.0697636 18,14.9651941 18,16.0697636 C18,17.1743331 18.8954305,18.0697636 20,18.0697636 Z" id="Combined-Shape" fill="#000000"></path>
    </g>
</svg>