<?xml version="1.0" encoding="UTF-8"?>
<svg width="48px" height="48px" viewBox="0 0 48 48" version="1.1" xmlns="http://www.w3.org/2000/svg" xmlns:xlink="http://www.w3.org/1999/xlink">
    <!-- Generator: Sketch 43.2 (39069) - http://www.bohemiancoding.com/sketch -->
    <title>theicons.co/svg/people-16</title>
    <desc>Created with Sketch.</desc>
    <defs></defs>
    <g id="The-Icons" stroke="none" stroke-width="1" fill="none" fill-rule="evenodd">
        <path d="M29.5724638,15.0631951 C28.8770235,15.6478342 27.9796381,16 27,16 C25.8053075,16 24.7329445,15.4762451 24,14.6458244 C23.2670555,15.4762451 22.1946925,16 21,16 C20.0203619,16 19.1229765,15.6478342 18.4275362,15.0631951 C17.9078467,15.9246911 17.0725395,16.5743415 16.0817519,16.8520091 C16.027879,17.2269044 16,17.6101965 16,18 C16,19.6314175 16.488333,21.1487788 17.3267999,22.4138847 C17.9408554,20.9937492 19.3543764,20 21,20 C22.1946925,20 23.2670555,20.1825187 24,21.0129395 C24.7329445,20.1825187 25.8053075,20 27,20 C28.6456236,20 30.0591446,20.9937492 30.6732001,22.4138847 C31.511667,21.1487788 32,19.6314175 32,18 C32,17.559033 31.9643222,17.1263991 31.8956958,16.7048273 L29.5724638,15.0631951 Z M32.944426,26 L35.972608,26 C37.0723419,26 38.2034226,26.8602426 38.5013419,27.9300033 L41.8822954,40.0702409 C42.1791427,41.1361522 41.5263362,42.0009804 40.4105922,42.0018999 L7.54579899,42.0289839 C6.43615247,42.0298983 5.77463421,41.1687628 6.07063555,40.09697 L9.429823,27.9336697 C9.72475926,26.8657334 10.8637498,26 11.9550966,26 L15.055574,26 C13.7806838,24.5755803 12.841047,22.8448141 12.3606974,20.9317353 C11.0109823,20.6387841 10,19.4374558 10,18 C10,16.801851 10.7023865,15.7677533 11.717864,15.2870021 C11.2653884,14.6388537 11,13.8504192 11,13 C11,10.790861 12.790861,9 15,9 C15.0576233,9 15,8.35199266 15,8 C15,6.34314575 16.3431458,5 18,5 C18.8434937,5 19.6056816,5.34811138 20.1507348,5.90850514 C20.6257855,4.2298922 22.1692644,3 24,3 C25.8307356,3 27.3742145,4.2298922 27.8492652,5.90850514 C28.3943184,5.34811138 29.1565063,5 30,5 C31.6568542,5 33,6.34314575 33,8 C33,8.35199266 32.9423767,9 33,9 C35.209139,9 37,10.790861 37,13 C37,13.8504192 36.7346116,14.6388537 36.282136,15.2870021 C37.2976135,15.7677533 38,16.801851 38,18 C38,19.4374558 36.9890177,20.6387841 35.6393026,20.9317353 C35.158953,22.8448141 34.2193162,24.5755803 32.944426,26 Z M13.0060767,30.0042144 L10.7846747,38 L37.1691771,38.0016934 L34.9188084,30.0001934 L30.9999999,30.0009125 C30.9995068,31.6573474 29.6565501,33 28,33 C27.9580074,33 27.9162163,32.9991372 27.8746435,32.9974284 C27.4314957,34.7239603 25.8647654,36 24,36 C22.1352346,36 20.5685043,34.7239603 20.1253565,32.9974284 C20.0837837,32.9991372 20.0419926,33 20,33 C18.3443064,33 17.0018819,31.6587354 17.000002,30.0034815 L13.0060767,30.0042144 Z M21,24 C21,24.5561352 21.4435864,25 21.990778,25 L26.009222,25 C26.5490248,25 27,24.5522847 27,24 C27,23.4438648 26.5564136,23 26.009222,23 L21.990778,23 C21.4509752,23 21,23.4477153 21,24 Z" id="Combined-Shape" fill="#000000"></path>
    </g>
</svg>