<?xml version="1.0" encoding="UTF-8"?>
<svg width="48px" height="48px" viewBox="0 0 48 48" version="1.1" xmlns="http://www.w3.org/2000/svg" xmlns:xlink="http://www.w3.org/1999/xlink">
    <!-- Generator: Sketch 43.2 (39069) - http://www.bohemiancoding.com/sketch -->
    <title>theicons.co/svg/people-13</title>
    <desc>Created with Sketch.</desc>
    <defs></defs>
    <g id="The-Icons" stroke="none" stroke-width="1" fill="none" fill-rule="evenodd">
        <path d="M37.1691771,38.0016934 L34.9188084,30.0001934 L13.0060767,30.0042144 L10.7846747,38 L19.9998028,38.0005915 L20.6830941,35.9507178 C20.8581164,35.4256509 21.4509752,35 21.990778,35 L26.009222,35 C26.5564136,35 27.1438351,35.4315052 27.3169059,35.9507178 L28.0003683,38.001105 L37.1691771,38.0016934 Z M30.184799,21.9971596 L17.815201,21.9971596 C18.5232213,23.5417134 19.6600041,24.716143 21.0966226,25.381656 C21.3549009,24.5801061 22.1028649,24.0007101 22.9979131,24.0007101 L25.0020869,24.0007101 C25.8908151,24.0007101 26.6440117,24.5764976 26.9034625,25.3816166 C28.3400408,24.7160966 29.4767927,23.5416829 30.184799,21.9971596 Z M32.3901357,26 L35.972608,26 C37.0723419,26 38.2034226,26.8602426 38.5013419,27.9300033 L41.8822954,40.0702409 C42.1791427,41.1361522 41.5263362,42.0009804 40.4105922,42.0018999 L7.54579899,42.0289839 C6.43615247,42.0298983 5.77463421,41.1687628 6.07063555,40.09697 L9.429823,27.9336697 C9.72475926,26.8657334 10.8637498,26 11.9550966,26 L15.6098643,26 C14.6912521,24.8318486 13.9933921,23.457665 13.5514676,21.9458598 C12.6625921,21.7411594 12,20.9479649 12,20.0034533 L12,13.9985798 C12,9.58108616 15.5800761,6 19.9916525,6 L28.0083475,6 C32.4220153,6 36,9.59007487 36,13.9985798 L36,20.0034533 C36,20.949545 35.3377482,21.7417205 34.4484906,21.9460028 C34.0065639,23.4577517 33.3087189,24.8318855 32.3901357,26 Z M16,15.9982247 C16,17.1102976 16.8927712,17.9978697 17.9940603,17.9978697 L30.0059397,17.9978697 C31.1054862,17.9978697 32,17.1025982 32,15.9982247 C32,14.8861518 31.1072288,13.9985798 30.0059397,13.9985798 L17.9940603,13.9985798 C16.8945138,13.9985798 16,14.8938513 16,15.9982247 Z" id="Combined-Shape" fill="#000000"></path>
    </g>
</svg>