<?xml version="1.0" encoding="UTF-8"?>
<svg width="48px" height="48px" viewBox="0 0 48 48" version="1.1" xmlns="http://www.w3.org/2000/svg" xmlns:xlink="http://www.w3.org/1999/xlink">
    <!-- Generator: Sketch 43.2 (39069) - http://www.bohemiancoding.com/sketch -->
    <title>theicons.co/svg/people-12</title>
    <desc>Created with Sketch.</desc>
    <defs></defs>
    <g id="The-Icons" stroke="none" stroke-width="1" fill="none" fill-rule="evenodd">
        <path d="M12,18 C12,11.372583 17.372583,6 24,6 C30.627417,6 36,11.372583 36,18 C36,20.493213 35.2396505,23.3749328 33.938184,26 L35.972608,26 C37.0723419,26 38.2034226,26.8602426 38.5013419,27.9300033 L41.8822954,40.0702409 C42.1791427,41.1361522 41.5263362,42.0009804 40.4105922,42.0018999 L7.54579899,42.0289839 C6.43615247,42.0298983 5.77463421,41.1687628 6.07063555,40.09697 L9.429823,27.9336697 C9.72475926,26.8657334 10.8637498,26 11.9550966,26 L14.061816,26 C12.7603495,23.3749328 12,20.493213 12,18 Z M13.0060767,30.0042144 L10.7846747,38 L37.1691771,38.0016934 L34.9188084,30.0001934 L31.3278657,30.0008523 C29.3008336,32.375476 26.7591653,34 24,34 C21.2418763,34 18.7010854,32.3767023 16.6744301,30.0035412 L13.0060767,30.0042144 Z M32,18 C32,13.581722 28.418278,10 24,10 C19.581722,10 16,13.581722 16,18 C16,23.432482 20.4967732,30 24,30 C27.5032268,30 32,23.432482 32,18 Z M25,22 C25,20.8954305 25.8709335,19.8258133 26.9617818,19.6076436 L28.0382182,19.3923564 C29.1216804,19.1756639 29.8258133,19.8709335 29.6076436,20.9617818 L29.3923564,22.0382182 C29.1756639,23.1216804 28.1122704,24 27,24 C25.8954305,24 25,23.1122704 25,22 Z M23.0172934,22 C23.0172934,23.1122704 22.1218629,24 21.0172934,24 C19.9050231,24 18.8416295,23.1216804 18.6249371,22.0382182 L18.4096498,20.9617818 C18.1914801,19.8709335 18.8956131,19.1756639 19.9790752,19.3923564 L21.0555117,19.6076436 C22.1463599,19.8258133 23.0172934,20.8954305 23.0172934,22 Z" id="Combined-Shape" fill="#000000"></path>
    </g>
</svg>