<?xml version="1.0" encoding="UTF-8"?>
<svg width="48px" height="48px" viewBox="0 0 48 48" version="1.1" xmlns="http://www.w3.org/2000/svg" xmlns:xlink="http://www.w3.org/1999/xlink">
    <!-- Generator: Sketch 43.2 (39069) - http://www.bohemiancoding.com/sketch -->
    <title>theicons.co/svg/people-11</title>
    <desc>Created with Sketch.</desc>
    <defs></defs>
    <g id="The-Icons" stroke="none" stroke-width="1" fill="none" fill-rule="evenodd">
        <path d="M30,35.9981014 C30,34.8945804 30.8877296,34 32,34 C33.1045695,34 34,34.8867064 34,35.9981014 L34,38 L38,38 L38,30 L10,30 L10,38 L14,38 L14,35.9981014 C14,34.8945804 14.8877296,34 16,34 C17.1045695,34 18,34.8867064 18,35.9981014 L18,38 L30,38 L30,35.9981014 Z M26,8 L32.009947,8 C34.2135924,8 36,9.80035233 36,12.0095579 L36,25.9904421 L40.0002927,26 C41.1047006,26 42,26.8945138 42,27.9940603 L42,40.0059397 C42,41.1072288 41.1101074,42 40.0002927,42 L7.99970728,42 C6.89529944,42 6,41.1054862 6,40.0059397 L6,27.9940603 C6,26.8927712 6.88989258,26 7.99970728,26 L12.0000111,26 L12,12.0095579 C12,9.79514022 13.7842933,8 15.990053,8 L22,8 L22,5.99810135 C22,4.89458045 22.8877296,4 24,4 C25.1045695,4 26,4.88670635 26,5.99810135 L26,8 Z M16,25.9904421 C16,25.9974624 32.009947,26 32.009947,26 C32.0011296,26 32,12.0095579 32,12.0095579 C32,12.0025376 15.990053,12 15.990053,12 C15.9988704,12 16,25.9904421 16,25.9904421 Z M36,14 L38,14 C39.1045695,14 40,14.8867064 40,15.9981014 L40,20.0018986 C40,21.1054196 39.1122704,22 38,22 L36,22 L36,14 Z M12,14 L12,22 L10,22 C8.88772964,22 8,21.1054196 8,20.0018986 L8,15.9981014 C8,14.8867064 8.8954305,14 10,14 L12,14 Z M20,24 C20,22.8954305 20.8867064,22 21.9981014,22 L26.0018986,22 C27.1054196,22 28,22.8877296 28,24 L28,26 L20,26 L20,24 Z M20,20 C18.8954305,20 18,19.1045695 18,18 C18,16.8954305 18.8954305,16 20,16 C21.1045695,16 22,16.8954305 22,18 C22,19.1045695 21.1045695,20 20,20 Z M28,20 C26.8954305,20 26,19.1045695 26,18 C26,16.8954305 26.8954305,16 28,16 C29.1045695,16 30,16.8954305 30,18 C30,19.1045695 29.1045695,20 28,20 Z" id="Combined-Shape" fill="#000000"></path>
    </g>
</svg>