<?xml version="1.0" encoding="UTF-8"?>
<svg width="48px" height="48px" viewBox="0 0 48 48" version="1.1" xmlns="http://www.w3.org/2000/svg" xmlns:xlink="http://www.w3.org/1999/xlink">
    <!-- Generator: Sketch 43.2 (39069) - http://www.bohemiancoding.com/sketch -->
    <title>theicons.co/svg/people-04</title>
    <desc>Created with Sketch.</desc>
    <defs></defs>
    <g id="The-Icons" stroke="none" stroke-width="1" fill="none" fill-rule="evenodd">
        <path d="M20,38.0005915 L28,38.0011049 L28,30.001463 L20,30.002931 L20,38.0005915 Z M16,38.0003347 L16,30.003665 L13.0060767,30.0042144 L10.7846747,38 L16,38.0003347 Z M37.1691771,38.0016934 L34.9188084,30.0001934 L32,30.000729 L32,38.0013617 L37.1691771,38.0016934 Z M13.1428571,16 L15.4522042,7.91728541 C15.7547435,6.85839792 16.8945138,6 17.9940603,6 L30.0059397,6 C31.1072288,6 32.2441966,6.85468808 32.5477958,7.91728541 L34.8571429,16 L40.0002927,16 C41.1047006,16 42,16.8877296 42,18 C42,19.1045695 41.1101074,20 40.0002927,20 L35.8340831,20 C35.4510434,22.2831483 34.4232908,24.3476818 32.944426,26 L35.972608,26 C37.0723419,26 38.2034226,26.8602426 38.5013419,27.9300033 L41.8822954,40.0702409 C42.1791427,41.1361522 41.5263362,42.0009804 40.4105922,42.0018999 L7.54579899,42.0289839 C6.43615247,42.0298983 5.77463421,41.1687628 6.07063555,40.09697 L9.429823,27.9336697 C9.72475926,26.8657334 10.8637498,26 11.9550966,26 L15.055574,26 C13.5767092,24.3476818 12.5489566,22.2831483 12.1659169,20 L7.99970728,20 C6.89529944,20 6,19.1122704 6,18 C6,16.8954305 6.88989258,16 7.99970728,16 L13.1428571,16 Z M17.2987067,16 L30.7015135,16 L29,10 L19.0008546,10 L17.2987067,16 Z M16.252035,20 C17.1401206,23.4504544 20.2723211,26 24,26 C27.7276789,26 30.8598794,23.4504544 31.747965,20 L16.252035,20 Z" id="Combined-Shape" fill="#000000"></path>
    </g>
</svg>