<?xml version="1.0" encoding="UTF-8"?>
<svg width="48px" height="48px" viewBox="0 0 48 48" version="1.1" xmlns="http://www.w3.org/2000/svg" xmlns:xlink="http://www.w3.org/1999/xlink">
    <!-- Generator: Sketch 43.2 (39069) - http://www.bohemiancoding.com/sketch -->
    <title>theicons.co/svg/people-02</title>
    <desc>Created with Sketch.</desc>
    <defs></defs>
    <g id="The-Icons" stroke="none" stroke-width="1" fill="none" fill-rule="evenodd">
        <path d="M30.4784265,16 C27.386814,16 24.7993236,13.0999158 24.1406371,10.0019147 C24.0818628,10.0006404 23.8556259,10.0005385 23.8017064,10.0016105 C23.1431246,13.099726 20.555566,16 17.4638523,16 C17.0404879,16 16.6206288,16 16.2143231,16.0060874 C16.0508038,16.643494 15.9638523,17.3115927 15.9638523,18 C15.9638523,22.418278 19.5455743,26 23.9638523,26 C28.3821303,26 31.9638523,22.418278 31.9638523,18 C31.9638523,17.3115148 31.8768812,16.6433427 31.713326,16.005871 C31.3115751,16 30.8967117,16 30.4784265,16 Z M38.5013419,27.9300033 L41.8822954,40.0702409 C42.1791427,41.1361522 41.5263362,42.0009804 40.4105922,42.0018999 L7.54579899,42.0289839 C6.43615247,42.0298983 5.77463421,41.1687628 6.07063555,40.09697 L9.429823,27.9336697 C9.72475926,26.8657334 10.8637498,26 11.9550966,26 L11.9638523,18 C11.9638523,11.372583 17.3364353,6 23.9638523,6 C30.5912693,6 35.9638523,11.372583 35.9638523,18 L35.9638523,26 C37.0723419,26 38.2034226,26.8602426 38.5013419,27.9300033 Z M34.9188084,30.0001934 L13.0060767,30.0042144 L10.7846747,38 L37.1691771,38.0016934 L34.9188084,30.0001934 Z" id="Combined-Shape" fill="#000000"></path>
    </g>
</svg>