<?xml version="1.0" encoding="UTF-8"?>
<svg width="48px" height="48px" viewBox="0 0 48 48" version="1.1" xmlns="http://www.w3.org/2000/svg" xmlns:xlink="http://www.w3.org/1999/xlink">
    <!-- Generator: Sketch 43.2 (39069) - http://www.bohemiancoding.com/sketch -->
    <title>theicons.co/svg/people-17</title>
    <desc>Created with Sketch.</desc>
    <defs></defs>
    <g id="The-Icons" stroke="none" stroke-width="1" fill="none" fill-rule="evenodd">
        <path d="M28.8005623,24.4001635 C30.7433572,22.9406075 32,20.6170561 32,18 C32,15.3769143 30.7375599,13.0486872 28.7871228,11.5897618 C28.0903616,14.1319357 25.7633357,16 23,16 C21.8954305,16 21,15.1045695 21,14 C21,12.8954305 21.8954305,12 23,12 C24.0839024,12 24.9664188,11.137764 24.9990641,10.0617771 C24.6717701,10.0210033 24.3383378,10 24,10 C19.581722,10 16,13.581722 16,18 C16,20.6170561 17.2566428,22.9406075 19.1994377,24.4001635 C19.6862025,23.7520737 20.301148,23.2057599 21.0066362,22.79886 C21.1101105,21.2357927 22.4107378,20 24,20 C25.5892622,20 26.8898895,21.2357927 26.9933638,22.79886 C27.698852,23.2057599 28.3137975,23.7520737 28.8005623,24.4001635 Z M13.0060767,30.0042144 L10.7846747,38 L37.1691771,38.0016934 L34.9188084,30.0001934 L29.6581789,30.0011587 C28.834179,32.3309382 26.6120047,34 24,34 C21.3887714,34 19.1671415,32.3319298 18.3425559,30.0032351 L13.0060767,30.0042144 Z M12,18 C12,11.372583 17.372583,6 24,6 C30.627417,6 36,11.372583 36,18 C36,21.0734177 34.8445857,23.876974 32.944426,26 L35.972608,26 C37.0723419,26 38.2034226,26.8602426 38.5013419,27.9300033 L41.8822954,40.0702409 C42.1791427,41.1361522 41.5263362,42.0009804 40.4105922,42.0018999 L7.54579899,42.0289839 C6.43615247,42.0298983 5.77463421,41.1687628 6.07063555,40.09697 L9.429823,27.9336697 C9.72475926,26.8657334 10.8637498,26 11.9550966,26 L15.055574,26 C13.1554143,23.876974 12,21.0734177 12,18 Z M26,28 C26,26.8954305 25.1045695,26 24,26 C22.8954305,26 22,26.8954305 22,28 C22,29.1045695 22.8954305,30 24,30 C25.1045695,30 26,29.1045695 26,28 Z" id="Combined-Shape" fill="#000000"></path>
    </g>
</svg>