<?xml version="1.0" encoding="UTF-8"?>
<svg width="48px" height="48px" viewBox="0 0 48 48" version="1.1" xmlns="http://www.w3.org/2000/svg" xmlns:xlink="http://www.w3.org/1999/xlink">
    <!-- Generator: Sketch 43.2 (39069) - http://www.bohemiancoding.com/sketch -->
    <title>theicons.co/svg/people-06</title>
    <desc>Created with Sketch.</desc>
    <defs></defs>
    <g id="The-Icons" stroke="none" stroke-width="1" fill="none" fill-rule="evenodd">
        <path d="M27.496263,25 L27.496263,22.3349371 L31.2485697,18.588585 C31.2838785,18.5533323 31.496263,18.0412125 31.496263,17.9941413 L31.496263,17.4970806 C31.496263,13.3610205 28.1332859,10 23.9883278,10 L23.0041982,10 C18.8546266,10 15.496263,13.3559363 15.496263,17.4970806 L15.496263,17.9941413 C15.496263,18.0433324 15.7071236,18.5540063 15.7349405,18.5818232 L19.496263,22.3431458 L19.496263,25 L21.496263,25 L21.496263,22.9979131 C21.496263,21.8944962 22.3839927,21 23.496263,21 C24.6008325,21 25.496263,21.8982606 25.496263,22.9979131 L25.496263,25 L27.496263,25 Z M21.496263,32.9973917 C21.496263,31.8942627 22.3839927,31 23.496263,31 C24.6008325,31 25.496263,31.8958578 25.496263,32.9973917 L25.496263,33.8138141 C29.6323672,33.0105786 35.6954041,29.8823901 35.6954041,29.8823901 C36.689991,29.3950595 37.7587142,29.8529663 38.0864768,30.9181948 L40.9060492,40.0818052 C41.2320153,41.1411949 40.6063704,42 39.4965557,42 L7.49597028,42 C6.39156245,42 5.75871418,41.1470337 6.08647678,40.0818052 L8.90604923,30.9181948 C9.2320153,29.8588051 10.3008371,29.3840394 11.3023787,29.8481818 C11.3023787,29.8481818 17.1683934,32.7453139 21.496263,33.6993784 L21.496263,32.9973917 Z M36.0852523,38 L35.0415513,34.6169576 C35.0415513,34.6169576 33.905698,35.1569407 32.750519,35.6360328 C31.8180111,36.0227756 30.9087885,36.3733856 30.0322624,36.6796349 C28.4491637,37.2327537 26.884085,37.6294798 25.496263,37.83625 L25.496263,38 L36.0852523,38 Z M21.496263,37.8170296 C20.2926876,37.6069048 18.9883979,37.2215014 17.398904,36.6905232 C16.4790453,36.38324 15.5239653,36.0309343 14.5439641,35.6420157 C13.3319818,35.1610341 11.9718455,34.5558273 11.9718455,34.5558273 L10.9096108,38 L21.496263,38 L21.496263,37.8170296 Z M12.9065134,21.4102504 C12.1276536,20.6313906 11.496263,19.1029399 11.496263,17.9941413 L11.496263,17.4970806 C11.496263,11.1474183 16.6448651,6 23.0041982,6 L23.9883278,6 C30.3439849,6 35.496263,11.15344 35.496263,17.4970806 L35.496263,17.9941413 C35.496263,19.1019465 34.8624511,20.6328061 34.0747499,21.4192573 L31.496263,23.9936523 L31.496263,26.9925732 C31.496263,28.1012444 30.6017492,29 29.5022027,29 L17.4903233,29 C16.3890342,29 15.496263,28.1061002 15.496263,26.9951185 L15.496263,24 L12.9065134,21.4102504 Z M27.496263,19 C26.3916935,19 25.496263,18.1045695 25.496263,17 C25.496263,15.8954305 26.3916935,15 27.496263,15 C28.6008325,15 29.496263,15.8954305 29.496263,17 C29.496263,18.1045695 28.6008325,19 27.496263,19 Z M19.496263,19 C18.3916935,19 17.496263,18.1045695 17.496263,17 C17.496263,15.8954305 18.3916935,15 19.496263,15 C20.6008325,15 21.496263,15.8954305 21.496263,17 C21.496263,18.1045695 20.6008325,19 19.496263,19 Z" id="Combined-Shape" fill="#000000"></path>
    </g>
</svg>