<?xml version="1.0" encoding="UTF-8"?>
<svg width="48px" height="48px" viewBox="0 0 48 48" version="1.1" xmlns="http://www.w3.org/2000/svg" xmlns:xlink="http://www.w3.org/1999/xlink">
    <!-- Generator: Sketch 43.2 (39069) - http://www.bohemiancoding.com/sketch -->
    <title>theicons.co/svg/people-05</title>
    <desc>Created with Sketch.</desc>
    <defs></defs>
    <g id="The-Icons" stroke="none" stroke-width="1" fill="none" fill-rule="evenodd">
        <path d="M30,44 C28.9023119,44 28.011165,43.1092527 28.0001041,42.0121274 L7.54579899,42.0289839 C6.43615247,42.0298983 5.77463421,41.1687628 6.07063555,40.09697 L9.429823,27.9336697 C9.72475926,26.8657334 10.8637498,26 11.9550966,26 L15.055574,26 C13.5767092,24.3476818 12.5489566,22.2831483 12.1659169,20 L11.9912443,20 C10.8915104,20 10,19.1122704 10,18 C10,16.8954305 10.8998975,16 11.9912443,16 L12.1659169,16 C13.1180731,10.3245733 18.0540074,6 24,6 C29.9459926,6 34.8819269,10.3245733 35.8340831,16 L36.0087557,16 C37.1084896,16 38,16.8877296 38,18 C38,19.1045695 37.1001025,20 36.0087557,20 L35.8340831,20 C35.4510434,22.2831483 34.4232908,24.3476818 32.944426,26 L35.972608,26 C37.0723419,26 38.2034226,26.8602426 38.5013419,27.9300033 L41.8822954,40.0702409 C42.1791427,41.1361522 41.5263362,42.0009804 40.4105922,42.0018999 L31.9999275,42.0088312 C31.9907221,43.110118 31.1064619,44 30,44 Z M32,38.0013617 L37.1691771,38.0016934 L34.9188084,30.0001934 L13.0060767,30.0042144 L10.7846747,38 L28,38.0011049 L28,34.0085302 C28,32.8992496 28.8877296,32 30,32 C31.1045695,32 32,32.9019504 32,34.0085302 L32,38.0013617 Z M22.4648712,20 C21.7732524,21.1956027 20.4805647,22 19,22 C18.1426126,22 17.34823,21.7302447 16.6970939,21.270976 C17.947528,24.0584601 20.7470285,26 24,26 C27.2529715,26 30.052472,24.0584601 31.3029061,21.270976 C30.65177,21.7302447 29.8573874,22 29,22 C27.5194353,22 26.2267476,21.1956027 25.5351288,20 L22.4648712,20 Z M29,14 C29.8573874,14 30.65177,14.2697553 31.3029061,14.729024 C30.052472,11.9415399 27.2529715,10 24,10 C20.7470285,10 17.947528,11.9415399 16.6970939,14.729024 C17.34823,14.2697553 18.1426126,14 19,14 C20.4805647,14 21.7732524,14.8043973 22.4648712,16 L25.5351288,16 C26.2267476,14.8043973 27.5194353,14 29,14 Z" id="Combined-Shape" fill="#000000"></path>
    </g>
</svg>