<?xml version="1.0" encoding="UTF-8"?>
<svg width="48px" height="48px" viewBox="0 0 48 48" version="1.1" xmlns="http://www.w3.org/2000/svg" xmlns:xlink="http://www.w3.org/1999/xlink">
    <!-- Generator: Sketch 43.2 (39069) - http://www.bohemiancoding.com/sketch -->
    <title>theicons.co/svg/people-15</title>
    <desc>Created with Sketch.</desc>
    <defs></defs>
    <g id="The-Icons" stroke="none" stroke-width="1" fill="none" fill-rule="evenodd">
        <path d="M38.0596871,27.9459181 L41.0867281,40.0540819 C41.3554033,41.1287828 40.683315,42 39.5735003,42 L7.57291488,42 C6.46850705,42 5.78826498,41.1397705 6.05968713,40.0540819 L9.08672808,27.9459181 C9.3554033,26.8712172 10.4458848,26.2178423 11.5104837,26.4638672 L11.5732076,18 C11.5732076,11.372583 16.9443334,6 23.5732076,6 C30.2006246,6 35.5732076,11.3711258 35.5732076,18 L35.5732076,26.4807722 C36.7058596,26.2076804 37.788265,26.8602295 38.0596871,27.9459181 Z M30.5732076,25.9979131 C30.5732076,24.8982606 29.6751541,24 28.5673489,24 L18.5790663,24 C17.4702677,24 16.5732076,24.8944962 16.5732076,25.9979131 L16.5732076,27.4673977 C18.5668012,27.7587142 20.9959335,28 23.5732076,28 C26.1504817,28 28.579614,27.7587142 30.5732076,27.4673977 L30.5732076,25.9979131 Z M16.5732076,18 C16.5732076,19.1122704 17.4677038,20 18.5711207,20 L20.5752945,20 C21.674947,20 22.5732076,19.1045695 22.5732076,18 C22.5732076,16.8877296 21.6787114,16 20.5752945,16 L18.5711207,16 C17.4714682,16 16.5732076,16.8954305 16.5732076,18 Z M24.5732076,18 C24.5732076,19.1122704 25.4677038,20 26.5711207,20 L28.5752945,20 C29.674947,20 30.5732076,19.1045695 30.5732076,18 C30.5732076,16.8877296 29.6787114,16 28.5752945,16 L26.5711207,16 C25.4714682,16 24.5732076,16.8954305 24.5732076,18 Z M10.7256734,38 L36.4729758,38 C36.4729758,38 34.946923,31.8283261 34.6642663,30.8026599 C34.0922641,30.9225979 33.4446274,31.0479388 32.7301564,31.1724979 C29.7644229,31.6895365 26.6693149,32 23.5732076,32 C20.4771003,32 17.3819923,31.6895365 14.4162588,31.1724979 C13.7178241,31.0507346 13.0832572,30.9282241 12.5207789,30.810744 C12.1916159,32 10.7256734,38 10.7256734,38 Z" id="Combined-Shape" fill="#000000"></path>
    </g>
</svg>