<?xml version="1.0" encoding="UTF-8"?>
<svg width="48px" height="48px" viewBox="0 0 48 48" version="1.1" xmlns="http://www.w3.org/2000/svg" xmlns:xlink="http://www.w3.org/1999/xlink">
    <!-- Generator: Sketch 43.2 (39069) - http://www.bohemiancoding.com/sketch -->
    <title>theicons.co/svg/people-08</title>
    <desc>Created with Sketch.</desc>
    <defs></defs>
    <g id="The-Icons" stroke="none" stroke-width="1" fill="none" fill-rule="evenodd">
        <path d="M16.5732076,28 C16.5732076,29.1045695 15.6755786,29.9937878 14.5700901,29.9861372 L12.7030093,29.9732158 L10.7002828,38 L36.4558966,38 L34.4656026,30 L32.5650154,30 C31.4649703,30 30.5732076,29.1122704 30.5732076,28 L30.5732076,16 C30.5732076,12.1340068 27.4392009,9 23.5732076,9 C19.7072144,9 16.5732076,12.1340068 16.5732076,16 L16.5732076,28 Z M35.5819633,26 C36.6006126,26 37.788265,26.8602295 38.0596871,27.9459181 L41.0867281,40.0540819 C41.3554033,41.1287828 40.683315,42 39.5735003,42 L7.57291488,42 C6.46850705,42 5.78826498,41.1397705 6.05968713,40.0540819 L9.08672808,27.9459181 C9.3554033,26.8712172 10.4731051,26 11.5644519,26 L12.5732076,26 L12.5475726,16 C13.4439349,9.24707031 18.9138397,6 23.5732076,6 C29.3112502,6 34.0231358,10.3935 34.5283646,16 L34.5732076,26 L35.5819633,26 Z M13.5732076,36 C13.5732076,34.8954305 14.4609372,34 15.5732076,34 C16.6777771,34 17.5732076,34.8877296 17.5732076,36 L17.5732076,38 L13.5732076,38 L13.5732076,36 Z M19.5732076,33.9979131 C19.5732076,32.8944962 20.4609372,32 21.5732076,32 C22.6777771,32 23.5732076,32.8982606 23.5732076,33.9979131 L23.5732076,38 L19.5732076,38 L19.5732076,33.9979131 Z M20.5732076,20 C19.4686381,20 18.5732076,19.1045695 18.5732076,18 C18.5732076,16.8954305 19.4686381,16 20.5732076,16 C21.6777771,16 22.5732076,16.8954305 22.5732076,18 C22.5732076,19.1045695 21.6777771,20 20.5732076,20 Z M23.5732076,36 L26.5638387,36 C27.1212978,36 27.5732076,36.4438648 27.5732076,37 L27.5732076,38 L23.5732076,38 L23.5732076,36 Z M26.5732076,20 C25.4686381,20 24.5732076,19.1045695 24.5732076,18 C24.5732076,16.8954305 25.4686381,16 26.5732076,16 C27.6777771,16 28.5732076,16.8954305 28.5732076,18 C28.5732076,19.1045695 27.6777771,20 26.5732076,20 Z M29.5732076,36 C29.5732076,34.8954305 30.4609372,34 31.5732076,34 C32.6777771,34 33.5732076,34.8877296 33.5732076,36 L33.5732076,38 L29.5732076,38 L29.5732076,36 Z" id="Shape" fill="#000000" fill-rule="nonzero"></path>
    </g>
</svg>