<?xml version="1.0" encoding="UTF-8"?>
<svg width="48px" height="48px" viewBox="0 0 48 48" version="1.1" xmlns="http://www.w3.org/2000/svg" xmlns:xlink="http://www.w3.org/1999/xlink">
    <!-- Generator: Sketch 43.2 (39069) - http://www.bohemiancoding.com/sketch -->
    <title>theicons.co/svg/people-19</title>
    <desc>Created with Sketch.</desc>
    <defs></defs>
    <g id="The-Icons" stroke="none" stroke-width="1" fill="none" fill-rule="evenodd">
        <path d="M12.6891202,14 C14.3367572,9.33961846 18.7891068,6 24.0230958,6 C29.2570848,6 33.7094345,9.33961846 35.3570715,14 L37.0034652,14 C37.5538362,14 38,14.4530363 38,14.9970301 L38,21.0029699 C38,21.5536144 37.5601869,22 37.0034652,22 L35.3502268,22 C34.8226163,23.4842119 34.0103728,24.8339706 32.9789985,25.9839104 L36.0110659,25.9839104 C37.1122109,25.9839104 38.2447429,26.843461 38.5430445,27.912361 L41.928336,40.042832 C42.2255642,41.1078859 41.5719201,41.9720184 40.4547445,41.9729371 L7.5477824,41.9999993 C6.4367121,42.000913 5.77434504,41.1404703 6.07072619,40.0695396 L9.43422382,27.9160245 C9.7295385,26.8489473 10.8699905,25.9839104 11.9627376,25.9839104 L15.0671932,25.9839104 C14.0358189,24.8339706 13.2235753,23.4842119 12.6959649,22 L10.9965348,22 C10.4461638,22 10,21.5469637 10,21.0029699 L10,14.9970301 C10,14.4463856 10.4398131,14 10.9965348,14 L12.6891202,14 L12.6891202,14 Z M17.0702576,22 C18.4534952,24.3912055 21.0388706,26 24,26 C26.9611294,26 29.5465048,24.3912055 30.9297424,22 L17.0702576,22 L17.0702576,22 Z M17.0702576,14 L30.9297424,14 C29.5465048,11.6087945 26.9611294,10 24,10 C21.0388706,10 18.4534952,11.6087945 17.0702576,14 L17.0702576,14 Z M34.9559142,29.9808857 L13.0150662,29.9849035 L10.7908139,37.9742566 L37.2091703,37.9759487 L34.9559142,29.9808857 Z" id="Combined-Shape" fill="#000000"></path>
    </g>
</svg>