<?xml version="1.0" encoding="UTF-8"?>
<svg width="48px" height="48px" viewBox="0 0 48 48" version="1.1" xmlns="http://www.w3.org/2000/svg" xmlns:xlink="http://www.w3.org/1999/xlink">
    <!-- Generator: Sketch 43.2 (39069) - http://www.bohemiancoding.com/sketch -->
    <title>theicons.co/svg/people-03</title>
    <desc>Created with Sketch.</desc>
    <defs></defs>
    <g id="The-Icons" stroke="none" stroke-width="1" fill="none" fill-rule="evenodd">
        <path d="M22,32 L26,32 L28.2504204,38.001121 L37.1691771,38.0016934 L34.9188084,30.0001934 L26.9991767,30.0016466 L26,32 L22,32 L21.0013736,30.0027472 L13.0060767,30.0042144 L10.7846747,38 L19.7497842,38.0005754 L22,32 Z M16,18 C16,22.418278 19.581722,26 24,26 C28.418278,26 32,22.418278 32,18 C32,17.3094009 31.912494,16.6392398 31.747965,16 L16.252035,16 C16.087506,16.6392398 16,17.3094009 16,18 Z M12,18 C12,11.372583 17.372583,6 24,6 C30.627417,6 36,11.372583 36,18 C36,21.0734177 34.8445857,23.876974 32.944426,26 L35.972608,26 C37.0723419,26 38.2034226,26.8602426 38.5013419,27.9300033 L41.8822954,40.0702409 C42.1791427,41.1361522 41.5263362,42.0009804 40.4105922,42.0018999 L7.54579899,42.0289839 C6.43615247,42.0298983 5.77463421,41.1687628 6.07063555,40.09697 L9.429823,27.9336697 C9.72475926,26.8657334 10.8637498,26 11.9550966,26 L15.055574,26 C13.1554143,23.876974 12,21.0734177 12,18 Z" id="Combined-Shape" fill="#000000"></path>
    </g>
</svg>