<?xml version="1.0" encoding="UTF-8"?>
<svg width="48px" height="48px" viewBox="0 0 48 48" version="1.1" xmlns="http://www.w3.org/2000/svg" xmlns:xlink="http://www.w3.org/1999/xlink">
    <!-- Generator: Sketch 43.2 (39069) - http://www.bohemiancoding.com/sketch -->
    <title>theicons.co/svg/people-01</title>
    <desc>Created with Sketch.</desc>
    <defs></defs>
    <g id="The-Icons" stroke="none" stroke-width="1" fill="none" fill-rule="evenodd">
        <path d="M24,26 C28.418278,26 32,22.418278 32,18 C32,16.4704318 31.5707369,15.0411233 30.8261088,13.8259725 C28.3886117,16.0048828 22.9598691,16.0048828 20.159668,16.0048828 C18.1911936,16.0048828 16.8526494,17.4187696 16.0332502,18.7343078 C16.4039946,22.808402 19.8292785,26 24,26 Z M12,18 C12,11.372583 17.372583,6 24,6 C30.627417,6 36,11.372583 36,18 C36,21.0734177 34.8445857,23.876974 32.944426,26 L35.972608,26 C37.0723419,26 38.2034226,26.8602426 38.5013419,27.9300033 L41.8822954,40.0702409 C42.1791427,41.1361522 41.5263362,42.0009804 40.4105922,42.0018999 L7.54579899,42.0289839 C6.43615247,42.0298983 5.77463421,41.1687628 6.07063555,40.09697 L9.429823,27.9336697 C9.72475926,26.8657334 10.8637498,26 11.9550966,26 L15.055574,26 C13.1554143,23.876974 12,21.0734177 12,18 Z M34.9188084,30.0001934 L13.0060767,30.0042144 L10.7846747,38 L37.1691771,38.0016934 L34.9188084,30.0001934 Z" id="Combined-Shape" fill="#000000"></path>
    </g>
</svg>