<?xml version="1.0" encoding="UTF-8"?>
<svg width="48px" height="48px" viewBox="0 0 48 48" version="1.1" xmlns="http://www.w3.org/2000/svg" xmlns:xlink="http://www.w3.org/1999/xlink">
    <!-- Generator: Sketch 43.2 (39069) - http://www.bohemiancoding.com/sketch -->
    <title>theicons.co/svg/people-09</title>
    <desc>Created with Sketch.</desc>
    <defs></defs>
    <g id="The-Icons" stroke="none" stroke-width="1" fill="none" fill-rule="evenodd">
        <path d="M22.0000061,16.1774085 C22,15.0678599 22.8954305,14.1724294 24,14.1724294 C25.1045695,14.1724294 26,15.0678599 26,16.1724294 L28.0000186,16.1811446 C28,15.0678599 28.8954305,14.1724294 30,14.1724294 C31.1045695,14.1724294 32,15.0678599 32,16.1724294 C32,16.1761671 34,16.1848806 34,16.1848806 L34,10.658732 L32.6755607,11.306785 C30.6492554,12.3199377 28.0644908,11.8937745 26.4597325,10.2890162 L24,7.81616419 L21.5402675,10.2890162 C19.9399955,11.8892882 17.3624625,12.3257966 15.3244393,11.306785 L14.0069952,10.648063 L14.0037842,16.1724294 L16.0000004,16.1736724 C16,15.0678599 16.8954305,14.1724294 18,14.1724294 C19.1045695,14.1724294 20,15.0678599 20,16.1724294 L22.0000061,16.1774085 Z M32.944426,26.1724294 L35.972608,26.1724294 C37.0723419,26.1724294 38.2034226,27.0326721 38.5013419,28.1024327 L41.8822954,40.2426703 C42.1791427,41.3085817 41.5263362,42.1734099 40.4105922,42.1743294 L7.54579899,42.2014133 C6.43615247,42.2023278 5.77463421,41.3411923 6.07063555,40.2693994 L9.429823,28.1060991 C9.72475926,27.0381629 10.8637498,26.1724294 11.9550966,26.1724294 L15.055574,26.1724294 C13.5767092,24.5201113 12.5489566,22.4555777 12.1659169,20.1724294 L11.9912443,20.1724294 C10.8915104,20.1724294 10,19.2779157 10,18.1783692 L10,6.16648972 C10,5.06520064 10.7963181,4.57058847 11.7953562,5.07010752 L17.1132936,7.72907627 C17.603008,7.97393347 18.3225861,7.84984338 18.7118404,7.46058905 L22.5856815,3.58674794 C23.366788,2.8056414 24.6307648,2.80319426 25.4143185,3.58674794 L29.2881596,7.46058905 C29.6812982,7.85372765 30.4077196,7.96856964 30.8867064,7.72907627 L36.2046438,5.07010752 C37.1961917,4.57433361 38,5.0669432 38,6.16648972 L38,18.1783692 C38,19.2796582 37.1001025,20.1724294 36.0087557,20.1724294 L35.8340831,20.1724294 C35.4510434,22.4555777 34.4232908,24.5201113 32.944426,26.1724294 Z M16.252035,20.1724294 C17.1401206,23.6228839 20.2723211,26.1724294 24,26.1724294 C27.7276789,26.1724294 30.8598794,23.6228839 31.747965,20.1724294 L16.252035,20.1724294 Z M12.8255567,30.8264133 L10.7846747,38.1724294 L20.1721754,38.173032 L12.8255567,30.8264133 Z M24.0710678,36.4150701 L30.3126699,30.173468 L17.831756,30.1757583 L24.0710678,36.4150701 Z M27.9694598,38.1735324 L37.1691771,38.1741229 L35.1496346,30.9933576 L27.9694598,38.1735324 Z" id="Combined-Shape" fill="#000000"></path>
    </g>
</svg>