<?xml version="1.0" encoding="UTF-8"?>
<svg width="48px" height="48px" viewBox="0 0 48 48" version="1.1" xmlns="http://www.w3.org/2000/svg" xmlns:xlink="http://www.w3.org/1999/xlink">
    <!-- Generator: Sketch 43.2 (39069) - http://www.bohemiancoding.com/sketch -->
    <title>theicons.co/svg/people-07</title>
    <desc>Created with Sketch.</desc>
    <defs></defs>
    <g id="The-Icons" stroke="none" stroke-width="1" fill="none" fill-rule="evenodd">
        <path d="M32.944426,26 L37.9982567,26 C39.103789,26 40,26.8877296 40,28 C40,28.739896 39.600989,29.3859516 39.0031532,29.731894 L41.8822954,40.0702409 C42.1791427,41.1361522 41.5263362,42.0009804 40.4105922,42.0018999 L7.54579899,42.0289839 C6.43615247,42.0298983 5.77463421,41.1687628 6.07063555,40.09697 L8.94226573,29.6990685 C8.3764109,29.3473638 8,28.7208358 8,28 C8,26.8954305 8.88926172,26 10.0017433,26 L15.055574,26 C13.5767092,24.3476818 12.5489566,22.2831483 12.1659169,20 L7.99970728,20 C6.89529944,20 6,19.1132936 6,18.0018986 L6,13.9981014 C6,12.8945804 6.8876264,11.8559685 7.95905076,11.6413558 C7.95905076,11.6413558 14.0083008,10.9355469 14.0083008,8 C14.0083008,5.06445312 16.7836914,4.9096829e-16 24,0 C31.2163086,-4.9727192e-16 34,5.0012207 34,8 C34,10.9967041 40.0429798,11.6542697 40.0429798,11.6542697 C41.1238122,11.8452113 42,12.8867064 42,13.9981014 L42,18.0018986 C42,19.1054196 41.1101074,20 40.0002927,20 L35.8340831,20 C35.4510434,22.2831483 34.4232908,24.3476818 32.944426,26 Z M24,20 L16.252035,20 C17.1401206,23.4504544 20.2723211,26 24,26 C26.2232416,26 28.2346654,25.0931006 29.6845122,23.6290613 C29.1725451,23.8671049 28.6017922,24 28,24 C25.790861,24 24,22.209139 24,20 Z M27.9914698,32 C29.1007504,32 30,32.8877296 30,34 C30,35.1045695 29.0980496,36 27.9914698,36 L26,36 L26,37.9941413 L37.1691771,38.0016934 L34.9188084,30.0001934 L26,30.00183 L26,32 L27.9914698,32 Z M22,30.002564 L13.0060767,30.0042144 L10.7846747,38 L22.0000105,38.0007198 L22,36 L20.0085302,36 C18.8992496,36 18,35.1122704 18,34 C18,32.8954305 18.9019504,32 20.0085302,32 L22,32 L22,30.002564 Z M38.0022365,15.3720409 C38.0022365,15.3720409 36.491199,15.0086489 35.6774103,14.7183184 C32.3611284,13.5351884 30,11.521943 30,8 C30,7.39194265 29.5999452,6.43863451 28.8539286,5.67992363 C27.8256516,4.63414923 26.2569234,4 24,4 C21.7548306,4 20.1910471,4.63859523 19.1588321,5.69485199 C18.4111898,6.45990787 18.0083008,7.41877109 18.0083008,8 C18.0083008,11.5061208 15.6555786,13.4932037 12.3362685,14.6858795 C10.859178,15.2166193 10,15.3366699 10,15.3366699 L10,16.0073242 L38,16.000484 L38.0022365,15.3720409 Z" id="Combined-Shape" fill="#000000"></path>
    </g>
</svg>