<?xml version="1.0" encoding="UTF-8"?>
<svg width="48px" height="48px" viewBox="0 0 48 48" version="1.1" xmlns="http://www.w3.org/2000/svg" xmlns:xlink="http://www.w3.org/1999/xlink">
    <!-- Generator: Sketch 43.2 (39069) - http://www.bohemiancoding.com/sketch -->
    <title>theicons.co/svg/people-18</title>
    <desc>Created with Sketch.</desc>
    <defs></defs>
    <g id="The-Icons" stroke="none" stroke-width="1" fill="none" fill-rule="evenodd">
        <path d="M30.0307945,15.9932869 C30.0307945,17.095944 29.1419258,17.9898242 28.0282283,17.9898242 C26.9222415,17.9898242 26.025662,17.1038119 26.025662,15.9932869 L26.025662,10.2479239 C25.385602,10.0835237 24.7145811,9.99608623 24.0230958,9.99608623 C23.3316106,9.99608623 22.6605897,10.0835237 22.0205296,10.2479239 L22.0205296,15.9932869 C22.0205296,17.095944 21.1316609,17.9898242 20.0179634,17.9898242 C18.9119767,17.9898242 18.0153972,17.1038119 18.0153972,15.9932869 L18.0153972,12.7023175 C16.7690733,14.11148 16.012831,15.9625194 16.012831,17.9898242 C16.012831,22.4046438 19.5991487,25.9835622 24.0230958,25.9835622 C28.4470429,25.9835622 32.0333607,22.4046438 32.0333607,17.9898242 C32.0333607,15.9625194 31.2771184,14.11148 30.0307945,12.7023175 L30.0307945,15.9932869 Z M24.0230958,5.99921725 C25.5159921,5.99921725 26.9452966,6.27092368 28.2640632,6.76748704 C28.7342741,5.72534022 29.7824309,5 31,5 C31.9183855,5 32.7403865,5.41267162 33.2906865,6.06269865 C33.5208986,6.02150145 33.7579383,6 34,6 C36.209139,6 38,7.790861 38,10 C38,10.7949075 37.7681276,11.5356583 37.3683298,12.1583056 C37.7642025,12.6666487 38,13.3057876 38,14 C38,15.3123791 37.1572997,16.427935 35.9834924,16.8350744 C36.0198798,17.2150943 36.0384931,17.6002901 36.0384931,17.9898242 C36.0384931,21.0608362 34.8815963,23.862198 32.9789985,25.9835622 L36.0110659,25.9835622 C37.1122109,25.9835622 38.2447429,26.8431314 38.5430445,27.9120547 L41.928336,40.0427895 C42.2255642,41.1078665 41.5719201,41.9720178 40.4547445,41.9729365 L7.5477824,41.9999993 C6.4367121,42.000913 5.77434504,41.1404516 6.07072619,40.0694976 L9.43422382,27.9157183 C9.7295385,26.8486179 10.8699905,25.9835622 11.9627376,25.9835622 L15.0671932,25.9835622 C13.1645954,23.862198 12.0076986,21.0608362 12.0076986,17.9898242 C12.0076986,17.6054574 12.0258213,17.2253146 12.0612606,16.8502004 C10.8641791,16.4561579 10,15.3289989 10,14 C10,13.3057876 10.2357975,12.6666487 10.6316702,12.1583056 C10.2318724,11.5356583 10,10.7949075 10,10 C10,7.790861 11.790861,6 14,6 C14.2420617,6 14.4791014,6.02150145 14.7093135,6.06269865 C15.2596135,5.41267162 16.0816145,5 17,5 C18.2233833,5 19.2757324,5.73228411 19.7426333,6.78243817 C21.0723404,6.27638017 22.5152837,5.99921725 24.0230958,5.99921725 Z M34.9559142,29.9806244 L13.0150662,29.9846422 L10.7908139,37.9741691 L37.2091703,37.9758612 L34.9559142,29.9806244 Z M24.0230958,23.9851277 C22.3641157,23.9851277 21.0192465,22.6430333 21.0192465,20.9874759 C21.0192465,19.3319186 22.3641157,17.9898242 24.0230958,17.9898242 C25.682076,17.9898242 27.0269451,19.3319186 27.0269451,20.9874759 C27.0269451,22.6430333 25.682076,23.9851277 24.0230958,23.9851277 Z" id="Combined-Shape" fill="#000000"></path>
    </g>
</svg>