<?xml version="1.0" encoding="UTF-8"?>
<svg width="48px" height="48px" viewBox="0 0 48 48" version="1.1" xmlns="http://www.w3.org/2000/svg" xmlns:xlink="http://www.w3.org/1999/xlink">
    <!-- Generator: Sketch 43.2 (39069) - http://www.bohemiancoding.com/sketch -->
    <title>theicons.co/svg/people-14</title>
    <desc>Created with Sketch.</desc>
    <defs></defs>
    <g id="The-Icons" stroke="none" stroke-width="1" fill="none" fill-rule="evenodd">
        <path d="M16,18 C16,22.418278 19.581722,26 24,26 C28.418278,26 32,22.418278 32,18 C32,17.8499763 31.9476016,17.0585682 31.9656643,17.2538607 C31.765228,15.9802477 30.9907048,13.4237529 27.9978027,12.6837158 C25.181939,12.177563 24.0014777,13.9977196 24.0000014,13.9999979 C23.9988933,13.9982917 22.8185035,12.1774835 20.0021973,12.6837158 C17.0092952,13.4237529 16.234772,15.9802477 16.0343357,17.2538607 C16.0523984,17.0585682 16,17.8499763 16,18 Z M34,2 C37.3137085,2 40,4.6862915 40,8 C40,10.8784042 37.9731197,13.2834052 35.2687641,13.8655979 C35.7417931,15.1545013 36,16.5470969 36,18 C36,21.0734177 34.8445857,23.876974 32.944426,26 L35.972608,26 C37.0723419,26 38.2034226,26.8602426 38.5013419,27.9300033 L41.8822954,40.0702409 C42.1791427,41.1361522 41.5263362,42.0009804 40.4105922,42.0018999 L7.54579899,42.0289839 C6.43615247,42.0298983 5.77463421,41.1687628 6.07063555,40.09697 L9.429823,27.9336697 C9.72475926,26.8657334 10.8637498,26 11.9550966,26 L15.055574,26 C13.1554143,23.876974 12,21.0734177 12,18 C12,16.5470969 12.2582069,15.1545013 12.7312359,13.8655979 C10.0268803,13.2834052 8,10.8784042 8,8 C8,4.6862915 10.6862915,2 14,2 C16.8784042,2 19.2834052,4.02688032 19.8655979,6.73123592 C21.1545013,6.25820688 22.5470969,6 24,6 C25.4529031,6 26.8454987,6.25820688 28.1344021,6.73123592 C28.7165948,4.02688032 31.1215958,2 34,2 Z M34.9188084,30.0001934 L13.0060767,30.0042144 L10.7846747,38 L37.1691771,38.0016934 L34.9188084,30.0001934 Z M24,24 C22.3431458,24 21,23.1045695 21,22 C21,20.8954305 22.3431458,20 24,20 C25.6568542,20 27,20.8954305 27,22 C27,23.1045695 25.6568542,24 24,24 Z" id="Combined-Shape" fill="#000000"></path>
    </g>
</svg>