<?xml version="1.0" encoding="UTF-8"?>
<svg width="48px" height="48px" viewBox="0 0 48 48" version="1.1" xmlns="http://www.w3.org/2000/svg" xmlns:xlink="http://www.w3.org/1999/xlink">
    <!-- Generator: Sketch 43.2 (39069) - http://www.bohemiancoding.com/sketch -->
    <title>theicons.co/svg/phone-20</title>
    <desc>Created with Sketch.</desc>
    <defs></defs>
    <g id="The-Icons" stroke="none" stroke-width="1" fill="none" fill-rule="evenodd">
        <path d="M12,39.9982567 L12,8.00174332 C12,5.79369423 13.7878883,4 15.9940603,4 L32.0059397,4 C34.2148422,4 36,5.7877386 36,8.00174332 L36,39.9982567 C36,42.2063058 34.2121117,44 32.0059397,44 L15.9940603,44 C13.7851578,44 12,42.2122614 12,39.9982567 Z M32,8 L16,8.00174332 L16,40 L32,39.9982567 L32,8 Z M6,11.9912443 C6,10.8915104 6.88772964,10 8,10 C9.1045695,10 10,10.8998975 10,11.9912443 L10,36.0087557 C10,37.1084896 9.11227036,38 8,38 C6.8954305,38 6,37.1001025 6,36.0087557 L6,11.9912443 Z M38,11.9912443 C38,10.8915104 38.8877296,10 40,10 C41.1045695,10 42,10.8998975 42,11.9912443 L42,36.0087557 C42,37.1084896 41.1122704,38 40,38 C38.8954305,38 38,37.1001025 38,36.0087557 L38,11.9912443 Z M0,15.9907951 C0,14.8913093 0.887729645,14 2,14 C3.1045695,14 4,14.8982124 4,15.9907951 L4,32.0092049 C4,33.1086907 3.11227036,34 2,34 C0.8954305,34 0,33.1017876 0,32.0092049 L0,15.9907951 Z M44,15.9907951 C44,14.8913093 44.8877296,14 46,14 C47.1045695,14 48,14.8982124 48,15.9907951 L48,32.0092049 C48,33.1086907 47.1122704,34 46,34 C44.8954305,34 44,33.1017876 44,32.0092049 L44,15.9907951 Z" id="Combined-Shape" fill="#000000" fill-rule="nonzero"></path>
    </g>
</svg>