<?xml version="1.0" encoding="UTF-8"?>
<svg width="48px" height="48px" viewBox="0 0 48 48" version="1.1" xmlns="http://www.w3.org/2000/svg" xmlns:xlink="http://www.w3.org/1999/xlink">
    <!-- Generator: Sketch 43.2 (39069) - http://www.bohemiancoding.com/sketch -->
    <title>theicons.co/svg/phone-11</title>
    <desc>Created with Sketch.</desc>
    <defs></defs>
    <g id="The-Icons" stroke="none" stroke-width="1" fill="none" fill-rule="evenodd">
        <path d="M16.0020869,38 L7.99922047,38 C4.68594249,38 2,35.3152423 2,31.9932975 L2,16.0067025 C2,12.6892923 4.68662393,10 7.99922047,10 L16.0020869,10 C17.1055038,10 18,10.8877296 18,12 C18,13.1045695 17.1017394,14 16.0020869,14 L7.99922047,14 C6.89657406,14 6,14.8976218 6,16.0067025 L6,31.9932975 C6,33.1051859 6.89416577,34 7.99922047,34 L16.0020869,34 C17.1055038,34 18,34.8877296 18,36 C18,37.1045695 17.1017394,38 16.0020869,38 Z M36.0007795,38 L27.9979131,38 C26.8944962,38 26,37.1122704 26,36 C26,34.8954305 26.8982606,34 27.9979131,34 L29.0010434,34 L36.0007795,34 C37.1034259,34 38,33.1023782 38,31.9932975 L38,16.0067025 C38,14.8948141 37.1058342,14 36.0007795,14 L27.9979131,14 C26.8944962,14 26,13.1122704 26,12 C26,10.8954305 26.8982606,10 27.9979131,10 L36.0007795,10 C39.3140575,10 42,12.6847577 42,16.0067025 L42,20 C44.209139,20 46,21.790861 46,24 C46,26.209139 44.209139,28 42,28 L42,31.9932975 C42,35.3107077 39.3133761,38 36.0007795,38 Z M26.7283151,22 C27.828768,21.9589024 28.223597,22.7022619 27.6087408,23.6214092 L22.1556738,31.7731882 C20.9319109,33.6025888 19.9398552,33.3016234 20,31.1115428 L20,25.996781 L17.1801427,25.9967811 C16.0746001,25.9967811 15.677945,25.2536546 16.295645,24.3347953 L21.773933,16.1855703 C23.0033559,14.3567428 24,14.671311 24,16.8648443 L24,22 L26.7283151,22 Z" id="Combined-Shape" fill="#000000"></path>
    </g>
</svg>