<?xml version="1.0" encoding="UTF-8"?>
<svg width="48px" height="48px" viewBox="0 0 48 48" version="1.1" xmlns="http://www.w3.org/2000/svg" xmlns:xlink="http://www.w3.org/1999/xlink">
    <!-- Generator: Sketch 43.2 (39069) - http://www.bohemiancoding.com/sketch -->
    <title>theicons.co/svg/phone-03</title>
    <desc>Created with Sketch.</desc>
    <defs></defs>
    <g id="The-Icons" stroke="none" stroke-width="1" fill="none" fill-rule="evenodd">
        <path d="M23.21592,42 C21.5590657,42 20.21592,40.6568542 20.21592,39 C20.21592,37.3431458 21.5590657,36 23.21592,36 C24.8727742,36 26.21592,37.3431458 26.21592,39 C26.21592,40.6568542 24.8727742,42 23.21592,42 Z M23.21592,6 C30.6807843,6 37.7851929,8.41434794 43.6280626,12.8067799 C44.510972,13.4705153 44.6886477,14.7243187 44.0249122,15.6072281 C43.3611768,16.4901376 42.1073734,16.6678132 41.224464,16.0040778 C36.0687955,12.1282557 29.8062356,10 23.21592,10 C16.6233855,10 10.3588466,12.1296954 5.20225496,16.0079284 C4.31948673,16.6718516 3.06564558,16.4944426 2.40172237,15.6116744 C1.73779916,14.7289062 1.91520811,13.475065 2.79797635,12.8111418 C8.64188793,8.4159808 15.7485406,6 23.21592,6 Z M23.21592,16 C28.4977154,16 33.5251797,17.7130506 37.6549165,20.8277378 C38.5367869,21.492853 38.7125018,22.7469327 38.0473866,23.6288031 C37.3822714,24.5106736 36.1281917,24.6863885 35.2463212,24.0212733 C31.8046567,21.4255367 27.6209885,20 23.21592,20 C18.8227213,20 14.6496379,21.4178285 11.2129058,24.0006543 C10.3299013,24.6642634 9.0761234,24.4864084 8.41251433,23.603404 C7.74890525,22.7203995 7.92676031,21.4666216 8.80976471,20.8030125 C12.933618,17.7037908 17.948372,16 23.21592,16 Z M23.21592,26 C26.328265,26 29.2909089,27.0207486 31.7128876,28.8725991 C32.5903549,29.5435126 32.7577998,30.7987232 32.0868863,31.6761905 C31.4159728,32.5536578 30.1607621,32.7211027 29.2832948,32.0501892 C27.5529999,30.7272017 25.4423532,30 23.21592,30 C21.0146123,30 18.9263452,30.7107916 17.2063694,32.0063067 C16.3240781,32.6708635 15.0701099,32.4943549 14.405553,31.6120636 C13.7409962,30.7297723 13.9175048,29.4758041 14.7997961,28.8112472 C17.2074921,26.9977295 20.1387672,26 23.21592,26 Z" id="Combined-Shape" fill="#000000"></path>
    </g>
</svg>