<?xml version="1.0" encoding="UTF-8"?>
<svg width="48px" height="48px" viewBox="0 0 48 48" version="1.1" xmlns="http://www.w3.org/2000/svg" xmlns:xlink="http://www.w3.org/1999/xlink">
    <!-- Generator: Sketch 43.2 (39069) - http://www.bohemiancoding.com/sketch -->
    <title>theicons.co/svg/phone-21</title>
    <desc>Created with Sketch.</desc>
    <defs></defs>
    <g id="The-Icons" stroke="none" stroke-width="1" fill="none" fill-rule="evenodd">
        <path d="M18.3414114,22 C19.1650842,24.3303847 21.3875623,26 24,26 C26.6124377,26 28.8349158,24.3303847 29.6585886,22 L40,22 L40,8 L8,8 L8,22 L18.3414114,22 Z M44,6.00732994 L44,42.008845 C44,43.1085295 43.1084602,44 42.0027084,44 L5.99729162,44 C4.89421792,44 4,43.1103261 4,42.008845 L4,6.00732994 C4,4.89871223 4.89153983,4 5.99729162,4 L42.0027084,4 C43.1057821,4 44,4.89833832 44,6.00732994 Z M8,40 L40,40 L40,26 L32.0016624,26 C30.1555784,28.4599886 27.2243512,30 24,30 C20.7756488,30 17.8444216,28.4599886 15.9983376,26 L8,26 L8,40 Z M10,12 C10,10.8954305 10.8998975,10 11.9912443,10 L36.0087557,10 C37.1084896,10 38,10.8877296 38,12 C38,13.1045695 37.1001025,14 36.0087557,14 L11.9912443,14 C10.8915104,14 10,13.1122704 10,12 Z M10,18 C10,16.8954305 10.8998975,16 11.9912443,16 L36.0087557,16 C37.1084896,16 38,16.8877296 38,18 C38,19.1045695 37.1001025,20 36.0087557,20 L11.9912443,20 C10.8915104,20 10,19.1122704 10,18 Z" id="Combined-Shape" fill="#000000"></path>
    </g>
</svg>