<?xml version="1.0" encoding="UTF-8"?>
<svg width="48px" height="48px" viewBox="0 0 48 48" version="1.1" xmlns="http://www.w3.org/2000/svg" xmlns:xlink="http://www.w3.org/1999/xlink">
    <!-- Generator: Sketch 43.2 (39069) - http://www.bohemiancoding.com/sketch -->
    <title>theicons.co/svg/phone-15</title>
    <desc>Created with Sketch.</desc>
    <defs></defs>
    <g id="The-Icons" stroke="none" stroke-width="1" fill="none" fill-rule="evenodd">
        <path d="M21.8219298,14.4891647 L19.7038166,16.6072779 C18.5335041,17.7775904 18.5356525,19.6809378 19.7109266,20.8562119 L26.7685911,27.9138764 C27.9514722,29.0967575 29.8461777,29.0923338 31.0175251,27.9209864 L33.1356383,25.8028732 C33.9186837,25.0198279 35.1851703,25.0167471 35.9693477,25.8009246 L43.7440064,33.5755833 C44.9166005,34.7481773 44.922035,36.6438935 43.7391538,37.8267747 L39.499366,42.0665625 C36.7678216,44.7981069 31.8090698,45.5164872 28.4929941,43.5321073 C28.4929941,43.5321073 23.1814087,41.2972568 14.8045412,32.9203893 C6.42767364,24.5435217 4.11055977,19.1331609 4.11055977,19.1331609 C2.17854736,15.7853073 2.83406755,10.84961 5.55824053,8.12543698 L9.79802831,3.8856492 C10.9733024,2.71037508 12.8692548,2.70083166 14.0492198,3.88079658 L21.8238784,11.6554553 C22.6058476,12.4374244 22.6076032,13.7034913 21.8219298,14.4891647 Z M8.38666765,10.9538641 C6.93971786,12.4008139 6.69486713,15.2964519 7.57505197,17.1338376 C7.57505197,17.1338376 8.98789527,19.697744 9.62739713,20.6413152 C11.5175481,23.430192 14.1461798,26.6051736 17.6329683,30.0919621 C21.1192065,33.5782003 24.2745485,36.1904863 27.0305648,38.0539222 C27.9610079,38.6830262 30.5469683,40.0997335 30.5469683,40.0997335 C32.2212738,40.9759845 35.1980889,40.7109853 36.6709389,39.2381354 L40.2103216,35.6987527 L34.5534673,30.0418984 L33.8459522,30.7494136 C31.1093288,33.486037 26.6819616,33.4841011 23.9401639,30.7423035 L16.8824995,23.6846391 C14.1473892,20.9495288 14.1407136,16.5135267 16.8753894,13.7788508 L17.5829046,13.0713357 L11.9260503,7.41448142 L8.38666765,10.9538641 Z" id="Combined-Shape" fill="#000000" fill-rule="nonzero"></path>
    </g>
</svg>