<?xml version="1.0" encoding="UTF-8"?>
<svg width="48px" height="48px" viewBox="0 0 48 48" version="1.1" xmlns="http://www.w3.org/2000/svg" xmlns:xlink="http://www.w3.org/1999/xlink">
    <!-- Generator: Sketch 43.2 (39069) - http://www.bohemiancoding.com/sketch -->
    <title>theicons.co/svg/phone-13</title>
    <desc>Created with Sketch.</desc>
    <defs></defs>
    <g id="The-Icons" stroke="none" stroke-width="1" fill="none" fill-rule="evenodd">
        <path d="M25.2600719,26.680034 L35.2715935,38.90744 C36.6700437,40.6154139 36.017058,42.0000003 33.7971475,42.0000003 L14.2564419,42.0000002 C12.0436777,42.0000002 11.3866691,40.6058521 12.7715577,38.9074399 L22.7295606,26.6950546 C23.4302879,25.8356904 24.5652641,25.831442 25.2600719,26.680034 Z M18.6854858,38.0000002 L29.3599115,38 L24,31.4667297 L18.6854858,38.0000002 Z M8.00500488,30 L10.0100098,30 C11.1145793,30 12.0100098,30.8954305 12.0100098,32 C12.0100098,33.1045695 11.1145793,34 10.0100098,34 L8.00500488,34 C5.79778867,34 4,32.2093552 4,30.0087557 L4,9.99124431 C4,7.78401476 5.7882509,6 7.99970728,6 L40.0002927,6 C42.2057719,6 44,7.79183281 44,9.99124431 L44,30.0087557 C44,32.2164868 42.213409,34 40,34 L38,34 C36.8954305,34 36,33.1045695 36,32 C36,30.8954305 36.8954305,30 38,30 L40,30.0087557 L40.0002927,10 L8,9.99124431 L8.00500488,30 Z" id="Combined-Shape" fill="#000000"></path>
    </g>
</svg>