<?xml version="1.0" encoding="UTF-8"?>
<svg width="48px" height="48px" viewBox="0 0 48 48" version="1.1" xmlns="http://www.w3.org/2000/svg" xmlns:xlink="http://www.w3.org/1999/xlink">
    <!-- Generator: Sketch 43.2 (39069) - http://www.bohemiancoding.com/sketch -->
    <title>theicons.co/svg/phone-16</title>
    <desc>Created with Sketch.</desc>
    <defs></defs>
    <g id="The-Icons" stroke="none" stroke-width="1" fill="none" fill-rule="evenodd">
        <path d="M19.7109266,20.8562119 C18.5356525,19.6809378 18.5335041,17.7775904 19.7038166,16.6072779 L21.8219298,14.4891647 C22.6076032,13.7034913 22.6058476,12.4374244 21.8238784,11.6554553 L14.0492198,3.88079658 C12.8692548,2.70083166 10.9733024,2.71037508 9.79802831,3.8856492 L5.55824053,8.12543698 C2.83406755,10.84961 2.17854736,15.7853073 4.11055977,19.1331609 C4.11055977,19.1331609 6.15702734,23.9115743 13.3564117,31.4399641 L9.09143201,35.7049439 C8.31973329,36.4766426 8.31657464,37.7461312 9.09762322,38.5271798 C9.88411713,39.3136737 11.1422299,39.3110003 11.9198591,38.533371 L16.1826237,34.2706064 C23.7596498,41.5405518 28.4929941,43.5321073 28.4929941,43.5321073 C31.8090698,45.5164872 36.7678216,44.7981069 39.499366,42.0665625 L43.7391538,37.8267747 C44.922035,36.6438935 44.9166005,34.7481773 43.7440064,33.5755833 L35.9693477,25.8009246 C35.1851703,25.0167471 33.9186837,25.0198279 33.1356383,25.8028732 L31.0175251,27.9209864 C29.8461777,29.0923338 27.9514722,29.0967575 26.7685911,27.9138764 L24.6539724,25.7992577 L28.9028043,21.5504258 C29.674503,20.7787271 29.6776617,19.5092385 28.8966131,18.7281899 C28.1101192,17.941696 26.8520064,17.9443694 26.0743772,18.7219987 L21.8255453,22.9708306 L19.7109266,20.8562119 Z M9.62739713,20.6413152 C8.98789527,19.697744 7.57505197,17.1338376 7.57505197,17.1338376 C6.69486713,15.2964519 6.93971786,12.4008139 8.38666765,10.9538641 L11.9260503,7.41448142 L17.5829046,13.0713357 L16.8753894,13.7788508 C14.1407136,16.5135267 14.1473892,20.9495288 16.8824995,23.6846391 L18.9971182,25.7992577 L16.1852639,28.611112 C13.4073312,25.702352 11.246447,23.0301881 9.62739713,20.6413152 Z M27.0305648,38.0539222 C27.9610079,38.6830262 30.5469683,40.0997335 30.5469683,40.0997335 C32.2212738,40.9759845 35.1980889,40.7109853 36.6709389,39.2381354 L40.2103216,35.6987527 L34.5534673,30.0418984 L33.8459522,30.7494136 C31.1093288,33.486037 26.6819616,33.4841011 23.9401639,30.7423035 L21.8255453,28.6276849 L19.0114068,31.4418233 C21.9545993,34.2623615 24.6424915,36.439265 27.0305648,38.0539222 Z" id="Combined-Shape" fill="#000000"></path>
    </g>
</svg>