<?xml version="1.0" encoding="UTF-8"?>
<svg width="48px" height="48px" viewBox="0 0 48 48" version="1.1" xmlns="http://www.w3.org/2000/svg" xmlns:xlink="http://www.w3.org/1999/xlink">
    <!-- Generator: Sketch 43.2 (39069) - http://www.bohemiancoding.com/sketch -->
    <title>theicons.co/svg/phone-06</title>
    <desc>Created with Sketch.</desc>
    <defs></defs>
    <g id="The-Icons" stroke="none" stroke-width="1" fill="none" fill-rule="evenodd">
        <path d="M6,23.0013241 C6,25.2148234 7.78483034,27 10,27 C11.1045695,27 12,27.8954305 12,29 C12,30.1045695 11.1045695,31 10,31 C5.57551763,31 2,27.4237887 2,23.0013241 L2,15.9986759 C2,11.579199 5.58211931,8 10.0067025,8 L25.9932975,8 C30.4157865,8 34,11.577874 34,15.9986759 L34,23.0013241 C34,27.4217916 30.4250943,31 26.0001992,31 L22,31 C20.8954305,31 20,30.1045695 20,29 C20,27.8954305 20.8954305,27 22,27 L26.0001992,27 C28.215128,27 30,25.213479 30,23.0013241 L30,15.9986759 C30,13.7885997 28.2082311,12 25.9932975,12 L10.0067025,12 C7.79052835,12 6,13.7890686 6,15.9986759 L6,23.0013241 Z M42,24.9986759 C42,22.7877972 40.2122394,21 38.0040443,21 C36.8994748,21 36.0040443,20.1045695 36.0040443,19 C36.0040443,17.8954305 36.8994748,17 38.0040443,17 C42.4213967,17 46,20.5786765 46,24.9986759 L46,32.0013241 C46,36.420801 42.4178807,40 37.9932975,40 L22.0067025,40 C17.5842135,40 14,36.422126 14,32.0013241 L14,24.9986759 C14,20.5817777 17.5793992,17 21.9939905,17 L26,17 C27.1045695,17 28,17.8954305 28,19 C28,20.1045695 27.1045695,21 26,21 L21.9939905,21 C19.7891332,21 18,22.7903221 18,24.9986759 L18,32.0013241 C18,34.2114003 19.7917689,36 22.0067025,36 L37.9932975,36 C40.2094716,36 42,34.2109314 42,32.0013241 L42,24.9986759 Z" id="Combined-Shape" fill="#000000" fill-rule="nonzero"></path>
    </g>
</svg>