<?xml version="1.0" encoding="UTF-8"?>
<svg width="48px" height="48px" viewBox="0 0 48 48" version="1.1" xmlns="http://www.w3.org/2000/svg" xmlns:xlink="http://www.w3.org/1999/xlink">
    <!-- Generator: Sketch 43.2 (39069) - http://www.bohemiancoding.com/sketch -->
    <title>theicons.co/svg/phone-14</title>
    <desc>Created with Sketch.</desc>
    <defs></defs>
    <g id="The-Icons" stroke="none" stroke-width="1" fill="none" fill-rule="evenodd">
        <path d="M21.9443806,29.9940603 C21.9443806,28.8927712 22.8321102,28 23.9443806,28 C25.0489501,28 25.9443806,28.8945138 25.9443806,29.9940603 L25.9443806,42.0059397 C25.9443806,43.1072288 25.0566509,44 23.9443806,44 C22.8398111,44 21.9443806,43.1054862 21.9443806,42.0059397 L21.9443806,29.9940603 Z M23.9443806,16 C22.7685637,16 21.6135546,16.1445202 20.4967471,16.4272628 C19.4259609,16.6983543 18.3381541,16.0500735 18.0670627,14.9792872 C17.7959712,13.908501 18.444252,12.8206942 19.5150383,12.5496028 C20.9521133,12.1857779 22.4368545,12 23.9443806,12 C33.8879568,12 41.9443806,20.0587827 41.9443806,30.0093255 L41.9443806,36 C41.9443806,37.1045695 41.0489501,38 39.9443806,38 C38.8398111,38 37.9443806,37.1045695 37.9443806,36 L37.9443806,30.0093255 C37.9443806,22.2676596 31.6785556,16 23.9443806,16 Z M23.9443806,8 C17.5722401,8 11.6453876,10.7191121 7.49465618,15.3873845 C6.76070598,16.2128485 5.49655096,16.2870351 4.67108692,15.5530849 C3.84562288,14.8191347 3.77143626,13.5549797 4.50538647,12.7295157 C9.4074671,7.21621076 16.4178464,4 23.9443806,4 C31.5103501,4 38.5554516,7.25272651 43.4601843,12.819129 C44.1904221,13.6478791 44.1105621,14.9116884 43.2818121,15.6419261 C42.4530621,16.3721639 41.1892528,16.2923039 40.459015,15.4635539 C36.3058073,10.7500603 30.3494337,8 23.9443806,8 Z M29.9443806,42 L29.9443806,37.9763184 C29.9443806,36.8717489 30.8398111,35.9763184 31.9443806,35.9763184 C33.0489501,35.9763184 33.9443806,36.8717489 33.9443806,37.9763184 L33.9443806,42 C33.9443806,43.1045695 33.0489501,44 31.9443806,44 C30.8398111,44 29.9443806,43.1045695 29.9443806,42 Z M9.94438055,30.0074211 L9.94438055,36 C9.94438055,37.1045695 9.04895005,38 7.94438055,38 C6.83981105,38 5.94438055,37.1045695 5.94438055,36 L5.94438055,30.0074211 C5.94438055,25.4167671 7.67061152,21.0910795 10.7224369,17.7875896 C11.4719693,16.9762481 12.7373076,16.926142 13.5486491,17.6756743 C14.3599905,18.4252067 14.4100967,19.690545 13.6605644,20.5018865 C11.284997,23.0733516 9.94438055,26.4327444 9.94438055,30.0074211 Z M17.9443806,29.9941631 L17.9443806,42 C17.9443806,43.1045695 17.0489501,44 15.9443806,44 C14.8398111,44 13.9443806,43.1045695 13.9443806,42 L13.9443806,29.9941631 C13.9443806,24.4769648 18.428092,20 23.9443806,20 C29.4678347,20 33.9443806,24.4769724 33.9443806,30.0018904 C33.9443806,31.1064599 33.0489501,32.0018904 31.9443806,32.0018904 C30.8398111,32.0018904 29.9443806,31.1064599 29.9443806,30.0018904 C29.9443806,26.6860261 27.2586104,24 23.9443806,24 C20.6358837,24 17.9443806,26.6874533 17.9443806,29.9941631 Z" id="Combined-Shape" fill="#000000"></path>
    </g>
</svg>