<?xml version="1.0" encoding="UTF-8"?>
<svg width="48px" height="48px" viewBox="0 0 48 48" version="1.1" xmlns="http://www.w3.org/2000/svg" xmlns:xlink="http://www.w3.org/1999/xlink">
    <!-- Generator: Sketch 43.2 (39069) - http://www.bohemiancoding.com/sketch -->
    <title>theicons.co/svg/phone-10</title>
    <desc>Created with Sketch.</desc>
    <defs></defs>
    <g id="The-Icons" stroke="none" stroke-width="1" fill="none" fill-rule="evenodd">
        <path d="M46,24 C46,26.209139 44.209139,28 42,28 L42,31.9932975 C42,35.3107077 39.3133761,38 36.0007795,38 L7.99922047,38 C4.68594249,38 2,35.3152423 2,31.9932975 L2,16.0067025 C2,12.6892923 4.68662393,10 7.99922047,10 L36.0007795,10 C39.3140575,10 42,12.6847577 42,16.0067025 L42,20 C44.209139,20 46,21.790861 46,24 Z M6,16.0067025 L6,31.9932975 C6,33.1051859 6.89416577,34 7.99922047,34 L36.0007795,34 C37.1034259,34 38,33.1023782 38,31.9932975 L38,16.0067025 C38,14.8948141 37.1058342,14 36.0007795,14 L7.99922047,14 C6.89657406,14 6,14.8976218 6,16.0067025 Z M28,24 C28,22.8954305 28.8867064,22 29.9981014,22 L34.0018986,22 C35.1054196,22 36,22.8877296 36,24 C36,25.1045695 35.1132936,26 34.0018986,26 L29.9981014,26 C28.8945804,26 28,25.1122704 28,24 Z M18,24 C18,22.8954305 18.8867064,22 19.9981014,22 L24.0018986,22 C25.1054196,22 26,22.8877296 26,24 C26,25.1045695 25.1132936,26 24.0018986,26 L19.9981014,26 C18.8945804,26 18,25.1122704 18,24 Z M8,24 C8,22.8954305 8.88670635,22 9.99810135,22 L14.0018986,22 C15.1054196,22 16,22.8877296 16,24 C16,25.1045695 15.1132936,26 14.0018986,26 L9.99810135,26 C8.89458045,26 8,25.1122704 8,24 Z" id="Combined-Shape" fill="#000000"></path>
    </g>
</svg>