<?xml version="1.0" encoding="UTF-8"?>
<svg width="48px" height="48px" viewBox="0 0 48 48" version="1.1" xmlns="http://www.w3.org/2000/svg" xmlns:xlink="http://www.w3.org/1999/xlink">
    <!-- Generator: Sketch 43.2 (39069) - http://www.bohemiancoding.com/sketch -->
    <title>theicons.co/svg/phone-19</title>
    <desc>Created with Sketch.</desc>
    <defs></defs>
    <g id="The-Icons" stroke="none" stroke-width="1" fill="none" fill-rule="evenodd">
        <path d="M44,24 C44,29.3551725 41.8829659,34.3804804 38.1817668,38.1023937 C37.4029008,38.8856187 36.1365758,38.8891524 35.3533507,38.1102864 C34.5701257,37.3314203 34.566592,36.0650953 35.345458,35.2818703 C38.3087077,32.3020364 40,28.2873328 40,24 C40,15.163444 32.836556,8 24,8 C15.163444,8 8,15.163444 8,24 C8,28.309302 9.70879782,32.3428861 12.6990497,35.3264525 C13.4809719,36.1066265 13.4823891,37.3729556 12.7022152,38.1548778 C11.9220412,38.9368 10.655712,38.9382172 9.8737898,38.1580432 C6.13891694,34.4315207 4,29.3826488 4,24 C4,12.954305 12.954305,4 24,4 C35.045695,4 44,12.954305 44,24 Z M38,24 C38,27.7540381 36.5129573,31.2777802 33.9152187,33.8837463 C33.1354059,34.6660288 31.8690776,34.668031 31.0867951,33.8882183 C30.3045126,33.1084056 30.3025104,31.8420772 31.0823231,31.0597947 C32.9400508,29.1961833 34,26.684495 34,24 C34,18.4771525 29.5228475,14 24,14 C18.4771525,14 14,18.4771525 14,24 C14,26.6920326 15.065959,29.2102028 16.9329622,31.0750955 C17.7144523,31.8557023 17.7151684,33.122032 16.9345616,33.9035222 C16.1539548,34.6850123 14.8876251,34.6857284 14.106135,33.9051216 C11.4954569,31.2973946 10,27.7645994 10,24 C10,16.2680135 16.2680135,10 24,10 C31.7319865,10 38,16.2680135 38,24 Z M32,24 C32,26.148915 31.1461142,28.167662 29.656725,29.6569835 C28.8756587,30.4380143 27.6093287,30.4379855 26.8282979,29.6569192 C26.0472671,28.8758528 26.0472959,27.6095229 26.8283622,26.8284921 C27.5750034,26.0818848 28,25.0771127 28,24 C28,21.790861 26.209139,20 24,20 C21.790861,20 20,21.790861 20,24 C20,25.0882945 20.4339726,26.1026973 21.1944679,26.8511401 C21.98173,27.6259253 21.9918444,28.8922149 21.2170592,29.679477 C20.4422739,30.466739 19.1759843,30.4768535 18.3887223,29.7020682 C16.8718377,28.2092237 16,26.1713195 16,24 C16,19.581722 19.581722,16 24,16 C28.418278,16 32,19.581722 32,24 Z M24,26 C22.8954305,26 22,25.1045695 22,24 C22,22.8954305 22.8954305,22 24,22 C25.1045695,22 26,22.8954305 26,24 C26,25.1045695 25.1045695,26 24,26 Z" id="Combined-Shape" fill="#000000" fill-rule="nonzero"></path>
    </g>
</svg>