<?xml version="1.0" encoding="UTF-8"?>
<svg width="48px" height="48px" viewBox="0 0 48 48" version="1.1" xmlns="http://www.w3.org/2000/svg" xmlns:xlink="http://www.w3.org/1999/xlink">
    <!-- Generator: Sketch 43.2 (39069) - http://www.bohemiancoding.com/sketch -->
    <title>theicons.co/svg/phone-17</title>
    <desc>Created with Sketch.</desc>
    <defs></defs>
    <g id="The-Icons" stroke="none" stroke-width="1" fill="none" fill-rule="evenodd">
        <path d="M26,24 C26,19.0294373 30.0294373,15 35,15 C39.9705627,15 44,19.0294373 44,24 C44,28.9705627 39.9705627,33 35,33 L13,33 C8.02943725,33 4,28.9705627 4,24 C4,19.0294373 8.02943725,15 13,15 C17.9705627,15 22,19.0294373 22,24 C22,25.8501466 21.4417283,27.569902 20.484451,29 L27.515549,29 C26.5582717,27.569902 26,25.8501466 26,24 Z M35,29 C37.7614237,29 40,26.7614237 40,24 C40,21.2385763 37.7614237,19 35,19 C32.2385763,19 30,21.2385763 30,24 C30,26.7614237 32.2385763,29 35,29 Z M13,29 C15.7614237,29 18,26.7614237 18,24 C18,21.2385763 15.7614237,19 13,19 C10.2385763,19 8,21.2385763 8,24 C8,26.7614237 10.2385763,29 13,29 Z M2,9 C2,7.8954305 2.89885511,7 4.00492334,7 L43.9950767,7 C45.1023652,7 46,7.88772964 46,9 C46,10.1045695 45.1011449,11 43.9950767,11 L4.00492334,11 C2.89763476,11 2,10.1122704 2,9 Z M2,39 C2,37.8954305 2.89885511,37 4.00492334,37 L43.9950767,37 C45.1023652,37 46,37.8877296 46,39 C46,40.1045695 45.1011449,41 43.9950767,41 L4.00492334,41 C2.89763476,41 2,40.1122704 2,39 Z" id="Combined-Shape" fill="#000000"></path>
    </g>
</svg>