<?xml version="1.0" encoding="UTF-8"?>
<svg width="48px" height="48px" viewBox="0 0 48 48" version="1.1" xmlns="http://www.w3.org/2000/svg" xmlns:xlink="http://www.w3.org/1999/xlink">
    <!-- Generator: Sketch 43.2 (39069) - http://www.bohemiancoding.com/sketch -->
    <title>theicons.co/svg/phone-01</title>
    <desc>Created with Sketch.</desc>
    <defs></defs>
    <g id="The-Icons" stroke="none" stroke-width="1" fill="none" fill-rule="evenodd">
        <path d="M24,14 C24,15.4571486 23.6104229,16.8233065 22.9297424,18 L32.0075946,18 C34.2120698,18 36,16.2102687 36,14 C36,11.7952025 34.2078928,10 32.0075946,10 L22.9297424,10 C23.6104229,11.1766935 24,12.5428514 24,14 Z M40.0100021,34 C40.0100021,38.418278 36.4282801,42 32.0100021,42 L15.9924054,42 C11.5783218,42 8,38.4092877 8,34 C8,29.581722 11.5776607,26 15.9924054,26 L32.0075946,26 C32.0421256,26 32.0766054,26.0002197 32.1110328,26.0006579 C36.4827566,26.0547339 40.0100021,29.6154508 40.0100021,34 Z M15.9924054,30 C13.7879302,30 12,31.7897313 12,34 C12,36.2047975 13.7921072,38 15.9924054,38 L25.0802597,38 C24.3995793,36.8233065 24.0100021,35.4571486 24.0100021,34 C24.0100021,32.5428514 24.3995793,31.1766935 25.0802597,30 L15.9924054,30 Z M8,14 C8,9.581722 11.5776607,6 15.9924054,6 L32.0075946,6 C36.4216782,6 40,9.59071231 40,14 C40,18.418278 36.4223393,22 32.0075946,22 L15.9924054,22 C11.5783218,22 8,18.4092877 8,14 Z" id="Combined-Shape" fill="#000000" fill-rule="nonzero"></path>
    </g>
</svg>