<?xml version="1.0" encoding="UTF-8"?>
<svg width="48px" height="48px" viewBox="0 0 48 48" version="1.1" xmlns="http://www.w3.org/2000/svg" xmlns:xlink="http://www.w3.org/1999/xlink">
    <!-- Generator: Sketch 43.2 (39069) - http://www.bohemiancoding.com/sketch -->
    <title>theicons.co/svg/phone-04</title>
    <desc>Created with Sketch.</desc>
    <defs></defs>
    <g id="The-Icons" stroke="none" stroke-width="1" fill="none" fill-rule="evenodd">
        <path d="M22,4.03197094 C22,2.89763476 22.8877296,2 24,2 C24.6566059,2 25.2393095,2.31736279 25.6039509,2.8066563 L35.411964,12.5835404 C36.1951324,13.3642232 36.1961401,14.632287 35.4142136,15.4142136 L26.812558,24.0158691 L35.4142136,32.6175247 C36.1961401,33.3994513 36.1951324,34.6675151 35.411964,35.4481978 L25.411964,45.4164596 C24.629675,46.1962657 23.3633466,46.194253 22.5835404,45.411964 C22.1938278,45.0210105 21.999379,44.5091653 22.0000015,43.997571 L22,28.8284271 L15.4142136,35.4142136 C14.633165,36.1952621 13.366835,36.1952621 12.5857864,35.4142136 C11.8047379,34.633165 11.8047379,33.366835 12.5857864,32.5857864 L21.1557037,24.0158691 L12.5857864,15.4459518 C11.8047379,14.6649032 11.8047379,13.3985733 12.5857864,12.6175247 C13.366835,11.8364761 14.633165,11.8364761 15.4142136,12.6175247 L22,19.2033111 L22,4.03197094 Z M31.1742264,34.0343918 L26,28.8601654 L26,39.186296 L31.1742264,34.0343918 Z M26,19.1715729 L31.1742264,13.9973465 L26,8.84544227 L26,19.1715729 Z" id="Combined-Shape" fill="#000000"></path>
    </g>
</svg>