<?xml version="1.0" encoding="UTF-8"?>
<svg width="48px" height="48px" viewBox="0 0 48 48" version="1.1" xmlns="http://www.w3.org/2000/svg" xmlns:xlink="http://www.w3.org/1999/xlink">
    <!-- Generator: Sketch 43.2 (39069) - http://www.bohemiancoding.com/sketch -->
    <title>theicons.co/svg/phone-02</title>
    <desc>Created with Sketch.</desc>
    <defs></defs>
    <g id="The-Icons" stroke="none" stroke-width="1" fill="none" fill-rule="evenodd">
        <path d="M38,34.0039229 L38,22 C38,20.8954305 38.8954305,20 40,20 C41.1045695,20 42,20.8954305 42,22 L42,34.0039229 C42,38.4221581 38.4176869,42 33.9932975,42 L14.0067025,42 C9.58338933,42 6,38.4184793 6,33.9932975 L6,14.0067025 C6,9.58627801 9.58748307,6 14.0053084,6 L25,6 C26.1045695,6 27,6.8954305 27,8 C27,9.1045695 26.1045695,10 25,10 L14.0053084,10 C11.7963213,10 10,11.7957179 10,14.0067025 L10,33.9932975 C10,36.2088731 11.7920614,38 14.0067025,38 L33.9932975,38 C36.2096654,38 38,36.2119 38,34.0039229 Z M38,16 C34.6862915,16 32,13.3137085 32,10 C32,6.6862915 34.6862915,4 38,4 C41.3137085,4 44,6.6862915 44,10 C44,13.3137085 41.3137085,16 38,16 Z" id="Combined-Shape" fill="#000000" fill-rule="nonzero"></path>
    </g>
</svg>