<?xml version="1.0" encoding="UTF-8"?>
<svg width="48px" height="48px" viewBox="0 0 48 48" version="1.1" xmlns="http://www.w3.org/2000/svg" xmlns:xlink="http://www.w3.org/1999/xlink">
    <!-- Generator: Sketch 43.2 (39069) - http://www.bohemiancoding.com/sketch -->
    <title>theicons.co/svg/phone-12</title>
    <desc>Created with Sketch.</desc>
    <defs></defs>
    <g id="The-Icons" stroke="none" stroke-width="1" fill="none" fill-rule="evenodd">
        <path d="M16.8,26 L20.6800596,26 C21.2318782,26 21.5900674,26.4437302 21.4821935,26.9806669 L18.9998235,39.3365301 L25.8536393,26.875047 C26.1194406,26.3917719 26.7779493,26 27.3294587,26 L37.9998243,26 C39.1041818,26 40,25.1042707 40,24 C40,22.8991762 39.101495,22 37.9998243,22 L27.3294587,22 C26.7801875,22 26.1235053,21.6145263 25.8541047,21.1233153 L19.0069174,8.63850909 L21.4827151,21.0174977 C21.5912394,21.5601187 21.2313433,22 20.6879371,22 L10.9377423,22 L9,20.9188232 L9.00236488,27.1059299 L10.9377423,26 L16.8,26 Z M16.8,30 L12,30 L8.47949229,32.0117187 C6.55782176,33.1098161 5,32.2075324 5,30.00077 L5,17.99923 C5,15.7905162 6.55352688,14.8877296 8.47949229,15.9882813 L12,18 L16.8,18 L14.3908198,5.95409924 C14.174976,4.87488003 14.8865548,4 16.0059191,4 L18.9940809,4 C20.1019194,4 21.431213,4.7840237 21.9665359,5.75733794 L28.7,18 L37.9998243,18 C41.3136299,18 44,20.6930342 44,24 C44,27.3137085 41.3130221,30 37.9998243,30 L28.7,30 L21.9665359,42.2426621 C21.431213,43.2159763 20.1019194,44 18.9940809,44 L16.0059191,44 C14.8865548,44 14.174976,43.12512 14.3908198,42.0459008 L16.8,30 Z" id="Combined-Shape" fill="#000000" fill-rule="nonzero"></path>
    </g>
</svg>