<?xml version="1.0" encoding="UTF-8"?>
<svg width="48px" height="48px" viewBox="0 0 48 48" version="1.1" xmlns="http://www.w3.org/2000/svg" xmlns:xlink="http://www.w3.org/1999/xlink">
    <!-- Generator: Sketch 43.2 (39069) - http://www.bohemiancoding.com/sketch -->
    <title>theicons.co/svg/photo-08</title>
    <desc>Created with Sketch.</desc>
    <defs></defs>
    <g id="The-Icons" stroke="none" stroke-width="1" fill="none" fill-rule="evenodd">
        <path d="M26.2171624,5.58806328 L40.3523025,19.7232034 C41.1352828,20.5061837 41.1412108,21.7697177 40.3545675,22.556361 L20.5580431,42.3528854 C19.7763137,43.1346148 18.5083035,43.1340384 17.7248855,42.3506204 L3.5897454,28.2154803 C2.80676505,27.4324999 2.80083706,26.168966 3.58748034,25.3823227 L23.3840048,5.58579823 C24.1657342,4.80406884 25.4337444,4.80464528 26.2171624,5.58806328 Z M7.82888832,26.797769 L19.1429668,38.1118474 L36.1179933,21.1457484 L24.7994511,9.8272062 L7.82888832,26.797769 Z M16.6049625,21.9670225 L30.5496532,21.9670225 C31.6563134,21.9670225 31.9068196,22.5989678 31.1212425,23.3785119 L19.8451335,34.5680242 C19.4518791,34.9582586 18.8172745,34.9577284 18.4270428,34.5674966 L11.3821916,27.5226451 C10.9968503,27.1373037 10.9959095,26.5003872 11.3910133,26.1109751 L14.8801367,22.6721153 C15.2727257,22.2851819 16.0474713,21.9670225 16.6049625,21.9670225 Z M40.9710239,37.9587434 C38.7618849,37.9587434 36.9710239,36.1678824 36.9710239,33.9587434 C36.9710239,31.7496044 40.0230798,26.3837221 40.0230798,26.3837221 C40.5429539,25.4063382 41.395433,25.4126332 41.9189681,26.3837221 C41.9189681,26.3837221 44.9710239,31.7496044 44.9710239,33.9587434 C44.9710239,36.1678824 43.1801629,37.9587434 40.9710239,37.9587434 Z" id="Combined-Shape" fill="#000000" fill-rule="nonzero"></path>
    </g>
</svg>