<?xml version="1.0" encoding="UTF-8"?>
<svg width="48px" height="48px" viewBox="0 0 48 48" version="1.1" xmlns="http://www.w3.org/2000/svg" xmlns:xlink="http://www.w3.org/1999/xlink">
    <!-- Generator: Sketch 43.2 (39069) - http://www.bohemiancoding.com/sketch -->
    <title>theicons.co/svg/photo-18</title>
    <desc>Created with Sketch.</desc>
    <defs></defs>
    <g id="The-Icons" stroke="none" stroke-width="1" fill="none" fill-rule="evenodd">
        <path d="M16,18 C16,10.2680135 22.2680135,4 30,4 C37.7319865,4 44,10.2680135 44,18 C44,25.7319865 37.7319865,32 30,32 L30,40.0031611 C30,42.2105543 28.2058797,44 26.0031611,44 L7.99683887,44 C5.78944571,44 4,42.2058797 4,40.0031611 L4,21.9968389 C4,19.7894457 5.79412025,18 7.99683887,18 L16,18 Z M20,18 L26.0031611,18 C28.2105543,18 30,19.7941203 30,21.9968389 L30,28 C35.5228475,28 40,23.5228475 40,18 C40,12.4771525 35.5228475,8 30,8 C24.4771525,8 20,12.4771525 20,18 Z M8,40.0001128 C7.99997127,40.0000658 26,40 26,40 C26.0000658,40.0000287 26,21.9998872 26,21.9998872 C26.0000287,21.9999342 7.99988721,22 7.99988721,22 C7.99993423,21.9999713 8,40.0001128 8,40.0001128 Z" id="Combined-Shape" fill="#000000"></path>
    </g>
</svg>