<?xml version="1.0" encoding="UTF-8"?>
<svg width="48px" height="48px" viewBox="0 0 48 48" version="1.1" xmlns="http://www.w3.org/2000/svg" xmlns:xlink="http://www.w3.org/1999/xlink">
    <!-- Generator: Sketch 43.2 (39069) - http://www.bohemiancoding.com/sketch -->
    <title>theicons.co/svg/photo-04</title>
    <desc>Created with Sketch.</desc>
    <defs></defs>
    <g id="The-Icons" stroke="none" stroke-width="1" fill="none" fill-rule="evenodd">
        <path d="M42,24 C42,33.9411255 33.9411255,42 24,42 C14.0588745,42 6,33.9411255 6,24 C6,14.0588745 14.0588745,6 24,6 C33.9411255,6 42,14.0588745 42,24 Z M10,24 C10,31.7319865 16.2680135,38 24,38 C31.7319865,38 38,31.7319865 38,24 C38,16.2680135 31.7319865,10 24,10 C16.2680135,10 10,16.2680135 10,24 Z M32.0908618,17.1595755 C32.0908618,17.1595755 29.8930023,23.8284271 27.0189136,26.7025158 C25.4568165,28.264613 22.9241566,28.264613 21.3620594,26.7025158 C19.7999622,25.1404186 19.7999622,22.6077587 21.3620594,21.0456616 C24.2361481,18.1715729 30.8826969,15.982205 30.8826969,15.982205 C31.928954,15.5932182 32.4643329,16.1311708 32.0908618,17.1595755 Z" id="Oval-119" fill="#000000"></path>
    </g>
</svg>