<?xml version="1.0" encoding="UTF-8"?>
<svg width="48px" height="48px" viewBox="0 0 48 48" version="1.1" xmlns="http://www.w3.org/2000/svg" xmlns:xlink="http://www.w3.org/1999/xlink">
    <!-- Generator: Sketch 43.2 (39069) - http://www.bohemiancoding.com/sketch -->
    <title>theicons.co/svg/photo-14</title>
    <desc>Created with Sketch.</desc>
    <defs></defs>
    <g id="The-Icons" stroke="none" stroke-width="1" fill="none" fill-rule="evenodd">
        <path d="M30.8297134,15.0462322 L13.3618154,18.1684176 C13.0247106,18.6899737 12.5695391,19.1280765 12.0341174,19.4449095 L12.0036024,28.5372152 C12.5531793,28.8558928 13.0199008,29.3016509 13.3635572,29.8342795 C13.7264018,29.8980359 30.8293802,32.954331 30.8293802,32.954331 C31.5407338,31.7492717 32.6613485,30.8145568 34,30.3414114 L34,17.6585886 C32.6615571,17.1855169 31.5410831,16.2510196 30.8297134,15.0462322 Z M38,30.3414114 C40.3303847,31.1650842 42,33.3875623 42,36 C42,39.3137085 39.3137085,42 36,42 C32.9855679,42 30.4903407,39.7770201 30.0642174,36.8809596 L13.5088948,33.9218865 C12.8290762,35.1604345 11.5125836,36 10,36 C7.790861,36 6,34.209139 6,32 C6,30.5194353 6.80439726,29.2267476 8,28.5351288 L8,19.4648712 C6.80439726,18.7732524 6,17.4805647 6,16 C6,13.790861 7.790861,12 10,12 C11.5128145,12 12.8294781,12.8398218 13.5092061,14.0786807 L30.0641233,11.1196801 C30.4899733,8.22330723 32.985346,6 36,6 C39.3137085,6 42,8.6862915 42,12 C42,14.6124377 40.3303847,16.8349158 38,17.6585886 L38,30.3414114 Z M36,38 C37.1045695,38 38,37.1045695 38,36 C38,34.8954305 37.1045695,34 36,34 C34.8954305,34 34,34.8954305 34,36 C34,37.1045695 34.8954305,38 36,38 Z M36,14 C37.1045695,14 38,13.1045695 38,12 C38,10.8954305 37.1045695,10 36,10 C34.8954305,10 34,10.8954305 34,12 C34,13.1045695 34.8954305,14 36,14 Z" id="Path-Copy-9" fill="#000000"></path>
    </g>
</svg>