<?xml version="1.0" encoding="UTF-8"?>
<svg width="48px" height="48px" viewBox="0 0 48 48" version="1.1" xmlns="http://www.w3.org/2000/svg" xmlns:xlink="http://www.w3.org/1999/xlink">
    <!-- Generator: Sketch 43.2 (39069) - http://www.bohemiancoding.com/sketch -->
    <title>theicons.co/svg/photo-17</title>
    <desc>Created with Sketch.</desc>
    <defs></defs>
    <g id="The-Icons" stroke="none" stroke-width="1" fill="none" fill-rule="evenodd">
        <path d="M42.9026739,23.9020695 C42.9026739,25.006639 42.0152406,25.9020695 40.9030589,25.9020695 L34.9022889,25.9020695 C33.797932,25.9020695 32.9026739,25.0143398 32.9026739,23.9020695 C32.9026739,22.7975 33.7901072,21.9020695 34.9022889,21.9020695 L40.9030589,21.9020695 C42.0074158,21.9020695 42.9026739,22.7897991 42.9026739,23.9020695 Z M28.9026739,23.9020695 C28.9026739,25.006639 28.0152406,25.9020695 26.9030589,25.9020695 L20.9022889,25.9020695 C19.797932,25.9020695 18.9026739,25.0143398 18.9026739,23.9020695 C18.9026739,22.7975 19.7901072,21.9020695 20.9022889,21.9020695 L26.9030589,21.9020695 C28.0074158,21.9020695 28.9026739,22.7897991 28.9026739,23.9020695 Z M14.9026739,23.9020695 C14.9026739,25.006639 14.0152406,25.9020695 12.9030589,25.9020695 L6.90228889,25.9020695 C5.79793203,25.9020695 4.90267391,25.0143398 4.90267391,23.9020695 C4.90267391,22.7975 5.7901072,21.9020695 6.90228889,21.9020695 L12.9030589,21.9020695 C14.0074158,21.9020695 14.9026739,22.7897991 14.9026739,23.9020695 Z M12.1998256,9.6494335 L10.6816026,18.2497554 C10.4895809,19.3375061 9.4521205,20.0636379 8.36436986,19.8716163 C7.27661921,19.6795946 6.5504874,18.6421342 6.74250905,17.5543835 L8.2606633,8.95445119 C8.83600874,5.69150502 11.9474094,3.51635479 15.2148411,4.09249114 L38.8418411,8.25856872 C42.105159,8.83397971 44.2875967,11.9512961 43.7122573,15.2141812 L43.1695806,18.2536024 C42.9754343,19.3409758 41.9365573,20.0650795 40.8491839,19.8709333 C39.7618105,19.676787 39.0377068,18.63791 39.231853,17.5505366 L39.773778,14.5153519 C39.9647749,13.4321551 39.2348635,12.3895756 38.1472484,12.1977997 L14.5202484,8.03172215 C13.4270722,7.83896571 12.3913934,8.56299883 12.1998256,9.6494335 Z M35.6062073,38.1508219 L37.1168563,29.5558568 C37.3080643,28.4679628 38.3449813,27.7410552 39.4328753,27.9322632 C40.5207693,28.1234712 41.2476769,29.1603882 41.0564689,30.2482822 L39.5456291,38.844331 C38.9698675,42.109637 35.8585377,44.2878899 32.5905067,43.7116478 L8.96350669,39.5455703 C5.70017862,38.9701575 3.51769183,35.853179 4.09160883,32.5983555 L4.62155096,29.5585786 C4.81125576,28.4704215 5.84716751,27.742082 6.9353246,27.9317868 C8.0234817,28.1214916 8.75182119,29.1574033 8.56211639,30.2455604 L8.03150705,33.2891428 C7.84053279,34.3722116 8.57036563,35.4145424 9.6580994,35.6063392 L33.2850994,39.7724168 C34.3776763,39.9650676 35.4142712,39.2393439 35.6062073,38.1508219 Z" id="Combined-Shape" fill="#000000"></path>
    </g>
</svg>