<?xml version="1.0" encoding="UTF-8"?>
<svg width="48px" height="48px" viewBox="0 0 48 48" version="1.1" xmlns="http://www.w3.org/2000/svg" xmlns:xlink="http://www.w3.org/1999/xlink">
    <!-- Generator: Sketch 43.2 (39069) - http://www.bohemiancoding.com/sketch -->
    <title>theicons.co/svg/photo-13</title>
    <desc>Created with Sketch.</desc>
    <defs></defs>
    <g id="The-Icons" stroke="none" stroke-width="1" fill="none" fill-rule="evenodd">
        <path d="M22,6.99961498 C22,5.89525812 22.8877296,5 24,5 C25.1045695,5 26,5.88743329 26,6.99961498 L26,13.000385 C26,14.1047419 25.1122704,15 24,15 C22.8954305,15 22,14.1125667 22,13.000385 L22,6.99961498 Z M22,20.999615 C22,19.8952581 22.8877296,19 24,19 C25.1045695,19 26,19.8874333 26,20.999615 L26,27.000385 C26,28.1047419 25.1122704,29 24,29 C22.8954305,29 22,28.1125667 22,27.000385 L22,20.999615 Z M22,34.999615 C22,33.8952581 22.8877296,33 24,33 C25.1045695,33 26,33.8874333 26,34.999615 L26,41.000385 C26,42.1047419 25.1122704,43 24,43 C22.8954305,43 22,42.1125667 22,41.000385 L22,34.999615 Z M33.4547978,26.0152987 C31.5467657,24.90228 31.5442237,23.0992028 33.4547978,21.9847013 L38.5452022,19.0152987 C40.4532343,17.90228 42,18.7873299 42,20.9931023 L42,27.0068977 C42,29.2122272 40.4557763,30.0992028 38.5452022,28.9847013 L33.4547978,26.0152987 Z M14.5452022,26.0152987 L9.4547978,28.9847013 C7.54422373,30.0992028 6,29.2122272 6,27.0068977 L6,20.9931023 C6,18.7873299 7.54676566,17.90228 9.4547978,19.0152987 L14.5452022,21.9847013 C16.4557763,23.0992028 16.4532343,24.90228 14.5452022,26.0152987 Z" id="Combined-Shape" fill="#000000" transform="translate(24.000000, 24.000000) rotate(-270.000000) translate(-24.000000, -24.000000) "></path>
    </g>
</svg>