<?xml version="1.0" encoding="UTF-8"?>
<svg width="48px" height="48px" viewBox="0 0 48 48" version="1.1" xmlns="http://www.w3.org/2000/svg" xmlns:xlink="http://www.w3.org/1999/xlink">
    <!-- Generator: Sketch 43.2 (39069) - http://www.bohemiancoding.com/sketch -->
    <title>theicons.co/svg/photo-05</title>
    <desc>Created with Sketch.</desc>
    <defs></defs>
    <g id="The-Icons" stroke="none" stroke-width="1" fill="none" fill-rule="evenodd">
        <path d="M22,27.3352423 C22,27.8909342 21.601841,28.5602983 21.1418996,28.8528916 C21.1418996,28.8528916 18,30.260498 18,34 C18,37.3137085 20.6862915,40 24,40 C27.3137085,40 30,37.3137085 30,34 C30,30.2869873 26.8482971,28.851169 26.8482971,28.851169 C26.3797956,28.5696377 26,27.8929409 26,27.3352423 L26,20 L22,20 L22,27.3352423 Z M14,34 C14,39.5228475 18.4771525,44 24,44 C29.5228475,44 34,39.5228475 34,34 C34,30.7283643 32.4288934,27.8236803 30,25.9992676 L30,9.99548069 C30,6.68333093 27.3137085,4 24,4 C20.6930342,4 18,6.68426814 18,9.99548069 L18,25.9992676 C15.5711066,27.8236803 14,30.7283643 14,34 Z" id="Rectangle" fill="#000000"></path>
    </g>
</svg>