<?xml version="1.0" encoding="UTF-8"?>
<svg width="48px" height="48px" viewBox="0 0 48 48" version="1.1" xmlns="http://www.w3.org/2000/svg" xmlns:xlink="http://www.w3.org/1999/xlink">
    <!-- Generator: Sketch 43.2 (39069) - http://www.bohemiancoding.com/sketch -->
    <title>theicons.co/svg/photo-16</title>
    <desc>Created with Sketch.</desc>
    <defs></defs>
    <g id="The-Icons" stroke="none" stroke-width="1" fill="none" fill-rule="evenodd">
        <path d="M30.8297134,15.0462322 C28.4550194,15.4706814 13.778064,18.094018 13.3618154,18.1684176 C13.0247106,18.6899737 12.5695391,19.1280765 12.0341174,19.4449095 L12.0036024,28.5372152 C12.5531793,28.8558928 13.0199008,29.3016509 13.3635572,29.8342795 C13.7264018,29.8980359 29.3697844,32.6934451 30.8293802,32.954331 C31.5407338,31.7492717 32.6613485,30.8145568 34,30.3414114 L34,17.6585886 C32.6615571,17.1855169 31.5410831,16.2510196 30.8297134,15.0462322 Z M42,12 C42,8.6862915 39.3137085,6 36,6 C32.985346,6 30.4899733,8.22330723 30.0641233,11.1196801 C24.9449868,12.0346667 17.7589321,13.3190912 13.5092061,14.0786807 C12.8294781,12.8398218 11.5128145,12 10,12 C7.790861,12 6,13.790861 6,16 C6,17.4805647 6.80439726,18.7732524 8,19.4648712 L8,28.5351288 C6.80439726,29.2267476 6,30.5194353 6,32 C6,34.209139 7.790861,36 10,36 C11.5125836,36 12.8290762,35.1604345 13.5088948,33.9218865 C17.7551897,34.6808628 24.9369253,35.9645152 30.0642174,36.8809596 C30.4903407,39.7770201 32.9855679,42 36,42 C39.3137085,42 42,39.3137085 42,36 C42,33.3875623 40.3303847,31.1650842 38,30.3414114 L38,17.6585886 C40.3303847,16.8349158 42,14.6124377 42,12 Z M38,36 C38,34.8954305 37.1045695,34 36,34 C34.8954305,34 34,34.8954305 34,36 C34,37.1045695 34.8954305,38 36,38 C37.1045695,38 38,37.1045695 38,36 Z M38,12 C38,10.8954305 37.1045695,10 36,10 C34.8954305,10 34,10.8954305 34,12 C34,13.1045695 34.8954305,14 36,14 C37.1045695,14 38,13.1045695 38,12 Z" id="Path-Copy-9" fill="#000000" transform="translate(24.000000, 24.000000) rotate(-270.000000) translate(-24.000000, -24.000000) "></path>
    </g>
</svg>