<?xml version="1.0" encoding="UTF-8"?>
<svg width="48px" height="48px" viewBox="0 0 48 48" version="1.1" xmlns="http://www.w3.org/2000/svg" xmlns:xlink="http://www.w3.org/1999/xlink">
    <!-- Generator: Sketch 43.2 (39069) - http://www.bohemiancoding.com/sketch -->
    <title>theicons.co/svg/photo-11</title>
    <desc>Created with Sketch.</desc>
    <defs></defs>
    <g id="The-Icons" stroke="none" stroke-width="1" fill="none" fill-rule="evenodd">
        <path d="M22.995864,15.6690969 C17.4730396,15.6690969 13,20.1451807 13,25.6704158 L13,33.6697456 C13,34.7817806 12.1045695,35.6690969 11,35.6690969 C9.88772964,35.6690969 9,34.7739568 9,33.6697456 L9,25.6704158 C9,17.9366507 15.2632912,11.6690969 22.995864,11.6690969 L32.3284271,11.6690969 L30.0770996,9.41776931 C29.2927197,8.63338947 29.2845739,7.36980433 30.0710678,6.58331042 C30.8521164,5.80226184 32.1230566,5.80687207 32.9055267,6.58934218 L38.5503174,12.2341329 C38.94587,12.6296855 39.1399842,13.1410506 39.1396592,13.6529052 C39.1431855,14.1654485 38.9485894,14.6763516 38.5563492,15.0685918 C38.5523277,15.0726112 32.9055267,20.7194143 32.9055267,20.7194143 C32.1211469,21.5037941 30.8575617,21.51194 30.0710678,20.725446 C29.2900192,19.9443975 29.2946295,18.6734573 30.0770996,17.8909872 L32.2989899,15.6690969 L22.995864,15.6690969 Z M21,25.6641861 C21,24.5623288 21.8926228,23.6690969 22.9950893,23.6690969 L37.0049107,23.6690969 C38.1067681,23.6690969 39,24.5617197 39,25.6641861 L39,39.6740076 C39,40.775865 38.1073772,41.6690969 37.0049107,41.6690969 L22.9950893,41.6690969 C21.8932319,41.6690969 21,40.7764741 21,39.6740076 L21,25.6641861 Z M25,27.6690969 L25,37.6690969 L35,37.6690969 L35,27.6690969 L25,27.6690969 Z" id="Combined-Shape" fill="#000000"></path>
    </g>
</svg>