<?xml version="1.0" encoding="UTF-8"?>
<svg width="48px" height="48px" viewBox="0 0 48 48" version="1.1" xmlns="http://www.w3.org/2000/svg" xmlns:xlink="http://www.w3.org/1999/xlink">
    <!-- Generator: Sketch 43.2 (39069) - http://www.bohemiancoding.com/sketch -->
    <title>theicons.co/svg/photo-09</title>
    <desc>Created with Sketch.</desc>
    <defs></defs>
    <g id="The-Icons" stroke="none" stroke-width="1" fill="none" fill-rule="evenodd">
        <path d="M25.3841736,18.0729398 L29.6273588,22.316125 C30.408257,23.0970232 30.4049765,24.3663899 29.6332778,25.1380886 L12.6503326,42.1210338 C11.8727033,42.8986631 10.6148002,42.9015461 9.82836894,42.1151149 L5.58518375,37.8719297 C4.80428553,37.0910314 4.80756608,35.8216647 5.57926479,35.049966 L22.56221,18.0670208 C23.3398392,17.2893916 24.5977424,17.2865086 25.3841736,18.0729398 Z M34.4641357,16.9489765 L31.5395848,18.4865039 C30.557771,19.0026739 29.9141966,18.5328849 30.1013701,17.4415797 L30.6599096,14.1850445 L28.2938983,11.8787535 C27.4995942,11.1044983 27.7475147,10.3472499 28.8432474,10.1880306 L32.1129946,9.71290853 L33.5752701,6.75001494 C34.066177,5.75532888 34.8629747,5.75711264 35.3530013,6.75001494 L36.8152767,9.71290853 L40.0850239,10.1880306 C41.1827251,10.3475359 41.4272527,11.1058868 40.634373,11.8787535 L38.2683617,14.1850445 L38.8269012,17.4415797 C39.014411,18.5348454 38.3687396,19.0017483 37.3886865,18.4865039 L34.4641357,16.9489765 Z M36.7214468,32.2407726 L35.2489561,33.0149067 C34.2677083,33.5307792 33.6224656,33.0731514 33.8115705,31.970585 L34.0927912,30.3309425 L32.9015212,29.1697413 C32.1076751,28.3959325 32.3435141,27.6408555 33.4505537,27.4799932 L35.0968483,27.2407726 L35.8330936,25.7489766 C36.3237175,24.754864 37.1147168,24.7458285 37.6097999,25.7489766 L38.3460453,27.2407726 L39.9923399,27.4799932 C41.0894083,27.6394066 41.3424337,28.3888994 40.5413723,29.1697413 L39.3501023,30.3309425 L39.631323,31.970585 C39.8187247,33.0632205 39.1841038,33.535468 38.1939375,33.0149067 L36.7214468,32.2407726 Z M16.7214468,13.2407726 L15.2489561,14.0149067 C14.2677083,14.5307792 13.6224656,14.0731514 13.8115705,12.970585 L14.0927912,11.3309425 L12.9015212,10.1697413 C12.1076751,9.39593254 12.3435141,8.64085546 13.4505537,8.47999319 L15.0968483,8.24077258 L15.8330936,6.74897657 C16.3237175,5.75486399 17.1147168,5.74582852 17.6097999,6.74897657 L18.3460453,8.24077258 L19.9923399,8.47999319 C21.0894083,8.63940656 21.3424337,9.38889941 20.5413723,10.1697413 L19.3501023,11.3309425 L19.631323,12.970585 C19.8187247,14.0632205 19.1841038,14.535468 18.1939375,14.0149067 L16.7214468,13.2407726 Z M20.3404788,25.9572163 L9.83031737,36.468625 L11.2337183,37.8803629 L21.7470378,27.3638341 L20.3404788,25.9572163 Z" id="Combined-Shape" fill="#000000" fill-rule="nonzero"></path>
    </g>
</svg>