<?xml version="1.0" encoding="UTF-8"?>
<svg width="48px" height="48px" viewBox="0 0 48 48" version="1.1" xmlns="http://www.w3.org/2000/svg" xmlns:xlink="http://www.w3.org/1999/xlink">
    <!-- Generator: Sketch 43.2 (39069) - http://www.bohemiancoding.com/sketch -->
    <title>theicons.co/svg/photo-03</title>
    <desc>Created with Sketch.</desc>
    <defs></defs>
    <g id="The-Icons" stroke="none" stroke-width="1" fill="none" fill-rule="evenodd">
        <path d="M31.007983,28 C32.0998238,28 33,28.8954305 33,30 C33,31.1122704 32.1081436,32 31.007983,32 L26,32 L26,34 C26,35.1045695 25.1052949,36 24,36 C17.372583,36 12,30.627417 12,24 C12,17.372583 17.372583,12 24,12 C25.1071382,12 26,12.8947051 26,13.9942627 L26,15.9999997 L31.007983,16 C32.0998238,16 33,16.8954305 33,18 C33,19.1122704 32.1081436,20 31.007983,20 L26,20 L26,21.9999995 L33.9941413,22 C35.1029399,22 36,22.8954305 36,24 C36,25.1122704 35.1019465,26 33.9941413,26 L26,26 L26,28 L31.007983,28 Z M42,24 C42,33.9411255 33.9411255,42 24,42 C14.0588745,42 6,33.9411255 6,24 C6,14.0588745 14.0588745,6 24,6 C33.9411255,6 42,14.0588745 42,24 Z M10,24 C10,31.7319865 16.2680135,38 24,38 C31.7319865,38 38,31.7319865 38,24 C38,16.2680135 31.7319865,10 24,10 C16.2680135,10 10,16.2680135 10,24 Z" id="Combined-Shape" fill="#000000"></path>
    </g>
</svg>