<?xml version="1.0" encoding="UTF-8"?>
<svg width="48px" height="48px" viewBox="0 0 48 48" version="1.1" xmlns="http://www.w3.org/2000/svg" xmlns:xlink="http://www.w3.org/1999/xlink">
    <!-- Generator: Sketch 43.2 (39069) - http://www.bohemiancoding.com/sketch -->
    <title>theicons.co/svg/photo-10</title>
    <desc>Created with Sketch.</desc>
    <defs></defs>
    <g id="The-Icons" stroke="none" stroke-width="1" fill="none" fill-rule="evenodd">
        <path d="M30,30 L30,18 L7.99124431,18 C6.89151044,18 6,17.1122704 6,16 C6,14.8954305 6.89989752,14 7.99124431,14 L14,14 L14,8.0085302 C14,6.8992496 14.8877296,6 16,6 C17.1045695,6 18,6.90195036 18,8.0085302 L18,14 L32.0087557,14 C32.5571076,14 33.0536901,14.2207111 33.4137964,14.5799181 C33.7773238,14.9494354 34,15.4459472 34,15.9907951 L34,30 L40.0087557,30 C41.1084896,30 42,30.8877296 42,32 C42,33.1045695 41.1001025,34 40.0087557,34 L15.9912443,34 C14.8966333,33.9952582 14.0096433,33.1096548 14.0000781,32.0120707 C14.0000261,32.0080501 14,21.0068455 14,21.0068455 C14,20.4507801 14.4433532,20 15.0093689,20 L16.9906311,20 C17.5480902,20 18,20.4499488 18,21.0068455 L18,30 L30,30 Z M30,36.990778 C30,36.4435864 30.4433532,36 31.0093689,36 L32.9906311,36 C33.5480902,36 34,36.4509752 34,36.990778 L34,40.0020869 C34,41.1055038 33.1122704,42 32,42 C30.8954305,42 30,41.1017394 30,40.0020869 L30,36.990778 Z" id="Rectangle-732" fill="#000000"></path>
    </g>
</svg>