<?xml version="1.0" encoding="UTF-8"?>
<svg width="48px" height="48px" viewBox="0 0 48 48" version="1.1" xmlns="http://www.w3.org/2000/svg" xmlns:xlink="http://www.w3.org/1999/xlink">
    <!-- Generator: Sketch 43.2 (39069) - http://www.bohemiancoding.com/sketch -->
    <title>theicons.co/svg/photo-02</title>
    <desc>Created with Sketch.</desc>
    <defs></defs>
    <g id="The-Icons" stroke="none" stroke-width="1" fill="none" fill-rule="evenodd">
        <path d="M22,20 L16.9973917,20 C15.8942627,20 15,19.1122704 15,18 C15,16.8954305 15.8958578,16 16.9973917,16 L22,16 C22,15.4330722 22,14.7899079 22,14 C22,12.8947051 22.8928618,12 23.9942627,12 C30.627417,12 36,17.372583 36,24 C36,30.627417 30.627417,36 24,36 C22.8947051,36 22,35.1045695 22,34 C22,33.1140994 22,32 22,32 L16.9973917,32 C15.8942627,32 15,31.1122704 15,30 C15,28.8954305 15.8958578,28 16.9973917,28 L22,28 C22,27.9655546 22,27.1266357 22,25.9999999 L14.0085302,26 C12.8992496,26 12,25.1122704 12,24 C12,22.8954305 12.9019504,22 14.0085302,22 L22,22 C22,21.2174108 22,20.5675617 22,20 Z M42,24 C42,14.0588745 33.9411255,6 24,6 C14.0588745,6 6,14.0588745 6,24 C6,33.9411255 14.0588745,42 24,42 C33.9411255,42 42,33.9411255 42,24 Z M10,24 C10,16.2680135 16.2680135,10 24,10 C31.7319865,10 38,16.2680135 38,24 C38,31.7319865 31.7319865,38 24,38 C16.2680135,38 10,31.7319865 10,24 Z M32,24 C32,27.726929 29.45148,30.8586193 26.0020821,31.7474288 C26.0020821,30.5761723 26.0518079,17.4113769 26.051808,16.2655558 C29.4759446,17.1715297 32,20.2910025 32,24 Z" id="Combined-Shape" fill="#000000"></path>
    </g>
</svg>