<?xml version="1.0" encoding="UTF-8"?>
<svg width="48px" height="48px" viewBox="0 0 48 48" version="1.1" xmlns="http://www.w3.org/2000/svg" xmlns:xlink="http://www.w3.org/1999/xlink">
    <!-- Generator: Sketch 43.2 (39069) - http://www.bohemiancoding.com/sketch -->
    <title>theicons.co/svg/photo-19</title>
    <desc>Created with Sketch.</desc>
    <defs></defs>
    <g id="The-Icons" stroke="none" stroke-width="1" fill="none" fill-rule="evenodd">
        <path d="M24.930022,40 L42.9926701,40 C44.1012878,40 45,40.8877296 45,42 C45,43.1045695 44.1016617,44 42.9926701,44 L16.3746301,44 C15.8264255,44 15.0658026,43.6839764 14.6760282,43.2944382 L2.5897454,31.2154803 C1.80676505,30.4324999 1.80083706,29.168966 2.58748034,28.3823227 L26.3840048,4.58579823 C27.1657342,3.80406884 28.4337444,3.80464528 29.2171624,4.58806328 L43.3523025,18.7232034 C44.1352828,19.5061837 44.1412108,20.7697177 43.3545675,21.556361 L24.930022,40 Z M21.7994511,14.8272062 L6.82931606,29.7973412 L17.0381619,40 L19.2760952,40 L33.1138913,26.1416464 L21.7994511,14.8272062 Z" id="Combined-Shape" fill="#000000" fill-rule="nonzero"></path>
    </g>
</svg>