<?xml version="1.0" encoding="UTF-8"?>
<svg width="48px" height="48px" viewBox="0 0 48 48" version="1.1" xmlns="http://www.w3.org/2000/svg" xmlns:xlink="http://www.w3.org/1999/xlink">
    <!-- Generator: Sketch 43.2 (39069) - http://www.bohemiancoding.com/sketch -->
    <title>theicons.co/svg/signs-12</title>
    <desc>Created with Sketch.</desc>
    <defs></defs>
    <g id="The-Icons" stroke="none" stroke-width="1" fill="none" fill-rule="evenodd">
        <path d="M14.5900218,18.4422882 C13.806641,17.6635788 13.8028542,16.3972545 14.5815637,15.6138737 C15.3602731,14.830493 16.6265974,14.8267062 17.4099781,15.6054156 L21.4099781,19.5815637 C22.1933687,20.3602829 22.1971443,21.6266267 21.4184112,22.4100034 L17.4184112,26.4338553 C16.6396878,27.2172222 15.3733634,27.2209865 14.5899965,26.4422632 C13.8066297,25.6635398 13.8028653,24.3972154 14.5815887,23.6138485 L15.1876367,23 L5.99188419,23 C4.89339733,23 4,22.1045695 4,21 C4,19.8877296 4.89179693,19 5.99188419,19 L15.1510791,19 L14.5900218,18.4422882 Z M26,39 L17.0006946,39 C15.346458,39 14,37.6636689 14,36.0072136 L14,31 C14,29.8954305 14.8954305,29 16,29 C17.1045695,29 18,29.8954305 18,31 L18,35 L26,35 L26,13.4131965 C26,12.1783597 26.7377122,10.8494761 27.791944,10.1975734 L32.9770864,6.99124981 L18,7 L18,11 C18,12.1045695 17.1045695,13 16,13 C14.8954305,13 14,12.1045695 14,11 L14,5.99278641 C14,4.34396536 15.3472877,3 17.0006946,3 L38.9993054,3 C39.9647439,3 40.8253507,3.45516413 41.3746533,4.16348696 C41.4261457,4.22988611 41.4641068,4.29850988 41.4912036,4.36919186 C41.808452,4.79952979 42,5.35331029 42,5.99278641 L42,36.0072136 C42,37.2420504 41.2622878,38.570934 40.208056,39.2228367 L29.8956894,45.5996691 C28.0891783,46.7167569 26,45.5395234 26,43.4276236 L26,39 Z M29.989898,40.8593278 L38,35.9822998 L38,8.62182617 L29.9898982,13.5975342 L29.989898,40.8593278 Z" id="Combined-Shape" fill="#000000"></path>
    </g>
</svg>