<?xml version="1.0" encoding="UTF-8"?>
<svg width="48px" height="48px" viewBox="0 0 48 48" version="1.1" xmlns="http://www.w3.org/2000/svg" xmlns:xlink="http://www.w3.org/1999/xlink">
    <!-- Generator: Sketch 43.2 (39069) - http://www.bohemiancoding.com/sketch -->
    <title>theicons.co/svg/signs-11</title>
    <desc>Created with Sketch.</desc>
    <defs></defs>
    <g id="The-Icons" stroke="none" stroke-width="1" fill="none" fill-rule="evenodd">
        <path d="M37.5900219,18.4422882 C36.8066411,17.6635788 36.8028543,16.3972545 37.5815638,15.6138737 C38.3602732,14.830493 39.6265975,14.8267062 40.4099782,15.6054156 L44.4099782,19.5815637 C45.1933688,20.3602829 45.1971444,21.6266267 44.4184113,22.4100034 L40.4184113,26.4338553 C39.6396879,27.2172222 38.3733635,27.2209865 37.5899967,26.4422632 C36.8066298,25.6635398 36.8028655,24.3972154 37.5815888,23.6138485 L38.1876369,23 L27.9940603,23 C26.8927712,23 26,22.1122704 26,21 C26,19.8954305 26.8945138,19 27.9940603,19 L38.1510792,19 L37.5900219,18.4422882 Z M22,39 L22,43.4276236 C22,45.5395234 19.9108217,46.7167569 18.1043106,45.5996691 L7.79194398,39.2228367 C6.73771216,38.570934 6,37.2420504 6,36.0072136 L6,5.99278641 C6,5.35331029 6.19154798,4.79952979 6.5087964,4.36919186 C6.53589315,4.29850988 6.57385431,4.22988611 6.62534669,4.16348696 C7.17464927,3.45516413 8.03525612,3 9.00069463,3 L30.9993054,3 C32.6527123,3 34,4.34396536 34,5.99278641 L34,11 C34,12.1045695 33.1045695,13 32,13 C30.8954305,13 30,12.1045695 30,11 L30,7 L15.0229136,6.99124981 L20.208056,10.1975734 C21.2622878,10.8494761 22,12.1783597 22,13.4131965 L22,35 L30,35 L30,31 C30,29.8954305 30.8954305,29 32,29 C33.1045695,29 34,29.8954305 34,31 L34,36.0072136 C34,37.6636689 32.653542,39 30.9993054,39 L22,39 Z M18.0101018,13.5975342 L10,8.62182617 L9.99999996,35.9822998 L18.010102,40.8593278 L18.0101018,13.5975342 Z" id="Combined-Shape" fill="#000000"></path>
    </g>
</svg>