<?xml version="1.0" encoding="UTF-8"?>
<svg width="48px" height="48px" viewBox="0 0 48 48" version="1.1" xmlns="http://www.w3.org/2000/svg" xmlns:xlink="http://www.w3.org/1999/xlink">
    <!-- Generator: Sketch 43.2 (39069) - http://www.bohemiancoding.com/sketch -->
    <title>theicons.co/svg/signs-10</title>
    <desc>Created with Sketch.</desc>
    <defs></defs>
    <g id="The-Icons" stroke="none" stroke-width="1" fill="none" fill-rule="evenodd">
        <path d="M29.6051867,42.0253723 C29.3961271,44.2204986 27.4301295,46 25.2308245,46 L21.222477,46 C19.0156431,46 17.0561319,44.2095518 16.8481148,42.0253723 L16.0837936,34 L15.2167037,34 C13.0130583,34 11.613822,32.2577292 12.0945912,30.0942681 L14.3587103,19.9057319 C14.8380606,17.7486557 17.0154811,16 19.2228534,16 L27.230448,16 C29.4374898,16 31.613822,17.7422708 32.0945912,19.9057319 L34.3587103,30.0942681 C34.8380606,32.2513443 33.4423575,34 31.2365977,34 L30.3695079,34 L29.6051867,42.0253723 Z M23.2266507,14 C19.9129422,14 17.2266507,11.3137085 17.2266507,8 C17.2266507,4.6862915 19.9129422,2 23.2266507,2 C26.5403592,2 29.2266507,4.6862915 29.2266507,8 C29.2266507,11.3137085 26.5403592,14 23.2266507,14 Z M26.6377946,30.992943 C26.690022,30.4445557 27.1768039,30.0007861 27.7285714,30.0017621 L30.2415659,30.006207 L28.1898429,20.7734537 C28.1162535,20.4423013 27.5649061,20 27.230448,20 L19.2228534,20 C18.89123,20 18.3363156,20.4455972 18.2634585,20.7734537 L16.2284208,30 L18.7294668,30 C19.2770428,30 19.7630667,30.4423212 19.8155069,30.992943 L20.8300967,41.646136 C20.8430372,41.7820121 21.0825324,42 21.222477,42 L25.2308245,42 C25.3721536,42 25.6100669,41.7840842 25.6232048,41.646136 L26.6377946,30.992943 Z M23.2266507,10 C24.3312202,10 25.2266507,9.1045695 25.2266507,8 C25.2266507,6.8954305 24.3312202,6 23.2266507,6 C22.1220812,6 21.2266507,6.8954305 21.2266507,8 C21.2266507,9.1045695 22.1220812,10 23.2266507,10 Z" id="Combined-Shape" fill="#000000"></path>
    </g>
</svg>