<?xml version="1.0" encoding="UTF-8"?>
<svg width="48px" height="48px" viewBox="0 0 48 48" version="1.1" xmlns="http://www.w3.org/2000/svg" xmlns:xlink="http://www.w3.org/1999/xlink">
    <!-- Generator: Sketch 43.2 (39069) - http://www.bohemiancoding.com/sketch -->
    <title>theicons.co/svg/signs-02</title>
    <desc>Created with Sketch.</desc>
    <defs></defs>
    <g id="The-Icons" stroke="none" stroke-width="1" fill="none" fill-rule="evenodd">
        <path d="M9.11699322,5.20551205 C12.0616574,3.75637901 16.2984675,3.0292102 24.0076644,3 C31.7899962,3.02946354 36.0214353,3.74466884 38.9735512,5.21354188 C41.8111003,6.62541036 42.9633242,12.7688259 43.0000667,19.9898092 C43.0267836,25.2404885 41.8867801,30.9604268 39.4982591,35.4624931 C36.3028455,41.4854519 31.119166,45.0032347 23.9991798,44.9999855 C16.8792771,44.9967362 11.7013567,41.4866431 8.51040605,35.4744006 C6.12618853,30.9821675 4.98784009,25.2799079 5.00009793,19.9953466 C5.01616944,13.0666472 6.30599065,6.58886728 9.11699322,5.20551205 Z M37.191673,8.79473023 C34.8862439,7.64762669 31.2162632,7.02732008 24.0076854,6.99997125 C16.8675422,7.02707855 13.193025,7.65774037 10.8831919,8.79445929 C10.1528484,9.15387714 9.01196555,14.883654 9.00008717,20.0046248 C8.97308594,31.6453098 13.9355691,40.9953924 24.0010053,40.9999859 C34.0631229,41.0045778 39.0590294,31.587913 39.0001184,20.0101621 C38.9730342,14.6873017 37.9374539,9.16580561 37.191673,8.79473023 Z M14.3004396,29.9579744 C14.7241118,29.2636173 15.5096038,28.3316847 16.7036778,27.4189665 C18.6668853,25.9183435 21.1067544,25.016177 24.0000925,25.016177 C26.8927165,25.016177 29.3343493,25.9178105 31.3015068,27.4173784 C32.4976876,28.3292292 33.2856698,29.2601901 33.7112058,29.9535625 C34.2889702,30.8949774 33.9941733,32.1265156 33.0527584,32.70428 C32.1113435,33.2820445 30.8798053,32.9872475 30.3020408,32.0458326 C30.2765328,32.0042695 29.3274136,30.942202 28.8765347,30.5984962 C27.5776629,29.6083637 25.9740152,29.016177 24.0000925,29.016177 C22.026884,29.016177 20.4267828,29.6078308 19.132811,30.596908 C18.6837857,30.9401309 17.7401155,32.0002658 17.7150042,32.0414207 C17.1396764,32.9843267 15.9089048,33.2823077 14.9659988,32.7069798 C14.0230928,32.131652 13.7251118,30.9008804 14.3004396,29.9579744 Z M27.0000925,16.7320365 C27.5523773,15.7754512 28.7680028,15.4433388 29.7304991,15.9990363 L33.1978892,18.000935 C34.1535664,18.5526954 34.484431,19.7687821 33.9282958,20.7320365 C33.376011,21.6886217 32.1603855,22.0207341 31.1978892,21.4650366 L27.7304991,19.463138 C26.7748219,18.9113775 26.4439574,17.6952909 27.0000925,16.7320365 Z M15.0000925,20.7320365 C14.4478078,19.7754512 14.7680028,18.5566325 15.7304991,18.000935 L19.1978892,15.9990363 C20.1535664,15.4472759 21.3721606,15.7687821 21.9282958,16.7320365 C22.4805805,17.6886217 22.1603855,18.9074405 21.1978892,19.463138 L17.7304991,21.4650366 C16.7748219,22.0167971 15.5562277,21.6952909 15.0000925,20.7320365 Z" id="Combined-Shape" fill="#000000"></path>
    </g>
</svg>