<?xml version="1.0" encoding="UTF-8"?>
<svg width="48px" height="48px" viewBox="0 0 48 48" version="1.1" xmlns="http://www.w3.org/2000/svg" xmlns:xlink="http://www.w3.org/1999/xlink">
    <!-- Generator: Sketch 43.2 (39069) - http://www.bohemiancoding.com/sketch -->
    <title>theicons.co/svg/signs-06</title>
    <desc>Created with Sketch.</desc>
    <defs></defs>
    <g id="The-Icons" stroke="none" stroke-width="1" fill="none" fill-rule="evenodd">
        <path d="M26,41.9996133 C26,43.1046852 25.1122704,44.000523 24,44.000523 C22.8954305,44.000523 22,43.0988753 22,41.9996133 L22,27.3813787 C19.664211,29.6229149 16.4929843,31.000523 13,31.000523 C9.8951505,31.000523 7.04452508,29.9120604 4.80888876,28.0959 C5.12205724,30.1784205 5.49566103,32.1599622 5.8946827,34.0436166 C6.33374019,36.1162673 6.80280367,37.9317959 7.26988916,39.4749424 C7.43157356,40.0091117 7.84250007,41.21978 7.86625769,41.2814387 C8.26339699,42.3121444 7.74978997,43.4696414 6.71908431,43.8667807 C5.68837865,44.26392 4.53088161,43.750313 4.13374231,42.7196073 C3.98747352,42.3399923 3.74590961,41.6397111 3.44142358,40.633757 C2.94199361,38.9837516 2.44454165,37.0583442 1.98151805,34.8725571 C1.22886085,31.3195019 0.572632061,27.4351946 0.209321121,23.2181281 C0.07547048,21.6644808 0.0154385292,20.1612588 0.0191165057,18.7115875 C0.00642672773,18.4761762 0,18.2391001 0,18.000523 C0,17.8749729 0.0115685807,17.7521248 0.0336979268,17.6329864 C0.112434391,14.4272617 0.501807347,11.4974117 1.08616041,8.87919423 C1.47294752,7.14617906 1.86911055,5.91775979 2.15261093,5.23426353 C2.57580438,4.21397872 3.7459747,3.72994053 4.76625951,4.15313397 C5.78654432,4.57632741 6.27058251,5.74649774 5.84738907,6.76678255 C5.80768859,6.86249716 5.18688314,8.86885225 4.9901091,9.75050628 C4.41349523,12.3340479 4.03920246,15.2815309 4.01612367,18.5437376 C4.29697906,23.2613723 8.2118268,27.000523 13,27.000523 C17.9705627,27.000523 22,22.9710858 22,18.000523 C22,16.8959535 22.8954305,16.000523 24,16.000523 C24.5522847,16.000523 25.0522847,16.2243807 25.4142136,16.5863095 C25.7761424,16.9482383 26,17.4482383 26,18.000523 C26,22.9710858 30.0294373,27.000523 35,27.000523 C39.9215126,27.000523 43.9203823,23.0502195 43.9988258,18.1473957 C43.9495232,15.042454 43.582557,12.2290058 43.0293872,9.75050628 C42.8326131,8.86885225 42.2118077,6.86249716 42.1721072,6.76678255 C41.7489137,5.74649774 42.2329519,4.57632741 43.2532367,4.15313397 C44.2735216,3.72994053 45.4436919,4.21397872 45.8668853,5.23426353 C46.1503857,5.91775979 46.5465487,7.14617906 46.9333358,8.87919423 C47.527473,11.5412498 47.9200461,14.5254609 47.9894915,17.7942434 C47.9964398,17.862057 48,17.9308743 48,18.000523 C48,18.0903773 47.9990884,18.1800186 47.9972739,18.2694382 C48.0155417,19.8549702 47.9576855,21.5059279 47.8101751,23.2181281 C47.4468642,27.4351946 46.7906354,31.3195019 46.0379782,34.8725571 C45.5749546,37.0583442 45.0775026,38.9837516 44.5780727,40.633757 C44.2735866,41.6397111 44.0320227,42.3399923 43.8857539,42.7196073 C43.4886146,43.750313 42.3311176,44.26392 41.3004119,43.8667807 C40.2697063,43.4696414 39.7560993,42.3121444 40.1532386,41.2814387 C40.1769962,41.21978 40.5879227,40.0091117 40.7496071,39.4749424 C41.2166926,37.9317959 41.6857561,36.1162673 42.1248136,34.0436166 C42.5249902,32.1545098 42.8996016,30.1669483 43.2133254,28.0778135 C40.9743727,29.9048315 38.1151426,31.000523 35,31.000523 C31.5070157,31.000523 28.335789,29.6229149 26,27.3813787 L26,41.9996133 Z" id="Combined-Shape" fill="#000000"></path>
    </g>
</svg>