<?xml version="1.0" encoding="UTF-8"?>
<svg width="48px" height="48px" viewBox="0 0 48 48" version="1.1" xmlns="http://www.w3.org/2000/svg" xmlns:xlink="http://www.w3.org/1999/xlink">
    <!-- Generator: Sketch 43.2 (39069) - http://www.bohemiancoding.com/sketch -->
    <title>theicons.co/svg/signs-09</title>
    <desc>Created with Sketch.</desc>
    <defs></defs>
    <g id="The-Icons" stroke="none" stroke-width="1" fill="none" fill-rule="evenodd">
        <path d="M34.8511036,36.1559209 C35.4548598,38.2789472 34.1683109,40 31.9728157,40 L30.5409914,40 L30.3489965,42.0253723 C30.1409097,44.2204986 28.1840609,46 25.9949904,46 L22.0052958,46 C19.8087314,46 17.8583388,44.2095518 17.6512897,42.0253723 L17.4592947,40 L16.0274705,40 C13.8340797,40 12.5441813,38.2833252 13.1491825,36.1559209 L16.0373712,26 L16.0373712,19.9958262 C16.0373712,17.7889923 17.8178772,16 20.0149775,16 L27.9853087,16 C30.18208,16 31.962915,17.7965212 31.962915,19.9958262 L31.962915,26 L34.8511036,36.1559209 Z M18.0280641,8 C18.0280641,4.6862915 20.701855,2 24.0001431,2 C27.2984312,2 29.972222,4.6862915 29.972222,8 C29.972222,11.3137085 27.2984312,14 24.0001431,14 C20.701855,14 18.0280641,11.3137085 18.0280641,8 Z M27.981529,26.5602198 L27.981529,19.9958262 C27.981529,20.0019804 20.0149775,20 20.0149775,20 C20.0168165,20 20.0187571,26.5602198 20.0187571,26.5602198 L17.3093783,36 L20.088957,36 C20.6360279,36 21.1215147,36.4430428 21.1739719,36.9964189 L21.6147414,41.646136 C21.6276218,41.7820121 21.8660024,42 22.0052958,42 L25.9949904,42 C26.1356618,42 26.372468,41.7840842 26.3855448,41.646136 L26.8263143,36.9964189 C26.8784805,36.4461119 27.3690105,35.9999999 27.913436,35.9999999 L30.698927,35.9999995 L27.981529,26.5602198 Z M25.9908361,8 C25.9908361,6.8954305 25.0995725,6 24.0001431,6 C22.9007137,6 22.0094501,6.8954305 22.0094501,8 C22.0094501,9.1045695 22.9007137,10 24.0001431,10 C25.0995725,10 25.9908361,9.1045695 25.9908361,8 Z" id="Combined-Shape" fill="#000000"></path>
    </g>
</svg>