<?xml version="1.0" encoding="UTF-8"?>
<svg width="48px" height="48px" viewBox="0 0 48 48" version="1.1" xmlns="http://www.w3.org/2000/svg" xmlns:xlink="http://www.w3.org/1999/xlink">
    <!-- Generator: Sketch 43.2 (39069) - http://www.bohemiancoding.com/sketch -->
    <title>theicons.co/svg/signs-14</title>
    <desc>Created with Sketch.</desc>
    <defs></defs>
    <g id="The-Icons" stroke="none" stroke-width="1" fill="none" fill-rule="evenodd">
        <path d="M8,6.00180999 C8,3.79167136 9.78902751,2 12.0042577,2 L35.9957423,2 C38.2072328,2 40,3.79309123 40,6.00180999 L40,41.99819 C40,44.2083286 38.2109725,46 35.9957423,46 L12.0042577,46 C9.79276724,46 8,44.2069088 8,41.99819 L8,6.00180999 Z M12,6 L12,42 L36,42 L36,6 L12,6 Z M19.9995116,20 C20.9987233,19.0046943 22.7731859,16.6712133 22.7731859,16.6712133 C23.4507366,15.8016561 24.5493645,15.8035374 25.2278989,16.6674082 C25.2278989,16.6674082 27.0049103,18.9923671 28,20 C29.080894,21.0548671 31.3642705,22.8501683 31.3642705,22.8501683 C32.2223542,23.5386314 32.2074567,24.6334823 31.3334524,25.3010241 C31.3334524,25.3010241 29.0598187,26.9881665 28,28 C26.983835,29.0506665 25.2309915,31.3478326 25.2309915,31.3478326 C24.5511337,32.2195451 23.4630615,32.2153827 22.7918193,31.3377277 C22.7918193,31.3377277 21.0281283,28.9562076 19.9995118,27.926208 C18.9749893,26.9003079 16.6794297,25.2143471 16.6794297,25.2143471 C15.7990649,24.548674 15.7961505,23.4611492 16.6702465,22.7787837 C16.6702465,22.7787837 18.9455843,21.0605939 19.9995116,20 Z" id="Combined-Shape" fill="#000000"></path>
    </g>
</svg>