<?xml version="1.0" encoding="UTF-8"?>
<svg width="48px" height="48px" viewBox="0 0 48 48" version="1.1" xmlns="http://www.w3.org/2000/svg" xmlns:xlink="http://www.w3.org/1999/xlink">
    <!-- Generator: Sketch 43.2 (39069) - http://www.bohemiancoding.com/sketch -->
    <title>theicons.co/svg/signs-13</title>
    <desc>Created with Sketch.</desc>
    <defs></defs>
    <g id="The-Icons" stroke="none" stroke-width="1" fill="none" fill-rule="evenodd">
        <path d="M8,6.00180999 C8,3.79167136 9.78902751,2 12.0042577,2 L35.9957423,2 C38.2072328,2 40,3.79309123 40,6.00180999 L40,41.99819 C40,44.2083286 38.2109725,46 35.9957423,46 L12.0042577,46 C9.79276724,46 8,44.2069088 8,41.99819 L8,6.00180999 Z M12,6 L12,42 L36,42 L36,6 L12,6 Z M24.0077075,17.3324399 C24.8559413,16.5038399 25.9760742,16 27.2040275,16 C29.8519457,16 31.9985076,18.3428148 31.9985076,21.2328233 C31.9985076,24.9533531 28.9740434,28.746602 25.6114487,31.3063529 C25.3512084,31.5044589 24.8684952,31.786105 24.8684952,31.786105 C24.3930952,32.0754766 23.6310805,32.0827044 23.1483533,31.7872295 C23.1483533,31.7872295 22.6695135,31.5085783 22.3996996,31.3031042 C19.0388136,28.7436553 16.0169075,24.9517793 16.0169075,21.2328233 C16.0169075,18.3428148 18.1634693,16 20.8113875,16 C22.0393408,16 23.1594737,16.5038399 24.0077075,17.3324399 Z" id="Combined-Shape" fill="#000000"></path>
    </g>
</svg>