<?xml version="1.0" encoding="UTF-8"?>
<svg width="48px" height="48px" viewBox="0 0 48 48" version="1.1" xmlns="http://www.w3.org/2000/svg" xmlns:xlink="http://www.w3.org/1999/xlink">
    <!-- Generator: Sketch 43.2 (39069) - http://www.bohemiancoding.com/sketch -->
    <title>theicons.co/svg/signs-08</title>
    <desc>Created with Sketch.</desc>
    <defs></defs>
    <g id="The-Icons" stroke="none" stroke-width="1" fill="none" fill-rule="evenodd">
        <path d="M30.2127693,20.6156578 C31.9631929,22.9528189 33,25.8553298 33,29 C33,36.7319865 26.7319865,43 19,43 C11.2680135,43 5,36.7319865 5,29 C5,21.2680135 11.2680135,15 19,15 C22.1446702,15 25.0471811,16.0368071 27.3843422,17.7872307 L36.1715729,9 L28.9940603,9 C27.8927712,9 27,8.11227036 27,7 C27,5.8954305 27.8945138,5 28.9940603,5 L41.0059397,5 C41.5556041,5 42.0533244,5.22114301 42.4140249,5.58097231 C42.7769435,5.9475578 43,6.44527166 43,6.99406028 L43,19.0059397 C43,20.1072288 42.1122704,21 41,21 C39.8954305,21 39,20.1054862 39,19.0059397 L39,11.8284271 L30.2127693,20.6156578 Z M19,39 C24.5228475,39 29,34.5228475 29,29 C29,23.4771525 24.5228475,19 19,19 C13.4771525,19 9,23.4771525 9,29 C9,34.5228475 13.4771525,39 19,39 Z" id="Combined-Shape" fill="#000000"></path>
    </g>
</svg>