<?xml version="1.0" encoding="UTF-8"?>
<svg width="48px" height="48px" viewBox="0 0 48 48" version="1.1" xmlns="http://www.w3.org/2000/svg" xmlns:xlink="http://www.w3.org/1999/xlink">
    <!-- Generator: Sketch 43.2 (39069) - http://www.bohemiancoding.com/sketch -->
    <title>theicons.co/svg/signs-15</title>
    <desc>Created with Sketch.</desc>
    <defs></defs>
    <g id="The-Icons" stroke="none" stroke-width="1" fill="none" fill-rule="evenodd">
        <path d="M8,6.00180999 C8,3.79167136 9.78902751,2 12.0042577,2 L35.9957423,2 C38.2072328,2 40,3.79309123 40,6.00180999 L40,41.99819 C40,44.2083286 38.2109725,46 35.9957423,46 L12.0042577,46 C9.79276724,46 8,44.2069088 8,41.99819 L8,6.00180999 Z M12,6 L12,42 L36,42 L36,6 L12,6 Z M28,18.4833984 C30.2529297,20.5238037 32,21.0415039 32,24 C32,26.209139 30.209139,28 28,28 C27.2714257,28 26.5883467,27.8052114 26,27.4648712 L26,29 L27.0002597,29 C28.1046858,29 29,29.8877296 29,31 C29,32.1045695 28.1125667,33 27.000385,33 L20.999615,33 C19.8952581,33 19,32.1122704 19,31 C19,29.8954305 19.8915055,29 20.9934476,29 L22,29 L22,27.4648712 C21.4116533,27.8052114 20.7285743,28 20,28 C17.790861,28 16,26.209139 16,24 C16,21.0161133 17.9823721,20.2766731 20.1166743,18.3789982 C22.2509766,16.4813232 23.0569,15 24,15 C25.0364227,15 25.7470703,16.4429932 28,18.4833984 Z" id="Combined-Shape" fill="#000000"></path>
    </g>
</svg>