<?xml version="1.0" encoding="UTF-8"?>
<svg width="48px" height="48px" viewBox="0 0 48 48" version="1.1" xmlns="http://www.w3.org/2000/svg" xmlns:xlink="http://www.w3.org/1999/xlink">
    <!-- Generator: Sketch 43.2 (39069) - http://www.bohemiancoding.com/sketch -->
    <title>theicons.co/svg/signs-18</title>
    <desc>Created with Sketch.</desc>
    <defs></defs>
    <g id="The-Icons" stroke="none" stroke-width="1" fill="none" fill-rule="evenodd">
        <path d="M44.0041119,23.9912537 C44,35.045695 35.045695,44 24,44 C12.954305,44 4,35.045695 4,24 C4,12.954305 12.954305,4 24,4 C34.9314054,4 43.814476,12.7699636 43.9971317,23.6578104 C44.0010939,23.7690139 44.0034228,23.8801786 44.0041119,23.9912537 Z M24,40 C32.836556,40 40,32.836556 40,24 C40,23.9221733 39.9994443,23.8444763 39.9983368,23.7669129 C39.8616785,20.4112893 37.3912228,17.0073242 33.0388184,17.0073242 C28.534373,17.0073242 26.4789748,19.9185642 25.987091,24.2268683 C25.2973004,30.2685959 21.9570081,35 15,35 C13.9459019,35 12.9585584,34.8698471 12.0419712,34.6306626 C14.9726373,37.9248838 19.243984,40 24,40 Z M15,31 C19.4388339,31 21.525218,28.0447118 22.012909,23.7731317 C22.7068932,17.6946731 26.0162625,13.0073242 33.0388184,13.0073242 C34.0762581,13.0073242 35.045274,13.1287927 35.9436187,13.3531617 C33.0133704,10.0683246 28.7482267,8 24,8 C15.163444,8 8,15.163444 8,24 C7.97186384,27.3216569 10.5764834,31 15,31 Z M33,27 C31.3431458,27 30,25.6568542 30,24 C30,22.3431458 31.3431458,21 33,21 C34.6568542,21 36,22.3431458 36,24 C36,25.6568542 34.6568542,27 33,27 Z M15,27 C13.3431458,27 12,25.6568542 12,24 C12,22.3431458 13.3431458,21 15,21 C16.6568542,21 18,22.3431458 18,24 C18,25.6568542 16.6568542,27 15,27 Z" id="Combined-Shape" fill="#000000"></path>
    </g>
</svg>