<?xml version="1.0" encoding="UTF-8"?>
<svg width="48px" height="48px" viewBox="0 0 48 48" version="1.1" xmlns="http://www.w3.org/2000/svg" xmlns:xlink="http://www.w3.org/1999/xlink">
    <!-- Generator: Sketch 43.2 (39069) - http://www.bohemiancoding.com/sketch -->
    <title>theicons.co/svg/signs-03</title>
    <desc>Created with Sketch.</desc>
    <defs></defs>
    <g id="The-Icons" stroke="none" stroke-width="1" fill="none" fill-rule="evenodd">
        <path d="M40.030662,20.5162993 C40.0066163,20.5920786 39.6473987,22.0285567 39.5344118,22.6265346 C38.6948873,27.069678 38.7620091,31.8430861 40.3296623,36.2591626 C40.9050865,37.8801318 41.6733273,39.4042574 42.6500282,40.8191679 C43.2775208,41.7281931 43.0492935,42.9737869 42.1402683,43.6012795 C41.2312431,44.2287721 39.9856493,44.0005448 39.3581567,43.0915196 C38.1773209,41.3808865 37.2505892,39.542328 36.5601284,37.597301 C34.7209357,32.416298 34.6442545,26.9630673 35.603958,21.883882 C35.0859836,21.9028395 34.5472701,21.9394746 34,21.9394746 C29.8260585,21.9394746 26.1498431,19.8084559 24,16.5750649 C21.8501569,19.8084559 18.1739415,21.9394746 14,21.9394746 C13.459158,21.9394746 12.9266728,21.903695 12.4047822,21.8343737 C13.3738761,26.9630673 13.2971949,32.416298 11.4580022,37.597301 C10.7675414,39.542328 9.84080971,41.3808865 8.65997384,43.0915196 C8.03248126,44.0005448 6.78688748,44.2287721 5.87786226,43.6012795 C4.96883705,42.9737869 4.74060975,41.7281931 5.36810233,40.8191679 C6.34480332,39.4042574 7.11304409,37.8801318 7.68846833,36.2591626 C9.25612148,31.8430861 9.32324324,27.069678 8.48371876,22.6265346 C8.37073185,22.0285567 8.01151427,20.5920786 7.98746861,20.5162993 C7.96398855,20.4423025 7.94503697,20.3679525 7.93045885,20.2935487 C4.38203525,18.2089761 2,14.3524024 2,9.93947461 C2,8.7569051 2.12852132,7.88238293 2.42990216,6.97618439 C2.58688763,6.50415704 2.56552609,6.55514487 3.1484873,5.20680669 C3.5868374,4.19294133 4.76409064,3.72639403 5.777956,4.16474413 C6.79182136,4.60309423 7.25836866,5.78034747 6.82001856,6.79421283 C6.31428976,7.9639192 6.32655636,7.93464008 6.22549563,8.23851169 C6.06625079,8.71733257 6,9.1681355 6,9.93947461 C6,14.3577526 9.581722,17.9394746 14,17.9394746 C18.418278,17.9394746 22,14.3577526 22,9.93947461 C22,8.83490511 22.8954305,7.93947461 24,7.93947461 C24.5522847,7.93947461 25.0522847,8.16333223 25.4142136,8.52526104 C25.7761424,8.88718986 26,9.38718986 26,9.93947461 C26,14.3577526 29.581722,17.9394746 34,17.9394746 C38.418278,17.9394746 42,14.3577526 42,9.93947461 C42,9.1681355 41.9337492,8.71733257 41.7745044,8.23851169 C41.6734436,7.93464008 41.6857102,7.9639192 41.1799814,6.79421283 C40.7416313,5.78034747 41.2081786,4.60309423 42.222044,4.16474413 C43.2359094,3.72639403 44.4131626,4.19294133 44.8515127,5.20680669 C45.4344739,6.55514487 45.4131124,6.50415704 45.5700978,6.97618439 C45.8714787,7.88238293 46,8.7569051 46,9.93947461 C46,14.3439189 43.6271145,18.1941461 40.0899929,20.2815068 C40.0751252,20.3599297 40.0554087,20.4383106 40.030662,20.5162993 Z M12,14.9394746 C10.8954305,14.9394746 10,14.0440441 10,12.9394746 C10,11.8349051 10.8954305,10.9394746 12,10.9394746 C13.1045695,10.9394746 14,11.8349051 14,12.9394746 C14,14.0440441 13.1045695,14.9394746 12,14.9394746 Z M36,14.9394746 C34.8954305,14.9394746 34,14.0440441 34,12.9394746 C34,11.8349051 34.8954305,10.9394746 36,10.9394746 C37.1045695,10.9394746 38,11.8349051 38,12.9394746 C38,14.0440441 37.1045695,14.9394746 36,14.9394746 Z M22,35.9373877 C22,34.8339708 22.8877296,33.9394746 24,33.9394746 C25.1045695,33.9394746 26,34.8377352 26,35.9373877 L26,37.9415615 C26,39.0449784 25.1122704,39.9394746 24,39.9394746 C22.8954305,39.9394746 22,39.041214 22,37.9415615 L22,35.9373877 Z" id="Combined-Shape" fill="#000000" fill-rule="nonzero"></path>
    </g>
</svg>