<?xml version="1.0" encoding="UTF-8"?>
<svg width="48px" height="48px" viewBox="0 0 48 48" version="1.1" xmlns="http://www.w3.org/2000/svg" xmlns:xlink="http://www.w3.org/1999/xlink">
    <!-- Generator: Sketch 43.2 (39069) - http://www.bohemiancoding.com/sketch -->
    <title>theicons.co/svg/signs-01</title>
    <desc>Created with Sketch.</desc>
    <defs></defs>
    <g id="The-Icons" stroke="none" stroke-width="1" fill="none" fill-rule="evenodd">
        <path d="M9.11699322,5.20551205 C12.0616574,3.75637901 16.2984675,3.0292102 24.0076644,3 C31.7899962,3.02946354 36.0214353,3.74466884 38.9735512,5.21354188 C41.8111003,6.62541036 42.9633242,12.7688259 43.0000667,19.9898092 C43.0267836,25.2404885 41.8867801,30.9604268 39.4982591,35.4624931 C36.3028455,41.4854519 31.119166,45.0032347 23.9991798,44.9999855 C16.8792771,44.9967362 11.7013567,41.4866431 8.51040605,35.4744006 C6.12618853,30.9821675 4.98784009,25.2799079 5.00009793,19.9953466 C5.01616944,13.0666472 6.30599065,6.58886728 9.11699322,5.20551205 Z M37.191673,8.79473023 C34.8862439,7.64762669 31.2162632,7.02732008 24.0076854,6.99997125 C16.8675422,7.02707855 13.193025,7.65774037 10.8831919,8.79445929 C10.1528484,9.15387714 9.01196555,14.883654 9.00008717,20.0046248 C8.97308594,31.6453098 13.9355691,40.9953924 24.0010053,40.9999859 C34.0631229,41.0045778 39.0590294,31.587913 39.0001184,20.0101621 C38.9730342,14.6873017 37.9374539,9.16580561 37.191673,8.79473023 Z M14.0000925,16.9999857 C14.0000925,15.8954162 14.8867989,14.9999857 15.9981939,14.9999857 L20.0019912,14.9999857 C21.1055121,14.9999857 22.0000925,15.8877153 22.0000925,16.9999857 C22.0000925,18.1045552 21.1133862,18.9999857 20.0019912,18.9999857 L15.9981939,18.9999857 C14.894673,18.9999857 14.0000925,18.112256 14.0000925,16.9999857 Z M26.0000925,16.9999857 C26.0000925,15.8954162 26.8867989,14.9999857 27.9981939,14.9999857 L32.0019912,14.9999857 C33.1055121,14.9999857 34.0000925,15.8877153 34.0000925,16.9999857 C34.0000925,18.1045552 33.1133862,18.9999857 32.0019912,18.9999857 L27.9981939,18.9999857 C26.894673,18.9999857 26.0000925,18.112256 26.0000925,16.9999857 Z M14.3004396,28.0581883 C13.7251118,27.1152823 14.0230928,25.8845107 14.9659988,25.3091829 C15.9089048,24.733855 17.1396764,25.031836 17.7150042,25.974742 C17.7401155,26.0158969 18.6837857,27.0760318 19.132811,27.4192547 C20.4267828,28.4083319 22.026884,28.9999857 24.0000925,28.9999857 C25.9740152,28.9999857 27.5776629,28.407799 28.8765347,27.4176665 C29.3274136,27.0739607 30.2765328,26.0118932 30.3020408,25.9703301 C30.8798053,25.0289152 32.1113435,24.7341182 33.0527584,25.3118827 C33.9941733,25.8896471 34.2889702,27.1211853 33.7112058,28.0626002 C33.2856698,28.7559726 32.4976876,29.6869335 31.3015068,30.5987843 C29.3343493,32.0983522 26.8927165,32.9999857 24.0000925,32.9999857 C21.1067544,32.9999857 18.6668853,32.0978192 16.7036778,30.5971962 C15.5096038,29.684478 14.7241118,28.7525455 14.3004396,28.0581883 Z" id="Combined-Shape" fill="#000000"></path>
    </g>
</svg>