<?xml version="1.0" encoding="UTF-8"?>
<svg width="48px" height="48px" viewBox="0 0 48 48" version="1.1" xmlns="http://www.w3.org/2000/svg" xmlns:xlink="http://www.w3.org/1999/xlink">
    <!-- Generator: Sketch 43.2 (39069) - http://www.bohemiancoding.com/sketch -->
    <title>theicons.co/svg/signs-07</title>
    <desc>Created with Sketch.</desc>
    <defs></defs>
    <g id="The-Icons" stroke="none" stroke-width="1" fill="none" fill-rule="evenodd">
        <path d="M30.0059397,35 C31.1072288,35 32,35.8877296 32,37 C32,38.1045695 31.1054862,39 30.0059397,39 L26,39 L26,42.9998938 C26,44.104522 25.1122704,45 24,45 C22.8954305,45 22,44.1099416 22,42.9998938 L22,39 L17.9940603,39 C16.8927712,39 16,38.1122704 16,37 C16,35.8954305 16.8945138,35 17.9940603,35 L22,35 L22,30.8582223 C15.2154117,29.887763 10,24.0529438 10,17 C10,9.2680135 16.2680135,3 24,3 C31.7319865,3 38,9.2680135 38,17 C38,24.0529438 32.7845883,29.887763 26,30.8582223 L26,35 L30.0059397,35 Z M24,27 C29.5228475,27 34,22.5228475 34,17 C34,11.4771525 29.5228475,7 24,7 C18.4771525,7 14,11.4771525 14,17 C14,22.5228475 18.4771525,27 24,27 Z" id="Combined-Shape" fill="#000000"></path>
    </g>
</svg>