<?xml version="1.0" encoding="UTF-8"?>
<svg width="48px" height="48px" viewBox="0 0 48 48" version="1.1" xmlns="http://www.w3.org/2000/svg" xmlns:xlink="http://www.w3.org/1999/xlink">
    <!-- Generator: Sketch 43.2 (39069) - http://www.bohemiancoding.com/sketch -->
    <title>theicons.co/svg/signs-05</title>
    <desc>Created with Sketch.</desc>
    <defs></defs>
    <g id="The-Icons" stroke="none" stroke-width="1" fill="none" fill-rule="evenodd">
        <path d="M25.9810425,26.0012931 L25.9810425,14.000523 L28.9857891,14.000523 C30.6398413,14.000523 31.9810425,12.6579707 31.9810425,11.000523 C31.9810425,9.89595354 32.876473,9.00052304 33.9810425,9.00052304 C35.085612,9.00052304 35.9810425,9.89595354 35.9810425,11.000523 C35.9810425,14.5106959 33.3489391,17.4890853 29.9810425,17.9941143 L29.9810425,26.0012931 C29.9810425,28.6120169 28.3099662,30.8343681 25.9810425,31.6585658 L25.9810425,42.0063976 C25.9810425,43.1077227 25.0933129,44.000523 23.9810425,44.000523 C22.876473,44.000523 21.9810425,43.10598 21.9810425,42.0063976 L21.9810425,31.6589283 C19.6509215,30.8349876 17.9810425,28.6122476 17.9810425,26.0012931 C17.9810425,26.0012931 17.9928833,19.2604718 17.9810425,17.9941143 C14.542749,17.4340558 11.9810425,14.45723 11.9810425,11.000523 C11.9810425,9.89595354 12.876473,9.00052304 13.9810425,9.00052304 C15.085612,9.00052304 15.9810425,9.89595354 15.9810425,11.000523 C15.9810425,12.6544709 17.3247738,14.000523 18.9762959,14.000523 L21.9810425,14.000523 L21.9810425,26.0012931 C21.9810425,27.0932823 22.8595179,27.9827183 23.9482511,28.0002591 C25.1007731,27.982762 25.9810425,27.092554 25.9810425,26.0012931 Z M46.9143783,8.87919423 C47.8229803,12.9502217 48.260185,17.7746733 47.7912176,23.2181281 C47.4279067,27.4351946 46.7716779,31.3195019 46.0190207,34.8725571 C45.5559971,37.0583442 45.0585451,38.9837516 44.5591152,40.633757 C44.2546291,41.6397111 44.0130652,42.3399923 43.8667964,42.7196073 C43.4696571,43.750313 42.3121601,44.26392 41.2814544,43.8667807 C40.2507488,43.4696414 39.7371418,42.3121444 40.1342811,41.2814387 C40.1580387,41.21978 40.5689652,40.0091117 40.7306496,39.4749424 C41.1977351,37.9317959 41.6667986,36.1162673 42.1058561,34.0436166 C42.8252352,30.6476567 43.4619987,26.9335341 43.8109509,22.8831335 C44.2436676,17.8604519 43.8328315,13.4353107 43.0104297,9.75050628 C42.8136556,8.86885225 42.1928502,6.86249716 42.1531497,6.76678255 C41.7299562,5.74649774 42.2139944,4.57632741 43.2342792,4.15313397 C44.2545641,3.72994053 45.4247344,4.21397872 45.8479278,5.23426353 C46.1314282,5.91775979 46.5275912,7.14617906 46.9143783,8.87919423 Z M1.06720291,8.87919423 C1.45399002,7.14617906 1.85015305,5.91775979 2.13365343,5.23426353 C2.55684687,4.21397872 3.7270172,3.72994053 4.74730201,4.15313397 C5.76758682,4.57632741 6.25162501,5.74649774 5.82843157,6.76678255 C5.78873109,6.86249716 5.16792564,8.86885225 4.9711516,9.75050628 C4.14874978,13.4353107 3.73791361,17.8604519 4.17063032,22.8831335 C4.51958257,26.9335341 5.15634609,30.6476567 5.8757252,34.0436166 C6.31478269,36.1162673 6.78384617,37.9317959 7.25093166,39.4749424 C7.41261606,40.0091117 7.82354257,41.21978 7.84730019,41.2814387 C8.24443948,42.3121444 7.73083247,43.4696414 6.70012681,43.8667807 C5.66942115,44.26392 4.51192411,43.750313 4.11478481,42.7196073 C3.96851602,42.3399923 3.72695211,41.6397111 3.42246608,40.633757 C2.92303611,38.9837516 2.42558415,37.0583442 1.96256055,34.8725571 C1.20990335,31.3195019 0.553674561,27.4351946 0.19036362,23.2181281 C-0.278603769,17.7746733 0.158600995,12.9502217 1.06720291,8.87919423 Z" id="Combined-Shape" fill="#000000"></path>
    </g>
</svg>