<?xml version="1.0" encoding="UTF-8"?>
<svg width="48px" height="48px" viewBox="0 0 48 48" version="1.1" xmlns="http://www.w3.org/2000/svg" xmlns:xlink="http://www.w3.org/1999/xlink">
    <!-- Generator: Sketch 43.2 (39069) - http://www.bohemiancoding.com/sketch -->
    <title>theicons.co/svg/signs-17</title>
    <desc>Created with Sketch.</desc>
    <defs></defs>
    <g id="The-Icons" stroke="none" stroke-width="1" fill="none" fill-rule="evenodd">
        <path d="M37,8 C35.8954305,8 35,7.1045695 35,6 C35,4.8954305 35.8954305,4 37,4 L43,4 C44.1045695,4 45,4.8954305 45,6 L45,12 C45,13.1045695 44.1045695,14 43,14 C41.8954305,14 41,13.1045695 41,12 L41,10.8507212 L36.8067956,15.0825957 C38.1883326,17.0376235 39,19.4240242 39,22 C39,28.627417 33.627417,34 27,34 C24.8142771,34 22.7650402,33.4156343 21,32.3946137 C19.7852315,33.0973193 18.435847,33.5931936 17,33.8340831 L17,36 L18.9914698,36 C20.1007504,36 21,36.8877296 21,38 C21,39.1045695 20.0980496,40 18.9914698,40 L17,40 L17,41.9914698 C17,43.1007504 16.1122704,44 15,44 C13.8954305,44 13,43.0980496 13,41.9914698 L13,40 L11.0085302,40 C9.8992496,40 9,39.1122704 9,38 C9,36.8954305 9.90195036,36 11.0085302,36 L13,36 L13,33.8340831 C7.32457332,32.8819269 3,27.9459926 3,22 C3,15.372583 8.372583,10 15,10 C17.1857229,10 19.2349598,10.5843657 21,11.6053863 C22.7650402,10.5843657 24.8142771,10 27,10 C29.6072987,10 32.020384,10.8315265 33.9885298,12.2438536 L38.1936039,8 L37,8 Z M15,14 C10.581722,14 7,17.581722 7,22 C7,26.418278 10.581722,30 15,30 C15.9351797,30 16.8328811,29.8395366 17.6670731,29.5446411 C15.9678271,27.4452422 15,24.8016064 15,22 C15,19.1971944 15.968803,16.5536244 17.6670179,14.4553394 C16.8328415,14.1604563 15.935159,14 15,14 Z M19,22 C19,23.9881405 19.7284809,25.8533199 20.9995614,27.2921457 C22.2445494,25.8818176 23,24.0291313 23,22 C23,19.9708424 22.2445298,18.1181344 20.999513,16.7077995 C19.7293387,18.1457142 19,20.0110535 19,22 Z M27,22 C27,24.8583299 26.0006463,27.4832482 24.332281,29.5444127 C25.1666555,29.8394538 26.064579,30 27,30 C31.418278,30 35,26.418278 35,22 C35,17.581722 31.418278,14 27,14 C26.064579,14 25.1666555,14.1605462 24.332281,14.4555873 C26.0006463,16.5167518 27,19.1416701 27,22 Z" id="Combined-Shape" fill="#000000"></path>
    </g>
</svg>