<?xml version="1.0" encoding="UTF-8"?>
<svg width="48px" height="48px" viewBox="0 0 48 48" version="1.1" xmlns="http://www.w3.org/2000/svg" xmlns:xlink="http://www.w3.org/1999/xlink">
    <!-- Generator: Sketch 43.2 (39069) - http://www.bohemiancoding.com/sketch -->
    <title>theicons.co/svg/signs-04</title>
    <desc>Created with Sketch.</desc>
    <defs></defs>
    <g id="The-Icons" stroke="none" stroke-width="1" fill="none" fill-rule="evenodd">
        <path d="M21.9810425,25.9913252 L21.9810425,42.0097287 C21.9810425,43.102311 22.876473,44.000523 23.9810425,44.000523 C25.0933129,44.000523 25.9810425,43.109214 25.9810425,42.0097287 L25.9810425,25.9913252 C25.9810425,25.9261121 25.9778525,25.8615913 25.9716183,25.7979127 C28.4675127,25.2292168 30.4551621,23.50495 31.9648022,21.0482789 C33.013626,19.3415045 33.6327529,17.6612861 33.9233815,16.4773029 C34.1866998,15.4045786 33.5305466,14.3215022 32.4578223,14.058184 C31.3850981,13.7948658 30.3020217,14.451019 30.0387035,15.5237432 C29.9942196,15.7049648 29.8848194,16.0718494 29.7052342,16.5592169 C29.402512,17.3807599 29.0194088,18.2013017 28.5568337,18.9540604 C27.8018695,20.1826307 26.9486055,21.0653194 25.9810425,21.5549962 L25.9810425,19.9980899 C25.9810425,18.8983401 25.085612,18 23.9810425,18 C22.8687721,18 21.9810425,18.8945753 21.9810425,19.9980899 L21.9810425,21.46845 C21.0285791,20.9599987 20.1878889,20.0985049 19.4453991,18.9291456 C18.9683139,18.1777764 18.5736813,17.3592436 18.2621463,16.5399183 C18.0775503,16.0544376 17.9653436,15.6894858 17.9200096,15.5102102 C17.6492173,14.4393483 16.5615916,13.7907637 15.4907297,14.061556 C14.4198677,14.3323483 13.7712831,15.4199739 14.0420754,16.4908359 C14.342562,17.6791254 14.9830739,19.3636475 16.0685994,21.0732594 C17.5746634,23.4451841 19.5400701,25.1297558 21.9960821,25.7449711 C21.9861522,25.825692 21.9810425,25.9079095 21.9810425,25.9913252 Z M1.06720291,8.87919423 C1.45399002,7.14617906 1.85015305,5.91775979 2.13365343,5.23426353 C2.55684687,4.21397872 3.7270172,3.72994053 4.74730201,4.15313397 C5.76758682,4.57632741 6.25162501,5.74649774 5.82843157,6.76678255 C5.78873109,6.86249716 5.16792564,8.86885225 4.9711516,9.75050628 C4.14874978,13.4353107 3.73791361,17.8604519 4.17063032,22.8831335 C4.51958257,26.9335341 5.15634609,30.6476567 5.8757252,34.0436166 C6.31478269,36.1162673 6.78384617,37.9317959 7.25093166,39.4749424 C7.41261606,40.0091117 7.82354257,41.21978 7.84730019,41.2814387 C8.24443948,42.3121444 7.73083247,43.4696414 6.70012681,43.8667807 C5.66942115,44.26392 4.51192411,43.750313 4.11478481,42.7196073 C3.96851602,42.3399923 3.72695211,41.6397111 3.42246608,40.633757 C2.92303611,38.9837516 2.42558415,37.0583442 1.96256055,34.8725571 C1.20990335,31.3195019 0.553674561,27.4351946 0.19036362,23.2181281 C-0.278603769,17.7746733 0.158600995,12.9502217 1.06720291,8.87919423 Z M46.9143783,8.87919423 C47.8229803,12.9502217 48.260185,17.7746733 47.7912176,23.2181281 C47.4279067,27.4351946 46.7716779,31.3195019 46.0190207,34.8725571 C45.5559971,37.0583442 45.0585451,38.9837516 44.5591152,40.633757 C44.2546291,41.6397111 44.0130652,42.3399923 43.8667964,42.7196073 C43.4696571,43.750313 42.3121601,44.26392 41.2814544,43.8667807 C40.2507488,43.4696414 39.7371418,42.3121444 40.1342811,41.2814387 C40.1580387,41.21978 40.5689652,40.0091117 40.7306496,39.4749424 C41.1977351,37.9317959 41.6667986,36.1162673 42.1058561,34.0436166 C42.8252352,30.6476567 43.4619987,26.9335341 43.8109509,22.8831335 C44.2436676,17.8604519 43.8328315,13.4353107 43.0104297,9.75050628 C42.8136556,8.86885225 42.1928502,6.86249716 42.1531497,6.76678255 C41.7299562,5.74649774 42.2139944,4.57632741 43.2342792,4.15313397 C44.2545641,3.72994053 45.4247344,4.21397872 45.8479278,5.23426353 C46.1314282,5.91775979 46.5275912,7.14617906 46.9143783,8.87919423 Z" id="Combined-Shape" fill="#000000"></path>
    </g>
</svg>