<?xml version="1.0" encoding="UTF-8"?>
<svg width="48px" height="48px" viewBox="0 0 48 48" version="1.1" xmlns="http://www.w3.org/2000/svg" xmlns:xlink="http://www.w3.org/1999/xlink">
    <!-- Generator: Sketch 43.2 (39069) - http://www.bohemiancoding.com/sketch -->
    <title>theicons.co/svg/signs-19</title>
    <desc>Created with Sketch.</desc>
    <defs></defs>
    <g id="The-Icons" stroke="none" stroke-width="1" fill="none" fill-rule="evenodd">
        <path d="M13.6372758,36.1911513 C15.9507094,38.1595393 18.8314968,39.4811057 22,39.8762125 L22,27.8284271 L13.6372758,36.1911513 L13.6372758,36.1911513 Z M10.9342558,33.2373171 L22,22.1715729 L22,8.12378751 C14.1073768,9.10798369 8,15.8407647 8,24 C8,27.4408346 9.08613398,30.627989 10.9342558,33.2373171 L10.9342558,33.2373171 Z M37.0657442,33.2373171 C38.913866,30.627989 40,27.4408346 40,24 C40,15.8407647 33.8926232,9.10798369 26,8.12378751 L26,22.1715729 L37.0657442,33.2373171 L37.0657442,33.2373171 Z M34.3627242,36.1911513 L26,27.8284271 L26,39.8762125 C29.1685032,39.4811057 32.0492906,38.1595393 34.3627242,36.1911513 L34.3627242,36.1911513 Z M24,44 C12.954305,44 4,35.045695 4,24 C4,12.954305 12.954305,4 24,4 C35.045695,4 44,12.954305 44,24 C44,35.045695 35.045695,44 24,44 Z" id="Combined-Shape" fill="#000000"></path>
    </g>
</svg>