<?xml version="1.0" encoding="UTF-8"?>
<svg width="48px" height="48px" viewBox="0 0 48 48" version="1.1" xmlns="http://www.w3.org/2000/svg" xmlns:xlink="http://www.w3.org/1999/xlink">
    <!-- Generator: Sketch 43.2 (39069) - http://www.bohemiancoding.com/sketch -->
    <title>theicons.co/svg/social-23</title>
    <desc>Created with Sketch.</desc>
    <defs></defs>
    <g id="The-Icons" stroke="none" stroke-width="1" fill="none" fill-rule="evenodd">
        <path d="M35.3137085,12.6862915 C33.6691947,11.0417777 31.7557611,9.83008352 29.7149619,9.0512091 C29.039852,13.3114255 27.0405036,17.5350224 23.9480718,21.1196447 L26.8803522,24.051925 C30.4645271,20.9598545 34.6878081,18.9603035 38.9488042,18.2850731 C38.1699303,16.2442607 36.9582317,14.3308147 35.3137085,12.6862915 Z M29.7177641,26.889337 L36.6403911,33.8119639 C39.2710588,30.4317498 40.3568118,26.2387991 39.8976499,22.187705 C36.3644712,22.6786013 32.790077,24.3067285 29.7177641,26.889337 Z M24.0519261,26.8803532 L21.1196413,23.9480685 C17.5345492,27.0408794 13.3106223,29.0400122 9.05122337,29.7149993 C9.83009832,31.7557845 11.0417877,33.6692047 12.6862915,35.3137085 C14.3308117,36.9582287 16.2442537,38.1699258 18.2850618,38.9487999 C18.9602527,34.6880573 20.9597381,30.4646734 24.0519261,26.8803532 Z M33.8119639,36.6403911 L26.8893382,29.7177653 C24.3065993,32.7902424 22.6785414,36.3647457 22.1876917,39.8976484 C26.2387899,40.3568141 30.4317461,39.2710617 33.8119639,36.6403911 Z M14.1880361,11.3596089 L21.1106593,18.2822322 C23.6936693,15.2094139 25.3215819,11.6346844 25.8123364,8.10235483 C21.7612295,7.64318083 17.5682617,8.7289322 14.1880361,11.3596089 Z M18.2822283,21.1106554 L11.3596089,14.1880361 C8.72892249,17.5682742 7.64317282,21.7612604 8.10235991,25.8123813 C11.6337994,25.3217712 15.208879,23.6940869 18.2822283,21.1106554 Z M9.85786438,38.1421356 C2.04737854,30.3316498 2.04737854,17.6683502 9.85786438,9.85786438 C17.6683502,2.04737854 30.3316498,2.04737854 38.1421356,9.85786438 C45.9526215,17.6683502 45.9526215,30.3316498 38.1421356,38.1421356 C30.3316498,45.9526215 17.6683502,45.9526215 9.85786438,38.1421356 Z" id="Combined-Shape" fill="#000000"></path>
    </g>
</svg>