<?xml version="1.0" encoding="UTF-8"?>
<svg width="48px" height="48px" viewBox="0 0 48 48" version="1.1" xmlns="http://www.w3.org/2000/svg" xmlns:xlink="http://www.w3.org/1999/xlink">
    <!-- Generator: Sketch 43.2 (39069) - http://www.bohemiancoding.com/sketch -->
    <title>theicons.co/svg/social-11</title>
    <desc>Created with Sketch.</desc>
    <defs></defs>
    <g id="The-Icons" stroke="none" stroke-width="1" fill="none" fill-rule="evenodd">
        <path d="M12.5452594,20.4258294 L6.48554436,21.9407581 C5.41395454,22.2086556 4.32808556,21.5571342 4.06018811,20.4855444 C3.79229065,19.4139545 4.44381204,18.3280856 5.51540186,18.0601881 L11.5751169,16.5452594 L10.0601881,10.4855444 C9.79229065,9.41395454 10.443812,8.32808556 11.5154019,8.06018811 C12.5869917,7.79229065 13.6728607,8.44381204 13.9407581,9.51540186 L15.4556869,15.5751169 L27.5751169,12.5452594 L26.0601881,6.48554436 C25.7922907,5.41395454 26.443812,4.32808556 27.5154019,4.06018811 C28.5869917,3.79229065 29.6728607,4.44381204 29.9407581,5.51540186 L31.4556869,11.5751169 L37.5154019,10.0601881 C38.5869917,9.79229065 39.6728607,10.443812 39.9407581,11.5154019 C40.2086556,12.5869917 39.5571342,13.6728607 38.4855444,13.9407581 L32.4258294,15.4556869 L35.4556869,27.5751169 L41.5154019,26.0601881 C42.5869917,25.7922907 43.6728607,26.443812 43.9407581,27.5154019 C44.2086556,28.5869917 43.5571342,29.6728607 42.4855444,29.9407581 L36.4258294,31.4556869 L37.9407581,37.5154019 C38.2086556,38.5869917 37.5571342,39.6728607 36.4855444,39.9407581 C35.4139545,40.2086556 34.3280856,39.5571342 34.0601881,38.4855444 L32.5452594,32.4258294 L20.4258294,35.4556869 L21.9407581,41.5154019 C22.2086556,42.5869917 21.5571342,43.6728607 20.4855444,43.9407581 C19.4139545,44.2086556 18.3280856,43.5571342 18.0601881,42.4855444 L16.5452594,36.4258294 L10.4855444,37.9407581 C9.41395454,38.2086556 8.32808556,37.5571342 8.06018811,36.4855444 C7.79229065,35.4139545 8.44381204,34.3280856 9.51540186,34.0601881 L15.5751169,32.5452594 L12.5452594,20.4258294 Z M31.5751169,28.5452594 L28.5452594,16.4258294 L16.4258294,19.4556869 L19.4556869,31.5751169 L31.5751169,28.5452594 Z" id="Combined-Shape" fill="#000000"></path>
    </g>
</svg>