<?xml version="1.0" encoding="UTF-8"?>
<svg width="48px" height="48px" viewBox="0 0 48 48" version="1.1" xmlns="http://www.w3.org/2000/svg" xmlns:xlink="http://www.w3.org/1999/xlink">
    <!-- Generator: Sketch 43.2 (39069) - http://www.bohemiancoding.com/sketch -->
    <title>theicons.co/svg/social-27</title>
    <desc>Created with Sketch.</desc>
    <defs></defs>
    <g id="The-Icons" stroke="none" stroke-width="1" fill="none" fill-rule="evenodd">
        <path d="M34.6307663,15.9927544 L35.8401593,9.59756635 C36.0173906,8.66037959 35.4998524,8.03533082 34.5413136,8.0335943 L15.9996577,8.00000357 C14.8879069,7.99798948 14,8.88278936 14,9.98293295 L14,37.1863579 L22.5857864,28.5785408 C22.9608592,28.203468 23.469567,27.9927544 24,27.9927544 L30.0158379,27.9927544 C31.2662994,27.9927544 32.5647323,26.9178013 32.7963973,25.6927725 L33.8743269,19.9927544 L24.0058587,19.9927544 C22.8980535,19.9927544 22,19.1050247 22,17.9927544 C22,16.8881849 22.8970601,15.9927544 24.0058587,15.9927544 L34.6307663,15.9927544 Z M10,41.9927544 L10,9.98293295 C10,6.6693008 12.6847038,3.99399152 16.0069042,4.00001014 L34.5485601,4.03360086 C38.0101931,4.03987208 40.4132303,6.94210349 39.7704972,10.340832 L36.7267352,26.4360381 C36.1376998,29.5508174 33.1880907,31.9927544 30.0158379,31.9927544 L24.8181152,31.9927544 L13.4142136,43.4069679 C12.1542838,44.6668977 10,43.7745641 10,41.9927544 Z" id="Combined-Shape" fill="#000000"></path>
    </g>
</svg>