<?xml version="1.0" encoding="UTF-8"?>
<svg width="48px" height="48px" viewBox="0 0 48 48" version="1.1" xmlns="http://www.w3.org/2000/svg" xmlns:xlink="http://www.w3.org/1999/xlink">
    <!-- Generator: Sketch 43.2 (39069) - http://www.bohemiancoding.com/sketch -->
    <title>theicons.co/svg/social-31</title>
    <desc>Created with Sketch.</desc>
    <defs></defs>
    <g id="The-Icons" stroke="none" stroke-width="1" fill="none" fill-rule="evenodd">
        <path d="M44,9.99934091 L44,23.9956053 C44,35.0437274 35.0481236,44 24,44 C12.954305,44 4,35.0429086 4,23.9956053 L4,9.99934091 C4,6.68599642 6.68662393,4 9.99922047,4 L38.0007795,4 C41.3140575,4 44,6.68631453 44,9.99934091 Z M9.99922047,8 C8.89547531,8 8,8.89542303 8,9.99934091 L8,23.9956053 C8,32.8342744 15.1639488,40 24,40 C32.837874,40 40,32.8356993 40,23.9956053 L40,9.99934091 C40,8.89529289 39.1047579,8 38.0007795,8 L9.99922047,8 Z M22.5857864,29.4142136 L12.5857864,19.4142136 C11.8047379,18.633165 11.8047379,17.366835 12.5857864,16.5857864 C13.366835,15.8047379 14.633165,15.8047379 15.4142136,16.5857864 L24.0231003,25.1946732 L32.5857864,16.5857864 C33.366835,15.8047379 34.633165,15.8047379 35.4142136,16.5857864 C36.1952621,17.366835 36.1952621,18.633165 35.4142136,19.4142136 L25.4142136,29.4142136 C24.633165,30.1952621 23.366835,30.1952621 22.5857864,29.4142136 Z" id="Combined-Shape" fill="#000000" fill-rule="nonzero"></path>
    </g>
</svg>