<?xml version="1.0" encoding="UTF-8"?>
<svg width="48px" height="48px" viewBox="0 0 48 48" version="1.1" xmlns="http://www.w3.org/2000/svg" xmlns:xlink="http://www.w3.org/1999/xlink">
    <!-- Generator: Sketch 43.2 (39069) - http://www.bohemiancoding.com/sketch -->
    <title>theicons.co/svg/social-06</title>
    <desc>Created with Sketch.</desc>
    <defs></defs>
    <g id="The-Icons" stroke="none" stroke-width="1" fill="none" fill-rule="evenodd">
        <path d="M4,38.0098214 L4,9.99017859 C4,6.6815679 6.68100239,4 9.99017859,4 L38.0098214,4 C41.3184321,4 44,6.68100239 44,9.99017859 L44,38.0098214 C44,41.3184321 41.3189976,44 38.0098214,44 L9.99017859,44 C6.6815679,44 4,41.3189976 4,38.0098214 Z M9.99017859,8 C8.89033027,8 8,8.89051807 8,9.99017859 L8,38.0098214 C8,39.1096697 8.89051807,40 9.99017859,40 L38.0098214,40 C39.1096697,40 40,39.1094819 40,38.0098214 L40,9.99017859 C40,8.89033027 39.1094819,8 38.0098214,8 L9.99017859,8 Z M25,29.5080761 C25,30.3295891 25.6716284,31 26.5,31 C26.8993688,31 27.2708242,30.8452617 27.5513084,30.5707822 C28.3407616,29.7982297 29.6070174,29.8119305 30.3795699,30.6013837 C31.1521224,31.390837 31.1384217,32.6570928 30.3489684,33.4296453 C29.3284542,34.4283121 27.9560949,35 26.5,35 C23.4641126,35 21,32.5403545 21,29.5080761 L21,23 L19.0058587,23 C17.8980535,23 17,22.1122704 17,21 L17,20 C17,19.4477153 17.444797,19 17.9902096,19 L18.034668,19 C18.034668,19 19.1196289,19.0991211 20.0930176,18.1831055 C21.0664062,17.2670898 21,16.0480957 21,16.0480957 L21,15 C21,13.8954305 21.8954305,13 23,13 C24.1045695,13 25,13.8954305 25,15 L25,19 L28.9941413,19 C30.1019465,19 31,19.8877296 31,21 C31,22.1045695 30.1029399,23 28.9941413,23 L25,23 L25,29.5080761 Z" id="Combined-Shape" fill="#000000"></path>
    </g>
</svg>