<?xml version="1.0" encoding="UTF-8"?>
<svg width="48px" height="48px" viewBox="0 0 48 48" version="1.1" xmlns="http://www.w3.org/2000/svg" xmlns:xlink="http://www.w3.org/1999/xlink">
    <!-- Generator: Sketch 43.2 (39069) - http://www.bohemiancoding.com/sketch -->
    <title>theicons.co/svg/social-21</title>
    <desc>Created with Sketch.</desc>
    <defs></defs>
    <g id="The-Icons" stroke="none" stroke-width="1" fill="none" fill-rule="evenodd">
        <path d="M9.64756502,18.2442006 C11.1517154,17.1816111 12.4314891,18.147835 12.7435123,18.966157 L21.1313425,40.7423075 C21.6958806,42.2228832 23.6759471,42.4902522 24.6129525,41.2124305 C24.6443789,41.1695733 24.6443789,41.1695733 24.7920391,40.9679447 C24.993945,40.6920804 25.1064594,40.5382519 25.2966004,40.2780427 C25.8396843,39.5348286 26.4447629,38.7049954 27.0963581,37.8091321 C28.9582541,35.2492541 30.8202408,32.6726459 32.5587204,30.2436901 C32.708616,30.0342181 32.708616,30.0342181 32.8584595,29.8246466 C35.7050897,25.8425033 37.9007239,22.700688 39.2186194,20.6986469 C44.1811453,13.1599759 38.1641422,4.73502343 30.0244287,9.28388692 C29.060212,9.82273757 28.7153847,11.0412144 29.2542354,12.005431 C29.793086,12.9696477 30.9355559,13.1583798 31.9757795,12.7756243 C34.0689517,12.005431 38.1627017,14.8924265 34.9642154,19.6940623 C33.6719252,21.6340759 32.4225266,23.5562005 29.6043924,27.4984808 C29.4552392,27.7070869 29.4552392,27.7070869 29.3060119,27.9156249 C27.5741269,30.3353668 23.5572738,35.8773805 23.5572738,35.8773805 L16.1188027,16.3690066 C14.8538932,13.0516142 11.2508644,12.0281503 8.43243033,14.1821439 L6.78565912,15.4406919 C5.90804347,16.1114114 5.74032096,17.3665849 6.4110404,18.2442006 C7.08175983,19.1218162 8.33693342,19.2895387 9.21454906,18.6188193 L9.64756502,18.2442006 Z" id="Path-7" fill="#000000" fill-rule="nonzero"></path>
    </g>
</svg>