<?xml version="1.0" encoding="UTF-8"?>
<svg width="48px" height="48px" viewBox="0 0 48 48" version="1.1" xmlns="http://www.w3.org/2000/svg" xmlns:xlink="http://www.w3.org/1999/xlink">
    <!-- Generator: Sketch 43.2 (39069) - http://www.bohemiancoding.com/sketch -->
    <title>theicons.co/svg/social-33</title>
    <desc>Created with Sketch.</desc>
    <defs></defs>
    <g id="The-Icons" stroke="none" stroke-width="1" fill="none" fill-rule="evenodd">
        <path d="M16,32.8284271 L16,37.9982567 C16,39.103789 15.1122704,40 14,40 C12.8954305,40 12,39.1107383 12,37.9982567 L12,10.0017433 C12,8.89621101 12.8877296,8 14,8 C15.1045695,8 16,8.88926172 16,10.0017433 L16,27.1715729 L26.5857864,16.5857864 C27.366835,15.8047379 28.633165,15.8047379 29.4142136,16.5857864 C30.1952621,17.366835 30.1952621,18.633165 29.4142136,19.4142136 L20.8284271,28 L29.4142136,36.5857864 C30.1952621,37.366835 30.1952621,38.633165 29.4142136,39.4142136 C28.633165,40.1952621 27.366835,40.1952621 26.5857864,39.4142136 L18,30.8284271 L16,32.8284271 Z M36,32 C33.790861,32 32,30.209139 32,28 C32,25.790861 33.790861,24 36,24 C38.209139,24 40,25.790861 40,28 C40,30.209139 38.209139,32 36,32 Z" id="Combined-Shape" fill="#000000"></path>
    </g>
</svg>