<?xml version="1.0" encoding="UTF-8"?>
<svg width="48px" height="48px" viewBox="0 0 48 48" version="1.1" xmlns="http://www.w3.org/2000/svg" xmlns:xlink="http://www.w3.org/1999/xlink">
    <!-- Generator: Sketch 43.2 (39069) - http://www.bohemiancoding.com/sketch -->
    <title>theicons.co/svg/social-20</title>
    <desc>Created with Sketch.</desc>
    <defs></defs>
    <g id="The-Icons" stroke="none" stroke-width="1" fill="none" fill-rule="evenodd">
        <path d="M10,44 C10,44 9.98992193,36.9069088 9.98992193,36.2731456 C6.193113,32.5476292 4,27.4485747 4,22 C4,10.954305 12.954305,2 24,2 C35.045695,2 44,10.954305 44,22 C44,33.045695 35.045695,42 24,42 C22.4320823,42 20.8868249,41.819175 19.3870089,41.4649317 C19.0386439,41.6785889 13.1094004,45.6641006 13.1094004,45.6641006 C11.7802909,46.5501736 10,45.5973908 10,44 Z M8,22 C8,26.6145021 9.96148793,30.9080436 13.3338276,33.9263693 C13.75773,34.3057722 14,34.8477455 14,35.416639 L14,40.3193359 L17.9292435,37.6434701 C18.4176593,37.3178596 19.0244605,37.2232553 19.5888164,37.3847316 C21.0100737,37.791389 22.4900943,38 24,38 C32.836556,38 40,30.836556 40,22 C40,13.163444 32.836556,6 24,6 C15.163444,6 8,13.163444 8,22 Z M18.2970596,14.2724722 C18.6644832,13.9051403 19.2680637,13.9130074 19.6283066,14.2731603 L22.3187258,16.962908 C22.6927372,17.336826 22.6905407,17.9357361 22.3196971,18.3064871 C21.9462681,18.6798229 21.8085479,19.3687576 22.0063155,19.8510393 C22.0063155,19.8510393 22.3187545,20.9907608 23.6607552,22.3324264 C25.0027558,23.6740921 26.1450853,23.988776 26.1450853,23.988776 C26.6225688,24.1971477 27.3206267,24.0476702 27.6914702,23.6769192 C28.0648992,23.3035835 28.6640048,23.306603 29.0353848,23.6778903 L31.725804,26.3676379 C32.0936078,26.7353499 32.0889547,27.3361808 31.7264924,27.6985526 L30.3773568,29.0473514 C29.2648261,30.1596043 27.3172254,30.327204 26.060285,29.3950992 C26.060285,29.3950992 24.2945221,28.3364674 20.9484753,24.9912558 C17.6024285,21.6460443 16.5981241,19.9431595 16.5981241,19.9431595 C15.6787826,18.6684993 15.8376571,16.7312607 16.947924,15.621271 L18.2970596,14.2724722 Z" id="Combined-Shape" fill="#000000" fill-rule="nonzero"></path>
    </g>
</svg>