<?xml version="1.0" encoding="UTF-8"?>
<svg width="48px" height="48px" viewBox="0 0 48 48" version="1.1" xmlns="http://www.w3.org/2000/svg" xmlns:xlink="http://www.w3.org/1999/xlink">
    <!-- Generator: Sketch 43.2 (39069) - http://www.bohemiancoding.com/sketch -->
    <title>theicons.co/svg/social-15</title>
    <desc>Created with Sketch.</desc>
    <defs></defs>
    <g id="The-Icons" stroke="none" stroke-width="1" fill="none" fill-rule="evenodd">
        <path d="M4,24 C4,12.954305 12.954305,4 24,4 C35.045695,4 44,12.954305 44,24 C44,35.045695 35.045695,44 24,44 C12.954305,44 4,35.045695 4,24 Z M40,24 C40,15.163444 32.836556,8 24,8 C15.163444,8 8,15.163444 8,24 C8,32.836556 15.163444,40 24,40 C32.836556,40 40,32.836556 40,24 Z M16.5519482,19.4638117 C15.9895617,19.5658688 14.6625628,19.8883202 14.596833,19.9088715 C13.5425924,20.2384933 12.4207503,19.6510736 12.0911285,18.596833 C11.7615067,17.5425924 12.3489264,16.4207503 13.403167,16.0911285 C13.8816296,15.9415311 14.7111582,15.7325323 15.8377274,15.5280921 C22.2157806,14.3706575 29.2376525,14.861856 35.8989108,18.2133945 C36.8856258,18.7098492 37.2830603,19.9121958 36.7866055,20.8989108 C36.2901508,21.8856258 35.0878042,22.2830603 34.1010892,21.7866055 C28.3246028,18.8802302 22.1485069,18.448196 16.5519482,19.4638117 Z M17.2504222,25.4856717 C16.7867345,25.5794339 15.705727,25.8720117 15.6587199,25.8884089 C14.6157805,26.2522098 13.4753921,25.7016593 13.1115911,24.6587199 C12.7477902,23.6157805 13.2983407,22.4753921 14.3412801,22.1115911 C14.7636015,21.9642758 15.4839381,21.7619138 16.4576286,21.565024 C22.0274262,20.438756 28.171917,20.9398261 33.9917755,24.2632268 C34.9509689,24.8109693 35.2845157,26.0325822 34.7367732,26.9917755 C34.1890307,27.9509689 32.9674178,28.2845157 32.0082245,27.7367732 C27.1427883,24.9583906 21.9515537,24.5350566 17.2504222,25.4856717 Z M18.2223329,31.4692396 C17.7826703,31.5649245 16.7205827,31.8664691 16.6694333,31.8846377 C15.6285766,32.2543554 14.4850801,31.7102899 14.1153623,30.6694333 C13.7456446,29.6285766 14.2897101,28.4850801 15.3305667,28.1153623 C15.7476218,27.9672222 16.4477489,27.7618149 17.371714,27.56073 C20.3869714,26.9045118 23.5541521,26.7841423 26.5845715,27.5574155 C28.6797854,28.092052 30.5815401,29.0377008 32.2197896,30.4451064 C33.0576342,31.1648912 33.1533406,32.4275993 32.4335558,33.2654439 C31.7137709,34.1032885 30.4510628,34.1989949 29.6132182,33.47921 C28.4626061,32.4907294 27.1162561,31.821256 25.5955799,31.4332245 C23.2557076,30.8361585 20.6817945,30.9339807 18.2223329,31.4692396 Z" id="Combined-Shape" fill="#000000" fill-rule="nonzero"></path>
    </g>
</svg>