<?xml version="1.0" encoding="UTF-8"?>
<svg width="48px" height="48px" viewBox="0 0 48 48" version="1.1" xmlns="http://www.w3.org/2000/svg" xmlns:xlink="http://www.w3.org/1999/xlink">
    <!-- Generator: Sketch 43.2 (39069) - http://www.bohemiancoding.com/sketch -->
    <title>theicons.co/svg/social-03</title>
    <desc>Created with Sketch.</desc>
    <defs></defs>
    <g id="The-Icons" stroke="none" stroke-width="1" fill="none" fill-rule="evenodd">
        <path d="M15.5996288,31.3432038 C16.8870507,32.2134911 16.7335156,34.1553489 15.3253248,34.8125046 C14.7977985,35.0586835 10.108277,36.3251505 10.108277,36.3251505 C11.9766352,37.4256014 14.5953651,38.0001383 18.0191046,38.0001383 C29.0043694,38.0001383 37.0201898,29.9312721 37.0283824,17.8547386 C37.0285239,17.6461855 37.0191046,17.0567137 37.0191046,17.0001383 C37.0191046,12.8414602 34.8379585,9.98027215 31.029523,10.0001112 C27.1939345,10.0200917 25.0191046,12.8607128 25.0191046,17.0001383 C25.0191046,17.2404549 25.012757,18.733159 25.012757,18.9758463 C25.012757,20.1753796 23.9641604,21.1050978 22.7732587,20.9614547 C17.7570764,20.3564175 13.202745,18.1545629 9.68865351,14.7430314 C9.68865351,14.7430314 9.22663279,16.4849939 9.1137381,17.2855811 C9.179079,17.363209 10.4193389,18.6182621 11.126547,19.1232422 C11.6692127,19.5107312 12.256792,19.8620165 12.8900669,20.1683705 C13.884398,20.6493897 14.3005195,21.8453974 13.8195003,22.8397285 C13.3384812,23.8340596 12.1424735,24.2501812 11.1481424,23.769162 C10.5192663,23.4649359 9.92366431,23.1269675 9.36096131,22.7600295 C10.1527358,25.9935044 12.1521133,29.0127099 15.5996288,31.3432038 Z M41.9042941,10.0204785 C43.9205247,9.91223189 44.6291575,11.1666649 43.4659997,12.8234642 L41.0043542,16.3298268 C41.0141699,16.5514014 41.0285625,17.5906841 41.0283815,17.8574521 C41.0186954,32.1355788 31.2189869,42.0001383 18.0191046,42.0001383 C11.5004081,42.0001383 7.28892975,40.2971186 4.38666092,36.323278 C3.52084081,35.1377809 4.1846894,33.4545324 5.62664404,33.179188 C5.69278669,33.1665579 10.3089325,32.1688785 10.3089325,32.1688785 C4.2128302,26.004777 3.65075128,17.2483003 7.25708861,10.1082236 C7.92251028,8.7907756 9.73687421,8.62327056 10.6322507,9.79662308 C13.2247124,13.1939333 16.8673714,15.577306 21.0311488,16.588527 C21.2299186,10.5851282 24.8882057,6.03204851 31.0086863,6.00016547 C34.6592887,5.98114861 37.438396,7.60264274 39.131368,10.1693504 L41.9042941,10.0204785 Z" id="Combined-Shape" fill="#000000"></path>
    </g>
</svg>