<?xml version="1.0" encoding="UTF-8"?>
<svg width="48px" height="48px" viewBox="0 0 48 48" version="1.1" xmlns="http://www.w3.org/2000/svg" xmlns:xlink="http://www.w3.org/1999/xlink">
    <!-- Generator: Sketch 43.2 (39069) - http://www.bohemiancoding.com/sketch -->
    <title>theicons.co/svg/social-36</title>
    <desc>Created with Sketch.</desc>
    <defs></defs>
    <g id="The-Icons" stroke="none" stroke-width="1" fill="none" fill-rule="evenodd">
        <path d="M26.0004343,36.0004343 C26.0004343,37.469014 24.4704865,38.4367793 23.14353,37.8075632 C22.8879562,37.6863753 22.4440722,37.4577664 21.8386356,37.117697 C20.8503154,36.5625645 19.7545696,35.8880814 18.5782137,35.0900687 C15.2319376,32.8200322 11.890311,30.0072696 8.7704854,26.6167335 C5.55977884,23.1154458 3.27420352,19.78285 1.71424991,16.6715611 C0.753137474,14.7546461 0.244071867,13.3034777 0.0494340874,12.4404324 C-0.193570176,11.3629248 0.482928472,10.2924384 1.56043611,10.0494341 C2.63794375,9.80642982 3.70843015,10.4829285 3.95143441,11.5604361 C3.97465219,11.6633863 4.81128962,13.9240187 5.28997552,14.8787459 C6.68526788,17.661622 8.76039508,20.6873636 11.652983,23.8418534 C14.6133669,27.0592277 17.7208975,29.6749436 20.8237785,31.7798665 C21.2277261,32.0538952 21.6204132,32.3115073 22.0004343,32.5528729 L22.0027536,14.0004343 L20.0050729,14.0004343 C18.9005034,14.0004343 18.0050729,13.1050037 18.0050729,12.0004343 C18.0050729,10.8958648 18.9005034,10.0004343 20.0050729,10.0004343 L22.0027536,10.0004343 C24.2123576,10.0004343 26.0004343,11.7946318 26.0004343,14.0053808 L26.0004343,24.0004343 C26.0004343,24.0004343 28.0513392,24.0006385 28.0773062,24.0010455 C30.8741486,23.9745443 34.4587877,22.50753 37.0568979,20.0380855 C37.6156212,19.5070318 38.2477581,18.8300879 38.9363374,18.0303063 C39.3899551,17.5034314 39.8632385,16.9288946 40.3516013,16.3143101 C41.294366,15.1278794 42.2473035,13.8515171 43.1598196,12.574542 C43.4794735,12.1272183 44.2880591,10.9625434 44.3424114,10.8819709 C44.9601216,9.9662702 46.2031968,9.72470116 47.1188976,10.3424114 C48.0345983,10.9601216 48.2761673,12.2031968 47.6584571,13.1188976 C47.5956413,13.2120165 46.7462502,14.4355984 46.4142821,14.9001546 C45.465021,16.2285506 44.4727774,17.5575594 43.4832743,18.8028085 C42.9637717,19.4565812 42.4574833,20.0711841 41.9676403,20.6401344 C41.1984667,21.5335259 40.4787809,22.3042244 39.8126229,22.9373923 C38.5046781,24.1805641 37.0071646,25.2232399 35.4392779,26.0331322 C36.7760729,26.5991216 38.1026981,27.255292 39.281147,27.9646574 C40.3875229,28.6306385 41.5190802,29.4263579 42.6634048,30.3249501 C43.8573564,31.2625123 45.0036976,32.2625556 46.0652981,33.2626408 C46.4372417,33.6130318 47.374769,34.5437379 47.4464318,34.6187356 C48.2095229,35.417338 48.1807353,36.6833407 47.3821329,37.4464318 C46.5835305,38.2095229 45.3175278,38.1807353 44.5544367,37.3821329 C44.5035972,37.3289275 43.6650078,36.4968405 43.3224845,36.1741651 C42.3427512,35.2512032 41.2847198,34.3281995 40.1930027,33.4709179 C39.1706619,32.6681148 38.171366,31.9654024 37.2182567,31.3916799 C34.1026949,29.5162728 29.6390684,28.0406807 28.0633901,28.0012438 C28.0423821,28.0013551 26.0004343,28.0014108 26.0004343,28.0014108 L26.0004343,36.0004343 Z" id="Combined-Shape" fill="#000000" fill-rule="nonzero"></path>
    </g>
</svg>