<?xml version="1.0" encoding="UTF-8"?>
<svg width="48px" height="48px" viewBox="0 0 48 48" version="1.1" xmlns="http://www.w3.org/2000/svg" xmlns:xlink="http://www.w3.org/1999/xlink">
    <!-- Generator: Sketch 43.2 (39069) - http://www.bohemiancoding.com/sketch -->
    <title>theicons.co/svg/social-25</title>
    <desc>Created with Sketch.</desc>
    <defs></defs>
    <g id="The-Icons" stroke="none" stroke-width="1" fill="none" fill-rule="evenodd">
        <path d="M18,20.0085302 C18,18.8992496 18.9019504,18 20.0085302,18 L27.9914698,18 C29.1007504,18 30,18.9019504 30,20.0085302 L30,27.9914698 C30,29.1007504 29.0980496,30 27.9914698,30 L20.0085302,30 C18.8992496,30 18,29.0980496 18,27.9914698 L18,26 L8.12378751,26 C9.10798369,33.8926232 15.8407647,40 24,40 C32.836556,40 40,32.836556 40,24 C40,15.163444 32.836556,8 24,8 C15.8407647,8 9.10798369,14.1073768 8.12378751,22 L18,22 L18,20.0085302 Z M4,24 C4,12.954305 12.954305,4 24,4 C35.045695,4 44,12.954305 44,24 C44,35.045695 35.045695,44 24,44 C12.954305,44 4,35.045695 4,24 Z" id="Combined-Shape" fill="#000000"></path>
    </g>
</svg>