<?xml version="1.0" encoding="UTF-8"?>
<svg width="48px" height="48px" viewBox="0 0 48 48" version="1.1" xmlns="http://www.w3.org/2000/svg" xmlns:xlink="http://www.w3.org/1999/xlink">
    <!-- Generator: Sketch 43.2 (39069) - http://www.bohemiancoding.com/sketch -->
    <title>theicons.co/svg/social-18</title>
    <desc>Created with Sketch.</desc>
    <defs></defs>
    <g id="The-Icons" stroke="none" stroke-width="1" fill="none" fill-rule="evenodd">
        <path d="M24,38 C16.2680135,38 10,31.7319865 10,24 C10,16.2680135 16.2680135,10 24,10 C27.1935835,10 30.2184971,11.0699998 32.6710718,13.0076891 C33.5377808,13.6924441 34.7954908,13.5449412 35.4802457,12.6782322 C36.1650007,11.8115233 36.0174978,10.5538133 35.1507888,9.86905832 C31.9982354,7.37834151 28.101633,6 24,6 C14.0588745,6 6,14.0588745 6,24 C6,33.9411255 14.0588745,42 24,42 C33.9411255,42 42,33.9411255 42,24 C42,22.8954305 41.1045695,22 40,22 L25.9940603,22 C24.8945138,22 24,22.8954305 24,24 C24,25.1122704 24.8927712,26 25.9940603,26 L37.8582223,26 C36.887763,32.7845883 31.0529438,38 24,38 Z" id="Combined-Shape" fill="#000000" fill-rule="nonzero"></path>
    </g>
</svg>