<?xml version="1.0" encoding="UTF-8"?>
<svg width="48px" height="48px" viewBox="0 0 48 48" version="1.1" xmlns="http://www.w3.org/2000/svg" xmlns:xlink="http://www.w3.org/1999/xlink">
    <!-- Generator: Sketch 43.2 (39069) - http://www.bohemiancoding.com/sketch -->
    <title>theicons.co/svg/social-22</title>
    <desc>Created with Sketch.</desc>
    <defs></defs>
    <g id="The-Icons" stroke="none" stroke-width="1" fill="none" fill-rule="evenodd">
        <path d="M32.4978688,9.38540561 C29.987318,10.4199185 28.0718343,11.9634392 26.878785,14.1347945 C32.005065,14.6183996 36.6081391,16.3773084 40.0127821,18.9900646 C40.8462419,18.3681664 41.880126,18 43,18 C45.7614237,18 48,20.2385763 48,23 C48,24.7764835 47.0735369,26.33658 45.6774179,27.2234821 C45.889391,28.122502 46,29.0499315 46,30 C46,39.0204013 36.0291448,46 24,46 C11.9708552,46 2,39.0204013 2,30 C2,29.0499315 2.11060903,28.122502 2.32258213,27.2234821 C0.926463133,26.33658 0,24.7764835 0,23 C0,20.2385763 2.23857625,18 5,18 C6.119874,18 7.15375814,18.3681664 7.98721793,18.9900646 C11.7014834,16.139701 16.8420653,14.3055464 22.5322596,14.034814 C24.0321075,10.0507334 27.0136759,7.31896672 30.9739166,5.68708578 C32.7153287,4.96950889 34.5521862,4.50459853 36.4062037,4.24163737 C37.0569898,2.91404243 38.4217519,2 40,2 C42.209139,2 44,3.790861 44,6 C44,8.209139 42.209139,10 40,10 C38.6223973,10 37.4074494,9.30359198 36.6880009,8.24362048 C35.2406164,8.4684149 33.8200203,8.8405918 32.4978688,9.38540561 Z M6,30 C6,36.4435717 13.9377548,42 24,42 C34.0622452,42 42,36.4435717 42,30 C42,23.5564283 34.0622452,18 24,18 C13.9377548,18 6,23.5564283 6,30 Z M17.431274,36.8824874 C16.2413167,36.4472566 15.3833764,35.9960037 14.8827845,35.6588639 C13.9666192,35.0418428 13.724115,33.7989497 14.3411361,32.8827845 C14.9581572,31.9666192 16.2010503,31.724115 17.1172155,32.3411361 C17.1518907,32.3644892 18.290577,32.9376246 18.8052678,33.1258744 C20.3089956,33.6758679 22.0488062,34.0083618 24,34.0083618 C25.9511938,34.0083618 27.6910044,33.6758679 29.1947322,33.1258744 C29.709423,32.9376246 30.8481093,32.3644892 30.8827845,32.3411361 C31.7989497,31.724115 33.0418428,31.9666192 33.6588639,32.8827845 C34.275885,33.7989497 34.0333808,35.0418428 33.1172155,35.6588639 C32.6166236,35.9960037 31.7586833,36.4472566 30.568726,36.8824874 C28.6405614,37.58772 26.4395075,38.0083618 24,38.0083618 C21.5604925,38.0083618 19.3594386,37.58772 17.431274,36.8824874 Z M18,30 C16.3431458,30 15,28.6568542 15,27 C15,25.3431458 16.3431458,24 18,24 C19.6568542,24 21,25.3431458 21,27 C21,28.6568542 19.6568542,30 18,30 Z M30,30 C28.3431458,30 27,28.6568542 27,27 C27,25.3431458 28.3431458,24 30,24 C31.6568542,24 33,25.3431458 33,27 C33,28.6568542 31.6568542,30 30,30 Z" id="Combined-Shape" fill="#000000"></path>
    </g>
</svg>