<?xml version="1.0" encoding="UTF-8"?>
<svg width="48px" height="48px" viewBox="0 0 48 48" version="1.1" xmlns="http://www.w3.org/2000/svg" xmlns:xlink="http://www.w3.org/1999/xlink">
    <!-- Generator: Sketch 43.2 (39069) - http://www.bohemiancoding.com/sketch -->
    <title>theicons.co/svg/social-16</title>
    <desc>Created with Sketch.</desc>
    <defs></defs>
    <g id="The-Icons" stroke="none" stroke-width="1" fill="none" fill-rule="evenodd">
        <path d="M18,15.6618609 C18,15.1069603 18.3092258,14.3394486 18.6906751,13.9424611 C18.6906751,13.9424611 19.1337725,13.4419319 19.7797893,12.9182459 C22.030286,11.093907 24.8873952,10 28,10 C34.8432298,10 40.4514855,15.2875523 41,22 C44.8659932,22 48,25.1340068 48,29 C48,32.8659932 44.8659932,36 41,36 L20.0008642,36 C18.9016273,36 18,35.1012135 18,33.9925041 L18,15.6618609 Z M41,32 C42.6568542,32 44,30.6568542 44,29 C44,27.3431458 42.6568542,26 41,26 L39.0066443,26 C37.9057443,26 37.0132885,25.1105734 37.0132885,23.9908842 L37.0132885,22.3257782 C36.6304261,17.640499 32.7118068,14 28,14 C24.6271973,14 22,16.2954712 22,16.2954712 L22,32.0004272 L41,32 Z M12,19.9950893 C12,18.8932319 12.8877296,18 14,18 C15.1045695,18 16,18.8926228 16,19.9950893 L16,34.0049107 C16,35.1067681 15.1122704,36 14,36 C12.8954305,36 12,35.1073772 12,34.0049107 L12,19.9950893 Z M6,24.0058587 C6,22.8980535 6.88772964,22 8,22 C9.1045695,22 10,22.8970601 10,24.0058587 L10,33.9941413 C10,35.1019465 9.11227036,36 8,36 C6.8954305,36 6,35.1029399 6,33.9941413 L6,24.0058587 Z M0,26.992017 C0,25.8918564 0.887729645,25 2,25 C3.1045695,25 4,25.9001762 4,26.992017 L4,34.007983 C4,35.1081436 3.11227036,36 2,36 C0.8954305,36 0,35.0998238 0,34.007983 L0,26.992017 Z" id="Combined-Shape" fill="#000000"></path>
    </g>
</svg>