<?xml version="1.0" encoding="UTF-8"?>
<svg width="48px" height="48px" viewBox="0 0 48 48" version="1.1" xmlns="http://www.w3.org/2000/svg" xmlns:xlink="http://www.w3.org/1999/xlink">
    <!-- Generator: Sketch 43.2 (39069) - http://www.bohemiancoding.com/sketch -->
    <title>theicons.co/svg/social-14</title>
    <desc>Created with Sketch.</desc>
    <defs></defs>
    <g id="The-Icons" stroke="none" stroke-width="1" fill="none" fill-rule="evenodd">
        <path d="M23,24 L25,24 C26.10085,24 27,23.1015475 27,22 C27,20.89915 26.1015475,20 25,20 L23,20 L23,24 Z M23,30.0059397 C23,31.1072288 22.1122704,32 21,32 C19.8954305,32 19,31.1054862 19,30.0059397 L19,17 C19,16.4438648 19.4435864,16 19.990778,16 L25,16 C28.3137085,16 31,18.6930342 31,22 C31,25.3137085 28.3069658,28 25,28 L23,28 L23,30.0059397 Z M4,24 C4,12.954305 12.954305,4 24,4 C35.045695,4 44,12.954305 44,24 C44,35.045695 35.045695,44 24,44 C12.954305,44 4,35.045695 4,24 Z M40,24 C40,15.163444 32.836556,8 24,8 C15.163444,8 8,15.163444 8,24 C8,32.836556 15.163444,40 24,40 C32.836556,40 40,32.836556 40,24 Z" id="Combined-Shape" fill="#000000" fill-rule="nonzero"></path>
    </g>
</svg>