<?xml version="1.0" encoding="UTF-8"?>
<svg width="48px" height="48px" viewBox="0 0 48 48" version="1.1" xmlns="http://www.w3.org/2000/svg" xmlns:xlink="http://www.w3.org/1999/xlink">
    <!-- Generator: Sketch 43.2 (39069) - http://www.bohemiancoding.com/sketch -->
    <title>theicons.co/svg/social-38</title>
    <desc>Created with Sketch.</desc>
    <defs></defs>
    <g id="The-Icons" stroke="none" stroke-width="1" fill="none" fill-rule="evenodd">
        <path d="M14.000385,40 C15.1047419,40 16,40.8877296 16,42 C16,43.1045695 15.1125667,44 14.000385,44 L7.99961498,44 C6.89525812,44 6,43.1122704 6,42 C6,40.8954305 6.88743329,40 7.99961498,40 L9,40 L9,26 L6.00247329,26 C4.34664544,26 3,24.6672246 3,23.0034652 L3,16.0067025 C3,11.5872048 6.5859835,8 11,8 C13.9614696,8 16.5457658,9.60796491 17.9289,12 L21,12 L21,7.00247329 C21,5.34449704 22.3509248,4 24.0024733,4 L33.9975267,4 C35.655503,4 37,5.35092483 37,7.00247329 L37,12 L42.004543,12 C43.6585388,12 45,13.3506985 45,14.9953976 L45,23.0046024 C45,24.656582 43.6559285,26 42.009222,26 L39,26 L39,41.0066023 C39,42.6632915 37.6564641,44 35.9991283,44 L22.0008717,44 C20.3468852,44 19,42.6629988 19,41.0066023 L19,26 L13,26 L13,40 L14.000385,40 Z M28,33.999615 C28,32.8952581 28.8877296,32 30,32 C31.1045695,32 32,32.8874333 32,33.999615 L32,40 L35,40 L35,24.9933977 C35,23.3415508 36.337839,22 37.990778,22 L41,22 L41,16 L37,16 L37,16.9975267 C37,18.655503 35.6490752,20 33.9975267,20 L24.0024733,20 C22.344497,20 21,18.6490752 21,16.9975267 L21,16 L18.9999973,16 L19,22 L20.0010434,22 C21.6592503,22 23,23.3375319 23,24.9933977 L23,40 L28,40 L28,33.999615 Z M25,16 L33,16 L33,8 L25,8 L25,16 Z M15,22 L15,16.0067025 C15,13.7906271 13.2104378,12 11,12 C8.79542746,12 7,13.7960389 7,16.0067025 L7,22 L15,22 Z" id="Combined-Shape" fill="#000000"></path>
    </g>
</svg>