<?xml version="1.0" encoding="UTF-8"?>
<svg width="48px" height="48px" viewBox="0 0 48 48" version="1.1" xmlns="http://www.w3.org/2000/svg" xmlns:xlink="http://www.w3.org/1999/xlink">
    <!-- Generator: Sketch 43.2 (39069) - http://www.bohemiancoding.com/sketch -->
    <title>theicons.co/svg/social-35</title>
    <desc>Created with Sketch.</desc>
    <defs></defs>
    <g id="The-Icons" stroke="none" stroke-width="1" fill="none" fill-rule="evenodd">
        <path d="M23.523677,22 C26.8373855,22 29.523677,19.3137085 29.523677,16 C29.523677,12.6862915 26.8373855,10 23.523677,10 C20.2099685,10 17.523677,12.6862915 17.523677,16 C17.523677,19.3137085 20.2099685,22 23.523677,22 Z M35.3675677,29.5547137 C36.199079,28.8276218 36.2837276,27.5641242 35.5566357,26.7326129 C34.8295437,25.9011016 33.5660461,25.8164529 32.7345348,26.5435449 C30.2003684,28.7594762 26.9608314,30 23.523677,30 C20.0880277,30 16.8498085,28.7605694 14.3160814,26.5463965 C13.4843465,25.8195603 12.220875,25.9045974 11.4940388,26.7363323 C10.7672025,27.5680671 10.8522396,28.8315386 11.6839745,29.5583749 C14.0655014,31.639543 16.9365813,33.0525461 20.0338875,33.6613623 L14.1094634,39.5857864 C13.3284148,40.366835 13.3284148,41.633165 14.1094634,42.4142136 C14.890512,43.1952621 16.1568419,43.1952621 16.9378905,42.4142136 L23.523677,35.8284271 L30.1094634,42.4142136 C30.890512,43.1952621 32.1568419,43.1952621 32.9378905,42.4142136 C33.7189391,41.633165 33.7189391,40.366835 32.9378905,39.5857864 L27.013466,33.6613619 C30.1126154,33.052183 32.9852502,31.637865 35.3675677,29.5547137 Z M23.523677,26 C18.0008295,26 13.523677,21.5228475 13.523677,16 C13.523677,10.4771525 18.0008295,6 23.523677,6 C29.0465245,6 33.523677,10.4771525 33.523677,16 C33.523677,21.5228475 29.0465245,26 23.523677,26 Z" id="Combined-Shape" fill="#000000" fill-rule="nonzero"></path>
    </g>
</svg>