<?xml version="1.0" encoding="UTF-8"?>
<svg width="48px" height="48px" viewBox="0 0 48 48" version="1.1" xmlns="http://www.w3.org/2000/svg" xmlns:xlink="http://www.w3.org/1999/xlink">
    <!-- Generator: Sketch 43.2 (39069) - http://www.bohemiancoding.com/sketch -->
    <title>theicons.co/svg/social-01</title>
    <desc>Created with Sketch.</desc>
    <defs></defs>
    <g id="The-Icons" stroke="none" stroke-width="1" fill="none" fill-rule="evenodd">
        <path d="M31.0398874,10.9512898 C34.4322285,10.9512898 37.611916,12.4225362 39.6287835,15.3381701 C40.2561711,16.2451372 40.0329567,17.4893754 39.129553,18.1209732 C37.2274688,19.4507797 36.0034534,21.6876022 36.0034534,23.9704787 C36.0034534,26.4778828 37.5501959,28.8162968 39.9387147,30.0883527 C40.814505,30.5547732 41.216624,31.5934668 40.8836344,32.5291279 C38.6791912,38.7233501 33.8659946,44 30.0397722,44 C26.524231,44 25.4921265,42.9985239 24,42.9985239 C22.5078735,42.9985239 21.463501,44 18.0013803,44 C12.5354042,44 6.01204466,33.9596832 6,24.9659663 C6.01187472,16.1044438 10.6785121,10.9512898 17.0012651,10.9512898 C19.1426063,10.9512898 21.6448779,11.4760132 24.0390812,13.0108439 C26.3879335,11.4760132 28.8999533,10.9512898 31.0398874,10.9512898 Z M32.0029927,23.9704787 C32.0029927,21.1475876 33.1574836,18.4183501 35.1181933,16.3086915 C33.9862402,15.4098058 32.5677861,14.9571941 31.0398874,14.9571941 C28.3294067,14.9571941 25.6024677,16.6649727 25.1980882,16.7833304 C24.8044349,16.8985487 24.4095678,16.9601462 24.0020713,16.9601462 C23.6214912,16.9601462 23.2515124,16.9051112 22.8834616,16.8019375 C22.4657187,16.684834 19.7959595,14.9571941 17.0012651,14.9571941 C12.9791216,14.9571941 10.0094821,18.236431 10.0004571,24.9659663 C10.0054019,28.6560229 11.2732477,32.5388695 13.3300251,35.704523 C14.2318217,37.0925078 15.2317212,38.2468075 16.1862824,39.028994 C16.9854978,39.6838871 17.6536525,39.9940957 18.0013803,39.9940957 C20.4622803,39.9940957 22.0796883,38.9926197 24.0390812,38.9926197 C25.9984741,38.9926197 27.4918823,39.9940957 30.0397722,39.9940957 C30.6420339,39.9940957 31.9232033,39.1935361 33.2571469,37.7311497 C34.5179894,36.3489031 35.66697,34.5755739 36.5292566,32.6457194 C33.7374454,30.5103301 32.0029927,27.381084 32.0029927,23.9704787 Z M31.9527977,2.93097752 C31.9527977,2.93097752 32.0456743,5.95752958 30.0027623,7.94686159 C28.0591049,9.92079003 25.0074129,9.85335914 25.0074129,9.85335914 C24.4584216,9.89588579 24.0317098,9.4655722 24.0601384,8.91558234 C24.0601384,8.91558234 23.9569611,5.92777239 26.0023017,3.93845118 C28.0476422,1.94912998 31.0030766,2.00365605 31.0030766,2.00365605 C31.5651756,1.95586802 31.9821379,2.38257404 31.9527977,2.93097752 Z" id="Combined-Shape" fill="#000000" fill-rule="nonzero"></path>
    </g>
</svg>