<?xml version="1.0" encoding="UTF-8"?>
<svg width="48px" height="48px" viewBox="0 0 48 48" version="1.1" xmlns="http://www.w3.org/2000/svg" xmlns:xlink="http://www.w3.org/1999/xlink">
    <!-- Generator: Sketch 43.2 (39069) - http://www.bohemiancoding.com/sketch -->
    <title>theicons.co/svg/social-12</title>
    <desc>Created with Sketch.</desc>
    <defs></defs>
    <g id="The-Icons" stroke="none" stroke-width="1" fill="none" fill-rule="evenodd">
        <path d="M27.3986665,34.0200195 C31.9476644,34.0200195 35.6914758,31.528804 37.6666246,28.1634632 C39.2703365,25.4309921 39.9758149,22.6181633 39.9758149,19 C39.9758149,9.66291722 33.3519186,4 23.9758149,4 C14.9987003,4 8.00132761,10.4074756 8.00132761,19.1223145 C7.99085312,19.6385572 8.04098925,20.3646719 8.20064761,21.2245171 C8.45000108,22.5674182 8.91362101,23.9041706 9.64969971,25.1646697 C10.431238,26.5030161 11.4790994,27.6773116 12.8156603,28.6291228 C13.7153999,29.2698585 14.964202,29.0598943 15.6049377,28.1601547 C16.2456735,27.260415 16.0357093,26.0116129 15.1359696,25.3708772 C14.274675,24.7575196 13.6072226,24.0095329 13.1038756,23.1475755 C12.2597002,21.701966 11.9807743,20.1998017 12.0003459,19.1848279 C12.0013276,12.6990938 17.1330382,8 23.9758149,8 C31.2697429,8 35.9758149,12.0233263 35.9758149,19 C35.9758149,21.9313272 35.4456454,24.0451782 34.2168899,26.1387829 C32.9151468,28.3567471 30.4155724,30.0200195 27.3986665,30.0200195 C24.5708775,30.0200195 23.2090335,28.8072822 22.3476959,26.2856456 C22.3351129,26.2488078 24.9070464,16.5199469 24.9070464,16.5199469 C25.1942052,15.4533572 24.2882542,13.7930181 23.2216645,13.5058594 C22.1550748,13.2187006 20.0032807,13.7029534 19.241562,16.717041 C18.52204,19.5641579 19.5925423,20.8733487 18.8665217,23.5699965 L14.0445834,41.4800531 C13.7574246,42.5466428 14.3892782,43.6440727 15.455868,43.9312315 C16.5224577,44.2183903 17.6198877,43.5865367 17.9070464,42.5199469 L20.8634696,31.5389466 C22.4037563,33.1294923 24.5352339,34.0200195 27.3986665,34.0200195 Z" id="Combined-Shape" fill="#000000" fill-rule="nonzero"></path>
    </g>
</svg>