<?xml version="1.0" encoding="UTF-8"?>
<svg width="48px" height="48px" viewBox="0 0 48 48" version="1.1" xmlns="http://www.w3.org/2000/svg" xmlns:xlink="http://www.w3.org/1999/xlink">
    <!-- Generator: Sketch 43.2 (39069) - http://www.bohemiancoding.com/sketch -->
    <title>theicons.co/svg/social-08</title>
    <desc>Created with Sketch.</desc>
    <defs></defs>
    <g id="The-Icons" stroke="none" stroke-width="1" fill="none" fill-rule="evenodd">
        <path d="M4,38.0098214 L4,9.99017859 C4,6.6815679 6.68100239,4 9.99017859,4 L38.0098214,4 C41.3184321,4 44,6.68100239 44,9.99017859 L44,38.0098214 C44,41.3184321 41.3189976,44 38.0098214,44 L9.99017859,44 C6.6815679,44 4,41.3189976 4,38.0098214 Z M9.99017859,8 C8.89033027,8 8,8.89051807 8,9.99017859 L8,38.0098214 C8,39.1096697 8.89051807,40 9.99017859,40 L38.0098214,40 C39.1096697,40 40,39.1094819 40,38.0098214 L40,9.99017859 C40,8.89033027 39.1094819,8 38.0098214,8 L9.99017859,8 Z M14,22.0058587 C14,20.8980535 14.8877296,20 16,20 C17.1045695,20 18,20.8970601 18,22.0058587 L18,31.9941413 C18,33.1019465 17.1122704,34 16,34 C14.8954305,34 14,33.1029399 14,31.9941413 L14,22.0058587 Z M16,18 C14.8954305,18 14,17.1045695 14,16 C14,14.8954305 14.8954305,14 16,14 C17.1045695,14 18,14.8954305 18,16 C18,17.1045695 17.1045695,18 16,18 Z M25,26.5004946 L25,32 C25,33.1045695 24.1045695,34 23,34 C21.8954305,34 21,33.1045695 21,32 L21,26.5004946 C21,22.9118177 23.9137577,20 27.5,20 C31.0876833,20 34,22.916225 34,26.5004946 L34,32 C34,33.1045695 33.1045695,34 32,34 C30.8954305,34 30,33.1045695 30,32 L30,26.5004946 C30,25.1241641 28.8773425,24 27.5,24 C26.1223005,24 25,25.1215533 25,26.5004946 Z" id="Combined-Shape" fill="#000000" fill-rule="nonzero"></path>
    </g>
</svg>