<?xml version="1.0" encoding="UTF-8"?>
<svg width="48px" height="48px" viewBox="0 0 48 48" version="1.1" xmlns="http://www.w3.org/2000/svg" xmlns:xlink="http://www.w3.org/1999/xlink">
    <!-- Generator: Sketch 43.2 (39069) - http://www.bohemiancoding.com/sketch -->
    <title>theicons.co/svg/social-02</title>
    <desc>Created with Sketch.</desc>
    <defs></defs>
    <g id="The-Icons" stroke="none" stroke-width="1" fill="none" fill-rule="evenodd">
        <path d="M24,3.97570824 C25.5588752,3.97570824 27.0582427,4.23060132 28.4587322,4.70091662 C28.5010487,4.64987917 28.5462897,4.60045922 28.5944537,4.55288025 L30.5944537,2.57717224 C31.3802599,1.80091043 32.6465662,1.8086477 33.422828,2.5944539 C34.1990898,3.38026011 34.1913525,4.64656643 33.4055463,5.42282823 L32.1918275,6.62180523 C35.7104124,9.16492085 38,13.3026028 38,17.971549 L38,35.9855297 C38,38.1892444 36.2058797,39.9757082 34.0031611,39.9757082 L32,39.9757082 L32,43.9760933 C32,45.0804501 31.1122704,45.9757082 30,45.9757082 C28.8954305,45.9757082 28,45.088275 28,43.9760933 L28,39.9757082 L20,39.9757082 L20,43.9760933 C20,45.0804501 19.1122704,45.9757082 18,45.9757082 C16.8954305,45.9757082 16,45.088275 16,43.9760933 L16,39.9757082 L13.9968389,39.9757082 C11.7894457,39.9757082 10,38.1904626 10,35.9855297 L10,17.971549 C10,13.2999879 12.2888224,9.16299609 15.8071029,6.62074863 L14.5944537,5.42282823 C13.8086475,4.64656643 13.8009102,3.38026011 14.577172,2.5944539 C15.3534338,1.8086477 16.6197401,1.80091043 17.4055463,2.57717224 L19.4055463,4.55288025 C19.4535467,4.60029757 19.4986438,4.64954339 19.5408364,4.7003965 C20.9413699,4.23038839 22.4408652,3.97570824 24,3.97570824 Z M34.0031611,35.9757082 L34.0000865,19.9757082 L14,19.9757082 L14,35.9855297 L34.0031611,35.9757082 Z M31,13.9757082 C29.8954305,13.9757082 29,13.0802777 29,11.9757082 C29,11.1516738 29.4983524,10.4440357 30.2101092,10.1377421 C28.5041024,8.78434751 26.3461865,7.97570824 24,7.97570824 C21.6524041,7.97570824 19.4941308,8.78387003 17.788241,10.1370331 C18.5008774,10.4429425 19,11.1510372 19,11.9757082 C19,13.0802777 18.1045695,13.9757082 17,13.9757082 C16.2841019,13.9757082 15.6560558,13.5995694 15.3027072,13.0341374 C14.7891276,13.9362741 14.4119766,14.9261451 14.1992857,15.9757082 L33.8004011,15.9757082 C33.587536,14.9267781 33.2102144,13.9372966 32.6965198,13.0353733 C32.3430288,13.6001175 31.7153763,13.9757082 31,13.9757082 Z M40,17.9697685 C40,16.8684794 40.8877296,15.9757082 42,15.9757082 C43.1045695,15.9757082 44,16.870222 44,17.9697685 L44,29.981648 C44,31.082937 43.1122704,31.9757082 42,31.9757082 C40.8954305,31.9757082 40,31.0811945 40,29.981648 L40,17.9697685 Z M4,17.9697685 C4,16.8684794 4.88772964,15.9757082 6,15.9757082 C7.1045695,15.9757082 8,16.870222 8,17.9697685 L8,29.981648 C8,31.082937 7.11227036,31.9757082 6,31.9757082 C4.8954305,31.9757082 4,31.0811945 4,29.981648 L4,17.9697685 Z" id="Combined-Shape" fill="#000000"></path>
    </g>
</svg>