<?xml version="1.0" encoding="UTF-8"?>
<svg width="48px" height="48px" viewBox="0 0 48 48" version="1.1" xmlns="http://www.w3.org/2000/svg" xmlns:xlink="http://www.w3.org/1999/xlink">
    <!-- Generator: Sketch 43.2 (39069) - http://www.bohemiancoding.com/sketch -->
    <title>theicons.co/svg/social-26</title>
    <desc>Created with Sketch.</desc>
    <defs></defs>
    <g id="The-Icons" stroke="none" stroke-width="1" fill="none" fill-rule="evenodd">
        <path d="M32.9186161,36.7886885 C29.6826696,40.6292497 25.6043819,44 24,44 C22.3956181,44 18.3173304,40.6292497 15.0813839,36.7886885 C10.6897108,31.5764609 8,25.8428817 8,20 C8,11.163444 15.163444,4 24,4 C32.836556,4 40,11.163444 40,20 C40,25.8428817 37.3102892,31.5764609 32.9186161,36.7886885 Z M22.6488636,38.7083977 C23.2422247,39.1988172 24,39.7487515 24,39.7487515 C24,39.7487515 24.8427526,39.1285826 25.3511364,38.7083977 C26.826414,37.4890643 28.4117982,35.9297128 29.8596737,34.2113115 C33.6986091,29.6550971 36,24.7492882 36,20 C36,13.372583 30.627417,8 24,8 C17.372583,8 12,13.372583 12,20 C12,24.7492882 14.3013909,29.6550971 18.1403263,34.2113115 C19.5882018,35.9297128 21.173586,37.4890643 22.6488636,38.7083977 Z M18.9634676,18.9416347 C18.9634676,18.9416347 19.7546997,20 21,20 C22.8000183,20 24,18.6568542 24,17 C24,15.4571533 22.992726,14.9206785 22.992726,14.9206785 C22.5907247,14.5430087 22.6693406,14.1808769 23.2073685,14.0778885 C23.2073685,14.0778885 23.3850689,14 24,14 C27.3137085,14 30,16.6862915 30,20 C30,23.3137085 27.3137085,26 24,26 C20.6862915,26 18,23.3137085 18,20 C18,19.3850689 18.0778885,19.2073685 18.0778885,19.2073685 C18.1719033,18.6749529 18.5773642,18.5503675 18.9634676,18.9416347 Z" id="Combined-Shape" fill="#000000" fill-rule="nonzero"></path>
    </g>
</svg>