<?xml version="1.0" encoding="UTF-8"?>
<svg width="48px" height="48px" viewBox="0 0 48 48" version="1.1" xmlns="http://www.w3.org/2000/svg" xmlns:xlink="http://www.w3.org/1999/xlink">
    <!-- Generator: Sketch 43.2 (39069) - http://www.bohemiancoding.com/sketch -->
    <title>theicons.co/svg/social-04</title>
    <desc>Created with Sketch.</desc>
    <defs></defs>
    <g id="The-Icons" stroke="none" stroke-width="1" fill="none" fill-rule="evenodd">
        <path d="M13.9905068,4 L34.0094932,4 C39.5270978,4 44,8.47207592 44,13.9905068 L44,34.0094932 C44,39.5270978 39.5279241,44 34.0094932,44 L13.9905068,44 C8.47290224,44 4,39.5279241 4,34.0094932 L4,13.9905068 C4,8.47290224 8.47207592,4 13.9905068,4 Z M8,34.0094932 C8,37.3184485 10.6817047,40 13.9905068,40 L34.0094932,40 C37.3184485,40 40,37.3182953 40,34.0094932 L40,13.9905068 C40,10.6815515 37.3182953,8 34.0094932,8 L13.9905068,8 C10.6815515,8 8,10.6817047 8,13.9905068 L8,34.0094932 Z M14,24 C14,18.4771525 18.4771525,14 24,14 C29.5228475,14 34,18.4771525 34,24 C34,29.5228475 29.5228475,34 24,34 C18.4771525,34 14,29.5228475 14,24 Z M30,24 C30,20.6862915 27.3137085,18 24,18 C20.6862915,18 18,20.6862915 18,24 C18,27.3137085 20.6862915,30 24,30 C27.3137085,30 30,27.3137085 30,24 Z M34,16 C32.8954305,16 32,15.1045695 32,14 C32,12.8954305 32.8954305,12 34,12 C35.1045695,12 36,12.8954305 36,14 C36,15.1045695 35.1045695,16 34,16 Z" id="Combined-Shape" fill="#000000"></path>
    </g>
</svg>