<?xml version="1.0" encoding="UTF-8"?>
<svg width="48px" height="48px" viewBox="0 0 48 48" version="1.1" xmlns="http://www.w3.org/2000/svg" xmlns:xlink="http://www.w3.org/1999/xlink">
    <!-- Generator: Sketch 43.2 (39069) - http://www.bohemiancoding.com/sketch -->
    <title>theicons.co/svg/social-19</title>
    <desc>Created with Sketch.</desc>
    <defs></defs>
    <g id="The-Icons" stroke="none" stroke-width="1" fill="none" fill-rule="evenodd">
        <path d="M10,44 C10,44 10,38.0582344 10.0121767,37.4406696 C4.99883845,33.6864146 2,28.0785515 2,22 C2,10.9045748 11.893972,2 24,2 C36.106028,2 46,10.9045748 46,22 C46,33.0954252 36.106028,42 24,42 C22.3936152,42 20.8087667,41.8433404 19.265403,41.5357253 C18.9761353,41.7189941 13.1094004,45.6641006 13.1094004,45.6641006 C11.7802909,46.5501736 10,45.5973908 10,44 Z M6,22 C6,27.0489951 8.65453003,31.7256028 13.1201022,34.7444022 C13.6703155,35.1163553 14,35.7371768 14,36.4013183 L14,40.2858276 L17.7800781,37.7429138 C18.2419181,37.4350204 18.8109407,37.3329058 19.3510211,37.4609983 C20.8540767,37.8174827 22.4126266,38 24,38 C33.9853619,38 42,30.7868258 42,22 C42,13.2131742 33.9853619,6 24,6 C14.0146381,6 6,13.2131742 6,22 Z M24.3358994,26.1094004 L21.4941797,21.8793652 L15.2,26.6 C14.3163444,27.2627417 13.0627417,27.0836556 12.4,26.2 C11.7372583,25.3163444 11.9163444,24.0627417 12.8,23.4 L20.8,17.4 C21.7185359,16.7110981 23.0272105,16.9352645 23.6641006,17.8905996 L26.5021415,22.1476609 L32.8,17.4 C33.6836556,16.7372583 34.9372583,16.9163444 35.6,17.8 C36.2627417,18.6836556 36.0836556,19.9372583 35.2,20.6 L27.2,26.6 C26.2814641,27.2889019 24.9727895,27.0647355 24.3358994,26.1094004 Z" id="Combined-Shape" fill="#000000" fill-rule="nonzero"></path>
    </g>
</svg>