<?xml version="1.0" encoding="UTF-8"?>
<svg width="48px" height="48px" viewBox="0 0 48 48" version="1.1" xmlns="http://www.w3.org/2000/svg" xmlns:xlink="http://www.w3.org/1999/xlink">
    <!-- Generator: Sketch 43.2 (39069) - http://www.bohemiancoding.com/sketch -->
    <title>theicons.co/svg/social-17</title>
    <desc>Created with Sketch.</desc>
    <defs></defs>
    <g id="The-Icons" stroke="none" stroke-width="1" fill="none" fill-rule="evenodd">
        <path d="M19,21.8631413 L19,11.7252082 L8,13.5785954 L7.98629844,21.8631413 L19,21.8631413 Z M7.96600018,34.1363377 L19,36.0103269 L19,25.8631413 L7.97968297,25.8631413 L7.96600018,34.1363377 Z M40.0883626,8.17203551 L23,11.0512493 L23,21.8631413 L40.051191,21.8631413 L40.0883626,8.17203551 Z M40.0403309,25.8631413 L23,25.8631413 L23,36.6896777 L40.0030963,39.5774445 L40.0403309,25.8631413 Z M4,34.8666065 L4,12.8596761 C4,11.318687 5.17407471,9.96465524 6.69208863,9.73695315 L40.7145496,4.03358401 C42.4746176,3.7695738 44,5.09442726 44,6.87191645 L44,40.8543661 C44,42.6295552 42.4679374,43.9557067 40.7145496,43.6926986 L6.69208863,37.9893294 C5.16756252,37.7606505 4,36.4139641 4,34.8666065 Z" id="Combined-Shape" fill="#000000"></path>
    </g>
</svg>