<?xml version="1.0" encoding="UTF-8"?>
<svg width="48px" height="48px" viewBox="0 0 48 48" version="1.1" xmlns="http://www.w3.org/2000/svg" xmlns:xlink="http://www.w3.org/1999/xlink">
    <!-- Generator: Sketch 43.2 (39069) - http://www.bohemiancoding.com/sketch -->
    <title>theicons.co/svg/social-28</title>
    <desc>Created with Sketch.</desc>
    <defs></defs>
    <g id="The-Icons" stroke="none" stroke-width="1" fill="none" fill-rule="evenodd">
        <path d="M25.0222543,31.0802776 C25.6004101,32.4150876 27.4061279,35.8185487 30.3421612,37.8280775 C31.9174634,37.7038936 33.4648965,37.3482302 34.9457267,36.7381225 C35.2842233,36.5986606 35.6095272,36.4340965 35.9203902,36.2471324 C33.658402,34.5838075 31.3630666,31.6501324 30.5705455,30.1171595 C29.974796,28.9648018 29.5568748,27.6592984 29.2875572,26.2295281 C28.9744975,24.5675375 28.8748721,22.8533142 28.9211041,21.1986647 C28.737261,21.2509344 25.3540039,22.0307069 23.965674,23.8632407 C23.708881,26.0584922 23.9453644,28.5940217 25.0222543,31.0802776 Z M19.915566,28.6753853 C18.5473389,31.0594086 17.739226,33.8274296 18.0032496,34.151386 C18.2672732,34.4753424 21.7440601,36.4310275 23.2929101,36.9336658 C23.5659852,37.0222851 23.8399473,37.1049519 24.114594,37.1815463 C22.9817154,35.7647916 22.0401899,34.259484 21.3517692,32.6701011 C20.7264352,31.2263693 20.3214033,29.7808662 20.0952112,28.3690449 C20.0344491,28.4704633 19.9745662,28.5725822 19.915566,28.6753853 Z M33.2184292,25.4890922 C33.420303,26.5608125 33.7217935,27.5026096 34.1237904,28.2801918 C34.7029946,29.4005459 35.5617801,30.5018413 36.6292132,31.551662 C37.0452344,31.960819 37.9678645,32.6902078 38.7673285,33.2986003 C40.0025155,31.155233 40.3668193,28.4603147 39.478305,26.0408649 C38.5010524,23.3797779 35.8600291,21.5158728 32.9303813,21.0081242 C32.8711383,22.4950927 32.9463278,24.0445436 33.2184292,25.4890922 Z M43.2653061,24.6747746 C45.5187545,30.8109796 42.3992785,37.9927808 36.4926868,40.4263192 C31.8540827,42.3374418 26.7968448,42.2736234 22.0388403,40.729539 C18.1628589,39.4716917 14.8201921,37.3004448 14.1835748,35.4249901 C13.5728944,33.6259448 14.5288098,29.9828625 16.4125619,26.700579 C18.7810997,22.5735962 22.3552367,19.2954557 26.9955256,17.6215578 C33.3581323,15.3263657 40.9998573,18.5058924 43.2653061,24.6747746 Z M23.8991346,14.959737 C24.1224829,15.4592803 23.9648248,16.1657132 23.5379375,16.4997869 C23.5379375,16.4997869 20.3383593,19.8751894 11.753317,19.8751894 C3.16827473,19.8751894 0.589420607,12.7193996 2.69601697,8.73999414 C4.80261333,4.76058865 10.9657257,3.3680168 16.6234133,6.89822923 C22.281101,10.4284417 23.8991346,14.959737 23.8991346,14.959737 Z M26.4627806,14.1167179 C26.4627806,14.1167179 25.5712259,12.0627281 26.3070837,8.51679092 C27.0429414,4.97085374 30.0900426,3.65717178 32.347611,4.07465225 C34.6051794,4.49213272 36.4384313,8.07489639 33.658402,11.7289491 C30.8783727,15.3830019 27.7446291,15.027381 27.7446291,15.027381 C27.1979801,15.0633679 26.6212477,14.6370061 26.4627806,14.1167179 Z" id="Combined-Shape" fill="#000000"></path>
    </g>
</svg>