<?xml version="1.0" encoding="UTF-8"?>
<svg width="48px" height="48px" viewBox="0 0 48 48" version="1.1" xmlns="http://www.w3.org/2000/svg" xmlns:xlink="http://www.w3.org/1999/xlink">
    <!-- Generator: Sketch 43.2 (39069) - http://www.bohemiancoding.com/sketch -->
    <title>theicons.co/svg/social-29</title>
    <desc>Created with Sketch.</desc>
    <defs></defs>
    <g id="The-Icons" stroke="none" stroke-width="1" fill="none" fill-rule="evenodd">
        <path d="M34,23.5 C34,26.9845987 31.5331458,29.9794574 28.0028683,31.29166 C28.1695715,32.5744864 28.4217029,34.4044205 28.5818341,35.1101801 C29.0329822,37.0985624 29.6210069,38.3997188 29.9425205,38.8601027 C35.8366111,36.5009382 40,30.7366749 40,24 C40,15.163444 32.836556,8 24,8 C15.163444,8 8,15.163444 8,24 C8,30.7588031 12.1907851,36.5387959 18.115617,38.8832401 C18.198212,38.7825719 18.3232509,38.6055921 18.4855198,38.3108642 C18.8959054,37.5654835 19.259404,36.4443991 19.5498251,35.0684634 C19.5752477,34.9480184 19.6043824,34.7989332 19.6359379,34.6287045 C19.01558,34.8514537 18.3235622,34.9711914 17.5646973,34.9711914 C15.6141916,34.9711914 13.9797983,34.1988458 12.6945972,32.9496794 C11.944606,32.2207165 11.4571462,31.4892509 11.1871918,30.9328723 C10.7050153,29.939102 11.119744,28.7426106 12.1135144,28.260434 C13.1072848,27.7782575 14.3037761,28.1929862 14.7859527,29.1867566 C14.8691477,29.3582223 15.1092575,29.718523 15.4825268,30.0813265 C16.0694265,30.6517706 16.7453665,30.9711914 17.5646973,30.9711914 C18.066463,30.9711914 18.3904908,30.8679861 18.6278504,30.6705494 C15.8452692,29.1612132 14,26.5137755 14,23.5 C14,22.356254 14.2657646,21.2652697 14.7476664,20.2692305 L14.0490263,15.5028376 C13.8880632,14.4046852 14.6179503,13.7883022 15.6776289,14.1148787 L20.3956195,15.5688905 C21.5138524,15.2014734 22.7292458,15 24,15 C25.2651409,15 26.475409,15.1996974 27.5895561,15.5640312 L32.2917793,14.1148787 C33.3514578,13.7883022 34.0813449,14.4046852 33.9203818,15.5028376 L33.2288072,20.2210278 C33.7255784,21.2300307 34,22.3377752 34,23.5 Z M23.4635934,35.8945493 C23.1342294,37.4549859 22.7302878,38.8071971 22.2087787,39.900857 C22.7968185,39.9663635 23.3944812,40 24,40 C24.6543279,40 25.299482,39.9607222 25.9332332,39.8843959 C25.427771,38.8158759 25.0234877,37.5048059 24.680982,35.9952524 C24.5107705,35.2450654 24.2533602,33.4094031 24.0683912,31.9998054 C24.0517444,31.9999001 24.035088,31.9999603 24.0184219,31.9999859 C23.8679682,33.2847533 23.6373811,35.0711907 23.4635934,35.8945493 Z M24,44 C12.954305,44 4,35.045695 4,24 C4,12.954305 12.954305,4 24,4 C35.045695,4 44,12.954305 44,24 C44,32.8828081 38.2090962,40.4130782 30.1965662,43.0215326 C28.1912417,43.6655664 26.1346764,44 24,44 Z M18,25 C18,26.6534829 19.3418707,28 20.997152,28 L27.002848,28 C28.6583772,28 30,26.6568542 30,25 C30,23.3465171 28.6581293,22 27.002848,22 L20.997152,22 C19.3416228,22 18,23.3431458 18,25 Z" id="Combined-Shape" fill="#000000"></path>
    </g>
</svg>