<?xml version="1.0" encoding="UTF-8"?>
<svg width="48px" height="48px" viewBox="0 0 48 48" version="1.1" xmlns="http://www.w3.org/2000/svg" xmlns:xlink="http://www.w3.org/1999/xlink">
    <!-- Generator: Sketch 43.2 (39069) - http://www.bohemiancoding.com/sketch -->
    <title>theicons.co/svg/social-07</title>
    <desc>Created with Sketch.</desc>
    <defs></defs>
    <g id="The-Icons" stroke="none" stroke-width="1" fill="none" fill-rule="evenodd">
        <path d="M4,38.0098214 L4,9.99017859 C4,6.6815679 6.68100239,4 9.99017859,4 L38.0098214,4 C41.3184321,4 44,6.68100239 44,9.99017859 L44,38.0098214 C44,41.3184321 41.3189976,44 38.0098214,44 L9.99017859,44 C6.6815679,44 4,41.3189976 4,38.0098214 Z M9.99017859,8 C8.89033027,8 8,8.89051807 8,9.99017859 L8,38.0098214 C8,39.1096697 8.89051807,40 9.99017859,40 L38.0098214,40 C39.1096697,40 40,39.1094819 40,38.0098214 L40,9.99017859 C40,8.89033027 39.1094819,8 38.0098214,8 L9.99017859,8 Z M18,29 C15.2385763,29 13,26.7614237 13,24 C13,21.2385763 15.2385763,19 18,19 C20.7614237,19 23,21.2385763 23,24 C23,26.7614237 20.7614237,29 18,29 Z M30,29 C27.2385763,29 25,26.7614237 25,24 C25,21.2385763 27.2385763,19 30,19 C32.7614237,19 35,21.2385763 35,24 C35,26.7614237 32.7614237,29 30,29 Z" id="Combined-Shape" fill="#000000"></path>
    </g>
</svg>