<?xml version="1.0" encoding="UTF-8"?>
<svg width="48px" height="48px" viewBox="0 0 48 48" version="1.1" xmlns="http://www.w3.org/2000/svg" xmlns:xlink="http://www.w3.org/1999/xlink">
    <!-- Generator: Sketch 43.2 (39069) - http://www.bohemiancoding.com/sketch -->
    <title>theicons.co/svg/social-24</title>
    <desc>Created with Sketch.</desc>
    <defs></defs>
    <g id="The-Icons" stroke="none" stroke-width="1" fill="none" fill-rule="evenodd">
        <path d="M46,31 L30.2898787,31 C31.1504279,33.8914889 33.8289794,36 37,36 C38.6107554,36 40.1331065,35.4567832 41.3644369,34.4732462 C42.2274827,33.7838801 43.4859613,33.9246754 44.1753274,34.7877213 C44.8646935,35.6507671 44.7238983,36.9092457 43.8608524,37.5986118 C41.9268852,39.1433865 39.5262481,40 37,40 C30.9248678,40 26,35.0751322 26,29 C26,22.9248678 30.9248678,18 37,18 C43.0751322,18 48,22.9248678 48,29 C48,30.1045695 47.1045695,31 46,31 Z M37,22 C33.8289794,22 31.1504279,24.1085111 30.2898787,27 L43.7101213,27 C42.8495721,24.1085111 40.1710206,22 37,22 Z M13.9900773,24 L4,24 L4,36 L14.0092465,36 C17.3185515,36 20,33.3149884 20,30 C20,26.6923844 17.306367,24 13.9900773,24 Z M24,30 C24,35.5229392 19.5288804,40 14.0092465,40 L2.99180311,40 C1.33527261,40 0,38.6557496 0,36.9991283 L0,11.0024733 C0,9.35163628 1.34305589,8 3.00087166,8 L11.9966691,8 C16.4234182,8 20,11.5786089 20,16 C20,17.8728938 19.3544192,19.5967856 18.2735954,20.9609017 C21.6578533,22.5661551 24,26.0129968 24,30 Z M4,12 L4,20 L11.9966691,20 C14.2052205,20 16,18.2048239 16,16 C16,13.7872407 14.2137717,12 11.9966691,12 L4,12 Z M30,14 C30,12.8954305 30.8970601,12 32.0058587,12 L41.9941413,12 C43.1019465,12 44,12.8877296 44,14 C44,15.1045695 43.1029399,16 41.9941413,16 L32.0058587,16 C30.8980535,16 30,15.1122704 30,14 Z" id="Combined-Shape" fill="#000000"></path>
    </g>
</svg>