<?xml version="1.0" encoding="UTF-8"?>
<svg width="48px" height="48px" viewBox="0 0 48 48" version="1.1" xmlns="http://www.w3.org/2000/svg" xmlns:xlink="http://www.w3.org/1999/xlink">
    <!-- Generator: Sketch 43.2 (39069) - http://www.bohemiancoding.com/sketch -->
    <title>theicons.co/svg/social-34</title>
    <desc>Created with Sketch.</desc>
    <defs></defs>
    <g id="The-Icons" stroke="none" stroke-width="1" fill="none" fill-rule="evenodd">
        <path d="M34,36 L20,36 L20,26 L28,26 L28,27.9914698 C28,29.0980496 28.8954305,30 30,30 C31.1122704,30 32,29.1007504 32,27.9914698 L32,20.0085302 C32,18.9019504 31.1045695,18 30,18 C28.8877296,18 28,18.8992496 28,20.0085302 L28,22 L20,22 L20,12 L34,12 L34,14.0020869 C34,15.1017394 34.8954305,16 36,16 C37.1122704,16 38,15.1055038 38,14.0020869 L38,10 C38,8.88772964 37.1084896,8 36.0087557,8 L11.9912443,8 C10.8998975,8 10,8.8954305 10,10 C10,11.1122704 10.8915104,12 11.9912443,12 L16,12 L16,36 L11.9912443,36 C10.8998975,36 10,36.8954305 10,38 C10,39.1122704 10.8915104,40 11.9912443,40 L36.0087557,40 C37.1001025,40 38,39.1045695 38,38 L38,33.9979131 C38,32.8944962 37.1122704,32 36,32 C34.8954305,32 34,32.8982606 34,33.9979131 L34,36 Z" id="Combined-Shape" fill="#000000"></path>
    </g>
</svg>