<?xml version="1.0" encoding="UTF-8"?>
<svg width="48px" height="48px" viewBox="0 0 48 48" version="1.1" xmlns="http://www.w3.org/2000/svg" xmlns:xlink="http://www.w3.org/1999/xlink">
    <!-- Generator: Sketch 43.2 (39069) - http://www.bohemiancoding.com/sketch -->
    <title>theicons.co/svg/social-32</title>
    <desc>Created with Sketch.</desc>
    <defs></defs>
    <g id="The-Icons" stroke="none" stroke-width="1" fill="none" fill-rule="evenodd">
        <path d="M20.8388379,34.8596537 C21.1266562,34.3848801 21.8098441,34 22.3518203,34 L34,34 L34.0252686,30 L24.7741975,30 C24.2209453,30 24.0043139,29.6155503 24.283962,29.1518786 L33.5423384,13.8009913 C33.7356599,13.4804537 34,12.3885507 34,12.0085302 L34,7.99927541 L30.2697394,7.9978957 L27.194286,13.1400448 C26.9102304,13.6149849 26.2286714,14 25.6849828,14 L14,14 L14,18 L23.2824587,18 C23.837588,18 24.0543411,18.3900235 23.7730045,18.8604175 L14.4587263,34.4338633 C14.2657773,34.7564735 14,35.7187989 14,36.1001801 L14,40 L17.7226457,40 L20.8388379,34.8596537 Z M30.8561005,26 L36.0059397,26 C37.1072288,26 38,26.9019504 38,28.0085302 L38,35.9914698 C38,37.1007504 37.1054862,38 36.0059397,38 L23.6187002,38 L21.0324086,42.2882108 C20.4622251,43.2336059 19.1125667,44 18.000385,44 L11.999615,44 C10.8952581,44 10,43.1036134 10,41.9957671 L10,36.1001801 C10,34.9932729 10.4630348,33.3217544 11.025861,32.3807106 L17.2344309,22 L11.9950893,22 C10.8932319,22 10,21.0980496 10,19.9914698 L10,12.0085302 C10,10.8992496 10.8926228,10 11.9950893,10 L24.411477,10 L26.974139,5.71523663 C27.5407064,4.7679376 28.8874333,4 29.999615,4 L36.000385,4 C37.1047419,4 38,4.90119111 38,6.00630701 L38,12.1487223 C38,13.2567751 37.5369652,14.922766 36.9675914,15.8668185 L30.8561005,26 Z" id="Combined-Shape" fill="#000000" fill-rule="nonzero"></path>
    </g>
</svg>