<?xml version="1.0" encoding="UTF-8"?>
<svg width="48px" height="48px" viewBox="0 0 48 48" version="1.1" xmlns="http://www.w3.org/2000/svg" xmlns:xlink="http://www.w3.org/1999/xlink">
    <!-- Generator: Sketch 43.2 (39069) - http://www.bohemiancoding.com/sketch -->
    <title>theicons.co/svg/space-02</title>
    <desc>Created with Sketch.</desc>
    <defs></defs>
    <g id="The-Icons" stroke="none" stroke-width="1" fill="none" fill-rule="evenodd">
        <path d="M7.79017174,24 C7.79017174,22.6029045 7.96923563,21.2476315 8.30566501,19.9558796 C8.13818397,19.9848835 7.96594318,20 7.79017174,20 C6.13331749,20 4.79017174,18.6568542 4.79017174,17 C4.79017174,15.3431458 6.13331749,14 7.79017174,14 C8.84790791,14 9.77779065,14.5474056 10.3119777,15.3743746 C13.1563166,10.9390904 18.1300135,8 23.7901717,8 C26.9033221,8 29.8088095,8.88911105 32.2665573,10.4272566 C38.1459452,8.68743833 42.3994642,8.85591764 44.2629427,12.0835569 C46.087244,15.2433396 44.0136698,19.2718904 39.7771092,23.3475016 C39.7857899,23.5639223 39.7901717,23.7814494 39.7901717,24 C39.7901717,25.392915 39.6121779,26.7442573 39.2776944,28.0325227 C39.4454919,28.011063 39.6165399,28 39.7901717,28 C41.9993107,28 43.7901717,29.790861 43.7901717,32 C43.7901717,34.209139 41.9993107,36 39.7901717,36 C38.2962896,36 36.9936796,35.1810669 36.3067838,33.9676427 C33.3752105,37.6440318 28.857824,40 23.7901717,40 C20.7013078,40 17.8168795,39.1247072 15.3713883,37.6086232 C9.41209932,39.4445834 4.5772733,39.3459613 2.69372327,36.0835569 C0.767930238,32.7479856 2.97409838,28.8157085 7.79474929,24.3865349 C7.79170331,24.2580591 7.79017174,24.1292084 7.79017174,24 Z M6.15782489,34.0835569 C6.69434886,35.0128437 8.7602877,35.0398228 11.6189931,34.3861525 C10.3237941,32.8698025 9.30699954,31.1084881 8.64774771,29.1813473 C6.53131513,31.4921573 5.6934919,33.2793086 6.15782489,34.0835569 Z M40.798841,14.0835569 C40.3648458,13.3318551 38.659988,13.1183108 35.9756152,13.6305711 C37.1844977,15.0497882 38.1498243,16.6828291 38.8069421,18.4650408 C40.4917915,16.5441844 41.2990539,14.949951 40.798841,14.0835569 Z M27.978333,31.8777856 C25.5296167,33.2915526 23.0715803,34.5518124 20.6954814,35.5971607 C21.6827783,35.859943 22.720119,36 23.7901717,36 C29.373986,36 34.0670425,32.1862127 35.4065939,27.0213855 C33.1718816,28.694351 30.6544047,30.3327548 27.978333,31.8777856 Z M25.978333,28.413684 C29.5677602,26.3413272 32.9323049,23.9246578 35.5587142,21.6426966 C34.4634226,16.1440614 29.6107459,12 23.7901717,12 C17.1627547,12 11.7901717,17.372583 11.7901717,24 C11.7901717,27.6324488 13.4041346,30.8879364 15.9540669,33.0884693 C19.1004891,31.9612322 22.6317022,30.3458621 25.978333,28.413684 Z M13.7901717,24 C13.7901717,18.4771525 18.2673242,14 23.7901717,14 C24.8947412,14 25.7901717,14.8954305 25.7901717,16 C25.7901717,17.1045695 24.8947412,18 23.7901717,18 C20.4764632,18 17.7901717,20.6862915 17.7901717,24 C17.7901717,25.1045695 16.8947412,26 15.7901717,26 C14.6856022,26 13.7901717,25.1045695 13.7901717,24 Z" id="Combined-Shape" fill="#000000"></path>
    </g>
</svg>