<?xml version="1.0" encoding="UTF-8"?>
<svg width="48px" height="48px" viewBox="0 0 48 48" version="1.1" xmlns="http://www.w3.org/2000/svg" xmlns:xlink="http://www.w3.org/1999/xlink">
    <!-- Generator: Sketch 43.2 (39069) - http://www.bohemiancoding.com/sketch -->
    <title>theicons.co/svg/space-04</title>
    <desc>Created with Sketch.</desc>
    <defs></defs>
    <g id="The-Icons" stroke="none" stroke-width="1" fill="none" fill-rule="evenodd">
        <path d="M17.3071997,26.3196914 C16.5297458,27.0971453 15.2717753,27.0996765 14.4852814,26.3131826 C13.7042328,25.532134 13.7061999,24.263837 14.4787726,23.4912643 L27.2131986,10.7568382 C29.5563492,8.41368767 33.3553391,8.41368767 35.6984848,10.7568334 C38.0416306,13.0999792 38.0416306,16.898969 35.6984848,19.2421148 L25.7947899,29.1458097 C25.0160609,29.9245387 23.7570567,29.9281036 22.9705627,29.1416097 C22.1895142,28.3605611 22.1888659,27.0948794 22.9663627,26.3173826 L28.8688313,20.414914 C28.2701517,20.1289212 27.7090768,19.7379882 27.2132034,19.2421148 C26.7173301,18.7462414 26.326397,18.1851665 26.0404042,17.5864869 L17.3071997,26.3196914 Z M25.7960939,9.3455158 C28.9223405,6.21926924 33.9880982,6.21801965 37.1126984,9.34261986 C40.2347294,12.4646509 40.2323519,17.5366748 37.1098024,20.6592243 L24.3847763,33.3842504 C23.6037277,34.165299 23.6037277,35.431629 24.3847763,36.2126775 C25.1658249,36.9937261 26.4321549,36.9937261 27.2132034,36.2126775 L39.9382296,23.4876514 C44.6222829,18.8035981 44.6258476,11.1989148 39.9411255,6.51419273 C35.2541157,1.82718291 27.6556983,1.82905723 22.9676668,6.51708868 L4.58578644,24.898969 C3.80473785,25.6800176 3.80473785,26.9463476 4.58578644,27.7273962 C5.36683502,28.5084448 6.63316498,28.5084448 7.41421356,27.7273962 L25.7960939,9.3455158 Z M22.5563492,38.0411047 C23.3373978,38.8221533 23.3435667,40.0823143 22.5576917,40.8681892 L19.7265795,43.6993015 C18.9462724,44.4796086 17.6859888,44.4844528 16.8994949,43.6979589 C16.1184464,42.9169103 16.1122774,41.6567493 16.8981524,40.8708743 L19.7292646,38.0397621 C20.5095717,37.259455 21.7698553,37.2546108 22.5563492,38.0411047 Z M18.8994949,30.5558233 C19.6805435,31.3368719 19.6819812,32.6017642 18.9052337,33.3785117 L11.1155816,41.1681638 C10.3377024,41.9460429 9.07938713,41.9489189 8.29289322,41.162425 C7.51184464,40.3813764 7.51040697,39.1164841 8.28715447,38.3397366 L16.0768066,30.5500845 C16.8546857,29.7722054 18.113001,29.7693294 18.8994949,30.5558233 Z" id="Shape" fill="#000000" fill-rule="nonzero"></path>
    </g>
</svg>