<?xml version="1.0" encoding="UTF-8"?>
<svg width="48px" height="48px" viewBox="0 0 48 48" version="1.1" xmlns="http://www.w3.org/2000/svg" xmlns:xlink="http://www.w3.org/1999/xlink">
    <!-- Generator: Sketch 43.2 (39069) - http://www.bohemiancoding.com/sketch -->
    <title>theicons.co/svg/space-07</title>
    <desc>Created with Sketch.</desc>
    <defs></defs>
    <g id="The-Icons" stroke="none" stroke-width="1" fill="none" fill-rule="evenodd">
        <path d="M32,11 C32,9.34314575 33.3431458,8 35,8 C36.6568542,8 38,9.34314575 38,11 C38,12.6568542 36.6568542,14 35,14 C34.8369915,14 34.6770196,13.9869991 34.5210646,13.9619775 L33.6798571,17.3967192 L42.4139937,26.1342508 C43.1918825,26.912442 43.1978321,28.1681872 42.4168256,28.9494973 L40.9436992,30.4231963 C37.9318247,33.4075443 34.1256705,35.105424 30.2100478,35.5167264 L31.4572716,40.0140503 L35.8812701,40.0140503 C36.9824911,40.0140503 37.8752071,40.8986617 37.8752071,42.0070252 C37.8752071,43.1077148 36.9894133,44 35.8812701,44 L7.99393696,44 C6.89271598,44 6,43.1153886 6,42.0070252 C6,40.9063355 6.8857938,40.0140503 7.99393696,40.0140503 L12.4922457,40.0140503 L15.238354,29.9380055 C8.66893116,22.9272188 8.78523743,11.9264203 15.5872728,5.05691336 L17.0602537,3.58306879 C17.8365784,2.80644227 19.0927091,2.80390087 19.8744062,3.58590184 L28.6085428,12.3234335 L32.0375577,11.4760295 C32.01284,11.3209934 32,11.1619962 32,11 Z M27.3326195,40.0099145 L25.3689088,32.9521785 C24.3978069,33.6345556 23.2144662,34.0351258 21.9376035,34.0351258 C20.675587,34.0351258 19.5049302,33.6438163 18.5402572,32.975866 L16.6220823,40.0140503 L27.3326195,40.0099145 Z M38.1876922,27.5432906 L18.465914,7.81384623 C13.762013,12.5644068 13.1342686,19.8891697 16.6388014,25.2879852 C17.6370677,23.3795782 19.6353103,22.0772767 21.9376035,22.0772767 C24.7092799,22.0772767 27.0402902,23.9647262 27.7163833,26.5249021 L29.1237568,31.5997048 C32.410316,31.408502 35.6498219,30.0582929 38.1876922,27.5432906 Z M19.9454031,28.0562012 C19.9454031,29.1568908 20.8373416,30.0491761 21.9376035,30.0491761 C23.0378654,30.0491761 23.929804,29.1568908 23.929804,28.0562012 C23.929804,26.9555116 23.0378654,26.0632264 21.9376035,26.0632264 C21.0401057,26.0632264 20.2812236,26.6569419 20.0319999,27.4731861 L19.9752587,27.7105458 C19.9556349,27.8228134 19.9454031,27.938312 19.9454031,28.0562012 Z" id="Rectangle-867" fill="#000000"></path>
    </g>
</svg>