<?xml version="1.0" encoding="UTF-8"?>
<svg width="48px" height="48px" viewBox="0 0 48 48" version="1.1" xmlns="http://www.w3.org/2000/svg" xmlns:xlink="http://www.w3.org/1999/xlink">
    <!-- Generator: Sketch 43.2 (39069) - http://www.bohemiancoding.com/sketch -->
    <title>theicons.co/svg/space-08</title>
    <desc>Created with Sketch.</desc>
    <defs></defs>
    <g id="The-Icons" stroke="none" stroke-width="1" fill="none" fill-rule="evenodd">
        <path d="M27.6023484,16.8640957 L20.9077287,23.2531482 C21.5848421,23.9696652 22,24.9363499 22,26 L36,26.0056152 L36,20 C36,16.865143 34.7985302,14.0114787 32.8309109,11.8741841 L30.4984805,14.1001537 C30.6779081,14.2781396 30.8597175,14.4730547 31.0410181,14.6853923 C32.2716506,16.1266972 33.0244141,17.9009047 33.0244141,19.975769 C33.0244141,21.0803385 32.1289836,21.975769 31.0244141,21.975769 C29.9198446,21.975769 29.0244141,21.0803385 29.0244141,19.975769 C29.0244141,18.9289598 28.6488817,18.043858 27.9990209,17.2827473 C27.8633866,17.1238937 27.7287025,16.9839949 27.6023484,16.8640957 Z M24,8 C17.3713862,8 12,13.3718368 12,20 L11.9575195,32 L36,32.0246582 L36,30.0056152 C36,30.0056152 17.9305887,30.0031252 17.8830016,29.9983217 C15.7279754,29.9364212 14,28.1700057 14,26 C14,25.0000049 14.3669539,24.0857164 14.9735516,23.3844449 C14.9936942,23.3595585 29.6289728,9.39903046 29.6289728,9.39903046 C27.9503236,8.50599394 26.0343359,8 24,8 Z M22,40 C22,38.8954305 22.8877296,38 24,38 C25.1045695,38 26,38.8877296 26,40 L38.0222168,40 L38.0222168,36 L10.0222168,36 L10.0222168,40 L14,40 C14,38.8954305 14.8877296,38 16,38 C17.1045695,38 18,38.8877296 18,40 L22,40 Z M42,34.0085302 L42,41.9914698 C42,43.1007504 41.1101074,44 40.0002927,44 L7.99970728,44 C6.89529944,44 6,43.0980496 6,41.9914698 L6,34.0085302 C6,32.8992496 6.88989258,32 7.99970728,32 L8,20 C8,11.163444 15.1615011,4 24,4 C32.836556,4 40,11.1615011 40,20 L40,32 C41.1047006,32 42,32.9019504 42,34.0085302 Z" id="Path" fill="#000000"></path>
    </g>
</svg>