<?xml version="1.0" encoding="UTF-8"?>
<svg width="48px" height="48px" viewBox="0 0 48 48" version="1.1" xmlns="http://www.w3.org/2000/svg" xmlns:xlink="http://www.w3.org/1999/xlink">
    <!-- Generator: Sketch 43.2 (39069) - http://www.bohemiancoding.com/sketch -->
    <title>theicons.co/svg/space-06</title>
    <desc>Created with Sketch.</desc>
    <defs></defs>
    <g id="The-Icons" stroke="none" stroke-width="1" fill="none" fill-rule="evenodd">
        <path d="M38.116323,41.0015379 C38.8938199,41.7790347 38.8931716,43.0447164 38.112123,43.825765 C37.3256291,44.6122589 36.0666249,44.608694 35.2878959,43.829965 L26.4552688,34.9918478 L17.6226416,43.829965 C16.8439127,44.608694 15.5849084,44.6122589 14.7984145,43.825765 C14.0173659,43.0447164 14.0167177,41.7790347 14.7942145,41.0015379 L23.4552688,32.3580326 L23.4552688,29.3969309 L21.3866142,30.5912693 C20.4323777,31.1421979 19.2115593,30.8141423 18.661786,29.861907 L9.99341816,34.859733 C9.03967384,35.4103775 7.81553612,35.0756512 7.2622462,34.1173249 L3.2707764,27.2038964 C2.7161361,26.2432312 3.04118294,25.0172014 3.99341816,24.4674281 L12.6588161,19.4644582 C12.1052017,18.50557 12.4318502,17.286096 13.3866142,16.7348628 L23.7831718,10.7324074 L22.7856451,9.0046405 C22.2319944,8.04568934 22.551082,6.82495264 23.5135783,6.26925514 L26.9809685,4.2673565 C27.9366456,3.71559604 29.1598881,4.04515332 29.7138483,5.0046405 L29.8262892,5.19939381 C30.7916126,4.86990193 31.8190865,4.65205308 32.8883471,4.59742476 C36.3656309,4.41977099 39.4843364,5.99980503 41.6267499,9.70479849 C43.7721966,13.4150374 43.5738087,16.9128826 41.6662586,19.8426112 C41.0867665,20.7326296 40.3893293,21.5075362 39.627252,22.1751594 L39.7089017,22.3165808 C40.2625524,23.275532 39.9434648,24.4962687 38.9809685,25.0519662 L35.5135783,27.0538648 C34.5579012,27.6056253 33.3346587,27.276068 32.7806985,26.3165808 L31.7831718,24.5888139 L29.4552688,25.9328293 L29.4552688,32.3580326 C29.5131293,32.4042958 38.116323,41.0015379 38.116323,41.0015379 Z M38.314172,17.6600633 C39.4236851,15.9560072 39.5306248,14.0705172 38.1639986,11.7071355 C36.7964089,9.34208747 35.1125785,8.48900613 33.0924401,8.59221462 C32.687632,8.61289619 32.2826343,8.67308354 31.8851048,8.76536707 L37.5678938,18.6082463 C37.8434388,18.3129611 38.0954699,17.9959589 38.314172,17.6600633 Z M29.7886998,21.1342871 L25.7831718,14.1965091 L17.166367,19.1714236 L21.1422659,26.1582243 L29.7886998,21.1342871 Z M14.6594672,22.9296875 L7.73256604,26.9319428 L9.73463012,30.3903421 L16.6588161,26.3926615 L14.6594672,22.9296875 Z" id="Rectangle-864" fill="#000000"></path>
    </g>
</svg>