<?xml version="1.0" encoding="UTF-8"?>
<svg width="48px" height="48px" viewBox="0 0 48 48" version="1.1" xmlns="http://www.w3.org/2000/svg" xmlns:xlink="http://www.w3.org/1999/xlink">
    <!-- Generator: Sketch 43.2 (39069) - http://www.bohemiancoding.com/sketch -->
    <title>theicons.co/svg/space-09</title>
    <desc>Created with Sketch.</desc>
    <defs></defs>
    <g id="The-Icons" stroke="none" stroke-width="1" fill="none" fill-rule="evenodd">
        <path d="M29.0054385,22 C30.0976562,22 31,22.8954305 31,24 C31,25.1122704 30.1070044,26 29.0054385,26 L12.1659169,26 C12.2813923,26.6883036 12.4554625,27.3567385 12.6828228,28 L16.0020869,28 C17.1017394,28 18,28.8954305 18,30 C18,31.1122704 17.1055038,32 16.0020869,32 L15.055574,32 C17.2528562,34.4549974 20.4460007,36 24,36 C27.5539993,36 30.7471438,34.4549974 32.944426,32 L29.9973917,32 C28.8942627,32 28,31.1122704 28,30 C28,28.8954305 28.8958578,28 29.9973917,28 L35.3171772,28 C35.5445375,27.3567385 35.7186077,26.6883036 35.8340831,26 L35.0048815,26 C33.897616,26 33,25.1122704 33,24 C33,22.8954305 33.8938998,22 35.0048815,22 L35.8340831,22 C35.7186077,21.3116964 35.5445375,20.6432615 35.3171772,20 L25.0058587,20 C23.8980535,20 23,19.1122704 23,18 C23,16.8954305 23.8970601,16 25.0058587,16 L32.944426,16 C30.7471438,13.5450026 27.5539993,12 24,12 C20.4460007,12 17.2528562,13.5450026 15.055574,16 L15.9940809,16 C17.1134452,16 18,16.8954305 18,18 C18,19.1122704 17.1019194,20 15.9940809,20 L12.6828228,20 C12.4554625,20.6432615 12.2813923,21.3116964 12.1659169,22 L29.0054385,22 Z M12,40 C9.790861,40 8,38.209139 8,36 C8,34.3785258 8.96479686,32.982392 10.3516408,32.3543483 C8.8600091,29.922689 8,27.0617775 8,24 C8,15.163444 15.163444,8 24,8 C32.836556,8 40,15.163444 40,24 C40,32.836556 32.836556,40 24,40 C20.9382225,40 18.077311,39.1399909 15.6456517,37.6483592 C15.017608,39.0352031 13.6214742,40 12,40 Z M39,12 C37.3431458,12 36,10.6568542 36,9 C36,7.34314575 37.3431458,6 39,6 C40.6568542,6 42,7.34314575 42,9 C42,10.6568542 40.6568542,12 39,12 Z M20,30 C20,28.8954305 20.8982606,28 21.9979131,28 L24.0020869,28 C25.1055038,28 26,28.8877296 26,30 C26,31.1045695 25.1017394,32 24.0020869,32 L21.9979131,32 C20.8944962,32 20,31.1122704 20,30 Z" id="Combined-Shape" fill="#000000"></path>
    </g>
</svg>