<?xml version="1.0" encoding="UTF-8"?>
<svg width="48px" height="48px" viewBox="0 0 48 48" version="1.1" xmlns="http://www.w3.org/2000/svg" xmlns:xlink="http://www.w3.org/1999/xlink">
    <!-- Generator: Sketch 43.2 (39069) - http://www.bohemiancoding.com/sketch -->
    <title>theicons.co/svg/space-03</title>
    <desc>Created with Sketch.</desc>
    <defs></defs>
    <g id="The-Icons" stroke="none" stroke-width="1" fill="none" fill-rule="evenodd">
        <path d="M24,12 C19.4890495,12 15.5594438,14.489033 13.5096507,18.1686314 C17.2590062,18.9140929 20.0043649,21.4796836 19.2153261,25.9999196 C18.6482124,29.2487942 19.0884669,29.9623102 22.3124876,31.838863 C23.7024401,32.6478898 24.5648945,33.7966241 24.8444432,35.1552679 C24.9002491,35.4264923 24.9321373,35.6960109 24.9422689,35.9635496 C27.0354872,35.8009623 28.9780421,35.1012948 30.6322813,34.0021993 C30.6846437,33.2457451 30.6830845,32.4629741 30.6011392,31.7527967 C30.4891751,30.7824618 30.2418285,30.1664648 30.0390216,30.0211119 C29.7108879,29.7859365 29.2901058,29.5575012 28.5496859,29.2031837 C28.618477,29.2361027 27.8048044,28.8495372 27.5725766,28.7362682 C24.8100072,27.3888261 23.2557739,26.024389 22.5598005,23.5192462 C21.3081171,19.0138362 23.9460675,14.6415505 29.1547261,13.1604426 C27.5929872,12.4164341 25.8451253,12 24,12 Z M26.4138323,22.4485273 C26.7259577,23.5720167 27.4971679,24.24905 29.3261106,25.1411161 C29.5365495,25.2437576 30.3278849,25.6197109 30.2763158,25.5950333 C31.2153999,26.0444188 31.7989652,26.3612263 32.3691816,26.7699037 C33.4193953,27.5225981 34.0352106,28.649187 34.3635559,30.053372 C35.4037753,28.2763237 36,26.2077897 36,24 C36,21.2551387 35.0784151,18.725525 33.5277873,16.7037011 C28.4392339,16.8075239 25.6152512,19.5740501 26.4138323,22.4485273 Z M8,24 C8,15.163444 15.163444,8 24,8 C25.1307573,8 26.2341179,8.11729908 27.2985776,8.340393 C28.8761542,5.73854975 31.7350471,4 35,4 C39.9705627,4 44,8.02943725 44,13 C44,16.2649529 42.2614502,19.1238458 39.659607,20.7014224 C39.8827009,21.7658821 40,22.8692427 40,24 C40,32.836556 32.836556,40 24,40 C23.8586252,40 23.7176786,39.9981664 23.5771828,39.9945217 C14.900454,39.7339765 8,32.672832 8,24 Z M20.3003053,35.2959026 C15.7581428,32.6521206 14.3827557,30.4230449 15.2749082,25.3120921 C15.612987,23.3753104 14.3089785,22.26925 12.1655488,22.0021955 C12.0566699,22.6519205 12,23.3193423 12,24 C12,29.4574308 15.6430993,34.0639701 20.6300188,35.5203389 C20.5443476,35.4491929 20.4362517,35.3750307 20.3003053,35.2959026 Z M38.2793972,16.774428 C39.3335685,15.8577333 40,14.5066933 40,13 C40,10.2385763 37.7614237,8 35,8 C33.4933067,8 32.1422667,8.6664315 31.225572,9.72060277 C34.2613662,11.2598 36.7402,13.7386338 38.2793972,16.774428 Z" id="Path-Copy-16" fill="#000000"></path>
    </g>
</svg>