<?xml version="1.0" encoding="UTF-8"?>
<svg width="48px" height="48px" viewBox="0 0 48 48" version="1.1" xmlns="http://www.w3.org/2000/svg" xmlns:xlink="http://www.w3.org/1999/xlink">
    <!-- Generator: Sketch 43.2 (39069) - http://www.bohemiancoding.com/sketch -->
    <title>theicons.co/svg/space-01</title>
    <desc>Created with Sketch.</desc>
    <defs></defs>
    <g id="The-Icons" stroke="none" stroke-width="1" fill="none" fill-rule="evenodd">
        <path d="M36,24 C36,23.8296856 35.9964519,23.6602 35.9894256,23.4916129 C35.0540786,23.8208902 34.047956,24 33,24 C28.0294373,24 24,19.9705627 24,15 C24,13.952044 24.1791098,12.9459214 24.5083871,12.0105744 C24.3398,12.0035481 24.1703144,12 24,12 C19.5579018,12 15.6795373,14.4136308 13.6048202,18.0009789 C16.5940134,18.0568509 19,20.4974513 19,23.5 C19,23.732327 18.985595,23.9612895 18.9576295,24.1860432 C19.2823049,24.0657292 19.6334765,24 20,24 C21.6568542,24 23,25.3431458 23,27 C23,28.6568542 21.6568542,30 20,30 C18.5763496,30 17.384313,29.0083436 17.0769561,27.6780967 C16.1152789,28.5021808 14.8657754,29 13.5,29 C13.3589904,29 13.2192203,28.9946935 13.0808784,28.9842692 C14.9120687,32.989391 18.8820488,35.8119226 23.529916,35.9909615 C23.1928003,35.4046619 23,34.7248464 23,34 C23,31.790861 24.790861,30 27,30 C27.9004007,30 28.7313166,30.2975004 29.3998129,30.7995666 C30.6769218,29.0995877 32.7100497,28 35,28 C35.1054673,28 35.2103898,28.0023325 35.3147188,28.0069486 C35.7584913,26.7538698 36,25.4051386 36,24 Z M24,40 C15.163444,40 8,32.836556 8,24 C8,23.8946706 8.00101778,23.789579 8.00304405,23.6847343 C8.00101999,23.6234051 8,23.5618216 8,23.5 C8,23.2615819 8.01517021,23.0267069 8.04459804,22.7962877 C8.66002932,14.5219701 15.5683708,8 24,8 C32.836556,8 40,15.163444 40,24 C40,25.8655519 39.6807209,27.6565321 39.0938248,29.3212787 C40.8542994,30.5926456 42,32.6625265 42,35 C42,38.8659932 38.8659932,42 35,42 C32.6625265,42 30.5926456,40.8542994 29.3212829,39.0938235 C27.6565321,39.6807209 25.8655519,40 24,40 Z M28.4771339,12.8630471 C28.165463,13.5207291 28,14.2453659 28,15 C28,17.7614237 30.2385763,20 33,20 C33.754732,20 34.479617,19.8343166 35.1369615,19.5228875 C33.9191824,16.496461 31.5035576,14.0808319 28.4771339,12.8630471 Z M13.5,25 C14.3284271,25 15,24.3284271 15,23.5 C15,22.6715729 14.3284271,22 13.5,22 C12.6715729,22 12,22.6715729 12,23.5 C12,24.3284271 12.6715729,25 13.5,25 Z M8,11 C6.34314575,11 5,9.65685425 5,8 C5,6.34314575 6.34314575,5 8,5 C9.65685425,5 11,6.34314575 11,8 C11,9.65685425 9.65685425,11 8,11 Z M35,38 C36.6568542,38 38,36.6568542 38,35 C38,33.3431458 36.6568542,32 35,32 C33.3431458,32 32,33.3431458 32,35 C32,36.6568542 33.3431458,38 35,38 Z" id="Shape" fill="#000000"></path>
    </g>
</svg>