<?xml version="1.0" encoding="UTF-8"?>
<svg width="48px" height="48px" viewBox="0 0 48 48" version="1.1" xmlns="http://www.w3.org/2000/svg" xmlns:xlink="http://www.w3.org/1999/xlink">
    <!-- Generator: Sketch 43.2 (39069) - http://www.bohemiancoding.com/sketch -->
    <title>theicons.co/svg/space-05</title>
    <desc>Created with Sketch.</desc>
    <defs></defs>
    <g id="The-Icons" stroke="none" stroke-width="1" fill="none" fill-rule="evenodd">
        <path d="M17.1418938,14.9077383 C15.4281415,14.5331388 14.1252563,13.0598857 14.0085255,11.2632662 L7.33746978,8.68610049 C6.93478973,8.8869924 6.48059203,9 6,9 C4.34314575,9 3,7.65685425 3,6 C3,4.34314575 4.34314575,3 6,3 C7.29374856,3 8.39622246,3.81894415 8.81730828,4.96671904 L15.803922,7.65622483 C16.4342897,7.24138188 17.188956,7 18,7 C20.209139,7 22,8.790861 22,11 C22,12.0226294 21.6162465,12.9556283 20.9848917,13.6628447 L21.7515286,18.0466111 C24.032219,18.3316033 25.9151638,19.8966577 26.6585886,22 L38.7638935,22 C39.313214,21.3862506 40.1115002,21 41,21 C42.6568542,21 44,22.3431458 44,24 C44,25.1294702 43.3758283,26.1131572 42.4536003,26.6249458 L40.8682894,34.728703 C42.7340778,35.7460927 44,37.7252104 44,40 C44,43.3137085 41.3137085,46 38,46 C35.4256728,46 33.2300106,44.3787424 32.3783487,42.1015625 L24.4040963,42.1015625 C23.6991943,43.2409338 22.4382418,44 21,44 C18.790861,44 17,42.209139 17,40 C17,38.5065863 17.8184197,37.2043248 19.031216,36.5172584 L19.031216,29.6695244 C16.6845396,28.85473 15,26.6240877 15,24 C15,21.845929 16.1351272,19.9569813 17.8398369,18.8987014 L17.1418938,14.9077383 Z M23.031216,29.6474575 L23.031216,36.5533752 C23.6463587,36.9166828 24.1557791,37.4399782 24.5022219,38.066006 L32.3089568,38.0943304 C32.9940564,36.0474781 34.7524941,34.4924768 36.9159126,34.0976835 L38.5001833,25.9992438 L26.6586296,25.9998839 C26.0597623,27.6943469 24.7213524,29.0394768 23.031216,29.6474575 Z M38,42 C39.1045695,42 40,41.1045695 40,40 C40,38.8954305 39.1045695,38 38,38 C36.8954305,38 36,38.8954305 36,40 C36,41.1045695 36.8954305,42 38,42 Z M9,36 C7.34314575,36 6,34.6568542 6,33 C6,31.3431458 7.34314575,30 9,30 C10.6568542,30 12,31.3431458 12,33 C12,34.6568542 10.6568542,36 9,36 Z M32,9 C30.8954305,9 30,8.1045695 30,7 C30,5.8954305 30.8954305,5 32,5 C33.1045695,5 34,5.8954305 34,7 C34,8.1045695 33.1045695,9 32,9 Z M39,18 C37.8954305,18 37,17.1045695 37,16 C37,14.8954305 37.8954305,14 39,14 C40.1045695,14 41,14.8954305 41,16 C41,17.1045695 40.1045695,18 39,18 Z M21,26 C22.1045695,26 23,25.1045695 23,24 C23,22.8954305 22.1045695,22 21,22 C19.8954305,22 19,22.8954305 19,24 C19,25.1045695 19.8954305,26 21,26 Z" id="Shape" fill="#000000"></path>
    </g>
</svg>