<?xml version="1.0" encoding="UTF-8"?>
<svg width="48px" height="48px" viewBox="0 0 48 48" version="1.1" xmlns="http://www.w3.org/2000/svg" xmlns:xlink="http://www.w3.org/1999/xlink">
    <!-- Generator: Sketch 43.2 (39069) - http://www.bohemiancoding.com/sketch -->
    <title>theicons.co/svg/sports-01</title>
    <desc>Created with Sketch.</desc>
    <defs></defs>
    <g id="The-Icons" stroke="none" stroke-width="1" fill="none" fill-rule="evenodd">
        <path d="M6,16 L18,16 C19.1045695,16 20,16.8954305 20,18 L20,20 L26,20 L26,18 C26,16.8954305 26.8954305,16 28,16 L30,16 C37.7319865,16 44,22.2680135 44,30 C44,37.7319865 37.7319865,44 30,44 C22.7654835,44 16.8126183,38.512598 16.0765605,31.4729499 C15.6116943,31.2957764 5.36754447,27.8973666 5.36754447,27.8973666 C4.55086019,27.6251385 4,26.8608608 4,26 L4,18 C4,16.8954305 4.8954305,16 6,16 Z M16,22 L16,20 L8.01000977,20 L8,24.5718384 L18.6324555,28.1026334 C19.4491398,28.3748615 20,29.1391392 20,30 C20,35.5228475 24.4771525,40 30,40 C35.5228475,40 40,35.5228475 40,30 C40,24.4771525 35.5228475,20 30,20 L30,22 C30,23.1045695 29.1045695,24 28,24 L18,24 C16.8954305,24 16,23.1045695 16,22 Z M30,38 C28.8954305,38 28,37.1045695 28,36 C28,34.8954305 28.8954305,34 30,34 C32.209139,34 34,32.209139 34,30 C34,28.8954305 34.8954305,28 36,28 C37.1045695,28 38,28.8954305 38,30 C38,34.418278 34.418278,38 30,38 Z M21,5.99961498 C21,4.89525812 21.8877296,4 23,4 C24.1045695,4 25,4.88743329 25,5.99961498 L25,12.000385 C25,13.1047419 24.1122704,14 23,14 C21.8954305,14 21,13.1125667 21,12.000385 L21,5.99961498 Z M30.6057977,13.1975175 C29.9438203,14.0817458 28.6903729,14.2619157 27.8061446,13.5999383 C26.9219163,12.9379609 26.7417464,11.6845135 27.4037238,10.8002852 L30.398963,6.79943074 C31.0609405,5.91520244 32.3143878,5.7350325 33.1986161,6.39700991 C34.0828444,7.05898733 34.2630144,8.31243472 33.601037,9.19666301 L30.6057977,13.1975175 Z M18.600123,10.7990654 C19.2627741,11.682789 19.0835595,12.9363733 18.199836,13.5990244 C17.3161124,14.2616755 16.0625281,14.0824609 15.399877,13.1987373 L12.399877,9.19788283 C11.7372259,8.31415929 11.9164405,7.06057495 12.800164,6.39792385 C13.6838876,5.73527275 14.9374719,5.91448738 15.600123,6.79821092 L18.600123,10.7990654 Z" id="Combined-Shape" fill="#000000"></path>
    </g>
</svg>