<?xml version="1.0" encoding="UTF-8"?>
<svg width="48px" height="48px" viewBox="0 0 48 48" version="1.1" xmlns="http://www.w3.org/2000/svg" xmlns:xlink="http://www.w3.org/1999/xlink">
    <!-- Generator: Sketch 43.2 (39069) - http://www.bohemiancoding.com/sketch -->
    <title>theicons.co/svg/sports-17</title>
    <desc>Created with Sketch.</desc>
    <defs></defs>
    <g id="The-Icons" stroke="none" stroke-width="1" fill="none" fill-rule="evenodd">
        <path d="M43.9474166,18.922112 L43.9474166,20.922112 C43.9474166,23.6835358 40.8134099,25.922112 36.9474166,25.922112 C33.0814234,25.922112 29.9474166,23.6835358 29.9474166,20.922112 L29.9474166,18.922112 C29.9474166,16.1606883 33.0814234,13.922112 36.9474166,13.922112 C40.8134099,13.922112 43.9474166,16.1606883 43.9474166,18.922112 Z M25.3932355,35.922112 C24.8429303,35.922112 24.1769414,35.5230822 23.9131924,35.0444369 L9.02618365,8.02785587 C9.01426512,8.00622643 6.96443271,9.05165574 6.96443271,9.05165574 C6.98885373,9.03872167 23.8185239,39.0499581 23.8185239,39.0499581 C24.084217,39.5237194 24.7537888,39.9082557 25.3033762,39.9088328 L28.9474166,39.912659 L28.9474166,35.922112 L25.3932355,35.922112 Z M35.9474166,39.920009 L37.9503547,39.922112 C39.0519531,39.922112 39.9474166,39.02638 39.9474166,37.922112 L39.9474166,35.922112 L35.9474166,35.922112 L35.9474166,39.920009 Z M12.5295191,6.0974049 L26.7597668,31.922112 L40.9460297,31.922112 C42.6036499,31.922112 43.9474166,33.2637348 43.9474166,34.9192641 L43.9474166,37.922112 C43.9474166,41.2358205 41.2607909,43.922112 37.9503547,43.922112 L23.9418431,43.9074054 C22.8420946,43.9062508 21.50926,43.1206812 20.9687664,42.1527906 L3.50260769,10.8752107 C2.42762608,8.95018389 3.13179273,6.55515266 5.09228348,5.51682091 L7.06561112,4.47169038 C9.01854643,3.43736021 11.4615541,4.15928806 12.5295191,6.0974049 Z M39.8083408,18.9222059 C39.8075564,18.5135568 38.3100875,17.922112 36.9474166,17.922112 C35.5847457,17.922112 34.0855969,18.5137611 34.0864925,18.9220738 C34.0873881,19.3303865 35.6103195,19.922112 36.9474166,19.922112 C38.2845138,19.922112 39.8091253,19.330855 39.8083408,18.9222059 Z" id="Combined-Shape" fill="#000000"></path>
    </g>
</svg>