<?xml version="1.0" encoding="UTF-8"?>
<svg width="48px" height="48px" viewBox="0 0 48 48" version="1.1" xmlns="http://www.w3.org/2000/svg" xmlns:xlink="http://www.w3.org/1999/xlink">
    <!-- Generator: Sketch 43.2 (39069) - http://www.bohemiancoding.com/sketch -->
    <title>theicons.co/svg/sports-04</title>
    <desc>Created with Sketch.</desc>
    <defs></defs>
    <g id="The-Icons" stroke="none" stroke-width="1" fill="none" fill-rule="evenodd">
        <path d="M22.6561383,22.8010076 L18.4105566,18.5554259 C14.991613,15.1364823 14.5670046,9.8589299 17.1379028,5.97590976 C17.435802,6.27380875 24.4972812,13.3321778 29.069505,17.9023739 C28.3787165,18.0865338 27.7078272,18.3646304 27.0771772,18.736765 L25.4832229,17.1428108 C24.697348,16.3569358 23.4371869,16.3631047 22.6561383,17.1441533 C21.8696444,17.9306472 21.8744887,19.1909308 22.6547958,19.9712379 L24.0703519,21.386794 L22.6561383,22.8010076 Z M33.9709358,28.4567728 L19.8266222,42.6010864 C18.2679335,44.1597752 15.7294055,44.158546 14.170857,42.5999975 C12.6098043,41.0389447 12.6099874,38.5040128 14.169768,36.9442322 L28.3140816,22.7999186 C29.3580649,21.7559353 30.8416133,21.4117457 32.1758581,21.7665692 L29.7269339,24.2154934 C28.9405027,25.0019246 28.9461576,26.2625997 29.7272062,27.0436483 C30.5137001,27.8301422 31.7744628,27.8248187 32.555361,27.0439205 L35.0051692,24.5941124 C35.361018,25.9285796 35.0161093,27.4115994 33.9709358,28.4567728 Z M11.3413409,34.1158051 C8.22050765,37.2366383 8.21823551,42.3042302 11.3424298,45.4284246 C14.4602671,48.5462618 19.5314565,48.5531065 22.6550494,45.4295136 L36.799363,31.2852 C39.9201962,28.1643668 39.9224683,23.0967748 36.798274,19.9725805 L18.407806,1.58211246 C17.6299008,0.804207303 16.3668695,0.806005171 15.5856013,1.58727342 C10.1155489,7.05732575 10.1164137,15.9181372 15.5821295,21.383853 L19.8277112,25.6294347 L11.3413409,34.1158051 Z M18.4134977,38.3573568 C17.6324491,37.5763082 16.3661191,37.5763082 15.5850705,38.3573568 C14.8040219,39.1384053 14.8040219,40.4047353 15.5850705,41.1857839 C16.3661191,41.9668325 17.6324491,41.9668325 18.4134977,41.1857839 C19.1945462,40.4047353 19.1945462,39.1384053 18.4134977,38.3573568 Z" id="Combined-Shape" fill="#000000"></path>
    </g>
</svg>