<?xml version="1.0" encoding="UTF-8"?>
<svg width="48px" height="48px" viewBox="0 0 48 48" version="1.1" xmlns="http://www.w3.org/2000/svg" xmlns:xlink="http://www.w3.org/1999/xlink">
    <!-- Generator: Sketch 43.2 (39069) - http://www.bohemiancoding.com/sketch -->
    <title>theicons.co/svg/sports-10</title>
    <desc>Created with Sketch.</desc>
    <defs></defs>
    <g id="The-Icons" stroke="none" stroke-width="1" fill="none" fill-rule="evenodd">
        <path d="M19.8608711,31.2236355 L19.4328648,31.9649641 C18.8811563,32.9205512 17.6651118,33.2513428 16.7018574,32.6952076 C15.7452722,32.1429228 15.4189369,30.9172911 15.9687632,29.9649641 L16.3085459,29.3764431 C15.7810676,28.9973695 15.2810295,28.5825182 14.8119833,28.1354408 L11.5295302,33.8208164 L13.9960576,33.6613161 C15.354043,33.5737355 16.7601028,34.3864604 17.3626009,35.6049908 L18.4798959,37.864679 L21.9627396,31.7761532 C21.241374,31.6457348 20.5392367,31.4600477 19.8608711,31.2236355 Z M10.4698066,18 C10.4698066,10.2680135 16.7378201,4 24.4698066,4 C32.2017931,4 38.4698066,10.2680135 38.4698066,18 C38.4698066,20.4092971 37.8612115,22.6764491 36.7893678,24.6561097 L42.6952203,34.8853463 C43.5553365,36.3751114 42.4332385,38.1493224 40.7257989,38.0392044 L35.088405,37.6756318 L32.5548458,42.7567064 C31.8176016,44.2477559 29.7179646,44.40808 28.8388138,42.8853463 L24.4956708,35.362802 L20.1525278,42.8853463 C19.2733771,44.40808 17.1737401,44.2477559 16.4364959,42.7567064 L13.9221119,37.6714566 L8.26554274,38.0392044 C6.55810311,38.1493224 5.43600511,36.3751114 6.29612138,34.8853463 L12.1753371,24.7022459 C11.0879048,22.7117045 10.4698066,20.4280345 10.4698066,18 Z M30.5340825,37.8216377 L31.6287407,35.6049908 C32.2312388,34.3864604 33.6372986,33.5737355 34.995284,33.6613161 L37.4529281,33.819817 L34.1590491,28.1054006 C33.6812665,28.5636272 33.1710529,28.9883002 32.6321955,29.3756323 L32.9724463,29.9649641 C33.5222726,30.9172911 33.1959373,32.1429228 32.2393521,32.6952076 C31.2760977,33.2513428 30.0600532,32.9205512 29.5083447,31.9649641 L29.080071,31.2231723 C28.4202578,31.453194 27.7379505,31.6352254 27.0373303,31.7650854 L30.5340825,37.8216377 Z M24.4698066,28 C29.9926541,28 34.4698066,23.5228475 34.4698066,18 C34.4698066,12.4771525 29.9926541,8 24.4698066,8 C18.9469591,8 14.4698066,12.4771525 14.4698066,18 C14.4698066,23.5228475 18.9469591,28 24.4698066,28 Z M24.5782587,22 L21.6537079,23.5375274 C20.6718941,24.0536974 20.0283197,23.5839084 20.2154932,22.4926032 L20.7740327,19.236068 L18.4080214,16.929777 C17.6137173,16.1555218 17.8616378,15.3982734 18.9573705,15.2390541 L22.2271177,14.763932 L23.6893931,11.8010384 C24.1803001,10.8063524 24.9770978,10.8081361 25.4671244,11.8010384 L26.9293998,14.763932 L30.199147,15.2390541 C31.2968482,15.3985594 31.5413758,16.1569103 30.7484961,16.929777 L28.3824848,19.236068 L28.9410243,22.4926032 C29.1285341,23.5858689 28.4828627,24.0527718 27.5028096,23.5375274 L24.5782587,22 Z" id="Rectangle-818-Copy-3" fill="#000000"></path>
    </g>
</svg>