<?xml version="1.0" encoding="UTF-8"?>
<svg width="48px" height="48px" viewBox="0 0 48 48" version="1.1" xmlns="http://www.w3.org/2000/svg" xmlns:xlink="http://www.w3.org/1999/xlink">
    <!-- Generator: Sketch 43.2 (39069) - http://www.bohemiancoding.com/sketch -->
    <title>theicons.co/svg/sports-25</title>
    <desc>Created with Sketch.</desc>
    <defs></defs>
    <g id="The-Icons" stroke="none" stroke-width="1" fill="none" fill-rule="evenodd">
        <path d="M40.00145,18 L30.00145,18 L30.00145,22 L40.00145,22 L40.00145,18 Z M30.00145,26 L30.00145,30 C30.00145,31.1045695 29.1060195,32 28.00145,32 C26.8968805,32 26.00145,31.1045695 26.00145,30 L26.00145,9.99005301 C26.00145,8.89209956 25.1068596,8 24,8 C22.8954305,8 22,7.1045695 22,6 C22,4.8954305 22.8954305,4 24,4 C27.3135058,4 30.00145,6.68046005 30.00145,9.99005301 L30.00145,14 L40.00145,14 L40.00145,9.99005301 C40.00145,8.89209956 39.1068596,8 38,8 C36.8954305,8 36,7.1045695 36,6 C36,4.8954305 36.8954305,4 38,4 C41.3135058,4 44.00145,6.68046005 44.00145,9.99005301 L44.00145,30 C44.00145,31.1045695 43.1060195,32 42.00145,32 C40.8968805,32 40.00145,31.1045695 40.00145,30 L40.00145,26 L30.00145,26 Z M6.60068336,41.4095947 C5.45630034,40.2577243 5.02508464,40 4,40 C2.8954305,40 2,39.1045695 2,38 C2,36.8954305 2.8954305,36 4,36 C6.3537504,36 7.61170356,36.7518396 9.45732172,38.6095335 C10.588863,39.7484794 11.0082068,40 12,40 C13.0010266,40 13.4273923,39.7441805 14.5857864,38.5857864 C16.4273923,36.7441805 17.6676932,36 20,36 C22.3201226,36 23.5641986,36.744669 25.3675391,38.5619144 L25.3966333,38.5912339 C26.5345171,39.7378872 26.9697349,39.9976157 28.0046181,40.0000053 C29.0303042,40.0023737 29.4514841,39.7495052 30.5978328,38.5838516 C32.4092567,36.741921 33.6578002,35.9914193 36.0073155,36.0000134 C38.3481355,36.0085756 39.5990336,36.7574745 41.4402856,38.6055856 C42.577894,39.7474328 43.0000958,40 44.0000313,40 C45.1046008,40 46.0000313,40.8954305 46.0000313,42 C46.0000313,43.1045695 45.1046008,44 44.0000313,44 C41.6710251,44 40.4267011,43.2556273 38.5894808,41.4115614 C37.4443836,40.2621984 37.0126385,40.0037174 35.9926845,39.9999866 C34.9877733,39.9963109 34.5749078,40.244485 33.4362256,41.4023442 C31.6186232,43.2505555 30.3612517,44.0054576 27.9953819,43.9999947 C25.6386791,43.9945529 24.3749882,43.2404096 22.5573697,41.4087828 L22.5282704,41.3794582 C21.4073589,40.2499038 20.9898589,40 20,40 C18.9989734,40 18.5726077,40.2558195 17.4142136,41.4142136 C15.5726077,43.2558195 14.3323068,44 12,44 C9.67621459,44 8.43404049,43.2549493 6.60068336,41.4095947 Z M6.60068336,31.4095947 C5.45630034,30.2577243 5.02508464,30 4,30 C2.8954305,30 2,29.1045695 2,28 C2,26.8954305 2.8954305,26 4,26 C6.3537504,26 7.61170356,26.7518396 9.45732172,28.6095335 C10.588863,29.7484794 11.0082068,30 12,30 C13.0010266,30 13.4273923,29.7441805 14.5857864,28.5857864 C16.4273923,26.7441805 17.6676932,26 20,26 C21.1045695,26 22,26.8954305 22,28 C22,29.1045695 21.1045695,30 20,30 C18.9989734,30 18.5726077,30.2558195 17.4142136,31.4142136 C15.5726077,33.2558195 14.3323068,34 12,34 C9.67621459,34 8.43404049,33.2549493 6.60068336,31.4095947 Z" id="Combined-Shape" fill="#000000"></path>
    </g>
</svg>