<?xml version="1.0" encoding="UTF-8"?>
<svg width="48px" height="48px" viewBox="0 0 48 48" version="1.1" xmlns="http://www.w3.org/2000/svg" xmlns:xlink="http://www.w3.org/1999/xlink">
    <!-- Generator: Sketch 43.2 (39069) - http://www.bohemiancoding.com/sketch -->
    <title>theicons.co/svg/sports-16</title>
    <desc>Created with Sketch.</desc>
    <defs></defs>
    <g id="The-Icons" stroke="none" stroke-width="1" fill="none" fill-rule="evenodd">
        <path d="M14,16 L21.00077,16 C23.6114939,16 25.8338451,17.6710763 26.6580428,20 L31.9969715,20 C35.3190952,20 38,17.3176391 38,14 C38,10.6921055 35.3083234,8 31.9950655,8 L20.0049345,8 C16.682477,8 14,10.6827506 14,13.9993459 L14,16 Z M21.00077,28 L15.99923,28 C14.8946605,28 13.99923,27.1045695 13.99923,26 C13.99923,24.8954305 14.8946605,24 15.99923,24 L21.00077,24 C22.1037015,24 23,23.103831 23,22 C23,20.8979398 22.1029294,20 21.00077,20 L14.0037009,20 C11.7882968,20 10,21.7896183 10,24.0033309 L10,27.9966691 C10,30.2134953 11.7886197,32 14.0037009,32 L38,32 L38,22.0031687 C36.3288851,23.2572431 34.2509617,24 31.9969715,24 L26.6584052,24 C25.8344646,26.330121 23.6117245,28 21.00077,28 Z M42,14 L42,40.0002927 C42,42.2057719 40.2081672,44 38.0087557,44 L13.9912443,44 C11.7846509,44 10,42.20563 10,39.9982109 L10,34.9304674 C7.60799961,33.5481129 6,30.9634177 6,27.9966691 L6,24.0033309 C6,21.0394475 7.60748865,18.4533702 10,17.0700651 L10,13.9993459 C10,8.47370285 14.4732467,4 20.0049345,4 L31.9950655,4 C37.5176051,4 42,8.48310914 42,14 Z M38,36 L14.0037009,36 L13.9912443,40 C13.9912443,40 16.551559,39.9997684 20.0000001,39.9995423 C20.0002492,38.8951831 20.9021032,38 22.0085302,38 L29.9914698,38 C31.1004594,38 31.9995281,38.8872639 31.9999998,39.9991246 C35.4440182,39.999178 38,40.0002927 38,40.0002927 L38,36 Z" id="Combined-Shape" fill="#000000"></path>
    </g>
</svg>