<?xml version="1.0" encoding="UTF-8"?>
<svg width="48px" height="48px" viewBox="0 0 48 48" version="1.1" xmlns="http://www.w3.org/2000/svg" xmlns:xlink="http://www.w3.org/1999/xlink">
    <!-- Generator: Sketch 43.2 (39069) - http://www.bohemiancoding.com/sketch -->
    <title>theicons.co/svg/sports-20</title>
    <desc>Created with Sketch.</desc>
    <defs></defs>
    <g id="The-Icons" stroke="none" stroke-width="1" fill="none" fill-rule="evenodd">
        <path d="M14.1880361,11.3596089 L18.2555484,15.4271213 C19.9069084,13.3052168 20.9781495,10.8280266 21.405204,8.21058441 C18.833868,8.63094084 16.3454186,9.68061568 14.1880361,11.3596089 Z M33.8119639,11.3596089 L24,21.1715729 L21.1015073,18.2730802 C23.5141563,15.3270753 25.0085517,11.7929415 25.4655331,8.06684997 C28.4334339,8.33822268 31.3400229,9.435809 33.8119639,11.3596089 Z M11.3596089,14.1880361 L15.4270912,18.2555183 C13.3039194,19.9077543 10.8258151,20.9785999 8.21055767,21.4053676 C8.63089633,18.8339735 9.68058008,16.3454643 11.3596089,14.1880361 Z M11.3596089,33.8119639 L21.1715729,24 L18.2730629,21.10149 C15.3250065,23.5157184 11.7894404,25.0091713 8.06686491,25.4656964 C8.33826295,28.4335405 9.43584429,31.3400682 11.3596089,33.8119639 Z M39.933144,22.5344006 C39.661761,19.5665228 38.5641767,16.6599587 36.6403911,14.1880361 L26.8284271,24 L29.726927,26.8984999 C32.6737994,24.4851821 36.2085414,22.9911793 39.933144,22.5344006 Z M22.5343852,39.9331425 C19.5665127,39.6617572 16.6599544,38.5641733 14.1880361,36.6403911 L24,26.8284271 L26.8985015,29.7269286 C24.4850342,32.6739951 22.9911205,36.2088727 22.5343852,39.9331425 Z M39.7894267,26.5947278 C37.1729093,27.0216544 34.6953314,28.0927325 32.5728912,29.744464 L36.6403911,33.8119639 C38.3193992,31.6545623 39.3690777,29.166088 39.7894267,26.5947278 Z M26.5947123,39.7894293 C27.0216116,37.1731186 28.0926524,34.6954541 29.7444669,32.572894 L33.8119639,36.6403911 C31.654558,38.3194025 29.166078,39.3690819 26.5947123,39.7894293 Z M38.1421356,38.1421356 C45.9526215,30.3316498 45.9526215,17.6683502 38.1421356,9.85786438 C30.3316498,2.04737854 17.6683502,2.04737854 9.85786438,9.85786438 C2.04737854,17.6683502 2.04737854,30.3316498 9.85786438,38.1421356 C17.6683502,45.9526215 30.3316498,45.9526215 38.1421356,38.1421356 Z" id="Combined-Shape" fill="#000000"></path>
    </g>
</svg>