<?xml version="1.0" encoding="UTF-8"?>
<svg width="48px" height="48px" viewBox="0 0 48 48" version="1.1" xmlns="http://www.w3.org/2000/svg" xmlns:xlink="http://www.w3.org/1999/xlink">
    <!-- Generator: Sketch 43.2 (39069) - http://www.bohemiancoding.com/sketch -->
    <title>theicons.co/svg/sports-14</title>
    <desc>Created with Sketch.</desc>
    <defs></defs>
    <g id="The-Icons" stroke="none" stroke-width="1" fill="none" fill-rule="evenodd">
        <path d="M43.990237,16 C46.2122004,16 48,17.7891609 48,19.9962027 L48,28.0037973 C48,30.2111696 46.204768,32 43.990237,32 L42,32 L42,33.9998243 C42,37.3136299 39.3069658,40 36,40 C32.6862915,40 30,37.3130221 30,33.9998243 L30,26 L18,26 L18,33.9998243 C18,37.3136299 15.3069658,40 12,40 C8.6862915,40 6,37.3130221 6,33.9998243 L6,32 L4.009763,32 C1.79523205,32 0,30.2111696 0,28.0037973 L0,19.9962027 C0,17.7891609 1.7877996,16 4.009763,16 L6,16 L6,14.0001757 C6,10.6863701 8.69303423,8 12,8 C15.3137085,8 18,10.6869779 18,14.0001757 L18,22 L30,22 L30,14.0001757 C30,10.6863701 32.6930342,8 36,8 C39.3137085,8 42,10.6869779 42,14.0001757 L42,16 L43.990237,16 Z M10,14.0001757 L10,33.9998243 C10,35.1041818 10.8957293,36 12,36 C13.1008238,36 14,35.101495 14,33.9998243 L14,14.0001757 C14,12.8958182 13.1042707,12 12,12 C10.8991762,12 10,12.898505 10,14.0001757 Z M34,14.0001757 L34,33.9998243 C34,35.1041818 34.8957293,36 36,36 C37.1008238,36 38,35.101495 38,33.9998243 L38,14.0001757 C38,12.8958182 37.1042707,12 36,12 C34.8991762,12 34,12.898505 34,14.0001757 Z M4,20 L4,28 L6,28 L6,20 L4,20 Z M42,20 L42,28 L44,28 L44,20 L42,20 Z" id="Combined-Shape" fill="#000000"></path>
    </g>
</svg>