<?xml version="1.0" encoding="UTF-8"?>
<svg width="48px" height="48px" viewBox="0 0 48 48" version="1.1" xmlns="http://www.w3.org/2000/svg" xmlns:xlink="http://www.w3.org/1999/xlink">
    <!-- Generator: Sketch 43.2 (39069) - http://www.bohemiancoding.com/sketch -->
    <title>theicons.co/svg/sports-24</title>
    <desc>Created with Sketch.</desc>
    <defs></defs>
    <g id="The-Icons" stroke="none" stroke-width="1" fill="none" fill-rule="evenodd">
        <path d="M12.366397,32.6246248 C12.366397,32.6246248 23.9055461,15.4286215 26.5085326,12.8256349 C30.7403745,8.59379304 33.5761716,5.7579959 33.5761716,5.7579959 C35.921211,3.41295648 39.7265039,3.41618919 42.0648818,5.75456711 C44.4080275,8.09771286 44.4028363,11.8974597 42.0572796,14.2394694 C42.0572796,14.2394694 39.1792671,17.1046558 34.993814,21.3109163 C32.4798682,23.7925328 16.9666883,34.2247764 15.3139099,35.3339662 L10.2450766,40.4027994 C11.0267263,41.184449 11.0315706,42.4447326 10.2450766,43.2312265 C9.46402806,44.0122751 8.203867,44.018444 7.41799206,43.2325691 L4.58687985,40.4014568 C3.80657273,39.6211497 3.80172848,38.3608662 4.58822239,37.5743723 C5.36927097,36.7933237 6.62943203,36.7871548 7.41530697,37.5730297 L12.366397,32.6246248 Z M32.1583824,18.489511 C31.3651678,19.2722998 21.8170821,26.0023668 21.8170821,26.0023668 C21.8170821,26.0023668 28.544327,16.4466947 29.3369597,15.654062 C29.900829,15.0901928 35.2297005,9.76132126 36.4045988,8.58642302 C37.1859145,7.8051073 38.4585474,7.805087 39.2364547,8.58299423 C40.0152104,9.36175 40.0138926,10.6271877 39.2309935,11.4089029 C39.1245502,11.5148656 34.6436764,15.9918618 32.1583824,18.489511 Z M30,33 C30,29.1340068 33.1340068,26 37,26 C40.8659932,26 44,29.1340068 44,33 C44,36.8659932 40.8659932,40 37,40 C33.1340068,40 30,36.8659932 30,33 Z M40,33 C40,31.3431458 38.6568542,30 37,30 C35.3431458,30 34,31.3431458 34,33 C34,34.6568542 35.3431458,36 37,36 C38.6568542,36 40,34.6568542 40,33 Z" id="Combined-Shape" fill="#000000"></path>
    </g>
</svg>