<?xml version="1.0" encoding="UTF-8"?>
<svg width="48px" height="48px" viewBox="0 0 48 48" version="1.1" xmlns="http://www.w3.org/2000/svg" xmlns:xlink="http://www.w3.org/1999/xlink">
    <!-- Generator: Sketch 43.2 (39069) - http://www.bohemiancoding.com/sketch -->
    <title>theicons.co/svg/sports-29</title>
    <desc>Created with Sketch.</desc>
    <defs></defs>
    <g id="The-Icons" stroke="none" stroke-width="1" fill="none" fill-rule="evenodd">
        <path d="M44.0775178,34.4528219 C44.3810642,33.3907799 45.4880924,32.7758977 46.5501345,33.0794442 C47.6121766,33.3829906 48.2270587,34.4900188 47.9235123,35.5520609 L45.9440597,42.4777284 C45.9153098,42.5927514 45.8764679,42.7047805 45.8283177,42.8124837 C45.7519999,42.9847551 45.6531898,43.1420207 45.5364689,43.2817357 C45.2190616,43.6643372 44.7584352,43.9332861 44.2130632,43.9892058 C44.1283843,43.9982832 44.04264,44.0019674 43.9562955,44 L4.04473454,44 C3.95839004,44.0019674 3.87264574,43.9982832 3.78796683,43.9892058 C3.24259482,43.9332861 2.78196842,43.6643372 2.46456111,43.2817357 C2.34784024,43.1420207 2.24903015,42.9847551 2.17271234,42.8124837 C2.12456218,42.7047805 2.08572029,42.5927514 2.05697031,42.4777284 L0.0775177696,35.5520609 C-0.226028686,34.4900188 0.388853487,33.3829906 1.45089554,33.0794442 C2.5129376,32.7758977 3.61996582,33.3907799 3.92351227,34.4528219 L4.59678639,36.8084595 L22.2522005,5.02871414 C23.0142109,3.65709529 24.9868191,3.65709529 25.7488296,5.02871414 L43.4042437,36.8084595 L44.0775178,34.4528219 Z M24.135748,24.516122 C24.0898591,24.3443233 23.911171,24.3443233 23.8652821,24.516122 C21.9944314,31.5202116 18.9980117,36.8961391 14.6927511,40 L33.3082789,40 C29.0030184,36.8961391 26.0065987,31.5202116 24.135748,24.516122 Z M26.3765126,14.3950477 C26.7009235,17.5221895 27.2295136,20.5983492 28.0002624,23.483878 C30.2449289,31.8874587 34.0785193,37.2437651 39.8444293,38.6372978 L26.3765126,14.3950477 Z M20.0007676,23.483878 C20.7715164,20.5983492 21.3001065,17.5221895 21.6245174,14.3950477 L8.15660074,38.6372978 C13.9225107,37.2437651 17.7561011,31.8874587 20.0007676,23.483878 Z" id="Combined-Shape" fill="#000000"></path>
    </g>
</svg>