<?xml version="1.0" encoding="UTF-8"?>
<svg width="48px" height="48px" viewBox="0 0 48 48" version="1.1" xmlns="http://www.w3.org/2000/svg" xmlns:xlink="http://www.w3.org/1999/xlink">
    <!-- Generator: Sketch 43.2 (39069) - http://www.bohemiancoding.com/sketch -->
    <title>theicons.co/svg/sports-26</title>
    <desc>Created with Sketch.</desc>
    <defs></defs>
    <g id="The-Icons" stroke="none" stroke-width="1" fill="none" fill-rule="evenodd">
        <path d="M34,17 C34,19.2658768 32.4944831,21.1797221 30.4297555,21.793645 L32.6235866,32.0315235 C35.6438479,32.3414416 38,34.8984192 38,38.0088187 L38,42.0050234 C38,43.1068185 37.1001025,44 36.0087557,44 L11.9912443,44 C10.8915104,44 10,43.1030596 10,42.0050234 L10,38.0088187 C10,34.8993413 12.3557593,32.3415152 15.3764128,32.0315264 L17.5703432,21.7931844 C15.5057702,21.1780357 14,19.2612475 14,17 C14,14.4553639 15.8987353,12.3547046 18.3559125,12.0405599 C18.1255738,11.4035752 18,10.7164523 18,10 C18,6.6862915 20.6862915,4 24,4 C27.3137085,4 30,6.6862915 30,10 C30,10.7164904 29.8744128,11.4036483 29.6440507,12.0406615 C32.1009375,12.3555438 34,14.4605575 34,17 Z M19.4739744,32 L28.5260256,32 L26.3831684,22 L21.6168316,22 L19.4739744,32 Z M34,38.0088187 C34,36.8966564 33.1054053,36 32.0056959,36 L15.9943041,36 C14.8947756,36 14,36.8969934 14,38.0088187 L14,40 L34,40 L34,38.0088187 Z M26,10 C26,8.8954305 25.1045695,8 24,8 C22.8954305,8 22,8.8954305 22,10 C22,11.1045695 22.8954305,12 24,12 C25.1045695,12 26,11.1045695 26,10 Z M18.9952534,18 L29.0047466,18 C29.5537782,18 30,17.5533287 30,17 C30,16.4498498 29.5509259,16 29.0047466,16 L18.9952534,16 C18.4462218,16 18,16.4466713 18,17 C18,17.5501502 18.4490741,18 18.9952534,18 Z" id="Combined-Shape" fill="#000000"></path>
    </g>
</svg>