<?xml version="1.0" encoding="UTF-8"?>
<svg width="48px" height="48px" viewBox="0 0 48 48" version="1.1" xmlns="http://www.w3.org/2000/svg" xmlns:xlink="http://www.w3.org/1999/xlink">
    <!-- Generator: Sketch 43.2 (39069) - http://www.bohemiancoding.com/sketch -->
    <title>theicons.co/svg/sports-28</title>
    <desc>Created with Sketch.</desc>
    <defs></defs>
    <g id="The-Icons" stroke="none" stroke-width="1" fill="none" fill-rule="evenodd">
        <path d="M9.23221287,10.4100023 C10.979804,9.39945749 14.1722887,10.4549561 17.3220163,12.6866022 C18.8328248,7.77217341 21.4667465,4 24.0346879,4 C26.6324028,4 29.2906668,7.85178904 30.7923674,12.8594999 C34.0191403,10.5100968 37.3307471,9.37370372 39.1228756,10.4100023 C41.6438307,11.867745 41.5412639,17.8388436 39.4668897,24.2214683 C39.7384961,24.2520474 40.0070983,24.2861474 40.2714496,24.3240057 C42.3676962,24.6242135 43.9019551,25.0884336 44.8925504,25.9761865 C46.829426,27.701173 46.0340081,30.1107022 43.9851473,32.1790344 C42.9291414,33.245076 41.5370485,34.2228425 40.0080756,34.9755617 C42.4109514,37.5588046 43.6452447,40.2433159 42.6255364,42.0122554 L42.5307387,42.1767057 C40.860102,45.0748435 33.3544993,44.3499664 27.8599815,41.1872062 C26.9394645,40.6549285 26.0835783,39.9716224 25.0856902,39.0370676 C24.9050653,38.8679065 24.5326258,38.508211 24.212111,38.1977259 C23.8915962,38.508211 23.5191567,38.8679065 23.3385318,39.0370676 C22.3406437,39.9716224 21.4847575,40.6549285 20.5608433,41.1891661 C15.0697227,44.3499664 7.56412002,45.0748435 5.8934833,42.1767057 L5.79868565,42.0122554 C4.79750282,40.275453 5.96916659,37.6560439 8.28634755,35.1164487 C6.64244188,34.346888 5.13904932,33.3128932 4.0158647,32.1790344 C1.96700391,30.1107022 1.17158602,27.701173 3.10384777,25.9803084 C4.09905692,25.0884336 5.63331585,24.6242135 7.72956237,24.3240057 C8.10437268,24.2703283 8.48772866,24.2242062 8.87607655,24.184963 C6.81345424,17.8167721 6.71592033,11.8650489 9.23221287,10.4100023 Z M8.29515585,28.2856693 C7.49177281,28.4007234 6.36039052,28.6994657 6.36039052,28.6994657 C6.36039052,28.6994657 6.40593896,28.9097068 6.85241279,29.3604237 C7.97315875,30.4918207 9.75035662,31.5527785 11.556965,32.0991279 L11.5314774,32.1836705 C11.7531504,32.0156688 11.9786747,31.8500858 12.2076618,31.6872852 C12.190402,31.6577457 12.1731496,31.6280767 12.155904,31.5982778 C11.5018746,30.4637209 10.9076295,29.2880145 10.377404,28.0977948 C9.61640357,28.1515542 8.72964769,28.2234448 8.29515585,28.2856693 Z M37.9759676,28.1010816 C37.4457255,29.2911287 36.8514882,30.4667096 36.1974818,31.6012257 C36.1875461,31.6183939 36.1776067,31.6355191 36.1676638,31.6526014 C36.3406851,31.7750499 36.5117536,31.8990949 36.6807027,32.0245805 C38.4047483,31.4599044 40.0768361,30.4423723 41.1485992,29.3604237 C41.3703865,29.1365287 41.6838123,28.7402735 41.6838123,28.7402735 C41.6838123,28.7402735 41.042167,28.4770451 39.7058562,28.2856693 C39.1552461,28.2068153 38.5711565,28.1459376 37.9759676,28.1010816 Z M14.5924864,34.9040349 C13.0678893,35.9865608 11.7260256,37.2162824 10.7279296,38.4226841 C10.2607728,38.9873379 9.66769145,39.9481829 9.66769145,39.9481829 C9.66769145,39.9481829 10.7983889,40.0307172 11.7192638,39.9417808 C13.9384393,39.727457 16.4102654,38.9625043 18.5664072,37.7213899 C18.6983718,37.6450829 18.8320219,37.5611083 18.9685662,37.4687449 C17.2883909,37.0056709 15.8770563,36.2046944 14.5924864,34.9040349 Z M29.8544176,37.7194299 C32.0139566,38.9625043 34.4857827,39.727457 36.7049582,39.9417808 C37.4880736,40.0174127 38.697488,39.9417805 38.697488,39.9417805 C38.697488,39.9417805 38.2789173,39.1269046 37.6962925,38.4226841 C36.6870154,37.2027679 35.3262256,35.9590063 33.7804299,34.8677101 C32.4981608,36.1600169 31.0819098,36.9652285 29.40318,37.4330967 C29.5570378,37.5390129 29.7068945,37.6341254 29.8544176,37.7194299 Z M16.0432267,21.0083239 C16.0432267,19.6696261 16.1511597,18.3160343 16.3487918,16.9878766 C15.1855958,16.0079148 13.9917837,15.2192173 12.8774169,14.6744658 C12.3355408,14.409573 11.4420788,14.11013 11.4420788,14.11013 C11.4420788,14.11013 11.426165,14.0578857 11.3821485,14.4385702 C11.272582,15.3861748 11.3178023,16.6921639 11.5339854,18.1814769 C12.0552073,21.772242 13.4489474,25.837538 15.6145895,29.5943228 C16.5916735,31.2826457 17.5114631,32.3520925 18.6466072,33.0152236 C17.0757595,29.7829932 16.0432267,25.3776386 16.0432267,21.0083239 Z M20.0389573,21.0083239 C20.0389573,24.5652632 20.793718,28.0597591 22.0241656,30.7991999 C22.5459199,31.9608217 23.1213698,32.9030408 23.6586954,33.5153968 C23.8739746,33.7607369 24.0346879,33.9222977 24.0346879,33.9222977 C24.0346879,33.9222977 24.310139,33.6339988 24.4109147,33.5196103 C24.9460881,32.9121465 25.5195333,31.9766642 26.0400101,30.8223254 C27.2669754,28.1011019 28.0230848,24.6250769 28.030338,21.0869338 C28.0303721,17.5473697 27.2330697,14.0534872 25.9365283,11.2464996 C25.3981658,10.0809551 24.8070588,9.11954026 24.2630782,8.48460971 C24.1858511,8.39447079 24.0346879,8.2435796 24.0346879,8.2435796 C24.0346879,8.2435796 24.022601,8.23132113 23.8052552,8.48459544 C23.2614524,9.11829193 22.6702354,10.0774239 22.1316771,11.2391787 C21.5248608,12.5481765 21.0273913,14.0056638 20.6699572,15.5452806 C20.6927974,15.5684925 20.7156018,15.5917565 20.7383699,15.6150721 L20.6297444,15.7214775 C20.2493903,17.4171676 20.0389573,19.20865 20.0389573,21.0083239 Z M32.7387963,29.5972707 C34.9061411,25.837538 36.2998812,21.772242 36.8211031,18.1814769 C37.0372862,16.6921639 37.0825065,15.3861748 36.97294,14.4385702 C36.9596841,14.3239242 36.9278184,14.1206961 36.9278184,14.1206961 C36.9278184,14.1206961 36.1423017,14.3495654 35.4776716,14.6744658 C34.2798657,15.260006 32.990272,16.1273912 31.7455721,17.2111977 C31.9272693,18.4933519 32.0260775,19.7984023 32.0260644,21.0910592 C32.0170216,25.5046828 30.9550593,29.9476301 29.3501943,33.1733864 C30.6643049,32.5287261 31.6820989,31.4231563 32.7387963,29.5972707 Z M24.0346879,26.0107721 C22.9312974,26.0107721 22.0368226,25.1149031 22.0368226,24.0097928 C22.0368226,22.9046824 22.9312974,22.0088135 24.0346879,22.0088135 C25.1380784,22.0088135 26.0325532,22.9046824 26.0325532,24.0097928 C26.0325532,25.1149031 25.1380784,26.0107721 24.0346879,26.0107721 Z" id="Combined-Shape" fill="#000000"></path>
    </g>
</svg>