<?xml version="1.0" encoding="UTF-8"?>
<svg width="48px" height="48px" viewBox="0 0 48 48" version="1.1" xmlns="http://www.w3.org/2000/svg" xmlns:xlink="http://www.w3.org/1999/xlink">
    <!-- Generator: Sketch 43.2 (39069) - http://www.bohemiancoding.com/sketch -->
    <title>theicons.co/svg/sports-08</title>
    <desc>Created with Sketch.</desc>
    <defs></defs>
    <g id="The-Icons" stroke="none" stroke-width="1" fill="none" fill-rule="evenodd">
        <path d="M25.9999995,25.9835493 L26,29.982627 C28.2971617,29.9370013 30.6428303,29.8044908 32.9999999,29.5999584 L33,25.6146832 C30.6458219,25.8123089 28.3016472,25.9399036 25.9999995,25.9835493 Z M37,29.1869528 C37.456124,29.1325711 41.5164936,28.5454699 43,28.3040592 L43,24.3547421 C41.5424819,24.5900717 37,25.214466 37,25.214466 L37,29.1869528 Z M25.9999995,17.9835493 L26,21.9826237 C28.2971617,21.9370013 30.6428303,21.8044908 32.9999999,21.5999584 L33,17.6146832 C30.6458219,17.8123089 28.3016472,17.9399036 25.9999995,17.9835493 Z M37,21.1869528 C37,21.1869528 41.5164936,20.5454699 43,20.3040592 L43,16.3547421 C41.5424819,16.5900717 37,17.214466 37,17.214466 L37,21.1869528 Z M15,25.6057126 L15,29.5906401 C17.3745836,29.7989945 19.7211698,29.9343997 22,29.9816349 L22,25.982636 C19.7151253,25.9374649 17.3702349,25.8070612 15,25.6057126 Z M15,17.6057126 L15,21.5906401 C17.3745836,21.7989945 19.7211698,21.9343997 22,21.9816349 L22,17.9826325 C19.7151253,17.9374649 17.3702349,17.8070612 15,17.6057126 Z M5,24.3510375 L5,28.3019282 C6.51113161,28.5436027 10.5753715,29.1250934 11,29.1756787 L11,25.2031827 C10.4055959,25.1343926 6.48768474,24.5872216 5,24.3510375 Z M5,16.3510375 L5,20.3019282 C6.51113161,20.5436027 10.5753715,21.1250934 11,21.1756787 L11,17.2031827 C10.4055959,17.1343926 5,16.3510375 5,16.3510375 Z M47,42.0002927 C47,43.1047006 46.1122704,44 45,44 C43.8954305,44 43,43.1101074 43,42.0002927 L43,32.3547421 C41.5424819,32.5900717 39.7904956,32.8656568 38.8815452,32.9835491 C33.8961312,33.6301652 28.8337691,34.0133742 24.0056653,33.999992 C19.2791649,34.0133806 14.2417084,33.6308008 9.21622047,32.9853321 C8.2909805,32.8664952 6.48768474,32.5872216 5,32.3510375 L5,42.0002927 C5,43.1047006 4.11227036,44 3,44 C1.8954305,44 1,43.1101074 1,42.0002927 L1,9.23610651 C0.38625064,8.68678595 0,7.88849981 0,7 C0,5.34314575 1.34314575,4 3,4 C4.65685425,4 6,5.34314575 6,7 C6,7.88849981 5.61374936,8.68678595 5,9.23610651 L5,12.3019282 C6.51113161,12.5436027 8.6834826,12.8840496 9.72579061,13.0179226 C14.5916919,13.6428942 19.4628521,14.0128442 24.0055305,14.0000076 C28.6498346,14.0128503 33.5432428,13.6424307 38.3670484,13.0167755 C39.3951563,12.8834283 41.5164936,12.5454699 43,12.3040592 L43,9.23610651 C42.3862506,8.68678595 42,7.88849981 42,7 C42,5.34314575 43.3431458,4 45,4 C46.6568542,4 48,5.34314575 48,7 C48,7.88849981 47.6137494,8.68678595 47,9.23610651 L47,42.0002927 Z" id="Combined-Shape" fill="#000000"></path>
    </g>
</svg>