<?xml version="1.0" encoding="UTF-8"?>
<svg width="48px" height="48px" viewBox="0 0 48 48" version="1.1" xmlns="http://www.w3.org/2000/svg" xmlns:xlink="http://www.w3.org/1999/xlink">
    <!-- Generator: Sketch 43.2 (39069) - http://www.bohemiancoding.com/sketch -->
    <title>theicons.co/svg/sports-27</title>
    <desc>Created with Sketch.</desc>
    <defs></defs>
    <g id="The-Icons" stroke="none" stroke-width="1" fill="none" fill-rule="evenodd">
        <path d="M26.7901379,28.8388029 C25.7748784,29.2739141 24.5991205,28.803611 24.1640093,27.7883514 C23.728898,26.7730919 24.1992012,25.597334 25.2144607,25.1622228 L31.1697549,22.6099538 C30.9413816,22.0872562 30.7013941,21.5384463 30.4576213,20.98131 L23.7901379,23.8388029 C22.7748784,24.2739141 21.5991205,23.803611 21.1640093,22.7883514 C20.728898,21.7730919 21.1992012,20.597334 22.2144607,20.1622228 L28.8528026,17.3172191 C28.000304,15.3723917 27.3510198,13.8932793 27.3510198,13.8932793 C27.3510198,13.8932793 22.7488747,15.8232194 21.6836431,16.0266433 C20.2607522,16.2983683 18.9228774,16.1923786 17.6750061,15.6003072 C14.5016946,14.0946816 13.6326448,12.184582 13.1863013,8.22252502 C13.1863013,8.22252502 7.62873371,13.8030694 6.58705016,15.0654231 C5.60783778,16.2520717 5.84248845,18.4995013 7.3878867,20.3551874 C8.20514379,21.3365348 26.0184877,40.0936002 26.0561798,40.1328698 C26.4471669,40.5407122 27.4458541,41.0170292 28.0087752,41.0170292 C28.1071242,41.0170292 37.7616814,41.017029 40.0192871,41.0170288 C41.2713379,41.0170287 42.4283412,39.2832606 41.8209558,37.8066851 C41.6270087,37.3351926 35.53444,31.1012729 35.4673783,31.0431661 C34.8347344,30.4834962 34.1433212,29.5192756 33.8118663,28.7396257 C33.7582018,28.6130307 33.0360321,26.91551 32.7640701,26.2785463 L26.7901379,28.8388029 Z M4.32485295,22.9495313 C1.62956186,19.7130748 1.17113145,15.3223349 3.51244324,12.4850399 C4.64710157,11.1100157 11.2205446,4.53890596 12.0687628,3.93775621 C12.6571742,3.52073689 13.1680865,3.23916743 13.6934081,3.09704066 C14.8959107,2.77170127 16.2002484,3.25740101 16.6150199,4.66016435 C16.7774233,5.20941494 17.0829726,7.07689288 17.1607338,7.76715595 C17.4659609,10.4765652 17.7946417,11.1989783 19.3778517,11.9501562 C19.7945697,12.1478744 20.2901068,12.1871321 20.9394286,12.0631331 C21.6115878,11.934773 25.87139,10.0641829 26.7572389,9.89282699 C28.460712,9.56331232 29.9697584,10.1490204 30.7983931,11.8118769 C31.4198887,13.1180146 37.4356205,27.0259563 37.4890423,27.1519815 C37.5854886,27.3788422 37.9229344,27.8494322 38.0872024,27.9949416 C38.1478564,28.0473267 44.7969971,35.4968262 45.3096924,36.4437256 C47.4656773,40.4256243 44.0774956,44.9999991 40.0141298,44.9999996 C37.7565238,44.9999998 28.1019663,45 28.0036173,45 C26.3559584,45 24.324747,44.1304112 23.1812768,42.9376457 C23.1439753,42.8987835 5.22851568,24.034633 4.32485295,22.9495313 Z M2.00229932,43 C2.00229932,41.8954305 2.89681308,41 3.9963596,41 L16.008239,41 C17.1095281,41 18.0022993,41.8877296 18.0022993,43 C18.0022993,44.1045695 17.1077856,45 16.008239,45 L3.9963596,45 C2.89507052,45 2.00229932,44.1122704 2.00229932,43 Z M2.00229932,35 C2.00229932,33.8954305 2.88900567,33 4.00040067,33 L8.00419797,33 C9.10771887,33 10.0022993,33.8877296 10.0022993,35 C10.0022993,36.1045695 9.11559297,37 8.00419797,37 L4.00040067,37 C2.89687977,37 2.00229932,36.1122704 2.00229932,35 Z" id="Combined-Shape" fill="#000000"></path>
    </g>
</svg>