<?xml version="1.0" encoding="UTF-8"?>
<svg width="48px" height="48px" viewBox="0 0 48 48" version="1.1" xmlns="http://www.w3.org/2000/svg" xmlns:xlink="http://www.w3.org/1999/xlink">
    <!-- Generator: Sketch 43.2 (39069) - http://www.bohemiancoding.com/sketch -->
    <title>theicons.co/svg/sports-30</title>
    <desc>Created with Sketch.</desc>
    <defs></defs>
    <g id="The-Icons" stroke="none" stroke-width="1" fill="none" fill-rule="evenodd">
        <path d="M22.7253499,17.2024873 C21.9188873,17.3431052 21.0132296,17.5390631 20.0328606,17.7990386 C15.6910693,18.9504003 11.5024968,20.8826002 8.00167047,23.7663493 C8.00055808,23.8440805 8,23.9219458 8,23.9999415 C8,25.8723197 8.32161994,27.6695795 8.91262858,29.3394898 C12.6948596,25.364985 16.9354074,23.1673484 21.1462644,22.3174679 C21.7360844,22.1984241 22.2647304,22.1181965 22.7237275,22.0677913 C22.8481928,21.7741623 22.9719896,21.449285 23.0913769,21.0943123 C23.5173827,19.8276749 23.807319,18.4718206 23.9305252,17.0328413 C23.5182733,17.0852113 23.0011634,17.1543954 22.7253499,17.2024873 Z M22.6468173,8.0563564 C16.4941915,8.57160186 11.3314519,12.5682819 9.13478455,18.0702106 C12.2173266,16.1938016 15.5723928,14.8436182 19.0075728,13.9326727 C20.7293755,13.4760829 22.8215013,13.1389063 23.843565,13.0127281 C23.6475369,11.4358496 23.2587496,9.78171332 22.6468173,8.0563564 Z M21.93763,26.2384041 C20.6451293,26.4992705 19.3436436,26.9182876 18.0529664,27.5180359 C18.2697588,27.8442524 18.5610367,28.2749664 18.7502241,28.5013052 C19.2752341,29.1294134 19.8977674,29.815757 20.6130973,30.5347937 C23.7823502,33.7204696 27.5516922,36.3826226 31.8015584,37.9723343 C33.4604488,37.0440973 34.9370719,35.8289924 36.1642662,34.3941812 C30.8327544,33.1056634 26.8103356,30.5324533 23.96947,27.3113431 C23.571465,26.8600659 23.2376628,26.4423588 22.9645122,26.0700583 C22.6479893,26.1090827 22.3047389,26.1643102 21.93763,26.2384041 Z M24,39.9999415 C24.7794884,39.9999415 25.5459577,39.9442004 26.2956394,39.8364869 C23.1298864,38.105235 20.2835091,35.8750276 17.7773702,33.3559019 C16.4722377,32.0440064 15.2022757,30.3592123 14.6297664,29.5772816 C13.338536,30.5451802 12.0774641,31.7256038 10.8680825,33.1431158 C13.7594118,37.2880435 18.563007,39.9999415 24,39.9999415 Z M40,23.9999415 C40,20.2600303 38.7168472,16.8198155 36.5667716,14.0955271 C36.6499673,17.7016986 36.1417656,21.2807402 35.2134814,24.7096741 C34.7313575,26.4905628 34.0006885,28.4732154 33.6181337,29.3686881 C35.0761814,29.9826817 36.6959044,30.4695103 38.4871148,30.8002894 C39.4575713,28.7364651 40,26.4315488 40,23.9999415 Z M26.9694175,24.6655323 C27.8574676,25.6724462 28.8921717,26.6054458 30.0837255,27.4345172 C30.2289927,27.0674103 30.4205479,26.5738729 30.5228504,26.2944562 C30.804303,25.5257301 31.0874273,24.6434286 31.3524664,23.6644165 C32.5265663,19.3274789 32.9474299,14.7326764 32.1996216,10.2578694 C30.5992544,9.30090487 28.8177464,8.61557017 26.918776,8.26554353 C28.4691168,13.5276093 28.2519481,18.2982413 26.88269,22.3694378 C26.690875,22.9397587 26.4960311,23.4376935 26.3101847,23.8603991 C26.5022423,24.1150038 26.7216959,24.3846536 26.9694175,24.6655323 Z M44,23.9999415 C44,35.0456365 35.045695,43.9999415 24,43.9999415 C12.954305,43.9999415 4,35.0456365 4,23.9999415 C4,12.9705551 12.927883,4.02638756 23.9510878,4 C35.071219,4.02548796 44,12.9700004 44,23.9999415 Z" id="Combined-Shape" fill="#000000"></path>
    </g>
</svg>