<?xml version="1.0" encoding="UTF-8"?>
<svg width="48px" height="48px" viewBox="0 0 48 48" version="1.1" xmlns="http://www.w3.org/2000/svg" xmlns:xlink="http://www.w3.org/1999/xlink">
    <!-- Generator: Sketch 43.2 (39069) - http://www.bohemiancoding.com/sketch -->
    <title>theicons.co/svg/sports-23</title>
    <desc>Created with Sketch.</desc>
    <defs></defs>
    <g id="The-Icons" stroke="none" stroke-width="1" fill="none" fill-rule="evenodd">
        <path d="M35.9749164,11.1399675 C30.95749,6.12254108 22.8097997,7.3345214 16.6737874,13.4705337 C15.9900115,14.1543095 15.4113384,14.850279 14.9354833,15.5563785 L31.5585053,32.1794005 C31.6552472,32.1142042 31.7517988,32.0470778 31.8481551,31.9780156 C30.5191289,29.3516989 30.9519069,26.0624718 33.1464892,23.8678895 C34.6716863,22.3426924 36.7255982,21.6684489 38.7182529,21.8451588 C39.6745954,17.8942868 38.8412765,14.0063276 35.9749164,11.1399675 Z M21.1623711,36.7785672 C20.275414,36.4109327 20.4175826,36.4524961 19.9902687,36.2541582 C18.0090358,38.4439419 14.0465701,42.8235093 14.0465701,42.8235093 C12.53864,44.4901688 9.99117147,44.5531922 8.39802414,42.9600449 L4.15483896,38.7168597 C2.56544084,37.1274616 2.62201524,34.5786864 4.29137453,33.0683137 C4.29137453,33.0683137 8.68287862,29.0950481 10.8786307,27.1084153 C10.5782855,26.5352496 10.9728772,27.3392354 10.6721003,26.707013 C8.0695357,21.236514 9.00498055,15.4824863 13.8453603,10.6421066 C21.3911218,3.09634498 32.0087597,1.51695652 38.8033435,8.31154033 C42.9222677,12.4304645 43.9638666,17.954311 42.4644888,23.3470746 C42.6654924,23.507983 42.8596826,23.681588 43.0459842,23.8678895 C45.7796542,26.6015596 45.7796542,31.0337144 43.0459842,33.7673845 C40.7634717,36.0498969 37.2968391,36.4265967 34.6234786,34.8974837 C30.4347293,38.1104036 25.7198909,38.6676117 21.1623711,36.7785672 Z M15.0942196,26.4491814 L15.4611045,27.0280632 C15.7592423,27.4984739 15.6617114,28.1748017 15.2490535,28.5478199 L7.05215879,35.9573253 L11.1575586,40.062725 L18.5670639,31.8658304 C18.9451383,31.4475789 19.6205004,31.358234 20.0868206,31.6537793 L20.6657025,32.0206643 C22.9655127,33.4782427 25.2653723,34.0877738 27.5071479,33.7848974 L13.3299864,19.6077359 C13.02711,21.8495115 13.6366412,24.1493711 15.0942196,26.4491814 Z M40.217557,30.9389573 C41.3891299,29.7673845 41.3891299,27.8678895 40.217557,26.6963166 C39.0459842,25.5247438 37.1464892,25.5247438 35.9749164,26.6963166 C34.8033435,27.8678895 34.8033435,29.7673845 35.9749164,30.9389573 C37.1464892,32.1105302 39.0459842,32.1105302 40.217557,30.9389573 Z" id="Combined-Shape" fill="#000000"></path>
    </g>
</svg>