<?xml version="1.0" encoding="UTF-8"?>
<svg width="48px" height="48px" viewBox="0 0 48 48" version="1.1" xmlns="http://www.w3.org/2000/svg" xmlns:xlink="http://www.w3.org/1999/xlink">
    <!-- Generator: Sketch 43.2 (39069) - http://www.bohemiancoding.com/sketch -->
    <title>theicons.co/svg/sports-03</title>
    <desc>Created with Sketch.</desc>
    <defs></defs>
    <g id="The-Icons" stroke="none" stroke-width="1" fill="none" fill-rule="evenodd">
        <path d="M28,30 L20,30 L20,32 C21.1086907,32 22,32.9019504 22,34.0085302 L22,41.9914698 C22,43.1007504 21.1017876,44 20.0092049,44 L3.99079514,44 C2.89130934,44 2,43.0980496 2,41.9914698 L2,34.0085302 C2,32.8992496 2.89821238,32 3.99079514,32 L4.4,32 L5.80092049,17.9907951 C5.91086907,16.8913093 6.89706013,16 8.00585866,16 L10,16 L10,14 L8.00585866,14 C6.89805351,14 6,13.1125667 6,12.000385 L6,5.99961498 C6,4.89525812 6.89706013,4 8.00585866,4 L17.9941413,4 C19.1019465,4 20,4.88743329 20,5.99961498 L20,12.000385 C20,13.1047419 19.1029399,14 17.9941413,14 L16,14 L16,16 L17.9941413,16 C19.1019465,16 20,16.8982124 20,17.9907951 L20,20 L28,20 L28,17.9907951 C28,16.8982124 28.8980535,16 30.0058587,16 L32,16 L32,14 L30.0058587,14 C28.8980535,14 28,13.1125667 28,12.000385 L28,5.99961498 C28,4.89525812 28.8970601,4 30.0058587,4 L39.9941413,4 C41.1019465,4 42,4.88743329 42,5.99961498 L42,12.000385 C42,13.1047419 41.1029399,14 39.9941413,14 L38,14 L38,16 L39.9941413,16 C41.1029399,16 42.0891309,16.8913093 42.1990795,17.9907951 L43.6,32 L44.0092049,32 C45.1086907,32 46,32.9019504 46,34.0085302 L46,41.9914698 C46,43.1007504 45.1017876,44 44.0092049,44 L27.9907951,44 C26.8913093,44 26,43.0980496 26,41.9914698 L26,34.0085302 C26,32.8992496 26.8982124,32 27.9907951,32 L28,30 Z M28,24 L20,24 L20,26 L28,26 L28,24 Z M6,36 L6,40 L18,40 L18,36 L6,36 Z M30,36 L30,40 L42,40 L42,36 L30,36 Z M8.42700195,32 L16,32 L16,20 L9.6036377,20 L8.42700195,32 Z M39.572998,32 L38.3963623,20 L32,20 L32,32 L39.572998,32 Z M10,8 L10,10 L16,10 L16,8 L10,8 Z M32,8 L32,10 L38,10 L38,8 L32,8 Z" id="Combined-Shape" fill="#000000"></path>
    </g>
</svg>