<?xml version="1.0" encoding="UTF-8"?>
<svg width="48px" height="48px" viewBox="0 0 48 48" version="1.1" xmlns="http://www.w3.org/2000/svg" xmlns:xlink="http://www.w3.org/1999/xlink">
    <!-- Generator: Sketch 43.2 (39069) - http://www.bohemiancoding.com/sketch -->
    <title>theicons.co/svg/sports-13</title>
    <desc>Created with Sketch.</desc>
    <defs></defs>
    <g id="The-Icons" stroke="none" stroke-width="1" fill="none" fill-rule="evenodd">
        <path d="M19,28.1301421 C24.035639,28.7888083 28,31.9008004 28,36.0004308 C28,40.6299356 22.9446311,44 17,44 C11.0553689,44 6,40.6299356 6,36.0004308 C6,31.9008004 9.96436102,28.7888083 15,28.1301421 L15,6.00204633 C15,4.56629275 16.4681018,3.59828422 17.7878386,4.16385527 L31.7878386,10.1635322 C33.4040538,10.8561585 33.4040538,13.1472879 31.7878386,13.8399143 L18.9996411,19.3202752 L19,28.1301421 Z M19,14.962266 L25.9166144,12.0043817 L19,9.04712157 L19,14.962266 Z M10,36.0004308 C10,37.9979862 13.0035056,40.0002154 17,40.0002154 C20.9964944,40.0002154 24,37.9979862 24,36.0004308 C24,34.3531617 21.95751,32.7027141 19,32.1745315 L19,36.0004308 C19,37.1049408 18.1045695,38.0003231 17,38.0003231 C15.8954305,38.0003231 15,37.1049408 15,36.0004308 L15,32.1745315 C12.04249,32.7027141 10,34.3531617 10,36.0004308 Z M38,40.0002154 C35.790861,40.0002154 34,38.2094508 34,36.0004308 C34,33.7914108 35.790861,32.0006462 38,32.0006462 C40.209139,32.0006462 42,33.7914108 42,36.0004308 C42,38.2094508 40.209139,40.0002154 38,40.0002154 Z" id="Combined-Shape" fill="#000000"></path>
    </g>
</svg>