<?xml version="1.0" encoding="UTF-8"?>
<svg width="48px" height="48px" viewBox="0 0 48 48" version="1.1" xmlns="http://www.w3.org/2000/svg" xmlns:xlink="http://www.w3.org/1999/xlink">
    <!-- Generator: Sketch 43.2 (39069) - http://www.bohemiancoding.com/sketch -->
    <title>theicons.co/svg/sports-18</title>
    <desc>Created with Sketch.</desc>
    <defs></defs>
    <g id="The-Icons" stroke="none" stroke-width="1" fill="none" fill-rule="evenodd">
        <path d="M26,34 L26,38.2896735 C26.6651391,37.8863122 27.507078,37.9045337 28.1556126,38.3422512 L28.3732294,38.4891279 L28.8738638,34 L26,34 Z M29.3199499,30 L29.7660361,26 L26,26 L26,30 L29.3199499,30 Z M19.6265928,38.5269901 L19.8905996,38.3358994 C20.526492,37.9119712 21.3446266,37.889313 22,38.2679248 L22,34 L19.1238374,34 L19.6265928,38.5269901 Z M22,30 L22,26 L18.2353789,26 L18.6796082,30 L22,30 Z M14.0049466,26 C12.8976452,26 12,25.1122704 12,24 C12,22.8954305 12.8970262,22 14.0049466,22 L33.9950534,22 C35.1023548,22 36,22.8877296 36,24 C36,25.1045695 35.1029738,26 33.9950534,26 L33.7900856,26 L33.5678634,28 L40,28 L40,8 L8,8 L8,28 L14.4321366,28 L14.2099144,26 L14.0049466,26 Z M33.1234189,32 L31.9877675,42.2208631 C31.8217047,43.7154284 30.127561,44.4990059 28.8811305,43.6577488 L27.039978,42.4119345 L25.1000554,43.6702928 C24.4291622,44.1121433 23.5590056,44.1097046 22.8905996,43.6641006 L21,42.4145983 L19.1094004,43.6641006 C17.8623588,44.4954616 16.1777426,43.7104537 16.0122325,42.2208631 L14.8765811,32 L8.00002553,32 C5.79087243,32 4,30.2058797 4,28.0031611 L4,7.99683887 C4,5.78944571 5.79642476,4 8.00002553,4 L39.9999745,4 C42.2091276,4 44,5.79412025 44,7.99683887 L44,28.0031611 C44,30.2105543 42.2035752,32 39.9999745,32 L33.1234189,32 Z" id="Combined-Shape" fill="#000000"></path>
    </g>
</svg>