<?xml version="1.0" encoding="UTF-8"?>
<svg width="48px" height="48px" viewBox="0 0 48 48" version="1.1" xmlns="http://www.w3.org/2000/svg" xmlns:xlink="http://www.w3.org/1999/xlink">
    <!-- Generator: Sketch 43.2 (39069) - http://www.bohemiancoding.com/sketch -->
    <title>theicons.co/svg/sports-22</title>
    <desc>Created with Sketch.</desc>
    <defs></defs>
    <g id="The-Icons" stroke="none" stroke-width="1" fill="none" fill-rule="evenodd">
        <path d="M23.3162747,21.8348476 L21.8979113,20.4164842 C21.1078601,19.626433 21.0996554,18.3537117 21.8918359,17.5615312 C22.6785318,16.7748354 23.9586613,16.7794789 24.7467889,17.5676066 L26.1651524,18.98597 L26.8816022,18.2695202 C27.6659616,17.4851608 28.9340689,17.4815701 29.7262494,18.2737506 C30.5129452,19.0604464 30.5135982,20.3352795 29.7304798,21.1183978 L29.01403,21.8348476 L30.4323934,23.2532111 C31.2224446,24.0432622 31.2306493,25.3159835 30.4384688,26.1081641 C29.651773,26.8948599 28.3716434,26.8902163 27.5835158,26.1020887 L26.1651524,24.6837253 L24.7407135,26.1081641 L26.159077,27.5265275 C26.9491282,28.3165787 26.9573329,29.5893 26.1651524,30.3814805 C25.3784565,31.1681764 24.098327,31.1635328 23.3101994,30.3754051 L21.8918359,28.9570417 L21.1753861,29.6734915 C20.3910267,30.457851 19.1229194,30.4614416 18.3307389,29.6692611 C17.5440431,28.8825653 17.5433901,27.6077322 18.3265085,26.8246139 L19.0429583,26.1081641 L17.6245949,24.6898006 C16.8345437,23.8997495 16.8263389,22.6270282 17.6185195,21.8348476 C18.4052153,21.0481518 19.6853448,21.0527954 20.4734725,21.840923 L21.8918359,23.2592865 L23.3162747,21.8348476 Z M15.4818613,15.424873 C12.0061197,18.9006145 9.70573203,23.3984052 8.65218849,27.5560458 C11.6978216,27.6290608 14.6631961,28.8505959 16.9063001,31.0936999 C19.1496629,33.3370627 20.3709324,36.3026175 20.443969,39.3478077 C24.6016055,38.2942625 29.0993896,35.9938761 32.575127,32.5181387 C36.0191051,29.0741607 38.2977748,24.5599155 39.3473613,20.3853327 C36.3185335,20.2985586 33.3777308,19.0763543 31.1506882,16.8493118 C28.9232817,14.6219053 27.7014408,11.6808338 27.6146439,8.65264463 C23.4400677,9.70223373 18.9258329,11.9809013 15.4818613,15.424873 Z M38.2728823,9.72711772 C39.5913839,11.0456194 40.15299,13.4642852 39.9860617,16.3561102 C37.7841857,16.4356648 35.6128072,15.6136755 33.9995658,14.0004342 C32.3860561,12.3869244 31.5643459,10.2152263 31.6438579,8.01394018 C34.535697,7.84700583 36.9543758,8.40861122 38.2728823,9.72711772 Z M9.78410601,38.215894 C11.1306169,39.5624049 13.5395984,40.1416994 16.4110669,39.9852655 C16.5064742,37.767782 15.6860521,35.5712072 14.0574224,33.9425776 C12.4289854,32.3141405 10.2326269,31.493509 8.01473333,31.5889552 C7.85830358,34.460414 8.43759853,36.8693865 9.78410601,38.215894 Z M41.1217599,6.87824009 C35.6633223,1.41980249 21.2612573,3.94772172 12.6329836,12.5759953 C3.94332768,21.2656513 1.38220564,35.5117489 6.93522838,41.0647716 C12.4882511,46.6177944 26.7343487,44.0566723 35.4240047,35.3670164 C44.0522783,26.7387427 46.5801975,12.3366777 41.1217599,6.87824009 Z" id="Combined-Shape" fill="#000000"></path>
    </g>
</svg>