<?xml version="1.0" encoding="UTF-8"?>
<svg width="48px" height="48px" viewBox="0 0 48 48" version="1.1" xmlns="http://www.w3.org/2000/svg" xmlns:xlink="http://www.w3.org/1999/xlink">
    <!-- Generator: Sketch 43.2 (39069) - http://www.bohemiancoding.com/sketch -->
    <title>theicons.co/svg/sports-09</title>
    <desc>Created with Sketch.</desc>
    <defs></defs>
    <g id="The-Icons" stroke="none" stroke-width="1" fill="none" fill-rule="evenodd">
        <path d="M13.002303,8 L13.002303,6 C13.002303,4.8954305 13.8993293,4 15.0072496,4 L34.9973565,4 C36.1046579,4 37.002303,4.89326692 37.002303,6 L37.002303,8 L42.0572656,8 C43.7488965,8 45.1045987,9.39522274 45.0189299,11.099716 C45.02218,11.5592433 44.9759726,12.4663482 44.8383668,13.608234 C44.6109826,15.4951205 44.1996071,17.3843604 43.5508991,19.1701379 C41.6117342,24.508313 37.9377085,27.9019233 32.2866556,27.9740469 C31.9245916,29.1669042 31.6248585,30.4938197 31.4310029,32.0147437 C34.5441811,32.232503 37.002303,34.835092 37.002303,38 L37.002303,41.9914698 C37.002303,43.1007504 36.1052768,44 34.9973565,44 L15.0072496,44 C13.8999482,44 13.002303,43.0980496 13.002303,41.9914698 L13.002303,38 C13.002303,34.7677932 15.5551813,32.1325198 18.7534676,32.0048444 C18.55333,30.488521 18.244509,29.1651185 17.8716346,27.9751299 C12.1450585,27.9549885 8.42854232,24.5501429 6.47418216,19.1701379 C5.82547414,17.3843604 5.41409865,15.4951205 5.18671452,13.608234 C5.04910864,12.4663482 5.0029013,11.5592433 5.00363078,10.9972778 C4.92048257,9.39522274 6.27618477,8 7.96781572,8 L13.002303,8 Z M37.002303,14 C37.002303,18.1239864 35.4580873,20.6535418 33.961737,23.7804701 C36.7395907,23.1614435 38.5997484,21.0844651 39.7912756,17.8044034 C40.3254403,16.3339431 40.6736915,14.7346013 40.8670983,13.129666 C40.9144253,12.7369358 40.9752421,12.0151236 40.9752421,12.0151236 L37.002303,12.0028989 L37.002303,14 Z M17.026473,40 L33.002303,40.0186768 L33.002303,38 C33.002303,36.8983007 32.1055512,36 31.007999,36 L18.9966071,36 C17.8957609,36 17.002303,36.894358 17.002303,38 L17.026473,40 Z M17.002303,14 C17.002303,15.9234721 17.4154432,17.3500414 18.4939355,19.554959 C18.7025983,19.9815586 19.4976583,21.5464387 19.5800118,21.7111456 C21.9267344,26.4045908 22.7780599,32 22.7780599,32 C22.7780599,32 28.1609944,31.9892932 27.3907308,31.9892935 C27.7901805,28.2802445 28.7985853,25.2632859 30.4966878,21.7566421 C30.5762933,21.5922538 31.3464628,20.0270705 31.5487619,19.6000322 C32.5983153,17.3845023 33.002303,15.9441741 33.002303,14 C33.002303,6 33.0072496,8 33.0072496,8 L17.002303,8 L17.002303,14 Z M9.04983915,12.0151236 C9.04983915,12.0151236 9.11065596,12.7369358 9.15798293,13.129666 C9.3513898,14.7346013 9.69964095,16.3339431 10.2338057,17.8044034 C11.4378414,21.118899 13.3246199,23.2049189 16.1511331,23.7994833 C14.6032013,20.6637852 13.002303,18.1323417 13.002303,14 L13.002303,12.0029619 L9.04983915,12.0151236 Z M25.002303,19 C22.793164,19 21.002303,17.209139 21.002303,15 C21.002303,12.790861 22.793164,11 25.002303,11 C27.211442,11 29.002303,12.790861 29.002303,15 C29.002303,17.209139 27.211442,19 25.002303,19 Z" id="Combined-Shape" fill="#000000"></path>
    </g>
</svg>