<?xml version="1.0" encoding="UTF-8"?>
<svg width="48px" height="48px" viewBox="0 0 48 48" version="1.1" xmlns="http://www.w3.org/2000/svg" xmlns:xlink="http://www.w3.org/1999/xlink">
    <!-- Generator: Sketch 43.2 (39069) - http://www.bohemiancoding.com/sketch -->
    <title>theicons.co/svg/sports-05</title>
    <desc>Created with Sketch.</desc>
    <defs></defs>
    <g id="The-Icons" stroke="none" stroke-width="1" fill="none" fill-rule="evenodd">
        <path d="M10.0020869,22 C11.1055038,22 12,22.8877296 12,24 C12,25.1045695 11.1017394,26 10.0020869,26 L8.12378751,26 C9.02628284,33.2374347 14.7625653,38.9737172 22,39.8762125 L22,37.9979131 C22,36.8944962 22.8877296,36 24,36 C25.1045695,36 26,36.8982606 26,37.9979131 L26,39.8762125 C33.2374347,38.9737172 38.9737172,33.2374347 39.8762125,26 L37.9979131,26 C36.8944962,26 36,25.1122704 36,24 C36,22.8954305 36.8982606,22 37.9979131,22 L39.8762125,22 C38.9737172,14.7625653 33.2374347,9.02628284 26,8.12378751 L26,10.0020869 C26,11.1055038 25.1122704,12 24,12 C22.8954305,12 22,11.1017394 22,10.0020869 L22,8.12378751 C14.7625653,9.02628284 9.02628284,14.7625653 8.12378751,22 L10.0020869,22 Z M24,44 C12.954305,44 4,35.045695 4,24 C4,12.954305 12.954305,4 24,4 C35.045695,4 44,12.954305 44,24 C44,35.045695 35.045695,44 24,44 Z M18.7250638,19.9622767 C18.8769069,19.430826 19.4343441,18.8759017 19.9622767,18.7250638 L31.0827146,15.5477958 C32.1416021,15.2452565 32.7558034,15.8546881 32.4522042,16.9172854 L29.2749362,28.0377233 C29.1230931,28.569174 28.5656559,29.1240983 28.0377233,29.2749362 L16.9172854,32.4522042 C15.8583979,32.7547435 15.2441966,32.1453119 15.5477958,31.0827146 L18.7250638,19.9622767 Z M22.2376862,22.231365 L25.7610152,25.7762272 L27.1742715,20.8298299 L22.2376862,22.231365 Z" id="Combined-Shape" fill="#000000"></path>
    </g>
</svg>