<?xml version="1.0" encoding="UTF-8"?>
<svg width="48px" height="48px" viewBox="0 0 48 48" version="1.1" xmlns="http://www.w3.org/2000/svg" xmlns:xlink="http://www.w3.org/1999/xlink">
    <!-- Generator: Sketch 43.2 (39069) - http://www.bohemiancoding.com/sketch -->
    <title>theicons.co/svg/sports-15</title>
    <desc>Created with Sketch.</desc>
    <defs></defs>
    <g id="The-Icons" stroke="none" stroke-width="1" fill="none" fill-rule="evenodd">
        <path d="M43,24.0000083 C44.105111,24.0031316 45,24.8896911 45,26 C45,27.1045695 44.1029399,28 42.9941413,28 L40,28 L40,34.9972445 C40,39.9667845 35.9652419,44 31,44 C26.0266448,44 22,39.9752197 22,34.9972445 L22,13.0027555 C22,10.2343341 19.7646308,8 17,8 C14.2435547,8 12,10.242697 12,13.0027555 L12,22 L14.9941413,22 C16.1019465,22 17,22.8877296 17,24 C17,25.1026234 16.1060981,25.9968441 15,25.9999917 L15,38 C15,39.1045695 14.1125667,40 13.000385,40 L6.99961498,40 C5.89525812,40 5,39.1122704 5,38 L5,25.9999923 C3.89488899,25.9968684 3,25.1103089 3,24 C3,22.8954305 3.89706013,22 5.00585866,22 L8,22 L8,13.0027555 C8,8.03321553 12.0347581,4 17,4 C21.9733552,4 26,8.02478027 26,13.0027555 L26,34.9972445 C26,37.7656659 28.2353692,40 31,40 C33.7564453,40 36,37.757303 36,34.9972445 L36,28 L33.0058587,28 C31.8980535,28 31,27.1122704 31,26 C31,24.8973766 31.8939019,24.0031559 33,24.0000083 L33,12.0000001 C33,10.8954305 33.8874333,10 34.999615,10 L41.000385,10 C42.1047419,10 43,10.8877296 43,12 L43,24.0000077 L43,24.0000083 Z M39,24 L39,14 L37,14 L37,24 L39,24 L39,24 Z M11,26 L9,26 L9,36 L11,36 L11,26 L11,26 Z" id="Combined-Shape" fill="#000000"></path>
    </g>
</svg>