<?xml version="1.0" encoding="UTF-8"?>
<svg width="48px" height="48px" viewBox="0 0 48 48" version="1.1" xmlns="http://www.w3.org/2000/svg" xmlns:xlink="http://www.w3.org/1999/xlink">
    <!-- Generator: Sketch 43.2 (39069) - http://www.bohemiancoding.com/sketch -->
    <title>theicons.co/svg/sports-12</title>
    <desc>Created with Sketch.</desc>
    <defs></defs>
    <g id="The-Icons" stroke="none" stroke-width="1" fill="none" fill-rule="evenodd">
        <path d="M16,40 L16,34.0085302 C16,32.8992496 16.8945138,32 17.9940603,32 L30.0059397,32 C31.1072288,32 32,32.9019504 32,34.0085302 L32,40 L38,40 L38,26 L27.4648745,26 C26.7732516,27.1956032 25.4805643,28 24,28 C22.5194357,28 21.2267484,27.1956032 20.5351294,26.0000011 L10,26 L10,40 L16,40 Z M16,8 L10,8 L10,22 L20.5351255,22 C21.2267484,20.8043968 22.5194357,20 24,20 C25.4805643,20 26.7732516,20.8043968 27.4648706,21.9999989 L38,22 L38,8 L32,8 L32,13.9914698 C32,15.1007504 31.1054862,16 30.0059397,16 L17.9940603,16 C16.8927712,16 16,15.0980496 16,13.9914698 L16,8 Z M6,8.00002553 C6,5.79087243 7.7852456,4 9.99017859,4 L38.0098214,4 C40.2135362,4 42,5.79642476 42,8.00002553 L42,39.9999745 C42,42.2091276 40.2147544,44 38.0098214,44 L9.99017859,44 C7.7864638,44 6,42.2035752 6,39.9999745 L6,8.00002553 Z M20,8 L20,12 L28,12 L28,8 L20,8 Z M20,36 L20,40 L28,40 L28,36 L20,36 Z" id="Combined-Shape" fill="#000000"></path>
    </g>
</svg>