<?xml version="1.0" encoding="UTF-8"?>
<svg width="48px" height="48px" viewBox="0 0 48 48" version="1.1" xmlns="http://www.w3.org/2000/svg" xmlns:xlink="http://www.w3.org/1999/xlink">
    <!-- Generator: Sketch 43.2 (39069) - http://www.bohemiancoding.com/sketch -->
    <title>theicons.co/svg/sports-21</title>
    <desc>Created with Sketch.</desc>
    <defs></defs>
    <g id="The-Icons" stroke="none" stroke-width="1" fill="none" fill-rule="evenodd">
        <path d="M44,24 C44,35.045695 35.045695,44 24,44 C12.954305,44 4,35.045695 4,24 C4,12.954305 12.954305,4 24,4 C35.045695,4 44,12.954305 44,24 Z M8,24 C8,32.836556 15.163444,40 24,40 C32.836556,40 40,32.836556 40,24 C40,15.163444 32.836556,8 24,8 C15.163444,8 8,15.163444 8,24 Z M31,20 C29.3431458,20 28,18.6568542 28,17 C28,15.3431458 29.3431458,14 31,14 C32.6568542,14 34,15.3431458 34,17 C34,18.6568542 32.6568542,20 31,20 Z M22,21 C20.3431458,21 19,19.6568542 19,18 C19,16.3431458 20.3431458,15 22,15 C23.6568542,15 25,16.3431458 25,18 C25,19.6568542 23.6568542,21 22,21 Z M30,29 C28.3431458,29 27,27.6568542 27,26 C27,24.3431458 28.3431458,23 30,23 C31.6568542,23 33,24.3431458 33,26 C33,27.6568542 31.6568542,29 30,29 Z" id="Combined-Shape" fill="#000000" fill-rule="nonzero"></path>
    </g>
</svg>