<?xml version="1.0" encoding="UTF-8"?>
<svg width="48px" height="48px" viewBox="0 0 48 48" version="1.1" xmlns="http://www.w3.org/2000/svg" xmlns:xlink="http://www.w3.org/1999/xlink">
    <!-- Generator: Sketch 43.2 (39069) - http://www.bohemiancoding.com/sketch -->
    <title>theicons.co/svg/sports-19</title>
    <desc>Created with Sketch.</desc>
    <defs></defs>
    <g id="The-Icons" stroke="none" stroke-width="1" fill="none" fill-rule="evenodd">
        <path d="M12.6862915,35.3137085 C10.326408,32.953825 8.85780226,30.0401724 8.28047439,26.9910443 C13.0831224,26.6931489 17.6666813,24.6764644 21.1715729,21.1715729 C24.6764641,17.6666817 26.6931488,13.0831231 26.9910443,8.28047438 C30.0401724,8.85780225 32.953825,10.326408 35.3137085,12.6862915 C37.673592,15.046175 39.1421978,17.9598276 39.7195256,21.0089557 C34.9168769,21.3068512 30.3333183,23.3235359 26.8284271,26.8284271 C23.3235356,30.3333187 21.3068511,34.9168776 21.0089557,39.7195256 C17.9598276,39.1421977 15.046175,37.673592 12.6862915,35.3137085 Z M35.3137085,35.3137085 C38.1831452,32.4442718 39.7348555,28.7561048 39.9688393,25.0011757 C36.1253754,25.2391614 32.4623665,26.851342 29.6568542,29.6568542 C26.8513418,32.4623667 25.2391614,36.125376 25.0011757,39.9688393 C28.7561048,39.7348555 32.4442718,38.1831452 35.3137085,35.3137085 Z M12.6862915,12.6862915 C15.5557282,9.81685478 19.2438952,8.26514452 22.9988243,8.03116072 C22.7608386,11.8746246 21.148658,15.5376335 18.3431458,18.3431458 C15.5376333,21.1486582 11.874624,22.7608386 8.03116072,22.9988243 C8.26514451,19.2438952 9.81685477,15.5557282 12.6862915,12.6862915 Z M38.1421356,38.1421356 C45.9526215,30.3316498 45.9526215,17.6683502 38.1421356,9.85786438 C30.3316498,2.04737854 17.6683502,2.04737854 9.85786438,9.85786438 C2.04737854,17.6683502 2.04737854,30.3316498 9.85786438,38.1421356 C17.6683502,45.9526215 30.3316498,45.9526215 38.1421356,38.1421356 Z" id="Combined-Shape" fill="#000000"></path>
    </g>
</svg>