<?xml version="1.0" encoding="UTF-8"?>
<svg width="48px" height="48px" viewBox="0 0 48 48" version="1.1" xmlns="http://www.w3.org/2000/svg" xmlns:xlink="http://www.w3.org/1999/xlink">
    <!-- Generator: Sketch 43.2 (39069) - http://www.bohemiancoding.com/sketch -->
    <title>theicons.co/svg/sports-11</title>
    <desc>Created with Sketch.</desc>
    <defs></defs>
    <g id="The-Icons" stroke="none" stroke-width="1" fill="none" fill-rule="evenodd">
        <path d="M16,35.9964107 C21.06021,35.99751 26.9387185,35.998327 32,35.9989014 L32,12.0042577 C32,11.996858 15.990053,12 15.990053,12 C15.99549,12 16,35.9964107 16,35.9964107 Z M3.99005301,22 C3.99887041,22 4,35.9904421 4,35.9904421 C4,35.9924576 7.29788176,35.9941037 12,35.9954262 L12,22 L3.99005301,22 Z M36,35.9993255 C40.7074136,35.9997905 44.009947,36 44.009947,36 C44.0044476,36 44,25.9947834 44,25.9947834 C44,25.997027 39.2563893,25.9985005 36,25.9992478 L36,35.9993255 Z M28,26 C28,27.1045695 27.1132936,28 26.0018986,28 L21.9981014,28 C20.8945804,28 20,27.1122704 20,26 C20,24.8954305 20.8867064,24 21.9981014,24 L22,22 C20.8944962,22 20,21.1122704 20,20 C20,18.8954305 20.8982606,18 21.9979131,18 C22.0045547,16.8946432 22.8905821,16 24,16 C25.1045695,16 26,16.9019504 26,18.0085302 L26,24 C27.1054196,24 28,24.8877296 28,26 Z M12,18 L12,12.0042577 C12,9.79276724 13.7842933,8 15.990053,8 L32.009947,8 C34.2135924,8 36,9.78902751 36,12.0042577 L36,22 L44.009947,22 C46.2135924,22 48,23.7917156 48,25.9947834 L48,36.0052166 C48,38.2114745 46.2157067,40 44.009947,40 L3.99005301,40 C1.78640758,40 0,38.1996477 0,35.9904421 L0,22.0095579 C0,19.7951402 1.78429328,18 3.99005301,18 L12,18 Z" id="Combined-Shape" fill="#000000"></path>
    </g>
</svg>