<?xml version="1.0" encoding="UTF-8"?>
<svg width="48px" height="48px" viewBox="0 0 48 48" version="1.1" xmlns="http://www.w3.org/2000/svg" xmlns:xlink="http://www.w3.org/1999/xlink">
    <!-- Generator: Sketch 43.2 (39069) - http://www.bohemiancoding.com/sketch -->
    <title>theicons.co/svg/sports-02</title>
    <desc>Created with Sketch.</desc>
    <defs></defs>
    <g id="The-Icons" stroke="none" stroke-width="1" fill="none" fill-rule="evenodd">
        <path d="M14.5857864,31.4142136 C13.8047379,30.633165 13.8047379,29.366835 14.5857864,28.5857864 C15.366835,27.8047379 16.633165,27.8047379 17.4142136,28.5857864 L18,29.1715729 L18.5857864,28.5857864 C19.366835,27.8047379 20.633165,27.8047379 21.4142136,28.5857864 C22.1952621,29.366835 22.1952621,30.633165 21.4142136,31.4142136 L20.8284271,32 L21.4142136,32.5857864 C22.1952621,33.366835 22.1952621,34.633165 21.4142136,35.4142136 C20.633165,36.1952621 19.366835,36.1952621 18.5857864,35.4142136 L18,34.8284271 L17.4142136,35.4142136 C16.633165,36.1952621 15.366835,36.1952621 14.5857864,35.4142136 C13.8047379,34.633165 13.8047379,33.366835 14.5857864,32.5857864 L15.1715729,32 L14.5857864,31.4142136 Z M12,34 C12,35.1122704 11.1063268,36 10.003925,36 L6.00552025,36 C4.89367757,36 4,36.8934084 4,38 C4,39.1013567 4.89918548,40 6.00552025,40 L41.9944797,40 C43.1008145,40 44,39.1013567 44,38 C44,36.8934084 43.1063224,36 41.9944797,36 L37.996075,36 C36.8936732,36 36,35.1122704 36,34 L36,16 L12,16 L12,34 Z M12,12 L36,12 L36,6 C36,4.8954305 36.8982606,4 37.9979131,4 L42,4 C45.3108948,4 48,6.68987957 48,10.0042577 L48,38 C48,41.311036 45.3094136,44 41.9944797,44 L6.00552025,44 C2.69058639,44 0,41.311036 0,38 L0,10.0042577 C0,6.68987957 2.68910523,4 6,4 L10.0020869,4 C11.1017394,4 12,4.8954305 12,6 L12,12 Z M44,10.0042577 C44,8.8987608 43.1014979,8 42,8 L40,8 L40,32 L41.9944797,32 C42.6980255,32 43.3730273,32.1204772 44,32.3419168 L44,10.0042577 Z M6.00552025,32 L8,32 L8,8 L6,8 C4.89850208,8 4,8.8987608 4,10.0042577 L4,32.3419168 C4.62697269,32.1204772 5.30197451,32 6.00552025,32 Z M18,26 C16.8954305,26 16,25.1045695 16,24 C16,22.8954305 16.8954305,22 18,22 C19.1045695,22 20,22.8954305 20,24 C20,25.1045695 19.1045695,26 18,26 Z M22,22 C20.8954305,22 20,21.1045695 20,20 C20,18.8954305 20.8954305,18 22,18 C23.1045695,18 24,18.8954305 24,20 C24,21.1045695 23.1045695,22 22,22 Z M28,22 C26.8954305,22 26,21.1045695 26,20 C26,18.8954305 26.8954305,18 28,18 C29.1045695,18 30,18.8954305 30,20 C30,21.1045695 29.1045695,22 28,22 Z M32,26 C30.8954305,26 30,25.1045695 30,24 C30,22.8954305 30.8954305,22 32,22 C33.1045695,22 34,22.8954305 34,24 C34,25.1045695 33.1045695,26 32,26 Z" id="Combined-Shape" fill="#000000"></path>
    </g>
</svg>