<?xml version="1.0" encoding="UTF-8"?>
<svg width="48px" height="48px" viewBox="0 0 48 48" version="1.1" xmlns="http://www.w3.org/2000/svg" xmlns:xlink="http://www.w3.org/1999/xlink">
    <!-- Generator: Sketch 43.2 (39069) - http://www.bohemiancoding.com/sketch -->
    <title>theicons.co/svg/sports-06</title>
    <desc>Created with Sketch.</desc>
    <defs></defs>
    <g id="The-Icons" stroke="none" stroke-width="1" fill="none" fill-rule="evenodd">
        <path d="M26.9314417,39.0196699 C30.682144,35.2582554 33.2418654,30.4485821 33.8524224,26.0002296 L21.0750014,26.0002296 L26.9314417,39.0196699 Z M16.8373738,26.3266045 L13.6471125,31.10963 C13.2759975,31.6660273 12.6512258,32.0002296 11.9821886,32.0002296 L2.00435402,32.0002296 C0.406172926,32.0002296 -0.547081266,30.2199386 0.339430101,28.8908292 L3.57432994,24.0002296 L0.339430101,19.10963 C-0.547081266,17.7805205 0.406172926,16.0002296 2.00435402,16.0002296 L11.9821886,16.0002296 C12.6512258,16.0002296 13.2759975,16.3344318 13.6471125,16.8908292 L16.8390699,21.6763976 L23.7870968,6.28782728 C23.4936674,6.07645693 23.1957176,5.87184004 22.8934961,5.67443702 C21.9683993,5.0701887 21.7085427,3.83078044 22.3130899,2.90614119 C22.9176372,1.98150194 24.1576587,1.72177377 25.0827554,2.32602209 C32.0757703,6.89367149 37.0843985,14.7366973 37.8832055,22.0002296 L41.168429,22.0002296 L40.5821182,21.4144431 C39.8006832,20.6333945 39.8006832,19.3670646 40.5821182,18.586016 C41.3635532,17.8049674 42.6305097,17.8049674 43.4119447,18.586016 L47.4139237,22.586016 C48.1953588,23.3670646 48.1953588,24.6333945 47.4139237,25.4144431 L43.4119447,29.4144431 C42.6305097,30.1954917 41.3635532,30.1954917 40.5821182,29.4144431 C39.8006832,28.6333945 39.8006832,27.3670646 40.5821182,26.586016 L41.1681944,26.0002296 L37.8836303,26.0002296 C37.0882009,33.2564816 32.1010459,41.0633318 25.0872539,45.6714901 C24.1637855,46.2782216 22.92307,46.0218259 22.3160383,45.0988141 C21.7090066,44.1758024 21.9655292,42.9357005 22.8889976,42.328969 C23.1841909,42.1350229 23.4752355,41.9344311 23.7619099,41.7276051 L16.8373738,26.3266045 Z M21.0789661,22.0002296 L33.8518524,22.0002296 C33.2403076,17.5592129 30.6822372,12.7451886 26.9541926,8.99633338 L21.0789661,22.0002296 Z M7.04385591,26.0002296 L5.69580218,28.0002296 L10.8910729,28.0002296 L12.2329802,26.0002296 L7.04385591,26.0002296 Z M12.2372449,22.0002296 L10.8980808,20.0002296 L5.7535225,20.0002296 L7.06163965,22.0002296 L12.2372449,22.0002296 Z" id="Combined-Shape" fill="#000000"></path>
    </g>
</svg>