<?xml version="1.0" encoding="UTF-8"?>
<svg width="48px" height="48px" viewBox="0 0 48 48" version="1.1" xmlns="http://www.w3.org/2000/svg" xmlns:xlink="http://www.w3.org/1999/xlink">
    <!-- Generator: Sketch 43.2 (39069) - http://www.bohemiancoding.com/sketch -->
    <title>theicons.co/svg/tech-16</title>
    <desc>Created with Sketch.</desc>
    <defs></defs>
    <g id="The-Icons" stroke="none" stroke-width="1" fill="none" fill-rule="evenodd">
        <path d="M26,21.0067775 C26,19.9331802 26.2422977,18.9160329 26.6749457,18.0067775 L21.324743,18.0067775 C21.7577024,18.9166402 22,19.9340212 22,21.0067775 C22,22.0803748 21.7577023,23.0975221 21.3250543,24.0067775 L26.675257,24.0067775 C26.2422976,23.0969148 26,22.0795338 26,21.0067775 Z M15,28.0067775 C11.1340068,28.0067775 8,24.8649042 8,21.0067775 C8,17.1407842 11.1418733,14.0067775 15,14.0067775 L33,14.0067775 C36.8659932,14.0067775 40,17.1486508 40,21.0067775 C40,24.8727707 36.8581267,28.0067775 33,28.0067775 L15,28.0067775 Z M29,38.0067775 C30.0968278,38.0067775 30.9874379,38.8924907 30.9998683,39.9815987 L33.2733756,39.9780809 L32.5969238,36.0067775 L15.3848877,36.0067774 L14.7269287,40.0067775 L17.0000005,40.0032604 C17.0007672,38.9005008 17.8882102,38.0067775 19,38.0067775 C20.1020173,38.0067775 20.9958609,38.9008919 20.9999857,39.9970713 L27.0000695,39.9877875 C27.0090807,38.892153 27.8934148,38.0067775 29,38.0067775 Z M42,38.0067775 C42,38.0067775 42.698717,10.0067775 42,10.0067775 L6,10.0067775 L6,38.0067775 L11,38.0067775 L11.6697407,33.9883334 C11.8521379,32.8939503 12.8970262,32.0067775 14.0049466,32.0067775 L33.9950534,32.0067775 C35.1023548,32.0067775 36.1470648,32.8891661 36.3302593,33.9883334 L37,38.0067775 L42,38.0067775 Z M5.99881014,42.0069566 C3.79032828,42.0070193 2,40.221474 2,38.016108 L2,9.99096223 C2,7.78681466 3.79309123,6 6.00180999,6 L41.99819,6 C44.2083286,6 46,7.7852456 46,9.99017859 L46,38.0098214 C46,40.2135362 44.2122984,42.0011961 41.9964021,42.0026786 L37.6664664,42.0055756 C37.8521379,43.1196047 37.1001025,44.0067775 36.0087557,44.0067775 L11.9912443,44.0067775 C10.8915104,44.0067775 10.1470648,43.1243888 10.3302593,42.0252215 L5.99881014,42.0069566 Z M30,21.0067775 C30,22.6591766 31.3465556,24.0067775 33,24.0067775 C34.6523991,24.0067775 36,22.6602219 36,21.0067775 C36,19.3543784 34.6534444,18.0067775 33,18.0067775 C31.3476009,18.0067775 30,19.3533331 30,21.0067775 Z M12,21.0067775 C12,22.6591766 13.3465556,24.0067775 15,24.0067775 C16.6523991,24.0067775 18,22.6602219 18,21.0067775 C18,19.3543784 16.6534444,18.0067775 15,18.0067775 C13.3476009,18.0067775 12,19.3533331 12,21.0067775 Z" id="Rectangle-875" fill="#000000"></path>
    </g>
</svg>