<?xml version="1.0" encoding="UTF-8"?>
<svg width="48px" height="48px" viewBox="0 0 48 48" version="1.1" xmlns="http://www.w3.org/2000/svg" xmlns:xlink="http://www.w3.org/1999/xlink">
    <!-- Generator: Sketch 43.2 (39069) - http://www.bohemiancoding.com/sketch -->
    <title>theicons.co/svg/tech-14</title>
    <desc>Created with Sketch.</desc>
    <defs></defs>
    <g id="The-Icons" stroke="none" stroke-width="1" fill="none" fill-rule="evenodd">
        <path d="M24,44 C12.954305,44 4,35.045695 4,24 C4,12.954305 12.954305,4 24,4 C35.045695,4 44,12.954305 44,24 C44,35.045695 35.045695,44 24,44 Z M24,40 C32.836556,40 40,32.836556 40,24 C40,15.163444 32.836556,8 24,8 C15.163444,8 8,15.163444 8,24 C8,32.836556 15.163444,40 24,40 Z M24,30 C20.6862915,30 18,27.3137085 18,24 C18,20.6862915 20.6862915,18 24,18 C27.3137085,18 30,20.6862915 30,24 C30,27.3137085 27.3137085,30 24,30 Z M24,26 C25.1045695,26 26,25.1045695 26,24 C26,22.8954305 25.1045695,22 24,22 C22.8954305,22 22,22.8954305 22,24 C22,25.1045695 22.8954305,26 24,26 Z M10.4684658,27.5676096 C10.1860404,26.4997567 10.8227552,25.40514 11.890608,25.1227146 C12.9584609,24.8402892 14.0530776,25.477004 14.335503,26.5448568 C15.012603,29.1049778 16.6636562,31.2977524 19.0031589,32.648465 C19.9597441,33.2007497 20.2874944,34.4239305 19.7352097,35.3805158 C19.1829249,36.337101 17.9597441,36.6648513 17.0031589,36.1125666 C13.7315229,34.2236867 11.4152583,31.1474402 10.4684658,27.5676096 Z M37.5576383,20.4844745 C37.8341261,21.5538801 37.1913391,22.6449422 36.1219335,22.92143 C35.052528,23.1979177 33.9614658,22.5551308 33.6849781,21.4857252 C33.0172769,18.9031751 31.3595651,16.6884287 29.0031589,15.3279569 C28.0465736,14.7756721 27.7188233,13.5524913 28.2711081,12.5959061 C28.8233928,11.6393208 30.0465736,11.3115705 31.0031589,11.8638553 C34.2984797,13.7664096 36.6240154,16.8733863 37.5576383,20.4844745 Z" id="Combined-Shape" fill="#000000"></path>
    </g>
</svg>