<?xml version="1.0" encoding="UTF-8"?>
<svg width="48px" height="48px" viewBox="0 0 48 48" version="1.1" xmlns="http://www.w3.org/2000/svg" xmlns:xlink="http://www.w3.org/1999/xlink">
    <!-- Generator: Sketch 43.2 (39069) - http://www.bohemiancoding.com/sketch -->
    <title>theicons.co/svg/tech-34</title>
    <desc>Created with Sketch.</desc>
    <defs></defs>
    <g id="The-Icons" stroke="none" stroke-width="1" fill="none" fill-rule="evenodd">
        <path d="M19.0003021,18.0003021 C20.6571564,18.0003021 22.0003021,16.6571564 22.0003021,15.0003021 C22.0003021,13.3434479 20.6571564,12.0003021 19.0003021,12.0003021 C18.6902462,12.0003021 18.3911762,12.0473386 18.1098385,12.1346652 L5.02939218,4.28537541 C4.0822643,3.71702468 2.85372615,4.02408423 2.28537541,4.97121211 C1.71702468,5.91833999 2.02408423,7.14687815 2.97121211,7.71522888 L16.0534856,15.5656151 C16.3178898,16.952204 17.5366978,18.0003021 19.0003021,18.0003021 Z M29.0003021,12.0003021 C27.3434479,12.0003021 26.0003021,13.3434479 26.0003021,15.0003021 C26.0003021,16.6571564 27.3434479,18.0003021 29.0003021,18.0003021 C30.4643721,18.0003021 31.6834898,16.9515372 31.9473707,15.5642919 L45.0274391,7.71522888 C45.9745669,7.14687815 46.2816265,5.91833999 45.7132758,4.97121211 C45.144925,4.02408423 43.9163869,3.71702468 42.969259,4.28537541 L29.8894782,12.1342659 C29.6085157,12.0471952 29.3098851,12.0003021 29.0003021,12.0003021 Z M4.00030215,24.0003021 C4.00030215,22.8957326 4.89184197,22.0003021 5.99759377,22.0003021 L42.0030105,22.0003021 C43.1060842,22.0003021 44.0003021,22.8880318 44.0003021,24.0003021 C44.0003021,25.1048716 43.1087623,26.0003021 42.0030105,26.0003021 L42.0003021,40.0003021 C43.1060842,40.0003021 44.0003021,40.8880318 44.0003021,42.0003021 C44.0003021,43.1048716 43.1087623,44.0003021 42.0030105,44.0003021 L5.99759377,44.0003021 C4.89452007,44.0003021 4.00030215,43.1125725 4.00030215,42.0003021 C4.00030215,40.8957326 4.89184197,40.0003021 5.99759377,40.0003021 L6.00030215,26.0003021 C4.89452007,26.0003021 4.00030215,25.1125725 4.00030215,24.0003021 Z M16.0003021,37.0003021 L20.9159396,26.0003021 L11.0846647,26.0003021 L16.0003021,37.0003021 Z M32.0003021,37.0003021 L36.9159396,26.0003021 L27.0846647,26.0003021 L32.0003021,37.0003021 Z M38.0003021,33.424731 L35.0778261,40.0003021 L38.0003021,40.0003021 L38.0003021,33.424731 Z M12.9227782,40.0003021 L10.0003021,33.424731 L10.0003021,40.0003021 L12.9227782,40.0003021 Z M28.9159396,40.0003021 L24.0003021,29.0003021 L19.0846647,40.0003021 L28.9159396,40.0003021 Z" id="Combined-Shape" fill="#000000"></path>
    </g>
</svg>