<?xml version="1.0" encoding="UTF-8"?>
<svg width="48px" height="48px" viewBox="0 0 48 48" version="1.1" xmlns="http://www.w3.org/2000/svg" xmlns:xlink="http://www.w3.org/1999/xlink">
    <!-- Generator: Sketch 43.2 (39069) - http://www.bohemiancoding.com/sketch -->
    <title>theicons.co/svg/tech-38</title>
    <desc>Created with Sketch.</desc>
    <defs></defs>
    <g id="The-Icons" stroke="none" stroke-width="1" fill="none" fill-rule="evenodd">
        <path d="M31.8594849,10 C33.2208447,12.3533835 34,15.085701 34,18 C34,26.836556 26.836556,34 18,34 C14.2162132,34 10.7391959,32.6865634 8,30.4907419 L8,38 L42,38 L42,10 L40,10 L40,28.4941542 C40,32.6372549 36.6382177,36 32.5,36 L31,36 C29.8954305,36 29,35.1045695 29,34 C29,32.8954305 29.8954305,32 31,32 L32.5,32 C34.4288222,32 36,30.4283723 36,28.4941542 L36,10 L31.8594849,10 Z M36,4 C36,2.8954305 36.8954305,2 38,2 C39.1045695,2 40,2.8954305 40,4 L40,6 L43.0025189,6 C44.6555985,6 46,7.34540678 46,8.99278641 L46,39.0072136 C46,40.6617166 44.6497668,42 43.0031246,42 L6.9968754,42 C5.34249967,42 4,40.6502361 4,39.0041171 L4,25.7520143 C2.72567414,23.4555148 2,20.8125025 2,18 C2,9.163444 9.163444,2 18,2 C22.0577859,2 25.7627648,3.51054636 28.5832976,6 L36,6 L36,4 Z M18,30 C24.627417,30 30,24.627417 30,18 C30,11.372583 24.627417,6 18,6 C11.372583,6 6,11.372583 6,18 C6,24.627417 11.372583,30 18,30 Z M18,21 C16.3431458,21 15,19.6568542 15,18 C15,16.3431458 16.3431458,15 18,15 C19.6568542,15 21,16.3431458 21,18 C21,19.6568542 19.6568542,21 18,21 Z" id="Combined-Shape" fill="#000000" fill-rule="nonzero"></path>
    </g>
</svg>