<?xml version="1.0" encoding="UTF-8"?>
<svg width="48px" height="48px" viewBox="0 0 48 48" version="1.1" xmlns="http://www.w3.org/2000/svg" xmlns:xlink="http://www.w3.org/1999/xlink">
    <!-- Generator: Sketch 43.2 (39069) - http://www.bohemiancoding.com/sketch -->
    <title>theicons.co/svg/tech-32</title>
    <desc>Created with Sketch.</desc>
    <defs></defs>
    <g id="The-Icons" stroke="none" stroke-width="1" fill="none" fill-rule="evenodd">
        <path d="M27,17 L28.000385,17 C29.1047419,17 30,17.8877296 30,19 C30,20.1045695 29.1125667,21 28.000385,21 L27,21 L27,22.000385 C27,23.1047419 26.1122704,24 25,24 C23.8954305,24 23,23.1125667 23,22.000385 L23,21 L21.999615,21 C20.8952581,21 20,20.1122704 20,19 C20,17.8954305 20.8874333,17 21.999615,17 L23,17 L23,15.999615 C23,14.8952581 23.8877296,14 25,14 C26.1045695,14 27,14.8874333 27,15.999615 L27,17 Z M30,8 L31.9999745,8 C34.2091276,8 36,9.79412025 36,11.9968389 L36,40.0031611 C36,42.2105543 34.2035752,44 31.9999745,44 L18.0000255,44 C15.7908724,44 14,42.2058797 14,40.0031611 L14,11.9968389 C14,9.78944571 15.7964248,8 18.0000255,8 L20,8 L20,5.99791312 C20,4.89449617 20.8874333,4 21.999615,4 L28.000385,4 C29.1047419,4 30,4.89826062 30,5.99791312 L30,8 Z M18,40 C18,39.9932863 31.9999888,39.9955753 31.9999888,39.9955753 C31.9990918,39.9955753 32,11.9968389 32,11.9968389 C32,12.0035526 18.0000112,12.0012636 18.0000112,12.0012636 C18.0009082,12.0012636 18,40 18,40 Z M20,34 C20,32.8954305 20.8874333,32 21.999615,32 L28.000385,32 C29.1047419,32 30,32.8877296 30,34 C30,35.1045695 29.1125667,36 28.000385,36 L21.999615,36 C20.8952581,36 20,35.1122704 20,34 Z" id="Rectangle-892" fill="#000000"></path>
    </g>
</svg>