<?xml version="1.0" encoding="UTF-8"?>
<svg width="48px" height="48px" viewBox="0 0 48 48" version="1.1" xmlns="http://www.w3.org/2000/svg" xmlns:xlink="http://www.w3.org/1999/xlink">
    <!-- Generator: Sketch 43.2 (39069) - http://www.bohemiancoding.com/sketch -->
    <title>theicons.co/svg/tech-01</title>
    <desc>Created with Sketch.</desc>
    <defs></defs>
    <g id="The-Icons" stroke="none" stroke-width="1" fill="none" fill-rule="evenodd">
        <path d="M30.9834901,10.0007336 C33.8723904,10.0007336 35.5047616,9.18990036 36.3697501,7.89150625 C36.6561459,7.4616107 37.0227275,6.64245605 37.0227275,6.01460686 C37.0227275,4.91004836 37.9035284,4.00812099 39.0080685,4.00005447 C40.1126085,3.99198795 41.0145543,4.88085537 41.0226632,5.99317478 C41.0239018,6.33054425 40.9796958,6.80862075 40.8523658,7.38629031 C40.6480832,8.31307833 40.2787117,9.23855481 39.69867,10.1092285 C38.0651084,12.5612921 35.1672216,14.0007336 30.9834901,14.0007336 C27.3120507,14.0007336 26.246,14.9786994 26.0407544,18 L36,18 C42.627417,18 48,23.372583 48,30 C48,36.627417 42.627417,42 36,42 C32.4460007,42 29.2528562,40.4549974 27.055574,38 L20.944426,38 C18.7471438,40.4549974 15.5539993,42 12,42 C5.372583,42 0,36.627417 0,30 C0,23.372583 5.372583,18 12,18 L22.0382936,18 C22.3579775,12.8273426 24.7769148,10.0007336 30.9834901,10.0007336 Z M15.9914698,28 C17.1007504,28 18,28.8877296 18,30 C18,31.1045695 17.0980496,32 15.9914698,32 L14,32 L14,33.9914698 C14,35.1007504 13.1122704,36 12,36 C10.8954305,36 10,35.0980496 10,33.9914698 L10,32 L8.0085302,32 C6.8992496,32 6,31.1122704 6,30 C6,28.8954305 6.90195036,28 8.0085302,28 L10,28 L10,26.0085302 C10,24.8992496 10.8877296,24 12,24 C13.1045695,24 14,24.9019504 14,26.0085302 L14,28 L15.9914698,28 Z M18.4903972,34.7440807 C18.8582024,34.3331363 19.5977816,34 20.1565882,34 L27.8434118,34 C28.3958185,34 29.1445459,34.3362069 29.5096028,34.7440807 L30.0361135,35.3323449 C31.5476414,37.0211571 33.6902508,38 36,38 C40.418278,38 44,34.418278 44,30 C44,25.581722 40.418278,22 36,22 L12,22 C7.581722,22 4,25.581722 4,30 C4,34.418278 7.581722,38 12,38 C14.3097492,38 16.4523586,37.0211571 17.9638865,35.3323449 L18.4903972,34.7440807 Z M38,34 C36.8954305,34 36,33.1045695 36,32 C36,30.8954305 36.8954305,30 38,30 C39.1045695,30 40,30.8954305 40,32 C40,33.1045695 39.1045695,34 38,34 Z M33,30 C31.8954305,30 31,29.1045695 31,28 C31,26.8954305 31.8954305,26 33,26 C34.1045695,26 35,26.8954305 35,28 C35,29.1045695 34.1045695,30 33,30 Z" id="Combined-Shape" fill="#000000"></path>
    </g>
</svg>