<?xml version="1.0" encoding="UTF-8"?>
<svg width="48px" height="48px" viewBox="0 0 48 48" version="1.1" xmlns="http://www.w3.org/2000/svg" xmlns:xlink="http://www.w3.org/1999/xlink">
    <!-- Generator: Sketch 43.2 (39069) - http://www.bohemiancoding.com/sketch -->
    <title>theicons.co/svg/tech-22</title>
    <desc>Created with Sketch.</desc>
    <defs></defs>
    <g id="The-Icons" stroke="none" stroke-width="1" fill="none" fill-rule="evenodd">
        <path d="M30,26.0092049 L30,10 L28,10 L28,26.0092049 C28,27.1086907 27.1132936,28 26.0018986,28 L26,38 L32,38 L32,28 C30.8945804,28 30,27.1017876 30,26.0092049 Z M36,38 L42,38 L42,10 L38,10 L38,26.0092049 C38,27.1086907 37.1132936,28 36.0018986,28 L36,38 Z M20,26.0092049 L20,10 L18,10 L18,26.0092049 C18,27.1086907 17.1132936,28 16.0018986,28 L16,38 L22,38 L22,28 C20.8945804,28 20,27.1017876 20,26.0092049 Z M12,28 C10.8945804,28 10,27.1017876 10,26.0092049 L10,10 L6,10 L6,38 L12,38 L12,28 Z M2,9.99017859 C2,7.7864638 3.79309123,6 6.00180999,6 L41.99819,6 C44.2083286,6 46,7.7852456 46,9.99017859 L46,38.0098214 C46,40.2135362 44.2069088,42 41.99819,42 L6.00180999,42 C3.79167136,42 2,40.2147544 2,38.0098214 L2,9.99017859 Z" id="Combined-Shape" fill="#000000"></path>
    </g>
</svg>