<?xml version="1.0" encoding="UTF-8"?>
<svg width="48px" height="48px" viewBox="0 0 48 48" version="1.1" xmlns="http://www.w3.org/2000/svg" xmlns:xlink="http://www.w3.org/1999/xlink">
    <!-- Generator: Sketch 43.2 (39069) - http://www.bohemiancoding.com/sketch -->
    <title>theicons.co/svg/tech-10</title>
    <desc>Created with Sketch.</desc>
    <defs></defs>
    <g id="The-Icons" stroke="none" stroke-width="1" fill="none" fill-rule="evenodd">
        <path d="M21.9983182,18.9956354 C22.0665934,13.1911191 24.3853726,10.0007336 30.979248,10.0007336 C33.8681483,10.0007336 35.5005196,9.18990036 36.3655081,7.89150625 C36.6519039,7.4616107 37.0184855,6.59719963 37.0184482,6.00785956 C37.010419,4.91006682 37.8992864,4.00812099 39.0038265,4.00005447 C40.1083665,3.99198795 41.0103123,4.88085537 41.0183788,5.98539542 C41.0196598,6.33054425 40.9754537,6.80862075 40.8481238,7.38629031 C40.6438411,8.31307833 40.2744697,9.23855481 39.694428,10.1092285 C38.0608664,12.5612921 35.1629796,14.0007336 30.979248,14.0007336 C26.9144862,14.0007336 26.0432471,15.1994629 25.9980415,19.0426819 C25.9947409,19.3232882 25.9950735,19.5665604 25.9989757,19.9797375 L41.99819,19.9797375 C44.2083286,19.9797375 46,21.7640307 46,23.9697905 L46,39.9896845 C46,42.1933299 44.2069088,43.9797375 41.99819,43.9797375 L6.00180999,43.9797375 C3.79167136,43.9797375 2,42.1954442 2,39.9896845 L2,23.9697905 C2,21.7661451 3.79309123,19.9797375 6.00180999,19.9797375 L21.9987985,19.9797375 C21.9949521,19.5606108 21.9947142,19.3020285 21.9983182,18.9956354 Z M6,23.9797375 L6,39.9797375 L42,39.9797375 L42,23.9797375 L24.0092854,23.9797375 C24.0038209,23.9797595 6,23.9797375 6,23.9797375 Z M10,27.9891064 C10,27.4316473 10.4433532,26.9797375 11.0093689,26.9797375 L12.9906311,26.9797375 C13.5480902,26.9797375 14,27.4230906 14,27.9891064 L14,29.9703686 C14,30.5278276 13.5566468,30.9797375 12.9906311,30.9797375 L11.0093689,30.9797375 C10.4519098,30.9797375 10,30.5363843 10,29.9703686 L10,27.9891064 Z M10,33.9891064 C10,33.4316473 10.4433532,32.9797375 11.0093689,32.9797375 L12.9906311,32.9797375 C13.5480902,32.9797375 14,33.4230906 14,33.9891064 L14,35.9703686 C14,36.5278276 13.5566468,36.9797375 12.9906311,36.9797375 L11.0093689,36.9797375 C10.4519098,36.9797375 10,36.5363843 10,35.9703686 L10,33.9891064 Z M16,27.9891064 C16,27.4316473 16.4433532,26.9797375 17.0093689,26.9797375 L18.9906311,26.9797375 C19.5480902,26.9797375 20,27.4230906 20,27.9891064 L20,29.9703686 C20,30.5278276 19.5566468,30.9797375 18.9906311,30.9797375 L17.0093689,30.9797375 C16.4519098,30.9797375 16,30.5363843 16,29.9703686 L16,27.9891064 Z M16,33.9891064 C16,33.4316473 16.4446309,32.9797375 17.0008717,32.9797375 L30.9991283,32.9797375 C31.5518945,32.9797375 32,33.4230906 32,33.9891064 L32,35.9703686 C32,36.5278276 31.5553691,36.9797375 30.9991283,36.9797375 L17.0008717,36.9797375 C16.4481055,36.9797375 16,36.5363843 16,35.9703686 L16,33.9891064 Z M22,27.9891064 C22,27.4316473 22.4433532,26.9797375 23.0093689,26.9797375 L24.9906311,26.9797375 C25.5480902,26.9797375 26,27.4230906 26,27.9891064 L26,29.9703686 C26,30.5278276 25.5566468,30.9797375 24.9906311,30.9797375 L23.0093689,30.9797375 C22.4519098,30.9797375 22,30.5363843 22,29.9703686 L22,27.9891064 Z M28,27.9891064 C28,27.4316473 28.4433532,26.9797375 29.0093689,26.9797375 L30.9906311,26.9797375 C31.5480902,26.9797375 32,27.4230906 32,27.9891064 L32,29.9703686 C32,30.5278276 31.5566468,30.9797375 30.9906311,30.9797375 L29.0093689,30.9797375 C28.4519098,30.9797375 28,30.5363843 28,29.9703686 L28,27.9891064 Z M34,27.9891064 C34,27.4316473 34.4433532,26.9797375 35.0093689,26.9797375 L36.9906311,26.9797375 C37.5480902,26.9797375 38,27.4230906 38,27.9891064 L38,29.9703686 C38,30.5278276 37.5566468,30.9797375 36.9906311,30.9797375 L35.0093689,30.9797375 C34.4519098,30.9797375 34,30.5363843 34,29.9703686 L34,27.9891064 Z M34,33.9891064 C34,33.4316473 34.4433532,32.9797375 35.0093689,32.9797375 L36.9906311,32.9797375 C37.5480902,32.9797375 38,33.4230906 38,33.9891064 L38,35.9703686 C38,36.5278276 37.5566468,36.9797375 36.9906311,36.9797375 L35.0093689,36.9797375 C34.4519098,36.9797375 34,36.5363843 34,35.9703686 L34,33.9891064 Z" id="Combined-Shape" fill="#000000"></path>
    </g>
</svg>