<?xml version="1.0" encoding="UTF-8"?>
<svg width="48px" height="48px" viewBox="0 0 48 48" version="1.1" xmlns="http://www.w3.org/2000/svg" xmlns:xlink="http://www.w3.org/1999/xlink">
    <!-- Generator: Sketch 43.2 (39069) - http://www.bohemiancoding.com/sketch -->
    <title>theicons.co/svg/tech-28</title>
    <desc>Created with Sketch.</desc>
    <defs></defs>
    <g id="The-Icons" stroke="none" stroke-width="1" fill="none" fill-rule="evenodd">
        <path d="M28.017957,32 C28.0334455,31.6987758 28.0622308,31.2822137 28.111326,31.0126602 C28.2761759,30.1075632 28.3910403,29.6132342 28.6417029,28.9654528 C29.0739331,27.8484505 29.7602637,26.8864189 30.7836014,26.1591925 C33.4117026,24.2915544 35,21.2824937 35,18 C35,12.4771525 30.5228475,8 25,8 C19.4771525,8 15,12.4771525 15,18 C15,21.4376617 16.4970739,24.3131449 19.1388427,26.1154918 C20.1832032,26.8280067 20.8820243,27.7889015 21.3205658,28.9086909 C21.5718859,29.5504218 21.6882857,30.0452893 21.8526581,30.9380015 C21.9085064,31.2413156 21.9513937,31.686088 21.9785477,32 L23,32 L23,22.0105457 L19.8036869,19.5957919 C18.9223554,18.9299626 18.7476563,17.675741 19.4134855,16.7944095 C20.0793147,15.913078 21.3335363,15.7383789 22.2148678,16.4042081 L25.0100098,18.517301 L27.8102787,16.4042081 C28.6916102,15.7383789 29.9458318,15.913078 30.611661,16.7944095 C31.2774902,17.675741 31.1027911,18.9299626 30.2214596,19.5957919 L27,22.0295434 L27,32 L28.017957,32 Z M20.0058587,42 C18.8980535,42 18,41.1125667 18,40.000385 L18,32.0990458 C17.7874243,30.9943888 17.6809106,29.9630734 16.8845215,29.4197369 C13.1902497,26.8993199 11,22.8095555 11,18 C11,10.2680135 17.2680135,4 25,4 C32.7319865,4 39,10.2680135 39,18 C39,22.7133276 36.6708203,26.8826461 33.1006798,29.4197366 C32.3239867,29.9716871 32.1910654,30.9494273 31.9972271,32 L32,40.000385 C32,41.1047419 31.1029399,42 29.9941413,42 L27.8292943,42 C27.4174579,43.1651924 26.3062188,44 25,44 C23.6937812,44 22.5825421,43.1651924 22.1707057,42 L20.0058587,42 Z M22,36 L22,38 L28,38 L28,36 L22,36 Z" id="Rectangle-849" fill="#000000"></path>
    </g>
</svg>