<?xml version="1.0" encoding="UTF-8"?>
<svg width="48px" height="48px" viewBox="0 0 48 48" version="1.1" xmlns="http://www.w3.org/2000/svg" xmlns:xlink="http://www.w3.org/1999/xlink">
    <!-- Generator: Sketch 43.2 (39069) - http://www.bohemiancoding.com/sketch -->
    <title>theicons.co/svg/tech-21</title>
    <desc>Created with Sketch.</desc>
    <defs></defs>
    <g id="The-Icons" stroke="none" stroke-width="1" fill="none" fill-rule="evenodd">
        <path d="M19,20 C18.4534633,20 17.9197271,19.9450569 17.4039874,19.8404177 L18.6214053,32.0147312 L19.3972162,32.0147319 L20.6005849,19.8393299 C20.0832446,19.9446872 19.547943,20 19,20 Z M23.1990787,34.0094016 C23.1008686,34.9915135 22.3117903,35.8075254 21.3523422,35.970571 C21.4725734,36.354568 21.6232075,36.7291793 21.8066896,37.0850395 C22.7364453,38.8882843 24.3262469,39.9439176 26.9586575,40.0006896 C29.7134498,39.9437333 31.3075119,38.8893738 32.2236764,37.0929442 C32.5601526,36.4331764 32.7814411,35.7073753 32.9037055,34.975479 C32.978021,34.5306137 33.0011973,34.1900422 33.0000703,34.0166164 C33.0020491,33.6371205 33.0431481,33.0939514 33.1574864,32.4169933 C33.3462993,31.2990969 33.6820256,30.1778763 34.2097511,29.1122446 C35.7913451,25.9185446 38.7256406,23.9552369 43.0209311,24.000197 C44.12544,24.0117582 45.0114492,24.9165217 44.9998881,26.0210427 C44.988327,27.1255638 44.0835735,28.0115828 42.9790646,28.0000216 C40.2844095,27.9718158 38.7196791,29.0187612 37.7942748,30.8874226 C37.4552811,31.5719498 37.2295265,32.3258993 37.1016228,33.0831732 C37.0259312,33.5313172 37.0008172,33.8632275 36.9998333,33.9745143 C37.0025191,34.3804703 36.9640165,34.9462565 36.8490332,35.6345667 C36.6635576,36.7448566 36.3249258,37.8555303 35.7870216,38.9102613 C34.2175502,41.9877053 31.3087854,43.9116478 26.958189,43.9998689 C22.730244,43.9114635 19.8346721,41.9887948 18.2514513,38.918166 C17.765708,37.9760754 17.4373239,36.9898297 17.2339247,36.0002185 L16.9981009,36.0002185 C15.8945801,36.0002185 14.9114816,35.1150277 14.8009202,34.0094016 L13.1447782,17.447799 C11.8140801,16.0181742 11,14.102113 11,12 C11,7.581722 14.5907123,4 19,4 C23.418278,4 27,7.59071231 27,12 C27,14.1047128 26.1851827,16.0195913 24.8552119,17.4478874 L23.1990787,34.0094016 Z M14.9999997,11.9999563 C17.608398,11.9999563 21.0749505,11.9999563 22.9999992,11.9999563 C22.9999992,9.79079315 21.2091383,7.99991258 18.9999995,7.99991258 C16.7908606,7.99991258 14.9999997,9.79079315 14.9999997,11.9999563 Z" id="Combined-Shape" fill="#000000"></path>
    </g>
</svg>