<?xml version="1.0" encoding="UTF-8"?>
<svg width="48px" height="48px" viewBox="0 0 48 48" version="1.1" xmlns="http://www.w3.org/2000/svg" xmlns:xlink="http://www.w3.org/1999/xlink">
    <!-- Generator: Sketch 43.2 (39069) - http://www.bohemiancoding.com/sketch -->
    <title>theicons.co/svg/tech-31</title>
    <desc>Created with Sketch.</desc>
    <defs></defs>
    <g id="The-Icons" stroke="none" stroke-width="1" fill="none" fill-rule="evenodd">
        <path d="M18,21 L19.000385,21 C20.1047419,21 21,21.8877296 21,23 C21,24.1045695 20.1125667,25 19.000385,25 L18,25 L18,26.000385 C18,27.1047419 17.1122704,28 16,28 C14.8954305,28 14,27.1125667 14,26.000385 L14,25 L12.999615,25 C11.8952581,25 11,24.1122704 11,23 C11,21.8954305 11.8874333,21 12.999615,21 L14,21 L14,19.999615 C14,18.8952581 14.8877296,18 16,18 C17.1045695,18 18,18.8874333 18,19.999615 L18,21 Z M21,12 L29,12 L29,9.99791312 C29,8.89449617 29.8874333,8 30.999615,8 L37.000385,8 C38.1047419,8 39,8.89826062 39,9.99791312 L39,12 L40.9999745,12 C43.2091276,12 45,13.7941203 45,15.9968389 L45,36.0031611 C45,38.2105543 43.2035752,40 40.9999745,40 L9.00002553,40 C6.79087243,40 5,38.2058797 5,36.0031611 L5,15.9968389 C5,13.7894457 6.79642476,12 9.00002553,12 L11,12 L11,9.99791312 C11,8.89449617 11.8874333,8 12.999615,8 L19.000385,8 C20.1047419,8 21,8.89826062 21,9.99791312 L21,12 Z M9,36.0031611 C9,35.9983647 40.9999745,36 40.9999745,36 C40.9979241,36 41,15.9968389 41,15.9968389 C41,16.0016353 9.00002553,16 9.00002553,16 C9.0020759,16 9,36.0031611 9,36.0031611 Z M29,23 C29,21.8954305 29.8874333,21 30.999615,21 L37.000385,21 C38.1047419,21 39,21.8877296 39,23 C39,24.1045695 38.1125667,25 37.000385,25 L30.999615,25 C29.8952581,25 29,24.1122704 29,23 Z" id="Rectangle-892" fill="#000000"></path>
    </g>
</svg>