<?xml version="1.0" encoding="UTF-8"?>
<svg width="48px" height="48px" viewBox="0 0 48 48" version="1.1" xmlns="http://www.w3.org/2000/svg" xmlns:xlink="http://www.w3.org/1999/xlink">
    <!-- Generator: Sketch 43.2 (39069) - http://www.bohemiancoding.com/sketch -->
    <title>theicons.co/svg/tech-26</title>
    <desc>Created with Sketch.</desc>
    <defs></defs>
    <g id="The-Icons" stroke="none" stroke-width="1" fill="none" fill-rule="evenodd">
        <path d="M33.9928619,14.7644974 L36.2942358,12.4631235 C37.0745429,11.6828164 38.342273,11.6854187 39.1198447,12.4629904 L40.5370096,13.8801553 C41.3172432,14.6603889 41.3227514,15.9198893 40.5368765,16.7057642 L38.2355026,19.0071381 C39.9801974,21.5699642 41,24.6658883 41,28 C41,36.836556 33.836556,44 25,44 C16.163444,44 9,36.836556 9,28 C9,19.8407647 15.1073768,13.1079837 23,12.1237875 L23,10 L21.0085302,10 C19.8992496,10 19,9.10173938 19,8.00208688 L19,5.99791312 C19,4.89449617 19.9019504,4 21.0085302,4 L28.9914698,4 C30.1007504,4 31,4.89826062 31,5.99791312 L31,8.00208688 C31,9.10550383 30.0980496,10 28.9914698,10 L27,10 L27,12.1237875 C29.5699774,12.4442592 31.9506708,13.3742352 33.9928619,14.7644974 Z M25,40 C31.627417,40 37,34.627417 37,28 C37,21.372583 31.627417,16 25,16 C18.372583,16 13,21.372583 13,28 C13,34.627417 18.372583,40 25,40 Z M23,20.0085302 C23,18.8992496 23.8877296,18 25,18 C26.1045695,18 27,18.9019504 27,20.0085302 L27,27.9914698 C27,29.1007504 26.1122704,30 25,30 C23.8954305,30 23,29.0980496 23,27.9914698 L23,20.0085302 Z" id="Shape" fill="#000000" fill-rule="nonzero"></path>
    </g>
</svg>