<?xml version="1.0" encoding="UTF-8"?>
<svg width="48px" height="48px" viewBox="0 0 48 48" version="1.1" xmlns="http://www.w3.org/2000/svg" xmlns:xlink="http://www.w3.org/1999/xlink">
    <!-- Generator: Sketch 43.2 (39069) - http://www.bohemiancoding.com/sketch -->
    <title>theicons.co/svg/tech-29</title>
    <desc>Created with Sketch.</desc>
    <defs></defs>
    <g id="The-Icons" stroke="none" stroke-width="1" fill="none" fill-rule="evenodd">
        <path d="M27,20 L27,15.999615 C27,14.8952581 27.8877296,14 29,14 C30.1045695,14 31,14.8874333 31,15.999615 L31,20 C32.1072288,20 33,20.9019504 33,22.0085302 L33,26 C33,29.2884786 30.3625845,31.9590579 27.0725098,31.9995337 L27.0725098,35.6320801 C27.0725098,42.1462032 19.372106,44.5493326 13.9030646,40.6607438 C8.39042432,36.96361 5,30.7687128 5,24 C5,12.954305 13.954305,4 25,4 C36.045695,4 45,12.954305 45,24 C45,29.4453203 42.810744,34.5478311 38.9987308,38.2841088 C38.2098853,39.0572819 36.9436191,39.0445768 36.170446,38.2557313 C35.397273,37.4668858 35.409978,36.2006196 36.1988235,35.4274466 C39.2509302,32.4359779 41,28.3594115 41,24 C41,15.163444 33.836556,8 25,8 C16.163444,8 9,15.163444 9,24 C9,29.4459329 11.7396219,34.422866 16.2028848,37.3669318 C16.2882505,37.4232409 16.3678936,37.4849699 16.4416593,37.5513643 C19.499755,39.5517386 23.0725098,38.372119 23.0725098,35.6320801 L23.0725098,32 C19.6877828,32 17,29.3069658 17,26 L17,22.0085302 C17,20.8992496 17.8945138,20 18.9940603,20 L19,15.999615 C19,14.8952581 19.8877296,14 21,14 C22.1045695,14 23,14.8874333 23,15.999615 L23,20 L27,20 Z M21,26 C21,27.1003533 21.8994479,28 23.0033309,28 L26.9966691,28 C28.1089484,28 29,27.1084434 29,26 L28.9940603,24.0085302 L20.9940603,24.0085302 L21,26 Z" id="Path" fill="#000000"></path>
    </g>
</svg>