<?xml version="1.0" encoding="UTF-8"?>
<svg width="48px" height="48px" viewBox="0 0 48 48" version="1.1" xmlns="http://www.w3.org/2000/svg" xmlns:xlink="http://www.w3.org/1999/xlink">
    <!-- Generator: Sketch 43.2 (39069) - http://www.bohemiancoding.com/sketch -->
    <title>theicons.co/svg/tech-15</title>
    <desc>Created with Sketch.</desc>
    <defs></defs>
    <g id="The-Icons" stroke="none" stroke-width="1" fill="none" fill-rule="evenodd">
        <path d="M30,18.0119351 C30,19.1132242 29.1073772,20.0059954 28.0049107,20.0059954 L13.9950893,20.0059954 C12.8932319,20.0059954 12,19.1114816 12,18.0119351 L12,8.00372109 L7.99161703,8.00328702 L7.99161703,40.003287 L12,40.003287 L12,29.9967905 C12,28.8973047 12.8970262,28.0059954 14.0049466,28.0059954 L33.9950534,28.0059954 C35.1023548,28.0059954 36,28.9042078 36,29.9967905 L36,40.003287 L39.991617,40.003287 L40.0340967,15.6966426 L32.3487551,8.00592467 L30,8.00567032 L30,18.0119351 Z M20,8.00458741 L20,16.0059954 L26,16.0059954 L26,8.00523716 L20,8.00458741 Z M8.00002553,43.9990404 C5.79087243,43.9990404 4,42.2026156 4,39.9990148 L4,7.99906588 C4,5.78991278 5.79230884,3.99947017 8.00213331,4.00000012 L33.0018463,4.0059954 C33.5531114,4.0059954 34.3102458,4.31624115 34.7031806,4.70917598 L43.2968194,13.3028148 C43.6851753,13.6911707 44,14.4533606 44,15.0041491 L44,39.9978668 C44,42.2076539 42.2035752,43.9990404 39.9999745,43.9990404 L8.00002553,43.9990404 Z M32,32.0059954 L16,32.0059954 L16,40.003287 L32,40.003287 L32,32.0059954 Z" id="Combined-Shape" fill="#000000"></path>
    </g>
</svg>