<?xml version="1.0" encoding="UTF-8"?>
<svg width="48px" height="48px" viewBox="0 0 48 48" version="1.1" xmlns="http://www.w3.org/2000/svg" xmlns:xlink="http://www.w3.org/1999/xlink">
    <!-- Generator: Sketch 43.2 (39069) - http://www.bohemiancoding.com/sketch -->
    <title>theicons.co/svg/tech-37</title>
    <desc>Created with Sketch.</desc>
    <defs></defs>
    <g id="The-Icons" stroke="none" stroke-width="1" fill="none" fill-rule="evenodd">
        <path d="M6,30 L6,32 L42,32 L42,30 L6,30 L6,30 Z M6,26 L42,26 L42,8 L6,8 L6,26 L6,26 Z M20,38.1443771 C21.3560501,38.0501473 22.693074,38 24,38 C25.306926,38 26.6439499,38.0501473 28,38.1443771 L28,36 L20,36 L20,38.1443771 L20,38.1443771 Z M16,38.538778 L16,36 L5.00877516,36 C3.35221621,36 2,34.6700716 2,33.0034652 L2,6.99653482 C2,5.33601655 3.35018077,4 5.00877516,4 L42.9912248,4 C44.6477838,4 46,5.32992844 46,6.99653482 L46,33.0034652 C46,34.6639835 44.6498192,36 42.9912248,36 L32,36 L32,38.538778 C33.1062023,38.6781809 34.2176919,38.8420278 35.328798,39.0272122 C36.6728329,39.251218 37.9214668,39.4913399 39.0440582,39.7318952 C39.4389182,39.816508 39.7905462,39.8953212 40.0950842,39.9663801 C40.2812691,40.0098232 40.4125546,40.0415858 40.4850713,40.059715 C41.5566611,40.3276125 42.2081825,41.4134814 41.940285,42.4850713 C41.6723875,43.5566611 40.5865186,44.2081825 39.5149287,43.940285 C39.4624454,43.9271642 39.3515434,43.900333 39.1861658,43.8617449 C38.9047663,43.7960851 38.5767068,43.7225545 38.2059418,43.6431048 C37.1410332,43.4149101 35.9521671,43.186282 34.671202,42.9727878 C31.0215207,42.3645076 27.3764444,42 24,42 C20.6235556,42 16.9784793,42.3645076 13.328798,42.9727878 C12.0478329,43.186282 10.8589668,43.4149101 9.79405818,43.6431048 C9.4232932,43.7225545 9.09523366,43.7960851 8.81383423,43.8617449 C8.64845663,43.900333 8.53755462,43.9271642 8.48507125,43.940285 C7.41348143,44.2081825 6.32761245,43.5566611 6.059715,42.4850713 C5.79181755,41.4134814 6.44333893,40.3276125 7.51492875,40.059715 C7.58744538,40.0415858 7.71873087,40.0098232 7.90491577,39.9663801 C8.20945384,39.8953212 8.5610818,39.816508 8.95594182,39.7318952 C10.0785332,39.4913399 11.3271671,39.251218 12.671202,39.0272122 C13.7823081,38.8420278 14.8937977,38.6781809 16,38.538778 Z" id="Combined-Shape" fill="#000000" fill-rule="nonzero"></path>
    </g>
</svg>