<?xml version="1.0" encoding="UTF-8"?>
<svg width="48px" height="48px" viewBox="0 0 48 48" version="1.1" xmlns="http://www.w3.org/2000/svg" xmlns:xlink="http://www.w3.org/1999/xlink">
    <!-- Generator: Sketch 43.2 (39069) - http://www.bohemiancoding.com/sketch -->
    <title>theicons.co/svg/tech-05</title>
    <desc>Created with Sketch.</desc>
    <defs></defs>
    <g id="The-Icons" stroke="none" stroke-width="1" fill="none" fill-rule="evenodd">
        <path d="M12.0060062,39.9996814 L38.0060062,39.9996814 L38.0060062,7.99968135 L12.0060062,7.99968135 L12.0060062,16.0023897 L38.0060858,16.0023897 L38.0060858,20.0023897 L12.0060062,20.0023897 L12.0060062,39.9996814 Z M8.0054096,7.99970688 C8.00578305,5.79055378 9.79812193,3.9998241 12.0063075,4 L38.0059437,4.00207108 C40.2152051,4.00224706 42.0061618,5.79869285 42.0061574,8.00214442 L42.0060938,39.9999267 C42.0060894,42.2089302 40.2136975,43.9996814 38.0050779,43.9996814 L12.0003318,43.9996814 C9.79063612,43.9996814 7.99962754,42.2032566 8.00000006,39.9996558 L8.0054096,7.99970688 Z M14.0060858,33.0003028 C14.0060858,31.8968859 14.9043464,31.0023897 16.0039989,31.0023897 L18.0081727,31.0023897 C19.1115896,31.0023897 20.0060858,31.9006504 20.0060858,33.0003028 L20.0060858,35.0044766 C20.0060858,36.1078936 19.1078252,37.0023897 18.0081727,37.0023897 L16.0039989,37.0023897 C14.900582,37.0023897 14.0060858,36.1041291 14.0060858,35.0044766 L14.0060858,33.0003028 Z M30.0060858,25.0003028 C30.0060858,23.8968859 30.9043464,23.0023897 32.0039989,23.0023897 L34.0081727,23.0023897 C35.1115896,23.0023897 36.0060858,23.9006504 36.0060858,25.0003028 L36.0060858,27.0044766 C36.0060858,28.1078936 35.1078252,29.0023897 34.0081727,29.0023897 L32.0039989,29.0023897 C30.900582,29.0023897 30.0060858,28.1041291 30.0060858,27.0044766 L30.0060858,25.0003028 Z M14.0060858,25.0003028 C14.0060858,23.8968859 14.9043464,23.0023897 16.0039989,23.0023897 L18.0081727,23.0023897 C19.1115896,23.0023897 20.0060858,23.9006504 20.0060858,25.0003028 L20.0060858,27.0044766 C20.0060858,28.1078936 19.1078252,29.0023897 18.0081727,29.0023897 L16.0039989,29.0023897 C14.900582,29.0023897 14.0060858,28.1041291 14.0060858,27.0044766 L14.0060858,25.0003028 Z M30.0060858,33.0003028 C30.0060858,31.8968859 30.9043464,31.0023897 32.0039989,31.0023897 L34.0081727,31.0023897 C35.1115896,31.0023897 36.0060858,31.9006504 36.0060858,33.0003028 L36.0060858,35.0044766 C36.0060858,36.1078936 35.1078252,37.0023897 34.0081727,37.0023897 L32.0039989,37.0023897 C30.900582,37.0023897 30.0060858,36.1041291 30.0060858,35.0044766 L30.0060858,33.0003028 Z M22.0060858,25.0003028 C22.0060858,23.8968859 22.9043464,23.0023897 24.0039989,23.0023897 L26.0081727,23.0023897 C27.1115896,23.0023897 28.0060858,23.9006504 28.0060858,25.0003028 L28.0060858,27.0044766 C28.0060858,28.1078936 27.1078252,29.0023897 26.0081727,29.0023897 L24.0039989,29.0023897 C22.900582,29.0023897 22.0060858,28.1041291 22.0060858,27.0044766 L22.0060858,25.0003028 Z M22.0060858,33.0003028 C22.0060858,31.8968859 22.9043464,31.0023897 24.0039989,31.0023897 L26.0081727,31.0023897 C27.1115896,31.0023897 28.0060858,31.9006504 28.0060858,33.0003028 L28.0060858,35.0044766 C28.0060858,36.1078936 27.1078252,37.0023897 26.0081727,37.0023897 L24.0039989,37.0023897 C22.900582,37.0023897 22.0060858,36.1041291 22.0060858,35.0044766 L22.0060858,33.0003028 Z" id="Rectangle-879" fill="#000000"></path>
    </g>
</svg>