<?xml version="1.0" encoding="UTF-8"?>
<svg width="48px" height="48px" viewBox="0 0 48 48" version="1.1" xmlns="http://www.w3.org/2000/svg" xmlns:xlink="http://www.w3.org/1999/xlink">
    <!-- Generator: Sketch 43.2 (39069) - http://www.bohemiancoding.com/sketch -->
    <title>theicons.co/svg/tech-36</title>
    <desc>Created with Sketch.</desc>
    <defs></defs>
    <g id="The-Icons" stroke="none" stroke-width="1" fill="none" fill-rule="evenodd">
        <path d="M30,14.000385 C30,15.1047419 29.1122704,16 28,16 C26.8954305,16 26,15.1125667 26,14.000385 L26,8 L24,8 L24,14.000385 C24,15.1047419 23.1122704,16 22,16 C20.8954305,16 20,15.1125667 20,14.000385 L20,8 L18,8 L18,14.000385 C18,15.1047419 17.1122704,16 16,16 C14.8954305,16 14,15.1125667 14,14.000385 L14,8 L12,8 L12,40 L14,40 L14,28.0001062 C14,26.895478 14.8982124,26 15.9907951,26 L32.0092049,26 C33.1086907,26 34,26.8900584 34,28.0001062 L34,40 L36,40 L36,16.8254393 L30,10.8273435 L30,14.000385 Z M30,30 L18,30 L18,40 L30,40 L30,30 Z M8,7.00041944 C8,5.34648198 9.33720513,4 10.9933977,4 L28,4 C28.530323,4 29.0389346,4.21062654 29.4139891,4.585562 L39.4139891,14.5823882 C39.7891992,14.9574792 40,15.4662832 40,15.9968262 L40,40.9965779 C40,42.6525134 38.6676532,44 37.0034652,44 L10.9965348,44 C9.34007988,44 8,42.6479435 8,40.9995806 L8,7.00041944 Z" id="Combined-Shape" fill="#000000"></path>
    </g>
</svg>