<?xml version="1.0" encoding="UTF-8"?>
<svg width="48px" height="48px" viewBox="0 0 48 48" version="1.1" xmlns="http://www.w3.org/2000/svg" xmlns:xlink="http://www.w3.org/1999/xlink">
    <!-- Generator: Sketch 43.2 (39069) - http://www.bohemiancoding.com/sketch -->
    <title>theicons.co/svg/tech-23</title>
    <desc>Created with Sketch.</desc>
    <defs></defs>
    <g id="The-Icons" stroke="none" stroke-width="1" fill="none" fill-rule="evenodd">
        <path d="M40.2461874,3.11036669 C41.2911478,2.75055798 42.4272721,3.29824026 42.7893919,4.34991254 C43.1490045,5.39430352 42.600431,6.53021835 41.5484601,6.892441 L19.5006996,14.4840937 L39.9999745,14.4840937 C42.2091276,14.4840937 44,16.278214 44,18.4809326 L44,38.4872549 C44,40.694648 42.2035752,42.4840937 39.9999745,42.4840937 L8.00002553,42.4840937 C5.79087243,42.4840937 4,40.6899735 4,38.4872549 L4,18.4809326 C4,16.4963263 5.45210619,14.84956 7.34668443,14.5373676 C7.50818883,14.4175861 40.2461874,3.11036669 40.2461874,3.11036669 Z M8,38.4872549 C8,38.4824584 39.9999745,38.4840937 39.9999745,38.4840937 C39.9979241,38.4840937 40,18.4809326 40,18.4809326 C40,18.4857291 8.00002553,18.4840937 8.00002553,18.4840937 C8.0020759,18.4840937 8,38.4872549 8,38.4872549 Z M18,34.4840937 C14.6862915,34.4840937 12,31.7978022 12,28.4840937 C12,25.1703852 14.6862915,22.4840937 18,22.4840937 C21.3137085,22.4840937 24,25.1703852 24,28.4840937 C24,31.7978022 21.3137085,34.4840937 18,34.4840937 Z M29,24.4840937 C29,23.3795242 29.8867064,22.4840937 30.9981014,22.4840937 L35.0018986,22.4840937 C36.1054196,22.4840937 37,23.3718234 37,24.4840937 C37,25.5886632 36.1132936,26.4840937 35.0018986,26.4840937 L30.9981014,26.4840937 C29.8945804,26.4840937 29,25.5963641 29,24.4840937 Z M29,32.4840937 C29,31.3795242 29.8867064,30.4840937 30.9981014,30.4840937 L35.0018986,30.4840937 C36.1054196,30.4840937 37,31.3718234 37,32.4840937 C37,33.5886632 36.1132936,34.4840937 35.0018986,34.4840937 L30.9981014,34.4840937 C29.8945804,34.4840937 29,33.5963641 29,32.4840937 Z M18,30.4840937 C19.1045695,30.4840937 20,29.5886632 20,28.4840937 C20,27.3795242 19.1045695,26.4840937 18,26.4840937 C16.8954305,26.4840937 16,27.3795242 16,28.4840937 C16,29.5886632 16.8954305,30.4840937 18,30.4840937 Z" id="Rectangle-631" fill="#000000"></path>
    </g>
</svg>