<?xml version="1.0" encoding="UTF-8"?>
<svg width="48px" height="48px" viewBox="0 0 48 48" version="1.1" xmlns="http://www.w3.org/2000/svg" xmlns:xlink="http://www.w3.org/1999/xlink">
    <!-- Generator: Sketch 43.2 (39069) - http://www.bohemiancoding.com/sketch -->
    <title>theicons.co/svg/tech-35</title>
    <desc>Created with Sketch.</desc>
    <defs></defs>
    <g id="The-Icons" stroke="none" stroke-width="1" fill="none" fill-rule="evenodd">
        <path d="M26,31 L26,34 L30,34 L30,31 L26,31 Z M30,24 L26,24 L26,27 L30,27 L30,24 Z M18,34 L22,34 L22,31 L18,31 L18,34 Z M22,27 L22,24 L18,24 L18,27 L22,27 Z M8,7.00041944 C8,5.34648198 9.33720513,4 10.9933977,4 L28,4 C28.530323,4 29.0389346,4.21062654 29.4139891,4.585562 L39.4139891,14.5823882 C39.7891992,14.9574792 40,15.4662832 40,15.9968262 L40,40.9965779 C40,42.6525134 38.6676532,44 37.0034652,44 L10.9965348,44 C9.34007988,44 8,42.6479435 8,40.9995806 L8,7.00041944 Z M27.1717588,8 L12,8 L12,40 L36,40 L36,16.8254393 L27.1717588,8 Z M14,23.0068455 C14,21.3487223 15.337505,20 17.0008717,20 L30.9991283,20 C32.6591656,20 34,21.3480681 34,23.0068455 L34,34.9931545 C34,36.6512777 32.662495,38 30.9991283,38 L17.0008717,38 C15.3408344,38 14,36.6519319 14,34.9931545 L14,23.0068455 Z" id="Combined-Shape" fill="#000000"></path>
    </g>
</svg>