<?xml version="1.0" encoding="UTF-8"?>
<svg width="48px" height="48px" viewBox="0 0 48 48" version="1.1" xmlns="http://www.w3.org/2000/svg" xmlns:xlink="http://www.w3.org/1999/xlink">
    <!-- Generator: Sketch 43.2 (39069) - http://www.bohemiancoding.com/sketch -->
    <title>theicons.co/svg/tech-17</title>
    <desc>Created with Sketch.</desc>
    <defs></defs>
    <g id="The-Icons" stroke="none" stroke-width="1" fill="none" fill-rule="evenodd">
        <path d="M40.002837,41.9895648 C40.002837,43.0961446 39.1097124,43.998095 38.0079873,43.998095 L33.3967346,43.998095 C32.2899426,43.998095 31.0176141,43.193765 30.543592,42.2015737 L27.5798634,35.998095 L20.4229736,35.998095 L17.459245,42.2015737 C16.9852229,43.193765 15.7128944,43.998095 14.6061024,43.998095 L9.99484974,43.998095 C8.89312465,43.998095 8,43.0961446 8,41.9895648 L8,35.998095 C5.79085863,35.9980811 4,34.2039662 4,32.0012561 L4,11.9949338 C4,9.78754067 5.79642476,7.99809495 8.00002553,7.99809495 L12.4844518,7.99809495 L10.7344672,6.5339972 C9.88729054,5.8252198 9.77509574,4.56386977 10.4838731,3.71669306 C11.1926505,2.86951636 12.4540006,2.75732156 13.3011773,3.46609896 L18.0310031,7.42323521 L22.7265687,3.46729552 C23.5730845,2.75772898 24.8345386,2.86874835 25.5441051,3.71526421 C26.2536716,4.56178007 26.1426523,5.8232341 25.2961364,6.53280064 L23.5480341,7.99809495 L39.9999745,7.99809495 C42.2091276,7.99809495 44,9.79221521 44,11.9949338 L44,32.0012561 C44,34.2076933 42.2051308,35.9965451 40.002837,35.9980939 L40.002837,41.9895648 Z M32,11.998095 L32,31.998095 L40,31.998095 L40,11.998095 L32,11.998095 Z M8,15.9973249 L8,27.998865 C8,30.2056273 9.79051625,31.998095 11.99923,31.998095 L24.00077,31.998095 C26.2075324,31.998095 28,30.2075787 28,27.998865 L28,15.9973249 C28,13.7905626 26.2094838,11.998095 24.00077,11.998095 L11.99923,11.998095 C9.79246765,11.998095 8,13.7886112 8,15.9973249 Z M36,17.998095 C34.8954305,17.998095 34,17.1026645 34,15.998095 C34,14.8935255 34.8954305,13.998095 36,13.998095 C37.1045695,13.998095 38,14.8935255 38,15.998095 C38,17.1026645 37.1045695,17.998095 36,17.998095 Z M36,23.998095 C34.8954305,23.998095 34,23.1026645 34,21.998095 C34,20.8935255 34.8954305,19.998095 36,19.998095 C37.1045695,19.998095 38,20.8935255 38,21.998095 C38,23.1026645 37.1045695,23.998095 36,23.998095 Z M12.0057329,40.0058852 L14.0727835,40.0138931 L16.0036621,35.998095 L12.0057329,35.998095 L12.0057329,40.0058852 Z M36.0036621,40.0058852 L36.0036621,35.998095 L32.0057329,35.998095 L33.9366115,40.0138931 L36.0036621,40.0058852 Z" id="Rectangle-860" fill="#000000"></path>
    </g>
</svg>