<?xml version="1.0" encoding="UTF-8"?>
<svg width="48px" height="48px" viewBox="0 0 48 48" version="1.1" xmlns="http://www.w3.org/2000/svg" xmlns:xlink="http://www.w3.org/1999/xlink">
    <!-- Generator: Sketch 43.2 (39069) - http://www.bohemiancoding.com/sketch -->
    <title>theicons.co/svg/tech-06</title>
    <desc>Created with Sketch.</desc>
    <defs></defs>
    <g id="The-Icons" stroke="none" stroke-width="1" fill="none" fill-rule="evenodd">
        <path d="M8,28 L8,32 L40,32 L40,28 L26,28 C26,29.1055038 25.1122704,30 24,30 C22.8954305,30 22,29.1017394 22,28.0020869 L8,28 Z M40,8 L8,8 L8,24 L40,24 L40,8 Z M29.3333333,40 L33.9950534,40 C35.1023548,40 36,40.8877296 36,42 C36,43.1045695 35.1029738,44 33.9950534,44 L14.0049466,44 C12.8976452,44 12,43.1122704 12,42 C12,40.8954305 12.8970262,40 14.0049466,40 L18.6666667,40 L19.3333333,36 L5.99729162,36 C4.89421792,36 4,35.1107383 4,33.9982567 L4,6.00174332 C4,4.89621101 4.89153983,4 5.99729162,4 L42.0027084,4 C43.1057821,4 44,4.88926172 44,6.00174332 L44,33.9982567 C44,35.103789 43.1084602,36 42.0027084,36 L28.6666667,36 L29.3333333,40 Z" id="Combined-Shape" fill="#000000"></path>
    </g>
</svg>