<?xml version="1.0" encoding="UTF-8"?>
<svg width="48px" height="48px" viewBox="0 0 48 48" version="1.1" xmlns="http://www.w3.org/2000/svg" xmlns:xlink="http://www.w3.org/1999/xlink">
    <!-- Generator: Sketch 43.2 (39069) - http://www.bohemiancoding.com/sketch -->
    <title>theicons.co/svg/tech-09</title>
    <desc>Created with Sketch.</desc>
    <defs></defs>
    <g id="The-Icons" stroke="none" stroke-width="1" fill="none" fill-rule="evenodd">
        <path d="M12,20.0005599 L16,20.0005599 L16,26.0005599 L20,26.0005599 L20,30.0005599 L8,30.0005599 L8,26.0005599 L12,26.0005599 L12,20.0005599 Z M16.1738705,16.0005599 L18.0037973,16.0005599 C21.3152877,16.0005599 24,18.6801596 24,21.9906129 L24,34.0089074 C24,39.524861 19.5161482,44.0005599 14,44.0005599 C8.47826174,44.0005599 4,39.5261623 4,34.0089074 L4,21.9906129 C4,18.6816195 6.68503841,16.0005599 9.99620271,16.0005599 L12.1373434,16.0005599 C12.9587899,8.97710084 17.2844509,2.92608761 24.0221412,3.00068245 C31.3588221,3.08190889 36.0393066,10.5163874 36.0393066,17.9754134 C36.0393066,21.2008204 37.2138804,23.9560496 42.0185629,24.000646 C43.1230849,24.0108981 44.0101659,24.9146009 43.9999139,26.0191228 C43.9896618,27.1236447 43.085959,28.0107258 41.9814371,28.0004737 C35.2551816,27.9380416 32.0393066,23.8702936 32.0393066,17.9754134 C32.0393066,12.4360095 28.6498268,7.05216199 23.9778588,7.00043733 C19.9026394,6.95531944 16.916037,10.9898527 16.1738705,16.0005599 Z M8,21.9906129 L8,34.0089074 C8,37.3162499 10.6866281,40.0005599 14,40.0005599 C17.3086372,40.0005599 20,37.3140907 20,34.0089074 L20,21.9906129 C20,20.8910072 19.1078537,20.0005599 18.0037973,20.0005599 L9.99620271,20.0005599 C8.89285063,20.0005599 8,20.8920875 8,21.9906129 Z" id="Combined-Shape" fill="#000000"></path>
    </g>
</svg>