<?xml version="1.0" encoding="UTF-8"?>
<svg width="48px" height="48px" viewBox="0 0 48 48" version="1.1" xmlns="http://www.w3.org/2000/svg" xmlns:xlink="http://www.w3.org/1999/xlink">
    <!-- Generator: Sketch 43.2 (39069) - http://www.bohemiancoding.com/sketch -->
    <title>theicons.co/svg/tech-19</title>
    <desc>Created with Sketch.</desc>
    <defs></defs>
    <g id="The-Icons" stroke="none" stroke-width="1" fill="none" fill-rule="evenodd">
        <path d="M35.000385,26 C36.1047419,26 37,26.8982606 37,27.9979131 L37,30.0020869 C37,31.1055038 36.1125667,32 35.000385,32 L34,32 L34,33.9950534 C34,35.1023548 33.1122704,36 32,36 C30.8954305,36 30,35.1029738 30,33.9950534 L30,32 L28.999615,32 C27.8952581,32 27,31.1017394 27,30.0020869 L27,27.9979131 C27,26.8944962 27.8874333,26 28.999615,26 L30,26 L30,14.0049466 C30,12.8976452 30.8877296,12 32,12 C33.1045695,12 34,12.8970262 34,14.0049466 L34,26 L35.000385,26 Z M20,16 L21.000385,16 C22.1047419,16 23,16.8982606 23,17.9979131 L23,20.0020869 C23,21.1055038 22.1125667,22 21.000385,22 L20,22 L20,33.9950534 C20,35.1023548 19.1122704,36 18,36 C16.8954305,36 16,35.1029738 16,33.9950534 L16,22 L14.999615,22 C13.8952581,22 13,21.1017394 13,20.0020869 L13,17.9979131 C13,16.8944962 13.8874333,16 14.999615,16 L16,16 L16,14.0049466 C16,12.8976452 16.8877296,12 18,12 C19.1045695,12 20,12.8970262 20,14.0049466 L20,16 Z M5,8.00002553 C5,5.79087243 6.79642476,4 9.00002553,4 L40.9999745,4 C43.2091276,4 45,5.79642476 45,8.00002553 L45,39.9999745 C45,42.2091276 43.2035752,44 40.9999745,44 L9.00002553,44 C6.79087243,44 5,42.2035752 5,39.9999745 L5,8.00002553 Z M9,8 L9,40 L41,40 L41,8 L9,8 Z" id="Rectangle-750" fill="#000000"></path>
    </g>
</svg>