<?xml version="1.0" encoding="UTF-8"?>
<svg width="48px" height="48px" viewBox="0 0 48 48" version="1.1" xmlns="http://www.w3.org/2000/svg" xmlns:xlink="http://www.w3.org/1999/xlink">
    <!-- Generator: Sketch 43.2 (39069) - http://www.bohemiancoding.com/sketch -->
    <title>theicons.co/svg/tech-03</title>
    <desc>Created with Sketch.</desc>
    <defs></defs>
    <g id="The-Icons" stroke="none" stroke-width="1" fill="none" fill-rule="evenodd">
        <path d="M19,30 L20.000385,30 C21.1047419,30 22,30.8877296 22,32 C22,33.1045695 21.1125667,34 20.000385,34 L19,34 L19,35.000385 C19,36.1047419 18.1122704,37 17,37 C15.8954305,37 15,36.1125667 15,35.000385 L15,34 L13.999615,34 C12.8952581,34 12,33.1122704 12,32 C12,30.8954305 12.8874333,30 13.999615,30 L15,30 L15,28.999615 C15,27.8952581 15.8877296,27 17,27 C18.1045695,27 19,27.8874333 19,28.999615 L19,30 Z M9.99017859,8 C9.99720474,8 10,39.9999745 10,39.9999745 C10,39.9994132 33.9992587,40 33.9992587,40 C36.2082672,40 38,38.2089911 38,36.0015401 L38,8.00002553 C38,8.00011726 37.2518124,8.00017833 36,8.0002163 L36,17.9993405 C36,21.3134132 33.3167544,24 30.0056959,24 L15.990053,24 C13.7864076,24 12,22.2075324 12,20.00077 L12,8.00003964 C10.7422806,8.00001576 9.99017859,8 9.99017859,8 Z M16,20.00077 C16,20.0014227 30.0056959,20 30.0056959,20 C31.1064436,20 32,19.1054451 32,17.9993405 L32,8.00026741 C27.277046,8.00027963 20.7254865,8.00018974 16,8.00011092 L16,20.00077 Z M6,8.00002553 C6,5.79087243 7.7852456,4 9.99017859,4 L38.0098214,4 C40.2135362,4 42,5.79642476 42,8.00002553 L42,36.0015401 C42,40.4189675 38.4165688,44 33.9992587,44 L9.99017859,44 C7.7864638,44 6,42.2035752 6,39.9999745 L6,8.00002553 Z M30,35 C31.1045695,35 32,34.1045695 32,33 C32,31.8954305 31.1045695,31 30,31 C28.8954305,31 28,31.8954305 28,33 C28,34.1045695 28.8954305,35 30,35 Z M34,31 C32.8954305,31 32,30.1045695 32,29 C32,27.8954305 32.8954305,27 34,27 C35.1045695,27 36,27.8954305 36,29 C36,30.1045695 35.1045695,31 34,31 Z" id="Combined-Shape" fill="#000000"></path>
    </g>
</svg>