<?xml version="1.0" encoding="UTF-8"?>
<svg width="48px" height="48px" viewBox="0 0 48 48" version="1.1" xmlns="http://www.w3.org/2000/svg" xmlns:xlink="http://www.w3.org/1999/xlink">
    <!-- Generator: Sketch 43.2 (39069) - http://www.bohemiancoding.com/sketch -->
    <title>theicons.co/svg/tech-12</title>
    <desc>Created with Sketch.</desc>
    <defs></defs>
    <g id="The-Icons" stroke="none" stroke-width="1" fill="none" fill-rule="evenodd">
        <path d="M32,23.9807061 L32,13.2168126 C31.3862506,12.6674921 31,11.8692059 31,10.9807061 C31,9.32385187 32.3431458,7.98070612 34,7.98070612 C35.6568542,7.98070612 37,9.32385187 37,10.9807061 C37,11.8692059 36.6137494,12.6674921 36,13.2168126 L36,23.9807061 L39.9999745,23.9807061 C42.2091276,23.9807061 44,25.7695365 44,27.9769088 L44,35.9845034 C44,38.1915452 42.2035752,39.9807061 39.9999745,39.9807061 L38,39.9807061 C38,42.1898451 36.209139,43.9807061 34,43.9807061 C31.790861,43.9807061 30,42.1898451 30,39.9807061 L18,39.9807061 C18,42.1898451 16.209139,43.9807061 14,43.9807061 C11.790861,43.9807061 10,42.1898451 10,39.9807061 L8.00002553,39.9807061 C5.79087243,39.9807061 4,38.1918758 4,35.9845034 L4,27.9769088 C4,25.769867 5.79642476,23.9807061 8.00002553,23.9807061 L32,23.9807061 Z M8,27.9807061 L8,35.9807061 L40,35.9807061 L40,27.9807061 L8,27.9807061 Z M12,31.9807061 C12,30.8761366 12.9019504,29.9807061 14.0085302,29.9807061 L21.9914698,29.9807061 C23.1007504,29.9807061 24,30.8684358 24,31.9807061 C24,33.0852756 23.0980496,33.9807061 21.9914698,33.9807061 L14.0085302,33.9807061 C12.8992496,33.9807061 12,33.0929765 12,31.9807061 Z M42.6488934,16.0029498 C42.0935083,16.9577384 40.8692707,17.2815189 39.9144821,16.7261339 C38.9596936,16.1707489 38.635913,14.9465113 39.1912981,13.9917227 C39.7186055,13.0852037 40,12.0558689 40,10.9807061 C40,9.9222933 39.7273363,8.90826647 39.2155671,8.01180376 C38.6679467,7.05254069 39.001649,5.83097025 39.9609121,5.28334983 C40.9201751,4.7357294 42.1417456,5.06943171 42.689366,6.02869479 C43.543733,7.52528382 44,9.22212491 44,10.9807061 C44,12.7672149 43.5291057,14.4897353 42.6488934,16.0029498 Z M25.3248938,6.00379911 C25.8752668,5.04611269 27.0977906,4.71591996 28.055477,5.26629302 C29.0131634,5.81666607 29.3433562,7.03918982 28.7929831,7.99687624 C28.2757376,8.89691854 28,9.91636553 28,10.9807061 C28,12.0792004 28.2937887,13.1298179 28.8430662,14.0500398 C29.4091969,14.9984963 29.0992606,16.2263119 28.1508041,16.7924426 C27.2023476,17.3585733 25.974532,17.048637 25.4084013,16.1001805 C24.4916564,14.564329 24,12.806117 24,10.9807061 C24,9.21224152 24.461417,7.50630727 25.3248938,6.00379911 Z M17.3248938,6.00379911 C17.8752668,5.04611269 19.0977906,4.71591996 20.055477,5.26629302 C21.0131634,5.81666607 21.3433562,7.03918982 20.7929831,7.99687624 C20.2757376,8.89691854 20,9.91636553 20,10.9807061 C20,12.0792004 20.2937887,13.1298179 20.8430662,14.0500398 C21.4091969,14.9984963 21.0992606,16.2263119 20.1508041,16.7924426 C19.2023476,17.3585733 17.974532,17.048637 17.4084013,16.1001805 C16.4916564,14.564329 16,12.806117 16,10.9807061 C16,9.21224152 16.461417,7.50630727 17.3248938,6.00379911 Z" id="Combined-Shape" fill="#000000"></path>
    </g>
</svg>