<?xml version="1.0" encoding="UTF-8"?>
<svg width="48px" height="48px" viewBox="0 0 48 48" version="1.1" xmlns="http://www.w3.org/2000/svg" xmlns:xlink="http://www.w3.org/1999/xlink">
    <!-- Generator: Sketch 43.2 (39069) - http://www.bohemiancoding.com/sketch -->
    <title>theicons.co/svg/text-14</title>
    <desc>Created with Sketch.</desc>
    <defs></defs>
    <g id="The-Icons" stroke="none" stroke-width="1" fill="none" fill-rule="evenodd">
        <path d="M12,12.0085302 C12,10.8992496 12.8892617,10 14.0017433,10 L41.9982567,10 C43.103789,10 44,10.9019504 44,12.0085302 L44,19.9914698 C44,21.1007504 43.1107383,22 41.9982567,22 L14.0017433,22 C12.896211,22 12,21.0980496 12,19.9914698 L12,12.0085302 Z M16,14 L16,18 L40,18 L40,14 L16,14 Z M12,28.0085302 C12,26.8992496 12.8982124,26 13.9907951,26 L30.0092049,26 C31.1086907,26 32,26.9019504 32,28.0085302 L32,35.9914698 C32,37.1007504 31.1017876,38 30.0092049,38 L13.9907951,38 C12.8913093,38 12,37.0980496 12,35.9914698 L12,28.0085302 Z M16,30 L16,34 L28,34 L28,30 L16,30 Z M4,5.99729162 C4,4.89421792 4.88772964,4 6,4 C7.1045695,4 8,4.89153983 8,5.99729162 L8,42.0027084 C8,43.1057821 7.11227036,44 6,44 C4.8954305,44 4,43.1084602 4,42.0027084 L4,5.99729162 Z" id="Combined-Shape" fill="#000000"></path>
    </g>
</svg>