<?xml version="1.0" encoding="UTF-8"?>
<svg width="48px" height="48px" viewBox="0 0 48 48" version="1.1" xmlns="http://www.w3.org/2000/svg" xmlns:xlink="http://www.w3.org/1999/xlink">
    <!-- Generator: Sketch 43.2 (39069) - http://www.bohemiancoding.com/sketch -->
    <title>theicons.co/svg/text-17</title>
    <desc>Created with Sketch.</desc>
    <defs></defs>
    <g id="The-Icons" stroke="none" stroke-width="1" fill="none" fill-rule="evenodd">
        <path d="M16,10 L16,40.0000796 C16,41.1046051 15.1122704,42 14,42 C12.8954305,42 12,41.1080589 12,40.0000796 L12,10 L8,10 C6.8954305,10 6,9.1045695 6,8 C6,6.8954305 6.8954305,6 8,6 L32.0075946,6 C37.5239214,6 42,10.4838097 42,16 C42,21.5227132 37.5227994,25.9997919 32,26 L32,40.0000796 C32,41.1046051 31.1122704,42 30,42 C28.8954305,42 28,41.1080589 28,40.0000796 L28,10 L16,10 Z M32,22 C35.3137104,21.9997919 38,19.3135241 38,16 C38,12.6914049 35.3132357,10 32.0075946,10 L32,22 Z" id="Combined-Shape" fill="#000000" transform="translate(24.000000, 24.000000) scale(-1, 1) translate(-24.000000, -24.000000) "></path>
    </g>
</svg>