<?xml version="1.0" encoding="UTF-8"?>
<svg width="48px" height="48px" viewBox="0 0 48 48" version="1.1" xmlns="http://www.w3.org/2000/svg" xmlns:xlink="http://www.w3.org/1999/xlink">
    <!-- Generator: Sketch 43.2 (39069) - http://www.bohemiancoding.com/sketch -->
    <title>theicons.co/svg/text-11</title>
    <desc>Created with Sketch.</desc>
    <defs></defs>
    <g id="The-Icons" stroke="none" stroke-width="1" fill="none" fill-rule="evenodd">
        <path d="M22,39 C22,37.8954305 22.8982124,37 23.9907951,37 L40.0092049,37 C41.1086907,37 42,37.8877296 42,39 C42,40.1045695 41.1017876,41 40.0092049,41 L23.9907951,41 C22.8913093,41 22,40.1122704 22,39 Z M6,29 C6,27.8954305 6.88989258,27 7.99970728,27 L40.0002927,27 C41.1047006,27 42,27.8877296 42,29 C42,30.1045695 41.1101074,31 40.0002927,31 L7.99970728,31 C6.89529944,31 6,30.1122704 6,29 Z M14,19 C14,17.8954305 14.8998975,17 15.9912443,17 L40.0087557,17 C41.1084896,17 42,17.8877296 42,19 C42,20.1045695 41.1001025,21 40.0087557,21 L15.9912443,21 C14.8915104,21 14,20.1122704 14,19 Z M6,9 C6,7.8954305 6.88989258,7 7.99970728,7 L40.0002927,7 C41.1047006,7 42,7.88772964 42,9 C42,10.1045695 41.1101074,11 40.0002927,11 L7.99970728,11 C6.89529944,11 6,10.1122704 6,9 Z" id="Combined-Shape" fill="#000000"></path>
    </g>
</svg>