<?xml version="1.0" encoding="UTF-8"?>
<svg width="48px" height="48px" viewBox="0 0 48 48" version="1.1" xmlns="http://www.w3.org/2000/svg" xmlns:xlink="http://www.w3.org/1999/xlink">
    <!-- Generator: Sketch 43.2 (39069) - http://www.bohemiancoding.com/sketch -->
    <title>theicons.co/svg/text-06</title>
    <desc>Created with Sketch.</desc>
    <defs></defs>
    <g id="The-Icons" stroke="none" stroke-width="1" fill="none" fill-rule="evenodd">
        <path d="M40.0136191,24.0001561 C41.1149081,24.0001561 42.0076793,24.8983685 42.0076793,25.9909512 L42.0076793,38.009361 C42.0076793,39.1088467 41.1131656,40.0001561 40.0136191,40.0001561 L28.0017396,40.0001561 C26.9004505,40.0001561 26.0076793,39.1019437 26.0076793,38.009361 L26.0076793,26.0490929 C25.9716336,24.9180157 26.0581391,23.5218351 26.3597263,21.8888741 C26.8213059,19.3896242 27.6963573,16.9118684 29.0887339,14.5866797 C30.5152762,12.2044361 32.4192403,10.1039146 34.8459161,8.37217996 C35.7450225,7.73055586 36.9940314,7.9392865 37.6356555,8.83839289 C38.2772796,9.73749927 38.0685489,10.9865081 37.1694425,11.6281322 C35.2011702,13.032739 33.6701576,14.7218071 32.5204862,16.6416921 C31.3899001,18.5297058 30.6727154,20.5604534 30.2932045,22.6153375 C30.2048492,23.0937423 30.1381927,23.5566931 30.0906754,24.0001561 L40.0136191,24.0001561 Z M20.0136191,24.0001561 C21.1149081,24.0001561 22.0076793,24.8983685 22.0076793,25.9909512 L22.0076793,38.009361 C22.0076793,39.1088467 21.1131656,40.0001561 20.0136191,40.0001561 L8.00173962,40.0001561 C6.90045054,40.0001561 6.00767934,39.1019437 6.00767934,38.009361 L6.00767934,26.0490929 C5.97163356,24.9180157 6.05813913,23.5218351 6.35972626,21.8888741 C6.82130594,19.3896242 7.69635733,16.9118684 9.0887339,14.5866797 C10.5152762,12.2044361 12.4192403,10.1039146 14.8459161,8.37217996 C15.7450225,7.73055586 16.9940314,7.9392865 17.6356555,8.83839289 C18.2772796,9.73749927 18.0685489,10.9865081 17.1694425,11.6281322 C15.2011702,13.032739 13.6701576,14.7218071 12.5204862,16.6416921 C11.3899001,18.5297058 10.6727154,20.5604534 10.2932045,22.6153375 C10.2048492,23.0937423 10.1381927,23.5566931 10.0906754,24.0001561 L20.0136191,24.0001561 Z M10.0076793,28.0001561 L10.0076793,36.0001561 L18.0076793,36.0001561 L18.0076793,28.0001561 L10.0076793,28.0001561 Z M30.0076793,28.0001561 L30.0076793,36.0001561 L38.0076793,36.0001561 L38.0076793,28.0001561 L30.0076793,28.0001561 Z" id="Combined-Shape" fill="#000000"></path>
    </g>
</svg>