<?xml version="1.0" encoding="UTF-8"?>
<svg width="48px" height="48px" viewBox="0 0 48 48" version="1.1" xmlns="http://www.w3.org/2000/svg" xmlns:xlink="http://www.w3.org/1999/xlink">
    <!-- Generator: Sketch 43.2 (39069) - http://www.bohemiancoding.com/sketch -->
    <title>theicons.co/svg/text-10</title>
    <desc>Created with Sketch.</desc>
    <defs></defs>
    <g id="The-Icons" stroke="none" stroke-width="1" fill="none" fill-rule="evenodd">
        <path d="M16,39 C16,37.8954305 16.8945138,37 17.9940603,37 L30.0059397,37 C31.1072288,37 32,37.8877296 32,39 C32,40.1045695 31.1054862,41 30.0059397,41 L17.9940603,41 C16.8927712,41 16,40.1122704 16,39 Z M6,29 C6,27.8954305 6.88989258,27 7.99970728,27 L40.0002927,27 C41.1047006,27 42,27.8877296 42,29 C42,30.1045695 41.1101074,31 40.0002927,31 L7.99970728,31 C6.89529944,31 6,30.1122704 6,29 Z M12,19 C12,17.8954305 12.8970262,17 14.0049466,17 L33.9950534,17 C35.1023548,17 36,17.8877296 36,19 C36,20.1045695 35.1029738,21 33.9950534,21 L14.0049466,21 C12.8976452,21 12,20.1122704 12,19 Z M6,9 C6,7.8954305 6.88989258,7 7.99970728,7 L40.0002927,7 C41.1047006,7 42,7.88772964 42,9 C42,10.1045695 41.1101074,11 40.0002927,11 L7.99970728,11 C6.89529944,11 6,10.1122704 6,9 Z" id="Combined-Shape" fill="#000000"></path>
    </g>
</svg>