<?xml version="1.0" encoding="UTF-8"?>
<svg width="48px" height="48px" viewBox="0 0 48 48" version="1.1" xmlns="http://www.w3.org/2000/svg" xmlns:xlink="http://www.w3.org/1999/xlink">
    <!-- Generator: Sketch 43.2 (39069) - http://www.bohemiancoding.com/sketch -->
    <title>theicons.co/svg/text-05</title>
    <desc>Created with Sketch.</desc>
    <defs></defs>
    <g id="The-Icons" stroke="none" stroke-width="1" fill="none" fill-rule="evenodd">
        <path d="M34.2120218,23.1055729 C34.9490704,21.6314758 37.0526821,21.6314758 37.7897306,23.1055729 L45.7897306,39.1055729 C46.2837091,40.0935298 45.8832604,41.2948759 44.8953034,41.7888544 C43.9073464,42.2828329 42.7060003,41.8823842 42.2120218,40.8944272 L40.7611706,37.9927247 L31.2447061,37.9862262 L29.7897306,40.8944272 C29.2957521,41.8823842 28.094406,42.2828329 27.106449,41.7888544 C26.118492,41.2948759 25.7180433,40.0935298 26.2120218,39.1055729 L29.7648082,32 L10.2460223,32 L5.7892925,40.8944272 C5.295314,41.8823842 4.09396792,42.2828329 3.10601092,41.7888544 C2.11805393,41.2948759 1.71760523,40.0935298 2.21158373,39.1055729 L18.2115837,7.10557285 C18.9496604,5.62941951 21.0571256,5.6320479 21.791518,7.11003768 L31.9687623,27.5920918 L34.2120218,23.1055729 Z M20.0004381,12.5328245 L12.2503019,28 L27.7023766,28 L20.0004381,12.5328245 Z M38.760487,33.9913575 L36.0027445,28.4758725 L33.2452267,33.9875914 L38.760487,33.9913575 Z" id="Combined-Shape" fill="#000000"></path>
    </g>
</svg>