<?xml version="1.0" encoding="UTF-8"?>
<svg width="48px" height="48px" viewBox="0 0 48 48" version="1.1" xmlns="http://www.w3.org/2000/svg" xmlns:xlink="http://www.w3.org/1999/xlink">
    <!-- Generator: Sketch 43.2 (39069) - http://www.bohemiancoding.com/sketch -->
    <title>theicons.co/svg/text-15</title>
    <desc>Created with Sketch.</desc>
    <defs></defs>
    <g id="The-Icons" stroke="none" stroke-width="1" fill="none" fill-rule="evenodd">
        <path d="M22,10 L22,5.99729162 C22,4.89421792 22.8877296,4 24,4 C25.1045695,4 26,4.89153983 26,5.99729162 L26,10 L42.0027084,10 C43.1057821,10 44,10.9019504 44,12.0085302 L44,19.9914698 C44,21.1007504 43.1084602,22 42.0027084,22 L26,22 L26,26 L33.9950534,26 C35.1023548,26 36,26.9019504 36,28.0085302 L36,35.9914698 C36,37.1007504 35.1029738,38 33.9950534,38 L26,38 L26,42.0027084 C26,43.1057821 25.1122704,44 24,44 C22.8954305,44 22,43.1084602 22,42.0027084 L22,38 L14.0049466,38 C12.8976452,38 12,37.0980496 12,35.9914698 L12,28.0085302 C12,26.8992496 12.8970262,26 14.0049466,26 L22,26 L22,22 L5.99729162,22 C4.89421792,22 4,21.0980496 4,19.9914698 L4,12.0085302 C4,10.8992496 4.89153983,10 5.99729162,10 L22,10 Z M22,14 L8,14 L8,18 L22,18 L22,14 Z M26,18 L40,18 L40,14 L26,14 L26,18 Z M16,30 L16,34 L22,34 L22,30 L16,30 Z M26,30 L26,34 L32,34 L32,30 L26,30 Z" id="Combined-Shape" fill="#000000" transform="translate(24.000000, 24.000000) scale(-1, 1) translate(-24.000000, -24.000000) "></path>
    </g>
</svg>