<?xml version="1.0" encoding="UTF-8"?>
<svg width="48px" height="48px" viewBox="0 0 48 48" version="1.1" xmlns="http://www.w3.org/2000/svg" xmlns:xlink="http://www.w3.org/1999/xlink">
    <!-- Generator: Sketch 43.2 (39069) - http://www.bohemiancoding.com/sketch -->
    <title>theicons.co/svg/text-09</title>
    <desc>Created with Sketch.</desc>
    <defs></defs>
    <g id="The-Icons" stroke="none" stroke-width="1" fill="none" fill-rule="evenodd">
        <path d="M6,39 C6,37.8954305 6.89821238,37 7.99079514,37 L24.0092049,37 C25.1086907,37 26,37.8877296 26,39 C26,40.1045695 25.1017876,41 24.0092049,41 L7.99079514,41 C6.89130934,41 6,40.1122704 6,39 Z M6,29 C6,27.8954305 6.88989258,27 7.99970728,27 L40.0002927,27 C41.1047006,27 42,27.8877296 42,29 C42,30.1045695 41.1101074,31 40.0002927,31 L7.99970728,31 C6.89529944,31 6,30.1122704 6,29 Z M6,19 C6,17.8954305 6.89989752,17 7.99124431,17 L32.0087557,17 C33.1084896,17 34,17.8877296 34,19 C34,20.1045695 33.1001025,21 32.0087557,21 L7.99124431,21 C6.89151044,21 6,20.1122704 6,19 Z M6,9 C6,7.8954305 6.88989258,7 7.99970728,7 L40.0002927,7 C41.1047006,7 42,7.88772964 42,9 C42,10.1045695 41.1101074,11 40.0002927,11 L7.99970728,11 C6.89529944,11 6,10.1122704 6,9 Z" id="Combined-Shape" fill="#000000"></path>
    </g>
</svg>