<?xml version="1.0" encoding="UTF-8"?>
<svg width="48px" height="48px" viewBox="0 0 48 48" version="1.1" xmlns="http://www.w3.org/2000/svg" xmlns:xlink="http://www.w3.org/1999/xlink">
    <!-- Generator: Sketch 43.2 (39069) - http://www.bohemiancoding.com/sketch -->
    <title>theicons.co/svg/text-13</title>
    <desc>Created with Sketch.</desc>
    <defs></defs>
    <g id="The-Icons" stroke="none" stroke-width="1" fill="none" fill-rule="evenodd">
        <path d="M6,9 C6,7.8954305 6.88989258,7 7.99970728,7 L40.0002927,7 C41.1047006,7 42,7.88772964 42,9 C42,10.1045695 41.1101074,11 40.0002927,11 L7.99970728,11 C6.89529944,11 6,10.1122704 6,9 Z M6,39 C6,37.8954305 6.88989258,37 7.99970728,37 L40.0002927,37 C41.1047006,37 42,37.8877296 42,39 C42,40.1045695 41.1101074,41 40.0002927,41 L7.99970728,41 C6.89529944,41 6,40.1122704 6,39 Z M24,29 C24,27.8954305 24.8926228,27 25.9950893,27 L40.0049107,27 C41.1067681,27 42,27.8877296 42,29 C42,30.1045695 41.1073772,31 40.0049107,31 L25.9950893,31 C24.8932319,31 24,30.1122704 24,29 Z M24,19 C24,17.8954305 24.8926228,17 25.9950893,17 L40.0049107,17 C41.1067681,17 42,17.8877296 42,19 C42,20.1045695 41.1073772,21 40.0049107,21 L25.9950893,21 C24.8932319,21 24,20.1122704 24,19 Z M12.8158899,24 L18.4180545,29.5853551 C19.1993413,30.3661653 19.1997277,31.6324952 18.4189174,32.413782 C17.6381071,33.1950689 16.3717772,33.1954552 15.5904904,32.4146449 L8.58621795,25.4146449 C7.80459401,24.6334978 7.80459401,23.3665022 8.58621795,22.5853551 L15.5904904,15.5853551 C16.3717772,14.8045448 17.6381071,14.8049311 18.4189174,15.586218 C19.1997277,16.3675048 19.1993413,17.6338347 18.4180545,18.4146449 L12.8158899,24 Z" id="Combined-Shape" fill="#000000"></path>
    </g>
</svg>