<?xml version="1.0" encoding="UTF-8"?>
<svg width="48px" height="48px" viewBox="0 0 48 48" version="1.1" xmlns="http://www.w3.org/2000/svg" xmlns:xlink="http://www.w3.org/1999/xlink">
    <!-- Generator: Sketch 43.2 (39069) - http://www.bohemiancoding.com/sketch -->
    <title>theicons.co/svg/text-19</title>
    <desc>Created with Sketch.</desc>
    <defs></defs>
    <g id="The-Icons" stroke="none" stroke-width="1" fill="none" fill-rule="evenodd">
        <path d="M29.244268,39.9862262 L27.7892925,42.8944272 C27.295314,43.8823842 26.0939679,44.2828329 25.1060109,43.7888544 C24.1180539,43.2948759 23.7176052,42.0935298 24.2115837,41.1055728 L32.2115837,25.1055728 C32.9486323,23.6314757 35.052244,23.6314757 35.7892925,25.1055728 L43.7892925,41.1055728 C44.283271,42.0935298 43.8828223,43.2948759 42.8948653,43.7888544 C41.9069083,44.2828329 40.7055622,43.8823842 40.2115837,42.8944272 L38.7607324,39.9927246 L29.244268,39.9862262 Z M18.9377192,25.4303236 C20.0472265,26.2404054 21.1920087,26.8766825 22.333473,27.3587755 C22.8985221,27.5974218 23.418227,27.7787025 23.8772901,27.9098972 C24.1341395,27.9833016 24.3004571,28.0217483 24.3607236,28.0327993 C25.4471785,28.2320215 26.1664228,29.2742687 25.9672007,30.3607236 C25.7679785,31.4471785 24.7257313,32.1664228 23.6392764,31.9672007 C23.0140774,31.8525586 22.0197094,31.5683803 20.7771973,31.0436101 C19.1647711,30.3626081 17.5566524,29.4393679 16.0183046,28.2375245 C14.3901212,29.516896 12.6603346,30.4773761 10.9273679,31.1674118 C9.81822536,31.6090521 8.93246608,31.8574393 8.37730859,31.9640871 C7.29257322,32.1724689 6.24429466,31.462044 6.03591288,30.3773086 C5.8275311,29.2925732 6.53795604,28.2442947 7.62269141,28.0359129 C7.67878391,28.0251373 7.82972476,27.9899199 8.06154749,27.9249115 C8.47418417,27.8091987 8.94084077,27.6529746 9.4476321,27.4511795 C10.6710553,26.9640348 11.8969291,26.3067926 13.0638037,25.4576686 C10.9556819,23.0771938 9.26317928,20.1477585 8.10082384,16.6270007 C7.7545409,15.5781147 8.32411323,14.4471068 9.37299926,14.1008238 C10.4218853,13.7545409 11.5528932,14.3241132 11.8991762,15.3729993 C12.8758836,18.3314319 14.2676059,20.7603364 15.9867976,22.7245339 C18.2152287,20.0421118 19.6167172,16.5249993 19.9320918,12 L6.00494659,12 C4.89764516,12 4,11.1122704 4,10 C4,8.8954305 4.89702623,8 6.00494659,8 L14,8 L14,5.99791312 C14,4.89449617 14.8877296,4 16,4 C17.1045695,4 18,4.89826062 18,5.99791312 L18,8 L25.9950534,8 C27.1023548,8 28,8.88772964 28,10 C28,11.1045695 27.1029738,12 25.9950534,12 L23.9400486,12 C23.598681,17.5877947 21.8132643,22.0374356 18.9377192,25.4303236 L18.9377192,25.4303236 Z M36.7600489,35.9913575 L34.0023064,30.4758725 L31.2447886,35.9875913 L36.7600489,35.9913575 Z" id="Combined-Shape" fill="#000000"></path>
    </g>
</svg>