<?xml version="1.0" encoding="UTF-8"?>
<svg width="48px" height="48px" viewBox="0 0 48 48" version="1.1" xmlns="http://www.w3.org/2000/svg" xmlns:xlink="http://www.w3.org/1999/xlink">
    <!-- Generator: Sketch 43.2 (39069) - http://www.bohemiancoding.com/sketch -->
    <title>theicons.co/svg/text-02</title>
    <desc>Created with Sketch.</desc>
    <defs></defs>
    <g id="The-Icons" stroke="none" stroke-width="1" fill="none" fill-rule="evenodd">
        <path d="M34.7562798,25.9913575 L31.9985373,20.4758725 L29.2410195,25.9875913 L34.7562798,25.9913575 Z M27.240499,29.9862262 L25.7855234,32.8944272 C25.2915449,33.8823842 24.0901989,34.2828329 23.1022419,33.7888544 C22.1142849,33.2948759 21.7138362,32.0935298 22.2078147,31.1055728 L30.2078147,15.1055728 C30.9448632,13.6314757 33.0484749,13.6314757 33.7855234,15.1055728 L41.7855234,31.1055728 C42.2795019,32.0935298 41.8790532,33.2948759 40.8910962,33.7888544 C39.9031393,34.2828329 38.7017932,33.8823842 38.2078147,32.8944272 L36.7569634,29.9927246 L27.240499,29.9862262 Z M22.0033309,4 L23.9966691,4 C25.1012386,4 25.9966691,4.8954305 25.9966691,6 C25.9966691,7.1045695 25.1012386,8 23.9966691,8 L22.0033309,8 C19.7876406,8 18,9.78571717 18,12.0053227 L18,35.9946773 C18,38.2107758 19.7866258,40 22.0033309,40 L23.9966691,40 C25.1012386,40 25.9966691,40.8954305 25.9966691,42 C25.9966691,43.1045695 25.1012386,44 23.9966691,44 L22.0033309,44 C19.6090989,44 17.4637496,42.9525441 15.9983345,41.2908365 C14.5329194,42.9525441 12.3875702,44 9.99333811,44 L8,44 C6.8954305,44 6,43.1045695 6,42 C6,40.8954305 6.8954305,40 8,40 L9.99333811,40 C12.2100433,40 13.9966691,38.2107758 13.9966691,35.9946773 L13.9966691,12.0053227 C13.9966691,9.78571717 12.2090285,8 9.99333811,8 L8,8 C6.8954305,8 6,7.1045695 6,6 C6,4.8954305 6.8954305,4 8,4 L9.99333811,4 C12.3864066,4 14.5323852,5.04630171 15.9983345,6.70811 C17.4642838,5.04630171 19.6102624,4 22.0033309,4 Z" id="Combined-Shape" fill="#000000" fill-rule="nonzero"></path>
    </g>
</svg>