<?xml version="1.0" encoding="UTF-8"?>
<svg width="48px" height="48px" viewBox="0 0 48 48" version="1.1" xmlns="http://www.w3.org/2000/svg" xmlns:xlink="http://www.w3.org/1999/xlink">
    <!-- Generator: Sketch 43.2 (39069) - http://www.bohemiancoding.com/sketch -->
    <title>theicons.co/svg/text-08</title>
    <desc>Created with Sketch.</desc>
    <defs></defs>
    <g id="The-Icons" stroke="none" stroke-width="1" fill="none" fill-rule="evenodd">
        <path d="M18,24 C18,22.8954305 18.8970262,22 20.0049466,22 L39.9950534,22 C41.1023548,22 42,22.8877296 42,24 C42,25.1045695 41.1029738,26 39.9950534,26 L20.0049466,26 C18.8976452,26 18,25.1122704 18,24 Z M18,10 C18,8.8954305 18.8970262,8 20.0049466,8 L39.9950534,8 C41.1023548,8 42,8.88772964 42,10 C42,11.1045695 41.1029738,12 39.9950534,12 L20.0049466,12 C18.8976452,12 18,11.1122704 18,10 Z M18,38 C18,36.8954305 18.8970262,36 20.0049466,36 L39.9950534,36 C41.1023548,36 42,36.8877296 42,38 C42,39.1045695 41.1029738,40 39.9950534,40 L20.0049466,40 C18.8976452,40 18,39.1122704 18,38 Z M10,28 C7.790861,28 6,26.209139 6,24 C6,21.790861 7.790861,20 10,20 C12.209139,20 14,21.790861 14,24 C14,26.209139 12.209139,28 10,28 Z M10,14 C7.790861,14 6,12.209139 6,10 C6,7.790861 7.790861,6 10,6 C12.209139,6 14,7.790861 14,10 C14,12.209139 12.209139,14 10,14 Z M10,42 C7.790861,42 6,40.209139 6,38 C6,35.790861 7.790861,34 10,34 C12.209139,34 14,35.790861 14,38 C14,40.209139 12.209139,42 10,42 Z" id="Combined-Shape" fill="#000000"></path>
    </g>
</svg>