<?xml version="1.0" encoding="UTF-8"?>
<svg width="48px" height="48px" viewBox="0 0 48 48" version="1.1" xmlns="http://www.w3.org/2000/svg" xmlns:xlink="http://www.w3.org/1999/xlink">
    <!-- Generator: Sketch 43.2 (39069) - http://www.bohemiancoding.com/sketch -->
    <title>theicons.co/svg/transport-06</title>
    <desc>Created with Sketch.</desc>
    <defs></defs>
    <g id="The-Icons" stroke="none" stroke-width="1" fill="none" fill-rule="evenodd">
        <path d="M34.4587376,31.1565229 L33.5119387,28.0005266 L30,28.0005266 L30,31.0005266 C30,34.8665198 26.8646393,38.0005266 23.0020796,38.0005266 L15.6585886,38.0005266 C14.8349158,40.3309113 12.6124377,42.0005266 10,42.0005266 C6.6862915,42.0005266 4,39.3142351 4,36.0005266 C4,32.6868181 6.6862915,30.0005266 10,30.0005266 C12.6124377,30.0005266 14.8349158,31.6701418 15.6585886,34.0005266 L23.0020796,34.0005266 C24.3060564,34.0005266 25.4171592,33.165405 25.8291462,32.0005266 L19.9958262,32.0005266 C17.7889923,32.0005266 16,30.2051704 16,28.0005266 L5.99821383,28.0005266 C4.8946308,28.0005266 4,27.1127969 4,26.0005266 L4,21.9984397 C4,20.8950227 4.88655484,20.0005266 6.00591905,20.0005266 L8.99408095,20.0005266 C10.1019194,20.0005266 11,20.8987872 11,21.9984397 L11,24.0005266 L20,24.0005266 C20,21.7913876 21.7965212,20.0005266 23.9958262,20.0005266 L31.1119387,20.0005266 L30.0843474,16.5752223 C29.7669517,15.5172366 30.3673185,14.4022697 31.4253042,14.084874 C32.4832899,13.7674783 33.5982569,14.3678451 33.9156526,15.4258308 L35.2880613,20.0005266 L36.9940809,20.0005266 C38.1019194,20.0005266 39,20.8882562 39,22.0005266 C39,23.1050961 38.1134452,24.0005266 36.9940809,24.0005266 L36.4880613,24.0005266 L38.2901287,30.0074181 C41.4690958,30.158769 44,32.7840856 44,36.0005266 C44,39.3142351 41.3137085,42.0005266 38,42.0005266 C34.6862915,42.0005266 32,39.3142351 32,36.0005266 C32,34.0112962 32.9680431,32.2481643 34.4587376,31.1565229 Z M12,36.0005266 C12,34.8959571 11.1045695,34.0005266 10,34.0005266 C8.8954305,34.0005266 8,34.8959571 8,36.0005266 C8,37.1050961 8.8954305,38.0005266 10,38.0005266 C11.1045695,38.0005266 12,37.1050961 12,36.0005266 Z M40,36.0005266 C40,34.8959571 39.1045695,34.0005266 38,34.0005266 C36.8954305,34.0005266 36,34.8959571 36,36.0005266 C36,37.1050961 36.8954305,38.0005266 38,38.0005266 C39.1045695,38.0005266 40,37.1050961 40,36.0005266 Z" id="Combined-Shape" fill="#000000"></path>
    </g>
</svg>