<?xml version="1.0" encoding="UTF-8"?>
<svg width="48px" height="48px" viewBox="0 0 48 48" version="1.1" xmlns="http://www.w3.org/2000/svg" xmlns:xlink="http://www.w3.org/1999/xlink">
    <!-- Generator: Sketch 43.2 (39069) - http://www.bohemiancoding.com/sketch -->
    <title>theicons.co/svg/transport-07</title>
    <desc>Created with Sketch.</desc>
    <defs></defs>
    <g id="The-Icons" stroke="none" stroke-width="1" fill="none" fill-rule="evenodd">
        <path d="M35.7451148,24.000507 L36.9940809,24.000507 C38.1134452,24.000507 39,23.1050765 39,22.000507 C39,20.8882366 38.1019194,20.000507 36.9940809,20.000507 L34.6349531,20.000507 L33.9314262,17.4656439 C33.6360295,16.4013063 32.533747,15.7779565 31.4694094,16.0733532 C30.4050718,16.3687499 29.781722,17.4710324 30.0771187,18.53537 L33.5598793,31.0840309 C32.5456885,31.7949896 31.7615654,32.8117821 31.3414114,34.000507 L21.4482082,34.000507 L23.9268093,28.000507 L26.0092049,28.000507 C27.1017876,28.000507 28,27.1050765 28,26.000507 C28,24.8882366 27.1086907,24.000507 26.0092049,24.000507 L9.99079514,24.000507 C8.89821238,24.000507 8,24.8959375 8,26.000507 C8,27.1127773 8.89130934,28.000507 9.99079514,28.000507 L10.9950035,28.000507 L8,34.000507 L5.99328744,34.000507 C4.89971268,34.000507 4,34.8959375 4,36.000507 C4,37.1127773 4.89242519,38.000507 5.99328744,38.000507 L9.34141142,38.000507 C10.1650842,40.3308917 12.3875623,42.000507 15,42.000507 C17.6124377,42.000507 19.8349158,40.3308917 20.6585886,38.000507 L31.3414114,38.000507 C32.1650842,40.3308917 34.3875623,42.000507 37,42.000507 C40.3137085,42.000507 43,39.3142155 43,36.000507 C43,32.8260454 40.534729,30.2273788 37.4142644,30.0145846 L35.7451148,24.000507 Z M17,36.000507 C17,34.8959375 16.1045695,34.000507 15,34.000507 C13.8954305,34.000507 13,34.8959375 13,36.000507 C13,37.1050765 13.8954305,38.000507 15,38.000507 C16.1045695,38.000507 17,37.1050765 17,36.000507 Z M39,36.000507 C39,34.8959375 38.1045695,34.000507 37,34.000507 C35.8954305,34.000507 35,34.8959375 35,36.000507 C35,37.1050765 35.8954305,38.000507 37,38.000507 C38.1045695,38.000507 39,37.1050765 39,36.000507 Z" id="Combined-Shape" fill="#000000"></path>
    </g>
</svg>