<?xml version="1.0" encoding="UTF-8"?>
<svg width="48px" height="48px" viewBox="0 0 48 48" version="1.1" xmlns="http://www.w3.org/2000/svg" xmlns:xlink="http://www.w3.org/1999/xlink">
    <!-- Generator: Sketch 43.2 (39069) - http://www.bohemiancoding.com/sketch -->
    <title>theicons.co/svg/transport-19</title>
    <desc>Created with Sketch.</desc>
    <defs></defs>
    <g id="The-Icons" stroke="none" stroke-width="1" fill="none" fill-rule="evenodd">
        <path d="M17,34 L3.99791312,34 C2.89449617,34 2,33.1122704 2,32 C2,30.8954305 2.89826062,30 3.99791312,30 L37.9365482,30 C41.5658179,30 43.3096314,28.5662332 42.9829327,26 L27.9999602,26 C26.3455239,26 25,24.6513119 25,23.0046024 L25,14.9953976 C25,13.3397033 26.3442954,12 27.9985023,12 L35.6965685,12 C34.2812202,10.8348665 32.3957577,10 30.8604244,10 L3.99791312,10 C2.89449617,10 2,9.11227036 2,8 C2,6.8954305 2.89826062,6 3.99791312,6 L30.8604244,6 C34.7143223,6 39.26137,8.79772599 40.9973713,12.2488959 L45.6480958,21.4945342 C49.1222132,28.401078 45.669653,34 37.9365482,34 L31,34 C31,35.6568542 29.6568542,37 28,37 C26.3431458,37 25,35.6568542 25,34 L23,34 C23,35.6568542 21.6568542,37 20,37 C18.3431458,37 17,35.6568542 17,34 L17,34 Z M2,39 C2,37.8954305 2.89447312,37 4.00526988,37 L40.9947301,37 C42.1022101,37 43,37.8877296 43,39 C43,40.1045695 42.1055269,41 40.9947301,41 L4.00526988,41 C2.89778991,41 2,40.1122704 2,39 Z M17,16 L4,16 C2.8954305,16 2,15.1045695 2,14 C2,12.8954305 2.8954305,12 4,12 L17.992516,12 C19.6477308,12 21,13.3453269 21,14.9953976 L21,23.0046024 C21,24.6644201 19.6501918,26 17.992516,26 L4,26 C2.8954305,26 2,25.1045695 2,24 C2,22.8954305 2.8954305,22 4,22 L17,22 L17,16 Z M38.4066969,16 L29,16 L29,22 L41.4248062,22 L38.4066969,16 Z" id="Combined-Shape" fill="#000000"></path>
    </g>
</svg>