<?xml version="1.0" encoding="UTF-8"?>
<svg width="48px" height="48px" viewBox="0 0 48 48" version="1.1" xmlns="http://www.w3.org/2000/svg" xmlns:xlink="http://www.w3.org/1999/xlink">
    <!-- Generator: Sketch 43.2 (39069) - http://www.bohemiancoding.com/sketch -->
    <title>theicons.co/svg/transport-11</title>
    <desc>Created with Sketch.</desc>
    <defs></defs>
    <g id="The-Icons" stroke="none" stroke-width="1" fill="none" fill-rule="evenodd">
        <path d="M28.5980762,22.5855205 C29.150361,21.6289352 30.3735418,21.3011849 31.330127,21.8534697 L33.330127,18.389368 C32.3735418,17.8370833 32.0457915,16.6139025 32.5980762,15.6573172 C33.150361,14.700732 34.3735418,14.3729817 35.330127,14.9252664 L36.3324639,13.1891679 C35.8040087,10.7091453 35.9887454,8.37731667 35.9887454,8.37731667 L34.8349365,7.7111648 L20.2383988,33.0496221 L24.8660254,33.0496221 L29.330127,25.3175713 C28.3735418,24.7652865 28.0457915,23.5421057 28.5980762,22.5855205 Z M10.1396077,16.5473209 C9.6635164,16.2724494 9.49924472,15.665667 9.78225258,15.175483 L10.7728837,13.4596596 C11.0516132,12.9768859 11.6721851,12.8133527 12.1396077,13.0832192 L18.2057714,16.5855205 L21.2101492,11.3817854 C21.7600161,10.4293879 22.9743111,10.1010339 23.9374887,10.6571247 L27.4006123,12.65656 L32.4019789,3.99646313 C32.9542332,3.04020929 34.1856191,2.7174791 35.1411087,3.26913123 L38.5980762,5.26501238 C41.1585448,6.74329961 39.5808829,11.7198385 40.7698909,13.9759753 C42.3627982,16.9985089 44.2300623,17.7542457 44.9878078,18.19173 C45.8533314,18.6914405 46.3203427,19.8896545 45.7651242,20.8513212 L38.7224319,33.0496221 L45.9986107,33.0496221 C47.1039475,33.0496221 48,33.9373517 48,35.0496221 C48,36.1541916 47.1050616,37.0496221 45.9986107,37.0496221 L2.00138927,37.0496221 C0.896052496,37.0496221 0,36.1618924 0,35.0496221 C0,33.9450526 0.894938439,33.0496221 2.00138927,33.0496221 L6.72243186,33.0496221 L2.13960772,30.4037273 C1.6635164,30.1288559 1.49924472,29.5220734 1.78225258,29.0318894 L2.77288369,27.316066 C3.05161321,26.8332923 3.67218508,26.6697591 4.13960772,26.9396257 L10.2057714,30.4419269 L12.2057714,26.9778253 L6.13960772,23.4755241 C5.6635164,23.2006526 5.49924472,22.5938702 5.78225258,22.1036862 L6.77288369,20.3878628 C7.05161321,19.9050891 7.67218508,19.7415559 8.13960772,20.0114225 L14.2057714,23.5137237 L16.2057714,20.0496221 L10.1396077,16.5473209 Z M15.6232407,33.0496221 L25.4001751,16.1204092 L23.6387841,15.1034697 L13.3148816,33.0496221 L15.6232407,33.0496221 Z M29.4848276,33.0496221 L34.1036298,33.0496221 L41.2953821,20.5931433 C40.6009348,20.192204 39.4843275,19.3610585 38.3394402,17.712983 L29.4848276,33.0496221 Z M24,42.0496221 C24,40.9450526 24.8945138,40.0496221 25.9940603,40.0496221 L38.0059397,40.0496221 C39.1072288,40.0496221 40,40.9373517 40,42.0496221 C40,43.1541916 39.1054862,44.0496221 38.0059397,44.0496221 L25.9940603,44.0496221 C24.8927712,44.0496221 24,43.1618924 24,42.0496221 Z M8,42.0496221 C8,40.9450526 8.88670635,40.0496221 9.99810135,40.0496221 L14.0018986,40.0496221 C15.1054196,40.0496221 16,40.9373517 16,42.0496221 C16,43.1541916 15.1132936,44.0496221 14.0018986,44.0496221 L9.99810135,44.0496221 C8.89458045,44.0496221 8,43.1618924 8,42.0496221 Z" id="Rectangle-420" fill="#000000"></path>
    </g>
</svg>