<?xml version="1.0" encoding="UTF-8"?>
<svg width="48px" height="48px" viewBox="0 0 48 48" version="1.1" xmlns="http://www.w3.org/2000/svg" xmlns:xlink="http://www.w3.org/1999/xlink">
    <!-- Generator: Sketch 43.2 (39069) - http://www.bohemiancoding.com/sketch -->
    <title>theicons.co/svg/transport-15</title>
    <desc>Created with Sketch.</desc>
    <defs></defs>
    <g id="The-Icons" stroke="none" stroke-width="1" fill="none" fill-rule="evenodd">
        <path d="M15.2236263,24.0041637 L18.1518601,21.0760086 L16.6898251,19.6140129 L13.7614131,22.5423462 C12.9563515,23.3473862 11.6511972,23.3474946 10.8452749,22.541594 L0.603850404,12.3004446 C-0.201626623,11.4949892 -0.200689565,10.1881509 0.603098177,9.38438478 L9.38399218,0.603726647 C10.1890538,-0.201313312 11.494208,-0.20142179 12.3001303,0.604478854 L22.5415548,10.8456283 C23.3470319,11.6510837 23.3460948,12.9579219 22.5423071,13.7616881 L19.613895,16.6900214 L21.07593,18.1520171 L26.9204539,12.3076502 C27.7303631,11.4977628 29.0434721,11.4993881 29.8543757,12.3102698 L35.6900442,18.1457816 C36.4989734,18.9546891 36.5021206,20.2701895 35.6926638,21.0796245 L29.8481399,26.9239914 L31.3101749,28.3859871 L34.2385869,25.4576538 C35.0436485,24.6526138 36.3488028,24.6525054 37.1547251,25.458406 L47.3961496,35.6995554 C48.2016266,36.5050108 48.2006896,37.8118491 47.3969018,38.6156152 L38.6160078,47.3962734 C37.8109462,48.2013133 36.505792,48.2014218 35.6998697,47.3955211 L25.4584452,37.1543717 C24.6529681,36.3489163 24.6539052,35.0420781 25.4576929,34.2383119 L28.386105,31.3099786 L26.92407,29.8479829 L23.9958362,32.776138 C22.9842818,33.7876652 21.7099045,34.3760646 20.3922415,34.54152 C20.7132252,37.1089365 19.9009841,39.7948715 18.1518601,41.5439486 C16.8086581,42.8871145 14.0011835,41.6488748 11.4119527,39.5117006 L10.1091421,40.8144762 C9.30252499,41.6210716 7.99968674,41.626018 7.18659766,40.8129507 C6.37913803,40.0055128 6.3812069,38.6943284 7.18507211,37.8904848 L8.48788268,36.5877092 C6.35065114,33.9985479 5.11237818,31.1911488 6.45558016,29.8479829 C8.36875198,27.9348624 10.9860374,27.1549653 13.473283,27.5082913 C13.6549208,26.2258829 14.2380034,24.9897601 15.2236263,24.0041637 Z M29.8481399,35.6959657 L35.6962799,29.8479829 L37.8893324,32.0409764 L32.0411924,37.8889593 L29.8481399,35.6959657 Z M37.1583149,43.0059443 L43.0064548,37.1579614 L40.8134023,34.9649679 L34.9652624,40.8129507 L37.1583149,43.0059443 Z M4.99354518,10.8420386 L10.8416851,4.99405571 L13.0347376,7.18704929 L7.18659766,13.0350321 L4.99354518,10.8420386 Z M12.3037201,18.1520171 L18.1518601,12.3040343 L15.9588076,10.1110407 L10.1106676,15.9590236 L12.3037201,18.1520171 Z M10.3654022,32.0501831 C10.3654022,32.0501831 11.3578323,33.7467482 12.8054112,35.1942881 C14.2833749,36.672212 15.9741114,37.6202337 15.9741114,37.6202337 C15.9741114,37.6202337 16.8427093,34.3868502 15.2277901,32.7719743 C13.6128708,31.1570984 10.3654022,32.0501831 10.3654022,32.0501831 Z M18.1518601,29.8479829 C18.9601037,30.6562048 20.2670284,30.6568628 21.0717662,29.8521466 L31.3101749,19.6140129 L28.386105,16.6900214 L18.1476962,26.9281551 C17.3453663,27.7304635 17.3464986,29.042643 18.1518601,29.8479829 Z" id="Combined-Shape" fill="#000000"></path>
    </g>
</svg>