<?xml version="1.0" encoding="UTF-8"?>
<svg width="48px" height="48px" viewBox="0 0 48 48" version="1.1" xmlns="http://www.w3.org/2000/svg" xmlns:xlink="http://www.w3.org/1999/xlink">
    <!-- Generator: Sketch 43.2 (39069) - http://www.bohemiancoding.com/sketch -->
    <title>theicons.co/svg/transport-08</title>
    <desc>Created with Sketch.</desc>
    <defs></defs>
    <g id="The-Icons" stroke="none" stroke-width="1" fill="none" fill-rule="evenodd">
        <path d="M32.0068741,18.165789 C31.9153725,17.065016 32.7335486,16.0984865 33.8343216,16.0069848 C34.9350947,15.9154832 35.9016242,16.7336593 35.9931259,17.8344323 C36.0138245,18.0834384 36.1318648,18.5838928 36.3835585,19.048831 C36.7315512,19.6916561 37.1837067,20.0018197 38,20.0018197 C39.1045695,20.0018197 40,20.8972502 40,22.0018197 C40,23.1063892 39.1045695,24.0018197 38,24.0018197 L35.1404186,24.0018197 C35.2513539,24.7284514 35.4251425,25.4371216 35.6699022,26.0932049 C35.9675317,26.891007 36.3539103,27.5661344 36.8308915,28.0990146 C37.2110709,28.0350939 37.6016496,28.0018197 38,28.0018197 C41.8659932,28.0018197 45,31.1358264 45,35.0018197 C45,38.8678129 41.8659932,42.0018197 38,42.0018197 C34.1340068,42.0018197 31,38.8678129 31,35.0018197 C31,33.0029241 31.837834,31.1997151 33.1814823,29.9242123 C32.6688173,29.1927289 32.2523517,28.3762991 31.9222029,27.4913287 C31.8880615,27.3998121 31.8549735,27.3079234 31.8229194,27.215689 L25.6443844,36.1402396 C25.2467775,36.7145607 24.6210512,37.0031955 23.9950297,37.0018197 L16.7101213,37.0018197 C15.8495721,39.8933086 13.1710206,42.0018197 10,42.0018197 C6.13400675,42.0018197 3,38.8678129 3,35.0018197 C3,31.1358264 6.13400675,28.0018197 10,28.0018197 C13.1710206,28.0018197 15.8495721,30.1103307 16.7101213,33.0018197 L20,33.0018197 L10.2677206,20.0018197 L7.99961498,20.0018197 C6.89525812,20.0018197 6,19.11409 6,18.0018197 C6,16.8972502 6.88743329,16.0018197 7.99961498,16.0018197 L14.000385,16.0018197 C15.1047419,16.0018197 16,16.8895493 16,18.0018197 L16,20.0018197 L32.4318602,20.0018197 C32.1750798,19.318295 32.0498749,18.6830921 32.0068741,18.165789 Z M18.25,24.0018197 L23.9350889,31.5819382 L29.1828633,24.0018197 L18.25,24.0018197 Z M38,38.0018197 C39.6568542,38.0018197 41,36.6586739 41,35.0018197 C41,33.3449654 39.6568542,32.0018197 38,32.0018197 C36.3431458,32.0018197 35,33.3449654 35,35.0018197 C35,36.6586739 36.3431458,38.0018197 38,38.0018197 Z M10,38.0018197 C11.6568542,38.0018197 13,36.6586739 13,35.0018197 C13,33.3449654 11.6568542,32.0018197 10,32.0018197 C8.34314575,32.0018197 7,33.3449654 7,35.0018197 C7,36.6586739 8.34314575,38.0018197 10,38.0018197 Z" id="Combined-Shape" fill="#000000"></path>
    </g>
</svg>