<?xml version="1.0" encoding="UTF-8"?>
<svg width="48px" height="48px" viewBox="0 0 48 48" version="1.1" xmlns="http://www.w3.org/2000/svg" xmlns:xlink="http://www.w3.org/1999/xlink">
    <!-- Generator: Sketch 43.2 (39069) - http://www.bohemiancoding.com/sketch -->
    <title>theicons.co/svg/transport-10</title>
    <desc>Created with Sketch.</desc>
    <defs></defs>
    <g id="The-Icons" stroke="none" stroke-width="1" fill="none" fill-rule="evenodd">
        <path d="M3.99645612,30 L16,30.0300293 L16,25.3508894 L16.1872481,24.7350889 L18.4388865,18 L4.00024686,18 L3.99898328,22 L10,22 C11.1019024,22 11.9866571,22.8877296 11.9866571,24 C11.9866571,25.1045695 11.1003091,26 10,26 L3.9977197,26 L3.99645612,30 Z M32,30 L32,10 L29.9647463,10 C28.8624524,10 27.9688666,9.11227036 27.9688666,8 C27.9688666,6.8954305 28.854587,6 29.9647463,6 L32,6 L32,3.99161703 C32,2.89167732 32.8511616,2 33.9621952,2 C35.0655365,2 36,2.89784041 36,3.99161703 L36,26.0037973 L45.9403316,26.0006356 C47.0483788,26.0002846 47.9253309,26.9084423 47.9466285,28 C47.9253309,28.9746094 48.5997101,35.875 45.6937652,39.8540039 C42.7878202,43.8330078 39.0244313,46 32.9633071,46 L7.99599576,46 C3.57992924,46 0,42.4244008 0,38.0092465 L0,15.9907951 C0,14.8913093 0.896028817,14 2.00271728,14 L8,14 L8,10 L5.99143203,10 C4.88913813,10 3.99555237,9.11227036 3.99555237,8 C3.99555237,6.8954305 4.88127279,6 5.99143203,6 L8,6 L8,3.99406028 C8,2.8927712 8.87784732,2 9.98888094,2 C11.0922223,2 12,2.89451376 12,3.99406028 L12,14 L21.970597,14 C23.0766672,14 23.6923548,14.8438167 23.3402071,15.9014357 L20,26 L20,30 L32,30 Z M38.8847809,30.0032008 C37.5009374,32.3933784 34.9601867,34 32,34 L3.99555237,34.0039673 L3.99555237,38.0092465 C3.99555237,40.2128381 5.78419329,42 7.99599576,42 L32.9633071,42 C37.4865054,42 40.1615806,40.6517476 42.4683501,37.4931726 C42.9553568,36.8263323 43.3755585,35.7081527 43.6584649,34.2708243 C43.9316956,32.8826542 44.0508697,31.3899168 44.0632198,29.9971482 C43.5811266,30.0006354 39.5093651,30.0006354 38.8847809,30.0032008 Z M30,40 C28.8954305,40 28,39.1045695 28,38 C28,36.8954305 28.8954305,36 30,36 C31.1045695,36 32,36.8954305 32,38 C32,39.1045695 31.1045695,40 30,40 Z M22,40 C20.8954305,40 20,39.1045695 20,38 C20,36.8954305 20.8954305,36 22,36 C23.1045695,36 24,36.8954305 24,38 C24,39.1045695 23.1045695,40 22,40 Z M14,40 C12.8954305,40 12,39.1045695 12,38 C12,36.8954305 12.8954305,36 14,36 C15.1045695,36 16,36.8954305 16,38 C16,39.1045695 15.1045695,40 14,40 Z" id="Combined-Shape" fill="#000000"></path>
    </g>
</svg>