<?xml version="1.0" encoding="UTF-8"?>
<svg width="48px" height="48px" viewBox="0 0 48 48" version="1.1" xmlns="http://www.w3.org/2000/svg" xmlns:xlink="http://www.w3.org/1999/xlink">
    <!-- Generator: Sketch 43.2 (39069) - http://www.bohemiancoding.com/sketch -->
    <title>theicons.co/svg/transport-01</title>
    <desc>Created with Sketch.</desc>
    <defs></defs>
    <g id="The-Icons" stroke="none" stroke-width="1" fill="none" fill-rule="evenodd">
        <path d="M21.9450712,34 C21.4476269,38.4999505 17.6325537,42 13,42 C8.02943725,42 4,37.9705627 4,33 L4,20 C4,18.8954305 4.8954305,18 6,18 L8,18 L8,7.99406028 C8,6.8927712 8.89451376,6 9.99406028,6 L22.0059397,6 C23.1072288,6 24.2150574,6.86022949 24.4864795,7.94591811 L27,18 L34,18 L34,11.0085302 C34,9.8992496 34.8877296,9 36,9 C37.1045695,9 38,9.90195036 38,11.0085302 L38,18 L44,18 C45.3651155,18 46.329054,19.3373933 45.8973666,20.6324555 L41.8973666,32.6324555 C41.7969764,32.933626 41.629671,33.1986462 41.4152832,33.4132216 C41.7901051,34.1964789 42,35.0737276 42,36 C42,39.3137085 39.3137085,42 36,42 C32.6862915,42 30,39.3137085 30,36 C30,35.2987292 30.1203084,34.6255579 30.3414114,34 L21.9450712,34 Z M38.5528565,29.9999992 L41.2454834,22 L8.01999664,22 L8.01298407,25.506874 C9.44050214,24.5548997 11.1554492,24 13,24 C16.9186526,24 20.2523671,26.5044179 21.4878792,29.9999896 L38.5528565,29.9999992 Z M12,18 L23,18 L21,10 L12,10 L12,18 Z M18,33 C18,30.2385763 15.7614237,28 13,28 C10.2385763,28 8,30.2385763 8,33 C8,35.7614237 10.2385763,38 13,38 C15.7614237,38 18,35.7614237 18,33 Z M38,36 C38,34.8954305 37.1045695,34 36,34 C34.8954305,34 34,34.8954305 34,36 C34,37.1045695 34.8954305,38 36,38 C37.1045695,38 38,37.1045695 38,36 Z" id="Combined-Shape" fill="#000000"></path>
    </g>
</svg>