<?xml version="1.0" encoding="UTF-8"?>
<svg width="48px" height="48px" viewBox="0 0 48 48" version="1.1" xmlns="http://www.w3.org/2000/svg" xmlns:xlink="http://www.w3.org/1999/xlink">
    <!-- Generator: Sketch 43.2 (39069) - http://www.bohemiancoding.com/sketch -->
    <title>theicons.co/svg/transport-18</title>
    <desc>Created with Sketch.</desc>
    <defs></defs>
    <g id="The-Icons" stroke="none" stroke-width="1" fill="none" fill-rule="evenodd">
        <path d="M40.9983345,38 L17.6585886,38 C16.8349158,40.3303847 14.6124377,42 12,42 C9.38756235,42 7.16508423,40.3303847 6.34141142,38 L3.99970728,38 C2.89529944,38 2,37.1021596 2,36.008383 L2,16.0000405 C2,11.5817401 5.58343124,8 10.0007413,8 L36.0002927,8 C37.1047006,8 38,8.89784041 38,9.99161703 L38,34 L40.9983345,34 C41.550292,34 42,33.5502086 42,33.0001067 L42,32.0002134 C42,30.8956439 42.8954305,30.0002134 44,30.0002134 C45.1045695,30.0002134 46,30.8956439 46,32.0002134 L46,33.0001067 C46,35.7591816 43.759597,38 40.9983345,38 Z M6,34 L6.34141142,34 C7.16508423,31.6696153 9.38756235,30 12,30 C14.6124377,30 16.8349158,31.6696153 17.6585886,34 L24,34 L24,17.9907951 C24,16.8982124 24.8992496,16 26.0085302,16 L34,16 L34,12 L10.0007413,12 C7.79192315,12 6.0000219,13.7915178 6,16 L15.9941413,16 C17.1019465,16 18,16.9019504 18,18.0085302 L18,25.9914698 C18,27.1007504 17.1029399,28 15.9941413,28 L6,28 L6,34 Z M14,24 L14,20 L6,20 L6,24 L14,24 Z M28,34 L34,34 L34,20 L28,20 L28,34 Z M14,36 C14,34.8954305 13.1045695,34 12,34 C10.8954305,34 10,34.8954305 10,36 C10,37.1045695 10.8954305,38 12,38 C13.1045695,38 14,37.1045695 14,36 Z" id="Combined-Shape" fill="#000000"></path>
    </g>
</svg>