<?xml version="1.0" encoding="UTF-8"?>
<svg width="48px" height="48px" viewBox="0 0 48 48" version="1.1" xmlns="http://www.w3.org/2000/svg" xmlns:xlink="http://www.w3.org/1999/xlink">
    <!-- Generator: Sketch 43.2 (39069) - http://www.bohemiancoding.com/sketch -->
    <title>theicons.co/svg/transport-12</title>
    <desc>Created with Sketch.</desc>
    <defs></defs>
    <g id="The-Icons" stroke="none" stroke-width="1" fill="none" fill-rule="evenodd">
        <path d="M48,35 C48,39.9705627 43.9728634,44 39.0028343,44 L14.9971657,44 C11.2242158,44 7.99368536,41.6775246 6.65709031,38.38308 L3.05870034,41.4192216 C1.36942679,42.8445461 0,42.2082844 0,40.0052166 L0,29.9947834 C0,27.7885255 1.37524903,27.1603664 3.05870034,28.5807784 L6.65712639,31.6169504 C7.95584889,28.4159181 11.0426963,26.1319555 14.6788395,26.0055257 L20.1617099,13.2121614 C20.4768675,12.4767937 21.1999438,12 22,12 L28,12 L28,9.00335124 C28,6.24182378 30.2423274,4 33.0003297,4 L35,4 C36.1045695,4 37,4.8954305 37,6 C37,7.1045695 36.1045695,8 35,8 L33.0003297,8 C32.4512653,8 32,8.45116395 32,9.00335124 L32,12 L34.0037973,12 C37.3151801,12 40,14.6825314 40,17.9931023 L40,26.0546365 C44,26 48,30.3655628 48,35 Z M36,23 L29.999615,23 C28.8952581,23 28,22.1122704 28,21 C28,19.8954305 28.8874333,19 29.999615,19 L36,19 L36,17.9931023 C36,16.8924343 35.1068043,16 34.0037973,16 L23.324111,16 L19.0342375,26 L36,26 L36,23 Z M14.9971657,40 L39.0028343,40 C41.7630151,40 44,37.7621331 44,35 C44,32.2376539 41.7628631,30 39.0028343,30 L14.9971657,30 C12.2369849,30 10,32.2378669 10,35 C10,37.7623461 12.2371369,40 14.9971657,40 Z M13,15 C11.3431458,15 10,13.6568542 10,12 C10,10.3431458 11.3431458,9 13,9 C14.6568542,9 16,10.3431458 16,12 C16,13.6568542 14.6568542,15 13,15 Z M7,8 C5.8954305,8 5,7.1045695 5,6 C5,4.8954305 5.8954305,4 7,4 C8.1045695,4 9,4.8954305 9,6 C9,7.1045695 8.1045695,8 7,8 Z M27,38 C25.3431458,38 24,36.6568542 24,35 C24,33.3431458 25.3431458,32 27,32 C28.6568542,32 30,33.3431458 30,35 C30,36.6568542 28.6568542,38 27,38 Z M37,38 C35.3431458,38 34,36.6568542 34,35 C34,33.3431458 35.3431458,32 37,32 C38.6568542,32 40,33.3431458 40,35 C40,36.6568542 38.6568542,38 37,38 Z" id="Combined-Shape" fill="#000000"></path>
    </g>
</svg>