<?xml version="1.0" encoding="UTF-8"?>
<svg width="48px" height="48px" viewBox="0 0 48 48" version="1.1" xmlns="http://www.w3.org/2000/svg" xmlns:xlink="http://www.w3.org/1999/xlink">
    <!-- Generator: Sketch 43.2 (39069) - http://www.bohemiancoding.com/sketch -->
    <title>theicons.co/svg/transport-09</title>
    <desc>Created with Sketch.</desc>
    <defs></defs>
    <g id="The-Icons" stroke="none" stroke-width="1" fill="none" fill-rule="evenodd">
        <path d="M36.5139078,33.999439 L23.9314697,11.6021642 L23.9314697,29.999439 L29.9229395,29.999439 C31.0322201,29.999439 31.9314697,30.8976996 31.9314697,31.9973521 L31.9314697,33.999439 L36.5139078,33.999439 Z M19.9314697,15.0292709 L12.8174938,33.999439 L19.9314697,33.999439 L19.9314697,15.0292709 Z M20.0588166,3.29791043 C20.6558256,1.70592291 22.8410309,1.53774528 23.6746112,3.01963188 L41.1011516,33.999439 L43.9335566,33.999439 C45.0369735,33.999439 45.9314697,34.8871686 45.9314697,35.999439 C45.9314697,37.1040085 45.0449149,37.999439 43.9255507,37.999439 L42.146976,37.999439 C41.732899,39.1779554 41.1005654,40.5213739 40.135083,41.8929937 C37.2695144,45.9639849 30.8592041,45.999439 30.8592041,45.999439 L4.93660313,45.999439 C2.72462903,45.999439 1.49608825,44.3055834 2.19709472,42.202564 L4.61780214,34.9404417 C4.79103596,34.4207403 5.38470001,33.999439 5.92834512,33.999439 L8.54547992,33.999439 L20.0588166,3.29791043 Z M17.9314697,41.9994697 C17.9314697,40.8948695 18.8191994,39.999439 19.9314697,39.999439 C21.0360392,39.999439 21.9314697,40.8871686 21.9314697,41.999439 L25.9314697,41.9994886 C25.9314697,40.8948695 26.8191994,39.999439 27.9314697,39.999439 C29.0360392,39.999439 29.9314697,40.8871686 29.9314697,41.999439 L30.8370813,41.9995002 C30.9999199,41.9985995 31.4051219,41.9727789 31.960746,41.8942622 C32.8970377,41.7619525 33.8256184,41.529865 34.6486328,41.1900621 C35.6686952,40.7689029 36.4153856,40.2281446 36.8641587,39.5905918 C37.2381539,39.0592729 37.8252107,37.999439 37.8252107,37.999439 L7.81615652,37.9944892 L6.47382819,41.9994426 L9.93146972,41.9994508 C9.93146972,40.8948695 10.8191994,39.999439 11.9314697,39.999439 C13.0360392,39.999439 13.9314697,40.8871686 13.9314697,41.999439 L17.9314697,41.9994697 Z" id="Combined-Shape" fill="#000000"></path>
    </g>
</svg>