<?xml version="1.0" encoding="UTF-8"?>
<svg width="48px" height="48px" viewBox="0 0 48 48" version="1.1" xmlns="http://www.w3.org/2000/svg" xmlns:xlink="http://www.w3.org/1999/xlink">
    <!-- Generator: Sketch 43.2 (39069) - http://www.bohemiancoding.com/sketch -->
    <title>theicons.co/svg/transport-14</title>
    <desc>Created with Sketch.</desc>
    <defs></defs>
    <g id="The-Icons" stroke="none" stroke-width="1" fill="none" fill-rule="evenodd">
        <path d="M12,19 L12,24.7659828 C13.3516112,23.5075782 14.7540071,22.420706 16,21.4977554 L16,12.0068352 C16,10.9004957 15.0998308,10 14,10 C12.895024,10 12,10.8957157 12,12.0068352 L12,14 C13.1122704,14 14,14.897616 14,16.0048815 L14,16.9951185 C14,18.1061002 13.1045695,19 12,19 Z M14,42 L7.96954346,42 C6.5078125,42 6,40.9147339 6,40.0004272 L6,36.394043 C6,33.8357234 6.79232821,31.5593834 8,29.5511746 L8,12.0068352 C8,8.68616873 10.6862915,6 14,6 C15.5657871,6 16.9939402,6.60291161 18.063768,7.58994183 C19.2854471,4.90155014 21.2818924,2 24.2084961,2 C27.0829462,2 28.962829,4.79905749 30.0979264,7.446031 C31.1479728,6.54462534 32.5118222,6 34,6 C37.3137085,6 40,8.68616873 40,12.0068352 L40,29.5511746 C41.2076718,31.5593834 42,33.8357234 42,36.394043 L42,40.0004272 C42,40.9147339 41.4921875,42 40.0304565,42 L34,42 C34,44.209139 32.2046438,46 30,46 C27.790861,46 26,44.2046438 26,42 L22,42 C22,44.2046438 20.209139,46 18,46 C15.7953562,46 14,44.209139 14,42 Z M36,14 L36,12.0068352 C36,10.8957157 35.104976,10 34,10 C32.9001692,10 32,10.9004957 32,12.0068352 L32,21.4977554 C33.2459929,22.420706 34.6483888,23.5075782 36,24.7659828 L36,19 C34.8954305,19 34,18.1061002 34,16.9951185 L34,16.0048815 C34,14.897616 34.8877296,14 36,14 Z M20,38 L28,38 L28,19.0608466 C27.8580717,18.9818588 27.6994905,18.8991107 27.5253113,18.8153064 C26.4726033,18.308808 25.3021785,18.0061035 24.0488281,18.0061035 C22.7914068,18.0061035 21.6130643,18.3069957 20.5507162,18.8104395 C20.3451904,18.9078376 20.1610439,19.0038233 20,19.0941203 L20,38 Z M24.0488281,14.0061035 C25.3973187,14.0061035 26.6710656,14.2345973 27.8563354,14.6367485 C27.6856571,13.4545649 27.4103364,11.9576731 27.3014174,11.5634273 C27.0279101,10.5734332 26.6843572,9.58749839 26.2780005,8.69778402 C25.8129243,7.67950366 25.3060066,6.88394254 24.8224635,6.39947572 C24.5046025,6.08100755 24.3360399,6 24.2084961,6 C24.0609169,6 23.8506011,6.09941307 23.491085,6.44749716 C22.9711455,6.95090343 22.4245046,7.7644395 21.9153887,8.80033011 C21.4742652,9.6978778 21.0939904,10.6902358 20.7842257,11.6861962 C20.6614992,12.0807884 20.354884,13.5132916 20.1634317,14.6560043 C21.3727826,14.2420353 22.6728889,14.0061035 24.0488281,14.0061035 Z M32,38 L38,38.0019531 L38,36.394043 C38,33.130224 36.0739339,30.0753069 32.3896967,26.9023232 C32.263938,26.7940157 32,26.6000061 32,26.6000061 L32,38 Z M16,38 L16,26.6000061 C16,26.6000061 15.736062,26.7940157 15.6103033,26.9023232 C11.9260661,30.0753069 10,33.130224 10,36.394043 L10,38.0019531 L16,38 Z" id="Combined-Shape" fill="#000000"></path>
    </g>
</svg>