<?xml version="1.0" encoding="UTF-8"?>
<svg width="48px" height="48px" viewBox="0 0 48 48" version="1.1" xmlns="http://www.w3.org/2000/svg" xmlns:xlink="http://www.w3.org/1999/xlink">
    <!-- Generator: Sketch 43.2 (39069) - http://www.bohemiancoding.com/sketch -->
    <title>theicons.co/svg/transport-13</title>
    <desc>Created with Sketch.</desc>
    <defs></defs>
    <g id="The-Icons" stroke="none" stroke-width="1" fill="none" fill-rule="evenodd">
        <path d="M24.7496414,28.8169156 L18.5720817,34.9867814 L16.8759255,42.2107802 C16.3720665,44.3567366 14.9673464,44.6154561 13.712056,42.7909728 C13.712056,42.7909728 11.2671598,39.0046658 9.3682306,37.1081017 C7.73018785,35.4720991 4.2365756,33.2883932 4.2365756,33.2883932 C2.40027451,32.0734282 2.63515278,30.5716794 4.74643496,29.9385682 L11.4921962,27.9157136 L17.6173431,21.7981953 L13.8306504,19.9233177 L12.1987073,21.5532282 C11.4175007,22.3334618 10.1557053,22.3382464 9.3682306,21.5517525 C8.58620804,20.7707039 8.58821174,19.5023728 9.36675311,18.724801 L10.0439576,18.04844 L7.20393795,16.6422818 L5.82681036,18.0176943 C5.0456038,18.7979279 3.78380833,18.8027125 2.99633365,18.0162186 C2.21431109,17.23517 2.21631479,15.9668389 2.99485616,15.1892671 L3.41724515,14.7674042 L1.90621502,14.0192589 C0.91775046,13.5298476 0.702857845,12.4620287 1.43546568,11.6387868 L4.50178402,8.19312133 C5.23776115,7.36609337 6.70022432,6.91433863 7.77581247,7.17564233 L27.4681118,11.9596953 L34.1478862,5.28824028 C34.9298776,4.50722278 36.4264895,3.64915424 37.4973418,3.369949 L42.2401106,2.13335838 C44.374984,1.57672902 45.5105107,2.81355134 44.7770621,4.89394475 L43.3111909,9.05182178 C42.9425417,10.0974785 42.0122083,11.5758484 41.2277717,12.3593081 L34.6412039,18.9376726 L39.8962208,38.4334918 C40.1826111,39.4959835 39.8000389,40.9998756 39.0340202,41.8005793 L35.5037605,45.4906875 C34.7411901,46.2877868 33.7073201,46.1305192 33.2076076,45.1646637 L31.9857476,42.8030251 L31.3143982,43.4735384 C30.5331916,44.253772 29.2713961,44.2585567 28.4839214,43.4720627 C27.7018989,42.6910142 27.7039026,41.422683 28.482444,40.6451113 L30.0561193,39.0733959 L28.608898,36.276174 L27.7744554,37.1095774 C26.9932488,37.889811 25.7314534,37.8945956 24.9439787,37.1081017 C24.1619561,36.3270531 24.1639598,35.058722 24.9425012,34.2811502 L26.6792697,32.5465448 L24.7496414,28.8169156 Z M20.6025612,18.8166952 L6.5663972,11.8942287 L7.21025557,11.1548799 L24.152777,15.270901 L20.6025612,18.8166952 Z M27.7218723,25.8483865 L35.1137225,40.1355214 L35.9694139,39.2525425 L31.3733615,22.2014451 L27.7218723,25.8483865 Z M10.1404547,32.5138736 C10.1404547,32.5138736 11.6370987,33.7172897 12.2001848,34.2796746 C12.8273296,34.9060383 14.1047822,36.4930571 14.1047822,36.4930571 L14.9333579,32.9641191 L38.3958175,9.53088096 C38.7552987,9.17184749 39.3631995,8.20649749 39.5335459,7.72331781 L39.8290835,6.89604489 L38.5089682,7.24024092 C38.1284058,7.33946564 37.2597014,7.83715495 36.9798404,8.1166674 L13.6105027,31.4568996 L10.1404547,32.5138736 Z" id="Combined-Shape" fill="#000000"></path>
    </g>
</svg>