<?xml version="1.0" encoding="UTF-8"?>
<svg width="48px" height="48px" viewBox="0 0 48 48" version="1.1" xmlns="http://www.w3.org/2000/svg" xmlns:xlink="http://www.w3.org/1999/xlink">
    <!-- Generator: Sketch 43.2 (39069) - http://www.bohemiancoding.com/sketch -->
    <title>theicons.co/svg/transport-05</title>
    <desc>Created with Sketch.</desc>
    <defs></defs>
    <g id="The-Icons" stroke="none" stroke-width="1" fill="none" fill-rule="evenodd">
        <path d="M35,42 C32.3875623,42 30.1650842,40.3303847 29.3414114,38 L18.6585886,38 C17.8349158,40.3303847 15.6124377,42 13,42 C10.3875623,42 8.16508423,40.3303847 7.34141142,38 L4.99749218,38 C3.89430771,38 3,37.1029399 3,35.9941413 L3,16 C3,14.8954305 3.8954305,14 5,14 L30,14 C30.8178092,14 31.5532267,14.4979019 31.8569534,15.2572186 L35.3540659,24 L43.0025078,24 C44.1056923,24 45,24.8970601 45,26.0058587 L45,35.9941413 C45,37.1019465 44.1033397,38 43.0025078,38 L40.6585886,38 C39.8349158,40.3303847 37.6124377,42 35,42 Z M35,30 C37.6124377,30 39.8349158,31.6696153 40.6585886,34 L41,34 L41,28 L7,28 L7,34 L7.34141142,34 C8.16508423,31.6696153 10.3875623,30 13,30 C15.6124377,30 17.8349158,31.6696153 18.6585886,34 L29.3414114,34 C30.1650842,31.6696153 32.3875623,30 35,30 Z M7,24 L16,24 L16,18.0018576 L7,18.0030518 L7,24 Z M31.0422128,24 L28.6341451,18.0001812 L20,18.0013269 L20,24 L31.0422128,24 Z M37,36 C37,34.8954305 36.1045695,34 35,34 C33.8954305,34 33,34.8954305 33,36 C33,37.1045695 33.8954305,38 35,38 C36.1045695,38 37,37.1045695 37,36 Z M15,36 C15,34.8954305 14.1045695,34 13,34 C11.8954305,34 11,34.8954305 11,36 C11,37.1045695 11.8954305,38 13,38 C14.1045695,38 15,37.1045695 15,36 Z" id="Combined-Shape" fill="#000000"></path>
    </g>
</svg>