<?xml version="1.0" encoding="UTF-8"?>
<svg width="48px" height="48px" viewBox="0 0 48 48" version="1.1" xmlns="http://www.w3.org/2000/svg" xmlns:xlink="http://www.w3.org/1999/xlink">
    <!-- Generator: Sketch 43.2 (39069) - http://www.bohemiancoding.com/sketch -->
    <title>theicons.co/svg/transport-02</title>
    <desc>Created with Sketch.</desc>
    <defs></defs>
    <g id="The-Icons" stroke="none" stroke-width="1" fill="none" fill-rule="evenodd">
        <path d="M30,14 L30,11.9979131 C30,10.8944962 30.8877296,10 32,10 C33.1045695,10 34,10.8982606 34,11.9979131 L34,14 L36,14 C36.8452465,14 37.5992351,14.531365 37.8835014,15.3273765 L40.9806111,24 L43.0028604,24 C44.1058502,24 45,24.8970601 45,26.0058587 L45,35.9941413 C45,37.1019465 44.1033397,38 43.0025078,38 L40.6585886,38 C39.8349158,40.3303847 37.6124377,42 35,42 C32.3875623,42 30.1650842,40.3303847 29.3414114,38 L18.6585886,38 C17.8349158,40.3303847 15.6124377,42 13,42 C10.3875623,42 8.16508423,40.3303847 7.34141142,38 L4.99749218,38 C3.89430771,38 3,37.1107383 3,35.9982567 L3,8.00174332 C3,6.89621101 3.90162726,6 5.00086422,6 L23.9991358,6 C25.1041826,6 26.0001332,6.8926228 26.0002977,7.99508929 L26.0011936,14 L30,14 Z M26.0017904,18 L26.0026855,24 L36.7335239,24 L34.5915527,18 L26.0017904,18 Z M35,30 C37.6124377,30 39.8349158,31.6696153 40.6585886,34 L41,34 L41,28 L23.9974219,28 C22.8942762,28 22,27.1073772 22,26.0049107 L22,10 L7,10 L7,34 L7.34141142,34 C8.16508423,31.6696153 10.3875623,30 13,30 C15.6124377,30 17.8349158,31.6696153 18.6585886,34 L29.3414114,34 C30.1650842,31.6696153 32.3875623,30 35,30 Z M37,36 C37,34.8954305 36.1045695,34 35,34 C33.8954305,34 33,34.8954305 33,36 C33,37.1045695 33.8954305,38 35,38 C36.1045695,38 37,37.1045695 37,36 Z M15,36 C15,34.8954305 14.1045695,34 13,34 C11.8954305,34 11,34.8954305 11,36 C11,37.1045695 11.8954305,38 13,38 C14.1045695,38 15,37.1045695 15,36 Z" id="Combined-Shape" fill="#000000"></path>
    </g>
</svg>