<?xml version="1.0" encoding="UTF-8"?>
<svg width="48px" height="48px" viewBox="0 0 48 48" version="1.1" xmlns="http://www.w3.org/2000/svg" xmlns:xlink="http://www.w3.org/1999/xlink">
    <!-- Generator: Sketch 43.2 (39069) - http://www.bohemiancoding.com/sketch -->
    <title>theicons.co/svg/transport-03</title>
    <desc>Created with Sketch.</desc>
    <defs></defs>
    <g id="The-Icons" stroke="none" stroke-width="1" fill="none" fill-rule="evenodd">
        <path d="M30,14.0040095 L30,12.0019226 C30,10.8985057 30.8877296,10.0040095 32,10.0040095 C33.1045695,10.0040095 34,10.9022701 34,12.0019226 L34,14.0040095 L36,14.0040095 C36.8178092,14.0040095 37.5532267,14.5019114 37.8569534,15.2612282 L41.3540659,24.0040095 L43.0025078,24.0040095 C44.1056923,24.0040095 45,24.9010696 45,26.0098682 L45,35.9981508 C45,37.105956 44.1033397,38.0040095 43.0025078,38.0040095 L40.6585886,38.0040095 C39.8349158,40.3343943 37.6124377,42.0040095 35,42.0040095 C32.3875623,42.0040095 30.1650842,40.3343943 29.3414114,38.0040095 L18.6585886,38.0040095 C17.8349158,40.3343943 15.6124377,42.0040095 13,42.0040095 C10.3875623,42.0040095 8.16508423,40.3343943 7.34141142,38.0040095 L4.99749218,38.0040095 C3.89430771,38.0040095 3,37.1069494 3,35.9981508 L3,26.0098682 C3,24.902063 3.89666034,24.0040095 4.99749218,24.0040095 L19.1715729,24.0040095 L10.0018631,14.8342997 L10,18.0006344 C10,19.1052039 9.1045695,20.0006344 8,20.0006344 C6.8954305,20.0006344 6,19.1052039 6,18.0006344 L6,10.0040095 C6,8.22219981 8.15428384,7.32986622 9.41421356,8.58979595 L22,21.1755824 L22,16.0040095 C22,14.89944 22.8954305,14.0040095 24,14.0040095 L30,14.0040095 Z M34.6712646,18.0040095 L26,18.0040095 L26,24.0040095 L37.0538808,24.0040095 L34.6712646,18.0040095 Z M35,30.0040095 C37.6124377,30.0040095 39.8349158,31.6736248 40.6585886,34.0040095 L41,34.0040095 L41,28.0040095 L7,28.0040095 L7,34.0040095 L7.34141142,34.0040095 C8.16508423,31.6736248 10.3875623,30.0040095 13,30.0040095 C15.6124377,30.0040095 17.8349158,31.6736248 18.6585886,34.0040095 L29.3414114,34.0040095 C30.1650842,31.6736248 32.3875623,30.0040095 35,30.0040095 Z M37,36.0040095 C37,34.89944 36.1045695,34.0040095 35,34.0040095 C33.8954305,34.0040095 33,34.89944 33,36.0040095 C33,37.108579 33.8954305,38.0040095 35,38.0040095 C36.1045695,38.0040095 37,37.108579 37,36.0040095 Z M15,36.0040095 C15,34.89944 14.1045695,34.0040095 13,34.0040095 C11.8954305,34.0040095 11,34.89944 11,36.0040095 C11,37.108579 11.8954305,38.0040095 13,38.0040095 C14.1045695,38.0040095 15,37.108579 15,36.0040095 Z" id="Combined-Shape" fill="#000000"></path>
    </g>
</svg>