<?xml version="1.0" encoding="UTF-8"?>
<svg width="48px" height="48px" viewBox="0 0 48 48" version="1.1" xmlns="http://www.w3.org/2000/svg" xmlns:xlink="http://www.w3.org/1999/xlink">
    <!-- Generator: Sketch 43.2 (39069) - http://www.bohemiancoding.com/sketch -->
    <title>theicons.co/svg/transport-04</title>
    <desc>Created with Sketch.</desc>
    <defs></defs>
    <g id="The-Icons" stroke="none" stroke-width="1" fill="none" fill-rule="evenodd">
        <path d="M41,34 L41,28 L35.0085302,28 C33.8992496,28 33,27.0980496 33,25.9914698 L33,18.0085302 C33,16.8992496 33.9019504,16 35.0085302,16 L41,16 L41,12 L7,12 L7,34 L7.34141142,34 C7.94398126,32.2951731 9.2951731,30.9439813 11,30.3414114 L11,17.991155 C11,16.8914705 11.8926228,16 12.9950893,16 L27.0049107,16 C28.1067681,16 29,16.8896739 29,17.991155 L29,34 L29.3414114,34 C30.1650842,31.6696153 32.3875623,30 35,30 C37.6124377,30 39.8349158,31.6696153 40.6585886,34 L41,34 Z M18.6585886,38 C17.8349158,40.3303847 15.6124377,42 13,42 C10.3875623,42 8.16508423,40.3303847 7.34141142,38 L4.99749218,38 C3.89430771,38 3,37.1021596 3,36.008383 L3,9.99161703 C3,8.89167732 3.89666034,8 4.99749218,8 L43.0025078,8 C44.1056923,8 45,8.89784041 45,9.99161703 L45,36.008383 C45,37.1083227 44.1033397,38 43.0025078,38 L40.6585886,38 C39.8349158,40.3303847 37.6124377,42 35,42 C32.3875623,42 30.1650842,40.3303847 29.3414114,38 L18.6585886,38 Z M18,32.6822049 L18,20.0070068 L15,20.0100098 L15,30.3414114 C16.2360922,30.7783073 17.2862772,31.6087567 18,32.6822049 Z M25,34 L25,20 L22,20.0030029 L22,34 L25,34 Z M37,20 L37,24 L41,24 L41,20 L37,20 Z M37,36 C37,34.8954305 36.1045695,34 35,34 C33.8954305,34 33,34.8954305 33,36 C33,37.1045695 33.8954305,38 35,38 C36.1045695,38 37,37.1045695 37,36 Z M15,36 C15,34.8954305 14.1045695,34 13,34 C11.8954305,34 11,34.8954305 11,36 C11,37.1045695 11.8954305,38 13,38 C14.1045695,38 15,37.1045695 15,36 Z" id="Combined-Shape" fill="#000000"></path>
    </g>
</svg>