<?xml version="1.0" encoding="UTF-8"?>
<svg width="48px" height="48px" viewBox="0 0 48 48" version="1.1" xmlns="http://www.w3.org/2000/svg" xmlns:xlink="http://www.w3.org/1999/xlink">
    <!-- Generator: Sketch 43.2 (39069) - http://www.bohemiancoding.com/sketch -->
    <title>theicons.co/svg/transport-16</title>
    <desc>Created with Sketch.</desc>
    <defs></defs>
    <g id="The-Icons" stroke="none" stroke-width="1" fill="none" fill-rule="evenodd">
        <path d="M27.5244397,27.9931513 L20.4806804,27.9836586 L18.0959894,33.0921597 C21.7678857,31.6296663 25.8016933,31.5394497 30.0111386,33.3065117 L27.5244397,27.9931513 Z M16,39 C17.0116463,39.3659186 19.9510498,40 24,40 C28.0489502,40 30.9610423,39.4456978 32,39 C30.0150146,36.9869385 26.4979248,36 24,36 C21.5020752,36 18.0112305,37.0076904 16,39 Z M8.00277388,28 C4.68753341,28 2,25.3069658 2,22 C2,18.6862915 4.68616253,16 8.00277388,16 L10.1417777,16 C11.112237,9.21541172 16.9470562,4 24,4 C31.0529438,4 36.887763,9.21541172 37.8582223,16 L39.9972261,16 C43.3124666,16 46,18.6930342 46,22 C46,25.3137085 43.3138375,28 39.9972261,28 L31.8054142,28 L36.7868679,38.2111696 C37.2688299,39.1991134 36.9080824,40.4666793 35.9600854,40.9887643 C35.9600854,40.9887643 31.8694913,44 23.9999168,44 C16.1303423,44 12.0397482,40.9887643 12.0397482,40.9887643 C11.1011668,40.4426848 10.7273721,39.2065575 11.2129657,38.2111696 L16.1944194,28 L8.00277388,28 Z M21,14.0016655 C21,12.3438914 22.3465171,11 24,11 C25.6568542,11 27,12.3390201 27,14.0016655 L27,15.9983345 L33.7999638,16 C32.8734231,11.4355194 28.8379158,8 24,8 C19.1620842,8 15.1265769,11.4355194 14.2000362,16 L21.0000004,16 L21,14.0016655 Z M22,24 C22,22.8944962 22.8877296,22 24,22 C25.1045695,22 26,22.8982606 26,23.9979131 L32,24 C32,22.8944962 32.8877296,22 34,22 C35.1045695,22 36,22.8982606 36,23.9979131 L39.9972261,24 C41.1044976,24 42,23.1047702 42,22 C42,20.8995636 41.1007186,20 39.9972261,20 L8.00277388,20 C6.89550243,20 6,20.8952298 6,22 C6,23.1004364 6.89928141,24 8.00277388,24 L12,24 C12,22.8944962 12.8877296,22 14,22 C15.1045695,22 16,22.8982606 16,23.9979131 L22,24 Z" id="Combined-Shape" fill="#000000"></path>
    </g>
</svg>