<?xml version="1.0" encoding="UTF-8"?>
<svg width="48px" height="48px" viewBox="0 0 48 48" version="1.1" xmlns="http://www.w3.org/2000/svg" xmlns:xlink="http://www.w3.org/1999/xlink">
    <!-- Generator: Sketch 43.2 (39069) - http://www.bohemiancoding.com/sketch -->
    <title>theicons.co/svg/transport-17</title>
    <desc>Created with Sketch.</desc>
    <defs></defs>
    <g id="The-Icons" stroke="none" stroke-width="1" fill="none" fill-rule="evenodd">
        <path d="M16.0000212,24.0000341 L16.0000212,18.001415 C15.6187445,18.0011017 15.278555,18.0006518 14.9955514,18.0000292 C11.0135526,17.9911299 7.79902146,20.0055581 6.55537176,24.0000288 L16.0000212,24.0000341 Z M6.00031968,34.0000341 L7.34143257,34.0000341 C8.16510539,31.6696494 10.3875835,30.0000341 13.0000212,30.0000341 C15.6124588,30.0000341 17.8349369,31.6696494 18.6586097,34.0000341 L29.3414326,34.0000341 C30.1651054,31.6696494 32.3875835,30.0000341 35.0000212,30.0000341 C37.6124588,30.0000341 39.8349369,31.6696494 40.6586097,34.0000341 L42.0000212,34.0000341 L42.0000212,32.0000341 C42.0000212,30.2103761 41.0620897,28.9247307 38.9093903,28.0000341 L6.00002333,28.0000341 C6.0007992,28.5323875 6.00057843,31.8081072 6.00031968,34.0000341 Z M29.2121779,21.9869907 C29.0952418,21.8048031 29.0952418,21.8048031 28.9801857,21.6256614 C27.1807576,18.8275186 26.18183,18.0000341 24.0000212,18.0000341 C23.1109415,18.0000341 21.5879552,18.0009633 20.0000212,18.0015521 L20.0000212,24.0000341 L30.6162722,24.0000341 C30.1688575,23.4294039 29.7108502,22.7631952 29.2121779,21.9869907 Z M46.0000212,32.0000341 L46.0000212,36.0000341 C46.0000212,37.1046036 45.1133148,38.0000341 44.0019198,38.0000341 L40.6586097,38.0000341 C39.8349369,40.3304189 37.6124588,42.0000341 35.0000212,42.0000341 C32.3875835,42.0000341 30.1651054,40.3304189 29.3414326,38.0000341 L18.6586097,38.0000341 C17.8349369,40.3304189 15.6124588,42.0000341 13.0000212,42.0000341 C10.3875835,42.0000341 8.16510539,40.3304189 7.34143257,38.0000341 L4.00594021,38.0000341 C2.89810171,38.0000341 2.00002115,37.1123045 2.00002115,36.0000341 C2.00002115,36.0000341 2.00080262,28.5247317 2.00002339,28.0030214 C1.98659274,19.0110214 7.7599579,13.9838486 15.0044211,14.000039 C17.0399912,14.0045172 22.0451871,14.0000341 24.0000212,14.0000341 C27.9126748,14.0000341 29.8800617,15.6297641 32.3445593,19.4621019 C32.462273,19.6453809 32.462273,19.6453809 32.5775156,19.8249309 C34.0194079,22.0692973 34.7460617,22.7931596 35.9560774,23.0224213 C42.4257693,24.2482338 46.0000212,27.021661 46.0000212,32.0000341 Z M37.0000212,36.0000341 C37.0000212,34.8954646 36.1045907,34.0000341 35.0000212,34.0000341 C33.8954517,34.0000341 33.0000212,34.8954646 33.0000212,36.0000341 C33.0000212,37.1046036 33.8954517,38.0000341 35.0000212,38.0000341 C36.1045907,38.0000341 37.0000212,37.1046036 37.0000212,36.0000341 Z M15.0000212,36.0000341 C15.0000212,34.8954646 14.1045907,34.0000341 13.0000212,34.0000341 C11.8954517,34.0000341 11.0000212,34.8954646 11.0000212,36.0000341 C11.0000212,37.1046036 11.8954517,38.0000341 13.0000212,38.0000341 C14.1045907,38.0000341 15.0000212,37.1046036 15.0000212,36.0000341 Z" id="Combined-Shape" fill="#000000"></path>
    </g>
</svg>