<?xml version="1.0" encoding="UTF-8"?>
<svg width="48px" height="48px" viewBox="0 0 48 48" version="1.1" xmlns="http://www.w3.org/2000/svg" xmlns:xlink="http://www.w3.org/1999/xlink">
    <!-- Generator: Sketch 43.2 (39069) - http://www.bohemiancoding.com/sketch -->
    <title>theicons.co/svg/ui-06</title>
    <desc>Created with Sketch.</desc>
    <defs></defs>
    <g id="The-Icons" stroke="none" stroke-width="1" fill="none" fill-rule="evenodd">
        <path d="M37.0059191,15.0062086 C35.8865548,15.0062086 35,14.1107781 35,13.0062086 C35,11.8939382 35.8980806,11.0062086 37.0059191,11.0062086 L37.8153793,11.0062086 C36.6943832,8.85499763 34.493924,7.95804598 30.0529811,8.0059994 C29.2765298,8.00248953 15,8.00083707 15,8.00083707 L15,24.0160934 C17.5467396,24.158533 20.0459511,25.8267773 21.1145789,28.1365922 L26.8807441,40.6000284 C26.8807441,40.6000284 27.5839836,40.1743969 27.6914837,40.0906234 C28.6478571,39.345334 29.0111424,38.7088916 29.0003713,38.1117755 L29.0002793,37.972784 C29.0161904,37.0208559 28.8221094,35.3482474 28.4087263,33.0072212 C28.3708329,32.7926275 27.7946558,29.8825747 27.7739221,29.7796216 C27.166756,26.7486916 29.4329045,24.0075019 32.5066483,24.0072981 L39.724584,24.0068195 C40.6646013,24.0068196 41.1462981,23.4176599 40.9566742,22.5396449 C40.9490604,22.5086847 40.7949262,21.9087701 40.5623499,21.0062086 L38.0059191,21.0062086 C36.8865548,21.0062086 36,20.1107781 36,19.0062086 C36,17.8939382 36.8980806,17.0062086 38.0059191,17.0062086 L39.5288492,17.0062086 C39.3514898,16.3218044 39.1745814,15.6404311 39.0094027,15.0062086 L37.0059191,15.0062086 Z M7,7.99626162 L6.99922997,24.0062086 L11,24.0062086 L11,7.99989029 L7,7.99626162 Z M6.99922997,4.0062086 C6.99922997,4.0062086 27.1483038,3.99222328 30.0097915,4.00623257 C36.2448072,3.93890671 40.1791206,5.71968328 41.8760724,10.3131339 C42.3316315,11.4877071 44.8520027,21.6076899 44.8738382,21.7208683 C45.5915377,25.0761876 43.205051,28.0068197 39.7248492,28.0068195 L32.5069135,28.0072981 C31.9497943,28.007335 31.586292,28.4462886 31.6951941,28.989922 C31.6951941,28.989922 32.2312735,31.6518369 32.3477854,32.3116543 C32.7837735,34.7806949 33.0217443,36.722009 32.9997207,38.0396332 C33.0372747,40.121513 31.918263,41.8679039 30.1502123,43.2457231 C29.1979808,43.9877849 27.7417626,44.6790113 27.7417626,44.6790113 C26.2253173,45.4438136 24.4087724,44.783289 23.7048898,43.2618626 C23.7048898,43.2618626 17.961731,30.7700023 17.4842734,29.8161404 C17.0068158,28.8622785 15.7565766,28.0062086 14.6479082,28.0062086 L6.99922997,28.0062086 C4.79246765,28.0062086 3,26.219801 3,24.0161556 L3,7.99626162 C3,5.79050188 4.79051625,4.0062086 6.99922997,4.0062086 Z" id="Combined-Shape" fill="#000000"></path>
    </g>
</svg>