<?xml version="1.0" encoding="UTF-8"?>
<svg width="48px" height="48px" viewBox="0 0 48 48" version="1.1" xmlns="http://www.w3.org/2000/svg" xmlns:xlink="http://www.w3.org/1999/xlink">
    <!-- Generator: Sketch 43.2 (39069) - http://www.bohemiancoding.com/sketch -->
    <title>theicons.co/svg/ui-03</title>
    <desc>Created with Sketch.</desc>
    <defs></defs>
    <g id="The-Icons" stroke="none" stroke-width="1" fill="none" fill-rule="evenodd">
        <path d="M8,18 C8,24.2484118 14.1213379,31.8010885 24.0113045,38.2665777 C33.9014502,31.8010885 40,24.4090885 40,18 C40,13.581722 36.418278,10 32,10 C30.0009249,10 28.1261091,10.7307619 26.6676551,12.0361135 L24.7430907,13.7586454 C24.332693,14.1259612 23.6728931,14.1309609 23.2569093,13.7586454 L21.3323449,12.0361135 C19.8738909,10.7307619 17.9990751,10 16,10 C11.581722,10 8,13.581722 8,18 Z M24,9.05557397 C26.123026,7.15541427 28.9265823,6 32,6 C38.627417,6 44,11.372583 44,18 C44,27.6724854 33.9880371,37 24.8492397,42.4726905 C24.3847857,42.7617649 23.6224165,42.7656904 23.1566435,42.4766549 C13.9571533,37.0220947 4,27.6729736 4,18 C4,11.372583 9.372583,6 16,6 C19.0734177,6 21.876974,7.15541427 24,9.05557397 Z" id="Combined-Shape" fill="#000000" fill-rule="nonzero"></path>
    </g>
</svg>