<?xml version="1.0" encoding="UTF-8"?>
<svg width="48px" height="48px" viewBox="0 0 48 48" version="1.1" xmlns="http://www.w3.org/2000/svg" xmlns:xlink="http://www.w3.org/1999/xlink">
    <!-- Generator: Sketch 43.2 (39069) - http://www.bohemiancoding.com/sketch -->
    <title>theicons.co/svg/ui-08</title>
    <desc>Created with Sketch.</desc>
    <defs></defs>
    <g id="The-Icons" stroke="none" stroke-width="1" fill="none" fill-rule="evenodd">
        <path d="M9.85884674,40.5276867 C9.07725561,41.3092778 7.81593116,41.3151629 7.02943725,40.528669 C6.24838867,39.7476204 6.24804073,38.4816384 7.03041961,37.6992595 L9.84424435,34.8854348 C9.26691106,34.4657615 8.70634763,34.0214838 8.16385557,33.554128 C4.48803142,30.3874135 2,26.385585 2,23.5581063 C2,20.7301336 4.48411314,16.7281308 8.15610513,13.5625307 C12.4969785,9.82029241 17.99976,7.55810628 24,7.55810628 C27.8053959,7.55810628 31.4106351,8.46635325 34.6457462,10.083933 L38.1411533,6.58852589 C38.9227444,5.80693476 40.1840688,5.80104962 40.9705627,6.58754353 C41.7516113,7.36859211 41.7519593,8.63457413 40.9695804,9.41695301 L38.1629972,12.2235362 C38.7404008,12.6429401 39.3009158,13.0869669 39.8432405,13.5540933 C43.5175192,16.7188996 46,20.7209009 46,23.5581063 C46,26.3948161 43.5136018,30.396646 39.83549,33.5625651 C35.4943607,37.2991738 29.9925391,39.5581063 24,39.5581063 C20.1990764,39.5581063 16.5955032,38.6476768 13.3597598,37.0267736 L9.85884674,40.5276867 Z M24,35.5581063 C28.9820968,35.5581063 33.5776597,33.6712646 37.2260335,30.5309423 C40.1080046,28.0502979 42,25.0051527 42,23.5581063 C42,22.1089465 40.1113808,19.064308 37.2327482,16.5848243 C36.6125475,16.0506201 35.9648375,15.5526993 35.2923569,15.0941765 L29.415258,20.9712754 C29.7900957,21.7545459 30,22.6318132 30,23.5581063 C30,26.8718148 27.3137085,29.5581063 24,29.5581063 C23.0737069,29.5581063 22.1964396,29.348202 21.4131691,28.9733643 L16.3743842,34.0121492 C18.7461736,35.0097271 21.3171817,35.5581063 24,35.5581063 Z M18.584742,26.1449372 C18.2099043,25.3616666 18,24.4843993 18,23.5581063 C18,20.2443978 20.6862915,17.5581063 24,17.5581063 C24.9262931,17.5581063 25.8035604,17.7680106 26.5868309,18.1428483 L31.630202,13.0994772 C29.2589172,12.1047976 26.6865866,11.5581063 24,11.5581063 C19.0113652,11.5581063 14.4157372,13.4473628 10.7679061,16.592134 C7.89079843,19.0724695 6,22.1186192 6,23.5581063 C6,24.9954801 7.89417932,28.0421381 10.774621,30.5236324 C11.3949476,31.0580424 12.0425452,31.5562056 12.7146702,32.0150089 L18.584742,26.1449372 Z" id="Combined-Shape" fill="#000000"></path>
    </g>
</svg>