<?xml version="1.0" encoding="UTF-8"?>
<svg width="48px" height="48px" viewBox="0 0 48 48" version="1.1" xmlns="http://www.w3.org/2000/svg" xmlns:xlink="http://www.w3.org/1999/xlink">
    <!-- Generator: Sketch 43.2 (39069) - http://www.bohemiancoding.com/sketch -->
    <title>theicons.co/svg/ui-01</title>
    <desc>Created with Sketch.</desc>
    <defs></defs>
    <g id="The-Icons" stroke="none" stroke-width="1" fill="none" fill-rule="evenodd">
        <path d="M40,28.0553585 C40,23.7532806 38.2645042,20.6163454 35.229947,18.0579455 C34.3486719,17.3149528 31.9740554,15.6631676 31.7847555,15.4938513 C29.0242521,13.0247614 27.9681813,10.7328029 28.9931441,6.47265832 C29.3886436,4.82880836 27.6925734,3.46631761 26.1726264,4.20687401 C19.6074383,7.40559886 16.9448853,14.1386108 17.458004,20.1253932 C16.688692,19.0174613 16.1606835,17.5723085 15.9887201,15.8745631 C15.7973419,13.985141 13.3273005,13.401135 12.310034,15.0047903 C9.0951651,20.0728245 8,23.1218608 8,28.0553585 C8,37.013407 15.2114559,44.0761105 24.0229921,44.0761105 C32.8266112,44.0761105 40,37.0182189 40,28.0553585 Z M12,28.0553585 C12,23.9822707 12.8450928,22.536193 13.4325383,21.1458922 C14.9603228,24.1064584 17.460117,26.0404659 19.9890137,26.0404659 C21.2636013,26.0404659 22.2129915,24.8641749 21.9439511,23.6183053 C20.2084753,15.5816801 23.2875366,11.5208126 24.627523,10.2145681 C24.8475972,13.5805222 26.4678322,16.1047938 29.1180765,18.4752642 C29.5372913,18.8502245 31.9767621,20.5471222 32.6516454,21.1161085 C34.8492769,22.968906 36,25.0488557 36,28.0553585 C36,34.7944164 30.6318749,40.0761105 24.0229921,40.0761105 C17.4021495,40.0761105 12,34.7853924 12,28.0553585 Z" id="Path-957-Copy" fill="#000000" fill-rule="nonzero"></path>
    </g>
</svg>