<?xml version="1.0" encoding="UTF-8"?>
<svg width="48px" height="48px" viewBox="0 0 48 48" version="1.1" xmlns="http://www.w3.org/2000/svg" xmlns:xlink="http://www.w3.org/1999/xlink">
    <!-- Generator: Sketch 43.2 (39069) - http://www.bohemiancoding.com/sketch -->
    <title>theicons.co/svg/ui-09</title>
    <desc>Created with Sketch.</desc>
    <defs></defs>
    <g id="The-Icons" stroke="none" stroke-width="1" fill="none" fill-rule="evenodd">
        <path d="M20,31 C20,28.790861 21.790861,27 24,27 C26.209139,27 28,28.790861 28,31 C28,32.4805647 27.1956027,33.7732524 26,34.4648712 L26,36.0018986 C26,37.1054196 25.1122704,38 24,38 C22.8954305,38 22,37.1132936 22,36.0018986 L22,34.4648712 C20.8043973,33.7732524 20,32.4805647 20,31 Z M12,16.0003162 C12,9.37235683 17.3717364,4 24,4 C30.6261936,4 36,9.37555373 36,16.0005127 L36,21.000002 C38.2095333,21.0022923 40,22.7870582 40,25.0062943 L40,39.9937057 C40,42.206321 38.2109725,44 35.9957423,44 L12.0042577,44 C9.79276724,44 8,42.2143671 8,39.9937057 L8,25.0062943 C8,22.7950968 9.78673561,21.0022988 12,21.0000022 L12,16.0003162 Z M16,21 L32,21 L32,16.0005127 C32,11.5844017 28.4167634,8 24,8 C19.5809788,8 16,11.5813924 16,16.0003162 L16,21 Z M12,25 L12,40 L36,40 L36,25 L12,25 Z" id="Combined-Shape" fill="#000000"></path>
    </g>
</svg>