<?xml version="1.0" encoding="UTF-8"?>
<svg width="48px" height="48px" viewBox="0 0 48 48" version="1.1" xmlns="http://www.w3.org/2000/svg" xmlns:xlink="http://www.w3.org/1999/xlink">
    <!-- Generator: Sketch 43.2 (39069) - http://www.bohemiancoding.com/sketch -->
    <title>theicons.co/svg/ui-05</title>
    <desc>Created with Sketch.</desc>
    <defs></defs>
    <g id="The-Icons" stroke="none" stroke-width="1" fill="none" fill-rule="evenodd">
        <path d="M30.0529811,39.9926692 C34.493924,40.0406226 36.6943832,39.1436709 37.8153793,36.99246 L37.0059191,36.99246 C35.8980806,36.99246 35,36.1047303 35,34.99246 C35,33.8878905 35.8865548,32.99246 37.0059191,32.99246 L39.0094027,32.99246 C39.1745814,32.3582375 39.3514898,31.6768642 39.5288492,30.99246 L38.0059191,30.99246 C36.8980806,30.99246 36,30.1047303 36,28.99246 C36,27.8878905 36.8865548,26.99246 38.0059191,26.99246 L40.5623499,26.99246 C40.7949262,26.0898985 40.9490604,25.4899838 40.9566742,25.4590236 C41.1462981,24.5810087 40.6646013,23.991849 39.724584,23.991849 L32.5066483,23.9913705 C29.4329045,23.9911667 27.166756,21.249977 27.7739221,18.2190469 C27.7946558,18.1160938 28.3708329,15.2060411 28.4087263,14.9914474 C28.8221094,12.6504211 29.0161904,10.9778126 29.0002793,10.0258845 L29.0003713,9.88689304 C29.0111424,9.28977692 28.6478571,8.65333461 27.6914837,7.90804512 C27.5839836,7.82427165 26.8807441,7.39864016 26.8807441,7.39864016 L21.1145789,19.8620763 C20.0459511,22.1718913 17.5467396,23.8401356 15,23.9825752 L15,40.0006183 C21.3456066,39.998945 29.2765298,39.996179 30.0529811,39.9926692 Z M11,23.99246 L6.99922997,23.99246 L7,40.002407 C7,40.002407 8.61897667,40.0021235 11,40.0015907 L11,23.99246 Z M6.99922997,43.99246 C4.79051625,43.99246 3,42.2081667 3,40.002407 L3,23.982513 C3,21.7788675 4.79246765,19.99246 6.99922997,19.99246 L14.6479082,19.99246 C15.7565766,19.99246 17.0068158,19.1363901 17.4842734,18.1825282 C17.961731,17.2286663 23.7048898,4.73680601 23.7048898,4.73680601 C24.4087724,3.2153796 26.2253173,2.55485497 27.7417626,3.31965728 C27.7417626,3.31965728 29.1979808,4.01088371 30.1502123,4.75294549 C31.918263,6.13076466 33.0372747,7.87715556 32.9997207,9.95903541 C33.0217443,11.2766595 32.7837735,13.2179737 32.3477854,15.6870143 C32.2312735,16.3468317 31.6951941,19.0087466 31.6951941,19.0087466 C31.586292,19.55238 31.9497943,19.9913336 32.5069135,19.9913705 L39.7248492,19.9918491 C43.205051,19.9918489 45.5915377,22.9224809 44.8738382,26.2778003 C44.8520027,26.3909787 42.3316315,36.5109615 41.8760724,37.6855346 C40.1791206,42.2789853 36.2448072,44.0597619 30.0097915,43.992436 C27.1483038,44.0064453 6.99922997,43.99246 6.99922997,43.99246 Z" id="Combined-Shape" fill="#000000"></path>
    </g>
</svg>