<?xml version="1.0" encoding="UTF-8"?>
<svg width="48px" height="48px" viewBox="0 0 48 48" version="1.1" xmlns="http://www.w3.org/2000/svg" xmlns:xlink="http://www.w3.org/1999/xlink">
    <!-- Generator: Sketch 43.2 (39069) - http://www.bohemiancoding.com/sketch -->
    <title>theicons.co/svg/ui-10</title>
    <desc>Created with Sketch.</desc>
    <defs></defs>
    <g id="The-Icons" stroke="none" stroke-width="1" fill="none" fill-rule="evenodd">
        <path d="M26,31 C26,28.790861 27.790861,27 30,27 C32.209139,27 34,28.790861 34,31 C34,32.4805647 33.1956027,33.7732524 32,34.4648712 L32,36.0018986 C32,37.1054196 31.1122704,38 30,38 C28.8954305,38 28,37.1132936 28,36.0018986 L28,34.4648832 C26.8043973,33.7732524 26,32.4805647 26,31 Z M22,21 L22,16.0005127 C22,11.5844017 18.4167634,8 14,8 C9.58097879,8 6,11.5813924 6,16.0003162 L6,18.9977315 C6,20.1095651 5.1045695,21.0041504 4,21.0041504 C2.88772964,21.0041504 2,20.105846 2,18.9977315 L2,16.0003162 C2,9.37235683 7.37173636,4 14,4 C20.6261936,4 26,9.37555373 26,16.0005127 L26,21 L41.9957423,21 C44.2072328,21 46,22.7856329 46,25.0062943 L46,39.9937057 C46,42.206321 44.2109725,44 41.9957423,44 L18.0042577,44 C15.7927672,44 14,42.2143671 14,39.9937057 L14,25.0062943 C14,22.793679 15.7890275,21 18.0042577,21 L22,21 Z M18,25 L18,40 L42,40 L42,25 L18,25 Z" id="Combined-Shape" fill="#000000"></path>
    </g>
</svg>