<?xml version="1.0" encoding="UTF-8"?>
<svg width="48px" height="48px" viewBox="0 0 48 48" version="1.1" xmlns="http://www.w3.org/2000/svg" xmlns:xlink="http://www.w3.org/1999/xlink">
    <!-- Generator: Sketch 43.2 (39069) - http://www.bohemiancoding.com/sketch -->
    <title>theicons.co/svg/ui-19</title>
    <desc>Created with Sketch.</desc>
    <defs></defs>
    <g id="The-Icons" stroke="none" stroke-width="1" fill="none" fill-rule="evenodd">
        <path d="M25.6529076,11.7522451 L13.8853155,25.4594486 L19.636507,25.4594486 C20.7381937,25.4594486 21.6308898,26.3576707 21.6304038,27.4565003 L21.6261142,37.1538502 L33.4094854,23.4594486 L27.6343665,23.4594486 C26.5280963,23.4594486 25.6329478,22.5602432 25.6349793,21.4602107 L25.6529076,11.7522451 Z M29.6312872,19.4594486 L38.0940786,19.4594486 C40.3022066,19.4594486 40.928901,20.8138345 39.4860861,22.4935808 L21.5410196,43.385492 C19.381734,45.8993641 17.6312872,45.2581368 17.6312872,41.9326465 L17.6312872,29.4594486 L9.16849579,29.4594486 C6.96036773,29.4594486 6.33367337,28.1050627 7.77648822,26.4253164 L25.7215547,5.53340522 C27.8808403,3.01953307 29.6312872,3.66076042 29.6312872,6.98625073 L29.6312872,19.4594486 Z" id="Combined-Shape" fill="#000000" fill-rule="nonzero"></path>
    </g>
</svg>