<?xml version="1.0" encoding="UTF-8"?>
<svg width="48px" height="48px" viewBox="0 0 48 48" version="1.1" xmlns="http://www.w3.org/2000/svg" xmlns:xlink="http://www.w3.org/1999/xlink">
    <!-- Generator: Sketch 43.2 (39069) - http://www.bohemiancoding.com/sketch -->
    <title>theicons.co/svg/ui-14</title>
    <desc>Created with Sketch.</desc>
    <defs></defs>
    <g id="The-Icons" stroke="none" stroke-width="1" fill="none" fill-rule="evenodd">
        <path d="M36,14.8284271 L36,23 C37.6568542,23 39,24.3431458 39,26 C39,27.6568542 37.6568542,29 36,29 L35.6291277,29 C34.4676831,33.5562522 30.696563,37.046901 26,37.8342164 L26,42 L22,42 L22,37.8338782 C19.6894557,37.4458099 17.602269,36.3968782 15.9397473,34.8886798 L9.41421356,41.4142136 C8.63316498,42.1952621 7.36683502,42.1952621 6.58578644,41.4142136 C5.80473785,40.633165 5.80473785,39.366835 6.58578644,38.5857864 L13.4496052,31.7219677 C12.9833158,30.8646508 12.6185964,29.9671222 12.3716238,29 L12,29 C10.3431458,29 9,27.6568542 9,26 C9,24.3431458 10.3431458,23 12,23 L12,13.9933717 C12,7.36893686 17.3720473,2 24,2 C29.1829584,2 33.6015564,5.29072823 35.2790122,9.89256068 L38.5857864,6.58578644 C39.366835,5.80473785 40.633165,5.80473785 41.4142136,6.58578644 C42.1952621,7.36683502 42.1952621,8.63316498 41.4142136,9.41421356 L36,14.8284271 Z M31.1715729,14 L27.9981014,14 C26.8867064,14 26,13.1045695 26,12 C26,10.8877296 26.8945804,10 27.9981014,10 L30.9294717,10 C29.5456452,7.61042082 26.9593526,6 24,6 C21.0367655,6 18.4505879,7.60890821 17.0680686,10 L20.0018986,10 C21.1054196,10 22,10.8877296 22,12 C22,13.1045695 21.1132936,14 20.0018986,14 L16,14 L16,16 L20.0018986,16 C21.1054196,16 22,16.8877296 22,18 C22,19.1045695 21.1132936,20 20.0018986,20 L16,20 L16,26.0066283 C16,26.9526559 16.1650619,27.8607388 16.4679711,28.7036018 L31.1715729,14 Z M24,34 C28.4193321,34 32,30.4214054 32,26.0066283 L32,18.8284271 L18.7732309,32.0551963 C20.1756419,33.2665701 22.0028701,34 24,34 Z M14,44 C14,42.8954305 14.8982124,42 15.9907951,42 L32.0092049,42 C33.1086907,42 34,42.8877296 34,44 C34,45.1045695 33.1017876,46 32.0092049,46 L15.9907951,46 C14.8913093,46 14,45.1122704 14,44 Z" id="Combined-Shape" fill="#000000"></path>
    </g>
</svg>