<?xml version="1.0" encoding="UTF-8"?>
<svg width="48px" height="48px" viewBox="0 0 48 48" version="1.1" xmlns="http://www.w3.org/2000/svg" xmlns:xlink="http://www.w3.org/1999/xlink">
    <!-- Generator: Sketch 43.2 (39069) - http://www.bohemiancoding.com/sketch -->
    <title>theicons.co/svg/ui-26</title>
    <desc>Created with Sketch.</desc>
    <defs></defs>
    <g id="The-Icons" stroke="none" stroke-width="1" fill="none" fill-rule="evenodd">
        <path d="M15.0626067,11.4177693 C15.8469865,10.6333895 15.8551324,9.36980433 15.0686385,8.58331042 C14.2875899,7.80226184 13.0166497,7.80687207 12.2341796,8.58934218 L6.58938885,14.2341329 C6.19383626,14.6296855 5.99972205,15.1410506 6.00004707,15.6529052 C5.99652075,16.1654485 6.1911169,16.6763516 6.58335709,17.0685918 C6.5873786,17.0726112 12.2341796,22.7194143 12.2341796,22.7194143 C13.0185594,23.5037941 14.2821445,23.51194 15.0686385,22.725446 C15.849687,21.9443975 15.8450768,20.6734573 15.0626067,19.8909872 L12.8259978,17.6543782 L37.968465,17.6543782 C39.0734025,17.6543782 39.9691313,16.7666486 39.9691313,15.6543782 C39.9691313,14.5498087 39.073696,13.6543782 37.968465,13.6543782 L12.8259978,13.6543782 L15.0626067,11.4177693 Z M9.97087463,29.6543782 C8.85839304,29.6543782 7.96913132,30.5498087 7.96913132,31.6543782 C7.96913132,32.7666486 8.86534233,33.6543782 9.97087463,33.6543782 L35.1828642,33.6543782 L32.9462553,35.8909872 C32.1637852,36.6734573 32.159175,37.9443975 32.9402235,38.725446 C33.7267175,39.51194 34.9903026,39.5037941 35.7746824,38.7194143 C35.7746824,38.7194143 41.4214834,33.0726112 41.4255049,33.0685918 C41.8177451,32.6763516 42.0123412,32.1654485 42.0088149,31.6529052 C42.00914,31.1410506 41.8150257,30.6296855 41.4194732,30.2341329 L35.7746824,24.5893422 C34.9922123,23.8068721 33.7212721,23.8022618 32.9402235,24.5833104 C32.1537296,25.3698043 32.1618755,26.6333895 32.9462553,27.4177693 L35.1828642,29.6543782 L9.97087463,29.6543782 Z" id="Rectangle-586" fill="#000000"></path>
    </g>
</svg>