<?xml version="1.0" encoding="UTF-8"?>
<svg width="48px" height="48px" viewBox="0 0 48 48" version="1.1" xmlns="http://www.w3.org/2000/svg" xmlns:xlink="http://www.w3.org/1999/xlink">
    <!-- Generator: Sketch 43.2 (39069) - http://www.bohemiancoding.com/sketch -->
    <title>theicons.co/svg/ui-29</title>
    <desc>Created with Sketch.</desc>
    <defs></defs>
    <g id="The-Icons" stroke="none" stroke-width="1" fill="none" fill-rule="evenodd">
        <path d="M24.3323808,24 L28.6814866,16.7514903 C28.8883866,16.4066569 29.5948719,16.0071036 29.9818958,16 L35.1590537,16 L32.5858008,18.5857721 C31.8047443,19.3668127 31.8047314,20.6331426 32.5857721,21.4141992 C33.3668127,22.1952557 34.6331426,22.1952686 35.4141992,21.4142279 L41.4141992,15.41435 C42.1952557,14.6333094 42.1952686,13.3669794 41.4142279,12.5859229 L35.4142279,6.58580082 C34.6331873,5.8047443 33.3668574,5.80473141 32.5858008,6.58577205 C31.8047443,7.36681269 31.8047314,8.63314265 32.5857721,9.41419918 L35.1908187,12.0319196 L29.9996624,12.0088621 C28.1986184,12.0008625 26.1832136,13.1406761 25.2515149,14.6935073 L22,20.1126987 L18.7484851,14.6935073 C17.8116911,13.1321839 15.8119149,12 14.000385,12 L6,12 C4.8954305,12 4,12.8954305 4,14 C4,15.1045695 4.8954305,16 6,16 L14.000385,16 C14.4069038,16 15.1046331,16.3950232 15.3185134,16.7514903 L19.6676192,24 L15.3185134,31.2485097 C15.1046331,31.6049768 14.4069038,32 14.000385,32 L6,32 C4.8954305,32 4,32.8954305 4,34 C4,35.1045695 4.8954305,36 6,36 L14.000385,36 C15.8119149,36 17.8116911,34.8678161 18.7484851,33.3064927 L22,27.8873013 L25.2515149,33.3064927 C26.1832136,34.8593239 28.1986184,35.9991375 29.9996624,35.9911379 L35.1628148,35.9962206 L32.5858008,38.5857721 C31.8047443,39.3668127 31.8047314,40.6331426 32.5857721,41.4141992 C33.3668127,42.1952557 34.6331426,42.1952686 35.4141992,41.4142279 L41.4141992,35.41435 C42.1952557,34.6333094 42.1952686,33.3669794 41.4142279,32.5859229 L35.4142279,26.5858008 C34.6331873,25.8047443 33.3668574,25.8047314 32.5858008,26.5857721 C31.8047443,27.3668127 31.8047314,28.6331426 32.5857721,29.4141992 L35.1553193,31.9962475 L29.9818958,31.9911773 C29.5948719,31.9928964 28.8883866,31.5933431 28.6814866,31.2485097 L24.3323808,24 Z" id="Combined-Shape" fill="#000000"></path>
    </g>
</svg>