<?xml version="1.0" encoding="UTF-8"?>
<svg width="48px" height="48px" viewBox="0 0 48 48" version="1.1" xmlns="http://www.w3.org/2000/svg" xmlns:xlink="http://www.w3.org/1999/xlink">
    <!-- Generator: Sketch 43.2 (39069) - http://www.bohemiancoding.com/sketch -->
    <title>theicons.co/svg/ui-28</title>
    <desc>Created with Sketch.</desc>
    <defs></defs>
    <g id="The-Icons" stroke="none" stroke-width="1" fill="none" fill-rule="evenodd">
        <path d="M16.5055573,9.41419918 C15.7245167,8.63314265 15.7245296,7.36681269 16.5055861,6.58577205 C17.2866426,5.80473141 18.5529726,5.8047443 19.3340132,6.58580082 L25.3340132,12.5859229 C26.1150539,13.3669794 26.115041,14.6333094 25.3339845,15.41435 L19.3339845,21.4142279 C18.5529279,22.1952686 17.286598,22.1952557 16.5055573,21.4141992 C15.7245167,20.6331426 15.7245296,19.3668127 16.5055861,18.5857721 L19.078839,16 L16.9967995,16 C12.0323496,16 8,20.0318194 8,25 C8,29.6636809 12.1863341,34 15.9945935,34 C17.099163,34 17.9945935,34.8954305 17.9945935,36 C17.9945935,37.1045695 17.099163,38 15.9945935,38 C9.94507616,38 4,31.8419279 4,25 C4,17.8225626 9.82332831,12 16.9967995,12 L19.0788389,12 L16.5055573,9.41419918 Z M31.3340132,40.5858008 C32.1150539,41.3668574 32.115041,42.6331873 31.3339845,43.4142279 C30.5529279,44.1952686 29.286598,44.1952557 28.5055573,43.4141992 L22.5055573,37.4140771 C21.7245167,36.6330206 21.7245296,35.3666906 22.5055861,34.58565 L28.5055861,28.5857721 C29.2866426,27.8047314 30.5529726,27.8047443 31.3340132,28.5858008 C32.1150539,29.3668574 32.115041,30.6331873 31.3339845,31.4142279 L28.7607316,34 L30.9229858,34 C35.8874357,34 39.9197853,29.9681806 39.9197853,25 C39.9197853,20.3363191 35.7334512,16 31.9251917,16 C30.8206222,16 29.9251917,15.1045695 29.9251917,14 C29.9251917,12.8954305 30.8206222,12 31.9251917,12 C37.9747091,12 43.9197853,18.1580721 43.9197853,25 C43.9197853,32.1774374 38.096457,38 30.9229858,38 L28.7607317,38 L31.3340132,40.5858008 Z" id="Combined-Shape" fill="#000000"></path>
    </g>
</svg>