<?xml version="1.0" encoding="UTF-8"?>
<svg width="48px" height="48px" viewBox="0 0 48 48" version="1.1" xmlns="http://www.w3.org/2000/svg" xmlns:xlink="http://www.w3.org/1999/xlink">
    <!-- Generator: Sketch 43.2 (39069) - http://www.bohemiancoding.com/sketch -->
    <title>theicons.co/svg/ui-24</title>
    <desc>Created with Sketch.</desc>
    <defs></defs>
    <g id="The-Icons" stroke="none" stroke-width="1" fill="none" fill-rule="evenodd">
        <path d="M24,21.1715729 L28.9560018,16.215571 C29.7348665,15.4367063 30.997126,15.4407768 31.7781746,16.2218254 C32.5646685,17.0083193 32.5620233,18.2664038 31.784429,19.0439982 L26.8284271,24 L31.784429,28.9560018 C32.5620233,29.7335962 32.5646685,30.9916807 31.7781746,31.7781746 C30.997126,32.5592232 29.7348665,32.5632937 28.9560018,31.784429 L24,26.8284271 L19.0439982,31.784429 C18.2651335,32.5632937 17.002874,32.5592232 16.2218254,31.7781746 C15.4353315,30.9916807 15.4379767,29.7335962 16.215571,28.9560018 L21.1715729,24 L16.215571,19.0439982 C15.4379767,18.2664038 15.4353315,17.0083193 16.2218254,16.2218254 C17.002874,15.4407768 18.2651335,15.4367063 19.0439982,16.215571 L24,21.1715729 Z M24,44 C12.954305,44 4,35.045695 4,24 C4,12.954305 12.954305,4 24,4 C35.045695,4 44,12.954305 44,24 C44,35.045695 35.045695,44 24,44 Z M24,40 C32.836556,40 40,32.836556 40,24 C40,15.163444 32.836556,8 24,8 C15.163444,8 8,15.163444 8,24 C8,32.836556 15.163444,40 24,40 Z" id="Combined-Shape-Copy-5" fill="#000000"></path>
    </g>
</svg>