<?xml version="1.0" encoding="UTF-8"?>
<svg width="48px" height="48px" viewBox="0 0 48 48" version="1.1" xmlns="http://www.w3.org/2000/svg" xmlns:xlink="http://www.w3.org/1999/xlink">
    <!-- Generator: Sketch 43.2 (39069) - http://www.bohemiancoding.com/sketch -->
    <title>theicons.co/svg/ui-22</title>
    <desc>Created with Sketch.</desc>
    <defs></defs>
    <g id="The-Icons" stroke="none" stroke-width="1" fill="none" fill-rule="evenodd">
        <path d="M22,22 L22,15.9907951 C22,14.8913093 22.8877296,14 24,14 C25.1045695,14 26,14.8982124 26,15.9907951 L26,22 L32.0092049,22 C33.1086907,22 34,22.8877296 34,24 C34,25.1045695 33.1017876,26 32.0092049,26 L26,26 L26,32.0092049 C26,33.1086907 25.1122704,34 24,34 C22.8954305,34 22,33.1017876 22,32.0092049 L22,26 L15.9907951,26 C14.8913093,26 14,25.1122704 14,24 C14,22.8954305 14.8982124,22 15.9907951,22 L22,22 Z M24,44 C12.954305,44 4,35.045695 4,24 C4,12.954305 12.954305,4 24,4 C35.045695,4 44,12.954305 44,24 C44,35.045695 35.045695,44 24,44 Z M24,40 C32.836556,40 40,32.836556 40,24 C40,15.163444 32.836556,8 24,8 C15.163444,8 8,15.163444 8,24 C8,32.836556 15.163444,40 24,40 Z" id="Combined-Shape" fill="#000000"></path>
    </g>
</svg>