<?xml version="1.0" encoding="UTF-8"?>
<svg width="48px" height="48px" viewBox="0 0 48 48" version="1.1" xmlns="http://www.w3.org/2000/svg" xmlns:xlink="http://www.w3.org/1999/xlink">
    <!-- Generator: Sketch 43.2 (39069) - http://www.bohemiancoding.com/sketch -->
    <title>theicons.co/svg/ui-27</title>
    <desc>Created with Sketch.</desc>
    <defs></defs>
    <g id="The-Icons" stroke="none" stroke-width="1" fill="none" fill-rule="evenodd">
        <path d="M27.4205327,15.0626067 C26.6380625,15.8450768 25.3671224,15.849687 24.5860738,15.0686385 C23.7995799,14.2821445 23.8077257,13.0185594 24.5921055,12.2341796 C24.5921055,12.2341796 30.2389086,6.5873786 30.242928,6.58335709 C30.6351682,6.1911169 31.1460713,5.99652075 31.6586146,6.00004707 C32.1704692,5.99972205 32.6818343,6.19383626 33.0773869,6.58938885 L38.7221776,12.2341796 C39.5046477,13.0166497 39.509258,14.2875899 38.7282094,15.0686385 C37.9417155,15.8551324 36.6781303,15.8469865 35.8937505,15.0626067 L33.6204602,12.8259978 L33.6204602,37.968465 C33.6204602,39.073696 32.7617111,39.9691313 31.6571416,39.9691313 C30.5448712,39.9691313 29.6204602,39.0734025 29.6204602,37.968465 L29.6571416,12.8259978 L27.4205327,15.0626067 Z M17.6204602,9.97087463 C17.6204602,8.85839304 16.7617111,7.96913132 15.6571416,7.96913132 C14.5448712,7.96913132 13.6204602,8.86534233 13.6204602,9.97087463 L13.6204602,35.1828642 L11.4205327,32.9462553 C10.6380625,32.1637852 9.36712235,32.159175 8.58607377,32.9402235 C7.79957986,33.7267175 7.8077257,34.9903026 8.59210553,35.7746824 C8.59210553,35.7746824 14.2389086,41.4214834 14.242928,41.4255049 C14.6351682,41.8177451 15.1460713,42.0123412 15.6586146,42.0088149 C16.1704692,42.00914 16.6818343,41.8150257 17.0773869,41.4194732 L22.7221776,35.7746824 C23.5046477,34.9922123 23.509258,33.7212721 22.7282094,32.9402235 C21.9417155,32.1537296 20.6781303,32.1618755 19.8937505,32.9462553 L17.6571416,35.1828642 L17.6204602,9.97087463 Z" id="Rectangle-586" fill="#000000"></path>
    </g>
</svg>