<?xml version="1.0" encoding="UTF-8"?>
<svg width="48px" height="48px" viewBox="0 0 48 48" version="1.1" xmlns="http://www.w3.org/2000/svg" xmlns:xlink="http://www.w3.org/1999/xlink">
    <!-- Generator: Sketch 43.2 (39069) - http://www.bohemiancoding.com/sketch -->
    <title>theicons.co/svg/ui-20</title>
    <desc>Created with Sketch.</desc>
    <defs></defs>
    <g id="The-Icons" stroke="none" stroke-width="1" fill="none" fill-rule="evenodd">
        <path d="M4,40.0002927 L4,7.99970728 C4,5.78969516 5.78635264,4 7.99970728,4 L40.0002927,4 C42.2103048,4 44,5.78635264 44,7.99970728 L44,40.0002927 C44,42.2103048 42.2136474,44 40.0002927,44 L7.99970728,44 C5.78969516,44 4,42.2136474 4,40.0002927 Z M40.0002927,8 L8,7.99970728 L7.99970728,40 L40,40.0002927 L40.0002927,8 Z M19.5857864,31.4142136 L13.5857864,25.4142136 C12.8047379,24.633165 12.8047379,23.366835 13.5857864,22.5857864 C14.366835,21.8047379 15.633165,21.8047379 16.4142136,22.5857864 L21,27.1997391 L30.5857864,17.5857864 C31.366835,16.8047379 32.633165,16.8047379 33.4142136,17.5857864 C34.1952621,18.366835 34.1952621,19.633165 33.4142136,20.4142136 L22.4142136,31.4142136 C21.633165,32.1952621 20.366835,32.1952621 19.5857864,31.4142136 Z" id="Combined-Shape" fill="#000000"></path>
    </g>
</svg>