<?xml version="1.0" encoding="UTF-8"?>
<svg width="48px" height="48px" viewBox="0 0 48 48" version="1.1" xmlns="http://www.w3.org/2000/svg" xmlns:xlink="http://www.w3.org/1999/xlink">
    <!-- Generator: Sketch 43.2 (39069) - http://www.bohemiancoding.com/sketch -->
    <title>theicons.co/svg/ui-21</title>
    <desc>Created with Sketch.</desc>
    <defs></defs>
    <g id="The-Icons" stroke="none" stroke-width="1" fill="none" fill-rule="evenodd">
        <path d="M24,44 C12.954305,44 4,35.045695 4,24 C4,12.954305 12.954305,4 24,4 C35.045695,4 44,12.954305 44,24 C44,35.045695 35.045695,44 24,44 Z M24,40 C32.836556,40 40,32.836556 40,24 C40,15.163444 32.836556,8 24,8 C15.163444,8 8,15.163444 8,24 C8,32.836556 15.163444,40 24,40 Z M19.5857864,31.4142136 L13.5857864,25.4142136 C12.8047379,24.633165 12.8047379,23.366835 13.5857864,22.5857864 C14.366835,21.8047379 15.633165,21.8047379 16.4142136,22.5857864 L21,27.1997391 L30.5857864,17.5857864 C31.366835,16.8047379 32.633165,16.8047379 33.4142136,17.5857864 C34.1952621,18.366835 34.1952621,19.633165 33.4142136,20.4142136 L22.4142136,31.4142136 C21.633165,32.1952621 20.366835,32.1952621 19.5857864,31.4142136 Z" id="Combined-Shape" fill="#000000"></path>
    </g>
</svg>