<?xml version="1.0" encoding="UTF-8"?>
<svg width="48px" height="48px" viewBox="0 0 48 48" version="1.1" xmlns="http://www.w3.org/2000/svg" xmlns:xlink="http://www.w3.org/1999/xlink">
    <!-- Generator: Sketch 43.2 (39069) - http://www.bohemiancoding.com/sketch -->
    <title>theicons.co/svg/ui-25</title>
    <desc>Created with Sketch.</desc>
    <defs></defs>
    <g id="The-Icons" stroke="none" stroke-width="1" fill="none" fill-rule="evenodd">
        <path d="M26,31 L27.000385,31 C28.1047419,31 29,31.8877296 29,33 C29,34.1045695 28.1125667,35 27.000385,35 L20.999615,35 C19.8952581,35 19,34.1122704 19,33 C19,31.8954305 19.8874333,31 20.999615,31 L22,31 L22,25 L21.0059191,25 C19.8980806,25 19,24.1122704 19,23 C19,21.8954305 19.8865548,21 21.0059191,21 L23.9940809,21 C24.551312,21 25.0505233,21.2234757 25.4122999,21.5852139 C25.7762782,21.9456445 26,22.4448545 26,23 L26,31 Z M24,44 C12.954305,44 4,35.045695 4,24 C4,12.954305 12.954305,4 24,4 C35.045695,4 44,12.954305 44,24 C44,35.045695 35.045695,44 24,44 Z M24,40 C32.836556,40 40,32.836556 40,24 C40,15.163444 32.836556,8 24,8 C15.163444,8 8,15.163444 8,24 C8,32.836556 15.163444,40 24,40 Z M24,19 C22.3431458,19 21,17.6568542 21,16 C21,14.3431458 22.3431458,13 24,13 C25.6568542,13 27,14.3431458 27,16 C27,17.6568542 25.6568542,19 24,19 Z" id="Combined-Shape" fill="#000000"></path>
    </g>
</svg>