<?xml version="1.0" encoding="UTF-8"?>
<svg width="48px" height="48px" viewBox="0 0 48 48" version="1.1" xmlns="http://www.w3.org/2000/svg" xmlns:xlink="http://www.w3.org/1999/xlink">
    <!-- Generator: Sketch 43.2 (39069) - http://www.bohemiancoding.com/sketch -->
    <title>theicons.co/svg/ui-31</title>
    <desc>Created with Sketch.</desc>
    <defs></defs>
    <g id="The-Icons" stroke="none" stroke-width="1" fill="none" fill-rule="evenodd">
        <path d="M13.7351864,39.047436 C8.96499232,35.117338 6.03623121,30.0091149 6.00001297,23.9943884 C6.02224192,17.3697537 6.00059102,6.09693651 6.00004525,6.01429665 C5.9913481,4.69630691 7.23766161,3.73041438 8.51179542,4.06769115 C8.55915528,4.08022781 11.2240009,4.73761058 13.1681155,5.02932652 C16.747883,5.56647351 20.4288077,6.00109933 24.0000017,6.00109933 C27.5972171,6.00109933 31.2781418,5.56647351 34.8579094,5.02932652 C36.8020239,4.73761058 39.4668695,4.08022781 39.5142294,4.06769115 C40.7883632,3.73041438 42.0346767,4.69630691 42.0259796,6.01429665 C42.0254338,6.09693651 42.0037829,17.3697537 42.0260118,23.9943884 C41.9897936,30.0091149 39.0610325,35.117338 34.2908384,39.047436 C30.7734472,41.9453667 26.2676855,44.0304386 24,44.00093 C21.7583394,44.0304386 17.2525776,41.9453667 13.7351864,39.047436 Z M12.4583149,9.01837206 C11.5857973,8.89428176 10.8016041,8.66972622 10.0000017,8.51203409 C10.0000019,9.2753911 10.0222493,17.3742527 9.99996528,23.989027 C10.0282197,28.6698161 12.3544638,32.7271541 16.278672,35.9602559 C17.8299011,37.2382924 19.5537267,38.30907 21.2024094,39.0720092 C22.4937754,39.6695976 23.6189519,40.0058885 24.0000017,40.0012686 C24.4070729,40.0058885 25.5322495,39.6695976 26.8236154,39.0720092 C28.4722982,38.30907 30.1961237,37.2382924 31.7473528,35.9602559 C35.671561,32.7271541 37.9978051,28.6698161 38.0260595,23.989027 C38.0037755,17.3742527 38.0260229,9.2753911 38.0260231,8.51203409 C37.2244207,8.66972622 36.4402275,8.89428176 35.5677099,9.01837206 C31.7473526,9.56170702 27.8438367,10.0010993 24.0000017,10.0010993 C20.1821881,10.0010993 16.2786722,9.56170702 12.4583149,9.01837206 Z M29.1483917,15.2091074 C29.9272564,14.4302426 31.1895159,14.4343131 31.9705645,15.2153617 C32.7570584,16.0018556 32.7544132,17.2599401 31.9768188,18.0375345 L26.9208414,23.0935119 L31.7768676,27.9495381 C32.554462,28.7271325 32.5571072,29.985217 31.7706133,30.7717109 C30.9895647,31.5527595 29.7273052,31.55683 28.9484405,30.7779653 L24.0924143,25.921939 L19.236388,30.7779653 C18.4575233,31.55683 17.1952639,31.5527595 16.4142153,30.7717109 C15.6277214,29.985217 15.6303665,28.7271325 16.4079609,27.9495381 L21.2639872,23.0935119 L16.2080097,18.0375345 C15.4304153,17.2599401 15.4277702,16.0018556 16.2142641,15.2153617 C16.9953127,14.4343131 18.2575721,14.4302426 19.0364369,15.2091074 L24.0924143,20.2650848 L29.1483917,15.2091074 Z" id="Combined-Shape" fill="#000000"></path>
    </g>
</svg>