<?xml version="1.0" encoding="UTF-8"?>
<svg width="48px" height="48px" viewBox="0 0 48 48" version="1.1" xmlns="http://www.w3.org/2000/svg" xmlns:xlink="http://www.w3.org/1999/xlink">
    <!-- Generator: Sketch 43.2 (39069) - http://www.bohemiancoding.com/sketch -->
    <title>theicons.co/svg/ui-32</title>
    <desc>Created with Sketch.</desc>
    <defs></defs>
    <g id="The-Icons" stroke="none" stroke-width="1" fill="none" fill-rule="evenodd">
        <path d="M13.7295986,39.0463501 C8.96285044,35.1163739 6.03620504,30.008309 6.00001296,23.9937689 C6.02222586,17.3693395 6.00059059,6.09687155 6.00004522,6.01423424 C5.99135435,4.69628534 7.23676754,3.73042273 8.50998092,4.06768905 C8.55730657,4.08022532 11.2202272,4.73758773 13.1629373,5.02929463 C16.7401189,5.56642498 20.4183845,6.00103733 23.9869987,6.00103733 C27.5816155,6.00103733 31.2598811,5.56642498 34.8370627,5.02929463 C36.7797728,4.73758773 39.4426934,4.08022532 39.4900191,4.06768905 C40.7632325,3.73042273 42.0086456,4.69628534 41.9999548,6.01423424 C41.9994094,6.09687155 41.9777741,17.3693395 41.999987,23.9937689 C41.963795,30.008309 39.0371496,35.1163739 34.2704014,39.0463501 C30.7555511,41.9441911 26.2530443,44.0291984 23.986997,43.9996907 C21.7469557,44.0291984 17.2444489,41.9441911 13.7295986,39.0463501 Z M26.6334067,25.6813537 L18.7630081,19.5794098 C17.9301926,18.9313129 17.7442203,17.7470552 18.33825,16.8745807 L23.0244195,9.9918213 C19.5175702,9.92640556 15.9507442,9.51592094 12.4536495,9.01821658 C11.5817622,8.89413012 10.7981355,8.66958155 9.99711215,8.5118943 C9.99711235,9.27522766 10.0193437,17.3738383 9.99707574,23.9884077 C10.0253098,28.6690518 12.3498734,32.7262641 16.2712468,35.9592657 C17.8213553,37.2372626 19.5439356,38.3080071 21.1914274,39.0709226 C21.4303237,39.18155 21.6635285,39.2832224 21.8873773,39.3754345 L26.6334067,25.6813537 Z M22.7010321,17.5706132 L30.2116087,23.4217044 C30.8875524,23.9477236 31.1535247,24.8461992 30.8729492,25.6557651 L26.1189828,39.3727469 C26.3409988,39.281248 26.5719949,39.1804764 26.8085726,39.0709226 C28.4560644,38.3080071 30.1786447,37.2372626 31.7287532,35.9592657 C35.6501266,32.7262641 37.9746902,28.6690518 38.0029243,23.9884077 C37.9806563,17.3738383 38.0028877,9.27522766 38.0028878,8.5118943 C37.2018645,8.66958155 36.4182378,8.89413012 35.5463505,9.01821658 C33.0369953,9.37534647 30.4917366,9.68756829 27.9511112,9.85961781 L22.7010321,17.5706132 Z" id="Combined-Shape" fill="#000000"></path>
    </g>
</svg>