<?xml version="1.0" encoding="UTF-8"?>
<svg width="48px" height="48px" viewBox="0 0 48 48" version="1.1" xmlns="http://www.w3.org/2000/svg" xmlns:xlink="http://www.w3.org/1999/xlink">
    <!-- Generator: Sketch 43.2 (39069) - http://www.bohemiancoding.com/sketch -->
    <title>theicons.co/svg/ui-39</title>
    <desc>Created with Sketch.</desc>
    <defs></defs>
    <g id="The-Icons" stroke="none" stroke-width="1" fill="none" fill-rule="evenodd">
        <path d="M21.2173005,24.6543889 C21.6495735,24.998524 22,25.7220683 22,26.2785911 L22,37.7686799 L26,35.6036983 L26,26.2676199 C26,25.7207921 26.3460687,25.0019928 26.7826982,24.6543889 L35.1413564,18 L12.8586274,18 L21.2173005,24.6543889 Z M39.999976,14 L40,9.99582624 L8.00002553,10 L8.00005685,14 L39.999976,14 Z M30,36.0054385 C30,37.1070044 29.2126465,38.4252898 28.2422456,38.9494527 L21.519314,42.5808507 C19.5756505,43.6307224 18,42.6998281 18,40.4857202 L18,27.2 L5.56936646,17.2554932 C4.7026293,16.5621034 4,15.0980496 4,13.9914698 L4,9.99582624 C4,7.78899235 5.79642476,6 8.00002553,6 L39.9999745,6 C42.2091276,6 44,7.79652125 44,9.99582624 L44,13.9914698 C44,15.1007504 43.2999164,16.5600668 42.4306335,17.2554932 L30,27.2 L30,36.0054385 Z" id="Combined-Shape" fill="#000000"></path>
    </g>
</svg>