<?xml version="1.0" encoding="UTF-8"?>
<svg width="48px" height="48px" viewBox="0 0 48 48" version="1.1" xmlns="http://www.w3.org/2000/svg" xmlns:xlink="http://www.w3.org/1999/xlink">
    <!-- Generator: Sketch 43.2 (39069) - http://www.bohemiancoding.com/sketch -->
    <title>theicons.co/svg/ui-35</title>
    <desc>Created with Sketch.</desc>
    <defs></defs>
    <g id="The-Icons" stroke="none" stroke-width="1" fill="none" fill-rule="evenodd">
        <path d="M36.0020869,21.9846662 L32,21.9846662 C30.8954305,21.9846662 30,21.0892357 30,19.9846662 C30,18.8800967 30.8954305,17.9846662 32,17.9846662 L36.0020869,17.9846662 C38.211767,17.9846662 40,19.7788119 40,21.9896128 L40,39.9797196 C40,42.1869167 38.2093421,43.9846662 36.0087557,43.9846662 L11.9912443,43.9846662 C9.7837429,43.9846662 8,42.1890319 8,39.9797196 L8,21.9896128 C8,19.7800347 9.79139872,17.9846662 11.9979131,17.9846662 L16,17.9846662 C17.1045695,17.9846662 18,18.8800967 18,19.9846662 C18,21.0892357 17.1045695,21.9846662 16,21.9846662 C16,21.9846662 12,21.9871941 12,21.9896128 C12,21.9896128 11.9988533,39.9846662 11.9912443,39.9846662 C11.9912443,39.9846662 36,39.9813092 36,39.9797196 C36,39.9797196 35.9996668,21.9846662 36.0020869,21.9846662 Z M19.7710954,13.0626067 C18.9886253,13.8450768 17.7176851,13.849687 16.9366366,13.0686385 C16.1501426,12.2821445 16.1582885,11.0185594 16.9426683,10.2341796 C16.9426683,10.2341796 22.5894714,4.5873786 22.5934908,4.58335709 C22.985731,4.1911169 23.4966341,3.99652075 24.0091774,4.00004707 C24.521032,3.99972205 25.0323971,4.19383626 25.4279497,4.58938885 L31.0727404,10.2341796 C31.8552105,11.0166497 31.8598208,12.2875899 31.0787722,13.0686385 C30.2922783,13.8551324 29.0286931,13.8469865 28.2443133,13.0626067 L26.0077044,10.8259978 L26.0077044,33.968465 C26.0077044,35.073696 25.1122739,35.9691313 24.0077044,35.9691313 C22.895434,35.9691313 22.0077044,35.0734025 22.0077044,33.968465 L22.0077044,10.8259978 L19.7710954,13.0626067 Z" id="Combined-Shape" fill="#000000" fill-rule="nonzero"></path>
    </g>
</svg>