<?xml version="1.0" encoding="UTF-8"?>
<svg width="48px" height="48px" viewBox="0 0 48 48" version="1.1" xmlns="http://www.w3.org/2000/svg" xmlns:xlink="http://www.w3.org/1999/xlink">
    <!-- Generator: Sketch 43.2 (39069) - http://www.bohemiancoding.com/sketch -->
    <title>theicons.co/svg/ui-49</title>
    <desc>Created with Sketch.</desc>
    <defs></defs>
    <g id="The-Icons" stroke="none" stroke-width="1" fill="none" fill-rule="evenodd">
        <path d="M36,39.7189445 L36,25.7265274 C36,24.6219579 36.8954305,23.7265274 38,23.7265274 C39.1045695,23.7265274 40,24.6219579 40,25.7265274 L40,39.7189445 C40,41.9318265 38.2149652,43.7250625 35.9982567,43.7250625 L8.00174332,43.7250625 C5.79030913,43.7250625 4,41.9390466 4,39.7233192 L4,11.7268059 C4,9.51397433 5.79316198,7.72506253 8.00983882,7.72506253 L22.0297852,7.72506253 C23.1343547,7.72506253 24.0297852,8.62049303 24.0297852,9.72506253 C24.0297852,10.829632 23.1343547,11.7250625 22.0297852,11.7250625 L8,11.7268059 L8.00174332,39.7250625 L36,39.7189445 Z M42.5613431,8.00093783 C44.1218103,9.56140505 44.1217854,12.0914472 42.5553811,13.6578514 L22.7594019,33.4538307 L15.3142109,35.3220214 C13.1699649,35.8600681 11.8696075,34.5511142 12.4059298,32.4137403 L14.2741205,24.9685493 L34.0700998,5.17257007 C35.6338597,3.60881016 38.1718699,3.61146465 39.7270134,5.16660813 L42.5613431,8.00093783 Z M20.6964748,29.8599035 L22.0522951,28.5040832 L19.2249452,25.6767333 L17.886334,27.0151053 L16.9476647,30.7802865 L20.6964748,29.8599035 Z M35.4843133,15.072065 L32.6559456,12.2376759 L22.0534955,22.8484293 L24.8807222,25.6756561 L35.4843133,15.072065 Z" id="Combined-Shape" fill="#000000"></path>
    </g>
</svg>