<?xml version="1.0" encoding="UTF-8"?>
<svg width="48px" height="48px" viewBox="0 0 48 48" version="1.1" xmlns="http://www.w3.org/2000/svg" xmlns:xlink="http://www.w3.org/1999/xlink">
    <!-- Generator: Sketch 43.2 (39069) - http://www.bohemiancoding.com/sketch -->
    <title>theicons.co/svg/ui-47</title>
    <desc>Created with Sketch.</desc>
    <defs></defs>
    <g id="The-Icons" stroke="none" stroke-width="1" fill="none" fill-rule="evenodd">
        <path d="M30,32 C30,34.6124377 28.3303847,36.8349158 26,37.6585886 L26,40.0002927 C26,41.1047006 25.1122704,42 24,42 C22.8954305,42 22,41.1101074 22,40.0002927 L22,37.6585886 C19.6696153,36.8349158 18,34.6124377 18,32 C18,29.3875623 19.6696153,27.1650842 22,26.3414114 L22,7.99970728 C22,6.89529944 22.8877296,6 24,6 C25.1045695,6 26,6.88989258 26,7.99970728 L26,26.3414114 C28.3303847,27.1650842 30,29.3875623 30,32 Z M44,20 C44,22.6124377 42.3303847,24.8349158 40,25.6585886 L40,40.0002927 C40,41.1047006 39.1122704,42 38,42 C36.8954305,42 36,41.1101074 36,40.0002927 L36,25.6585886 C33.6696153,24.8349158 32,22.6124377 32,20 C32,17.3875623 33.6696153,15.1650842 36,14.3414114 L36,7.99970728 C36,6.89529944 36.8877296,6 38,6 C39.1045695,6 40,6.88989258 40,7.99970728 L40,14.3414114 C42.3303847,15.1650842 44,17.3875623 44,20 Z M16,16 C16,18.6124377 14.3303847,20.8349158 12,21.6585886 L12,40.0002927 C12,41.1047006 11.1122704,42 10,42 C8.8954305,42 8,41.1101074 8,40.0002927 L8,21.6585886 C5.66961525,20.8349158 4,18.6124377 4,16 C4,13.3875623 5.66961525,11.1650842 8,10.3414114 L8,7.99970728 C8,6.89529944 8.88772964,6 10,6 C11.1045695,6 12,6.88989258 12,7.99970728 L12,10.3414114 C14.3303847,11.1650842 16,13.3875623 16,16 Z M10,18 C11.1045695,18 12,17.1045695 12,16 C12,14.8954305 11.1045695,14 10,14 C8.8954305,14 8,14.8954305 8,16 C8,17.1045695 8.8954305,18 10,18 Z M24,34 C25.1045695,34 26,33.1045695 26,32 C26,30.8954305 25.1045695,30 24,30 C22.8954305,30 22,30.8954305 22,32 C22,33.1045695 22.8954305,34 24,34 Z M38,22 C39.1045695,22 40,21.1045695 40,20 C40,18.8954305 39.1045695,18 38,18 C36.8954305,18 36,18.8954305 36,20 C36,21.1045695 36.8954305,22 38,22 Z" id="Combined-Shape" fill="#000000"></path>
    </g>
</svg>