<?xml version="1.0" encoding="UTF-8"?>
<svg width="48px" height="48px" viewBox="0 0 48 48" version="1.1" xmlns="http://www.w3.org/2000/svg" xmlns:xlink="http://www.w3.org/1999/xlink">
    <!-- Generator: Sketch 43.2 (39069) - http://www.bohemiancoding.com/sketch -->
    <title>theicons.co/svg/ui-48</title>
    <desc>Created with Sketch.</desc>
    <defs></defs>
    <g id="The-Icons" stroke="none" stroke-width="1" fill="none" fill-rule="evenodd">
        <path d="M26.1944934,27.134766 C29.8323579,28.4838104 33.9588685,27.6212787 36.7505228,24.8296244 C38.2858014,23.2943458 39.1640988,21.4280349 39.3835691,19.3841309 C38.4966728,20.2710266 36.0482565,22.7034635 36.0482565,22.7034635 C35.1831212,23.5685988 33.7445172,24.0052893 32.5466617,23.7657183 L27.4419973,22.7447854 C26.1076166,22.4779092 24.9598158,21.3289623 24.6932262,19.9960143 L23.6722933,14.8913498 C23.4323503,13.6916347 23.8686265,12.2556765 24.734548,11.389755 L28.0595055,8.06479757 C27.3673746,8.16237865 25.0843438,8.21153207 22.6083872,10.6874887 C19.8167329,13.479143 18.9542008,17.6056539 20.3032443,21.2435214 C20.575017,21.9763911 20.3949451,22.8004258 19.8422434,23.3531275 L9.88360152,33.3117693 C8.70574218,34.4896287 8.70623598,36.3833173 9.88046511,37.5575464 C11.049402,38.7264833 12.9542745,38.7263778 14.1262423,37.55441 L24.0848864,27.5957665 C24.6375884,27.0430646 25.4616235,26.8629928 26.1944934,27.134766 Z M42.9091346,14.4304252 C44.213435,19.3145173 43.1059665,24.1310349 39.5789499,27.6580515 C35.9889557,31.2480457 30.8200734,32.5590175 26.0558895,31.2840078 C25.7048577,31.6350387 16.9546693,40.3828371 16.9546693,40.3828371 C14.2206745,43.1168319 9.78314213,43.1170777 7.05203798,40.3859735 C4.3160418,37.6499774 4.31488758,33.223629 7.05517439,30.4833422 L16.1472766,21.39124 C14.7904208,17.6929556 15.8727183,11.7663034 19.77996,7.85906161 C23.3069766,4.33204504 28.1234943,3.22457656 33.0075864,4.52887692 C34.4957802,4.92630017 34.994971,6.78618629 33.9057818,7.87537547 L27.5629751,14.2181822 L28.5430466,18.8949649 L33.2198294,19.8750364 L39.5626361,13.5322297 C40.6518252,12.4430405 42.5117114,12.9422313 42.9091346,14.4304252 Z" id="Combined-Shape-Copy-2" fill="#000000" fill-rule="nonzero"></path>
    </g>
</svg>