<?xml version="1.0" encoding="UTF-8"?>
<svg width="48px" height="48px" viewBox="0 0 48 48" version="1.1" xmlns="http://www.w3.org/2000/svg" xmlns:xlink="http://www.w3.org/1999/xlink">
    <!-- Generator: Sketch 43.2 (39069) - http://www.bohemiancoding.com/sketch -->
    <title>theicons.co/svg/ui-40</title>
    <desc>Created with Sketch.</desc>
    <defs></defs>
    <g id="The-Icons" stroke="none" stroke-width="1" fill="none" fill-rule="evenodd">
        <path d="M25,32 L25,29.9962027 C25,27.7891609 26.7965212,26 28.9958262,26 L33.0041738,26 C35.2110077,26 37,27.7888304 37,29.9962027 L37,32 L42.0027084,32 C43.1057821,32 44,32.8877296 44,34 C44,35.1045695 43.1084602,36 42.0027084,36 L37,36 L37,38.0037973 C37,40.2108391 35.2034788,42 33.0041738,42 L28.9958262,42 C26.7889923,42 25,40.2111696 25,38.0037973 L25,36 L5.99729162,36 C4.89421792,36 4,35.1122704 4,34 C4,32.8954305 4.89153983,32 5.99729162,32 L25,32 Z M11,9.99620271 C11,7.78916089 12.7965212,6 14.9958262,6 L19.0041738,6 C21.2110077,6 23,7.78883037 23,9.99620271 L23,12 L42.0027084,12 C43.1057821,12 44,12.8877296 44,14 C44,15.1045695 43.1084602,16 42.0027084,16 L23,16 L23,18.0037973 C23,20.2108391 21.2034788,22 19.0041738,22 L14.9958262,22 C12.7889923,22 11,20.2111696 11,18.0037973 L11,16 L5.99729162,16 C4.89421792,16 4,15.1122704 4,14 C4,12.8954305 4.89153983,12 5.99729162,12 L11,12 L11,9.99620271 Z M15,10 L15,18 L19,18 L19,10 L15,10 Z M29,30 L29,38 L33,38 L33,30 L29,30 Z" id="Combined-Shape" fill="#000000"></path>
    </g>
</svg>