<?xml version="1.0" encoding="UTF-8"?>
<svg width="48px" height="48px" viewBox="0 0 48 48" version="1.1" xmlns="http://www.w3.org/2000/svg" xmlns:xlink="http://www.w3.org/1999/xlink">
    <!-- Generator: Sketch 43.2 (39069) - http://www.bohemiancoding.com/sketch -->
    <title>theicons.co/svg/ui-42</title>
    <desc>Created with Sketch.</desc>
    <defs></defs>
    <g id="The-Icons" stroke="none" stroke-width="1" fill="none" fill-rule="evenodd">
        <path d="M25.5857721,25.4141992 C24.8047314,24.6331426 24.8047443,23.3668127 25.5858008,22.5857721 C26.3668574,21.8047314 27.6331873,21.8047443 28.4142279,22.5858008 L34.4142279,28.5859229 C35.1952686,29.3669794 35.1952557,30.6333094 34.4141992,31.41435 L28.4141992,37.4142279 C27.6331426,38.1952686 26.3668127,38.1952557 25.5857721,37.4141992 C24.8047314,36.6331426 24.8047443,35.3668127 25.5858008,34.5857721 L28.1590537,32 L20,32 L20,40 L40,40 L40,20 L20,20 L20,28 L28.1590536,28 L25.5857721,25.4141992 Z M40.0031611,16 C42.2105543,16 44,17.7941203 44,19.9968389 L44,40.0031611 C44,42.2105543 42.2058797,44 40.0031611,44 L19.9968389,44 C17.7894457,44 16,42.2058797 16,40.0031611 L16,32 L7.99683887,32 C5.78944571,32 4,30.2058797 4,28.0031611 L4,7.99683887 C4,5.78944571 5.79412025,4 7.99683887,4 L28.0031611,4 C30.2105543,4 32,5.79412025 32,7.99683887 L32,16 L40.0031611,16 Z M28,8 L8,8 L8,28 L16,28 L16,19.9968389 C16,17.7894457 17.7941203,16 19.9968389,16 L28,16 L28,8 Z" id="Combined-Shape" fill="#000000"></path>
    </g>
</svg>