<?xml version="1.0" encoding="UTF-8"?>
<svg width="48px" height="48px" viewBox="0 0 48 48" version="1.1" xmlns="http://www.w3.org/2000/svg" xmlns:xlink="http://www.w3.org/1999/xlink">
    <!-- Generator: Sketch 43.2 (39069) - http://www.bohemiancoding.com/sketch -->
    <title>theicons.co/svg/ui-41</title>
    <desc>Created with Sketch.</desc>
    <defs></defs>
    <g id="The-Icons" stroke="none" stroke-width="1" fill="none" fill-rule="evenodd">
        <path d="M20.0059397,6.03391801 C21.1072288,6.03391801 22,6.92843177 22,8.02797829 L22,20.0398577 C22,21.1411468 21.1054862,22.033918 20.0059397,22.033918 L7.99406028,22.033918 C6.8927712,22.033918 6,21.1394043 6,20.0398577 L6,8.02797829 C6,6.92668921 6.89451376,6.03391801 7.99406028,6.03391801 L20.0059397,6.03391801 Z M18,10.033918 L10,10.033918 L10,18.033918 L18,18.033918 L18,10.033918 Z M6,28.0279783 C6,26.9266892 6.89451376,26.033918 7.99406028,26.033918 L20.0059397,26.033918 C21.1072288,26.033918 22,26.9284318 22,28.0279783 L22,40.0398577 C22,41.1411468 21.1054862,42.033918 20.0059397,42.033918 L7.99406028,42.033918 C6.8927712,42.033918 6,41.1394043 6,40.0398577 L6,28.0279783 Z M10,30.033918 L10,38.033918 L18,38.033918 L18,30.033918 L10,30.033918 Z M38.0366814,8.00174332 L38.0366814,35.2137329 L40.2732903,32.977124 C41.0576701,32.1927442 42.3212553,32.1845983 43.1077492,32.9710922 C43.8887978,33.7521408 43.8841875,35.023081 43.1017174,35.8055511 L37.4569267,41.4503418 C37.0613741,41.8458944 36.550009,42.0400086 36.0381544,42.0396836 C35.5256111,42.0432099 35.014708,41.8486138 34.6224678,41.4563736 C34.6184484,41.4523521 28.9716453,35.8055511 28.9716453,35.8055511 C28.1872655,35.0211713 28.1791196,33.7575861 28.9656135,32.9710922 C29.7466621,32.1900436 31.0176023,32.1946539 31.8000724,32.977124 L34.0366814,35.2137329 L34.0366814,8.00174332 C34.0366814,6.89621101 34.924411,6 36.0366814,6 C37.1412509,6 38.0366814,6.88926172 38.0366814,8.00174332 Z" id="Combined-Shape" fill="#000000"></path>
    </g>
</svg>