<?xml version="1.0" encoding="UTF-8"?>
<svg width="48px" height="48px" viewBox="0 0 48 48" version="1.1" xmlns="http://www.w3.org/2000/svg" xmlns:xlink="http://www.w3.org/1999/xlink">
    <!-- Generator: Sketch 43.2 (39069) - http://www.bohemiancoding.com/sketch -->
    <title>theicons.co/svg/ui-51</title>
    <desc>Created with Sketch.</desc>
    <defs></defs>
    <g id="The-Icons" stroke="none" stroke-width="1" fill="none" fill-rule="evenodd">
        <path d="M21.2407297,31.8004892 C20.463074,32.5781449 19.1944394,32.5781556 18.4145378,31.798254 C17.6350745,31.0187907 17.6340809,29.7502838 18.4123025,28.9720621 L28.3140327,19.0703319 C29.0950813,18.2892833 29.0950813,17.0229534 28.3140327,16.2419048 C27.5329842,15.4608562 26.2666542,15.4608562 25.4856056,16.2419048 L15.5838754,26.143635 C13.2425639,28.4849466 13.2455412,32.2861116 15.5861107,34.6266811 C17.9281202,36.9686907 21.7294147,36.9686585 24.0691568,34.6289164 L31.1424599,27.5556133 L40.3336283,18.3644449 C43.8472681,14.850805 43.8457577,9.14621276 40.334848,5.63530309 C36.8203555,2.12081053 31.1203147,2.12191436 27.6057062,5.63652281 L18.4145378,14.8276912 L8.51503524,24.7271938 C3.82847758,29.4137515 3.82816305,37.0108691 8.51504287,41.6977489 C13.2017905,46.3844965 20.7983154,46.3850392 25.485598,41.6977566 L38.2135277,28.9698269 C38.9945763,28.1887783 38.9945763,26.9224483 38.2135277,26.1413997 C37.4324791,25.3603512 36.1661491,25.3603512 35.3851006,26.1413997 L22.6571709,38.8693294 C19.5320759,41.9944244 14.4682109,41.9940627 11.34347,38.8693218 C8.21873977,35.7445916 8.21894945,30.6801338 11.3434624,27.5556209 L21.2429649,17.6561184 L30.4341334,8.46494994 C32.3868898,6.51219347 35.5542708,6.51158011 37.5064209,8.46373021 C39.4555686,10.4128779 39.4564085,13.5848105 37.5052012,15.5360178 L28.3140327,24.7271862 L21.2407297,31.8004892 Z" id="Combined-Shape" fill="#000000" fill-rule="nonzero"></path>
    </g>
</svg>