<?xml version="1.0" encoding="UTF-8"?>
<svg width="48px" height="48px" viewBox="0 0 48 48" version="1.1" xmlns="http://www.w3.org/2000/svg" xmlns:xlink="http://www.w3.org/1999/xlink">
    <!-- Generator: Sketch 43.2 (39069) - http://www.bohemiancoding.com/sketch -->
    <title>theicons.co/svg/ui-57</title>
    <desc>Created with Sketch.</desc>
    <defs></defs>
    <g id="The-Icons" stroke="none" stroke-width="1" fill="none" fill-rule="evenodd">
        <path d="M12,11.9936412 C12,10.8940087 12.8970262,10.0025804 14.0049466,10.0025804 L33.9950534,10.0025804 C35.1023548,10.0025804 36,10.902395 36,11.9936412 L36,36.0089392 C36,37.1085717 35.1029738,38 33.9950534,38 L14.0049466,38 C12.8976452,38 12,37.1001854 12,36.0089392 L12,11.9936412 Z M16,14.0025804 L16,34 L32,34 L32,14.0025804 L16,14.0025804 Z M4.89442719,6.21372604 L8.89442719,8.21372604 C9.88238419,8.70770454 10.2828329,9.90905062 9.78885438,10.8970076 C9.29487588,11.8849646 8.0935298,12.2854133 7.10557281,11.7914348 L6,11.2479778 L6,36.7402513 L7.10557281,36.213726 C8.0935298,35.7197475 9.29487588,36.1201962 9.78885438,37.1081532 C10.2828329,38.0961102 9.88238419,39.2974563 8.89442719,39.7914348 L4.89442719,41.7914348 C3.56462501,42.4563359 2,41.4893445 2,40.0025804 L2,8.00258042 C2,6.51581638 3.56462501,5.54882495 4.89442719,6.21372604 Z M43.1060109,6.21372604 C44.4358131,5.54882495 46.0004381,6.51581638 46.0004381,8.00258042 L46.0004381,40.0025804 C46.0004381,41.4893445 44.4358131,42.4563359 43.1060109,41.7914348 L39.1060109,39.7914348 C38.1180539,39.2974563 37.7176052,38.0961102 38.2115837,37.1081532 C38.7055622,36.1201962 39.9069083,35.7197475 40.8948653,36.213726 L42.0004381,36.7402513 L42.0004381,11.2479778 L40.8948653,11.7914348 C39.9069083,12.2854133 38.7055622,11.8849646 38.2115837,10.8970076 C37.7176052,9.90905062 38.1180539,8.70770454 39.1060109,8.21372604 L43.1060109,6.21372604 Z" id="Combined-Shape" fill="#000000"></path>
    </g>
</svg>