<?xml version="1.0" encoding="UTF-8"?>
<svg width="48px" height="48px" viewBox="0 0 48 48" version="1.1" xmlns="http://www.w3.org/2000/svg" xmlns:xlink="http://www.w3.org/1999/xlink">
    <!-- Generator: Sketch 43.2 (39069) - http://www.bohemiancoding.com/sketch -->
    <title>theicons.co/svg/ui-59</title>
    <desc>Created with Sketch.</desc>
    <defs></defs>
    <g id="The-Icons" stroke="none" stroke-width="1" fill="none" fill-rule="evenodd">
        <path d="M4.85096178,16.3281872 L21.221835,4.83706795 C22.8115079,3.72123732 25.1877514,3.72071741 26.7781651,4.83706795 L43.1490382,16.3281872 C44.2826035,17.1238646 44.2838761,18.8030135 43.1515183,19.6004082 L26.7806451,31.1286089 C25.1898892,32.2488028 22.8108524,32.249325 21.2193549,31.1286089 L4.84848172,19.6004082 C3.71612387,18.8030135 3.71739652,17.1238646 4.85096178,16.3281872 Z M38.5344072,30.0591307 C38.5344072,30.0591307 38.4478247,30.0171922 37.9015604,29.6368979 C36.9968002,29.0070285 36.7532322,27.7073071 37.3883057,26.809961 C38.0233791,25.9126148 39.2266131,25.7634831 40.2013648,26.3873199 C40.7801568,26.7577443 42.7717076,28.121446 43.1511922,28.4409095 C44.2781472,29.3896198 44.2868834,30.8973016 43.1536742,31.6887568 L26.7704916,43.1310876 C25.1785396,44.2429377 22.7977139,44.243456 21.2050198,43.1310876 L4.82183722,31.6887568 C3.68862794,30.8973016 3.76333169,29.3284335 4.82431914,28.4409095 C5.21714117,28.1123109 7.30006034,26.7173659 7.86272879,26.3256514 C8.76748896,25.695782 10.0157707,25.9126148 10.6508442,26.809961 C11.2859176,27.7073071 11.0672934,28.94536 10.1625332,29.5752294 C9.79964839,29.8278599 9.44392494,30.0755049 9.44392494,30.0755049 L23.509788,39.884971 C23.7198566,40.0316869 24.2558218,40.0315702 24.4657233,39.884971 L38.5344072,30.0591307 Z M24.4800886,8.1110326 C24.269094,7.96293032 23.7307382,7.96304811 23.5199114,8.1110326 L9.47098938,17.9723171 L23.5223915,27.8581315 C23.7323022,28.0059485 24.2678647,28.0058309 24.4776085,27.8581315 L38.5146553,17.9733874 L24.4800886,8.1110326 Z" id="Combined-Shape" fill="#000000" fill-rule="nonzero"></path>
    </g>
</svg>