<?xml version="1.0" encoding="UTF-8"?>
<svg width="48px" height="48px" viewBox="0 0 48 48" version="1.1" xmlns="http://www.w3.org/2000/svg" xmlns:xlink="http://www.w3.org/1999/xlink">
    <!-- Generator: Sketch 43.2 (39069) - http://www.bohemiancoding.com/sketch -->
    <title>theicons.co/svg/ui-55</title>
    <desc>Created with Sketch.</desc>
    <defs></defs>
    <g id="The-Icons" stroke="none" stroke-width="1" fill="none" fill-rule="evenodd">
        <path d="M8,30 L14.000385,30 C15.1047419,30 16,30.8877296 16,32 C16,33.1045695 15.1125667,34 14.000385,34 L8,34 L8,38 L20,38 L20,10 L8,10 L8,14 L14.000385,14 C15.1047419,14 16,14.8877296 16,16 C16,17.1045695 15.1125667,18 14.000385,18 L8,18 L8,22 L14.000385,22 C15.1047419,22 16,22.8877296 16,24 C16,25.1045695 15.1125667,26 14.000385,26 L8,26 L8,30 Z M24,10 L24,38 L40,38 L40,10 L24,10 Z M4,9.99017859 C4,7.7864638 5.79642476,6 8.00002553,6 L39.9999745,6 C42.2091276,6 44,7.7852456 44,9.99017859 L44,38.0098214 C44,40.2135362 42.2035752,42 39.9999745,42 L8.00002553,42 C5.79087243,42 4,40.2147544 4,38.0098214 L4,9.99017859 Z" id="Combined-Shape" fill="#000000"></path>
    </g>
</svg>