<?xml version="1.0" encoding="UTF-8"?>
<svg width="48px" height="48px" viewBox="0 0 48 48" version="1.1" xmlns="http://www.w3.org/2000/svg" xmlns:xlink="http://www.w3.org/1999/xlink">
    <!-- Generator: Sketch 43.2 (39069) - http://www.bohemiancoding.com/sketch -->
    <title>theicons.co/svg/ui-54</title>
    <desc>Created with Sketch.</desc>
    <defs></defs>
    <g id="The-Icons" stroke="none" stroke-width="1" fill="none" fill-rule="evenodd">
        <path d="M10.1859305,37.5290989 L2.85533973,26.7662354 C1.71457875,25.16917 1.71519481,22.7707305 2.85533973,21.1745277 L10.1859305,10.4709011 C11.2038268,9.04584624 13.2288115,8 14.9717126,8 L41.9884786,8 C44.1913177,8 45.9800956,9.79364642 45.9800956,11.9912443 L45.9800956,36.0087557 C45.9800956,38.2119765 44.1879148,40 41.9884786,40 L14.9717126,40 C13.2249419,40 11.2039599,38.9543401 10.1859305,37.5290989 Z M6.08422159,23.5718697 C5.93725829,23.7776183 5.93712212,24.3077326 6.08422159,24.5136719 L13.4408644,35.2041461 C13.7099432,35.5808565 14.5200358,36 14.9717126,36 L41.9800956,36 L41.9800956,12 L14.9717126,12 C14.5228034,12 13.7091788,12.4202137 13.4408644,12.7958539 L6.08422159,23.5718697 Z M11.9800956,24 C11.9800956,20.6862915 14.6663871,18 17.9800956,18 C21.2938041,18 23.9800956,20.6862915 23.9800956,24 C23.9800956,27.3137085 21.2938041,30 17.9800956,30 C14.6663871,30 11.9800956,27.3137085 11.9800956,24 Z M19.9800956,24 C19.9800956,22.8954305 19.0846651,22 17.9800956,22 C16.8755261,22 15.9800956,22.8954305 15.9800956,24 C15.9800956,25.1045695 16.8755261,26 17.9800956,26 C19.0846651,26 19.9800956,25.1045695 19.9800956,24 Z" id="Combined-Shape" fill="#000000"></path>
    </g>
</svg>