<?xml version="1.0" encoding="UTF-8"?>
<svg width="48px" height="48px" viewBox="0 0 48 48" version="1.1" xmlns="http://www.w3.org/2000/svg" xmlns:xlink="http://www.w3.org/1999/xlink">
    <!-- Generator: Sketch 43.2 (39069) - http://www.bohemiancoding.com/sketch -->
    <title>theicons.co/svg/ui-53</title>
    <desc>Created with Sketch.</desc>
    <defs></defs>
    <g id="The-Icons" stroke="none" stroke-width="1" fill="none" fill-rule="evenodd">
        <path d="M30.3828692,17.2407336 C31.1639178,18.0217821 31.1619507,19.2900792 30.389378,20.0626519 L19.0626519,31.389378 C18.285198,32.1668319 17.0272275,32.1693631 16.2407336,31.3828692 C15.459685,30.6018206 15.4616521,29.3335236 16.2342247,28.5609509 L27.5609509,17.2342247 C28.3384047,16.4567709 29.5963753,16.4542396 30.3828692,17.2407336 Z M16.2407622,39.8681219 C13.9000386,42.2088455 10.0946803,42.2073787 7.75545218,39.8681506 C5.41425193,37.5269503 5.41543747,33.7228839 7.75548081,31.3828406 L13.4123064,25.7260149 C14.193355,24.9449663 14.193355,23.6786364 13.4123064,22.8975878 C12.6312578,22.1165392 11.3649279,22.1165392 10.5838793,22.8975878 L4.92705368,28.5544134 C1.0253077,32.4561594 1.02333285,38.7928855 4.92702506,42.6965777 C8.82786249,46.5974151 15.1658803,46.5998581 19.0691893,42.6965491 L24.7260149,37.0397234 C25.5070635,36.2586748 25.5070635,34.9923449 24.7260149,34.2112963 C23.9449663,33.4302477 22.6786364,33.4302477 21.8975878,34.2112963 L16.2407622,39.8681219 Z M41.6965491,20.0691893 C45.5998581,16.1658803 45.5974151,9.82786249 41.6965777,5.92702506 C37.7928855,2.02333285 31.4561594,2.0253077 27.5544134,5.92705368 L21.8975878,11.5838793 C21.1165392,12.3649279 21.1165392,13.6312578 21.8975878,14.4123064 C22.6786364,15.193355 23.9449663,15.193355 24.7260149,14.4123064 L30.3828406,8.75548081 C32.7228839,6.41543747 36.5269503,6.41425193 38.8681506,8.75545218 C41.2073787,11.0946803 41.2088455,14.9000386 38.8681219,17.2407622 L33.2112963,22.8975878 C32.4302477,23.6786364 32.4302477,24.9449663 33.2112963,25.7260149 C33.9923449,26.5070635 35.2586748,26.5070635 36.0397234,25.7260149 L41.6965491,20.0691893 Z M29.8997161,41.9148196 C30.2490117,42.9627063 31.3816516,43.5290263 32.4295383,43.1797307 C33.4774249,42.8304352 34.0437449,41.6977952 33.6944493,40.6499086 L32.2802358,36.4072679 C31.9309402,35.3593813 30.7983003,34.7930613 29.7504136,35.1423568 C28.702527,35.4916524 28.136207,36.6242923 28.4855026,37.672179 L29.8997161,41.9148196 Z M39.6499086,34.6944493 C40.6977952,35.0437449 41.8304352,34.4774249 42.1797307,33.4295383 C42.5290263,32.3816516 41.9627063,31.2490117 40.9148196,30.8997161 L36.672179,29.4855026 C35.6242923,29.136207 34.4916524,29.702527 34.1423568,30.7504136 C33.7930613,31.7983003 34.3593813,32.9309402 35.4072679,33.2802358 L39.6499086,34.6944493 Z M16.7238866,6.70878309 C16.374591,5.66089645 15.2419511,5.09457648 14.1940645,5.44387202 C13.1461778,5.79316757 12.5798579,6.92580751 12.9291534,7.97369415 L14.343367,12.2163348 C14.6926625,13.2642215 15.8253025,13.8305414 16.8731891,13.4812459 C17.9210757,13.1319504 18.4873957,11.9993104 18.1381002,10.9514238 L16.7238866,6.70878309 Z M6.97369415,13.9291534 C5.92580751,13.5798579 4.79316757,14.1461778 4.44387202,15.1940645 C4.09457648,16.2419511 4.66089645,17.374591 5.70878309,17.7238866 L9.95142377,19.1381002 C10.9993104,19.4873957 12.1319504,18.9210757 12.4812459,17.8731891 C12.8305414,16.8253025 12.2642215,15.6926625 11.2163348,15.343367 L6.97369415,13.9291534 Z" id="Combined-Shape" fill="#000000"></path>
    </g>
</svg>