<?xml version="1.0" encoding="UTF-8"?>
<svg width="48px" height="48px" viewBox="0 0 48 48" version="1.1" xmlns="http://www.w3.org/2000/svg" xmlns:xlink="http://www.w3.org/1999/xlink">
    <!-- Generator: Sketch 43.2 (39069) - http://www.bohemiancoding.com/sketch -->
    <title>theicons.co/svg/ui-60</title>
    <desc>Created with Sketch.</desc>
    <defs></defs>
    <g id="The-Icons" stroke="none" stroke-width="1" fill="none" fill-rule="evenodd">
        <path d="M19.7710954,25.0779405 C18.9886253,25.8604106 17.7176851,25.8650208 16.9366366,25.0839722 C16.1501426,24.2974783 16.1582885,23.0338932 16.9426683,22.2495134 C16.9426683,22.2495134 22.5894714,16.6027124 22.5934908,16.5986909 C22.985731,16.2064507 23.4966341,16.0118545 24.0091774,16.0153809 C24.521032,16.0150558 25.0323971,16.20917 25.4279497,16.6047226 L31.0727404,22.2495134 C31.8552105,23.0319835 31.8598208,24.3029237 31.0787722,25.0839722 C30.2922783,25.8704662 29.0286931,25.8623203 28.2443133,25.0779405 L26.0077044,22.8413316 L26.0077044,41.9837987 C26.0077044,43.0890298 25.1122739,43.9844651 24.0077044,43.9844651 C22.895434,43.9844651 22.0077044,43.0887363 22.0077044,41.9837987 L22.0077044,22.8413316 L19.7710954,25.0779405 Z M37.0096588,32 L32,32 C30.8954305,32 30,31.1045695 30,30 C30,28.8954305 30.8954305,28 32,28 L37.0096588,28 C39.7596054,28 42,25.7585143 42,23 C42,20.2427615 39.7620704,18 37.0096588,18 L34.1416687,18 L33.8616487,16.3309118 C33.0598627,11.5517822 28.9017319,8 24,8 C19.0982681,8 14.9401373,11.5517822 14.1383513,16.3309118 L13.8583313,18 L10.9903412,18 C8.24039464,18 6,20.2414857 6,23 C6,25.7572385 8.23792964,28 10.9903412,28 L16,28 C17.1045695,28 18,28.8954305 18,30 C18,31.1045695 17.1045695,32 16,32 L10.9903412,32 C6.02685715,32 2,27.9644487 2,23 C2,18.1591331 5.82836454,14.2057676 10.6137304,14.0077771 C11.5252686,9.34387207 17.1366627,4 24,4 C30.3037711,4 35.7269099,8.19332349 37.4400001,14.0669694 C41.8500977,14.0669694 46,18.0355513 46,23 C46,27.9672175 41.9691804,32 37.0096588,32 Z" id="Combined-Shape" fill="#000000" fill-rule="nonzero"></path>
    </g>
</svg>