<?xml version="1.0" encoding="UTF-8"?>
<svg width="48px" height="48px" viewBox="0 0 48 48" version="1.1" xmlns="http://www.w3.org/2000/svg" xmlns:xlink="http://www.w3.org/1999/xlink">
    <!-- Generator: Sketch 43.2 (39069) - http://www.bohemiancoding.com/sketch -->
    <title>theicons.co/svg/ui-66</title>
    <desc>Created with Sketch.</desc>
    <defs></defs>
    <g id="The-Icons" stroke="none" stroke-width="1" fill="none" fill-rule="evenodd">
        <path d="M30,22 C27.790861,22 26,23.790861 26,26 C26,28.209139 27.790861,30 30,30 C32.209139,30 34,28.209139 34,26 C34,25.5900459 33.9383283,25.194496 33.8237563,24.8221219 C33.5101845,25.5166471 32.8115388,26 32,26 C30.8954305,26 30,25.1045695 30,24 C30,23.1884612 30.4833529,22.4898155 31.1778781,22.1762437 C30.805504,22.0616717 30.4099541,22 30,22 Z M20.6,10 L22.257005,5.85748741 C22.6673498,4.83162544 23.8970601,4 25.0058587,4 L34.9941413,4 C36.1019465,4 37.3341578,4.83539441 37.742995,5.85748741 L39.4,10 L41.99819,10 C44.2083286,10 46,11.7890275 46,14.0042577 L46,37.9957423 C46,40.2072328 44.2069088,42 41.99819,42 L6.00180999,42 C3.79167136,42 2,40.2109725 2,37.9957423 L2,14.0042577 C2,11.7927672 3.79309123,10 6.00180999,10 L20.6,10 Z M23.3081318,14 L6.00180999,14 L6,37.9957423 L41.99819,38 L42,14.0042577 L36.6918682,14 L34.206543,8 L25.7040972,8 L23.3081318,14 Z M10,19.9940603 C10,18.8927712 10.8877296,18 12,18 C13.1045695,18 14,18.8945138 14,19.9940603 L14,32.0059397 C14,33.1072288 13.1122704,34 12,34 C10.8954305,34 10,33.1054862 10,32.0059397 L10,19.9940603 Z M22,26 C22,21.581722 25.581722,18 30,18 C34.418278,18 38,21.581722 38,26 C38,30.418278 34.418278,34 30,34 C25.581722,34 22,30.418278 22,26 Z" id="Combined-Shape" fill="#000000"></path>
    </g>
</svg>