<?xml version="1.0" encoding="UTF-8"?>
<svg width="48px" height="48px" viewBox="0 0 48 48" version="1.1" xmlns="http://www.w3.org/2000/svg" xmlns:xlink="http://www.w3.org/1999/xlink">
    <!-- Generator: Sketch 43.2 (39069) - http://www.bohemiancoding.com/sketch -->
    <title>theicons.co/svg/ui-69</title>
    <desc>Created with Sketch.</desc>
    <defs></defs>
    <g id="The-Icons" stroke="none" stroke-width="1" fill="none" fill-rule="evenodd">
        <path d="M40,12 L34.9321096,12 C35.611326,13.1746531 36,14.5381108 36,15.9924054 L36,32.0075946 C36,33.4617927 35.6102854,34.8252821 34.9299769,36 L40,36 L40,12 Z M28,40 C23.581722,40 20,36.4223393 20,32.0075946 L20,15.9924054 C20,11.5783218 23.5907123,8 28,8 L40,8 L40,5.99729162 C40,4.89421792 40.8877296,4 42,4 C43.1045695,4 44,4.89153983 44,5.99729162 L44,42.0027084 C44,43.1057821 43.1122704,44 42,44 C40.8954305,44 40,43.1084602 40,42.0027084 L40,40 L28,40 Z M32,26 L29.9981014,26 C28.8945804,26 28,25.1122704 28,24 C28,22.8954305 28.8867064,22 29.9981014,22 L32,22 L32,20 L29.9981014,20 C28.8945804,20 28,19.1122704 28,18 C28,16.8954305 28.8867064,16 29.9981014,16 L32,16 C32,13.7879302 30.2102687,12 28,12 C25.7952025,12 24,13.7921072 24,15.9924054 L24,32.0075946 C24,34.2120698 25.7897313,36 28,36 C30.2047975,36 32,34.2078928 32,32.0075946 L29.9981014,32 C28.8945804,32 28,31.1122704 28,30 C28,28.8954305 28.8867064,28 29.9981014,28 L32,28 L32,26 Z M4,14.0001757 C4,10.6863701 6.69303423,8 10,8 C13.3137085,8 16,10.6869779 16,14.0001757 L16,33.9998243 C16,37.3136299 13.3069658,40 10,40 C6.6862915,40 4,37.3130221 4,33.9998243 L4,14.0001757 Z M8,14.0001757 L8,33.9998243 C8,35.1041818 8.89572927,36 10,36 C11.1008238,36 12,35.101495 12,33.9998243 L12,14.0001757 C12,12.8958182 11.1042707,12 10,12 C8.89917617,12 8,12.898505 8,14.0001757 Z" id="Combined-Shape" fill="#000000"></path>
    </g>
</svg>