<?xml version="1.0" encoding="UTF-8"?>
<svg width="48px" height="48px" viewBox="0 0 48 48" version="1.1" xmlns="http://www.w3.org/2000/svg" xmlns:xlink="http://www.w3.org/1999/xlink">
    <!-- Generator: Sketch 43.2 (39069) - http://www.bohemiancoding.com/sketch -->
    <title>theicons.co/svg/ui-68</title>
    <desc>Created with Sketch.</desc>
    <defs></defs>
    <g id="The-Icons" stroke="none" stroke-width="1" fill="none" fill-rule="evenodd">
        <path d="M18.7641976,29.9338596 C19.7819172,30.3546586 20.884501,30.6433447 22,30.8188128 L22,9.00335497 L20.999615,9.00335497 C19.8952581,9.00335497 19.479421,8.23628134 20.0603714,7.30676073 L22.9396286,2.69994921 C23.5252556,1.76294609 24.479421,1.7704286 25.0603714,2.69994921 L27.9396286,7.30676073 C28.5252556,8.24376386 28.1125667,9.00335497 27.000385,9.00335497 L26,9.00335497 L26,24.8188128 C27.115499,24.6433447 28.2180828,24.3546586 29.2358024,23.9338596 C32.2902307,22.6709375 34,20.5282646 34,17.003355 L32.9970301,17.003355 C32.4463856,17.003355 32,16.5503187 32,16.0063248 L32,10.0003851 C32,9.44974057 32.4530363,9.00335497 32.9970301,9.00335497 L39.0029699,9.00335497 C39.5536144,9.00335497 40,9.45639128 40,10.0003851 L40,16.0063248 C40,16.5569694 39.5469637,17.003355 39.0029699,17.003355 L38,17.003355 C38,22.295523 35.2097693,25.7922239 30.7641976,27.6303455 C29.2953645,28.2376676 27.7450957,28.6214333 26.1960843,28.8326813 C26.1298082,28.8417198 26.0644371,28.8503371 26,28.8585474 L26,36.4193987 C27.7659048,37.1909553 29,38.9530359 29,41.003355 C29,43.7647787 26.7614237,46.003355 24,46.003355 C21.2385763,46.003355 19,43.7647787 19,41.003355 C19,38.9530359 20.2340952,37.1909553 22,36.4193987 L22,34.8585474 C20.4509886,34.6472994 18.7046355,34.2376676 17.2358024,33.6303455 C12.9229426,31.8470966 10.1680665,28.5028161 10.0074296,23.4725133 C8.80773085,22.7819582 8,21.4869844 8,20.003355 C8,17.794216 9.790861,16.003355 12,16.003355 C14.209139,16.003355 16,17.794216 16,20.003355 C16,21.4797974 15.2000758,22.7694075 14.0099776,23.4624352 C14.1536788,26.715849 15.8446957,28.7267259 18.7641976,29.9338596 Z" id="Combined-Shape" fill="#000000"></path>
    </g>
</svg>