<?xml version="1.0" encoding="UTF-8"?>
<svg width="48px" height="48px" viewBox="0 0 48 48" version="1.1" xmlns="http://www.w3.org/2000/svg" xmlns:xlink="http://www.w3.org/1999/xlink">
    <!-- Generator: Sketch 43.2 (39069) - http://www.bohemiancoding.com/sketch -->
    <title>theicons.co/svg/ui-67</title>
    <desc>Created with Sketch.</desc>
    <defs></defs>
    <g id="The-Icons" stroke="none" stroke-width="1" fill="none" fill-rule="evenodd">
        <path d="M23.9889673,16 C21.7798283,16 19.9889673,17.790861 19.9889673,20 C19.9889673,22.209139 21.7798283,24 23.9889673,24 C26.1981063,24 27.9889673,22.209139 27.9889673,20 C27.9889673,19.5900459 27.9272956,19.194496 27.8127236,18.8221219 C27.4991518,19.5166471 26.8005061,20 25.9889673,20 C24.8843978,20 23.9889673,19.1045695 23.9889673,18 C23.9889673,17.1884612 24.4723203,16.4898155 25.1668454,16.1762437 C24.7944713,16.0616717 24.3989214,16 23.9889673,16 Z M41.9417088,39.3640496 C42.3801312,40.6607482 41.4156849,42.0047742 40.0468747,42.0046387 L8.00134249,42.0014648 C6.63543148,42.0013296 5.67154339,40.662393 6.1048356,39.3670279 L9.98960611,27.7531654 C8.71488398,25.456398 7.98896733,22.8129724 7.98896733,20 C7.98896733,11.163444 15.1524113,4 23.9889673,4 C32.8255233,4 39.9889673,11.163444 39.9889673,20 C39.9889673,22.8003155 39.2695685,25.4326063 38.005502,27.7221414 L41.9417088,39.3640496 Z M23.9889673,36 C19.7013578,36 15.8076513,34.3135003 12.9350323,31.5676853 L10.7913125,38 L37.195759,38.0043563 L35.0584131,31.5528394 C32.1843071,34.3074201 28.2842988,36 23.9889673,36 Z M35.9889673,20 C35.9889673,13.372583 30.6163843,8 23.9889673,8 C17.3615503,8 11.9889673,13.372583 11.9889673,20 C11.9889673,26.627417 17.3615503,32 23.9889673,32 C30.6163843,32 35.9889673,26.627417 35.9889673,20 Z M15.9889673,20 C15.9889673,15.581722 19.5706893,12 23.9889673,12 C28.4072453,12 31.9889673,15.581722 31.9889673,20 C31.9889673,24.418278 28.4072453,28 23.9889673,28 C19.5706893,28 15.9889673,24.418278 15.9889673,20 Z" id="Combined-Shape" fill="#000000"></path>
    </g>
</svg>