<?xml version="1.0" encoding="UTF-8"?>
<svg width="48px" height="48px" viewBox="0 0 48 48" version="1.1" xmlns="http://www.w3.org/2000/svg" xmlns:xlink="http://www.w3.org/1999/xlink">
    <!-- Generator: Sketch 43.2 (39069) - http://www.bohemiancoding.com/sketch -->
    <title>theicons.co/svg/ui-64</title>
    <desc>Created with Sketch.</desc>
    <defs></defs>
    <g id="The-Icons" stroke="none" stroke-width="1" fill="none" fill-rule="evenodd">
        <path d="M29.268452,14.9991297 C29.8212174,14.0428221 31.0445627,13.7156865 32.0008703,14.268452 C32.9571779,14.8212174 33.2843135,16.0445627 32.731548,17.0008703 L28.6003819,24.1479627 C29.4739954,25.1901897 30,26.5336674 30,28 C30,31.3137085 27.3137085,34 24,34 C20.6862915,34 18,31.3137085 18,28 C18,24.6862915 20.6862915,22 24,22 C24.3959071,22 24.7828581,22.0383452 25.1573419,22.1115243 L29.268452,14.9991297 Z M24,44 C12.954305,44 4,35.045695 4,24 C4,12.954305 12.954305,4 24,4 C35.045695,4 44,12.954305 44,24 C44,35.045695 35.045695,44 24,44 Z M24,40 C32.836556,40 40,32.836556 40,24 C40,15.163444 32.836556,8 24,8 C15.163444,8 8,15.163444 8,24 C8,32.836556 15.163444,40 24,40 Z M24,30 C25.1045695,30 26,29.1045695 26,28 C26,26.8954305 25.1045695,26 24,26 C22.8954305,26 22,26.8954305 22,28 C22,29.1045695 22.8954305,30 24,30 Z" id="Combined-Shape" fill="#000000"></path>
    </g>
</svg>