<?xml version="1.0" encoding="UTF-8"?>
<svg width="48px" height="48px" viewBox="0 0 48 48" version="1.1" xmlns="http://www.w3.org/2000/svg" xmlns:xlink="http://www.w3.org/1999/xlink">
    <!-- Generator: Sketch 43.2 (39069) - http://www.bohemiancoding.com/sketch -->
    <title>theicons.co/svg/ui-76</title>
    <desc>Created with Sketch.</desc>
    <defs></defs>
    <g id="The-Icons" stroke="none" stroke-width="1" fill="none" fill-rule="evenodd">
        <path d="M38,18 C38,21.1096764 37.4989462,22.8724433 35.7057145,25.9474617 C35.003163,27.1521909 23.7145864,43.0496029 23.6186858,43.1817529 C22.480421,44.750269 20,43.9450919 20,42.0070801 C20,42.0070801 20,31.9790649 19.9996723,31.4201884 C14.1613198,29.685428 10,24.2796696 10,18 C10,10.2680135 16.2680135,4 24,4 C31.7319865,4 38,10.2680135 38,18 Z M24,35.810791 C24,35.810791 31.6365011,24.9850272 32.2503402,23.9324211 C33.6954488,21.4543613 34,20.3829139 34,18 C34,12.4771525 29.5228475,8 24,8 C18.4771525,8 14,12.4771525 14,18 C14,22.9017319 17.5517822,27.0598627 22.3309118,27.8616487 C23.2943158,28.0232773 24,28.8572151 24,29.8340831 L24,35.810791 Z M18,18 C18,14.6862915 20.6862915,12 24,12 C27.3137085,12 30,14.6862915 30,18 C30,21.3137085 27.3137085,24 24,24 C20.6862915,24 18,21.3137085 18,18 Z M26,18 C26,16.8954305 25.1045695,16 24,16 C22.8954305,16 22,16.8954305 22,18 C22,19.1045695 22.8954305,20 24,20 C25.1045695,20 26,19.1045695 26,18 Z" id="Combined-Shape" fill="#000000"></path>
    </g>
</svg>