<?xml version="1.0" encoding="UTF-8"?>
<svg width="48px" height="48px" viewBox="0 0 48 48" version="1.1" xmlns="http://www.w3.org/2000/svg" xmlns:xlink="http://www.w3.org/1999/xlink">
    <!-- Generator: Sketch 43.2 (39069) - http://www.bohemiancoding.com/sketch -->
    <title>theicons.co/svg/ui-77</title>
    <desc>Created with Sketch.</desc>
    <defs></defs>
    <g id="The-Icons" stroke="none" stroke-width="1" fill="none" fill-rule="evenodd">
        <path d="M30,8.58826176 L18,11.5659081 L18,39.4399805 L30,36.4399805 L30,8.58826176 Z M34,36.5600148 L42.0194673,39.2331706 L42,11.452461 L34,8.76408209 L34,36.5600148 Z M14,11.4430517 L6.00017997,8.77644503 L6,36.5709913 L14,39.2293991 L14,11.4430517 Z M2,6.00153326 C2,4.63641781 3.3373933,3.67247926 4.63245553,4.10416667 L16.0144653,7.92316412 L31.5149287,4.06124826 C31.88394,3.96899546 32.2716067,3.98388373 32.6324555,4.10416667 L44.6324555,8.10416667 C45.4491398,8.37639476 46,9.14067245 46,10.0015333 L46,42.0015333 C46,43.3666487 44.6626067,44.3305873 43.3675445,43.8988999 L32,40.0933912 L16.4850713,43.9418183 C16.11606,44.0340711 15.7283933,44.0191828 15.3675445,43.8988999 L3.36754447,39.8988999 C2.55086019,39.6266718 2,38.8623941 2,38.0015333 L2,6.00153326 Z" id="Combined-Shape" fill="#000000"></path>
    </g>
</svg>