<?xml version="1.0" encoding="UTF-8"?>
<svg width="48px" height="48px" viewBox="0 0 48 48" version="1.1" xmlns="http://www.w3.org/2000/svg" xmlns:xlink="http://www.w3.org/1999/xlink">
    <!-- Generator: Sketch 43.2 (39069) - http://www.bohemiancoding.com/sketch -->
    <title>theicons.co/svg/ui-78</title>
    <desc>Created with Sketch.</desc>
    <defs></defs>
    <g id="The-Icons" stroke="none" stroke-width="1" fill="none" fill-rule="evenodd">
        <path d="M36,39.000484 C36,42.8664882 32.8659932,46.0004949 29,46.0004949 C25.1340068,46.0004949 22,42.8664882 22,39.0004949 C22,35.1345017 25.1340068,32.0004949 29,32.0004949 C30.0735973,32.0004949 31.0907446,32.242186 32,32.6741261 L32,6.00049493 C32,5.02281663 32.7068261,4.18843641 33.671202,4.02770709 L45.671202,2.02770709 C46.8902654,1.82452985 48,2.76461606 48,4.00049493 L48,12.0004949 C48,12.9781732 47.2931739,13.8125535 46.328798,13.9732828 L36,15.6947491 L36,39.000484 Z M32,39.0004949 C32,37.3436407 30.6568542,36.0004949 29,36.0004949 C27.3431458,36.0004949 26,37.3436407 26,39.0004949 C26,40.6573492 27.3431458,42.0004949 29,42.0004949 C30.6568542,42.0004949 32,40.6573492 32,39.0004949 Z M0,26.0004949 C0,24.8959254 0.899897516,24.0004949 1.99124431,24.0004949 L26.0087557,24.0004949 C27.1084896,24.0004949 28,24.8882246 28,26.0004949 C28,27.1050644 27.1001025,28.0004949 26.0087557,28.0004949 L1.99124431,28.0004949 C0.891510444,28.0004949 0,27.1127653 0,26.0004949 Z M0,18.0004949 C0,16.8959254 0.899897516,16.0004949 1.99124431,16.0004949 L26.0087557,16.0004949 C27.1084896,16.0004949 28,16.8882246 28,18.0004949 C28,19.1050644 27.1001025,20.0004949 26.0087557,20.0004949 L1.99124431,20.0004949 C0.891510444,20.0004949 0,19.1127653 0,18.0004949 Z M14,10.0004949 C14,8.89592544 14.8970601,8.00049493 16.0058587,8.00049493 L25.9941413,8.00049493 C27.1019465,8.00049493 28,8.88822458 28,10.0004949 C28,11.1050644 27.1029399,12.0004949 25.9941413,12.0004949 L16.0058587,12.0004949 C14.8980535,12.0004949 14,11.1127653 14,10.0004949 Z M44,10.3057422 L44,6.35852679 L35.998314,7.6950301 L35.9993719,11.651443 L44,10.3057422 Z" id="Combined-Shape" fill="#000000"></path>
    </g>
</svg>