<?xml version="1.0" encoding="UTF-8"?>
<svg width="48px" height="48px" viewBox="0 0 48 48" version="1.1" xmlns="http://www.w3.org/2000/svg" xmlns:xlink="http://www.w3.org/1999/xlink">
    <!-- Generator: Sketch 43.2 (39069) - http://www.bohemiancoding.com/sketch -->
    <title>theicons.co/svg/ui-73</title>
    <desc>Created with Sketch.</desc>
    <defs></defs>
    <g id="The-Icons" stroke="none" stroke-width="1" fill="none" fill-rule="evenodd">
        <path d="M26,36.0059397 C26,37.1072288 25.1122704,38 24,38 C22.8954305,38 22,37.1054862 22,36.0059397 L22,23.8018066 C17.4309861,22.8787857 14,18.8411305 14,14 C14,8.4771525 18.4771525,4 24,4 C29.5228475,4 34,8.4771525 34,14 C34,18.8411657 30.5690636,22.8788444 26,23.8018268 L26,36.0059397 Z M30,14 C30,10.6862915 27.3137085,8 24,8 C20.6862915,8 18,10.6862915 18,14 C18,17.3137085 20.6862915,20 24,20 C27.3137085,20 30,17.3137085 30,14 Z M6,37 C6,33.4256568 10.7524305,31.2636003 17.753279,30.3787199 C18.8491295,30.2402085 19.8497775,31.0162853 19.9882888,32.1121358 C20.1268002,33.2079864 19.3507234,34.2086344 18.2548728,34.3471457 C15.52476,34.6922215 13.2053301,35.2764697 11.6305522,35.9928945 C10.9371461,36.3083506 10.8265958,36.4396864 10.8265958,36.4396864 C10.3586051,36.7470364 10.3635102,37.2480651 10.8119227,37.5540688 C10.8119227,37.5540688 11.0708468,37.9353256 13.2828415,38.6265739 C16.0565692,39.4933639 19.8896007,40 24,40 C28.1103993,40 31.9434308,39.4933639 34.7171585,38.6265739 C36.9291532,37.9353256 37.1752717,37.5615902 37.1752717,37.5615902 C37.6347867,37.2719523 37.6332037,36.750877 37.1807375,36.4435683 C37.1807375,36.4435683 37.0715796,36.3135503 36.3831968,35.9991616 C34.8188256,35.2847033 32.5132157,34.700717 29.7969837,34.3537351 C28.7013178,34.2137705 27.9265689,33.2120941 28.0665335,32.1164282 C28.2064981,31.0207623 29.2081745,30.2460134 30.3038403,30.385978 C37.2742592,31.2764062 42,33.4346819 42,37 C42,41.4927662 33.9768518,44 24,44 C14.0231482,44 6,41.4927662 6,37 Z" id="Combined-Shape" fill="#000000"></path>
    </g>
</svg>