<?xml version="1.0" encoding="UTF-8"?>
<svg width="48px" height="48px" viewBox="0 0 48 48" version="1.1" xmlns="http://www.w3.org/2000/svg" xmlns:xlink="http://www.w3.org/1999/xlink">
    <!-- Generator: Sketch 43.2 (39069) - http://www.bohemiancoding.com/sketch -->
    <title>theicons.co/svg/ui-70</title>
    <desc>Created with Sketch.</desc>
    <defs></defs>
    <g id="The-Icons" stroke="none" stroke-width="1" fill="none" fill-rule="evenodd">
        <path d="M26,40 L26,35 L22,35 L22,40 L26,40 Z M34,40 L34,37.0023695 C34,35.8950561 33.1076829,35 32.009947,35 L30,35 L30,40 L34,40 Z M18,40 L18,35 L15.990053,35 C14.8911397,35 14,35.8942178 14,37.0023695 L14,40 L18,40 Z M41.9973403,40 L41.9973691,11.9901786 C41.9973691,11.9972047 6.00018338,12 6.00018338,12 L6.00015466,40.0098214 C6.00015466,40.0027953 10,40 10,40 L10,37.0023695 C10,33.6881604 12.6789073,31 15.990053,31 L32.009947,31 C35.3195708,31 38,33.6886567 38,37.0023695 L38,40 L41.9973403,40 Z M20,6 C20,3.790861 21.7953562,2 24,2 C26.209139,2 28,3.79535615 28,6 L28,8 L41.5999719,8 C44.0300403,8 46,9.7852456 46,11.9901786 L46,40.0098214 C46,42.2135362 44.0239328,44 41.5999719,44 L6.40002808,44 C3.96995967,44 2,42.2147544 2,40.0098214 L2,11.9901786 C2,9.7864638 3.97606724,8 6.40002808,8 L20,8 L20,6 Z M16,28 C12.6862915,28 10,25.3137085 10,22 C10,18.6862915 12.6862915,16 16,16 C19.3137085,16 22,18.6862915 22,22 C22,25.3137085 19.3137085,28 16,28 Z M32,28 C28.6862915,28 26,25.3137085 26,22 C26,18.6862915 28.6862915,16 32,16 C35.3137085,16 38,18.6862915 38,22 C38,25.3137085 35.3137085,28 32,28 Z M16,24 C17.1045695,24 18,23.1045695 18,22 C18,20.8954305 17.1045695,20 16,20 C14.8954305,20 14,20.8954305 14,22 C14,23.1045695 14.8954305,24 16,24 Z M32,24 C33.1045695,24 34,23.1045695 34,22 C34,20.8954305 33.1045695,20 32,20 C30.8954305,20 30,20.8954305 30,22 C30,23.1045695 30.8954305,24 32,24 Z" id="Combined-Shape" fill="#000000"></path>
    </g>
</svg>