<?xml version="1.0" encoding="UTF-8"?>
<svg width="48px" height="48px" viewBox="0 0 48 48" version="1.1" xmlns="http://www.w3.org/2000/svg" xmlns:xlink="http://www.w3.org/1999/xlink">
    <!-- Generator: Sketch 43.2 (39069) - http://www.bohemiancoding.com/sketch -->
    <title>theicons.co/svg/ui-79</title>
    <desc>Created with Sketch.</desc>
    <defs></defs>
    <g id="The-Icons" stroke="none" stroke-width="1" fill="none" fill-rule="evenodd">
        <path d="M18,32.6743107 L18,8.00067956 C18,7.04731752 18.6729193,6.22648789 19.6077677,6.03951821 L39.6077677,2.03951821 C40.8453516,1.79200144 42,2.73858671 42,4.00067956 L42,12.0006796 C42,12.9540416 41.3270807,13.7748712 40.3922323,13.9618409 L22,17.6402874 L22,39.0006796 C22,42.8666728 18.8659932,46.0006796 15,46.0006796 C11.1340068,46.0006796 8,42.8666728 8,39.0006796 C8,35.1346863 11.1340068,32.0006796 15,32.0006796 C16.0735973,32.0006796 17.0907446,32.2423706 18,32.6743107 Z M18,39.0006796 C18,37.3438253 16.6568542,36.0006796 15,36.0006796 C13.3431458,36.0006796 12,37.3438253 12,39.0006796 C12,40.6575338 13.3431458,42.0006796 15,42.0006796 C16.6568542,42.0006796 18,40.6575338 18,39.0006796 Z M38,10.3589363 L38.0046191,6.43936354 L22,9.63912926 L22,13.5678793 L38,10.3589363 Z" id="Combined-Shape" fill="#000000"></path>
    </g>
</svg>