<?xml version="1.0" encoding="UTF-8"?>
<svg width="48px" height="48px" viewBox="0 0 48 48" version="1.1" xmlns="http://www.w3.org/2000/svg" xmlns:xlink="http://www.w3.org/1999/xlink">
    <!-- Generator: Sketch 43.2 (39069) - http://www.bohemiancoding.com/sketch -->
    <title>theicons.co/svg/ui-72</title>
    <desc>Created with Sketch.</desc>
    <defs></defs>
    <g id="The-Icons" stroke="none" stroke-width="1" fill="none" fill-rule="evenodd">
        <path d="M24,6.85098114 L12.001339,18.8350817 L15.6293858,39.6963506 C15.6515268,39.8236615 15.8614938,40 15.9907951,40 L32.0092049,40 C32.1327338,40 32.3494341,39.8181366 32.3706142,39.6963506 L35.998661,18.8350817 L24,6.85098114 Z M36.3114613,40.3817153 C35.9567564,42.4212681 34.0756097,44 32.0092049,44 L15.9907951,44 C13.9180254,44 12.0441024,42.4262065 11.6885387,40.3817153 L8.54216376,22.2900592 L5.41421356,25.4142136 C4.63316498,26.1952621 3.36683502,26.1952621 2.58578644,25.4142136 C1.80473785,24.633165 1.80473785,23.366835 2.58578644,22.5857864 L22.5857864,2.58578644 C23.366835,1.80473785 24.633165,1.80473785 25.4142136,2.58578644 L45.4142136,22.5857864 C46.1952621,23.366835 46.1952621,24.633165 45.4142136,25.4142136 C44.633165,26.1952621 43.366835,26.1952621 42.5857864,25.4142136 L39.4578362,22.2900592 L36.3114613,40.3817153 Z M24,36 C22.8954305,36 22,35.1045695 22,34 C22,32.8954305 22.8954305,32 24,32 C25.1045695,32 26,32.8954305 26,34 C26,35.1045695 25.1045695,36 24,36 Z M24,28 C21.790861,28 20,26.209139 20,24 C20,21.790861 21.790861,20 24,20 C26.209139,20 28,21.790861 28,24 C28,26.209139 26.209139,28 24,28 Z" id="Combined-Shape" fill="#000000"></path>
    </g>
</svg>