<?xml version="1.0" encoding="UTF-8"?>
<svg width="48px" height="48px" viewBox="0 0 48 48" version="1.1" xmlns="http://www.w3.org/2000/svg" xmlns:xlink="http://www.w3.org/1999/xlink">
    <!-- Generator: Sketch 43.2 (39069) - http://www.bohemiancoding.com/sketch -->
    <title>theicons.co/svg/ui-81</title>
    <desc>Created with Sketch.</desc>
    <defs></defs>
    <g id="The-Icons" stroke="none" stroke-width="1" fill="none" fill-rule="evenodd">
        <path d="M37.861125,31.997164 C39.2214715,29.6444181 40,26.9131266 40,24 C40,21.1635829 39.2619326,18.4995506 37.9673745,16.1894798 L34.2237432,19.933111 C34.7246106,21.1911457 35,22.5634125 35,24 C35,25.5160544 34.6933008,26.9604754 34.1385632,28.2746021 L37.861125,31.997164 Z M24,35 C22.5634125,35 21.1911457,34.7246106 19.933111,34.2237432 L16.1894798,37.9673745 C18.4995506,39.2619326 21.1635829,40 24,40 C27.0212367,40 29.8468916,39.1626148 32.2575307,37.7072782 L28.5624157,34.0121631 C27.1725544,34.646528 25.6275561,35 24,35 Z M13,24 C13,22.3724439 13.353472,20.8274456 13.9878369,19.4375843 L10.2927218,15.7424693 C8.83738524,18.1531084 8,20.9787633 8,24 C8,27.0974357 8.88015753,29.9892997 10.4040133,32.4391325 L14.081298,28.7618478 C13.3882866,27.3209623 13,25.7058257 13,24 Z M24,13 C25.7058257,13 27.3209623,13.3882866 28.7618478,14.081298 L32.4391325,10.4040133 C29.9892997,8.88015753 27.0974357,8 24,8 C21.0868734,8 18.3555819,8.7785285 16.002836,10.138875 L19.7253979,13.8614368 C21.0395246,13.3066992 22.4839456,13 24,13 Z M44,24 C44,35.045695 35.045695,44 24,44 C12.954305,44 4,35.045695 4,24 C4,12.954305 12.954305,4 24,4 C35.045695,4 44,12.954305 44,24 Z M17,24 C17,27.8659932 20.1340068,31 24,31 C27.8659932,31 31,27.8659932 31,24 C31,20.1340068 27.8659932,17 24,17 C20.1340068,17 17,20.1340068 17,24 Z" id="Combined-Shape" fill="#000000"></path>
    </g>
</svg>