<?xml version="1.0" encoding="UTF-8"?>
<svg width="48px" height="48px" viewBox="0 0 48 48" version="1.1" xmlns="http://www.w3.org/2000/svg" xmlns:xlink="http://www.w3.org/1999/xlink">
    <!-- Generator: Sketch 43.2 (39069) - http://www.bohemiancoding.com/sketch -->
    <title>theicons.co/svg/ui-80</title>
    <desc>Created with Sketch.</desc>
    <defs></defs>
    <g id="The-Icons" stroke="none" stroke-width="1" fill="none" fill-rule="evenodd">
        <path d="M18,11.6895399 L18,15.5807757 L40,10.4156268 L40,6.52439093 L18,11.6895399 Z M44,33.0004499 C44,36.8664431 40.8659932,40.0004499 37,40.0004499 C33.1340068,40.0004499 30,36.8664431 30,33.0004499 C30,29.1344566 33.1340068,26.0004499 37,26.0004499 C38.0735973,26.0004499 39.0907446,26.2421409 40,26.674081 L40,14.5243909 L18,19.6895399 L18,39.0004499 C18,42.8664431 14.8659932,46.0004499 11,46.0004499 C7.13400675,46.0004499 4,42.8664431 4,39.0004499 C4,35.1344566 7.13400675,32.0004499 11,32.0004499 C12.0735973,32.0004499 13.0907446,32.2421409 14,32.674081 L14,10.0004499 C14.1137216,9.12714788 14.7250737,8.3496613 15.617822,8.1400623 L41.5428708,2.05339238 C42.618201,1.8009269 43.694592,2.46799053 43.9470575,3.5433207 C43.9865153,3.71138387 44.0035122,3.87947295 44,4.04443847 L44,33.0004499 Z M40,33.0004499 C40,31.3435956 38.6568542,30.0004499 37,30.0004499 C35.3431458,30.0004499 34,31.3435956 34,33.0004499 C34,34.6573041 35.3431458,36.0004499 37,36.0004499 C38.6568542,36.0004499 40,34.6573041 40,33.0004499 Z M14,39.0004499 C14,37.3435956 12.6568542,36.0004499 11,36.0004499 C9.34314575,36.0004499 8,37.3435956 8,39.0004499 C8,40.6573041 9.34314575,42.0004499 11,42.0004499 C12.6568542,42.0004499 14,40.6573041 14,39.0004499 Z" id="Combined-Shape" fill="#000000"></path>
    </g>
</svg>