<?xml version="1.0" encoding="UTF-8"?>
<svg width="48px" height="48px" viewBox="0 0 48 48" version="1.1" xmlns="http://www.w3.org/2000/svg" xmlns:xlink="http://www.w3.org/1999/xlink">
    <!-- Generator: Sketch 43.2 (39069) - http://www.bohemiancoding.com/sketch -->
    <title>theicons.co/svg/ui-89</title>
    <desc>Created with Sketch.</desc>
    <defs></defs>
    <g id="The-Icons" stroke="none" stroke-width="1" fill="none" fill-rule="evenodd">
        <path d="M24,44 C12.954305,44 4,35.045695 4,24 C4,12.954305 12.954305,4 24,4 C35.045695,4 44,12.954305 44,24 C44,35.045695 35.045695,44 24,44 Z M24,40 C32.836556,40 40,32.836556 40,24 C40,15.163444 32.836556,8 24,8 C15.163444,8 8,15.163444 8,24 C8,32.836556 15.163444,40 24,40 Z M24,16 C21.790861,16 20,17.790861 20,20 C20,21.1045695 19.1045695,22 18,22 C16.8954305,22 16,21.1045695 16,20 C16,15.581722 19.581722,12 24,12 C28.4634738,12 32.012207,15.2097645 32.012207,19.5961914 C32.012207,21.9928374 31.1709038,23.4604845 29.374542,25.0064998 C29.1900841,25.1652511 27.111035,26.8532638 27.0334705,26.9152857 C26.2003763,27.581442 26.026001,27.8825244 26.026001,28.8781738 C26.026001,29.9827433 25.1305705,30.8781738 24.026001,30.8781738 C22.9214315,30.8781738 22.026001,29.9827433 22.026001,28.8781738 C22.026001,26.5380386 22.8245169,25.1592941 24.53542,23.7912269 C24.4683882,23.8448267 26.6152566,22.1038253 26.765275,21.9747139 C27.7542455,21.1235694 28.012207,20.6735574 28.012207,19.5961914 C28.012207,17.5134611 26.3389161,16 24,16 Z M24,36 C22.8954305,36 22,35.1045695 22,34 C22,32.8954305 22.8954305,32 24,32 C25.1045695,32 26,32.8954305 26,34 C26,35.1045695 25.1045695,36 24,36 Z" id="Combined-Shape" fill="#000000"></path>
    </g>
</svg>