<?xml version="1.0" encoding="UTF-8"?>
<svg width="48px" height="48px" viewBox="0 0 48 48" version="1.1" xmlns="http://www.w3.org/2000/svg" xmlns:xlink="http://www.w3.org/1999/xlink">
    <!-- Generator: Sketch 43.2 (39069) - http://www.bohemiancoding.com/sketch -->
    <title>theicons.co/svg/ui-91</title>
    <desc>Created with Sketch.</desc>
    <defs></defs>
    <g id="The-Icons" stroke="none" stroke-width="1" fill="none" fill-rule="evenodd">
        <path d="M12,9.99070077 C12,8.89122982 12.8877296,7.99993251 14,7.99993251 C15.1045695,7.99993251 16,8.89813277 16,9.99070077 L16,16.0003375 L22.0087557,16.0003375 C23.1084896,16.0003375 24,16.8880571 24,18.000315 C24,19.104872 23.1001025,20.0002925 22.0087557,20.0002925 L16,20.0002925 L16,26.0088943 C16,27.1083652 15.1122704,27.9996625 14,27.9996625 C12.8954305,27.9996625 12,27.1014623 12,26.0088943 L12,20.0002925 L5.99124431,20.0002925 C4.89151044,20.0002925 4,19.1125728 4,18.000315 C4,16.8957579 4.89989752,16.0003375 5.99124431,16.0003375 L12,16.0003375 L12,9.99070077 Z M32,39.0000678 C32,42.8660285 28.8659932,46 25,46 C21.1340068,46 18,42.8660285 18,39.0000787 C18,35.134129 21.1340068,32.0001575 25,32.0001575 C26.0735973,32.0001575 27.0907446,32.2418458 28,32.6737811 L28,6.00044994 C28,5.02278263 28.7068261,4.18841179 29.671202,4.02768428 L41.671202,2.02770678 C42.8902654,1.82453183 44,2.76460746 44,4.00047243 L44,12.0003824 C44,12.9780498 43.2931739,13.8124206 42.328798,13.9731481 L32,15.6945951 L32,39.0000678 Z M28,39.0000787 C28,37.3432431 26.6568542,36.0001125 25,36.0001125 C23.3431458,36.0001125 22,37.3432431 22,39.0000787 C22,40.6569144 23.3431458,42.000045 25,42.000045 C26.6568542,42.000045 28,40.6569144 28,39.0000787 Z M40,10.3056488 L40,6.35847776 L31.998314,7.69496604 L31.9993719,11.6513344 L40,10.3056488 Z" id="Combined-Shape" fill="#000000"></path>
    </g>
</svg>