<?xml version="1.0" encoding="UTF-8"?>
<svg width="48px" height="48px" viewBox="0 0 48 48" version="1.1" xmlns="http://www.w3.org/2000/svg" xmlns:xlink="http://www.w3.org/1999/xlink">
    <!-- Generator: Sketch 43.2 (39069) - http://www.bohemiancoding.com/sketch -->
    <title>theicons.co/svg/ui-95</title>
    <desc>Created with Sketch.</desc>
    <defs></defs>
    <g id="The-Icons" stroke="none" stroke-width="1" fill="none" fill-rule="evenodd">
        <path d="M38,12.8284271 L19.4142136,31.4142136 C18.633165,32.1952621 17.366835,32.1952621 16.5857864,31.4142136 C15.8047379,30.633165 15.8047379,29.366835 16.5857864,28.5857864 L35.1715729,10 L30,10 C28.8954305,10 28,9.1045695 28,8 C28,6.8954305 28.8954305,6 30,6 L40,6 C41.1045695,6 42,6.8954305 42,8 L42,18 C42,19.1045695 41.1045695,20 40,20 C38.8954305,20 38,19.1045695 38,18 L38,12.8284271 Z M38,26 C38,24.8954305 38.8954305,24 40,24 C41.1045695,24 42,24.8954305 42,26 L42,38.0049107 C42,40.2134024 40.2126114,42 38.0002927,42 L9.99970728,42 C7.78969516,42 6,40.2136474 6,38.0002927 L6,9.99970728 C6,7.79164701 7.78713255,6 9.99508929,6 L22,6 C23.1045695,6 24,6.8954305 24,8 C24,9.1045695 23.1045695,10 22,10 L10,10 L10,38 L38,38 L38,26 Z" id="Combined-Shape" fill="#000000" fill-rule="nonzero"></path>
    </g>
</svg>