<?xml version="1.0" encoding="UTF-8"?>
<svg width="48px" height="48px" viewBox="0 0 48 48" version="1.1" xmlns="http://www.w3.org/2000/svg" xmlns:xlink="http://www.w3.org/1999/xlink">
    <!-- Generator: Sketch 43.2 (39069) - http://www.bohemiancoding.com/sketch -->
    <title>theicons.co/svg/ui-94</title>
    <desc>Created with Sketch.</desc>
    <defs></defs>
    <g id="The-Icons" stroke="none" stroke-width="1" fill="none" fill-rule="evenodd">
        <path d="M4,38 C4,36.8954305 4.89153983,36 5.99729162,36 L42.0027084,36 C43.1057821,36 44,36.8877296 44,38 C44,39.1045695 43.1084602,40 42.0027084,40 L5.99729162,40 C4.89421792,40 4,39.1122704 4,38 Z M7.41421356,8.58578644 L24,25.1715729 L40.5857864,8.58578644 C41.366835,7.80473785 42.633165,7.80473785 43.4142136,8.58578644 C44.1952621,9.36683502 44.1952621,10.633165 43.4142136,11.4142136 L25.4142136,29.4142136 C24.633165,30.1952621 23.366835,30.1952621 22.5857864,29.4142136 L4.58578644,11.4142136 C3.80473785,10.633165 3.80473785,9.36683502 4.58578644,8.58578644 C5.36683502,7.80473785 6.63316498,7.80473785 7.41421356,8.58578644 Z" id="Combined-Shape" fill="#000000"></path>
    </g>
</svg>