<?xml version="1.0" encoding="UTF-8"?>
<svg width="48px" height="48px" viewBox="0 0 48 48" version="1.1" xmlns="http://www.w3.org/2000/svg" xmlns:xlink="http://www.w3.org/1999/xlink">
    <!-- Generator: Sketch 43.2 (39069) - http://www.bohemiancoding.com/sketch -->
    <title>theicons.co/svg/weather-03</title>
    <desc>Created with Sketch.</desc>
    <defs></defs>
    <g id="The-Icons" stroke="none" stroke-width="1" fill="none" fill-rule="evenodd">
        <path d="M29.9883054,30.0000112 C33.3137085,30 36,32.6862915 36,36 C36,39.3137085 33.3137085,42 30,42 L12,42 C7.581722,42 4,38.418278 4,34 C4,30.3153659 6.49100457,27.2125372 9.88083216,26.2836952 C10.7538124,24.294906 12.2254869,22.6285116 14.0677732,21.5125944 C14.0230799,21.1814242 14,20.8434074 14,20.5 C14,17.4745001 15.791467,14.8674197 18.3714993,13.6816606 C19.6054306,9.25135948 23.677305,6 28.5,6 C32.7993569,6 36.4951869,8.58400582 38.1191678,12.2836952 C41.5089954,13.2125372 44,16.3153659 44,20 C44,24.418278 40.418278,28 36,28 L29.7005543,28 C29.8581741,28.6453431 29.9561488,29.3140712 29.9883054,30.0000112 Z M36,24 C38.209139,24 40,22.209139 40,20 C40,18.1869574 38.7818579,16.612722 37.0620981,16.141493 L35.2229539,15.6375516 L34.4564923,13.8914289 C33.426958,11.5459845 31.105637,10 28.5,10 C25.5594901,10 23.0004093,11.9702636 22.2248317,14.754894 L21.7271849,16.5416427 L20.0418941,17.3161868 C18.9264527,17.8288334 18.1602582,18.8850907 18.0223478,20.1031612 C18.5051316,20.035164 18.9984593,20 19.5,20 C22.8445688,20 25.8239047,21.5637479 27.7467638,24 L36,24 Z M30,38 C31.1045695,38 32,37.1045695 32,36 C32,34.8954305 31.1045695,34 30,34 C29.9979673,34.0000006 27.1771374,34.0053817 27.1771374,34.0053817 C26.6218899,34.0064408 26.1512302,33.5690996 26.1247219,33.0036458 L25.9926936,30.1873242 C25.830776,26.7334271 22.9740483,24 19.5,24 C16.894363,24 14.573042,25.5459845 13.5435077,27.8914289 L12.7770461,29.6375516 L10.9379019,30.141493 C9.21814208,30.612722 8,32.1869574 8,34 C8,36.209139 9.790861,38 12,38 L30,38 Z" id="Path" fill="#000000"></path>
    </g>
</svg>