<?xml version="1.0" encoding="UTF-8"?>
<svg width="48px" height="48px" viewBox="0 0 48 48" version="1.1" xmlns="http://www.w3.org/2000/svg" xmlns:xlink="http://www.w3.org/1999/xlink">
    <!-- Generator: Sketch 43.2 (39069) - http://www.bohemiancoding.com/sketch -->
    <title>theicons.co/svg/weather-01</title>
    <desc>Created with Sketch.</desc>
    <defs></defs>
    <g id="The-Icons" stroke="none" stroke-width="1" fill="none" fill-rule="evenodd">
        <path d="M12.1659169,26 L6.0085302,26 C4.90195036,26 4,25.1045695 4,24 C4,22.8877296 4.8992496,22 6.0085302,22 L12.1659169,22 C12.4718109,20.1766868 13.1888742,18.4927963 14.2185042,17.0469313 L9.86389614,12.6923233 C9.0795163,11.9079434 9.07137047,10.6443583 9.85786438,9.85786438 C10.638913,9.07681579 11.9098532,9.08142603 12.6923233,9.86389614 L17.0469313,14.2185042 C18.4927963,13.1888742 20.1766868,12.4718109 22,12.1659169 L22,6.0085302 C22,4.8992496 22.8877296,4 24,4 C25.1045695,4 26,4.90195036 26,6.0085302 L26,12.1659169 C27.8233132,12.4718109 29.5072037,13.1888742 30.9530687,14.2185042 L35.3076767,9.86389614 C36.0920566,9.0795163 37.3556417,9.07137047 38.1421356,9.85786438 C38.9231842,10.638913 38.918574,11.9098532 38.1361039,12.6923233 L33.7814958,17.0469313 C34.8111258,18.4927963 35.5281891,20.1766868 35.8340831,22 L41.9914698,22 C43.1007504,22 44,22.8877296 44,24 C44,25.1045695 43.0980496,26 41.9914698,26 L35.8340831,26 C35.5281891,27.8233132 34.8111258,29.5072037 33.7814958,30.9530687 L38.1361039,35.3076767 C38.918574,36.0901468 38.9231842,37.361087 38.1421356,38.1421356 C37.3556417,38.9286295 36.0920566,38.9204837 35.3076767,38.1361039 L30.9530687,33.7814958 C29.5072037,34.8111258 27.8233132,35.5281891 26,35.8340831 L26,41.9914698 C26,43.0980496 25.1045695,44 24,44 C22.8877296,44 22,43.1007504 22,41.9914698 L22,35.8340831 C20.1766868,35.5281891 18.4927963,34.8111258 17.0469313,33.7814958 L12.6923233,38.1361039 C11.9098532,38.918574 10.638913,38.9231842 9.85786438,38.1421356 C9.07137047,37.3556417 9.0795163,36.0920566 9.86389614,35.3076767 L14.2185042,30.9530687 C13.1888742,29.5072037 12.4718109,27.8233132 12.1659169,26 Z M24,32 C28.418278,32 32,28.418278 32,24 C32,19.581722 28.418278,16 24,16 C19.581722,16 16,19.581722 16,24 C16,28.418278 19.581722,32 24,32 Z" id="Shape" fill="#000000" fill-rule="nonzero"></path>
    </g>
</svg>