<?xml version="1.0" encoding="UTF-8"?>
<svg width="48px" height="48px" viewBox="0 0 48 48" version="1.1" xmlns="http://www.w3.org/2000/svg" xmlns:xlink="http://www.w3.org/1999/xlink">
    <!-- Generator: Sketch 43.2 (39069) - http://www.bohemiancoding.com/sketch -->
    <title>theicons.co/svg/weather-08</title>
    <desc>Created with Sketch.</desc>
    <defs></defs>
    <g id="The-Icons" stroke="none" stroke-width="1" fill="none" fill-rule="evenodd">
        <path d="M36,26 C40.418278,26 44,29.581722 44,34 C44,38.418278 40.418278,42 36,42 C31.581722,42 28,38.418278 28,34 C28,32.8954305 28.8954305,32 30,32 C31.1045695,32 32,32.8954305 32,34 C32,36.209139 33.790861,38 36,38 C38.209139,38 40,36.209139 40,34 C40,31.790861 38.209139,30 36,30 L14.0049466,30 C12.8970262,30 12,29.1045695 12,28 C12,26.8877296 12.8976452,26 14.0049466,26 L36,26 Z M24,18 L5.99079514,18 C4.89821238,18 4,18.8954305 4,20 C4,21.1122704 4.89130934,22 5.99079514,22 L24,22 C28.418278,22 32,18.418278 32,14 C32,9.581722 28.418278,6 24,6 C19.581722,6 16,9.581722 16,14 C16,15.1045695 16.8954305,16 18,16 C19.1045695,16 20,15.1045695 20,14 C20,11.790861 21.790861,10 24,10 C26.209139,10 28,11.790861 28,14 C28,16.209139 26.209139,18 24,18 Z M4,36 C4,34.8954305 4.89821238,34 5.99079514,34 L22.0092049,34 C23.1086907,34 24,34.8877296 24,36 C24,37.1045695 23.1017876,38 22.0092049,38 L5.99079514,38 C4.89130934,38 4,37.1122704 4,36 Z M4,28 C4,26.8954305 4.89826062,26 5.99791312,26 L8.00208688,26 C9.10550383,26 10,26.8877296 10,28 C10,29.1045695 9.10173938,30 8.00208688,30 L5.99791312,30 C4.89449617,30 4,29.1122704 4,28 Z" id="Rectangle-917" fill="#000000"></path>
    </g>
</svg>