<?xml version="1.0" encoding="UTF-8"?>
<svg width="48px" height="48px" viewBox="0 0 48 48" version="1.1" xmlns="http://www.w3.org/2000/svg" xmlns:xlink="http://www.w3.org/1999/xlink">
    <!-- Generator: Sketch 43.2 (39069) - http://www.bohemiancoding.com/sketch -->
    <title>theicons.co/svg/weather-05</title>
    <desc>Created with Sketch.</desc>
    <defs></defs>
    <g id="The-Icons" stroke="none" stroke-width="1" fill="none" fill-rule="evenodd">
        <path d="M28.7884597,29.0000004 C29.8889126,29.0000004 30.2837416,29.7433599 29.6688854,30.6625072 L24.2158184,38.8142862 C22.9920555,40.6436868 21.9999998,40.3427214 21.9999998,38.1526408 L21.9999999,33.037879 L19.2376026,33.0378791 C18.1335427,33.0378791 17.7346837,32.2947526 18.3481722,31.3758933 L23.800419,23.20973 C25.015214,21.3902573 25.9999999,21.6850548 25.9999999,23.8881061 L26,29.0000002 L28.7884597,29.0000004 Z M14.8411865,30.7369995 C14.8411865,31.841569 13.945756,32.7369995 12.8411865,32.7369995 C12.6646572,32.7369995 12.4934695,32.7141288 12.3304251,32.6711888 C7.54498493,31.4805284 4,27.154252 4,22 C4,15.9248678 8.92486775,11 15,11 C17.0843914,7.98047317 20.5609136,6 24.5,6 C30.0032016,6 34.6035608,9.86552765 35.7339938,15.0294991 C40.3612595,15.4029824 44,19.2765545 44,24 C44,28.9705627 39.9705627,33 35,33 C33.8954305,33 33,32.1045695 33,31 C33,29.8954305 33.8954305,29 35,29 C37.7614237,29 40,26.7614237 40,24 C40,21.3911191 37.9920784,19.2247655 35.4121859,19.0165331 L33.6321741,19.016533 C33.0767362,19.0165329 32.5152363,18.5810892 32.377743,18.0428232 L31.8265224,15.8848746 C31.0800993,12.4751125 28.0408031,10 24.5,10 C24.1713857,10 23.8464647,10.0212146 23.5267774,10.0626579 C19.8427462,10.5415582 17,13.6887996 17,17.5 C17,18.6045695 16.1045695,19.5 15,19.5 C13.8954305,19.5 13,18.6045695 13,17.5 C13,16.722352 13.077187,15.962732 13.2243175,15.2283834 C10.2159781,16.0159154 8,18.749173 8,22 C8,25.2573541 10.2248857,27.9950584 13.2378835,28.7763392 C14.1524248,28.9603689 14.8411865,29.7682497 14.8411865,30.7369995 Z" id="Shape" fill="#000000"></path>
    </g>
</svg>