<?xml version="1.0" encoding="UTF-8"?>
<svg width="48px" height="48px" viewBox="0 0 48 48" version="1.1" xmlns="http://www.w3.org/2000/svg" xmlns:xlink="http://www.w3.org/1999/xlink">
    <!-- Generator: Sketch 43.2 (39069) - http://www.bohemiancoding.com/sketch -->
    <title>theicons.co/svg/weather-09</title>
    <desc>Created with Sketch.</desc>
    <defs></defs>
    <g id="The-Icons" stroke="none" stroke-width="1" fill="none" fill-rule="evenodd">
        <path d="M44,12 C44,17.4864685 34.9652047,21 24,21 C13.0347953,21 4,17.4864685 4,12 C4,6.5135315 13.0347953,3 24,3 C34.9652047,3 44,6.5135315 44,12 Z M24,29 C18.246615,29 12.8357796,27.9350724 9.14394221,26.1776268 C8.14661002,25.7028613 7.72298603,24.5094903 8.19775155,23.5121581 C8.67251706,22.5148259 9.86588803,22.0912019 10.8632202,22.5659674 C13.9678368,24.0438751 18.8017895,25 24,25 C29.2456184,25 34.0217671,24.0654862 37.1204533,22.5659674 C38.1147223,22.08482 39.3107837,22.5007871 39.7919312,23.4950562 C40.2730786,24.4893252 39.8571115,25.6853866 38.8628424,26.1665341 C35.1689769,27.9540725 29.8082113,29 24,29 Z M24,37 C21.0946553,37 18.2109838,36.7429778 15.6423424,36.253029 C14.5573343,36.046072 13.8455332,34.9987274 14.0524902,33.9137193 C14.2594472,32.8287112 15.3067919,32.1169101 16.3918,32.3238671 C18.708984,32.7658523 21.3419457,33 24,33 C26.7200494,33 29.2628902,32.7972878 31.62082,32.3354449 C32.7047922,32.1231295 33.7556411,32.829747 33.9679565,33.9137193 C34.180272,34.9976915 33.4736545,36.0485404 32.3896822,36.2608558 C29.7736914,36.7732447 26.9736133,37 24,37 Z M24,45 C22.9588117,45 21.9278361,44.9670166 20.9138217,44.9018238 C19.811528,44.8309554 18.9753926,43.8799196 19.046261,42.7776258 C19.1171294,41.6753321 20.0681653,40.8391967 21.170459,40.9100651 C22.0988772,40.9697548 23.0442639,41 24,41 C25.3159317,41 26.5743236,41.0029022 27.8320145,40.8905235 C28.9322008,40.7922184 29.9037701,41.6044036 30.0020752,42.7045898 C30.1003803,43.8047761 29.2881952,44.7763454 28.1880089,44.8746505 C26.8115042,44.9976456 25.4343344,45 24,45 Z M8,12 C8,14.245518 15.0829537,17 24,17 C32.9170463,17 40,14.245518 40,12 C40,9.754482 32.9170463,7 24,7 C15.0829537,7 8,9.754482 8,12 Z" id="Combined-Shape" fill="#000000" fill-rule="nonzero"></path>
    </g>
</svg>