<?xml version="1.0" encoding="UTF-8"?>
<svg width="48px" height="48px" viewBox="0 0 48 48" version="1.1" xmlns="http://www.w3.org/2000/svg" xmlns:xlink="http://www.w3.org/1999/xlink">
    <!-- Generator: Sketch 43.2 (39069) - http://www.bohemiancoding.com/sketch -->
    <title>theicons.co/svg/weather-06</title>
    <desc>Created with Sketch.</desc>
    <defs></defs>
    <g id="The-Icons" stroke="none" stroke-width="1" fill="none" fill-rule="evenodd">
        <path d="M30,33 L26,33 C26,34.1045695 25.1045695,35 24,35 C22.8954305,35 22,34.1045695 22,33 L18,33 C18,34.1045695 17.1045695,35 16,35 C14.8954305,35 14,34.1045695 14,33 C8.39375694,32.4502038 4,27.7382103 4,22 C4,15.9248678 8.92486775,11 15,11 C17.0843914,7.98047317 20.5609136,6 24.5,6 C30.0032016,6 34.6035608,9.86552765 35.7339938,15.0294991 C40.3612595,15.4029824 44,19.2765545 44,24 C44,28.9705627 39.9705627,33 35,33 L34,33 C34,34.1045695 33.1045695,35 32,35 C30.8954305,35 30,34.1045695 30,33 Z M8,22 C8,25.8659932 11.1340068,29 15,29 L35,29 C37.7614237,29 40,26.7614237 40,24 C40,21.3911191 37.9920784,19.2247655 35.4121859,19.0165331 L33.6321741,19.016533 C33.0767362,19.0165329 32.5152363,18.5810892 32.377743,18.0428232 L31.8265224,15.8848746 C31.0800993,12.4751125 28.0408031,10 24.5,10 C24.1713857,10 23.8464647,10.0212146 23.5267774,10.0626579 C19.8427462,10.5415582 17,13.6887996 17,17.5 C17,18.6045695 16.1045695,19.5 15,19.5 C13.8954305,19.5 13,18.6045695 13,17.5 C13,16.722352 13.077187,15.962732 13.2243175,15.2283834 C10.2159781,16.0159154 8,18.749173 8,22 Z M28,42 C26.8954305,42 26,41.1045695 26,40 C26,38.8954305 26.8954305,38 28,38 C29.1045695,38 30,38.8954305 30,40 C30,41.1045695 29.1045695,42 28,42 Z M20,42 C18.8954305,42 18,41.1045695 18,40 C18,38.8954305 18.8954305,38 20,38 C21.1045695,38 22,38.8954305 22,40 C22,41.1045695 21.1045695,42 20,42 Z" id="Shape" fill="#000000"></path>
    </g>
</svg>