<?xml version="1.0" encoding="UTF-8"?>
<svg width="48px" height="48px" viewBox="0 0 48 48" version="1.1" xmlns="http://www.w3.org/2000/svg" xmlns:xlink="http://www.w3.org/1999/xlink">
    <!-- Generator: Sketch 43.2 (39069) - http://www.bohemiancoding.com/sketch -->
    <title>theicons.co/svg/weather-10</title>
    <desc>Created with Sketch.</desc>
    <defs></defs>
    <g id="The-Icons" stroke="none" stroke-width="1" fill="none" fill-rule="evenodd">
        <path d="M6.0085302,20 L15.0054515,20 C15.5447243,20 16,20.4485094 16,21.0017738 L16,22 C16,26.418278 19.581722,30 24,30 C28.418278,30 32,26.418278 32,22 L32,21.0017738 C32,20.4507209 32.4452745,20 32.9945485,20 L41.9914698,20 C43.1007504,20 44,20.8877296 44,22 C44,23.1045695 43.0980496,24 41.9914698,24 L35.8340831,24 C35.5281891,25.8233132 34.8111258,27.5072037 33.7814958,28.9530687 L38.1361039,33.3076767 C38.918574,34.0901468 38.9231842,35.361087 38.1421356,36.1421356 C37.3556417,36.9286295 36.0920566,36.9204837 35.3076767,36.1361039 L30.9530687,31.7814958 C29.5072037,32.8111258 27.8233132,33.5281891 26,33.8340831 L26,39.9914698 C26,41.0980496 25.1045695,42 24,42 C22.8877296,42 22,41.1007504 22,39.9914698 L22,33.8340831 C20.1766868,33.5281891 18.4927963,32.8111258 17.0469313,31.7814958 L12.6923233,36.1361039 C11.9098532,36.918574 10.638913,36.9231842 9.85786438,36.1421356 C9.07137047,35.3556417 9.0795163,34.0920566 9.86389614,33.3076767 L14.2185042,28.9530687 C13.1888742,27.5072037 12.4718109,25.8233132 12.1659169,24 L6.0085302,24 C4.90195036,24 4,23.1045695 4,22 C4,20.8877296 4.8992496,20 6.0085302,20 Z M8,8 C8,6.88772964 8.89764516,6 10.0049466,6 L29.9950534,6 C31.1029738,6 32,6.8954305 32,8 C32,9.11227036 31.1023548,10 29.9950534,10 L10.0049466,10 C8.89702623,10 8,9.1045695 8,8 Z M34,8 C34,6.88772964 34.8944962,6 35.9979131,6 L38.0020869,6 C39.1017394,6 40,6.8954305 40,8 C40,9.11227036 39.1055038,10 38.0020869,10 L35.9979131,10 C34.8982606,10 34,9.1045695 34,8 Z M4,14 C4,12.8877296 4.89421792,12 5.99729162,12 L42.0027084,12 C43.1084602,12 44,12.8954305 44,14 C44,15.1122704 43.1057821,16 42.0027084,16 L5.99729162,16 C4.89153983,16 4,15.1045695 4,14 Z" id="Combined-Shape" fill="#000000" fill-rule="nonzero"></path>
    </g>
</svg>