<?xml version="1.0" encoding="UTF-8"?>
<svg width="48px" height="48px" viewBox="0 0 48 48" version="1.1" xmlns="http://www.w3.org/2000/svg" xmlns:xlink="http://www.w3.org/1999/xlink">
    <!-- Generator: Sketch 43.2 (39069) - http://www.bohemiancoding.com/sketch -->
    <title>theicons.co/svg/weather-07</title>
    <desc>Created with Sketch.</desc>
    <defs></defs>
    <g id="The-Icons" stroke="none" stroke-width="1" fill="none" fill-rule="evenodd">
        <path d="M40,24 C40,21.3911191 37.9920784,19.2247655 35.4121859,19.0165331 L33.6321741,19.016533 C33.0767362,19.0165329 32.5152363,18.5810892 32.377743,18.0428232 L31.8265224,15.8848746 C31.0800993,12.4751125 28.0408031,10 24.5,10 C24.1713857,10 23.8464647,10.0212146 23.5267774,10.0626579 C19.8427462,10.5415582 17,13.6887996 17,17.5 C17,18.6045695 16.1045695,19.5 15,19.5 C13.8954305,19.5 13,18.6045695 13,17.5 C13,16.722352 13.077187,15.962732 13.2243175,15.2283834 C10.2159781,16.0159154 8,18.749173 8,22 C8,22.7975327 8.1333751,23.563914 8.37903712,24.2780557 C8.45869175,24.5011055 8.50488281,24.7411912 8.50488281,24.9920654 C8.50488281,26.0966349 7.60945231,26.9920654 6.50488281,26.9920654 C5.58331632,26.9920654 4.80733002,26.3687625 4.57549841,25.5207313 C4.20230841,24.415357 4,23.2313044 4,22 C4,15.9248678 8.92486775,11 15,11 C17.0843914,7.98047317 20.5609136,6 24.5,6 C30.0032016,6 34.6035608,9.86552765 35.7339938,15.0294991 C40.3612595,15.4029824 44,19.2765545 44,24 C44,24.4642294 43.9648522,24.9202495 43.8970725,25.3655445 C43.7241038,26.2954474 42.908869,27 41.9290771,27 C40.8245076,27 39.9290771,26.1045695 39.9290771,25 C39.9290771,24.9063541 39.9355133,24.8142114 39.9479673,24.7239901 C39.9832094,24.4743889 40,24.2391553 40,24 Z M8,39 C8,37.8954305 8.89702623,37 10.0049466,37 L29.9950534,37 C31.1023548,37 32,37.8877296 32,39 C32,40.1045695 31.1029738,41 29.9950534,41 L10.0049466,41 C8.89764516,41 8,40.1122704 8,39 Z M34,39 C34,37.8954305 34.8982606,37 35.9979131,37 L38.0020869,37 C39.1055038,37 40,37.8877296 40,39 C40,40.1045695 39.1017394,41 38.0020869,41 L35.9979131,41 C34.8944962,41 34,40.1122704 34,39 Z M4,33 C4,31.8954305 4.89153983,31 5.99729162,31 L42.0027084,31 C43.1057821,31 44,31.8877296 44,33 C44,34.1045695 43.1084602,35 42.0027084,35 L5.99729162,35 C4.89421792,35 4,34.1122704 4,33 Z" id="Shape" fill="#000000"></path>
    </g>
</svg>