<?xml version="1.0" encoding="UTF-8"?>
<svg width="48px" height="48px" viewBox="0 0 48 48" version="1.1" xmlns="http://www.w3.org/2000/svg" xmlns:xlink="http://www.w3.org/1999/xlink">
    <!-- Generator: Sketch 43.2 (39069) - http://www.bohemiancoding.com/sketch -->
    <title>theicons.co/svg/weather-02</title>
    <desc>Created with Sketch.</desc>
    <defs></defs>
    <g id="The-Icons" stroke="none" stroke-width="1" fill="none" fill-rule="evenodd">
        <path d="M30,38 C31.1045695,38 32,37.1045695 32,36 C32,34.8954305 31.1045695,34 30,34 C29.9979673,34.0000006 27.1771374,34.0053817 27.1771374,34.0053817 C26.6218899,34.0064408 26.1512302,33.5690996 26.1247219,33.0036458 L25.9926936,30.1873242 C25.830776,26.7334271 22.9740483,24 19.5,24 C16.894363,24 14.573042,25.5459845 13.5435077,27.8914289 L12.7770461,29.6375516 L10.9379019,30.141493 C9.21814208,30.612722 8,32.1869574 8,34 C8,36.209139 9.790861,38 12,38 L30,38 Z M34.7737274,32.3647083 C35.5431023,33.3734778 36,34.6333818 36,36 C36,39.3137085 33.3137085,42 30,42 L12,42 C7.581722,42 4,38.418278 4,34 C4,30.3153659 6.49100457,27.2125372 9.88083216,26.2836952 C11.3642429,22.9042471 14.5763519,20.455697 18.3980743,20.0571294 C18.7278776,18.8663965 19.2529014,17.7567967 19.9365243,16.7649514 L16.9789125,13.8073396 C16.1980142,13.0264414 16.1926908,11.7656786 16.9791847,10.9791847 C17.7602333,10.1981361 19.0209084,10.1924813 19.8073396,10.9789125 L22.7649514,13.9365243 C24.0142167,13.0754763 25.4502915,12.4660351 27,12.1813762 L27,7.99961498 C27,6.89525812 27.8877296,6 29,6 C30.1045695,6 31,6.88743329 31,7.99961498 L31,12.1813762 C32.5497085,12.4660351 33.9857833,13.0754763 35.2350486,13.9365243 L38.1926604,10.9789125 C38.9735586,10.1980142 40.2343214,10.1926908 41.0208153,10.9791847 C41.8018639,11.7602333 41.8075187,13.0209084 41.0210875,13.8073396 L38.0634757,16.7649514 C38.9245237,18.0142167 39.5339649,19.4502915 39.8186238,21 L44.000385,21 C45.1047419,21 46,21.8877296 46,23 C46,24.1045695 45.1125667,25 44.000385,25 L39.8186238,25 C39.5339649,26.5497085 38.9245237,27.9857833 38.0634757,29.2350486 L41.0210875,32.1926604 C41.8019858,32.9735586 41.8073092,34.2343214 41.0208153,35.0208153 C40.2397667,35.8018639 38.9790916,35.8075187 38.1926604,35.0210875 L35.2350449,32.0634721 C35.083964,32.1676098 34.9301472,32.2680638 34.7737274,32.3647083 Z M36,23 C36,19.1340068 32.8659932,16 29,16 C27.0882721,16 25.3430328,16.7709588 24.0733659,18.0267683 C24.0418761,18.058629 24.0334444,18.0669163 24.0249588,18.0751144 C23.3644254,18.7412553 22.8362043,19.5401714 22.4850942,20.4303939 C26.6560411,21.6649544 29.7442992,25.4204048 29.9848859,29.9317625 C30.5531269,29.8521872 31.104383,29.7036999 31.6309363,29.4899076 C32.4917978,29.1403786 33.2586987,28.6302648 33.9004243,28.0007947 C33.9165041,27.9835687 33.9329451,27.9665499 33.9497475,27.9497475 C33.9661518,27.9333431 33.9827678,27.9172808 33.9995865,27.9015606 C35.2510883,26.6238436 36,24.8815428 36,23 Z" id="Shape" fill="#000000" fill-rule="nonzero"></path>
    </g>
</svg>