<?xml version="1.0" encoding="iso-8859-1"?>
<!-- Generator: Adobe Illustrator 19.0.0, SVG Export Plug-In . SVG Version: 6.00 Build 0)  -->
<svg version="1.1" id="Layer_1" xmlns="http://www.w3.org/2000/svg" xmlns:xlink="http://www.w3.org/1999/xlink" x="0px" y="0px"
	 viewBox="0 0 512 512" style="enable-background:new 0 0 512 512;" xml:space="preserve">
<rect x="361.931" y="189.793" style="fill:#625D6B;" width="17.655" height="26.483"/>
<path style="fill:#736F7B;" d="M61.793,172.138H35.31c-4.875,0-8.828-3.953-8.828-8.828l0,0c0-4.875,3.953-8.828,8.828-8.828h26.483
	V172.138z"/>
<rect x="307.35" y="176.24" transform="matrix(-0.9528 0.3036 -0.3036 -0.9528 678.9785 299.8846)" style="fill:#625D6B;" width="17.655" height="52.966"/>
<path style="fill:#736F7B;" d="M327.636,180.551l-33.644,10.719c-4.646,1.48-9.611-1.086-11.091-5.731l0,0
	c-1.48-4.646,1.086-9.611,5.731-11.091l33.644-10.719c4.646-1.48,9.611,1.086,11.091,5.731l0,0
	C334.848,174.105,332.281,179.071,327.636,180.551z"/>
<path style="fill:#625D6B;" d="M429.965,86.448c-3.448-3.448-9.035-3.448-12.482,0l-6.242,6.241
	c-3.336,3.336-5.172,7.767-5.172,12.482v111.104h17.655V105.172l6.241-6.241C433.414,95.482,433.414,89.896,429.965,86.448z"/>
<g>
	<path style="fill:#736F7B;" d="M423.724,136.827h-17.655c-4.875,0-8.828,3.953-8.828,8.828v70.621h35.31v-70.621
		C432.552,140.78,428.599,136.827,423.724,136.827z"/>
	<rect x="317.793" y="260.413" style="fill:#736F7B;" width="132.414" height="35.31"/>
</g>
<g>
	<polygon style="fill:#FFC84B;" points="44.138,180.965 70.621,154.482 176.552,154.482 229.517,198.62 229.517,269.241 
		44.138,269.241 	"/>
	<rect x="229.517" y="286.896" style="fill:#FFC84B;" width="194.207" height="52.966"/>
</g>
<g>
	<path style="fill:#FFDC5A;" d="M379.586,278.069h44.138c4.875,0,8.828,3.953,8.828,8.828v8.828c0,4.875-3.953,8.828-8.828,8.828
		h-44.138c-4.875,0-8.828-3.953-8.828-8.828v-8.828C370.759,282.021,374.71,278.069,379.586,278.069z"/>
	<path style="fill:#FFDC5A;" d="M317.793,207.448h185.378c5.123,0,9.17,4.346,8.806,9.457l-7.566,105.931
		c-0.33,4.619-4.174,8.199-8.806,8.199h-36.57l-15.826-55.391c-1.082-3.789-4.546-6.402-8.488-6.402H317.793
		c-4.875,0-8.828-3.953-8.828-8.828v-44.138C308.966,211.4,312.918,207.448,317.793,207.448z"/>
</g>
<path style="fill:#FFC84B;" d="M467.862,225.103H308.966v35.31c0,4.875,3.953,8.828,8.828,8.828h116.928
	c3.941,0,7.405,2.613,8.488,6.402l13.303,46.563h20.178v-88.276C476.69,229.055,472.737,225.103,467.862,225.103z"/>
<g>
	<circle style="fill:#625D6B;" cx="123.586" cy="304.551" r="123.586"/>
	<circle style="fill:#625D6B;" cx="423.724" cy="357.517" r="70.621"/>
</g>
<circle style="fill:#FFDC5A;" cx="423.724" cy="357.517" r="44.138"/>
<circle style="fill:#FFC84B;" cx="423.724" cy="357.517" r="35.31"/>
<g>
	<circle style="fill:#FFDC5A;" cx="123.586" cy="304.551" r="79.448"/>
	<circle style="fill:#FFDC5A;" cx="423.724" cy="357.517" r="17.655"/>
</g>
<path style="fill:#FFC84B;" d="M111.102,366.971l-49.937-49.937c-6.894-6.894-6.894-18.073,0-24.968l49.937-49.937
	c6.894-6.894,18.073-6.894,24.968,0l49.937,49.937c6.894,6.894,6.894,18.073,0,24.968l-49.937,49.937
	C129.175,373.867,117.997,373.867,111.102,366.971z"/>
<g>
	<circle style="fill:#FFDC5A;" cx="123.586" cy="304.551" r="26.483"/>
	<path style="fill:#FFDC5A;" d="M220.69,207.448c-2.259,0-4.518-0.862-6.241-2.586l-36.38-36.38
		c-3.336-3.336-7.772-5.173-12.487-5.173H81.59c-4.715,0-9.151,1.836-12.487,5.173l-36.38,36.38c-3.448,3.448-9.034,3.448-12.482,0
		s-3.448-9.035,0-12.483l36.38-36.38c6.667-6.671,15.538-10.344,24.969-10.344h83.991c9.431,0,18.302,3.672,24.97,10.345
		l36.38,36.38c3.448,3.448,3.448,9.035,0,12.483C225.207,206.586,222.948,207.448,220.69,207.448z"/>
</g>
<g>
	<path style="fill:#736F7B;" d="M485.517,269.241h-4.414c-7.313,0-13.241-5.929-13.241-13.241l0,0
		c0-7.313,5.929-13.241,13.241-13.241h4.414c4.875,0,8.828,3.953,8.828,8.828v8.828
		C494.345,265.288,490.392,269.241,485.517,269.241z"/>
	<path style="fill:#736F7B;" d="M379.586,198.62h-17.655c-4.875,0-8.828-3.953-8.828-8.828v-8.828c0-4.875,3.953-8.828,8.828-8.828
		h17.655c4.875,0,8.828,3.953,8.828,8.828v8.828C388.414,194.668,384.461,198.62,379.586,198.62z"/>
</g>
<g>
</g>
<g>
</g>
<g>
</g>
<g>
</g>
<g>
</g>
<g>
</g>
<g>
</g>
<g>
</g>
<g>
</g>
<g>
</g>
<g>
</g>
<g>
</g>
<g>
</g>
<g>
</g>
<g>
</g>
</svg>
