<?xml version="1.0" encoding="iso-8859-1"?>
<!-- Generator: Adobe Illustrator 19.0.0, SVG Export Plug-In . SVG Version: 6.00 Build 0)  -->
<svg version="1.1" id="Layer_1" xmlns="http://www.w3.org/2000/svg" xmlns:xlink="http://www.w3.org/1999/xlink" x="0px" y="0px"
	 viewBox="0 0 512 512" style="enable-background:new 0 0 512 512;" xml:space="preserve">
<rect x="331.031" y="-16.68" transform="matrix(-0.4472 -0.8944 0.8944 -0.4472 359.1404 504.4211)" style="fill:#504B5A;" width="8.827" height="315.821"/>
<rect x="141.242" y="247.173" style="fill:#736F7B;" width="35.31" height="26.483"/>
<path style="fill:#8D8A94;" d="M88.276,238.345h57.38c2.438,0,4.414,1.976,4.414,4.414v30.897H88.276V238.345z"/>
<path style="fill:#CAC9CD;" d="M101.518,220.689h-35.31c-2.438,0-4.414,1.976-4.414,4.414v48.552h44.138v-48.552
	C105.931,222.666,103.955,220.689,101.518,220.689z"/>
<circle style="fill:#736F7B;" cx="194.208" cy="229.518" r="22.069"/>
<path style="fill:#FFDC5A;" d="M158.897,273.655l24.083-40.138c1.49-2.482,4.171-4,7.065-4h8.324c2.894,0,5.577,1.518,7.065,4
	l24.083,40.138H158.897z"/>
<g>
	<rect x="194.208" y="388.415" style="fill:#736F7B;" width="105.931" height="8.828"/>
	<polygon style="fill:#736F7B;" points="291.312,335.449 203.035,335.449 211.863,291.31 282.484,291.31 	"/>
</g>
<g>
	<rect x="240.553" y="282.484" style="fill:#8D8A94;" width="13.241" height="158.897"/>
	<polygon style="fill:#8D8A94;" points="302.432,442.466 275.949,283.569 289.019,281.397 315.501,440.294 	"/>
	<polygon style="fill:#8D8A94;" points="191.915,442.466 178.845,440.294 205.328,281.397 218.398,283.569 	"/>
</g>
<path style="fill:#625D6B;" d="M504.914,275.172c-1.043-0.552-1.741-1.965-1.741-3.521v-11.238h-8.828v11.238
	c0,4.897,2.474,9.237,6.465,11.332c1.457,0.767,2.362,2.268,2.362,3.914c0,2.435-1.983,4.414-4.414,4.414s-4.414-1.978-4.414-4.414
	c0-2.44-1.974-4.414-4.414-4.414c-2.44,0-4.414,1.974-4.414,4.414c0,7.302,5.94,13.241,13.241,13.241
	c7.302,0,13.241-5.94,13.241-13.241C512,281.961,509.284,277.47,504.914,275.172z"/>
<rect x="494.347" y="79.448" style="fill:#504B5A;" width="8.828" height="163.311"/>
<path style="fill:#FFC84B;" d="M498.759,269.241L498.759,269.241c-4.875,0-8.828-3.953-8.828-8.828v-17.655
	c0-4.875,3.953-8.828,8.828-8.828l0,0c4.875,0,8.828,3.953,8.828,8.828v17.655C507.586,265.289,503.634,269.241,498.759,269.241z"/>
<path style="fill:#FFDC5A;" d="M132.414,335.449H61.793c-4.875,0-8.828-3.953-8.828-8.828v-44.138h88.276v44.138
	C141.242,331.496,137.289,335.449,132.414,335.449z"/>
<circle style="fill:#625D6B;" cx="485.519" cy="79.448" r="17.655"/>
<path style="fill:#FFC84B;" d="M491.476,72.928c-3.604-3.276-9.181-3.043-12.475,0.561L300.139,269.258v-0.019H52.968
	c-4.875,0-8.828,3.953-8.828,8.828v8.828c0,4.875,3.953,8.828,8.828,8.828H291.31c6.958,0,13.515-5.412,15.227-7.285l185.5-203.035
	C495.321,81.799,495.071,76.212,491.476,72.928z"/>
<path style="fill:#736F7B;" d="M348.691,450.208H4.414c-2.438,0-4.414-1.976-4.414-4.414v-8.828c0-2.438,1.976-4.414,4.414-4.414
	h344.277c2.438,0,4.414,1.976,4.414,4.414v8.828C353.105,448.231,351.129,450.208,348.691,450.208z"/>
<path style="fill:#8D8A94;" d="M92.69,247.172H75.035c-2.438,0-4.414-1.976-4.414-4.414v-8.828c0-2.438,1.976-4.414,4.414-4.414
	H92.69c2.438,0,4.414,1.976,4.414,4.414v8.828C97.104,245.196,95.128,247.172,92.69,247.172z"/>
<circle style="fill:#504B5A;" cx="194.208" cy="229.518" r="8.828"/>
<g>
</g>
<g>
</g>
<g>
</g>
<g>
</g>
<g>
</g>
<g>
</g>
<g>
</g>
<g>
</g>
<g>
</g>
<g>
</g>
<g>
</g>
<g>
</g>
<g>
</g>
<g>
</g>
<g>
</g>
</svg>
