<?xml version="1.0" encoding="iso-8859-1"?>
<!-- Generator: Adobe Illustrator 19.0.0, SVG Export Plug-In . SVG Version: 6.00 Build 0)  -->
<svg version="1.1" id="Layer_1" xmlns="http://www.w3.org/2000/svg" xmlns:xlink="http://www.w3.org/1999/xlink" x="0px" y="0px"
	 viewBox="0 0 512 512" style="enable-background:new 0 0 512 512;" xml:space="preserve">
<path style="fill:#FFC84B;" d="M503.172,145.655H8.828c-4.875,0-8.828-3.953-8.828-8.828V128h512v8.828
	C512,141.703,508.047,145.655,503.172,145.655z"/>
<path style="fill:#FFDC5A;" d="M512,128H0l21.312-21.312c3.31-3.31,7.801-5.171,12.483-5.171h444.408
	c4.682,0,9.173,1.86,12.484,5.171L512,128z"/>
<path style="fill:#FFC84B;" d="M88.276,136.828h-35.31l-17.655,256h10.177c4.316,0,7.998-3.119,8.707-7.377L88.276,136.828z"/>
<g>
	<path style="fill:#FFDC5A;" d="M88.276,136.828h-35.31v-35.31c0-4.875,3.953-8.828,8.828-8.828h17.655
		c4.875,0,8.828,3.953,8.828,8.828V136.828z"/>
	<path style="fill:#FFDC5A;" d="M36.902,419.31H35.31c-4.875,0-8.828-3.953-8.828-8.828V384c0-4.875,3.953-8.828,8.828-8.828h6.888
		c5.57,0,9.749,5.097,8.657,10.559l-5.297,26.483C44.732,416.34,41.109,419.31,36.902,419.31z"/>
</g>
<path style="fill:#FFC84B;" d="M423.724,136.828h35.31l17.655,256h-10.177c-4.316,0-7.998-3.119-8.707-7.377L423.724,136.828z"/>
<g>
	<path style="fill:#FFDC5A;" d="M423.724,136.828h35.31v-35.31c0-4.875-3.953-8.828-8.828-8.828h-17.655
		c-4.875,0-8.828,3.953-8.828,8.828V136.828z"/>
	<path style="fill:#FFDC5A;" d="M475.099,419.31h1.591c4.875,0,8.828-3.953,8.828-8.828V384c0-4.875-3.953-8.828-8.828-8.828h-6.888
		c-5.57,0-9.749,5.097-8.657,10.559l5.297,26.483C467.267,416.34,470.891,419.31,475.099,419.31z"/>
</g>
<path style="fill:#736F7B;" d="M401.655,132.414h-291.31c-2.438,0-4.414-1.976-4.414-4.414l0,0c0-2.438,1.976-4.414,4.414-4.414
	h291.31c2.438,0,4.414,1.976,4.414,4.414l0,0C406.069,130.438,404.093,132.414,401.655,132.414z"/>
<path style="fill:#8D8A94;" d="M191.534,310.483c-1.043-0.547-1.741-1.961-1.741-3.513V154.483h-8.828v152.487
	c0,4.893,2.474,9.228,6.461,11.328c1.462,0.763,2.367,2.263,2.367,3.91c0,2.435-1.978,4.414-4.414,4.414
	c-2.435,0-4.414-1.978-4.414-4.414c0-2.44-1.974-4.414-4.414-4.414c-2.44,0-4.414,1.974-4.414,4.414
	c0,7.302,5.94,13.241,13.241,13.241c7.302,0,13.241-5.94,13.241-13.241C198.621,317.267,195.905,312.776,191.534,310.483z"/>
<path style="fill:#736F7B;" d="M198.621,163.31h-26.483c-2.438,0-4.414-1.976-4.414-4.414v-8.828c0-2.438,1.976-4.414,4.414-4.414
	h26.483c2.438,0,4.414,1.976,4.414,4.414v8.828C203.034,161.334,201.058,163.31,198.621,163.31z"/>
<path style="fill:#8D8A94;" d="M185.379,154.483L185.379,154.483c-4.875,0-8.828-3.953-8.828-8.828v-13.241
	c0-2.438,1.976-4.414,4.414-4.414h8.828c2.438,0,4.414,1.976,4.414,4.414v13.241C194.207,150.53,190.254,154.483,185.379,154.483z"
	/>
<circle style="fill:#FFDC5A;" cx="185.379" cy="295.724" r="8.828"/>
<g>
</g>
<g>
</g>
<g>
</g>
<g>
</g>
<g>
</g>
<g>
</g>
<g>
</g>
<g>
</g>
<g>
</g>
<g>
</g>
<g>
</g>
<g>
</g>
<g>
</g>
<g>
</g>
<g>
</g>
</svg>
