<?xml version="1.0" encoding="iso-8859-1"?>
<!-- Generator: Adobe Illustrator 19.0.0, SVG Export Plug-In . SVG Version: 6.00 Build 0)  -->
<svg xmlns="http://www.w3.org/2000/svg" xmlns:xlink="http://www.w3.org/1999/xlink" version="1.1" id="Capa_1" x="0px" y="0px" viewBox="0 0 512 512" style="enable-background:new 0 0 512 512;" xml:space="preserve" width="512px" height="512px">
<g>
	<g>
		<g>
			<path d="M438.857,287.58h-9.143V320c-0.49,14.676-12.751,26.194-27.429,25.768H109.714C95.037,346.194,82.776,334.676,82.286,320     v-32.42h-9.143c-4.557-0.348-8.583,2.947-9.143,7.482v45.714c-0.001,0.991,0.064,1.982,0.196,2.964     c3.866,36.196,77.348,58.545,191.804,58.545s187.938-22.348,191.777-58.321c0.147-1.056,0.221-2.121,0.223-3.188v-45.714     C447.44,290.527,443.414,287.232,438.857,287.58z" fill="#00e0f0"/>
			<path d="M109.714,327.482h292.571c4.557,0.348,8.583-2.947,9.143-7.482v-68.071c0.74-56.064-26.741-108.748-73.143-140.222     v116.865c0,5.049-4.093,9.143-9.143,9.143S320,233.621,320,228.571V93.696l-27.429-9.989v49.391l6.152,5.589     c3.724,3.401,3.993,9.174,0.601,12.906s-9.165,4.014-12.904,0.63l-9.143-8.313c-1.903-1.736-2.989-4.192-2.991-6.767V62.339     c-0.506-4.565-4.568-7.889-9.143-7.482h-18.286c-4.575-0.407-8.636,2.917-9.143,7.482v74.804     c-0.002,2.576-1.088,5.032-2.991,6.768l-9.143,8.313c-2.417,2.207-5.828,2.954-8.946,1.96c-3.118-0.994-5.467-3.578-6.16-6.777     s0.375-6.523,2.802-8.719l6.152-5.589V83.708L192,93.696v134.875c0,5.049-4.093,9.143-9.143,9.143     c-5.049,0-9.143-4.093-9.143-9.143V111.707c-46.402,31.474-73.883,84.158-73.143,140.222V320     C101.132,324.536,105.157,327.83,109.714,327.482z" fill="#00e0f0"/>
			<path d="M256,0C114.615,0,0,114.615,0,256s114.615,256,256,256s256-114.615,256-256C511.842,114.681,397.319,0.158,256,0z      M465.502,348.595c-10.382,64.84-149.534,71.977-209.502,71.977c-59.923,0-198.904-7.126-209.502-72.042     c-0.514-1.128-0.781-2.352-0.783-3.592v-49.875c0.49-14.676,12.751-26.194,27.429-25.768h9.143v-17.366     c-0.915-66.623,34.231-128.543,91.902-161.913c1.103-6.186,5.432-11.308,11.349-13.426l33.893-12.337v-1.913     c0.49-14.676,12.751-26.194,27.429-25.768h18.286c14.678-0.426,26.939,11.092,27.429,25.768v1.914l33.937,12.354     c5.899,2.122,10.211,7.237,11.305,13.41c57.67,33.369,92.816,95.289,91.901,161.912v17.366h9.143     c14.678-0.426,26.939,11.092,27.429,25.768v49.875C466.282,346.198,466.015,347.444,465.502,348.595z" fill="#00e0f0"/>
		</g>
	</g>
</g>
<g>
</g>
<g>
</g>
<g>
</g>
<g>
</g>
<g>
</g>
<g>
</g>
<g>
</g>
<g>
</g>
<g>
</g>
<g>
</g>
<g>
</g>
<g>
</g>
<g>
</g>
<g>
</g>
<g>
</g>
</svg>
